<?xml version="1.0" encoding="us-ascii" standalone="no"?><svg xmlns="http://www.w3.org/2000/svg" xmlns:xlink="http://www.w3.org/1999/xlink" contentStyleType="text/css" height="655px" preserveAspectRatio="none" style="width:1077px;height:655px;background:#FFFFFF;" version="1.1" viewBox="0 0 1077 655" width="1077px" zoomAndPan="magnify"><defs/><g><rect fill="#FFFFFF" height="151.7578" style="stroke:#8FA3B8;stroke-width:1.0;" width="10" x="192" y="114.9609"/><rect fill="#FFFFFF" height="455.2734" style="stroke:#8FA3B8;stroke-width:1.0;" width="10" x="331" y="145.3125"/><rect fill="#FFFFFF" height="30.3516" style="stroke:#8FA3B8;stroke-width:1.0;" width="10" x="512" y="175.6641"/><rect fill="#FFFFFF" height="30.3516" style="stroke:#8FA3B8;stroke-width:1.0;" width="10" x="512" y="357.7734"/><rect fill="#FFFFFF" height="30.3516" style="stroke:#8FA3B8;stroke-width:1.0;" width="10" x="512" y="509.5313"/><rect fill="#FFFFFF" height="333.8672" style="stroke:#8FA3B8;stroke-width:1.0;" width="10" x="640" y="297.0703"/><line style="stroke:#8FA3B8;stroke-width:0.5;stroke-dasharray:5.0,5.0;" x1="31" x2="31" y1="82.6094" y2="648.9375"/><line style="stroke:#8FA3B8;stroke-width:0.5;stroke-dasharray:5.0,5.0;" x1="197" x2="197" y1="82.6094" y2="648.9375"/><line style="stroke:#8FA3B8;stroke-width:0.5;stroke-dasharray:5.0,5.0;" x1="336" x2="336" y1="82.6094" y2="648.9375"/><line style="stroke:#8FA3B8;stroke-width:0.5;stroke-dasharray:5.0,5.0;" x1="516.5" x2="516.5" y1="82.6094" y2="648.9375"/><line style="stroke:#8FA3B8;stroke-width:0.5;stroke-dasharray:5.0,5.0;" x1="644.5" x2="644.5" y1="82.6094" y2="648.9375"/><line style="stroke:#8FA3B8;stroke-width:0.5;stroke-dasharray:5.0,5.0;" x1="859.5" x2="859.5" y1="82.6094" y2="648.9375"/><line style="stroke:#8FA3B8;stroke-width:0.5;stroke-dasharray:5.0,5.0;" x1="996.5" x2="996.5" y1="82.6094" y2="648.9375"/><text fill="#000000" font-family="sans-serif" font-size="14" lengthAdjust="spacing" textLength="46" x="5" y="79.5332">Trainer</text><ellipse cx="31" cy="13.5" fill="#E8E8F5" rx="8" ry="8" style="stroke:#263241;stroke-width:0.5;"/><path d="M31,21.5 L31,48.5 M18,29.5 L44,29.5 M31,48.5 L18,63.5 M31,48.5 L44,63.5 " fill="none" style="stroke:#263241;stroke-width:0.5;"/><text fill="#000000" font-family="sans-serif" font-size="14" lengthAdjust="spacing" textLength="146" x="121" y="79.5332">Halaman Upload Materi</text><path d="M176.5,37 L176.5,61 M176.5,49 L193.5,49 " fill="none" style="stroke:#181818;stroke-width:0.5;"/><ellipse cx="205.5" cy="49" fill="#E2E2F0" rx="12" ry="12" style="stroke:#181818;stroke-width:0.5;"/><rect fill="#263241" height="31.6094" rx="2.5" ry="2.5" style="stroke:#263241;stroke-width:0.5;" width="56" x="308" y="50"/><text fill="#FFFFFF" font-family="sans-serif" font-size="14" lengthAdjust="spacing" textLength="42" x="315" y="71.5332">Sistem</text><text fill="#000000" font-family="sans-serif" font-size="14" lengthAdjust="spacing" textLength="61" x="483.5" y="79.5332">Database</text><path d="M499,29 C499,19 517,19 517,19 C517,19 535,19 535,29 L535,55 C535,65 517,65 517,65 C517,65 499,65 499,55 L499,29 " fill="#E2E2F0" style="stroke:#181818;stroke-width:1.5;"/><path d="M499,29 C499,39 517,39 517,39 C517,39 535,39 535,29 " fill="none" style="stroke:#181818;stroke-width:1.5;"/><text fill="#000000" font-family="sans-serif" font-size="14" lengthAdjust="spacing" textLength="163" x="560.5" y="79.5332">Dashboard Admin Trainer</text><path d="M624.5,37 L624.5,61 M624.5,49 L641.5,49 " fill="none" style="stroke:#181818;stroke-width:0.5;"/><ellipse cx="653.5" cy="49" fill="#E2E2F0" rx="12" ry="12" style="stroke:#181818;stroke-width:0.5;"/><text fill="#000000" font-family="sans-serif" font-size="14" lengthAdjust="spacing" textLength="89" x="812.5" y="79.5332">Admin Trainer</text><ellipse cx="860" cy="13.5" fill="#E8E8F5" rx="8" ry="8" style="stroke:#263241;stroke-width:0.5;"/><path d="M860,21.5 L860,48.5 M847,29.5 L873,29.5 M860,48.5 L847,63.5 M860,48.5 L873,63.5 " fill="none" style="stroke:#263241;stroke-width:0.5;"/><text fill="#000000" font-family="sans-serif" font-size="14" lengthAdjust="spacing" textLength="153" x="917.5" y="79.5332">Dashboard Admin Event</text><path d="M976.5,37 L976.5,61 M976.5,49 L993.5,49 " fill="none" style="stroke:#181818;stroke-width:0.5;"/><ellipse cx="1005.5" cy="49" fill="#E2E2F0" rx="12" ry="12" style="stroke:#181818;stroke-width:0.5;"/><rect fill="#FFFFFF" height="151.7578" style="stroke:#8FA3B8;stroke-width:1.0;" width="10" x="192" y="114.9609"/><rect fill="#FFFFFF" height="455.2734" style="stroke:#8FA3B8;stroke-width:1.0;" width="10" x="331" y="145.3125"/><rect fill="#FFFFFF" height="30.3516" style="stroke:#8FA3B8;stroke-width:1.0;" width="10" x="512" y="175.6641"/><rect fill="#FFFFFF" height="30.3516" style="stroke:#8FA3B8;stroke-width:1.0;" width="10" x="512" y="357.7734"/><rect fill="#FFFFFF" height="30.3516" style="stroke:#8FA3B8;stroke-width:1.0;" width="10" x="512" y="509.5313"/><rect fill="#FFFFFF" height="333.8672" style="stroke:#8FA3B8;stroke-width:1.0;" width="10" x="640" y="297.0703"/><polygon fill="#2F3B4A" points="180,110.9609,190,114.9609,180,118.9609,184,114.9609" style="stroke:#2F3B4A;stroke-width:1.0;"/><line style="stroke:#2F3B4A;stroke-width:1.0;" x1="31" x2="186" y1="114.9609" y2="114.9609"/><text fill="#000000" font-family="sans-serif" font-size="13" lengthAdjust="spacing" textLength="80" x="38" y="110.1045">Upload materi</text><polygon fill="#2F3B4A" points="319,141.3125,329,145.3125,319,149.3125,323,145.3125" style="stroke:#2F3B4A;stroke-width:1.0;"/><line style="stroke:#2F3B4A;stroke-width:1.0;" x1="202" x2="325" y1="145.3125" y2="145.3125"/><text fill="#000000" font-family="sans-serif" font-size="13" lengthAdjust="spacing" textLength="110" x="209" y="140.4561">Submit data materi</text><polygon fill="#2F3B4A" points="500,171.6641,510,175.6641,500,179.6641,504,175.6641" style="stroke:#2F3B4A;stroke-width:1.0;"/><line style="stroke:#2F3B4A;stroke-width:1.0;" x1="341" x2="506" y1="175.6641" y2="175.6641"/><text fill="#000000" font-family="sans-serif" font-size="13" lengthAdjust="spacing" textLength="113" x="348" y="170.8076">Simpan data materi</text><polygon fill="#2F3B4A" points="352,202.0156,342,206.0156,352,210.0156,348,206.0156" style="stroke:#2F3B4A;stroke-width:1.0;"/><line style="stroke:#2F3B4A;stroke-width:1.0;stroke-dasharray:2.0,2.0;" x1="346" x2="516" y1="206.0156" y2="206.0156"/><text fill="#000000" font-family="sans-serif" font-size="13" lengthAdjust="spacing" textLength="141" x="358" y="201.1592">Materi berhasil disimpan</text><polygon fill="#2F3B4A" points="213,232.3672,203,236.3672,213,240.3672,209,236.3672" style="stroke:#2F3B4A;stroke-width:1.0;"/><line style="stroke:#2F3B4A;stroke-width:1.0;stroke-dasharray:2.0,2.0;" x1="207" x2="330" y1="236.3672" y2="236.3672"/><text fill="#000000" font-family="sans-serif" font-size="13" lengthAdjust="spacing" textLength="89" x="219" y="231.5107">Upload berhasil</text><polygon fill="#2F3B4A" points="42,262.7188,32,266.7188,42,270.7188,38,266.7188" style="stroke:#2F3B4A;stroke-width:1.0;"/><line style="stroke:#2F3B4A;stroke-width:1.0;stroke-dasharray:2.0,2.0;" x1="36" x2="196" y1="266.7188" y2="266.7188"/><text fill="#000000" font-family="sans-serif" font-size="13" lengthAdjust="spacing" textLength="137" x="48" y="261.8623">Materi berhasil diupload</text><polygon fill="#2F3B4A" points="661,293.0703,651,297.0703,661,301.0703,657,297.0703" style="stroke:#2F3B4A;stroke-width:1.0;"/><line style="stroke:#2F3B4A;stroke-width:1.0;" x1="655" x2="859" y1="297.0703" y2="297.0703"/><text fill="#000000" font-family="sans-serif" font-size="13" lengthAdjust="spacing" textLength="133" x="667" y="292.2139">Membuka daftar materi</text><polygon fill="#2F3B4A" points="352,323.4219,342,327.4219,352,331.4219,348,327.4219" style="stroke:#2F3B4A;stroke-width:1.0;"/><line style="stroke:#2F3B4A;stroke-width:1.0;" x1="346" x2="639" y1="327.4219" y2="327.4219"/><text fill="#000000" font-family="sans-serif" font-size="13" lengthAdjust="spacing" textLength="117" x="358" y="322.5654">Request data materi</text><polygon fill="#2F3B4A" points="500,353.7734,510,357.7734,500,361.7734,504,357.7734" style="stroke:#2F3B4A;stroke-width:1.0;"/><line style="stroke:#2F3B4A;stroke-width:1.0;" x1="341" x2="506" y1="357.7734" y2="357.7734"/><text fill="#000000" font-family="sans-serif" font-size="13" lengthAdjust="spacing" textLength="102" x="348" y="352.917">Ambil data materi</text><polygon fill="#2F3B4A" points="352,384.125,342,388.125,352,392.125,348,388.125" style="stroke:#2F3B4A;stroke-width:1.0;"/><line style="stroke:#2F3B4A;stroke-width:1.0;stroke-dasharray:2.0,2.0;" x1="346" x2="516" y1="388.125" y2="388.125"/><text fill="#000000" font-family="sans-serif" font-size="13" lengthAdjust="spacing" textLength="131" x="358" y="383.2686">Data materi ditemukan</text><polygon fill="#2F3B4A" points="628,414.4766,638,418.4766,628,422.4766,632,418.4766" style="stroke:#2F3B4A;stroke-width:1.0;"/><line style="stroke:#2F3B4A;stroke-width:1.0;stroke-dasharray:2.0,2.0;" x1="341" x2="634" y1="418.4766" y2="418.4766"/><text fill="#000000" font-family="sans-serif" font-size="13" lengthAdjust="spacing" textLength="128" x="348" y="413.6201">Tampilkan data materi</text><polygon fill="#2F3B4A" points="661,444.8281,651,448.8281,661,452.8281,657,448.8281" style="stroke:#2F3B4A;stroke-width:1.0;"/><line style="stroke:#2F3B4A;stroke-width:1.0;" x1="655" x2="859" y1="448.8281" y2="448.8281"/><text fill="#000000" font-family="sans-serif" font-size="13" lengthAdjust="spacing" textLength="92" x="667" y="443.9717">Meninjau materi</text><polygon fill="#2F3B4A" points="352,475.1797,342,479.1797,352,483.1797,348,479.1797" style="stroke:#2F3B4A;stroke-width:1.0;"/><line style="stroke:#2F3B4A;stroke-width:1.0;" x1="346" x2="639" y1="479.1797" y2="479.1797"/><text fill="#000000" font-family="sans-serif" font-size="13" lengthAdjust="spacing" textLength="111" x="358" y="474.3232">Submit hasil review</text><polygon fill="#2F3B4A" points="500,505.5313,510,509.5313,500,513.5313,504,509.5313" style="stroke:#2F3B4A;stroke-width:1.0;"/><line style="stroke:#2F3B4A;stroke-width:1.0;" x1="341" x2="506" y1="509.5313" y2="509.5313"/><text fill="#000000" font-family="sans-serif" font-size="13" lengthAdjust="spacing" textLength="121" x="348" y="504.6748">Update status materi</text><polygon fill="#2F3B4A" points="352,535.8828,342,539.8828,352,543.8828,348,539.8828" style="stroke:#2F3B4A;stroke-width:1.0;"/><line style="stroke:#2F3B4A;stroke-width:1.0;stroke-dasharray:2.0,2.0;" x1="346" x2="516" y1="539.8828" y2="539.8828"/><text fill="#000000" font-family="sans-serif" font-size="13" lengthAdjust="spacing" textLength="147" x="358" y="535.0264">Status berhasil diperbarui</text><polygon fill="#2F3B4A" points="985,566.2344,995,570.2344,985,574.2344,989,570.2344" style="stroke:#2F3B4A;stroke-width:1.0;"/><line style="stroke:#2F3B4A;stroke-width:1.0;" x1="341" x2="991" y1="570.2344" y2="570.2344"/><text fill="#000000" font-family="sans-serif" font-size="13" lengthAdjust="spacing" textLength="151" x="348" y="565.3779">Tampilkan materi disetujui</text><polygon fill="#2F3B4A" points="628,596.5859,638,600.5859,628,604.5859,632,600.5859" style="stroke:#2F3B4A;stroke-width:1.0;"/><line style="stroke:#2F3B4A;stroke-width:1.0;stroke-dasharray:2.0,2.0;" x1="336" x2="634" y1="600.5859" y2="600.5859"/><text fill="#000000" font-family="sans-serif" font-size="13" lengthAdjust="spacing" textLength="145" x="343" y="595.7295">Review berhasil disimpan</text><polygon fill="#2F3B4A" points="848,626.9375,858,630.9375,848,634.9375,852,630.9375" style="stroke:#2F3B4A;stroke-width:1.0;"/><line style="stroke:#2F3B4A;stroke-width:1.0;stroke-dasharray:2.0,2.0;" x1="645" x2="854" y1="630.9375" y2="630.9375"/><text fill="#000000" font-family="sans-serif" font-size="13" lengthAdjust="spacing" textLength="186" x="652" y="626.0811">Status review berhasil diperbarui</text><!--SRC=[dPJFRjim3CRlUWeXEnVOacu8TYZWB35ww82XQH-0YfH6ZIsvb9nk6FRkaotPyHyvNUUJ8txyIFuevo2ve7kjBTC_2J57gGf0o2c3tV49TQduDvrff1_I-kbAZ7WfXTe9-fjGzoI8-ZM8v-bYTPtKntToB-wa4YkDN628BzDaiLhsurC5Az4FG2jtiW1bUpxpBulvzQUHP6WLbwLQsKYjP6SrJbNnmQ7_PhbPff_FWexpn_hnpckmmC28AVCsVg7_HZDk_WyXK1Md3mYE9n9MEG3-ehDRo207HH-BJ0Edty4Ab3CA9fpu0rASsT3PLXehybhaNmaFfUciQQAEDZywzTPW3am3SfhmNAgceo0FiJhKzEexdutbFTLqXSr9A1lnhyy92GRqwgOtCVtQ8Caz0TU6FBdNFXVIot4U7eZBtfOibvPMP4OMWHe9OfVMaAeIPUumnnDReAt-gbipjC447i38Z79fQZF2nTYYhJuvUUCp6DBf6sYnacKjxfRi4-kkpOyUsNhbB79M7i61s5l028hOPI5njowa- -g_oVGt4zz4ahDgelzOnFgSuuYuCpV8srkO8l40UI6pu-1Il0EaakePoZRnRKRXylgLeZX9yJh1wB7WrJp6WYtDUp5jVLRdyXG26M0fBxEwYNtAFL0jUoDi-LpAV-9yNmzw-VDfFjq9XivzO1fcn95tVDJOfVuB]--></g></svg>