<?xml version="1.0" encoding="UTF-8"?>
<svg xmlns="http://www.w3.org/2000/svg" version="1.1" width="600" height="600" viewBox="0 0 600 600"><rect x="0" y="0" width="600" height="600" fill="#ffffff"/><g transform="scale(17.143)"><g transform="translate(1,1)"><path fill-rule="evenodd" d="M10 0L10 1L8 1L8 3L9 3L9 4L8 4L8 8L6 8L6 9L7 9L7 10L5 10L5 9L4 9L4 8L3 8L3 9L2 9L2 8L0 8L0 15L1 15L1 16L0 16L0 17L1 17L1 18L0 18L0 19L1 19L1 20L0 20L0 21L1 21L1 22L0 22L0 23L1 23L1 24L0 24L0 25L1 25L1 24L2 24L2 25L4 25L4 24L6 24L6 25L8 25L8 27L9 27L9 24L10 24L10 25L11 25L11 26L10 26L10 27L11 27L11 26L12 26L12 28L10 28L10 29L8 29L8 30L9 30L9 31L8 31L8 33L9 33L9 31L10 31L10 30L11 30L11 29L12 29L12 28L13 28L13 29L14 29L14 30L13 30L13 32L12 32L12 31L11 31L11 32L10 32L10 33L13 33L13 32L14 32L14 33L15 33L15 32L14 32L14 30L15 30L15 28L14 28L14 26L15 26L15 24L14 24L14 22L15 22L15 21L14 21L14 20L18 20L18 21L17 21L17 22L16 22L16 23L17 23L17 22L19 22L19 23L18 23L18 24L17 24L17 25L16 25L16 27L17 27L17 28L16 28L16 29L18 29L18 27L19 27L19 26L20 26L20 25L19 25L19 23L20 23L20 24L21 24L21 25L23 25L23 26L24 26L24 27L20 27L20 28L19 28L19 29L20 29L20 31L19 31L19 32L18 32L18 30L17 30L17 32L18 32L18 33L19 33L19 32L20 32L20 33L25 33L25 31L26 31L26 30L27 30L27 29L28 29L28 31L27 31L27 33L28 33L28 31L29 31L29 33L30 33L30 24L28 24L28 23L27 23L27 22L28 22L28 21L26 21L26 22L25 22L25 19L23 19L23 21L22 21L22 18L25 18L25 17L27 17L27 18L28 18L28 17L29 17L29 20L30 20L30 18L31 18L31 19L33 19L33 18L31 18L31 17L29 17L29 16L30 16L30 15L29 15L29 13L27 13L27 10L28 10L28 12L29 12L29 10L31 10L31 12L32 12L32 13L30 13L30 14L31 14L31 16L32 16L32 17L33 17L33 16L32 16L32 14L33 14L33 9L32 9L32 8L30 8L30 9L29 9L29 8L26 8L26 10L25 10L25 6L24 6L24 10L25 10L25 11L24 11L24 14L22 14L22 13L23 13L23 12L22 12L22 10L23 10L23 8L22 8L22 7L23 7L23 5L24 5L24 4L25 4L25 3L24 3L24 0L23 0L23 1L22 1L22 2L23 2L23 5L22 5L22 4L21 4L21 3L20 3L20 2L21 2L21 1L20 1L20 0L18 0L18 1L17 1L17 0L15 0L15 2L14 2L14 4L13 4L13 3L12 3L12 7L11 7L11 4L10 4L10 3L9 3L9 2L11 2L11 0ZM16 1L16 3L17 3L17 4L16 4L16 5L17 5L17 7L18 7L18 3L17 3L17 1ZM19 1L19 2L20 2L20 1ZM19 4L19 5L20 5L20 4ZM9 5L9 8L8 8L8 9L10 9L10 10L8 10L8 11L6 11L6 12L8 12L8 13L10 13L10 14L11 14L11 13L10 13L10 12L9 12L9 11L11 11L11 8L10 8L10 5ZM13 5L13 7L12 7L12 8L14 8L14 5ZM21 5L21 7L22 7L22 5ZM15 6L15 7L16 7L16 6ZM19 6L19 10L18 10L18 11L16 11L16 10L17 10L17 9L18 9L18 8L15 8L15 9L14 9L14 10L13 10L13 11L15 11L15 14L13 14L13 12L12 12L12 16L10 16L10 15L8 15L8 14L7 14L7 13L5 13L5 12L4 12L4 13L2 13L2 16L1 16L1 17L2 17L2 16L4 16L4 15L3 15L3 14L7 14L7 15L5 15L5 17L6 17L6 18L7 18L7 17L9 17L9 16L10 16L10 17L11 17L11 18L12 18L12 16L13 16L13 17L14 17L14 18L13 18L13 20L12 20L12 19L9 19L9 18L8 18L8 19L6 19L6 20L8 20L8 22L7 22L7 21L6 21L6 22L7 22L7 23L6 23L6 24L9 24L9 22L10 22L10 23L11 23L11 25L12 25L12 24L13 24L13 20L14 20L14 18L15 18L15 19L16 19L16 17L17 17L17 19L19 19L19 22L20 22L20 23L22 23L22 24L23 24L23 23L25 23L25 22L24 22L24 21L23 21L23 23L22 23L22 22L21 22L21 21L20 21L20 20L21 20L21 19L20 19L20 17L21 17L21 18L22 18L22 17L25 17L25 16L24 16L24 15L23 15L23 16L22 16L22 17L21 17L21 15L22 15L22 14L16 14L16 13L17 13L17 12L19 12L19 13L20 13L20 11L21 11L21 9L20 9L20 6ZM1 9L1 10L2 10L2 9ZM28 9L28 10L29 10L29 9ZM31 9L31 10L32 10L32 9ZM19 10L19 11L20 11L20 10ZM25 11L25 13L26 13L26 11ZM25 14L25 15L26 15L26 14ZM27 14L27 15L28 15L28 16L29 16L29 15L28 15L28 14ZM7 15L7 16L6 16L6 17L7 17L7 16L8 16L8 15ZM13 15L13 16L14 16L14 17L15 17L15 16L16 16L16 15ZM17 15L17 17L18 17L18 15ZM19 16L19 17L20 17L20 16ZM1 18L1 19L2 19L2 22L3 22L3 23L2 23L2 24L4 24L4 23L5 23L5 21L3 21L3 20L5 20L5 18L4 18L4 19L3 19L3 18ZM10 20L10 21L11 21L11 22L12 22L12 21L11 21L11 20ZM31 20L31 21L32 21L32 23L31 23L31 22L30 22L30 21L29 21L29 23L31 23L31 24L33 24L33 21L32 21L32 20ZM13 25L13 26L14 26L14 25ZM25 25L25 28L28 28L28 25ZM32 25L32 26L31 26L31 31L33 31L33 27L32 27L32 26L33 26L33 25ZM26 26L26 27L27 27L27 26ZM20 28L20 29L21 29L21 28ZM23 28L23 29L22 29L22 30L23 30L23 31L22 31L22 32L24 32L24 30L25 30L25 29L24 29L24 28ZM20 31L20 32L21 32L21 31ZM31 32L31 33L32 33L32 32ZM0 0L0 7L7 7L7 0ZM1 1L1 6L6 6L6 1ZM2 2L2 5L5 5L5 2ZM26 0L26 7L33 7L33 0ZM27 1L27 6L32 6L32 1ZM28 2L28 5L31 5L31 2ZM0 26L0 33L7 33L7 26ZM1 27L1 32L6 32L6 27ZM2 28L2 31L5 31L5 28Z" fill="#000000"/></g></g></svg>
