<?xml version="1.0" encoding="UTF-8"?>
<svg xmlns="http://www.w3.org/2000/svg" version="1.1" width="600" height="600" viewBox="0 0 600 600"><rect x="0" y="0" width="600" height="600" fill="#ffffff"/><g transform="scale(17.143)"><g transform="translate(1,1)"><path fill-rule="evenodd" d="M9 0L9 1L8 1L8 2L9 2L9 3L8 3L8 4L10 4L10 7L11 7L11 4L12 4L12 5L13 5L13 4L19 4L19 5L20 5L20 4L21 4L21 3L23 3L23 2L21 2L21 3L20 3L20 2L19 2L19 1L20 1L20 0L19 0L19 1L18 1L18 0L16 0L16 1L15 1L15 2L14 2L14 1L11 1L11 2L10 2L10 0ZM21 0L21 1L24 1L24 2L25 2L25 1L24 1L24 0ZM17 1L17 3L19 3L19 4L20 4L20 3L19 3L19 2L18 2L18 1ZM12 2L12 4L13 4L13 3L14 3L14 2ZM15 2L15 3L16 3L16 2ZM10 3L10 4L11 4L11 3ZM23 4L23 5L22 5L22 7L21 7L21 6L20 6L20 7L19 7L19 6L18 6L18 7L19 7L19 8L20 8L20 7L21 7L21 8L23 8L23 9L22 9L22 10L21 10L21 9L18 9L18 8L17 8L17 6L16 6L16 5L15 5L15 6L14 6L14 8L13 8L13 6L12 6L12 9L16 9L16 10L14 10L14 12L13 12L13 13L12 13L12 11L13 11L13 10L11 10L11 11L10 11L10 9L11 9L11 8L6 8L6 9L9 9L9 14L8 14L8 15L7 15L7 14L6 14L6 13L8 13L8 12L6 12L6 13L5 13L5 12L4 12L4 13L2 13L2 12L3 12L3 11L7 11L7 10L4 10L4 9L5 9L5 8L0 8L0 9L3 9L3 11L2 11L2 12L1 12L1 10L0 10L0 12L1 12L1 15L0 15L0 16L1 16L1 17L0 17L0 19L1 19L1 21L0 21L0 25L1 25L1 21L2 21L2 22L4 22L4 21L5 21L5 18L4 18L4 17L7 17L7 18L6 18L6 19L7 19L7 20L6 20L6 21L9 21L9 22L6 22L6 23L7 23L7 24L5 24L5 23L4 23L4 24L3 24L3 23L2 23L2 24L3 24L3 25L4 25L4 24L5 24L5 25L7 25L7 24L8 24L8 23L10 23L10 24L9 24L9 25L8 25L8 27L10 27L10 26L11 26L11 28L10 28L10 31L9 31L9 28L8 28L8 33L9 33L9 32L10 32L10 33L11 33L11 29L12 29L12 30L13 30L13 31L12 31L12 33L13 33L13 32L14 32L14 33L16 33L16 32L14 32L14 31L16 31L16 30L14 30L14 29L12 29L12 27L13 27L13 26L11 26L11 21L12 21L12 22L13 22L13 23L12 23L12 25L14 25L14 26L15 26L15 29L19 29L19 30L18 30L18 32L17 32L17 33L18 33L18 32L22 32L22 33L23 33L23 32L24 32L24 33L25 33L25 32L24 32L24 31L27 31L27 32L28 32L28 33L29 33L29 31L30 31L30 32L31 32L31 33L32 33L32 32L31 32L31 31L32 31L32 30L31 30L31 29L30 29L30 28L31 28L31 27L32 27L32 28L33 28L33 27L32 27L32 26L33 26L33 24L32 24L32 26L31 26L31 25L30 25L30 24L31 24L31 23L32 23L32 22L33 22L33 21L32 21L32 20L31 20L31 19L32 19L32 18L33 18L33 17L32 17L32 16L31 16L31 15L32 15L32 14L33 14L33 13L31 13L31 15L30 15L30 13L29 13L29 10L28 10L28 8L27 8L27 9L26 9L26 8L24 8L24 7L25 7L25 5L24 5L24 4ZM8 5L8 7L9 7L9 5ZM23 5L23 7L24 7L24 5ZM15 6L15 8L16 8L16 9L17 9L17 10L16 10L16 12L18 12L18 13L13 13L13 14L12 14L12 13L11 13L11 12L10 12L10 13L11 13L11 15L10 15L10 19L9 19L9 18L8 18L8 20L11 20L11 18L13 18L13 19L12 19L12 21L13 21L13 22L14 22L14 23L13 23L13 24L14 24L14 25L15 25L15 26L18 26L18 27L17 27L17 28L18 28L18 27L19 27L19 28L21 28L21 29L20 29L20 30L19 30L19 31L21 31L21 29L23 29L23 31L24 31L24 27L23 27L23 28L21 28L21 27L20 27L20 26L19 26L19 25L21 25L21 26L22 26L22 25L23 25L23 26L24 26L24 25L23 25L23 23L24 23L24 24L27 24L27 22L25 22L25 21L27 21L27 20L28 20L28 19L26 19L26 18L25 18L25 17L28 17L28 18L29 18L29 17L30 17L30 19L29 19L29 20L30 20L30 21L28 21L28 24L30 24L30 23L29 23L29 22L30 22L30 21L31 21L31 20L30 20L30 19L31 19L31 16L30 16L30 15L29 15L29 13L28 13L28 16L26 16L26 14L25 14L25 13L27 13L27 12L28 12L28 11L27 11L27 10L25 10L25 9L24 9L24 10L22 10L22 11L23 11L23 12L21 12L21 11L20 11L20 10L18 10L18 9L17 9L17 8L16 8L16 6ZM29 8L29 9L30 9L30 8ZM31 8L31 10L33 10L33 9L32 9L32 8ZM17 10L17 11L18 11L18 12L19 12L19 13L18 13L18 14L20 14L20 13L21 13L21 16L20 16L20 15L19 15L19 16L17 16L17 15L16 15L16 14L13 14L13 15L12 15L12 17L13 17L13 18L15 18L15 19L14 19L14 20L13 20L13 21L15 21L15 20L16 20L16 21L18 21L18 22L21 22L21 24L22 24L22 23L23 23L23 22L24 22L24 21L25 21L25 20L24 20L24 21L23 21L23 18L24 18L24 17L22 17L22 19L21 19L21 18L20 18L20 17L21 17L21 16L22 16L22 14L24 14L24 15L23 15L23 16L24 16L24 15L25 15L25 14L24 14L24 13L25 13L25 12L26 12L26 11L25 11L25 12L24 12L24 13L21 13L21 12L19 12L19 11L18 11L18 10ZM30 11L30 12L31 12L31 11ZM2 14L2 17L4 17L4 16L3 16L3 15L5 15L5 16L7 16L7 15L5 15L5 14ZM13 15L13 16L14 16L14 17L15 17L15 18L19 18L19 19L16 19L16 20L18 20L18 21L22 21L22 20L21 20L21 19L20 19L20 18L19 18L19 17L20 17L20 16L19 16L19 17L15 17L15 16L16 16L16 15ZM28 16L28 17L29 17L29 16ZM1 18L1 19L2 19L2 18ZM3 19L3 20L2 20L2 21L4 21L4 19ZM19 19L19 20L20 20L20 19ZM15 22L15 23L14 23L14 24L15 24L15 25L19 25L19 24L20 24L20 23L18 23L18 24L16 24L16 23L17 23L17 22ZM9 25L9 26L10 26L10 25ZM25 25L25 28L28 28L28 25ZM29 25L29 28L30 28L30 27L31 27L31 26L30 26L30 25ZM26 26L26 27L27 27L27 26ZM25 29L25 30L28 30L28 31L29 31L29 30L28 30L28 29ZM30 30L30 31L31 31L31 30ZM0 0L0 7L7 7L7 0ZM1 1L1 6L6 6L6 1ZM2 2L2 5L5 5L5 2ZM26 0L26 7L33 7L33 0ZM27 1L27 6L32 6L32 1ZM28 2L28 5L31 5L31 2ZM0 26L0 33L7 33L7 26ZM1 27L1 32L6 32L6 27ZM2 28L2 31L5 31L5 28Z" fill="#000000"/></g></g></svg>
