<?xml version="1.0" encoding="UTF-8"?>
<svg xmlns="http://www.w3.org/2000/svg" version="1.1" width="600" height="600" viewBox="0 0 600 600"><rect x="0" y="0" width="600" height="600" fill="#ffffff"/><g transform="scale(17.143)"><g transform="translate(1,1)"><path fill-rule="evenodd" d="M9 0L9 1L11 1L11 2L9 2L9 3L8 3L8 5L9 5L9 6L8 6L8 7L9 7L9 9L10 9L10 10L8 10L8 8L5 8L5 9L7 9L7 10L6 10L6 11L8 11L8 13L9 13L9 14L4 14L4 15L3 15L3 13L4 13L4 11L5 11L5 10L2 10L2 8L0 8L0 10L2 10L2 11L1 11L1 13L2 13L2 14L0 14L0 16L1 16L1 15L3 15L3 17L5 17L5 15L9 15L9 16L6 16L6 17L7 17L7 18L4 18L4 19L5 19L5 20L3 20L3 19L1 19L1 21L0 21L0 25L4 25L4 24L3 24L3 23L7 23L7 24L5 24L5 25L8 25L8 28L9 28L9 31L8 31L8 33L9 33L9 32L10 32L10 31L12 31L12 33L13 33L13 32L14 32L14 33L16 33L16 32L17 32L17 33L18 33L18 32L17 32L17 30L16 30L16 29L19 29L19 30L18 30L18 31L19 31L19 32L20 32L20 33L21 33L21 31L22 31L22 32L24 32L24 33L25 33L25 32L24 32L24 31L25 31L25 29L27 29L27 31L28 31L28 33L29 33L29 30L31 30L31 29L30 29L30 28L31 28L31 27L32 27L32 26L33 26L33 25L32 25L32 24L31 24L31 23L32 23L32 20L31 20L31 19L30 19L30 20L29 20L29 19L28 19L28 18L27 18L27 17L25 17L25 19L26 19L26 18L27 18L27 21L28 21L28 22L27 22L27 23L28 23L28 22L29 22L29 23L30 23L30 24L31 24L31 25L30 25L30 26L31 26L31 27L30 27L30 28L29 28L29 24L24 24L24 23L23 23L23 22L24 22L24 21L25 21L25 22L26 22L26 21L25 21L25 20L24 20L24 21L23 21L23 19L24 19L24 17L21 17L21 16L20 16L20 15L19 15L19 14L21 14L21 15L23 15L23 16L24 16L24 15L25 15L25 14L26 14L26 15L28 15L28 17L29 17L29 18L30 18L30 17L29 17L29 15L30 15L30 16L31 16L31 18L32 18L32 19L33 19L33 17L32 17L32 16L33 16L33 15L32 15L32 14L33 14L33 12L31 12L31 11L30 11L30 12L29 12L29 9L30 9L30 8L28 8L28 10L27 10L27 12L26 12L26 11L25 11L25 12L22 12L22 14L21 14L21 11L19 11L19 10L21 10L21 8L20 8L20 7L21 7L21 6L22 6L22 8L23 8L23 10L22 10L22 11L23 11L23 10L24 10L24 9L25 9L25 10L26 10L26 9L25 9L25 8L24 8L24 7L25 7L25 5L24 5L24 4L23 4L23 2L22 2L22 0L20 0L20 1L21 1L21 2L19 2L19 1L18 1L18 0L17 0L17 1L16 1L16 2L17 2L17 1L18 1L18 2L19 2L19 3L17 3L17 5L18 5L18 7L19 7L19 8L17 8L17 6L16 6L16 8L15 8L15 6L14 6L14 5L15 5L15 3L13 3L13 4L12 4L12 2L14 2L14 1L15 1L15 0L13 0L13 1L12 1L12 0ZM24 1L24 2L25 2L25 1ZM9 3L9 5L10 5L10 3ZM19 3L19 4L18 4L18 5L19 5L19 7L20 7L20 6L21 6L21 5L23 5L23 7L24 7L24 5L23 5L23 4L21 4L21 5L19 5L19 4L20 4L20 3ZM11 4L11 7L10 7L10 6L9 6L9 7L10 7L10 8L11 8L11 10L10 10L10 11L9 11L9 12L10 12L10 11L11 11L11 10L14 10L14 11L12 11L12 12L11 12L11 14L10 14L10 15L11 15L11 17L10 17L10 16L9 16L9 18L7 18L7 19L6 19L6 20L7 20L7 19L8 19L8 20L11 20L11 19L12 19L12 21L10 21L10 22L9 22L9 21L5 21L5 22L7 22L7 23L10 23L10 24L12 24L12 23L13 23L13 25L11 25L11 26L10 26L10 25L9 25L9 27L11 27L11 26L14 26L14 27L12 27L12 29L11 29L11 28L10 28L10 29L11 29L11 30L12 30L12 31L14 31L14 32L16 32L16 31L15 31L15 28L16 28L16 27L15 27L15 17L12 17L12 15L13 15L13 16L14 16L14 14L15 14L15 12L16 12L16 11L15 11L15 10L14 10L14 9L12 9L12 6L13 6L13 8L14 8L14 6L13 6L13 5L14 5L14 4L13 4L13 5L12 5L12 4ZM16 8L16 10L17 10L17 14L19 14L19 13L18 13L18 12L19 12L19 11L18 11L18 10L19 10L19 9L20 9L20 8L19 8L19 9L18 9L18 10L17 10L17 8ZM31 9L31 10L32 10L32 9ZM2 11L2 13L3 13L3 11ZM14 11L14 12L15 12L15 11ZM5 12L5 13L7 13L7 12ZM28 12L28 13L27 13L27 14L28 14L28 15L29 15L29 12ZM30 12L30 15L31 15L31 16L32 16L32 15L31 15L31 12ZM12 13L12 14L13 14L13 13ZM24 13L24 14L23 14L23 15L24 15L24 14L25 14L25 13ZM15 15L15 16L16 16L16 17L17 17L17 18L18 18L18 19L16 19L16 26L17 26L17 28L18 28L18 27L19 27L19 29L20 29L20 31L21 31L21 30L22 30L22 31L23 31L23 30L24 30L24 27L21 27L21 26L19 26L19 25L18 25L18 22L19 22L19 23L20 23L20 24L21 24L21 25L22 25L22 24L23 24L23 26L24 26L24 24L23 24L23 23L20 23L20 22L19 22L19 21L18 21L18 22L17 22L17 20L21 20L21 22L23 22L23 21L22 21L22 19L23 19L23 18L21 18L21 17L20 17L20 16L19 16L19 15ZM17 16L17 17L18 17L18 18L19 18L19 19L21 19L21 18L20 18L20 17L18 17L18 16ZM9 18L9 19L10 19L10 18ZM12 18L12 19L14 19L14 18ZM2 20L2 22L1 22L1 24L2 24L2 23L3 23L3 20ZM13 20L13 21L12 21L12 22L13 22L13 21L14 21L14 20ZM30 20L30 21L29 21L29 22L30 22L30 21L31 21L31 20ZM25 25L25 28L28 28L28 25ZM31 25L31 26L32 26L32 25ZM26 26L26 27L27 27L27 26ZM14 27L14 28L15 28L15 27ZM20 27L20 29L21 29L21 27ZM12 29L12 30L14 30L14 29ZM22 29L22 30L23 30L23 29ZM32 30L32 31L33 31L33 30ZM30 31L30 32L31 32L31 33L32 33L32 32L31 32L31 31ZM0 0L0 7L7 7L7 0ZM1 1L1 6L6 6L6 1ZM2 2L2 5L5 5L5 2ZM26 0L26 7L33 7L33 0ZM27 1L27 6L32 6L32 1ZM28 2L28 5L31 5L31 2ZM0 26L0 33L7 33L7 26ZM1 27L1 32L6 32L6 27ZM2 28L2 31L5 31L5 28Z" fill="#000000"/></g></g></svg>
