<?xml version="1.0" encoding="UTF-8"?>
<svg xmlns="http://www.w3.org/2000/svg" version="1.1" width="600" height="600" viewBox="0 0 600 600"><rect x="0" y="0" width="600" height="600" fill="#ffffff"/><g transform="scale(17.143)"><g transform="translate(1,1)"><path fill-rule="evenodd" d="M10 0L10 2L11 2L11 0ZM12 0L12 1L13 1L13 0ZM16 0L16 1L15 1L15 2L14 2L14 3L13 3L13 2L12 2L12 4L14 4L14 5L11 5L11 6L10 6L10 4L11 4L11 3L8 3L8 4L9 4L9 5L8 5L8 7L9 7L9 8L6 8L6 9L7 9L7 10L5 10L5 11L4 11L4 9L5 9L5 8L0 8L0 11L1 11L1 12L0 12L0 13L2 13L2 11L1 11L1 10L3 10L3 14L2 14L2 15L1 15L1 14L0 14L0 17L1 17L1 16L3 16L3 17L2 17L2 18L0 18L0 20L3 20L3 21L0 21L0 25L1 25L1 22L3 22L3 23L4 23L4 24L3 24L3 25L5 25L5 24L6 24L6 25L7 25L7 24L6 24L6 23L8 23L8 27L10 27L10 26L9 26L9 23L8 23L8 20L6 20L6 19L7 19L7 18L6 18L6 19L5 19L5 16L6 16L6 17L8 17L8 15L9 15L9 13L11 13L11 12L9 12L9 13L8 13L8 12L6 12L6 11L8 11L8 9L10 9L10 11L11 11L11 9L12 9L12 10L15 10L15 13L14 13L14 12L13 12L13 11L12 11L12 13L14 13L14 14L10 14L10 16L9 16L9 17L10 17L10 19L9 19L9 21L10 21L10 23L11 23L11 24L10 24L10 25L12 25L12 26L13 26L13 27L12 27L12 29L13 29L13 28L14 28L14 29L16 29L16 30L15 30L15 31L14 31L14 32L15 32L15 33L21 33L21 32L24 32L24 33L25 33L25 32L24 32L24 31L27 31L27 32L28 32L28 33L29 33L29 31L30 31L30 32L31 32L31 33L32 33L32 32L31 32L31 31L32 31L32 30L31 30L31 29L30 29L30 28L32 28L32 26L33 26L33 24L32 24L32 26L31 26L31 25L30 25L30 24L31 24L31 23L32 23L32 22L33 22L33 21L32 21L32 20L31 20L31 19L32 19L32 18L33 18L33 17L32 17L32 16L31 16L31 15L32 15L32 14L33 14L33 13L31 13L31 15L30 15L30 13L29 13L29 10L28 10L28 8L27 8L27 9L26 9L26 8L24 8L24 7L25 7L25 5L24 5L24 4L23 4L23 5L22 5L22 7L21 7L21 6L20 6L20 7L19 7L19 5L20 5L20 4L21 4L21 3L23 3L23 2L20 2L20 4L19 4L19 3L17 3L17 2L16 2L16 1L18 1L18 2L19 2L19 1L20 1L20 0L19 0L19 1L18 1L18 0ZM21 0L21 1L24 1L24 2L25 2L25 1L24 1L24 0ZM8 1L8 2L9 2L9 1ZM15 2L15 3L14 3L14 4L15 4L15 5L16 5L16 6L15 6L15 7L14 7L14 6L13 6L13 7L12 7L12 6L11 6L11 7L12 7L12 9L13 9L13 8L14 8L14 9L15 9L15 10L16 10L16 11L17 11L17 12L19 12L19 13L15 13L15 14L14 14L14 15L12 15L12 17L11 17L11 20L10 20L10 21L11 21L11 22L14 22L14 21L15 21L15 22L17 22L17 23L16 23L16 24L18 24L18 25L15 25L15 24L14 24L14 23L12 23L12 25L14 25L14 26L16 26L16 27L14 27L14 28L16 28L16 29L17 29L17 31L15 31L15 32L21 32L21 31L20 31L20 30L21 30L21 29L22 29L22 30L23 30L23 31L24 31L24 27L23 27L23 26L24 26L24 25L23 25L23 24L21 24L21 22L22 22L22 21L24 21L24 22L23 22L23 23L24 23L24 24L27 24L27 22L25 22L25 21L27 21L27 20L28 20L28 19L26 19L26 18L25 18L25 17L28 17L28 18L29 18L29 17L30 17L30 19L29 19L29 20L30 20L30 21L28 21L28 24L30 24L30 23L29 23L29 22L30 22L30 21L31 21L31 20L30 20L30 19L31 19L31 16L30 16L30 15L29 15L29 13L28 13L28 16L26 16L26 14L25 14L25 13L27 13L27 12L28 12L28 11L27 11L27 10L25 10L25 9L24 9L24 10L19 10L19 11L17 11L17 10L18 10L18 9L23 9L23 8L19 8L19 7L18 7L18 5L19 5L19 4L18 4L18 5L16 5L16 4L17 4L17 3L16 3L16 2ZM15 3L15 4L16 4L16 3ZM23 5L23 7L24 7L24 5ZM9 6L9 7L10 7L10 6ZM16 6L16 7L15 7L15 9L18 9L18 8L16 8L16 7L17 7L17 6ZM10 8L10 9L11 9L11 8ZM29 8L29 9L30 9L30 8ZM31 8L31 10L33 10L33 9L32 9L32 8ZM19 11L19 12L22 12L22 11ZM25 11L25 12L24 12L24 13L22 13L22 15L21 15L21 16L22 16L22 17L18 17L18 16L20 16L20 15L18 15L18 16L16 16L16 15L17 15L17 14L15 14L15 16L13 16L13 17L12 17L12 18L13 18L13 19L12 19L12 21L14 21L14 20L16 20L16 21L19 21L19 22L18 22L18 24L20 24L20 25L18 25L18 26L17 26L17 27L19 27L19 26L20 26L20 27L21 27L21 28L19 28L19 29L18 29L18 28L17 28L17 29L18 29L18 30L20 30L20 29L21 29L21 28L22 28L22 29L23 29L23 27L22 27L22 26L23 26L23 25L21 25L21 24L20 24L20 23L19 23L19 22L20 22L20 21L21 21L21 20L22 20L22 19L23 19L23 18L24 18L24 17L23 17L23 16L24 16L24 15L25 15L25 14L24 14L24 13L25 13L25 12L26 12L26 11ZM30 11L30 12L31 12L31 11ZM4 12L4 14L3 14L3 15L4 15L4 14L8 14L8 13L5 13L5 12ZM19 13L19 14L21 14L21 13ZM23 14L23 15L24 15L24 14ZM6 15L6 16L7 16L7 15ZM15 16L15 17L13 17L13 18L14 18L14 19L13 19L13 20L14 20L14 19L15 19L15 18L16 18L16 20L19 20L19 21L20 21L20 20L19 20L19 19L21 19L21 18L18 18L18 17L16 17L16 16ZM28 16L28 17L29 17L29 16ZM3 17L3 18L4 18L4 17ZM4 19L4 21L3 21L3 22L4 22L4 23L5 23L5 22L7 22L7 21L5 21L5 19ZM24 20L24 21L25 21L25 20ZM4 21L4 22L5 22L5 21ZM20 25L20 26L21 26L21 25ZM25 25L25 28L28 28L28 25ZM29 25L29 28L30 28L30 27L31 27L31 26L30 26L30 25ZM26 26L26 27L27 27L27 26ZM8 28L8 33L12 33L12 31L13 31L13 30L11 30L11 29L10 29L10 28ZM9 29L9 32L11 32L11 31L10 31L10 29ZM25 29L25 30L28 30L28 31L29 31L29 30L28 30L28 29ZM30 30L30 31L31 31L31 30ZM0 0L0 7L7 7L7 0ZM1 1L1 6L6 6L6 1ZM2 2L2 5L5 5L5 2ZM26 0L26 7L33 7L33 0ZM27 1L27 6L32 6L32 1ZM28 2L28 5L31 5L31 2ZM0 26L0 33L7 33L7 26ZM1 27L1 32L6 32L6 27ZM2 28L2 31L5 31L5 28Z" fill="#000000"/></g></g></svg>
