<?xml version="1.0" encoding="UTF-8"?>
<svg xmlns="http://www.w3.org/2000/svg" version="1.1" width="600" height="600" viewBox="0 0 600 600"><rect x="0" y="0" width="600" height="600" fill="#ffffff"/><g transform="scale(17.143)"><g transform="translate(1,1)"><path fill-rule="evenodd" d="M8 0L8 1L10 1L10 0ZM14 0L14 1L13 1L13 2L11 2L11 4L10 4L10 3L9 3L9 2L8 2L8 5L9 5L9 6L8 6L8 7L9 7L9 8L8 8L8 9L7 9L7 8L6 8L6 9L5 9L5 10L4 10L4 13L3 13L3 15L2 15L2 17L3 17L3 19L4 19L4 18L6 18L6 19L5 19L5 20L6 20L6 21L4 21L4 22L3 22L3 20L2 20L2 19L1 19L1 18L0 18L0 20L1 20L1 21L0 21L0 22L1 22L1 21L2 21L2 22L3 22L3 23L1 23L1 24L0 24L0 25L1 25L1 24L4 24L4 25L5 25L5 24L6 24L6 25L7 25L7 24L8 24L8 26L9 26L9 23L10 23L10 26L11 26L11 27L9 27L9 29L8 29L8 33L9 33L9 32L10 32L10 33L11 33L11 32L12 32L12 31L11 31L11 28L12 28L12 29L13 29L13 28L12 28L12 26L13 26L13 25L14 25L14 22L13 22L13 18L14 18L14 21L16 21L16 20L15 20L15 19L17 19L17 21L18 21L18 18L16 18L16 17L15 17L15 16L17 16L17 15L18 15L18 14L19 14L19 16L18 16L18 17L19 17L19 16L20 16L20 19L21 19L21 18L22 18L22 20L21 20L21 21L20 21L20 20L19 20L19 22L17 22L17 23L19 23L19 22L22 22L22 24L23 24L23 25L21 25L21 24L20 24L20 25L19 25L19 24L15 24L15 26L14 26L14 29L15 29L15 30L13 30L13 33L15 33L15 31L17 31L17 32L16 32L16 33L23 33L23 32L18 32L18 31L19 31L19 29L17 29L17 30L16 30L16 29L15 29L15 26L16 26L16 28L17 28L17 26L18 26L18 28L20 28L20 30L21 30L21 31L22 31L22 28L23 28L23 29L25 29L25 30L24 30L24 32L25 32L25 33L26 33L26 32L27 32L27 33L28 33L28 32L30 32L30 33L31 33L31 32L30 32L30 29L31 29L31 31L32 31L32 32L33 32L33 31L32 31L32 29L33 29L33 27L32 27L32 29L31 29L31 26L30 26L30 24L29 24L29 23L28 23L28 24L26 24L26 23L27 23L27 22L28 22L28 21L26 21L26 20L29 20L29 21L30 21L30 22L31 22L31 24L32 24L32 25L33 25L33 24L32 24L32 23L33 23L33 21L31 21L31 20L30 20L30 18L31 18L31 19L32 19L32 20L33 20L33 19L32 19L32 18L33 18L33 16L31 16L31 14L32 14L32 13L30 13L30 14L28 14L28 15L27 15L27 14L26 14L26 13L25 13L25 10L26 10L26 11L27 11L27 13L29 13L29 12L28 12L28 11L31 11L31 12L32 12L32 11L33 11L33 8L32 8L32 9L31 9L31 8L28 8L28 9L26 9L26 8L25 8L25 6L24 6L24 8L23 8L23 6L22 6L22 4L21 4L21 6L20 6L20 4L19 4L19 3L21 3L21 2L22 2L22 1L23 1L23 2L24 2L24 3L25 3L25 2L24 2L24 0L21 0L21 1L20 1L20 0L19 0L19 1L20 1L20 2L18 2L18 1L16 1L16 3L14 3L14 2L15 2L15 0ZM17 2L17 3L16 3L16 4L17 4L17 3L18 3L18 2ZM12 3L12 5L10 5L10 6L9 6L9 7L10 7L10 8L9 8L9 9L10 9L10 10L8 10L8 11L9 11L9 12L10 12L10 13L11 13L11 11L14 11L14 10L15 10L15 12L14 12L14 13L13 13L13 12L12 12L12 14L10 14L10 15L9 15L9 14L8 14L8 17L6 17L6 18L8 18L8 19L9 19L9 20L7 20L7 19L6 19L6 20L7 20L7 21L6 21L6 22L4 22L4 23L6 23L6 24L7 24L7 23L6 23L6 22L7 22L7 21L9 21L9 22L10 22L10 23L11 23L11 25L12 25L12 24L13 24L13 23L11 23L11 22L12 22L12 21L11 21L11 20L12 20L12 19L9 19L9 18L8 18L8 17L9 17L9 16L10 16L10 18L12 18L12 17L13 17L13 16L14 16L14 14L15 14L15 15L17 15L17 13L16 13L16 14L15 14L15 12L19 12L19 13L20 13L20 10L21 10L21 14L22 14L22 15L24 15L24 16L25 16L25 18L23 18L23 16L22 16L22 18L23 18L23 19L25 19L25 20L22 20L22 21L24 21L24 22L25 22L25 23L26 23L26 22L25 22L25 20L26 20L26 15L25 15L25 14L24 14L24 11L23 11L23 10L22 10L22 9L20 9L20 6L19 6L19 7L18 7L18 6L17 6L17 7L18 7L18 9L17 9L17 10L16 10L16 5L14 5L14 4L13 4L13 3ZM24 4L24 5L25 5L25 4ZM12 5L12 7L11 7L11 6L10 6L10 7L11 7L11 8L12 8L12 7L13 7L13 5ZM14 6L14 7L15 7L15 6ZM21 6L21 8L22 8L22 6ZM0 8L0 10L1 10L1 11L0 11L0 12L1 12L1 11L2 11L2 12L3 12L3 11L2 11L2 9L4 9L4 8ZM14 8L14 9L15 9L15 8ZM24 8L24 10L25 10L25 8ZM6 9L6 10L5 10L5 11L6 11L6 12L7 12L7 11L6 11L6 10L7 10L7 9ZM19 9L19 10L20 10L20 9ZM28 9L28 10L27 10L27 11L28 11L28 10L31 10L31 11L32 11L32 10L31 10L31 9ZM5 13L5 14L4 14L4 16L3 16L3 17L4 17L4 16L5 16L5 15L6 15L6 16L7 16L7 15L6 15L6 14L7 14L7 13ZM22 13L22 14L23 14L23 13ZM12 14L12 16L11 16L11 15L10 15L10 16L11 16L11 17L12 17L12 16L13 16L13 14ZM20 15L20 16L21 16L21 15ZM28 15L28 16L30 16L30 15ZM0 16L0 17L1 17L1 16ZM27 17L27 18L28 18L28 17ZM31 17L31 18L32 18L32 17ZM9 20L9 21L10 21L10 22L11 22L11 21L10 21L10 20ZM16 25L16 26L17 26L17 25ZM25 25L25 28L28 28L28 25ZM21 26L21 27L20 27L20 28L21 28L21 27L23 27L23 28L24 28L24 27L23 27L23 26ZM26 26L26 27L27 27L27 26ZM29 26L29 29L28 29L28 31L27 31L27 32L28 32L28 31L29 31L29 29L30 29L30 26ZM9 29L9 31L10 31L10 32L11 32L11 31L10 31L10 29ZM26 29L26 30L27 30L27 29ZM17 30L17 31L18 31L18 30ZM25 31L25 32L26 32L26 31ZM0 0L0 7L7 7L7 0ZM1 1L1 6L6 6L6 1ZM2 2L2 5L5 5L5 2ZM26 0L26 7L33 7L33 0ZM27 1L27 6L32 6L32 1ZM28 2L28 5L31 5L31 2ZM0 26L0 33L7 33L7 26ZM1 27L1 32L6 32L6 27ZM2 28L2 31L5 31L5 28Z" fill="#000000"/></g></g></svg>
