<?xml version="1.0" encoding="UTF-8"?>
<svg xmlns="http://www.w3.org/2000/svg" version="1.1" width="600" height="600" viewBox="0 0 600 600"><rect x="0" y="0" width="600" height="600" fill="#ffffff"/><g transform="scale(17.143)"><g transform="translate(1,1)"><path fill-rule="evenodd" d="M10 0L10 2L11 2L11 0ZM12 0L12 1L13 1L13 0ZM16 0L16 1L14 1L14 3L13 3L13 2L12 2L12 4L14 4L14 5L11 5L11 6L10 6L10 4L11 4L11 3L8 3L8 4L9 4L9 5L8 5L8 7L9 7L9 8L6 8L6 9L5 9L5 8L0 8L0 10L2 10L2 9L3 9L3 10L4 10L4 13L5 13L5 11L7 11L7 10L9 10L9 9L10 9L10 11L11 11L11 9L12 9L12 10L13 10L13 11L12 11L12 13L14 13L14 16L13 16L13 17L12 17L12 15L13 15L13 14L11 14L11 15L10 15L10 14L8 14L8 13L11 13L11 12L9 12L9 11L8 11L8 13L7 13L7 12L6 12L6 13L7 13L7 14L6 14L6 15L3 15L3 11L2 11L2 12L1 12L1 11L0 11L0 13L2 13L2 15L1 15L1 14L0 14L0 15L1 15L1 16L2 16L2 15L3 15L3 17L2 17L2 18L3 18L3 17L4 17L4 16L6 16L6 17L5 17L5 19L2 19L2 20L3 20L3 21L2 21L2 23L3 23L3 24L4 24L4 25L7 25L7 24L5 24L5 22L6 22L6 23L7 23L7 22L6 22L6 21L8 21L8 22L9 22L9 24L8 24L8 27L11 27L11 26L9 26L9 24L10 24L10 25L12 25L12 26L13 26L13 27L12 27L12 29L13 29L13 28L14 28L14 29L19 29L19 30L15 30L15 31L14 31L14 32L15 32L15 33L16 33L16 32L15 32L15 31L19 31L19 30L20 30L20 32L22 32L22 33L23 33L23 32L24 32L24 33L25 33L25 32L24 32L24 31L27 31L27 32L28 32L28 33L29 33L29 31L30 31L30 32L31 32L31 33L32 33L32 32L31 32L31 31L32 31L32 30L31 30L31 29L30 29L30 28L32 28L32 26L33 26L33 24L32 24L32 26L31 26L31 25L30 25L30 24L31 24L31 23L32 23L32 22L33 22L33 21L32 21L32 20L31 20L31 19L32 19L32 18L33 18L33 17L32 17L32 16L31 16L31 15L32 15L32 14L33 14L33 13L31 13L31 15L30 15L30 13L29 13L29 10L28 10L28 8L27 8L27 9L26 9L26 8L24 8L24 7L25 7L25 5L24 5L24 4L23 4L23 5L22 5L22 7L21 7L21 5L20 5L20 4L21 4L21 3L23 3L23 2L21 2L21 1L24 1L24 2L25 2L25 1L24 1L24 0L21 0L21 1L20 1L20 0L19 0L19 1L20 1L20 2L21 2L21 3L17 3L17 4L16 4L16 3L15 3L15 2L16 2L16 1L17 1L17 2L18 2L18 1L17 1L17 0ZM8 1L8 2L9 2L9 1ZM14 3L14 4L15 4L15 5L14 5L14 6L13 6L13 7L12 7L12 6L11 6L11 7L12 7L12 9L13 9L13 10L14 10L14 11L13 11L13 12L14 12L14 13L15 13L15 14L16 14L16 16L15 16L15 17L13 17L13 18L12 18L12 17L11 17L11 16L10 16L10 15L9 15L9 16L8 16L8 14L7 14L7 15L6 15L6 16L8 16L8 21L9 21L9 22L14 22L14 23L12 23L12 25L14 25L14 26L17 26L17 27L16 27L16 28L19 28L19 29L23 29L23 31L24 31L24 27L22 27L22 26L18 26L18 25L23 25L23 26L24 26L24 25L23 25L23 24L20 24L20 22L22 22L22 21L24 21L24 22L23 22L23 23L24 23L24 24L27 24L27 22L25 22L25 21L27 21L27 20L28 20L28 19L26 19L26 18L25 18L25 17L28 17L28 18L29 18L29 17L30 17L30 19L29 19L29 20L30 20L30 21L28 21L28 24L30 24L30 23L29 23L29 22L30 22L30 21L31 21L31 20L30 20L30 19L31 19L31 16L30 16L30 15L29 15L29 13L28 13L28 16L26 16L26 14L25 14L25 13L27 13L27 12L28 12L28 11L27 11L27 10L25 10L25 9L24 9L24 10L22 10L22 11L23 11L23 12L20 12L20 11L21 11L21 9L23 9L23 8L21 8L21 9L20 9L20 8L18 8L18 5L19 5L19 7L20 7L20 5L19 5L19 4L18 4L18 5L17 5L17 7L16 7L16 6L15 6L15 5L16 5L16 4L15 4L15 3ZM23 5L23 7L24 7L24 5ZM9 6L9 7L10 7L10 6ZM14 6L14 7L15 7L15 8L13 8L13 9L16 9L16 10L15 10L15 11L14 11L14 12L15 12L15 13L19 13L19 14L20 14L20 17L19 17L19 16L16 16L16 17L17 17L17 18L13 18L13 19L12 19L12 21L14 21L14 22L15 22L15 23L16 23L16 22L15 22L15 21L14 21L14 20L13 20L13 19L15 19L15 20L16 20L16 21L19 21L19 22L18 22L18 23L19 23L19 22L20 22L20 21L21 21L21 20L22 20L22 19L23 19L23 18L24 18L24 17L23 17L23 16L24 16L24 15L25 15L25 14L24 14L24 13L25 13L25 12L26 12L26 11L25 11L25 12L24 12L24 13L22 13L22 15L21 15L21 13L19 13L19 12L15 12L15 11L16 11L16 10L17 10L17 9L18 9L18 10L20 10L20 9L18 9L18 8L17 8L17 9L16 9L16 7L15 7L15 6ZM10 8L10 9L11 9L11 8ZM29 8L29 9L30 9L30 8ZM31 8L31 10L33 10L33 9L32 9L32 8ZM4 9L4 10L5 10L5 9ZM6 9L6 10L7 10L7 9ZM30 11L30 12L31 12L31 11ZM17 14L17 15L18 15L18 14ZM23 14L23 15L24 15L24 14ZM9 16L9 17L10 17L10 18L9 18L9 19L10 19L10 20L11 20L11 17L10 17L10 16ZM21 16L21 17L20 17L20 18L19 18L19 17L18 17L18 18L17 18L17 19L16 19L16 20L18 20L18 18L19 18L19 21L20 21L20 19L21 19L21 17L22 17L22 16ZM28 16L28 17L29 17L29 16ZM6 17L6 18L7 18L7 17ZM0 19L0 25L1 25L1 19ZM6 19L6 20L7 20L7 19ZM24 20L24 21L25 21L25 20ZM3 22L3 23L4 23L4 22ZM10 23L10 24L11 24L11 23ZM15 24L15 25L18 25L18 24ZM25 25L25 28L28 28L28 25ZM29 25L29 28L30 28L30 27L31 27L31 26L30 26L30 25ZM26 26L26 27L27 27L27 26ZM14 27L14 28L15 28L15 27ZM19 27L19 28L20 28L20 27ZM21 27L21 28L22 28L22 27ZM8 28L8 33L9 33L9 32L11 32L11 33L12 33L12 31L13 31L13 30L11 30L11 28ZM25 29L25 30L28 30L28 31L29 31L29 30L28 30L28 29ZM21 30L21 31L22 31L22 30ZM30 30L30 31L31 31L31 30ZM17 32L17 33L18 33L18 32ZM0 0L0 7L7 7L7 0ZM1 1L1 6L6 6L6 1ZM2 2L2 5L5 5L5 2ZM26 0L26 7L33 7L33 0ZM27 1L27 6L32 6L32 1ZM28 2L28 5L31 5L31 2ZM0 26L0 33L7 33L7 26ZM1 27L1 32L6 32L6 27ZM2 28L2 31L5 31L5 28Z" fill="#000000"/></g></g></svg>
