<?xml version="1.0" encoding="UTF-8"?>
<svg xmlns="http://www.w3.org/2000/svg" version="1.1" width="600" height="600" viewBox="0 0 600 600"><rect x="0" y="0" width="600" height="600" fill="#ffffff"/><g transform="scale(17.143)"><g transform="translate(1,1)"><path fill-rule="evenodd" d="M10 0L10 2L11 2L11 0ZM12 0L12 1L13 1L13 0ZM14 0L14 2L15 2L15 4L14 4L14 3L13 3L13 2L12 2L12 4L13 4L13 5L11 5L11 6L10 6L10 4L11 4L11 3L8 3L8 4L9 4L9 5L8 5L8 7L9 7L9 8L6 8L6 9L10 9L10 11L11 11L11 9L12 9L12 10L13 10L13 11L12 11L12 13L18 13L18 14L20 14L20 13L21 13L21 12L23 12L23 11L22 11L22 10L24 10L24 9L25 9L25 10L27 10L27 11L28 11L28 12L27 12L27 13L25 13L25 12L26 12L26 11L25 11L25 12L24 12L24 13L22 13L22 15L18 15L18 16L17 16L17 15L16 15L16 14L15 14L15 15L16 15L16 16L15 16L15 17L14 17L14 16L13 16L13 17L12 17L12 15L14 15L14 14L10 14L10 15L11 15L11 16L10 16L10 17L9 17L9 15L8 15L8 13L11 13L11 12L8 12L8 11L7 11L7 10L4 10L4 9L5 9L5 8L0 8L0 9L1 9L1 12L0 12L0 13L1 13L1 12L2 12L2 13L3 13L3 14L0 14L0 16L1 16L1 15L2 15L2 16L3 16L3 18L4 18L4 19L3 19L3 20L2 20L2 18L0 18L0 19L1 19L1 20L0 20L0 25L1 25L1 22L3 22L3 21L5 21L5 19L7 19L7 20L6 20L6 21L7 21L7 22L4 22L4 23L2 23L2 24L3 24L3 25L4 25L4 24L5 24L5 25L7 25L7 24L8 24L8 23L9 23L9 22L8 22L8 21L9 21L9 20L10 20L10 22L11 22L11 23L10 23L10 24L9 24L9 25L8 25L8 27L9 27L9 28L8 28L8 33L10 33L10 31L11 31L11 33L12 33L12 31L13 31L13 30L11 30L11 28L10 28L10 27L9 27L9 26L11 26L11 25L12 25L12 26L13 26L13 27L12 27L12 29L13 29L13 28L14 28L14 29L16 29L16 30L15 30L15 31L14 31L14 32L15 32L15 33L19 33L19 32L20 32L20 33L21 33L21 32L24 32L24 33L25 33L25 32L24 32L24 31L27 31L27 32L28 32L28 33L29 33L29 31L30 31L30 32L31 32L31 33L32 33L32 32L31 32L31 31L32 31L32 30L31 30L31 29L30 29L30 28L32 28L32 26L33 26L33 24L32 24L32 26L31 26L31 25L30 25L30 24L31 24L31 23L32 23L32 22L33 22L33 21L32 21L32 20L31 20L31 19L32 19L32 18L33 18L33 17L32 17L32 16L31 16L31 15L32 15L32 14L33 14L33 13L31 13L31 15L30 15L30 13L29 13L29 10L28 10L28 8L27 8L27 9L26 9L26 8L24 8L24 7L25 7L25 5L24 5L24 4L23 4L23 5L22 5L22 7L21 7L21 6L20 6L20 7L21 7L21 8L19 8L19 5L20 5L20 4L21 4L21 3L23 3L23 2L20 2L20 4L18 4L18 3L19 3L19 2L18 2L18 1L24 1L24 2L25 2L25 1L24 1L24 0L18 0L18 1L15 1L15 0ZM8 1L8 2L9 2L9 1ZM16 2L16 3L18 3L18 2ZM15 4L15 5L13 5L13 7L12 7L12 6L11 6L11 7L12 7L12 9L13 9L13 10L14 10L14 11L13 11L13 12L14 12L14 11L15 11L15 12L18 12L18 13L20 13L20 11L21 11L21 9L23 9L23 8L21 8L21 9L20 9L20 10L19 10L19 9L13 9L13 8L15 8L15 7L16 7L16 6L15 6L15 5L18 5L18 4ZM23 5L23 7L24 7L24 5ZM9 6L9 7L10 7L10 6ZM14 6L14 7L15 7L15 6ZM17 6L17 8L18 8L18 6ZM10 8L10 9L11 9L11 8ZM29 8L29 9L30 9L30 8ZM31 8L31 10L33 10L33 9L32 9L32 8ZM2 10L2 12L3 12L3 13L4 13L4 10ZM15 10L15 11L16 11L16 10ZM6 11L6 12L7 12L7 13L6 13L6 14L7 14L7 13L8 13L8 12L7 12L7 11ZM18 11L18 12L19 12L19 11ZM30 11L30 12L31 12L31 11ZM24 13L24 14L23 14L23 15L24 15L24 16L23 16L23 17L24 17L24 18L23 18L23 19L22 19L22 20L20 20L20 19L21 19L21 18L19 18L19 17L22 17L22 16L19 16L19 17L17 17L17 16L16 16L16 17L15 17L15 18L14 18L14 17L13 17L13 18L12 18L12 17L10 17L10 18L11 18L11 22L13 22L13 23L12 23L12 25L14 25L14 26L16 26L16 27L14 27L14 28L16 28L16 29L17 29L17 32L18 32L18 30L19 30L19 31L20 31L20 30L21 30L21 31L24 31L24 27L23 27L23 29L22 29L22 28L21 28L21 29L20 29L20 28L19 28L19 29L17 29L17 28L18 28L18 26L19 26L19 27L22 27L22 26L19 26L19 25L23 25L23 26L24 26L24 25L23 25L23 24L19 24L19 25L18 25L18 26L17 26L17 25L15 25L15 24L18 24L18 23L17 23L17 22L19 22L19 23L21 23L21 22L22 22L22 21L24 21L24 22L23 22L23 23L24 23L24 24L27 24L27 22L25 22L25 21L27 21L27 20L28 20L28 19L26 19L26 18L25 18L25 17L28 17L28 18L29 18L29 17L30 17L30 19L29 19L29 20L30 20L30 21L28 21L28 24L30 24L30 23L29 23L29 22L30 22L30 21L31 21L31 20L30 20L30 19L31 19L31 16L30 16L30 15L29 15L29 13L28 13L28 16L26 16L26 14L25 14L25 13ZM24 14L24 15L25 15L25 14ZM5 15L5 16L4 16L4 17L5 17L5 18L7 18L7 19L9 19L9 18L7 18L7 17L5 17L5 16L8 16L8 15ZM28 16L28 17L29 17L29 16ZM16 17L16 18L15 18L15 19L14 19L14 20L13 20L13 19L12 19L12 21L13 21L13 22L15 22L15 23L16 23L16 22L17 22L17 21L19 21L19 22L21 22L21 21L19 21L19 20L17 20L17 21L16 21L16 19L18 19L18 18L17 18L17 17ZM7 20L7 21L8 21L8 20ZM14 20L14 21L15 21L15 22L16 22L16 21L15 21L15 20ZM24 20L24 21L25 21L25 20ZM6 23L6 24L7 24L7 23ZM10 24L10 25L11 25L11 24ZM25 25L25 28L28 28L28 25ZM29 25L29 28L30 28L30 27L31 27L31 26L30 26L30 25ZM26 26L26 27L27 27L27 26ZM16 27L16 28L17 28L17 27ZM9 28L9 30L10 30L10 28ZM19 29L19 30L20 30L20 29ZM21 29L21 30L22 30L22 29ZM25 29L25 30L28 30L28 31L29 31L29 30L28 30L28 29ZM30 30L30 31L31 31L31 30ZM15 31L15 32L16 32L16 31ZM0 0L0 7L7 7L7 0ZM1 1L1 6L6 6L6 1ZM2 2L2 5L5 5L5 2ZM26 0L26 7L33 7L33 0ZM27 1L27 6L32 6L32 1ZM28 2L28 5L31 5L31 2ZM0 26L0 33L7 33L7 26ZM1 27L1 32L6 32L6 27ZM2 28L2 31L5 31L5 28Z" fill="#000000"/></g></g></svg>
