<?xml version="1.0" encoding="UTF-8"?>
<svg xmlns="http://www.w3.org/2000/svg" version="1.1" width="600" height="600" viewBox="0 0 600 600"><rect x="0" y="0" width="600" height="600" fill="#ffffff"/><g transform="scale(17.143)"><g transform="translate(1,1)"><path fill-rule="evenodd" d="M8 0L8 1L9 1L9 2L8 2L8 5L9 5L9 4L11 4L11 5L10 5L10 10L9 10L9 8L8 8L8 9L7 9L7 8L6 8L6 9L4 9L4 8L0 8L0 10L1 10L1 11L0 11L0 12L1 12L1 13L3 13L3 11L4 11L4 12L6 12L6 13L5 13L5 14L6 14L6 15L4 15L4 18L3 18L3 19L5 19L5 16L6 16L6 17L7 17L7 18L6 18L6 19L7 19L7 20L4 20L4 22L3 22L3 20L2 20L2 18L1 18L1 17L3 17L3 16L2 16L2 15L3 15L3 14L0 14L0 15L1 15L1 17L0 17L0 18L1 18L1 19L0 19L0 20L1 20L1 21L0 21L0 22L1 22L1 21L2 21L2 22L3 22L3 23L1 23L1 24L0 24L0 25L1 25L1 24L4 24L4 25L7 25L7 24L4 24L4 22L5 22L5 23L7 23L7 22L5 22L5 21L7 21L7 20L8 20L8 18L11 18L11 17L10 17L10 16L9 16L9 15L11 15L11 16L12 16L12 17L13 17L13 19L14 19L14 20L15 20L15 21L14 21L14 22L13 22L13 23L11 23L11 21L10 21L10 20L9 20L9 22L8 22L8 26L9 26L9 27L10 27L10 28L9 28L9 29L8 29L8 33L9 33L9 32L10 32L10 33L14 33L14 32L13 32L13 30L14 30L14 29L12 29L12 28L14 28L14 27L15 27L15 28L16 28L16 29L15 29L15 31L16 31L16 32L17 32L17 33L18 33L18 31L19 31L19 33L23 33L23 32L21 32L21 29L22 29L22 30L23 30L23 29L25 29L25 30L24 30L24 32L25 32L25 33L26 33L26 32L27 32L27 33L28 33L28 32L30 32L30 33L31 33L31 32L30 32L30 29L31 29L31 31L32 31L32 32L33 32L33 31L32 31L32 29L33 29L33 28L32 28L32 27L31 27L31 26L30 26L30 24L29 24L29 23L28 23L28 24L26 24L26 23L27 23L27 22L28 22L28 21L26 21L26 20L29 20L29 21L30 21L30 22L31 22L31 24L32 24L32 25L33 25L33 24L32 24L32 23L33 23L33 21L31 21L31 20L30 20L30 18L31 18L31 19L32 19L32 20L33 20L33 19L32 19L32 18L33 18L33 16L31 16L31 14L32 14L32 13L30 13L30 14L28 14L28 15L27 15L27 14L26 14L26 13L25 13L25 10L26 10L26 11L27 11L27 13L29 13L29 12L28 12L28 11L31 11L31 12L32 12L32 11L33 11L33 8L32 8L32 9L31 9L31 8L28 8L28 9L26 9L26 8L25 8L25 6L24 6L24 8L23 8L23 6L22 6L22 4L21 4L21 3L20 3L20 2L22 2L22 1L23 1L23 2L24 2L24 3L25 3L25 2L24 2L24 0L18 0L18 2L19 2L19 3L20 3L20 4L19 4L19 6L18 6L18 3L16 3L16 2L17 2L17 0L16 0L16 2L13 2L13 0L12 0L12 1L11 1L11 0L10 0L10 1L9 1L9 0ZM19 1L19 2L20 2L20 1ZM11 2L11 4L12 4L12 3L13 3L13 2ZM14 3L14 6L13 6L13 5L12 5L12 6L11 6L11 8L12 8L12 6L13 6L13 10L14 10L14 11L16 11L16 10L18 10L18 11L17 11L17 12L18 12L18 14L17 14L17 13L16 13L16 14L15 14L15 12L14 12L14 13L13 13L13 14L12 14L12 16L14 16L14 18L15 18L15 17L16 17L16 19L15 19L15 20L16 20L16 21L15 21L15 22L14 22L14 24L12 24L12 26L11 26L11 25L10 25L10 24L11 24L11 23L10 23L10 22L9 22L9 23L10 23L10 24L9 24L9 25L10 25L10 26L11 26L11 28L10 28L10 29L9 29L9 31L10 31L10 32L12 32L12 31L10 31L10 30L12 30L12 29L11 29L11 28L12 28L12 26L13 26L13 27L14 27L14 26L13 26L13 25L16 25L16 26L15 26L15 27L17 27L17 29L19 29L19 31L20 31L20 28L18 28L18 27L17 27L17 25L16 25L16 23L17 23L17 24L18 24L18 23L20 23L20 24L19 24L19 25L20 25L20 24L21 24L21 26L20 26L20 27L22 27L22 26L23 26L23 25L22 25L22 24L23 24L23 23L22 23L22 21L20 21L20 22L18 22L18 21L17 21L17 19L20 19L20 20L23 20L23 21L24 21L24 22L25 22L25 23L26 23L26 22L25 22L25 20L26 20L26 15L25 15L25 14L24 14L24 11L23 11L23 10L22 10L22 11L21 11L21 13L23 13L23 14L22 14L22 15L24 15L24 16L25 16L25 18L23 18L23 17L21 17L21 18L20 18L20 15L21 15L21 14L20 14L20 15L19 15L19 13L20 13L20 10L21 10L21 9L20 9L20 10L19 10L19 8L22 8L22 6L21 6L21 5L20 5L20 6L19 6L19 8L18 8L18 9L17 9L17 7L18 7L18 6L17 6L17 4L16 4L16 5L15 5L15 3ZM24 4L24 5L25 5L25 4ZM8 6L8 7L9 7L9 6ZM14 6L14 7L15 7L15 6ZM16 6L16 7L17 7L17 6ZM20 6L20 7L21 7L21 6ZM15 8L15 9L14 9L14 10L15 10L15 9L16 9L16 8ZM24 8L24 10L25 10L25 8ZM3 9L3 10L2 10L2 11L1 11L1 12L2 12L2 11L3 11L3 10L4 10L4 9ZM6 9L6 10L7 10L7 11L6 11L6 12L7 12L7 13L6 13L6 14L8 14L8 15L6 15L6 16L7 16L7 17L9 17L9 16L8 16L8 15L9 15L9 14L11 14L11 13L12 13L12 12L13 12L13 11L11 11L11 13L9 13L9 14L8 14L8 12L7 12L7 11L9 11L9 10L7 10L7 9ZM11 9L11 10L12 10L12 9ZM28 9L28 10L27 10L27 11L28 11L28 10L31 10L31 11L32 11L32 10L31 10L31 9ZM18 11L18 12L19 12L19 11ZM22 11L22 12L23 12L23 11ZM14 14L14 15L15 15L15 14ZM16 14L16 15L17 15L17 14ZM28 15L28 16L30 16L30 15ZM18 16L18 17L19 17L19 16ZM27 17L27 18L28 18L28 17ZM31 17L31 18L32 18L32 17ZM21 18L21 19L23 19L23 20L25 20L25 19L23 19L23 18ZM11 19L11 20L12 20L12 19ZM17 22L17 23L18 23L18 22ZM20 22L20 23L21 23L21 22ZM25 25L25 28L28 28L28 25ZM26 26L26 27L27 27L27 26ZM29 26L29 29L28 29L28 31L27 31L27 32L28 32L28 31L29 31L29 29L30 29L30 26ZM23 27L23 28L24 28L24 27ZM31 28L31 29L32 29L32 28ZM26 29L26 30L27 30L27 29ZM16 30L16 31L18 31L18 30ZM25 31L25 32L26 32L26 31ZM0 0L0 7L7 7L7 0ZM1 1L1 6L6 6L6 1ZM2 2L2 5L5 5L5 2ZM26 0L26 7L33 7L33 0ZM27 1L27 6L32 6L32 1ZM28 2L28 5L31 5L31 2ZM0 26L0 33L7 33L7 26ZM1 27L1 32L6 32L6 27ZM2 28L2 31L5 31L5 28Z" fill="#000000"/></g></g></svg>
