<?xml version="1.0" encoding="UTF-8"?>
<svg xmlns="http://www.w3.org/2000/svg" version="1.1" width="600" height="600" viewBox="0 0 600 600"><rect x="0" y="0" width="600" height="600" fill="#ffffff"/><g transform="scale(17.143)"><g transform="translate(1,1)"><path fill-rule="evenodd" d="M11 0L11 1L8 1L8 2L9 2L9 3L8 3L8 4L9 4L9 5L8 5L8 7L9 7L9 8L6 8L6 9L5 9L5 8L0 8L0 11L1 11L1 12L2 12L2 13L1 13L1 14L3 14L3 11L4 11L4 10L6 10L6 11L5 11L5 12L6 12L6 13L9 13L9 15L10 15L10 16L5 16L5 13L4 13L4 15L0 15L0 18L1 18L1 16L3 16L3 18L2 18L2 20L1 20L1 19L0 19L0 25L1 25L1 22L2 22L2 24L3 24L3 23L4 23L4 22L3 22L3 18L4 18L4 16L5 16L5 18L6 18L6 19L4 19L4 20L5 20L5 22L6 22L6 23L8 23L8 24L6 24L6 25L8 25L8 27L10 27L10 28L8 28L8 33L10 33L10 32L11 32L11 33L12 33L12 32L11 32L11 30L13 30L13 29L16 29L16 30L14 30L14 31L15 31L15 33L19 33L19 32L20 32L20 33L21 33L21 32L24 32L24 33L25 33L25 32L24 32L24 31L27 31L27 32L28 32L28 33L29 33L29 31L30 31L30 32L31 32L31 33L32 33L32 32L31 32L31 31L32 31L32 30L31 30L31 29L33 29L33 27L32 27L32 26L33 26L33 24L32 24L32 26L31 26L31 25L30 25L30 24L31 24L31 23L32 23L32 22L33 22L33 21L32 21L32 20L31 20L31 19L32 19L32 18L33 18L33 17L32 17L32 16L31 16L31 15L32 15L32 14L33 14L33 13L31 13L31 15L30 15L30 13L29 13L29 10L28 10L28 8L27 8L27 9L26 9L26 8L24 8L24 7L25 7L25 5L24 5L24 4L23 4L23 5L22 5L22 7L21 7L21 5L20 5L20 4L21 4L21 3L23 3L23 2L21 2L21 3L20 3L20 2L19 2L19 1L24 1L24 2L25 2L25 1L24 1L24 0L18 0L18 2L19 2L19 3L16 3L16 2L17 2L17 1L15 1L15 0L14 0L14 1L15 1L15 2L14 2L14 3L13 3L13 4L9 4L9 3L12 3L12 2L13 2L13 0ZM11 1L11 2L12 2L12 1ZM14 3L14 4L13 4L13 5L14 5L14 4L15 4L15 5L16 5L16 6L15 6L15 7L16 7L16 6L17 6L17 8L16 8L16 9L15 9L15 8L14 8L14 6L13 6L13 8L12 8L12 5L9 5L9 7L10 7L10 8L9 8L9 9L6 9L6 10L8 10L8 11L6 11L6 12L8 12L8 11L10 11L10 14L11 14L11 15L12 15L12 16L10 16L10 18L9 18L9 17L8 17L8 18L9 18L9 19L10 19L10 20L11 20L11 21L13 21L13 24L12 24L12 22L11 22L11 23L10 23L10 22L9 22L9 24L8 24L8 25L10 25L10 27L12 27L12 26L11 26L11 25L13 25L13 26L16 26L16 27L13 27L13 28L11 28L11 29L9 29L9 30L11 30L11 29L13 29L13 28L16 28L16 29L17 29L17 30L16 30L16 31L17 31L17 32L19 32L19 31L22 31L22 30L21 30L21 29L23 29L23 31L24 31L24 27L22 27L22 26L21 26L21 25L23 25L23 26L24 26L24 25L23 25L23 24L21 24L21 25L20 25L20 24L19 24L19 23L20 23L20 22L22 22L22 21L24 21L24 22L23 22L23 23L24 23L24 24L27 24L27 22L25 22L25 21L27 21L27 20L28 20L28 19L26 19L26 18L25 18L25 17L28 17L28 18L29 18L29 17L30 17L30 19L29 19L29 20L30 20L30 21L28 21L28 24L30 24L30 23L29 23L29 22L30 22L30 21L31 21L31 20L30 20L30 19L31 19L31 16L30 16L30 15L29 15L29 13L28 13L28 16L26 16L26 14L25 14L25 13L27 13L27 12L28 12L28 11L27 11L27 10L25 10L25 9L24 9L24 10L22 10L22 11L23 11L23 12L21 12L21 11L20 11L20 10L21 10L21 9L23 9L23 8L21 8L21 9L20 9L20 5L19 5L19 4L20 4L20 3L19 3L19 4L15 4L15 3ZM18 5L18 7L19 7L19 5ZM23 5L23 7L24 7L24 5ZM10 6L10 7L11 7L11 6ZM13 8L13 9L9 9L9 10L10 10L10 11L11 11L11 10L13 10L13 9L14 9L14 11L16 11L16 12L11 12L11 14L12 14L12 15L13 15L13 13L17 13L17 14L14 14L14 16L13 16L13 17L11 17L11 18L10 18L10 19L11 19L11 20L13 20L13 21L19 21L19 22L20 22L20 21L21 21L21 20L22 20L22 19L23 19L23 18L24 18L24 17L23 17L23 16L24 16L24 15L25 15L25 14L24 14L24 13L25 13L25 12L26 12L26 11L25 11L25 12L24 12L24 13L22 13L22 15L21 15L21 13L19 13L19 12L20 12L20 11L19 11L19 12L17 12L17 9L19 9L19 10L20 10L20 9L19 9L19 8L17 8L17 9L16 9L16 10L15 10L15 9L14 9L14 8ZM29 8L29 9L30 9L30 8ZM31 8L31 10L33 10L33 9L32 9L32 8ZM1 9L1 11L3 11L3 9ZM30 11L30 12L31 12L31 11ZM18 13L18 14L17 14L17 15L15 15L15 16L16 16L16 17L13 17L13 20L14 20L14 18L16 18L16 19L15 19L15 20L16 20L16 19L17 19L17 20L18 20L18 19L21 19L21 17L22 17L22 16L21 16L21 15L20 15L20 14L19 14L19 13ZM6 14L6 15L7 15L7 14ZM18 14L18 16L17 16L17 17L16 17L16 18L17 18L17 17L18 17L18 18L20 18L20 17L21 17L21 16L19 16L19 14ZM23 14L23 15L24 15L24 14ZM18 16L18 17L19 17L19 16ZM28 16L28 17L29 17L29 16ZM6 17L6 18L7 18L7 17ZM11 18L11 19L12 19L12 18ZM6 19L6 20L7 20L7 19ZM19 20L19 21L20 21L20 20ZM24 20L24 21L25 21L25 20ZM6 21L6 22L7 22L7 21ZM14 22L14 23L16 23L16 24L15 24L15 25L18 25L18 26L20 26L20 27L18 27L18 28L17 28L17 27L16 27L16 28L17 28L17 29L18 29L18 30L17 30L17 31L19 31L19 30L20 30L20 29L21 29L21 28L22 28L22 27L21 27L21 26L20 26L20 25L18 25L18 24L17 24L17 22ZM13 24L13 25L14 25L14 24ZM25 25L25 28L28 28L28 25ZM29 25L29 28L30 28L30 29L31 29L31 28L32 28L32 27L31 27L31 26L30 26L30 25ZM26 26L26 27L27 27L27 26ZM30 27L30 28L31 28L31 27ZM18 28L18 29L20 29L20 28ZM25 29L25 30L28 30L28 31L29 31L29 30L28 30L28 29ZM30 30L30 31L31 31L31 30ZM9 31L9 32L10 32L10 31ZM13 32L13 33L14 33L14 32ZM0 0L0 7L7 7L7 0ZM1 1L1 6L6 6L6 1ZM2 2L2 5L5 5L5 2ZM26 0L26 7L33 7L33 0ZM27 1L27 6L32 6L32 1ZM28 2L28 5L31 5L31 2ZM0 26L0 33L7 33L7 26ZM1 27L1 32L6 32L6 27ZM2 28L2 31L5 31L5 28Z" fill="#000000"/></g></g></svg>
