<?xml version="1.0" encoding="UTF-8"?>
<svg xmlns="http://www.w3.org/2000/svg" version="1.1" width="600" height="600" viewBox="0 0 600 600"><rect x="0" y="0" width="600" height="600" fill="#ffffff"/><g transform="scale(17.143)"><g transform="translate(1,1)"><path fill-rule="evenodd" d="M9 0L9 1L8 1L8 2L9 2L9 3L8 3L8 4L10 4L10 7L11 7L11 4L12 4L12 5L15 5L15 6L14 6L14 8L13 8L13 6L12 6L12 9L16 9L16 10L15 10L15 11L14 11L14 10L11 10L11 11L10 11L10 9L11 9L11 8L6 8L6 9L7 9L7 10L6 10L6 11L7 11L7 12L6 12L6 13L4 13L4 15L2 15L2 13L3 13L3 10L2 10L2 9L4 9L4 12L5 12L5 8L0 8L0 9L1 9L1 12L0 12L0 13L1 13L1 14L0 14L0 16L2 16L2 19L1 19L1 17L0 17L0 19L1 19L1 20L2 20L2 21L0 21L0 25L1 25L1 22L3 22L3 23L2 23L2 25L8 25L8 27L9 27L9 28L8 28L8 33L9 33L9 32L10 32L10 33L11 33L11 32L10 32L10 31L9 31L9 30L11 30L11 29L12 29L12 30L13 30L13 31L12 31L12 33L13 33L13 32L14 32L14 33L16 33L16 32L17 32L17 33L18 33L18 32L19 32L19 33L21 33L21 32L24 32L24 33L25 33L25 32L24 32L24 31L27 31L27 32L28 32L28 33L29 33L29 31L30 31L30 32L31 32L31 33L32 33L32 32L31 32L31 31L32 31L32 30L31 30L31 29L30 29L30 28L31 28L31 27L32 27L32 28L33 28L33 27L32 27L32 26L33 26L33 24L32 24L32 26L31 26L31 25L30 25L30 24L31 24L31 23L32 23L32 22L33 22L33 21L32 21L32 20L31 20L31 19L32 19L32 18L33 18L33 17L32 17L32 16L31 16L31 15L32 15L32 14L33 14L33 13L31 13L31 15L30 15L30 13L29 13L29 10L28 10L28 8L27 8L27 9L26 9L26 8L24 8L24 7L25 7L25 5L24 5L24 4L23 4L23 5L22 5L22 7L21 7L21 4L19 4L19 3L16 3L16 2L19 2L19 1L20 1L20 3L23 3L23 2L21 2L21 1L24 1L24 2L25 2L25 1L24 1L24 0L18 0L18 1L17 1L17 0L16 0L16 1L14 1L14 2L15 2L15 4L14 4L14 3L13 3L13 4L12 4L12 2L13 2L13 1L11 1L11 2L10 2L10 0ZM10 3L10 4L11 4L11 3ZM15 4L15 5L19 5L19 7L18 7L18 6L17 6L17 7L16 7L16 6L15 6L15 7L16 7L16 9L17 9L17 10L16 10L16 11L15 11L15 12L14 12L14 11L12 11L12 13L11 13L11 12L10 12L10 13L11 13L11 14L8 14L8 13L9 13L9 11L8 11L8 13L6 13L6 14L5 14L5 15L4 15L4 16L3 16L3 18L5 18L5 19L6 19L6 20L7 20L7 21L6 21L6 22L7 22L7 23L6 23L6 24L8 24L8 25L10 25L10 26L13 26L13 27L12 27L12 29L14 29L14 30L16 30L16 31L17 31L17 32L18 32L18 31L19 31L19 32L21 32L21 31L24 31L24 27L23 27L23 28L21 28L21 27L20 27L20 26L19 26L19 25L21 25L21 26L22 26L22 25L23 25L23 26L24 26L24 25L23 25L23 23L24 23L24 24L27 24L27 22L25 22L25 21L27 21L27 20L28 20L28 19L26 19L26 18L25 18L25 17L28 17L28 18L29 18L29 17L30 17L30 19L29 19L29 20L30 20L30 21L28 21L28 24L30 24L30 23L29 23L29 22L30 22L30 21L31 21L31 20L30 20L30 19L31 19L31 16L30 16L30 15L29 15L29 13L28 13L28 16L26 16L26 14L25 14L25 13L27 13L27 12L28 12L28 11L27 11L27 10L25 10L25 9L24 9L24 10L22 10L22 9L23 9L23 8L21 8L21 7L20 7L20 5L19 5L19 4ZM8 5L8 7L9 7L9 5ZM23 5L23 7L24 7L24 5ZM17 8L17 9L19 9L19 10L20 10L20 9L21 9L21 8ZM29 8L29 9L30 9L30 8ZM31 8L31 10L33 10L33 9L32 9L32 8ZM17 10L17 11L16 11L16 12L15 12L15 13L14 13L14 12L13 12L13 13L12 13L12 14L13 14L13 13L14 13L14 16L13 16L13 15L12 15L12 17L14 17L14 18L11 18L11 15L10 15L10 19L9 19L9 20L11 20L11 21L10 21L10 22L11 22L11 21L12 21L12 22L13 22L13 21L14 21L14 22L15 22L15 24L16 24L16 25L19 25L19 22L20 22L20 23L21 23L21 24L22 24L22 23L23 23L23 22L24 22L24 21L25 21L25 20L24 20L24 21L23 21L23 18L24 18L24 17L22 17L22 19L20 19L20 20L22 20L22 21L19 21L19 19L18 19L18 18L17 18L17 17L19 17L19 18L21 18L21 17L19 17L19 16L20 16L20 15L18 15L18 14L15 14L15 13L19 13L19 14L20 14L20 13L21 13L21 14L24 14L24 15L23 15L23 16L24 16L24 15L25 15L25 14L24 14L24 13L25 13L25 12L26 12L26 11L25 11L25 12L24 12L24 13L21 13L21 12L22 12L22 10L21 10L21 12L20 12L20 11L19 11L19 12L17 12L17 11L18 11L18 10ZM30 11L30 12L31 12L31 11ZM1 12L1 13L2 13L2 12ZM19 12L19 13L20 13L20 12ZM6 14L6 15L7 15L7 16L6 16L6 17L7 17L7 18L6 18L6 19L8 19L8 18L9 18L9 15L8 15L8 14ZM16 15L16 17L15 17L15 16L14 16L14 17L15 17L15 18L16 18L16 19L17 19L17 20L16 20L16 21L15 21L15 20L14 20L14 19L12 19L12 21L13 21L13 20L14 20L14 21L15 21L15 22L16 22L16 24L18 24L18 22L19 22L19 21L18 21L18 22L16 22L16 21L17 21L17 20L18 20L18 19L17 19L17 18L16 18L16 17L17 17L17 16L18 16L18 15ZM21 15L21 16L22 16L22 15ZM4 16L4 17L5 17L5 16ZM7 16L7 17L8 17L8 16ZM28 16L28 17L29 17L29 16ZM2 19L2 20L3 20L3 22L4 22L4 23L3 23L3 24L5 24L5 21L4 21L4 20L3 20L3 19ZM8 21L8 22L9 22L9 21ZM8 23L8 24L10 24L10 25L11 25L11 23ZM12 23L12 25L14 25L14 26L15 26L15 27L18 27L18 28L15 28L15 29L18 29L18 30L17 30L17 31L18 31L18 30L23 30L23 29L18 29L18 28L19 28L19 26L15 26L15 25L14 25L14 24L13 24L13 23ZM25 25L25 28L28 28L28 25ZM29 25L29 28L30 28L30 27L31 27L31 26L30 26L30 25ZM26 26L26 27L27 27L27 26ZM9 28L9 29L11 29L11 28ZM25 29L25 30L28 30L28 31L29 31L29 30L28 30L28 29ZM30 30L30 31L31 31L31 30ZM14 31L14 32L15 32L15 31ZM0 0L0 7L7 7L7 0ZM1 1L1 6L6 6L6 1ZM2 2L2 5L5 5L5 2ZM26 0L26 7L33 7L33 0ZM27 1L27 6L32 6L32 1ZM28 2L28 5L31 5L31 2ZM0 26L0 33L7 33L7 26ZM1 27L1 32L6 32L6 27ZM2 28L2 31L5 31L5 28Z" fill="#000000"/></g></g></svg>
