<?xml version="1.0" encoding="UTF-8"?>
<svg xmlns="http://www.w3.org/2000/svg" version="1.1" width="600" height="600" viewBox="0 0 600 600"><rect x="0" y="0" width="600" height="600" fill="#ffffff"/><g transform="scale(17.143)"><g transform="translate(1,1)"><path fill-rule="evenodd" d="M10 0L10 2L11 2L11 0ZM12 0L12 1L13 1L13 0ZM14 0L14 2L15 2L15 3L13 3L13 2L12 2L12 4L18 4L18 7L19 7L19 8L20 8L20 9L18 9L18 8L17 8L17 9L16 9L16 8L15 8L15 9L14 9L14 8L13 8L13 9L12 9L12 7L13 7L13 6L14 6L14 7L15 7L15 6L16 6L16 7L17 7L17 6L16 6L16 5L11 5L11 6L10 6L10 4L11 4L11 3L8 3L8 4L9 4L9 5L8 5L8 7L9 7L9 8L6 8L6 9L10 9L10 11L11 11L11 9L12 9L12 10L13 10L13 9L14 9L14 12L13 12L13 11L12 11L12 13L14 13L14 14L10 14L10 13L11 13L11 12L8 12L8 13L7 13L7 12L6 12L6 13L5 13L5 12L4 12L4 14L3 14L3 13L2 13L2 15L1 15L1 12L3 12L3 11L5 11L5 8L0 8L0 9L2 9L2 10L3 10L3 11L1 11L1 10L0 10L0 16L2 16L2 15L4 15L4 16L5 16L5 14L6 14L6 15L8 15L8 17L7 17L7 16L6 16L6 17L7 17L7 18L5 18L5 19L8 19L8 18L10 18L10 17L12 17L12 18L13 18L13 19L12 19L12 21L16 21L16 22L14 22L14 24L13 24L13 25L12 25L12 23L13 23L13 22L9 22L9 23L8 23L8 24L10 24L10 25L8 25L8 27L9 27L9 28L8 28L8 33L9 33L9 29L11 29L11 27L9 27L9 26L11 26L11 25L12 25L12 26L13 26L13 25L14 25L14 26L15 26L15 27L14 27L14 28L13 28L13 27L12 27L12 29L13 29L13 30L11 30L11 31L10 31L10 33L13 33L13 32L12 32L12 31L13 31L13 30L15 30L15 31L14 31L14 32L15 32L15 33L19 33L19 32L20 32L20 33L21 33L21 32L23 32L23 33L25 33L25 32L26 32L26 31L27 31L27 30L29 30L29 31L30 31L30 32L31 32L31 33L32 33L32 32L31 32L31 31L32 31L32 30L31 30L31 29L30 29L30 28L33 28L33 27L32 27L32 26L33 26L33 24L32 24L32 26L30 26L30 25L29 25L29 24L31 24L31 23L32 23L32 22L33 22L33 21L32 21L32 20L31 20L31 19L32 19L32 18L33 18L33 17L32 17L32 16L31 16L31 15L32 15L32 14L33 14L33 13L31 13L31 15L30 15L30 13L29 13L29 12L28 12L28 10L27 10L27 9L28 9L28 8L27 8L27 9L26 9L26 8L25 8L25 9L26 9L26 10L25 10L25 12L24 12L24 13L23 13L23 14L22 14L22 15L18 15L18 16L17 16L17 17L16 17L16 16L15 16L15 15L16 15L16 14L17 14L17 13L18 13L18 14L20 14L20 13L21 13L21 12L23 12L23 11L21 11L21 12L20 12L20 11L19 11L19 10L20 10L20 9L21 9L21 10L24 10L24 9L23 9L23 8L24 8L24 7L25 7L25 5L24 5L24 4L25 4L25 3L24 3L24 4L23 4L23 3L22 3L22 2L23 2L23 1L24 1L24 0L23 0L23 1L22 1L22 2L21 2L21 0L18 0L18 1L20 1L20 2L21 2L21 3L20 3L20 4L18 4L18 3L19 3L19 2L18 2L18 3L16 3L16 1L15 1L15 0ZM8 1L8 2L9 2L9 1ZM21 3L21 4L20 4L20 5L19 5L19 7L20 7L20 8L21 8L21 9L22 9L22 8L23 8L23 7L24 7L24 5L23 5L23 7L22 7L22 6L21 6L21 4L22 4L22 3ZM9 6L9 7L10 7L10 6ZM11 6L11 7L12 7L12 6ZM20 6L20 7L21 7L21 8L22 8L22 7L21 7L21 6ZM10 8L10 9L11 9L11 8ZM29 8L29 9L30 9L30 8ZM31 8L31 10L33 10L33 9L32 9L32 8ZM3 9L3 10L4 10L4 9ZM15 9L15 10L16 10L16 11L15 11L15 12L14 12L14 13L15 13L15 14L14 14L14 15L12 15L12 17L13 17L13 18L14 18L14 19L13 19L13 20L16 20L16 21L17 21L17 24L16 24L16 25L15 25L15 24L14 24L14 25L15 25L15 26L16 26L16 27L17 27L17 28L19 28L19 29L15 29L15 28L14 28L14 29L15 29L15 30L19 30L19 31L16 31L16 32L19 32L19 31L20 31L20 30L22 30L22 29L24 29L24 28L23 28L23 27L22 27L22 28L21 28L21 29L20 29L20 28L19 28L19 27L21 27L21 26L19 26L19 25L22 25L22 24L20 24L20 22L21 22L21 23L22 23L22 21L24 21L24 22L23 22L23 23L25 23L25 24L26 24L26 23L25 23L25 22L26 22L26 21L27 21L27 23L30 23L30 22L31 22L31 20L29 20L29 17L30 17L30 19L31 19L31 16L30 16L30 15L28 15L28 14L29 14L29 13L28 13L28 12L26 12L26 13L27 13L27 14L25 14L25 13L24 13L24 14L23 14L23 15L24 15L24 16L26 16L26 17L25 17L25 19L24 19L24 18L21 18L21 17L23 17L23 16L21 16L21 17L20 17L20 16L19 16L19 17L17 17L17 18L16 18L16 17L13 17L13 16L14 16L14 15L15 15L15 14L16 14L16 13L17 13L17 12L18 12L18 13L20 13L20 12L18 12L18 11L17 11L17 10L18 10L18 9L17 9L17 10L16 10L16 9ZM6 10L6 11L8 11L8 10ZM30 11L30 12L31 12L31 11ZM15 12L15 13L16 13L16 12ZM6 13L6 14L7 14L7 13ZM8 14L8 15L9 15L9 17L10 17L10 16L11 16L11 15L10 15L10 14ZM26 15L26 16L28 16L28 17L29 17L29 16L28 16L28 15ZM19 17L19 18L17 18L17 19L18 19L18 20L17 20L17 21L18 21L18 22L20 22L20 21L21 21L21 20L22 20L22 19L19 19L19 18L20 18L20 17ZM26 17L26 18L27 18L27 19L28 19L28 18L27 18L27 17ZM1 18L1 21L0 21L0 25L1 25L1 22L3 22L3 23L2 23L2 25L4 25L4 24L3 24L3 23L5 23L5 24L6 24L6 25L7 25L7 24L6 24L6 23L7 23L7 22L8 22L8 21L11 21L11 19L9 19L9 20L6 20L6 21L7 21L7 22L5 22L5 20L4 20L4 18L3 18L3 20L2 20L2 18ZM15 18L15 19L16 19L16 18ZM25 19L25 20L26 20L26 19ZM3 20L3 22L4 22L4 20ZM18 20L18 21L20 21L20 20ZM27 20L27 21L29 21L29 22L30 22L30 21L29 21L29 20ZM10 23L10 24L11 24L11 23ZM18 23L18 24L17 24L17 25L16 25L16 26L17 26L17 27L19 27L19 26L17 26L17 25L19 25L19 23ZM23 24L23 25L24 25L24 24ZM25 25L25 28L28 28L28 25ZM26 26L26 27L27 27L27 26ZM19 29L19 30L20 30L20 29ZM26 29L26 30L27 30L27 29ZM29 29L29 30L30 30L30 31L31 31L31 30L30 30L30 29ZM23 31L23 32L25 32L25 31ZM28 32L28 33L29 33L29 32ZM0 0L0 7L7 7L7 0ZM1 1L1 6L6 6L6 1ZM2 2L2 5L5 5L5 2ZM26 0L26 7L33 7L33 0ZM27 1L27 6L32 6L32 1ZM28 2L28 5L31 5L31 2ZM0 26L0 33L7 33L7 26ZM1 27L1 32L6 32L6 27ZM2 28L2 31L5 31L5 28Z" fill="#000000"/></g></g></svg>
