<?xml version="1.0" encoding="UTF-8"?>
<svg xmlns="http://www.w3.org/2000/svg" version="1.1" width="600" height="600" viewBox="0 0 600 600"><rect x="0" y="0" width="600" height="600" fill="#ffffff"/><g transform="scale(15.385)"><g transform="translate(1,1)"><path fill-rule="evenodd" d="M9 0L9 1L8 1L8 3L9 3L9 4L8 4L8 8L6 8L6 9L8 9L8 8L10 8L10 10L8 10L8 13L9 13L9 14L10 14L10 13L11 13L11 14L12 14L12 16L11 16L11 17L10 17L10 16L9 16L9 17L8 17L8 14L6 14L6 15L5 15L5 14L3 14L3 12L4 12L4 13L5 13L5 12L4 12L4 11L5 11L5 10L4 10L4 8L3 8L3 10L4 10L4 11L3 11L3 12L2 12L2 11L1 11L1 9L2 9L2 8L0 8L0 11L1 11L1 12L2 12L2 13L1 13L1 14L0 14L0 16L1 16L1 17L2 17L2 16L3 16L3 15L5 15L5 16L4 16L4 19L3 19L3 18L2 18L2 19L3 19L3 21L2 21L2 20L1 20L1 19L0 19L0 23L1 23L1 22L2 22L2 25L1 25L1 26L0 26L0 27L1 27L1 28L0 28L0 29L3 29L3 28L4 28L4 25L5 25L5 28L6 28L6 29L8 29L8 31L9 31L9 32L10 32L10 33L8 33L8 34L9 34L9 35L8 35L8 37L9 37L9 36L10 36L10 37L11 37L11 36L10 36L10 33L11 33L11 34L12 34L12 33L11 33L11 31L12 31L12 32L13 32L13 30L14 30L14 32L18 32L18 33L17 33L17 34L16 34L16 35L14 35L14 36L15 36L15 37L19 37L19 36L17 36L17 35L18 35L18 34L19 34L19 35L20 35L20 36L21 36L21 37L23 37L23 34L22 34L22 31L23 31L23 30L24 30L24 31L26 31L26 32L23 32L23 33L24 33L24 34L25 34L25 35L24 35L24 36L25 36L25 37L30 37L30 36L31 36L31 37L33 37L33 35L34 35L34 34L35 34L35 35L37 35L37 34L35 34L35 33L37 33L37 32L36 32L36 31L37 31L37 29L36 29L36 30L35 30L35 28L36 28L36 27L37 27L37 24L35 24L35 25L34 25L34 24L33 24L33 23L34 23L34 22L35 22L35 23L37 23L37 20L36 20L36 19L37 19L37 16L36 16L36 15L37 15L37 13L36 13L36 14L35 14L35 16L34 16L34 20L36 20L36 22L35 22L35 21L34 21L34 22L31 22L31 20L32 20L32 21L33 21L33 19L32 19L32 18L33 18L33 17L32 17L32 18L31 18L31 16L32 16L32 15L34 15L34 14L32 14L32 13L31 13L31 12L34 12L34 11L35 11L35 10L36 10L36 12L37 12L37 9L36 9L36 8L34 8L34 10L32 10L32 9L33 9L33 8L30 8L30 9L29 9L29 8L27 8L27 9L26 9L26 8L25 8L25 9L26 9L26 10L24 10L24 11L20 11L20 10L19 10L19 9L22 9L22 10L23 10L23 9L24 9L24 7L25 7L25 6L26 6L26 7L27 7L27 6L28 6L28 7L29 7L29 5L28 5L28 4L29 4L29 0L27 0L27 1L26 1L26 0L25 0L25 1L24 1L24 0L22 0L22 1L21 1L21 2L19 2L19 1L20 1L20 0L18 0L18 1L17 1L17 0L16 0L16 1L14 1L14 0L12 0L12 1L11 1L11 2L9 2L9 1L10 1L10 0ZM16 1L16 2L14 2L14 3L16 3L16 4L15 4L15 8L14 8L14 6L13 6L13 3L12 3L12 4L9 4L9 5L10 5L10 6L9 6L9 7L10 7L10 8L11 8L11 9L12 9L12 10L11 10L11 11L9 11L9 13L10 13L10 12L11 12L11 13L12 13L12 12L13 12L13 15L15 15L15 16L16 16L16 15L15 15L15 13L16 13L16 14L17 14L17 13L16 13L16 12L19 12L19 13L20 13L20 14L19 14L19 15L18 15L18 16L19 16L19 15L20 15L20 17L19 17L19 19L18 19L18 20L17 20L17 21L18 21L18 20L19 20L19 22L18 22L18 23L17 23L17 22L16 22L16 23L14 23L14 24L12 24L12 28L11 28L11 30L10 30L10 29L9 29L9 28L10 28L10 27L11 27L11 26L10 26L10 25L11 25L11 24L9 24L9 26L8 26L8 22L9 22L9 23L10 23L10 22L11 22L11 20L10 20L10 19L9 19L9 18L10 18L10 17L9 17L9 18L8 18L8 17L5 17L5 18L7 18L7 19L6 19L6 20L7 20L7 21L6 21L6 22L7 22L7 23L5 23L5 20L4 20L4 21L3 21L3 24L5 24L5 25L6 25L6 26L7 26L7 27L6 27L6 28L7 28L7 27L9 27L9 28L8 28L8 29L9 29L9 31L11 31L11 30L12 30L12 28L14 28L14 29L15 29L15 31L16 31L16 30L17 30L17 31L18 31L18 32L19 32L19 34L21 34L21 35L22 35L22 34L21 34L21 33L20 33L20 32L21 32L21 31L20 31L20 29L21 29L21 28L20 28L20 27L21 27L21 24L20 24L20 26L19 26L19 25L17 25L17 26L15 26L15 27L13 27L13 25L14 25L14 24L16 24L16 23L17 23L17 24L19 24L19 22L20 22L20 23L22 23L22 22L23 22L23 24L24 24L24 25L22 25L22 26L26 26L26 28L24 28L24 27L23 27L23 29L22 29L22 30L23 30L23 29L24 29L24 30L25 30L25 29L27 29L27 30L28 30L28 26L29 26L29 27L30 27L30 28L31 28L31 27L30 27L30 25L28 25L28 24L27 24L27 23L28 23L28 21L26 21L26 25L25 25L25 23L24 23L24 21L23 21L23 20L29 20L29 23L30 23L30 20L31 20L31 19L28 19L28 16L27 16L27 17L26 17L26 16L25 16L25 14L26 14L26 15L28 15L28 14L29 14L29 15L30 15L30 16L31 16L31 15L32 15L32 14L31 14L31 15L30 15L30 13L29 13L29 12L30 12L30 11L32 11L32 10L30 10L30 11L28 11L28 10L29 10L29 9L27 9L27 10L26 10L26 13L25 13L25 11L24 11L24 12L23 12L23 13L21 13L21 12L20 12L20 11L16 11L16 10L17 10L17 9L18 9L18 8L17 8L17 7L18 7L18 5L20 5L20 4L21 4L21 7L20 7L20 6L19 6L19 8L21 8L21 7L22 7L22 8L23 8L23 7L24 7L24 6L25 6L25 5L23 5L23 4L22 4L22 2L23 2L23 1L22 1L22 2L21 2L21 3L20 3L20 4L19 4L19 3L16 3L16 2L17 2L17 1ZM25 2L25 4L26 4L26 6L27 6L27 4L28 4L28 2L27 2L27 4L26 4L26 2ZM16 4L16 5L18 5L18 4ZM11 5L11 6L10 6L10 7L11 7L11 6L12 6L12 8L13 8L13 6L12 6L12 5ZM16 6L16 7L17 7L17 6ZM22 6L22 7L23 7L23 6ZM15 8L15 9L14 9L14 10L16 10L16 8ZM6 10L6 11L7 11L7 10ZM14 11L14 12L16 12L16 11ZM6 12L6 13L7 13L7 12ZM1 14L1 15L2 15L2 14ZM20 14L20 15L21 15L21 17L20 17L20 19L19 19L19 20L20 20L20 21L21 21L21 22L22 22L22 20L23 20L23 19L22 19L22 18L24 18L24 19L25 19L25 18L24 18L24 17L22 17L22 16L24 16L24 14L22 14L22 15L21 15L21 14ZM6 15L6 16L7 16L7 15ZM12 16L12 17L11 17L11 19L12 19L12 20L13 20L13 21L14 21L14 22L15 22L15 21L16 21L16 20L15 20L15 19L17 19L17 18L18 18L18 17L16 17L16 18L15 18L15 17L13 17L13 16ZM35 16L35 17L36 17L36 16ZM29 17L29 18L30 18L30 17ZM13 18L13 20L14 20L14 21L15 21L15 20L14 20L14 18ZM26 18L26 19L27 19L27 18ZM8 20L8 21L7 21L7 22L8 22L8 21L9 21L9 20ZM6 24L6 25L7 25L7 24ZM32 24L32 26L33 26L33 24ZM2 25L2 26L1 26L1 27L3 27L3 25ZM35 25L35 26L34 26L34 28L33 28L33 27L32 27L32 28L33 28L33 30L34 30L34 28L35 28L35 27L36 27L36 25ZM9 26L9 27L10 27L10 26ZM17 26L17 28L16 28L16 27L15 27L15 29L18 29L18 31L19 31L19 29L20 29L20 28L19 28L19 27L18 27L18 26ZM29 29L29 32L32 32L32 29ZM30 30L30 31L31 31L31 30ZM27 31L27 32L26 32L26 33L27 33L27 34L28 34L28 35L32 35L32 33L30 33L30 34L29 34L29 33L28 33L28 31ZM33 31L33 33L35 33L35 32L34 32L34 31ZM14 33L14 34L15 34L15 33ZM26 35L26 36L27 36L27 35ZM12 36L12 37L13 37L13 36ZM35 36L35 37L37 37L37 36ZM0 0L0 7L7 7L7 0ZM1 1L1 6L6 6L6 1ZM2 2L2 5L5 5L5 2ZM30 0L30 7L37 7L37 0ZM31 1L31 6L36 6L36 1ZM32 2L32 5L35 5L35 2ZM0 30L0 37L7 37L7 30ZM1 31L1 36L6 36L6 31ZM2 32L2 35L5 35L5 32Z" fill="#000000"/></g></g></svg>
