<?xml version="1.0" encoding="UTF-8"?>
<svg xmlns="http://www.w3.org/2000/svg" version="1.1" width="600" height="600" viewBox="0 0 600 600"><rect x="0" y="0" width="600" height="600" fill="#ffffff"/><g transform="scale(17.143)"><g transform="translate(1,1)"><path fill-rule="evenodd" d="M8 0L8 1L9 1L9 2L8 2L8 5L9 5L9 4L11 4L11 5L10 5L10 10L9 10L9 8L8 8L8 10L6 10L6 9L7 9L7 8L6 8L6 9L4 9L4 8L0 8L0 9L1 9L1 10L0 10L0 12L3 12L3 11L4 11L4 10L5 10L5 11L7 11L7 12L4 12L4 13L5 13L5 14L4 14L4 16L6 16L6 17L7 17L7 16L6 16L6 15L7 15L7 14L8 14L8 13L7 13L7 12L8 12L8 10L9 10L9 15L10 15L10 17L9 17L9 16L8 16L8 17L9 17L9 18L10 18L10 20L9 20L9 19L8 19L8 18L6 18L6 19L8 19L8 20L9 20L9 21L8 21L8 22L6 22L6 21L7 21L7 20L5 20L5 17L4 17L4 18L0 18L0 20L1 20L1 21L0 21L0 22L2 22L2 23L1 23L1 24L0 24L0 25L1 25L1 24L2 24L2 25L3 25L3 24L4 24L4 25L5 25L5 23L9 23L9 22L11 22L11 20L12 20L12 19L11 19L11 18L10 18L10 17L11 17L11 16L12 16L12 17L13 17L13 18L14 18L14 19L15 19L15 20L14 20L14 21L15 21L15 20L16 20L16 22L17 22L17 23L18 23L18 24L15 24L15 22L14 22L14 23L10 23L10 24L9 24L9 25L8 25L8 26L9 26L9 27L10 27L10 28L9 28L9 29L8 29L8 33L12 33L12 32L13 32L13 33L14 33L14 32L13 32L13 30L14 30L14 31L15 31L15 32L16 32L16 31L17 31L17 33L18 33L18 30L19 30L19 29L18 29L18 30L16 30L16 29L15 29L15 30L14 30L14 28L15 28L15 26L16 26L16 25L17 25L17 26L19 26L19 27L18 27L18 28L19 28L19 27L21 27L21 28L20 28L20 31L19 31L19 33L20 33L20 32L21 32L21 33L22 33L22 32L23 32L23 30L22 30L22 27L21 27L21 26L20 26L20 25L19 25L19 24L20 24L20 23L18 23L18 20L19 20L19 22L20 22L20 21L22 21L22 22L21 22L21 23L23 23L23 24L22 24L22 26L23 26L23 27L24 27L24 28L23 28L23 29L25 29L25 30L24 30L24 32L25 32L25 33L26 33L26 32L27 32L27 33L28 33L28 32L30 32L30 33L31 33L31 32L30 32L30 29L31 29L31 31L32 31L32 32L33 32L33 31L32 31L32 29L33 29L33 27L31 27L31 26L30 26L30 24L29 24L29 23L28 23L28 24L26 24L26 23L27 23L27 22L28 22L28 21L26 21L26 20L29 20L29 21L30 21L30 22L31 22L31 24L32 24L32 25L33 25L33 24L32 24L32 23L33 23L33 21L31 21L31 20L30 20L30 18L31 18L31 19L32 19L32 20L33 20L33 19L32 19L32 18L33 18L33 16L31 16L31 14L32 14L32 13L30 13L30 14L28 14L28 15L27 15L27 14L26 14L26 13L25 13L25 10L26 10L26 11L27 11L27 13L29 13L29 12L28 12L28 11L31 11L31 12L32 12L32 11L33 11L33 8L32 8L32 9L31 9L31 8L28 8L28 9L26 9L26 8L25 8L25 6L24 6L24 8L23 8L23 6L22 6L22 4L21 4L21 5L20 5L20 4L19 4L19 6L18 6L18 3L17 3L17 1L16 1L16 4L15 4L15 5L16 5L16 4L17 4L17 6L16 6L16 7L15 7L15 6L14 6L14 3L15 3L15 2L13 2L13 0L12 0L12 1L11 1L11 0L10 0L10 1L9 1L9 0ZM14 0L14 1L15 1L15 0ZM18 0L18 2L19 2L19 1L20 1L20 2L22 2L22 1L23 1L23 2L24 2L24 3L25 3L25 2L24 2L24 0ZM11 2L11 4L12 4L12 3L13 3L13 2ZM24 4L24 5L25 5L25 4ZM12 5L12 6L11 6L11 8L12 8L12 6L13 6L13 10L14 10L14 13L13 13L13 14L12 14L12 16L15 16L15 17L16 17L16 18L17 18L17 19L16 19L16 20L17 20L17 19L18 19L18 18L17 18L17 17L19 17L19 20L20 20L20 18L23 18L23 19L25 19L25 20L23 20L23 21L24 21L24 22L25 22L25 23L26 23L26 22L25 22L25 20L26 20L26 15L25 15L25 14L24 14L24 11L23 11L23 10L18 10L18 9L17 9L17 10L16 10L16 8L17 8L17 7L18 7L18 8L20 8L20 9L21 9L21 8L22 8L22 6L21 6L21 8L20 8L20 6L19 6L19 7L18 7L18 6L17 6L17 7L16 7L16 8L15 8L15 9L14 9L14 6L13 6L13 5ZM8 6L8 7L9 7L9 6ZM24 8L24 10L25 10L25 8ZM11 9L11 10L12 10L12 9ZM28 9L28 10L27 10L27 11L28 11L28 10L31 10L31 11L32 11L32 10L31 10L31 9ZM1 10L1 11L2 11L2 10ZM17 10L17 11L16 11L16 13L15 13L15 14L16 14L16 13L17 13L17 14L18 14L18 16L19 16L19 15L21 15L21 17L22 17L22 15L23 15L23 18L25 18L25 16L24 16L24 15L23 15L23 13L22 13L22 15L21 15L21 12L20 12L20 11L18 11L18 10ZM11 11L11 13L10 13L10 14L11 14L11 13L12 13L12 12L13 12L13 11ZM17 11L17 12L18 12L18 11ZM0 13L0 14L1 14L1 15L0 15L0 16L1 16L1 17L2 17L2 16L1 16L1 15L2 15L2 14L1 14L1 13ZM6 13L6 14L7 14L7 13ZM15 15L15 16L17 16L17 15ZM28 15L28 16L30 16L30 15ZM27 17L27 18L28 18L28 17ZM31 17L31 18L32 18L32 17ZM21 19L21 20L22 20L22 19ZM2 20L2 22L3 22L3 23L2 23L2 24L3 24L3 23L5 23L5 20L4 20L4 22L3 22L3 20ZM6 24L6 25L7 25L7 24ZM10 24L10 25L9 25L9 26L10 26L10 27L11 27L11 28L12 28L12 29L11 29L11 30L12 30L12 29L13 29L13 28L14 28L14 26L15 26L15 24L14 24L14 25L13 25L13 24L12 24L12 26L11 26L11 24ZM25 25L25 28L28 28L28 25ZM12 26L12 28L13 28L13 26ZM26 26L26 27L27 27L27 26ZM29 26L29 29L28 29L28 31L27 31L27 32L28 32L28 31L29 31L29 29L30 29L30 26ZM31 28L31 29L32 29L32 28ZM9 29L9 32L10 32L10 29ZM26 29L26 30L27 30L27 29ZM11 31L11 32L12 32L12 31ZM21 31L21 32L22 32L22 31ZM25 31L25 32L26 32L26 31ZM0 0L0 7L7 7L7 0ZM1 1L1 6L6 6L6 1ZM2 2L2 5L5 5L5 2ZM26 0L26 7L33 7L33 0ZM27 1L27 6L32 6L32 1ZM28 2L28 5L31 5L31 2ZM0 26L0 33L7 33L7 26ZM1 27L1 32L6 32L6 27ZM2 28L2 31L5 31L5 28Z" fill="#000000"/></g></g></svg>
