<?xml version="1.0" encoding="UTF-8"?>
<svg xmlns="http://www.w3.org/2000/svg" version="1.1" width="600" height="600" viewBox="0 0 600 600"><rect x="0" y="0" width="600" height="600" fill="#ffffff"/><g transform="scale(17.143)"><g transform="translate(1,1)"><path fill-rule="evenodd" d="M9 0L9 1L8 1L8 2L9 2L9 3L8 3L8 4L10 4L10 7L11 7L11 4L12 4L12 5L13 5L13 4L14 4L14 5L15 5L15 6L14 6L14 7L15 7L15 6L16 6L16 7L17 7L17 6L18 6L18 8L17 8L17 9L16 9L16 8L15 8L15 9L14 9L14 8L13 8L13 6L12 6L12 9L14 9L14 10L11 10L11 11L10 11L10 9L11 9L11 8L6 8L6 9L5 9L5 8L0 8L0 13L1 13L1 14L0 14L0 16L1 16L1 17L0 17L0 18L2 18L2 20L4 20L4 22L2 22L2 23L7 23L7 24L2 24L2 25L8 25L8 27L11 27L11 29L12 29L12 30L13 30L13 31L12 31L12 33L13 33L13 32L14 32L14 33L16 33L16 32L14 32L14 31L16 31L16 30L14 30L14 29L12 29L12 27L14 27L14 26L11 26L11 24L9 24L9 25L8 25L8 23L7 23L7 22L8 22L8 21L9 21L9 22L10 22L10 21L9 21L9 20L8 20L8 19L7 19L7 18L9 18L9 19L10 19L10 20L11 20L11 21L12 21L12 22L13 22L13 21L16 21L16 22L14 22L14 23L15 23L15 24L13 24L13 23L12 23L12 25L16 25L16 26L15 26L15 27L18 27L18 28L15 28L15 29L19 29L19 30L18 30L18 31L19 31L19 30L20 30L20 33L21 33L21 32L24 32L24 33L25 33L25 32L24 32L24 31L27 31L27 32L28 32L28 33L29 33L29 31L30 31L30 32L31 32L31 33L32 33L32 32L31 32L31 31L32 31L32 30L31 30L31 29L30 29L30 28L31 28L31 27L32 27L32 28L33 28L33 27L32 27L32 26L33 26L33 24L32 24L32 26L31 26L31 25L30 25L30 24L31 24L31 23L32 23L32 22L33 22L33 21L32 21L32 20L31 20L31 19L32 19L32 18L33 18L33 17L32 17L32 16L31 16L31 15L32 15L32 14L33 14L33 13L31 13L31 15L30 15L30 13L29 13L29 10L28 10L28 8L27 8L27 9L26 9L26 8L24 8L24 7L25 7L25 5L24 5L24 4L23 4L23 5L22 5L22 7L21 7L21 6L20 6L20 7L19 7L19 6L18 6L18 5L21 5L21 4L18 4L18 3L19 3L19 2L18 2L18 1L15 1L15 0L14 0L14 1L15 1L15 2L14 2L14 3L13 3L13 4L12 4L12 2L13 2L13 1L11 1L11 2L10 2L10 0ZM19 0L19 1L20 1L20 2L21 2L21 3L23 3L23 2L21 2L21 1L24 1L24 2L25 2L25 1L24 1L24 0L21 0L21 1L20 1L20 0ZM15 2L15 3L14 3L14 4L15 4L15 5L18 5L18 4L15 4L15 3L18 3L18 2ZM10 3L10 4L11 4L11 3ZM8 5L8 7L9 7L9 5ZM23 5L23 7L24 7L24 5ZM20 7L20 8L18 8L18 9L17 9L17 10L16 10L16 9L15 9L15 10L14 10L14 11L12 11L12 13L11 13L11 12L10 12L10 13L11 13L11 14L9 14L9 15L10 15L10 19L11 19L11 18L13 18L13 19L12 19L12 21L13 21L13 20L14 20L14 19L15 19L15 18L18 18L18 17L20 17L20 18L19 18L19 21L17 21L17 20L18 20L18 19L17 19L17 20L16 20L16 21L17 21L17 22L18 22L18 23L16 23L16 25L17 25L17 26L19 26L19 28L21 28L21 29L20 29L20 30L21 30L21 29L22 29L22 31L24 31L24 27L23 27L23 29L22 29L22 28L21 28L21 27L20 27L20 26L19 26L19 25L21 25L21 26L22 26L22 25L23 25L23 26L24 26L24 25L23 25L23 23L24 23L24 24L27 24L27 22L25 22L25 21L27 21L27 20L28 20L28 19L26 19L26 18L25 18L25 17L28 17L28 18L29 18L29 17L30 17L30 19L29 19L29 20L30 20L30 21L28 21L28 24L30 24L30 23L29 23L29 22L30 22L30 21L31 21L31 20L30 20L30 19L31 19L31 16L30 16L30 15L29 15L29 13L28 13L28 16L26 16L26 14L25 14L25 13L27 13L27 12L28 12L28 11L27 11L27 10L25 10L25 9L24 9L24 10L23 10L23 11L22 11L22 10L21 10L21 11L20 11L20 10L18 10L18 9L23 9L23 8L21 8L21 7ZM29 8L29 9L30 9L30 8ZM31 8L31 10L33 10L33 9L32 9L32 8ZM1 9L1 11L2 11L2 12L1 12L1 13L2 13L2 14L1 14L1 16L2 16L2 18L3 18L3 19L5 19L5 18L7 18L7 17L6 17L6 16L7 16L7 15L8 15L8 13L6 13L6 12L8 12L8 11L9 11L9 9L6 9L6 10L5 10L5 11L4 11L4 9ZM2 10L2 11L3 11L3 12L4 12L4 11L3 11L3 10ZM6 10L6 11L7 11L7 10ZM15 10L15 11L16 11L16 12L15 12L15 13L14 13L14 12L13 12L13 13L12 13L12 14L13 14L13 13L14 13L14 15L16 15L16 14L17 14L17 13L18 13L18 15L19 15L19 14L20 14L20 13L21 13L21 14L22 14L22 15L21 15L21 16L20 16L20 17L21 17L21 16L22 16L22 15L23 15L23 16L24 16L24 15L25 15L25 14L24 14L24 13L25 13L25 12L26 12L26 11L25 11L25 12L24 12L24 13L21 13L21 12L22 12L22 11L21 11L21 12L20 12L20 11L18 11L18 12L17 12L17 11L16 11L16 10ZM30 11L30 12L31 12L31 11ZM16 12L16 13L15 13L15 14L16 14L16 13L17 13L17 12ZM18 12L18 13L20 13L20 12ZM3 13L3 14L2 14L2 15L3 15L3 14L4 14L4 15L7 15L7 14L6 14L6 13L5 13L5 14L4 14L4 13ZM23 14L23 15L24 15L24 14ZM12 15L12 17L18 17L18 16L13 16L13 15ZM3 16L3 18L5 18L5 17L4 17L4 16ZM28 16L28 17L29 17L29 16ZM22 17L22 19L21 19L21 20L20 20L20 21L19 21L19 22L20 22L20 21L21 21L21 23L18 23L18 24L17 24L17 25L19 25L19 24L22 24L22 23L23 23L23 22L24 22L24 21L25 21L25 20L24 20L24 21L23 21L23 18L24 18L24 17ZM6 19L6 20L7 20L7 19ZM21 20L21 21L22 21L22 20ZM0 21L0 25L1 25L1 21ZM6 21L6 22L7 22L7 21ZM25 25L25 28L28 28L28 25ZM29 25L29 28L30 28L30 27L31 27L31 26L30 26L30 25ZM26 26L26 27L27 27L27 26ZM8 28L8 33L9 33L9 31L10 31L10 32L11 32L11 30L10 30L10 28ZM25 29L25 30L28 30L28 31L29 31L29 30L28 30L28 29ZM30 30L30 31L31 31L31 30ZM17 32L17 33L18 33L18 32ZM0 0L0 7L7 7L7 0ZM1 1L1 6L6 6L6 1ZM2 2L2 5L5 5L5 2ZM26 0L26 7L33 7L33 0ZM27 1L27 6L32 6L32 1ZM28 2L28 5L31 5L31 2ZM0 26L0 33L7 33L7 26ZM1 27L1 32L6 32L6 27ZM2 28L2 31L5 31L5 28Z" fill="#000000"/></g></g></svg>
