<?xml version="1.0" encoding="UTF-8"?>
<svg xmlns="http://www.w3.org/2000/svg" version="1.1" width="600" height="600" viewBox="0 0 600 600"><rect x="0" y="0" width="600" height="600" fill="#ffffff"/><g transform="scale(15.385)"><g transform="translate(1,1)"><path fill-rule="evenodd" d="M9 0L9 1L8 1L8 3L9 3L9 4L8 4L8 8L6 8L6 9L4 9L4 8L3 8L3 9L2 9L2 8L0 8L0 9L1 9L1 11L0 11L0 12L1 12L1 11L2 11L2 10L3 10L3 9L4 9L4 11L5 11L5 10L6 10L6 11L7 11L7 12L4 12L4 13L3 13L3 15L2 15L2 17L3 17L3 18L2 18L2 21L0 21L0 22L1 22L1 25L3 25L3 26L4 26L4 27L7 27L7 28L6 28L6 29L7 29L7 28L8 28L8 27L7 27L7 26L5 26L5 25L9 25L9 26L11 26L11 27L9 27L9 29L8 29L8 31L9 31L9 32L10 32L10 33L8 33L8 34L10 34L10 35L11 35L11 34L12 34L12 33L11 33L11 32L10 32L10 31L9 31L9 30L10 30L10 28L12 28L12 30L11 30L11 31L12 31L12 32L13 32L13 30L14 30L14 32L18 32L18 33L17 33L17 34L16 34L16 35L14 35L14 36L15 36L15 37L19 37L19 36L20 36L20 37L22 37L22 35L23 35L23 33L24 33L24 34L26 34L26 35L25 35L25 37L30 37L30 36L31 36L31 37L33 37L33 35L34 35L34 34L35 34L35 35L37 35L37 34L35 34L35 33L37 33L37 32L36 32L36 31L37 31L37 29L36 29L36 30L35 30L35 28L36 28L36 27L37 27L37 24L35 24L35 25L34 25L34 24L33 24L33 23L34 23L34 22L35 22L35 23L37 23L37 20L36 20L36 19L37 19L37 16L36 16L36 15L37 15L37 13L36 13L36 14L35 14L35 16L34 16L34 20L36 20L36 22L35 22L35 21L34 21L34 22L31 22L31 20L32 20L32 21L33 21L33 19L32 19L32 18L33 18L33 17L32 17L32 18L31 18L31 16L32 16L32 15L34 15L34 14L32 14L32 13L31 13L31 12L34 12L34 11L35 11L35 10L36 10L36 12L37 12L37 9L36 9L36 8L34 8L34 10L32 10L32 9L33 9L33 8L30 8L30 9L29 9L29 8L27 8L27 9L26 9L26 8L25 8L25 6L26 6L26 7L27 7L27 6L28 6L28 7L29 7L29 5L28 5L28 4L29 4L29 2L28 2L28 1L29 1L29 0L27 0L27 1L26 1L26 0L23 0L23 2L22 2L22 1L21 1L21 2L19 2L19 1L20 1L20 0L18 0L18 1L17 1L17 0L16 0L16 1L14 1L14 0L12 0L12 1L11 1L11 2L9 2L9 1L10 1L10 0ZM16 1L16 2L14 2L14 3L16 3L16 4L15 4L15 8L14 8L14 6L13 6L13 3L12 3L12 4L9 4L9 5L10 5L10 6L9 6L9 7L10 7L10 8L8 8L8 9L9 9L9 10L8 10L8 12L9 12L9 13L8 13L8 14L7 14L7 13L4 13L4 14L5 14L5 15L6 15L6 16L7 16L7 17L5 17L5 16L4 16L4 17L5 17L5 19L6 19L6 20L5 20L5 21L6 21L6 22L9 22L9 23L10 23L10 22L9 22L9 21L6 21L6 20L7 20L7 19L8 19L8 20L9 20L9 19L10 19L10 20L11 20L11 19L12 19L12 20L13 20L13 21L14 21L14 22L15 22L15 21L16 21L16 20L15 20L15 19L17 19L17 18L18 18L18 17L16 17L16 18L15 18L15 17L13 17L13 16L12 16L12 14L11 14L11 15L10 15L10 16L9 16L9 13L10 13L10 12L11 12L11 13L12 13L12 12L13 12L13 15L15 15L15 16L16 16L16 15L15 15L15 13L16 13L16 14L17 14L17 13L16 13L16 12L19 12L19 13L20 13L20 14L19 14L19 15L18 15L18 16L19 16L19 15L20 15L20 14L21 14L21 15L23 15L23 14L24 14L24 15L28 15L28 14L29 14L29 15L30 15L30 16L31 16L31 15L32 15L32 14L31 14L31 15L30 15L30 13L29 13L29 12L30 12L30 11L32 11L32 10L30 10L30 11L28 11L28 10L29 10L29 9L27 9L27 10L26 10L26 9L25 9L25 8L24 8L24 9L23 9L23 7L24 7L24 5L22 5L22 4L23 4L23 3L25 3L25 4L26 4L26 6L27 6L27 4L26 4L26 2L25 2L25 1L24 1L24 2L23 2L23 3L22 3L22 2L21 2L21 3L20 3L20 4L19 4L19 3L16 3L16 2L17 2L17 1ZM27 2L27 3L28 3L28 2ZM16 4L16 5L18 5L18 7L17 7L17 6L16 6L16 7L17 7L17 8L18 8L18 9L17 9L17 10L16 10L16 8L15 8L15 9L14 9L14 10L16 10L16 11L14 11L14 12L16 12L16 11L19 11L19 12L21 12L21 14L23 14L23 13L22 13L22 7L23 7L23 6L22 6L22 5L21 5L21 4L20 4L20 5L18 5L18 4ZM11 5L11 6L10 6L10 7L11 7L11 6L12 6L12 8L13 8L13 6L12 6L12 5ZM19 6L19 10L20 10L20 11L21 11L21 10L20 10L20 9L21 9L21 8L20 8L20 6ZM21 6L21 7L22 7L22 6ZM10 8L10 11L9 11L9 12L10 12L10 11L11 11L11 10L12 10L12 9L11 9L11 8ZM6 9L6 10L7 10L7 9ZM25 10L25 12L24 12L24 11L23 11L23 12L24 12L24 14L27 14L27 12L26 12L26 10ZM0 13L0 16L1 16L1 13ZM6 14L6 15L7 15L7 14ZM8 16L8 17L7 17L7 18L6 18L6 19L7 19L7 18L9 18L9 16ZM11 16L11 17L10 17L10 19L11 19L11 17L12 17L12 16ZM20 16L20 17L19 17L19 19L18 19L18 20L17 20L17 21L18 21L18 20L21 20L21 19L20 19L20 17L21 17L21 16ZM23 16L23 17L22 17L22 18L23 18L23 19L25 19L25 20L24 20L24 21L23 21L23 20L22 20L22 22L21 22L21 21L19 21L19 22L18 22L18 23L17 23L17 22L16 22L16 23L14 23L14 24L12 24L12 28L14 28L14 29L15 29L15 31L18 31L18 32L19 32L19 34L18 34L18 35L17 35L17 36L19 36L19 34L20 34L20 33L21 33L21 32L20 32L20 31L22 31L22 29L23 29L23 27L22 27L22 26L24 26L24 30L23 30L23 32L26 32L26 31L27 31L27 33L26 33L26 34L28 34L28 35L32 35L32 33L30 33L30 34L29 34L29 33L28 33L28 31L27 31L27 30L28 30L28 26L29 26L29 27L30 27L30 28L31 28L31 27L30 27L30 25L28 25L28 24L26 24L26 25L25 25L25 23L24 23L24 22L25 22L25 20L26 20L26 21L27 21L27 23L28 23L28 21L27 21L27 20L29 20L29 23L30 23L30 20L31 20L31 19L28 19L28 16ZM35 16L35 17L36 17L36 16ZM23 17L23 18L24 18L24 17ZM25 17L25 19L27 19L27 17ZM29 17L29 18L30 18L30 17ZM0 18L0 20L1 20L1 18ZM3 18L3 19L4 19L4 18ZM13 18L13 20L14 20L14 21L15 21L15 20L14 20L14 18ZM3 20L3 21L4 21L4 20ZM2 22L2 23L3 23L3 22ZM19 22L19 23L20 23L20 24L21 24L21 25L24 25L24 24L22 24L22 23L23 23L23 22L22 22L22 23L21 23L21 22ZM4 23L4 25L5 25L5 23ZM6 23L6 24L7 24L7 23ZM16 23L16 24L14 24L14 25L13 25L13 27L15 27L15 26L16 26L16 29L18 29L18 31L19 31L19 29L20 29L20 30L21 30L21 29L22 29L22 27L21 27L21 26L20 26L20 25L19 25L19 24L17 24L17 23ZM32 24L32 26L33 26L33 24ZM17 25L17 26L18 26L18 27L20 27L20 29L21 29L21 27L20 27L20 26L19 26L19 25ZM35 25L35 26L34 26L34 28L33 28L33 27L32 27L32 28L33 28L33 30L34 30L34 28L35 28L35 27L36 27L36 25ZM0 26L0 27L1 27L1 28L0 28L0 29L5 29L5 28L2 28L2 27L1 27L1 26ZM25 26L25 28L27 28L27 27L26 27L26 26ZM25 29L25 30L24 30L24 31L25 31L25 30L27 30L27 29ZM29 29L29 32L32 32L32 29ZM30 30L30 31L31 31L31 30ZM33 31L33 33L35 33L35 32L34 32L34 31ZM10 33L10 34L11 34L11 33ZM14 33L14 34L15 34L15 33ZM8 35L8 37L9 37L9 35ZM20 35L20 36L21 36L21 35ZM26 35L26 36L27 36L27 35ZM12 36L12 37L13 37L13 36ZM35 36L35 37L37 37L37 36ZM0 0L0 7L7 7L7 0ZM1 1L1 6L6 6L6 1ZM2 2L2 5L5 5L5 2ZM30 0L30 7L37 7L37 0ZM31 1L31 6L36 6L36 1ZM32 2L32 5L35 5L35 2ZM0 30L0 37L7 37L7 30ZM1 31L1 36L6 36L6 31ZM2 32L2 35L5 35L5 32Z" fill="#000000"/></g></g></svg>
