<?xml version="1.0" encoding="UTF-8"?>
<svg xmlns="http://www.w3.org/2000/svg" version="1.1" width="600" height="600" viewBox="0 0 600 600"><rect x="0" y="0" width="600" height="600" fill="#ffffff"/><g transform="scale(17.143)"><g transform="translate(1,1)"><path fill-rule="evenodd" d="M8 0L8 1L10 1L10 0ZM14 0L14 1L13 1L13 2L11 2L11 4L10 4L10 3L9 3L9 2L8 2L8 5L9 5L9 6L8 6L8 7L9 7L9 8L8 8L8 9L9 9L9 10L10 10L10 9L9 9L9 8L10 8L10 7L11 7L11 8L12 8L12 7L13 7L13 5L12 5L12 3L13 3L13 4L14 4L14 2L15 2L15 0ZM17 0L17 2L16 2L16 3L15 3L15 5L14 5L14 7L15 7L15 5L16 5L16 4L18 4L18 5L19 5L19 6L18 6L18 7L17 7L17 6L16 6L16 10L17 10L17 11L16 11L16 12L15 12L15 10L13 10L13 11L11 11L11 13L10 13L10 12L9 12L9 11L8 11L8 10L6 10L6 11L7 11L7 12L5 12L5 13L4 13L4 12L3 12L3 13L2 13L2 12L0 12L0 13L2 13L2 14L3 14L3 16L2 16L2 15L1 15L1 14L0 14L0 15L1 15L1 16L0 16L0 20L1 20L1 19L2 19L2 18L3 18L3 17L5 17L5 18L6 18L6 19L5 19L5 21L7 21L7 22L4 22L4 23L8 23L8 24L9 24L9 25L8 25L8 26L10 26L10 27L11 27L11 28L12 28L12 29L13 29L13 28L12 28L12 26L13 26L13 27L15 27L15 26L19 26L19 27L18 27L18 29L19 29L19 28L20 28L20 30L21 30L21 31L23 31L23 29L25 29L25 30L24 30L24 32L25 32L25 33L26 33L26 32L27 32L27 33L28 33L28 32L30 32L30 33L31 33L31 32L30 32L30 29L31 29L31 31L32 31L32 32L33 32L33 31L32 31L32 29L33 29L33 27L32 27L32 29L31 29L31 26L30 26L30 24L29 24L29 23L28 23L28 24L26 24L26 23L27 23L27 22L28 22L28 21L26 21L26 20L29 20L29 21L30 21L30 22L31 22L31 24L32 24L32 25L33 25L33 24L32 24L32 23L33 23L33 21L31 21L31 20L30 20L30 18L31 18L31 19L32 19L32 20L33 20L33 19L32 19L32 18L33 18L33 16L31 16L31 14L32 14L32 13L30 13L30 14L28 14L28 15L27 15L27 14L26 14L26 13L25 13L25 10L26 10L26 11L27 11L27 13L29 13L29 12L28 12L28 11L31 11L31 12L32 12L32 11L33 11L33 8L32 8L32 9L31 9L31 8L28 8L28 9L26 9L26 8L25 8L25 6L24 6L24 8L23 8L23 6L22 6L22 4L21 4L21 2L22 2L22 1L23 1L23 2L24 2L24 3L25 3L25 2L24 2L24 0L21 0L21 2L20 2L20 4L19 4L19 3L17 3L17 2L18 2L18 0ZM19 0L19 1L20 1L20 0ZM24 4L24 5L25 5L25 4ZM10 5L10 6L9 6L9 7L10 7L10 6L11 6L11 7L12 7L12 5ZM20 5L20 6L19 6L19 8L20 8L20 6L21 6L21 8L22 8L22 6L21 6L21 5ZM0 8L0 9L4 9L4 8ZM6 8L6 9L7 9L7 8ZM14 8L14 9L15 9L15 8ZM24 8L24 10L25 10L25 8ZM17 9L17 10L18 10L18 9ZM20 9L20 10L19 10L19 13L20 13L20 15L19 15L19 14L17 14L17 13L16 13L16 14L14 14L14 13L13 13L13 12L12 12L12 14L9 14L9 12L8 12L8 13L5 13L5 15L4 15L4 16L5 16L5 17L6 17L6 18L7 18L7 17L8 17L8 19L6 19L6 20L7 20L7 21L8 21L8 19L9 19L9 22L8 22L8 23L10 23L10 26L11 26L11 25L12 25L12 24L13 24L13 23L14 23L14 25L13 25L13 26L15 26L15 23L17 23L17 24L16 24L16 25L17 25L17 24L18 24L18 23L20 23L20 24L21 24L21 25L23 25L23 24L22 24L22 22L18 22L18 21L17 21L17 22L16 22L16 20L17 20L17 19L18 19L18 20L20 20L20 21L21 21L21 20L22 20L22 21L24 21L24 22L25 22L25 23L26 23L26 22L25 22L25 20L26 20L26 15L25 15L25 14L24 14L24 11L23 11L23 12L22 12L22 10L21 10L21 9ZM28 9L28 10L27 10L27 11L28 11L28 10L31 10L31 11L32 11L32 10L31 10L31 9ZM1 10L1 11L3 11L3 10ZM4 10L4 11L5 11L5 10ZM20 10L20 12L21 12L21 10ZM17 11L17 12L18 12L18 11ZM22 13L22 14L21 14L21 18L20 18L20 19L21 19L21 18L22 18L22 20L25 20L25 19L23 19L23 18L25 18L25 16L24 16L24 15L23 15L23 18L22 18L22 14L23 14L23 13ZM6 14L6 15L7 15L7 16L6 16L6 17L7 17L7 16L8 16L8 17L9 17L9 19L10 19L10 18L11 18L11 19L12 19L12 20L11 20L11 21L12 21L12 22L10 22L10 23L13 23L13 18L15 18L15 19L14 19L14 21L15 21L15 20L16 20L16 19L17 19L17 18L18 18L18 19L19 19L19 17L20 17L20 16L19 16L19 15L18 15L18 16L19 16L19 17L17 17L17 16L16 16L16 15L17 15L17 14L16 14L16 15L14 15L14 16L13 16L13 14L12 14L12 16L11 16L11 15L10 15L10 17L9 17L9 16L8 16L8 14ZM28 15L28 16L30 16L30 15ZM1 16L1 18L2 18L2 16ZM12 16L12 17L11 17L11 18L12 18L12 17L13 17L13 16ZM27 17L27 18L28 18L28 17ZM31 17L31 18L32 18L32 17ZM2 20L2 21L0 21L0 22L2 22L2 23L1 23L1 24L0 24L0 25L1 25L1 24L3 24L3 22L2 22L2 21L4 21L4 20ZM4 24L4 25L7 25L7 24ZM25 25L25 28L28 28L28 25ZM20 26L20 28L21 28L21 27L23 27L23 28L24 28L24 27L23 27L23 26ZM26 26L26 27L27 27L27 26ZM29 26L29 29L28 29L28 31L27 31L27 32L28 32L28 31L29 31L29 29L30 29L30 26ZM9 28L9 29L8 29L8 33L11 33L11 32L12 32L12 31L10 31L10 32L9 32L9 30L11 30L11 29L10 29L10 28ZM14 28L14 29L15 29L15 30L13 30L13 33L15 33L15 31L16 31L16 33L23 33L23 32L20 32L20 31L19 31L19 30L16 30L16 29L15 29L15 28ZM21 29L21 30L22 30L22 29ZM26 29L26 30L27 30L27 29ZM18 31L18 32L19 32L19 31ZM25 31L25 32L26 32L26 31ZM0 0L0 7L7 7L7 0ZM1 1L1 6L6 6L6 1ZM2 2L2 5L5 5L5 2ZM26 0L26 7L33 7L33 0ZM27 1L27 6L32 6L32 1ZM28 2L28 5L31 5L31 2ZM0 26L0 33L7 33L7 26ZM1 27L1 32L6 32L6 27ZM2 28L2 31L5 31L5 28Z" fill="#000000"/></g></g></svg>
