<?xml version="1.0" encoding="UTF-8"?>
<svg xmlns="http://www.w3.org/2000/svg" version="1.1" width="600" height="600" viewBox="0 0 600 600"><rect x="0" y="0" width="600" height="600" fill="#ffffff"/><g transform="scale(17.143)"><g transform="translate(1,1)"><path fill-rule="evenodd" d="M11 0L11 1L8 1L8 2L9 2L9 3L8 3L8 4L9 4L9 5L8 5L8 7L9 7L9 8L6 8L6 9L5 9L5 8L0 8L0 9L1 9L1 10L2 10L2 12L1 12L1 11L0 11L0 12L1 12L1 14L0 14L0 25L1 25L1 22L2 22L2 20L3 20L3 22L4 22L4 25L8 25L8 27L9 27L9 25L10 25L10 26L12 26L12 27L10 27L10 28L13 28L13 29L11 29L11 30L10 30L10 29L9 29L9 28L8 28L8 33L9 33L9 30L10 30L10 33L12 33L12 32L11 32L11 30L13 30L13 29L15 29L15 28L16 28L16 29L18 29L18 30L14 30L14 31L18 31L18 32L17 32L17 33L18 33L18 32L19 32L19 31L18 31L18 30L20 30L20 31L21 31L21 32L20 32L20 33L21 33L21 32L22 32L22 30L23 30L23 29L21 29L21 28L23 28L23 27L24 27L24 31L23 31L23 32L24 32L24 33L25 33L25 32L24 32L24 31L27 31L27 32L28 32L28 33L29 33L29 31L30 31L30 32L31 32L31 33L32 33L32 32L31 32L31 31L32 31L32 30L31 30L31 29L33 29L33 27L32 27L32 26L33 26L33 24L32 24L32 26L31 26L31 25L30 25L30 24L31 24L31 23L32 23L32 22L33 22L33 21L32 21L32 20L31 20L31 19L32 19L32 18L33 18L33 17L32 17L32 16L31 16L31 15L32 15L32 14L33 14L33 13L31 13L31 15L30 15L30 13L29 13L29 10L28 10L28 8L27 8L27 9L26 9L26 8L24 8L24 7L25 7L25 5L24 5L24 4L23 4L23 5L22 5L22 7L21 7L21 5L20 5L20 4L21 4L21 3L23 3L23 2L21 2L21 1L24 1L24 2L25 2L25 1L24 1L24 0L21 0L21 1L20 1L20 0L19 0L19 1L20 1L20 2L18 2L18 3L17 3L17 2L16 2L16 1L15 1L15 0L14 0L14 1L15 1L15 2L16 2L16 3L13 3L13 4L9 4L9 3L12 3L12 2L13 2L13 0ZM11 1L11 2L12 2L12 1ZM20 2L20 3L19 3L19 4L13 4L13 5L14 5L14 6L13 6L13 8L12 8L12 5L9 5L9 7L10 7L10 8L9 8L9 9L13 9L13 10L11 10L11 11L10 11L10 13L9 13L9 12L8 12L8 11L6 11L6 10L7 10L7 9L6 9L6 10L5 10L5 13L4 13L4 11L3 11L3 14L5 14L5 13L6 13L6 14L7 14L7 13L9 13L9 14L8 14L8 16L7 16L7 15L6 15L6 16L7 16L7 17L6 17L6 18L5 18L5 17L4 17L4 18L5 18L5 19L6 19L6 20L4 20L4 22L8 22L8 23L6 23L6 24L8 24L8 23L11 23L11 24L10 24L10 25L13 25L13 26L16 26L16 25L17 25L17 26L18 26L18 25L22 25L22 27L23 27L23 26L24 26L24 25L22 25L22 24L21 24L21 22L22 22L22 21L24 21L24 22L23 22L23 23L24 23L24 24L27 24L27 22L25 22L25 21L27 21L27 20L28 20L28 19L26 19L26 18L25 18L25 17L28 17L28 18L29 18L29 17L30 17L30 19L29 19L29 20L30 20L30 21L28 21L28 24L30 24L30 23L29 23L29 22L30 22L30 21L31 21L31 20L30 20L30 19L31 19L31 16L30 16L30 15L29 15L29 13L28 13L28 16L26 16L26 14L25 14L25 13L27 13L27 12L28 12L28 11L27 11L27 10L25 10L25 9L24 9L24 10L22 10L22 11L23 11L23 12L21 12L21 10L19 10L19 9L23 9L23 8L21 8L21 7L20 7L20 5L19 5L19 4L20 4L20 3L21 3L21 2ZM15 5L15 6L14 6L14 8L13 8L13 9L14 9L14 11L15 11L15 12L11 12L11 14L12 14L12 15L11 15L11 16L12 16L12 15L14 15L14 16L13 16L13 17L10 17L10 19L9 19L9 20L8 20L8 19L7 19L7 18L6 18L6 19L7 19L7 20L6 20L6 21L7 21L7 20L8 20L8 21L9 21L9 22L12 22L12 24L13 24L13 25L14 25L14 24L15 24L15 25L16 25L16 24L17 24L17 25L18 25L18 24L17 24L17 23L16 23L16 22L15 22L15 23L14 23L14 24L13 24L13 21L17 21L17 22L18 22L18 23L19 23L19 24L20 24L20 23L19 23L19 22L21 22L21 21L19 21L19 20L16 20L16 19L19 19L19 18L20 18L20 20L22 20L22 19L23 19L23 18L24 18L24 17L23 17L23 16L24 16L24 15L25 15L25 14L24 14L24 13L25 13L25 12L26 12L26 11L25 11L25 12L24 12L24 13L22 13L22 15L21 15L21 16L20 16L20 15L19 15L19 14L20 14L20 13L21 13L21 12L20 12L20 13L19 13L19 11L18 11L18 12L17 12L17 9L19 9L19 8L20 8L20 7L19 7L19 6L18 6L18 5ZM23 5L23 7L24 7L24 5ZM10 6L10 7L11 7L11 6ZM15 6L15 7L16 7L16 9L15 9L15 8L14 8L14 9L15 9L15 10L16 10L16 9L17 9L17 8L18 8L18 6L17 6L17 7L16 7L16 6ZM29 8L29 9L30 9L30 8ZM31 8L31 10L33 10L33 9L32 9L32 8ZM3 9L3 10L4 10L4 9ZM30 11L30 12L31 12L31 11ZM6 12L6 13L7 13L7 12ZM13 13L13 14L14 14L14 15L15 15L15 14L16 14L16 15L17 15L17 16L18 16L18 17L15 17L15 16L14 16L14 17L13 17L13 18L14 18L14 19L13 19L13 20L9 20L9 21L13 21L13 20L15 20L15 18L18 18L18 17L20 17L20 18L21 18L21 17L22 17L22 16L21 16L21 17L20 17L20 16L19 16L19 15L17 15L17 14L19 14L19 13ZM9 14L9 15L10 15L10 14ZM23 14L23 15L24 15L24 14ZM1 15L1 16L2 16L2 15ZM8 16L8 17L9 17L9 16ZM28 16L28 17L29 17L29 16ZM1 17L1 18L2 18L2 19L3 19L3 17ZM14 17L14 18L15 18L15 17ZM11 18L11 19L12 19L12 18ZM24 20L24 21L25 21L25 20ZM18 21L18 22L19 22L19 21ZM2 23L2 25L3 25L3 23ZM25 25L25 28L28 28L28 25ZM29 25L29 28L30 28L30 29L31 29L31 28L32 28L32 27L31 27L31 26L30 26L30 25ZM19 26L19 27L20 27L20 28L18 28L18 27L16 27L16 28L18 28L18 29L20 29L20 30L21 30L21 29L20 29L20 28L21 28L21 26ZM26 26L26 27L27 27L27 26ZM13 27L13 28L15 28L15 27ZM30 27L30 28L31 28L31 27ZM25 29L25 30L28 30L28 31L29 31L29 30L28 30L28 29ZM30 30L30 31L31 31L31 30ZM13 32L13 33L14 33L14 32ZM15 32L15 33L16 33L16 32ZM0 0L0 7L7 7L7 0ZM1 1L1 6L6 6L6 1ZM2 2L2 5L5 5L5 2ZM26 0L26 7L33 7L33 0ZM27 1L27 6L32 6L32 1ZM28 2L28 5L31 5L31 2ZM0 26L0 33L7 33L7 26ZM1 27L1 32L6 32L6 27ZM2 28L2 31L5 31L5 28Z" fill="#000000"/></g></g></svg>
