<?xml version="1.0" encoding="UTF-8"?>
<svg xmlns="http://www.w3.org/2000/svg" version="1.1" width="600" height="600" viewBox="0 0 600 600"><rect x="0" y="0" width="600" height="600" fill="#ffffff"/><g transform="scale(17.143)"><g transform="translate(1,1)"><path fill-rule="evenodd" d="M9 0L9 1L8 1L8 2L9 2L9 3L8 3L8 4L10 4L10 7L11 7L11 4L12 4L12 5L13 5L13 6L12 6L12 9L19 9L19 10L20 10L20 9L21 9L21 10L24 10L24 9L25 9L25 10L27 10L27 11L28 11L28 12L27 12L27 13L25 13L25 12L26 12L26 11L25 11L25 12L24 12L24 13L18 13L18 12L17 12L17 11L18 11L18 10L17 10L17 11L16 11L16 10L15 10L15 11L16 11L16 12L15 12L15 13L14 13L14 12L13 12L13 13L12 13L12 11L14 11L14 10L11 10L11 11L10 11L10 9L11 9L11 8L6 8L6 9L5 9L5 8L0 8L0 9L1 9L1 10L0 10L0 12L1 12L1 14L2 14L2 15L4 15L4 14L6 14L6 15L5 15L5 16L4 16L4 18L5 18L5 16L6 16L6 17L7 17L7 18L6 18L6 19L7 19L7 18L8 18L8 19L9 19L9 18L11 18L11 20L10 20L10 21L8 21L8 22L5 22L5 23L8 23L8 27L9 27L9 28L8 28L8 33L10 33L10 32L11 32L11 31L10 31L10 30L11 30L11 29L12 29L12 30L13 30L13 31L12 31L12 33L13 33L13 32L14 32L14 33L19 33L19 32L22 32L22 33L23 33L23 32L24 32L24 33L25 33L25 32L24 32L24 31L27 31L27 32L28 32L28 33L29 33L29 31L30 31L30 32L31 32L31 33L32 33L32 32L31 32L31 31L32 31L32 30L31 30L31 29L30 29L30 28L31 28L31 27L32 27L32 28L33 28L33 27L32 27L32 26L33 26L33 24L32 24L32 26L31 26L31 25L30 25L30 24L31 24L31 23L32 23L32 22L33 22L33 21L32 21L32 20L31 20L31 19L32 19L32 18L33 18L33 17L32 17L32 16L31 16L31 15L32 15L32 14L33 14L33 13L31 13L31 15L30 15L30 13L29 13L29 10L28 10L28 8L27 8L27 9L26 9L26 8L24 8L24 7L25 7L25 5L24 5L24 4L23 4L23 5L22 5L22 7L21 7L21 6L20 6L20 9L19 9L19 6L18 6L18 8L16 8L16 7L17 7L17 6L16 6L16 5L17 5L17 4L19 4L19 5L21 5L21 4L19 4L19 3L20 3L20 2L21 2L21 3L23 3L23 2L21 2L21 1L24 1L24 2L25 2L25 1L24 1L24 0L18 0L18 1L17 1L17 0L16 0L16 1L15 1L15 2L14 2L14 1L11 1L11 2L10 2L10 0ZM18 1L18 2L17 2L17 3L16 3L16 4L15 4L15 3L14 3L14 2L12 2L12 4L13 4L13 5L14 5L14 6L13 6L13 8L15 8L15 7L16 7L16 6L15 6L15 5L16 5L16 4L17 4L17 3L18 3L18 2L20 2L20 1ZM10 3L10 4L11 4L11 3ZM13 3L13 4L14 4L14 5L15 5L15 4L14 4L14 3ZM8 5L8 7L9 7L9 5ZM23 5L23 7L24 7L24 5ZM14 6L14 7L15 7L15 6ZM21 8L21 9L23 9L23 8ZM29 8L29 9L30 9L30 8ZM31 8L31 10L33 10L33 9L32 9L32 8ZM4 9L4 11L2 11L2 10L1 10L1 12L2 12L2 14L3 14L3 13L6 13L6 14L7 14L7 15L6 15L6 16L8 16L8 18L9 18L9 17L11 17L11 18L13 18L13 19L12 19L12 21L10 21L10 23L9 23L9 22L8 22L8 23L9 23L9 25L10 25L10 26L14 26L14 27L12 27L12 29L14 29L14 30L16 30L16 31L14 31L14 32L19 32L19 31L24 31L24 27L23 27L23 29L22 29L22 28L21 28L21 27L20 27L20 26L19 26L19 25L21 25L21 26L22 26L22 25L23 25L23 26L24 26L24 25L23 25L23 23L24 23L24 24L27 24L27 22L25 22L25 21L27 21L27 20L28 20L28 19L26 19L26 18L25 18L25 17L28 17L28 18L29 18L29 17L30 17L30 19L29 19L29 20L30 20L30 21L28 21L28 24L30 24L30 23L29 23L29 22L30 22L30 21L31 21L31 20L30 20L30 19L31 19L31 16L30 16L30 15L29 15L29 13L28 13L28 16L26 16L26 14L25 14L25 13L24 13L24 14L23 14L23 15L24 15L24 16L21 16L21 15L20 15L20 14L18 14L18 13L17 13L17 12L16 12L16 13L15 13L15 14L14 14L14 13L13 13L13 14L12 14L12 13L11 13L11 12L10 12L10 13L9 13L9 12L7 12L7 11L6 11L6 10L8 10L8 9L6 9L6 10L5 10L5 9ZM4 11L4 12L5 12L5 11ZM20 11L20 12L22 12L22 11ZM30 11L30 12L31 12L31 11ZM6 12L6 13L7 13L7 14L8 14L8 15L9 15L9 16L11 16L11 15L10 15L10 14L11 14L11 13L10 13L10 14L8 14L8 13L7 13L7 12ZM16 13L16 14L15 14L15 16L13 16L13 15L12 15L12 17L16 17L16 18L14 18L14 20L13 20L13 21L12 21L12 22L13 22L13 21L16 21L16 22L14 22L14 23L15 23L15 24L13 24L13 23L12 23L12 25L15 25L15 24L16 24L16 25L19 25L19 22L21 22L21 23L20 23L20 24L22 24L22 23L23 23L23 22L24 22L24 21L25 21L25 20L24 20L24 21L23 21L23 18L24 18L24 17L22 17L22 19L21 19L21 18L20 18L20 17L21 17L21 16L19 16L19 17L18 17L18 16L17 16L17 15L16 15L16 14L17 14L17 13ZM24 14L24 15L25 15L25 14ZM0 16L0 17L1 17L1 18L0 18L0 20L1 20L1 21L0 21L0 25L1 25L1 21L2 21L2 23L3 23L3 24L4 24L4 25L7 25L7 24L4 24L4 23L3 23L3 21L4 21L4 20L3 20L3 19L2 19L2 18L3 18L3 16ZM16 16L16 17L17 17L17 18L16 18L16 19L17 19L17 20L16 20L16 21L17 21L17 22L16 22L16 24L18 24L18 22L19 22L19 21L22 21L22 20L21 20L21 19L20 19L20 18L19 18L19 21L17 21L17 20L18 20L18 19L17 19L17 18L18 18L18 17L17 17L17 16ZM28 16L28 17L29 17L29 16ZM1 19L1 20L2 20L2 19ZM6 20L6 21L7 21L7 20ZM10 23L10 24L11 24L11 23ZM25 25L25 28L28 28L28 25ZM29 25L29 28L30 28L30 27L31 27L31 26L30 26L30 25ZM15 26L15 27L14 27L14 28L16 28L16 29L17 29L17 30L18 30L18 31L19 31L19 30L20 30L20 29L21 29L21 30L22 30L22 29L21 29L21 28L20 28L20 27L19 27L19 26L18 26L18 27L19 27L19 28L16 28L16 26ZM26 26L26 27L27 27L27 26ZM19 28L19 29L18 29L18 30L19 30L19 29L20 29L20 28ZM9 29L9 30L10 30L10 29ZM25 29L25 30L28 30L28 31L29 31L29 30L28 30L28 29ZM30 30L30 31L31 31L31 30ZM9 31L9 32L10 32L10 31ZM0 0L0 7L7 7L7 0ZM1 1L1 6L6 6L6 1ZM2 2L2 5L5 5L5 2ZM26 0L26 7L33 7L33 0ZM27 1L27 6L32 6L32 1ZM28 2L28 5L31 5L31 2ZM0 26L0 33L7 33L7 26ZM1 27L1 32L6 32L6 27ZM2 28L2 31L5 31L5 28Z" fill="#000000"/></g></g></svg>
