<?xml version="1.0" encoding="UTF-8"?>
<svg xmlns="http://www.w3.org/2000/svg" version="1.1" width="600" height="600" viewBox="0 0 600 600"><rect x="0" y="0" width="600" height="600" fill="#ffffff"/><g transform="scale(17.143)"><g transform="translate(1,1)"><path fill-rule="evenodd" d="M8 0L8 4L9 4L9 5L8 5L8 7L9 7L9 6L10 6L10 9L11 9L11 8L12 8L12 9L13 9L13 11L12 11L12 12L11 12L11 13L9 13L9 12L10 12L10 11L11 11L11 10L9 10L9 12L8 12L8 13L7 13L7 12L6 12L6 13L7 13L7 14L5 14L5 13L4 13L4 12L5 12L5 10L6 10L6 11L7 11L7 10L6 10L6 9L7 9L7 8L4 8L4 10L2 10L2 11L0 11L0 13L1 13L1 12L2 12L2 11L3 11L3 14L1 14L1 15L3 15L3 17L2 17L2 16L0 16L0 19L1 19L1 17L2 17L2 18L4 18L4 19L2 19L2 20L3 20L3 21L0 21L0 22L2 22L2 23L3 23L3 22L4 22L4 24L5 24L5 25L7 25L7 24L8 24L8 26L10 26L10 24L12 24L12 25L13 25L13 26L14 26L14 25L15 25L15 27L14 27L14 28L13 28L13 27L12 27L12 28L11 28L11 29L10 29L10 30L9 30L9 31L8 31L8 33L9 33L9 32L10 32L10 30L11 30L11 32L12 32L12 33L14 33L14 31L16 31L16 33L23 33L23 31L24 31L24 33L29 33L29 32L30 32L30 31L32 31L32 30L33 30L33 27L32 27L32 24L31 24L31 25L30 25L30 23L29 23L29 22L27 22L27 24L25 24L25 22L24 22L24 21L27 21L27 20L25 20L25 18L24 18L24 17L22 17L22 16L23 16L23 15L24 15L24 16L25 16L25 17L29 17L29 18L30 18L30 19L29 19L29 20L28 20L28 21L30 21L30 22L31 22L31 23L32 23L32 22L31 22L31 21L30 21L30 19L32 19L32 18L30 18L30 17L29 17L29 16L30 16L30 15L32 15L32 14L30 14L30 13L29 13L29 12L30 12L30 11L31 11L31 10L29 10L29 12L28 12L28 13L29 13L29 14L26 14L26 16L25 16L25 15L24 15L24 13L27 13L27 12L26 12L26 11L25 11L25 10L24 10L24 9L25 9L25 5L24 5L24 4L25 4L25 1L24 1L24 0L22 0L22 1L21 1L21 0L20 0L20 1L18 1L18 2L16 2L16 3L13 3L13 2L15 2L15 1L16 1L16 0L15 0L15 1L14 1L14 0L13 0L13 1L11 1L11 2L12 2L12 5L13 5L13 6L12 6L12 7L11 7L11 3L10 3L10 2L9 2L9 0ZM22 1L22 3L21 3L21 4L22 4L22 5L23 5L23 7L22 7L22 6L21 6L21 7L20 7L20 6L19 6L19 7L18 7L18 6L17 6L17 5L18 5L18 3L19 3L19 5L20 5L20 3L19 3L19 2L18 2L18 3L16 3L16 5L15 5L15 8L14 8L14 6L13 6L13 7L12 7L12 8L13 8L13 9L16 9L16 10L17 10L17 11L16 11L16 12L15 12L15 10L14 10L14 11L13 11L13 12L12 12L12 13L11 13L11 14L7 14L7 15L5 15L5 14L3 14L3 15L5 15L5 16L4 16L4 18L5 18L5 19L4 19L4 20L7 20L7 21L6 21L6 22L5 22L5 21L4 21L4 22L5 22L5 23L6 23L6 24L7 24L7 23L9 23L9 24L10 24L10 23L11 23L11 22L12 22L12 21L14 21L14 22L15 22L15 21L16 21L16 22L17 22L17 23L16 23L16 24L15 24L15 25L17 25L17 26L16 26L16 28L15 28L15 29L17 29L17 31L18 31L18 32L20 32L20 31L22 31L22 29L23 29L23 30L24 30L24 31L25 31L25 32L27 32L27 31L25 31L25 30L24 30L24 28L23 28L23 27L24 27L24 25L23 25L23 24L24 24L24 23L23 23L23 22L22 22L22 21L21 21L21 20L20 20L20 21L16 21L16 20L17 20L17 18L19 18L19 19L18 19L18 20L19 20L19 19L22 19L22 20L23 20L23 21L24 21L24 20L23 20L23 18L20 18L20 17L21 17L21 14L22 14L22 15L23 15L23 14L22 14L22 13L24 13L24 12L23 12L23 10L22 10L22 9L23 9L23 8L24 8L24 5L23 5L23 4L22 4L22 3L23 3L23 2L24 2L24 1ZM16 6L16 9L20 9L20 11L21 11L21 12L19 12L19 10L18 10L18 11L17 11L17 13L12 13L12 14L11 14L11 15L10 15L10 16L9 16L9 15L8 15L8 16L6 16L6 17L5 17L5 18L6 18L6 19L7 19L7 18L6 18L6 17L10 17L10 18L8 18L8 20L9 20L9 22L10 22L10 21L12 21L12 20L13 20L13 19L12 19L12 20L9 20L9 19L10 19L10 18L11 18L11 17L10 17L10 16L12 16L12 17L13 17L13 18L14 18L14 17L15 17L15 19L14 19L14 21L15 21L15 19L16 19L16 18L17 18L17 17L19 17L19 16L18 16L18 15L19 15L19 13L22 13L22 11L21 11L21 9L22 9L22 7L21 7L21 9L20 9L20 7L19 7L19 8L18 8L18 7L17 7L17 6ZM0 8L0 10L1 10L1 9L2 9L2 8ZM27 8L27 9L28 9L28 8ZM29 8L29 9L33 9L33 8ZM27 10L27 11L28 11L28 10ZM18 12L18 13L17 13L17 15L14 15L14 14L13 14L13 15L12 15L12 16L13 16L13 17L14 17L14 16L15 16L15 17L17 17L17 15L18 15L18 13L19 13L19 12ZM31 12L31 13L33 13L33 12ZM29 14L29 15L30 15L30 14ZM32 16L32 17L33 17L33 16ZM26 18L26 19L28 19L28 18ZM32 20L32 21L33 21L33 20ZM20 21L20 22L21 22L21 25L20 25L20 23L19 23L19 22L18 22L18 23L17 23L17 25L20 25L20 26L21 26L21 29L20 29L20 27L19 27L19 26L17 26L17 29L20 29L20 30L21 30L21 29L22 29L22 26L23 26L23 25L22 25L22 24L23 24L23 23L22 23L22 22L21 22L21 21ZM6 22L6 23L7 23L7 22ZM12 23L12 24L13 24L13 25L14 25L14 23ZM18 23L18 24L19 24L19 23ZM0 24L0 25L2 25L2 24ZM25 25L25 28L28 28L28 25ZM29 25L29 26L30 26L30 25ZM26 26L26 27L27 27L27 26ZM8 27L8 29L9 29L9 28L10 28L10 27ZM18 27L18 28L19 28L19 27ZM30 27L30 29L31 29L31 28L32 28L32 27ZM12 28L12 29L11 29L11 30L12 30L12 29L13 29L13 30L14 30L14 29L13 29L13 28ZM18 30L18 31L19 31L19 30ZM29 30L29 31L28 31L28 32L29 32L29 31L30 31L30 30ZM12 31L12 32L13 32L13 31ZM32 32L32 33L33 33L33 32ZM0 0L0 7L7 7L7 0ZM1 1L1 6L6 6L6 1ZM2 2L2 5L5 5L5 2ZM26 0L26 7L33 7L33 0ZM27 1L27 6L32 6L32 1ZM28 2L28 5L31 5L31 2ZM0 26L0 33L7 33L7 26ZM1 27L1 32L6 32L6 27ZM2 28L2 31L5 31L5 28Z" fill="#000000"/></g></g></svg>
