<?xml version="1.0" encoding="UTF-8"?>
<svg xmlns="http://www.w3.org/2000/svg" version="1.1" width="600" height="600" viewBox="0 0 600 600"><rect x="0" y="0" width="600" height="600" fill="#ffffff"/><g transform="scale(17.143)"><g transform="translate(1,1)"><path fill-rule="evenodd" d="M8 0L8 1L9 1L9 2L8 2L8 5L9 5L9 4L11 4L11 5L10 5L10 10L9 10L9 8L8 8L8 9L7 9L7 8L6 8L6 9L7 9L7 10L5 10L5 9L4 9L4 8L0 8L0 12L1 12L1 14L0 14L0 19L2 19L2 18L1 18L1 15L2 15L2 16L3 16L3 14L4 14L4 15L5 15L5 16L6 16L6 17L7 17L7 16L6 16L6 15L8 15L8 14L10 14L10 15L9 15L9 18L10 18L10 21L9 21L9 19L8 19L8 20L6 20L6 21L9 21L9 23L7 23L7 22L6 22L6 23L5 23L5 21L3 21L3 20L4 20L4 19L5 19L5 18L4 18L4 19L3 19L3 20L2 20L2 21L0 21L0 22L2 22L2 21L3 21L3 23L1 23L1 24L0 24L0 25L1 25L1 24L2 24L2 25L3 25L3 24L6 24L6 25L8 25L8 26L9 26L9 27L10 27L10 28L9 28L9 29L8 29L8 33L10 33L10 32L11 32L11 33L14 33L14 32L13 32L13 30L14 30L14 29L12 29L12 28L14 28L14 27L15 27L15 26L16 26L16 27L17 27L17 26L16 26L16 25L18 25L18 26L19 26L19 27L18 27L18 28L20 28L20 27L21 27L21 29L22 29L22 28L23 28L23 29L25 29L25 30L24 30L24 32L25 32L25 33L26 33L26 32L27 32L27 33L28 33L28 32L30 32L30 33L31 33L31 32L30 32L30 29L31 29L31 31L32 31L32 32L33 32L33 31L32 31L32 29L33 29L33 28L32 28L32 27L31 27L31 26L30 26L30 24L29 24L29 23L28 23L28 24L26 24L26 23L27 23L27 22L28 22L28 21L26 21L26 20L29 20L29 21L30 21L30 22L31 22L31 24L32 24L32 25L33 25L33 24L32 24L32 23L33 23L33 21L31 21L31 20L30 20L30 18L31 18L31 19L32 19L32 20L33 20L33 19L32 19L32 18L33 18L33 16L31 16L31 14L32 14L32 13L30 13L30 14L28 14L28 15L27 15L27 14L26 14L26 13L25 13L25 10L26 10L26 11L27 11L27 13L29 13L29 12L28 12L28 11L31 11L31 12L32 12L32 11L33 11L33 8L32 8L32 9L31 9L31 8L28 8L28 9L26 9L26 8L25 8L25 6L24 6L24 8L23 8L23 6L22 6L22 4L21 4L21 2L22 2L22 1L23 1L23 2L24 2L24 3L25 3L25 2L24 2L24 0L21 0L21 1L20 1L20 0L19 0L19 1L20 1L20 2L19 2L19 3L20 3L20 4L19 4L19 5L18 5L18 3L17 3L17 2L18 2L18 0L17 0L17 2L16 2L16 3L15 3L15 0L12 0L12 1L11 1L11 0L10 0L10 1L9 1L9 0ZM13 1L13 2L11 2L11 4L12 4L12 3L13 3L13 2L14 2L14 1ZM14 3L14 6L13 6L13 5L12 5L12 6L11 6L11 8L12 8L12 6L13 6L13 10L14 10L14 11L16 11L16 10L18 10L18 11L17 11L17 12L16 12L16 13L17 13L17 12L18 12L18 11L20 11L20 12L19 12L19 13L20 13L20 12L21 12L21 13L23 13L23 14L22 14L22 15L24 15L24 16L25 16L25 18L23 18L23 17L21 17L21 14L20 14L20 16L19 16L19 14L15 14L15 12L14 12L14 13L13 13L13 14L12 14L12 16L11 16L11 15L10 15L10 16L11 16L11 17L10 17L10 18L11 18L11 19L12 19L12 20L11 20L11 21L10 21L10 24L9 24L9 25L11 25L11 23L13 23L13 22L15 22L15 23L14 23L14 24L12 24L12 26L10 26L10 27L11 27L11 28L12 28L12 26L13 26L13 27L14 27L14 26L13 26L13 25L15 25L15 23L17 23L17 24L18 24L18 23L17 23L17 22L18 22L18 21L17 21L17 19L15 19L15 18L14 18L14 17L12 17L12 16L14 16L14 14L15 14L15 15L16 15L16 16L15 16L15 17L16 17L16 18L18 18L18 20L20 20L20 21L21 21L21 22L19 22L19 23L21 23L21 24L19 24L19 25L20 25L20 26L23 26L23 25L22 25L22 24L23 24L23 23L22 23L22 21L21 21L21 20L23 20L23 21L24 21L24 22L25 22L25 23L26 23L26 22L25 22L25 20L26 20L26 15L25 15L25 14L24 14L24 11L23 11L23 10L22 10L22 11L21 11L21 9L20 9L20 10L18 10L18 9L17 9L17 8L16 8L16 6L17 6L17 7L18 7L18 5L17 5L17 4L16 4L16 5L15 5L15 3ZM24 4L24 5L25 5L25 4ZM8 6L8 7L9 7L9 6ZM14 6L14 8L15 8L15 6ZM19 6L19 7L20 7L20 6ZM21 6L21 8L22 8L22 6ZM24 8L24 10L25 10L25 8ZM1 9L1 10L2 10L2 11L1 11L1 12L2 12L2 11L3 11L3 13L4 13L4 14L5 14L5 15L6 15L6 14L7 14L7 13L8 13L8 12L9 12L9 10L8 10L8 11L6 11L6 12L7 12L7 13L6 13L6 14L5 14L5 13L4 13L4 11L5 11L5 10L3 10L3 9ZM11 9L11 10L12 10L12 9ZM14 9L14 10L15 10L15 9ZM28 9L28 10L27 10L27 11L28 11L28 10L31 10L31 11L32 11L32 10L31 10L31 9ZM11 11L11 13L10 13L10 14L11 14L11 13L12 13L12 12L13 12L13 11ZM22 11L22 12L23 12L23 11ZM28 15L28 16L30 16L30 15ZM18 17L18 18L19 18L19 17ZM27 17L27 18L28 18L28 17ZM31 17L31 18L32 18L32 17ZM6 18L6 19L7 19L7 18ZM20 18L20 20L21 20L21 19L23 19L23 20L25 20L25 19L23 19L23 18ZM14 19L14 21L15 21L15 19ZM6 23L6 24L7 24L7 23ZM25 25L25 28L28 28L28 25ZM26 26L26 27L27 27L27 26ZM29 26L29 29L28 29L28 31L27 31L27 32L28 32L28 31L29 31L29 29L30 29L30 26ZM23 27L23 28L24 28L24 27ZM31 28L31 29L32 29L32 28ZM10 29L10 30L9 30L9 32L10 32L10 30L12 30L12 29ZM15 29L15 31L16 31L16 29ZM18 29L18 30L19 30L19 29ZM26 29L26 30L27 30L27 29ZM22 30L22 31L23 31L23 30ZM11 31L11 32L12 32L12 31ZM17 31L17 33L18 33L18 32L19 32L19 31ZM20 31L20 33L23 33L23 32L21 32L21 31ZM25 31L25 32L26 32L26 31ZM0 0L0 7L7 7L7 0ZM1 1L1 6L6 6L6 1ZM2 2L2 5L5 5L5 2ZM26 0L26 7L33 7L33 0ZM27 1L27 6L32 6L32 1ZM28 2L28 5L31 5L31 2ZM0 26L0 33L7 33L7 26ZM1 27L1 32L6 32L6 27ZM2 28L2 31L5 31L5 28Z" fill="#000000"/></g></g></svg>
