<?xml version="1.0" encoding="UTF-8"?>
<svg xmlns="http://www.w3.org/2000/svg" version="1.1" width="600" height="600" viewBox="0 0 600 600"><rect x="0" y="0" width="600" height="600" fill="#ffffff"/><g transform="scale(15.385)"><g transform="translate(1,1)"><path fill-rule="evenodd" d="M9 0L9 1L8 1L8 2L9 2L9 3L8 3L8 4L10 4L10 7L11 7L11 4L12 4L12 5L13 5L13 6L12 6L12 9L13 9L13 8L14 8L14 9L15 9L15 10L17 10L17 9L19 9L19 10L18 10L18 12L17 12L17 11L16 11L16 13L12 13L12 11L13 11L13 10L11 10L11 12L10 12L10 13L9 13L9 10L8 10L8 14L5 14L5 15L4 15L4 13L3 13L3 12L2 12L2 9L4 9L4 12L5 12L5 10L6 10L6 11L7 11L7 10L6 10L6 9L11 9L11 8L6 8L6 9L5 9L5 8L0 8L0 9L1 9L1 12L0 12L0 13L1 13L1 12L2 12L2 13L3 13L3 15L2 15L2 14L1 14L1 15L0 15L0 16L2 16L2 17L1 17L1 18L0 18L0 20L2 20L2 21L3 21L3 20L4 20L4 22L2 22L2 23L5 23L5 24L4 24L4 25L2 25L2 24L1 24L1 23L0 23L0 29L1 29L1 26L3 26L3 27L2 27L2 28L3 28L3 29L4 29L4 28L5 28L5 29L8 29L8 31L9 31L9 30L11 30L11 29L12 29L12 30L13 30L13 31L12 31L12 33L13 33L13 32L14 32L14 33L17 33L17 34L15 34L15 35L14 35L14 36L15 36L15 37L19 37L19 36L16 36L16 35L17 35L17 34L20 34L20 35L21 35L21 36L22 36L22 37L24 37L24 36L25 36L25 37L26 37L26 36L25 36L25 33L29 33L29 35L27 35L27 34L26 34L26 35L27 35L27 36L31 36L31 37L37 37L37 33L36 33L36 31L37 31L37 30L35 30L35 28L34 28L34 27L36 27L36 28L37 28L37 26L36 26L36 25L37 25L37 22L36 22L36 21L37 21L37 18L36 18L36 17L37 17L37 14L36 14L36 13L35 13L35 12L34 12L34 11L35 11L35 9L36 9L36 8L35 8L35 9L34 9L34 8L33 8L33 9L34 9L34 11L32 11L32 12L31 12L31 10L30 10L30 8L29 8L29 5L27 5L27 4L26 4L26 3L25 3L25 1L24 1L24 0L23 0L23 1L22 1L22 0L21 0L21 2L20 2L20 3L22 3L22 4L19 4L19 3L17 3L17 2L16 2L16 4L12 4L12 2L13 2L13 1L11 1L11 2L10 2L10 0ZM15 0L15 1L18 1L18 0ZM19 0L19 1L20 1L20 0ZM26 0L26 2L28 2L28 4L29 4L29 0L28 0L28 1L27 1L27 0ZM23 1L23 2L22 2L22 3L24 3L24 4L25 4L25 3L24 3L24 1ZM14 2L14 3L15 3L15 2ZM10 3L10 4L11 4L11 3ZM16 4L16 5L19 5L19 7L20 7L20 6L21 6L21 7L22 7L22 6L23 6L23 8L19 8L19 9L20 9L20 10L19 10L19 13L16 13L16 14L19 14L19 17L17 17L17 16L18 16L18 15L16 15L16 17L17 17L17 18L15 18L15 17L14 17L14 16L15 16L15 15L14 15L14 16L13 16L13 17L12 17L12 15L13 15L13 14L12 14L12 13L11 13L11 18L10 18L10 19L11 19L11 18L13 18L13 19L12 19L12 21L11 21L11 20L7 20L7 19L8 19L8 17L6 17L6 18L4 18L4 19L5 19L5 21L6 21L6 22L5 22L5 23L6 23L6 24L5 24L5 25L6 25L6 26L5 26L5 27L6 27L6 28L8 28L8 29L10 29L10 28L8 28L8 27L9 27L9 26L10 26L10 27L11 27L11 26L13 26L13 27L12 27L12 29L16 29L16 32L18 32L18 31L19 31L19 33L20 33L20 34L21 34L21 33L22 33L22 34L23 34L23 35L22 35L22 36L24 36L24 34L23 34L23 33L25 33L25 32L26 32L26 29L28 29L28 27L29 27L29 26L31 26L31 28L33 28L33 27L34 27L34 26L35 26L35 25L34 25L34 24L36 24L36 23L34 23L34 24L33 24L33 25L32 25L32 24L31 24L31 23L32 23L32 22L33 22L33 21L34 21L34 22L35 22L35 21L34 21L34 20L36 20L36 19L35 19L35 17L36 17L36 14L35 14L35 15L34 15L34 13L30 13L30 10L29 10L29 9L27 9L27 8L26 8L26 5L23 5L23 4L22 4L22 5L19 5L19 4ZM8 5L8 7L9 7L9 5ZM13 6L13 7L14 7L14 8L15 8L15 7L16 7L16 9L17 9L17 8L18 8L18 6L17 6L17 7L16 7L16 6L15 6L15 7L14 7L14 6ZM24 6L24 7L25 7L25 6ZM27 6L27 7L28 7L28 6ZM24 8L24 9L22 9L22 10L21 10L21 11L20 11L20 13L19 13L19 14L20 14L20 13L21 13L21 14L22 14L22 13L23 13L23 14L24 14L24 15L26 15L26 16L24 16L24 17L19 17L19 18L21 18L21 20L20 20L20 19L18 19L18 18L17 18L17 19L16 19L16 21L12 21L12 22L13 22L13 23L12 23L12 25L13 25L13 24L14 24L14 25L15 25L15 26L17 26L17 25L19 25L19 26L18 26L18 28L17 28L17 27L16 27L16 28L17 28L17 29L19 29L19 30L22 30L22 31L21 31L21 32L20 32L20 33L21 33L21 32L22 32L22 33L23 33L23 32L24 32L24 31L23 31L23 30L25 30L25 29L26 29L26 28L27 28L27 27L28 27L28 26L29 26L29 25L31 25L31 24L30 24L30 22L29 22L29 20L27 20L27 19L29 19L29 18L30 18L30 21L33 21L33 20L34 20L34 19L33 19L33 20L31 20L31 19L32 19L32 18L30 18L30 17L33 17L33 18L34 18L34 17L35 17L35 16L34 16L34 15L33 15L33 14L32 14L32 16L31 16L31 14L30 14L30 13L29 13L29 12L28 12L28 11L29 11L29 10L27 10L27 9L26 9L26 8ZM31 8L31 9L32 9L32 8ZM24 9L24 10L22 10L22 12L21 12L21 13L22 13L22 12L24 12L24 13L25 13L25 14L26 14L26 15L27 15L27 16L26 16L26 17L24 17L24 18L23 18L23 19L22 19L22 20L21 20L21 21L20 21L20 20L19 20L19 21L20 21L20 22L17 22L17 21L16 21L16 22L17 22L17 23L16 23L16 25L17 25L17 24L19 24L19 25L22 25L22 27L23 27L23 28L21 28L21 26L19 26L19 27L20 27L20 28L19 28L19 29L23 29L23 28L24 28L24 29L25 29L25 28L26 28L26 26L28 26L28 25L25 25L25 24L26 24L26 23L27 23L27 22L28 22L28 23L29 23L29 22L28 22L28 21L25 21L25 20L26 20L26 19L27 19L27 18L29 18L29 17L30 17L30 14L29 14L29 13L27 13L27 12L26 12L26 11L25 11L25 12L24 12L24 10L26 10L26 9ZM36 10L36 11L37 11L37 10ZM14 11L14 12L15 12L15 11ZM6 12L6 13L7 13L7 12ZM25 12L25 13L26 13L26 14L27 14L27 15L28 15L28 16L29 16L29 14L27 14L27 13L26 13L26 12ZM3 15L3 16L4 16L4 15ZM6 15L6 16L8 16L8 15ZM9 15L9 17L10 17L10 15ZM20 15L20 16L22 16L22 15ZM33 16L33 17L34 17L34 16ZM2 17L2 18L1 18L1 19L2 19L2 20L3 20L3 17ZM26 17L26 18L24 18L24 19L23 19L23 20L22 20L22 21L21 21L21 22L20 22L20 23L19 23L19 24L20 24L20 23L21 23L21 24L22 24L22 25L23 25L23 26L25 26L25 25L23 25L23 24L22 24L22 23L21 23L21 22L22 22L22 21L23 21L23 22L25 22L25 23L26 23L26 22L25 22L25 21L23 21L23 20L25 20L25 19L26 19L26 18L27 18L27 17ZM6 18L6 19L7 19L7 18ZM14 19L14 20L15 20L15 19ZM17 19L17 20L18 20L18 19ZM6 20L6 21L7 21L7 22L6 22L6 23L7 23L7 22L8 22L8 24L6 24L6 25L8 25L8 26L9 26L9 25L10 25L10 26L11 26L11 25L10 25L10 24L11 24L11 23L10 23L10 21L9 21L9 22L8 22L8 21L7 21L7 20ZM14 23L14 24L15 24L15 23ZM6 26L6 27L7 27L7 26ZM14 27L14 28L15 28L15 27ZM24 27L24 28L25 28L25 27ZM29 29L29 32L32 32L32 29ZM33 29L33 30L34 30L34 29ZM17 30L17 31L18 31L18 30ZM27 30L27 32L28 32L28 30ZM30 30L30 31L31 31L31 30ZM14 31L14 32L15 32L15 31ZM34 31L34 32L33 32L33 33L34 33L34 36L36 36L36 35L35 35L35 34L36 34L36 33L34 33L34 32L35 32L35 31ZM8 32L8 37L12 37L12 35L13 35L13 34L11 34L11 33L10 33L10 32ZM9 33L9 35L10 35L10 36L11 36L11 34L10 34L10 33ZM30 34L30 35L31 35L31 36L32 36L32 35L33 35L33 34ZM0 0L0 7L7 7L7 0ZM1 1L1 6L6 6L6 1ZM2 2L2 5L5 5L5 2ZM30 0L30 7L37 7L37 0ZM31 1L31 6L36 6L36 1ZM32 2L32 5L35 5L35 2ZM0 30L0 37L7 37L7 30ZM1 31L1 36L6 36L6 31ZM2 32L2 35L5 35L5 32Z" fill="#000000"/></g></g></svg>
