<?xml version="1.0" encoding="UTF-8"?>
<svg xmlns="http://www.w3.org/2000/svg" version="1.1" width="600" height="600" viewBox="0 0 600 600"><rect x="0" y="0" width="600" height="600" fill="#ffffff"/><g transform="scale(17.143)"><g transform="translate(1,1)"><path fill-rule="evenodd" d="M11 0L11 1L8 1L8 2L9 2L9 3L8 3L8 4L9 4L9 5L8 5L8 7L9 7L9 8L6 8L6 9L5 9L5 8L0 8L0 12L1 12L1 13L2 13L2 15L1 15L1 14L0 14L0 15L1 15L1 18L0 18L0 19L2 19L2 18L3 18L3 17L4 17L4 18L5 18L5 17L4 17L4 16L3 16L3 15L8 15L8 17L9 17L9 16L10 16L10 17L11 17L11 18L10 18L10 19L9 19L9 20L6 20L6 21L9 21L9 20L10 20L10 22L9 22L9 23L11 23L11 22L12 22L12 24L13 24L13 25L11 25L11 26L9 26L9 24L8 24L8 22L5 22L5 21L4 21L4 22L2 22L2 25L3 25L3 24L4 24L4 22L5 22L5 23L7 23L7 24L6 24L6 25L7 25L7 24L8 24L8 27L10 27L10 28L8 28L8 33L12 33L12 32L10 32L10 30L13 30L13 29L19 29L19 30L20 30L20 31L18 31L18 32L17 32L17 30L14 30L14 31L15 31L15 33L19 33L19 32L20 32L20 31L21 31L21 32L22 32L22 33L23 33L23 32L24 32L24 33L25 33L25 32L24 32L24 31L27 31L27 32L28 32L28 33L29 33L29 31L30 31L30 32L31 32L31 33L32 33L32 32L31 32L31 31L32 31L32 30L31 30L31 29L33 29L33 27L32 27L32 26L33 26L33 24L32 24L32 26L31 26L31 25L30 25L30 24L31 24L31 23L32 23L32 22L33 22L33 21L32 21L32 20L31 20L31 19L32 19L32 18L33 18L33 17L32 17L32 16L31 16L31 15L32 15L32 14L33 14L33 13L31 13L31 15L30 15L30 13L29 13L29 10L28 10L28 8L27 8L27 9L26 9L26 8L24 8L24 7L25 7L25 5L24 5L24 4L23 4L23 5L22 5L22 7L21 7L21 6L20 6L20 7L19 7L19 6L18 6L18 5L20 5L20 4L21 4L21 3L23 3L23 2L21 2L21 3L20 3L20 4L18 4L18 3L19 3L19 1L20 1L20 0L19 0L19 1L17 1L17 2L18 2L18 3L16 3L16 1L15 1L15 0L14 0L14 1L13 1L13 0ZM21 0L21 1L24 1L24 2L25 2L25 1L24 1L24 0ZM11 1L11 2L12 2L12 3L9 3L9 4L13 4L13 5L14 5L14 4L15 4L15 5L16 5L16 6L15 6L15 7L16 7L16 6L17 6L17 8L16 8L16 9L13 9L13 8L14 8L14 6L13 6L13 8L12 8L12 5L9 5L9 7L10 7L10 8L9 8L9 9L13 9L13 10L11 10L11 12L10 12L10 13L9 13L9 10L8 10L8 11L6 11L6 12L5 12L5 11L4 11L4 10L5 10L5 9L3 9L3 10L2 10L2 9L1 9L1 11L4 11L4 12L2 12L2 13L4 13L4 12L5 12L5 14L7 14L7 13L6 13L6 12L8 12L8 13L9 13L9 14L8 14L8 15L10 15L10 16L11 16L11 17L13 17L13 20L11 20L11 21L13 21L13 22L14 22L14 23L13 23L13 24L14 24L14 25L13 25L13 26L16 26L16 25L17 25L17 28L19 28L19 29L20 29L20 30L22 30L22 31L24 31L24 27L23 27L23 26L24 26L24 25L23 25L23 24L21 24L21 23L20 23L20 22L18 22L18 21L21 21L21 22L22 22L22 21L24 21L24 22L23 22L23 23L24 23L24 24L27 24L27 22L25 22L25 21L27 21L27 20L28 20L28 19L26 19L26 18L25 18L25 17L28 17L28 18L29 18L29 17L30 17L30 19L29 19L29 20L30 20L30 21L28 21L28 24L30 24L30 23L29 23L29 22L30 22L30 21L31 21L31 20L30 20L30 19L31 19L31 16L30 16L30 15L29 15L29 13L28 13L28 16L26 16L26 14L25 14L25 13L27 13L27 12L28 12L28 11L27 11L27 10L25 10L25 9L24 9L24 10L22 10L22 11L23 11L23 12L21 12L21 13L20 13L20 11L21 11L21 10L19 10L19 9L23 9L23 8L19 8L19 9L18 9L18 10L17 10L17 11L15 11L15 10L16 10L16 9L17 9L17 8L18 8L18 6L17 6L17 5L18 5L18 4L15 4L15 3L14 3L14 2L15 2L15 1L14 1L14 2L12 2L12 1ZM13 3L13 4L14 4L14 3ZM23 5L23 7L24 7L24 5ZM10 6L10 7L11 7L11 6ZM29 8L29 9L30 9L30 8ZM31 8L31 10L33 10L33 9L32 9L32 8ZM6 9L6 10L7 10L7 9ZM13 10L13 11L14 11L14 12L11 12L11 14L12 14L12 15L11 15L11 16L12 16L12 15L13 15L13 13L16 13L16 14L14 14L14 16L13 16L13 17L14 17L14 20L13 20L13 21L16 21L16 22L15 22L15 23L14 23L14 24L15 24L15 25L16 25L16 24L17 24L17 25L19 25L19 26L20 26L20 25L21 25L21 26L23 26L23 25L21 25L21 24L20 24L20 23L19 23L19 24L17 24L17 23L16 23L16 22L17 22L17 21L18 21L18 20L20 20L20 19L21 19L21 20L22 20L22 19L23 19L23 18L24 18L24 17L23 17L23 16L24 16L24 15L25 15L25 14L24 14L24 13L25 13L25 12L26 12L26 11L25 11L25 12L24 12L24 13L22 13L22 15L20 15L20 16L22 16L22 17L19 17L19 16L15 16L15 15L16 15L16 14L18 14L18 15L19 15L19 14L20 14L20 13L19 13L19 10L18 10L18 12L17 12L17 13L16 13L16 12L15 12L15 11L14 11L14 10ZM30 11L30 12L31 12L31 11ZM18 13L18 14L19 14L19 13ZM23 14L23 15L24 15L24 14ZM2 16L2 17L3 17L3 16ZM6 16L6 17L7 17L7 16ZM14 16L14 17L15 17L15 18L16 18L16 19L17 19L17 20L16 20L16 21L17 21L17 20L18 20L18 18L19 18L19 19L20 19L20 18L19 18L19 17L18 17L18 18L17 18L17 17L15 17L15 16ZM28 16L28 17L29 17L29 16ZM6 18L6 19L7 19L7 18ZM11 18L11 19L12 19L12 18ZM3 19L3 20L2 20L2 21L3 21L3 20L5 20L5 19ZM24 20L24 21L25 21L25 20ZM0 21L0 25L1 25L1 21ZM15 23L15 24L16 24L16 23ZM19 24L19 25L20 25L20 24ZM25 25L25 28L28 28L28 25ZM29 25L29 28L30 28L30 29L31 29L31 28L32 28L32 27L31 27L31 26L30 26L30 25ZM11 26L11 27L12 27L12 26ZM26 26L26 27L27 27L27 26ZM13 27L13 28L10 28L10 29L9 29L9 30L10 30L10 29L13 29L13 28L15 28L15 27ZM21 27L21 28L20 28L20 29L21 29L21 28L22 28L22 27ZM30 27L30 28L31 28L31 27ZM22 29L22 30L23 30L23 29ZM25 29L25 30L28 30L28 31L29 31L29 30L28 30L28 29ZM30 30L30 31L31 31L31 30ZM13 32L13 33L14 33L14 32ZM0 0L0 7L7 7L7 0ZM1 1L1 6L6 6L6 1ZM2 2L2 5L5 5L5 2ZM26 0L26 7L33 7L33 0ZM27 1L27 6L32 6L32 1ZM28 2L28 5L31 5L31 2ZM0 26L0 33L7 33L7 26ZM1 27L1 32L6 32L6 27ZM2 28L2 31L5 31L5 28Z" fill="#000000"/></g></g></svg>
