<?xml version="1.0" encoding="UTF-8"?>
<svg xmlns="http://www.w3.org/2000/svg" version="1.1" width="600" height="600" viewBox="0 0 600 600"><rect x="0" y="0" width="600" height="600" fill="#ffffff"/><g transform="scale(17.143)"><g transform="translate(1,1)"><path fill-rule="evenodd" d="M9 0L9 1L11 1L11 2L9 2L9 3L8 3L8 5L9 5L9 6L8 6L8 7L9 7L9 9L10 9L10 10L8 10L8 8L5 8L5 9L7 9L7 10L3 10L3 9L2 9L2 8L0 8L0 9L2 9L2 10L1 10L1 12L2 12L2 13L3 13L3 14L2 14L2 16L3 16L3 14L4 14L4 15L5 15L5 16L4 16L4 17L3 17L3 20L2 20L2 17L1 17L1 16L0 16L0 17L1 17L1 19L0 19L0 25L2 25L2 24L3 24L3 25L4 25L4 24L5 24L5 25L7 25L7 24L5 24L5 21L7 21L7 20L8 20L8 22L9 22L9 23L10 23L10 24L11 24L11 25L9 25L9 24L8 24L8 28L9 28L9 26L10 26L10 27L11 27L11 28L10 28L10 29L12 29L12 30L10 30L10 31L8 31L8 33L9 33L9 32L10 32L10 33L11 33L11 32L10 32L10 31L12 31L12 33L13 33L13 32L14 32L14 33L19 33L19 32L16 32L16 31L20 31L20 29L21 29L21 27L24 27L24 30L23 30L23 29L22 29L22 30L21 30L21 31L22 31L22 30L23 30L23 32L22 32L22 33L23 33L23 32L24 32L24 33L25 33L25 32L24 32L24 31L25 31L25 29L27 29L27 31L28 31L28 33L29 33L29 30L31 30L31 29L30 29L30 28L31 28L31 27L32 27L32 26L33 26L33 25L32 25L32 24L31 24L31 23L32 23L32 20L31 20L31 19L30 19L30 20L29 20L29 19L28 19L28 18L27 18L27 17L25 17L25 19L26 19L26 18L27 18L27 21L28 21L28 22L27 22L27 23L28 23L28 22L29 22L29 23L30 23L30 24L31 24L31 25L30 25L30 26L31 26L31 27L30 27L30 28L29 28L29 24L24 24L24 23L23 23L23 22L24 22L24 21L25 21L25 22L26 22L26 21L25 21L25 20L24 20L24 21L23 21L23 19L24 19L24 17L21 17L21 16L20 16L20 17L19 17L19 16L17 16L17 15L19 15L19 14L20 14L20 15L21 15L21 14L20 14L20 12L21 12L21 10L20 10L20 9L19 9L19 8L17 8L17 9L19 9L19 10L20 10L20 12L19 12L19 13L18 13L18 14L17 14L17 15L16 15L16 12L17 12L17 11L18 11L18 10L16 10L16 7L17 7L17 6L16 6L16 7L15 7L15 6L14 6L14 5L13 5L13 4L14 4L14 3L15 3L15 4L16 4L16 2L15 2L15 1L14 1L14 0L13 0L13 1L12 1L12 0ZM16 0L16 1L18 1L18 2L19 2L19 1L18 1L18 0ZM20 0L20 2L21 2L21 4L23 4L23 5L21 5L21 6L20 6L20 8L21 8L21 6L22 6L22 8L23 8L23 10L24 10L24 9L25 9L25 10L26 10L26 9L25 9L25 8L24 8L24 7L25 7L25 5L24 5L24 4L23 4L23 2L22 2L22 0ZM13 1L13 2L12 2L12 4L11 4L11 7L10 7L10 6L9 6L9 7L10 7L10 8L11 8L11 10L10 10L10 11L9 11L9 12L10 12L10 11L11 11L11 10L15 10L15 8L14 8L14 6L13 6L13 5L12 5L12 4L13 4L13 3L14 3L14 1ZM24 1L24 2L25 2L25 1ZM9 3L9 5L10 5L10 3ZM17 3L17 4L18 4L18 7L19 7L19 5L20 5L20 4L18 4L18 3ZM23 5L23 7L24 7L24 5ZM12 6L12 9L14 9L14 8L13 8L13 6ZM28 8L28 10L27 10L27 12L26 12L26 11L25 11L25 12L23 12L23 11L22 11L22 16L24 16L24 15L25 15L25 14L26 14L26 15L28 15L28 17L29 17L29 18L30 18L30 17L29 17L29 15L30 15L30 16L31 16L31 18L32 18L32 19L33 19L33 17L32 17L32 16L33 16L33 15L32 15L32 14L33 14L33 12L31 12L31 11L30 11L30 12L29 12L29 9L30 9L30 8ZM31 9L31 10L32 10L32 9ZM2 11L2 12L3 12L3 13L4 13L4 14L7 14L7 13L8 13L8 15L9 15L9 16L8 16L8 18L9 18L9 16L11 16L11 17L10 17L10 18L11 18L11 19L12 19L12 21L9 21L9 22L11 22L11 24L12 24L12 23L13 23L13 25L11 25L11 26L14 26L14 27L12 27L12 29L14 29L14 30L12 30L12 31L14 31L14 32L15 32L15 28L16 28L16 29L17 29L17 30L18 30L18 29L20 29L20 27L21 27L21 25L22 25L22 24L23 24L23 26L24 26L24 24L23 24L23 23L21 23L21 24L20 24L20 26L19 26L19 25L18 25L18 24L19 24L19 23L20 23L20 22L19 22L19 23L18 23L18 21L20 21L20 20L21 20L21 22L23 22L23 21L22 21L22 19L23 19L23 18L21 18L21 17L20 17L20 18L21 18L21 19L20 19L20 20L19 20L19 19L17 19L17 18L19 18L19 17L16 17L16 15L15 15L15 14L14 14L14 12L16 12L16 11L12 11L12 12L11 12L11 15L10 15L10 14L9 14L9 13L8 13L8 12L7 12L7 11ZM5 12L5 13L7 13L7 12ZM28 12L28 13L27 13L27 14L28 14L28 15L29 15L29 12ZM30 12L30 15L31 15L31 16L32 16L32 15L31 15L31 12ZM0 13L0 15L1 15L1 13ZM12 13L12 14L13 14L13 13ZM24 13L24 14L23 14L23 15L24 15L24 14L25 14L25 13ZM6 15L6 16L5 16L5 17L6 17L6 18L5 18L5 20L7 20L7 19L6 19L6 18L7 18L7 17L6 17L6 16L7 16L7 15ZM12 15L12 17L14 17L14 18L15 18L15 19L14 19L14 20L13 20L13 21L12 21L12 22L13 22L13 21L14 21L14 20L15 20L15 23L14 23L14 26L15 26L15 27L14 27L14 28L15 28L15 27L16 27L16 28L17 28L17 29L18 29L18 28L17 28L17 24L15 24L15 23L17 23L17 21L18 21L18 20L15 20L15 19L16 19L16 17L14 17L14 16L15 16L15 15L14 15L14 16L13 16L13 15ZM12 18L12 19L13 19L13 18ZM9 19L9 20L10 20L10 19ZM3 20L3 21L2 21L2 22L1 22L1 24L2 24L2 22L3 22L3 24L4 24L4 22L3 22L3 21L4 21L4 20ZM30 20L30 21L29 21L29 22L30 22L30 21L31 21L31 20ZM6 22L6 23L7 23L7 22ZM25 25L25 28L28 28L28 25ZM31 25L31 26L32 26L32 25ZM18 26L18 27L19 27L19 26ZM26 26L26 27L27 27L27 26ZM32 30L32 31L33 31L33 30ZM30 31L30 32L31 32L31 33L32 33L32 32L31 32L31 31ZM0 0L0 7L7 7L7 0ZM1 1L1 6L6 6L6 1ZM2 2L2 5L5 5L5 2ZM26 0L26 7L33 7L33 0ZM27 1L27 6L32 6L32 1ZM28 2L28 5L31 5L31 2ZM0 26L0 33L7 33L7 26ZM1 27L1 32L6 32L6 27ZM2 28L2 31L5 31L5 28Z" fill="#000000"/></g></g></svg>
