<?xml version="1.0" encoding="UTF-8"?>
<svg xmlns="http://www.w3.org/2000/svg" version="1.1" width="600" height="600" viewBox="0 0 600 600"><rect x="0" y="0" width="600" height="600" fill="#ffffff"/><g transform="scale(17.143)"><g transform="translate(1,1)"><path fill-rule="evenodd" d="M10 0L10 2L9 2L9 3L8 3L8 5L12 5L12 8L13 8L13 9L11 9L11 10L13 10L13 11L14 11L14 10L13 10L13 9L14 9L14 8L15 8L15 12L14 12L14 15L15 15L15 16L13 16L13 17L11 17L11 20L13 20L13 21L11 21L11 22L12 22L12 24L11 24L11 25L10 25L10 23L9 23L9 22L8 22L8 21L10 21L10 20L9 20L9 17L10 17L10 16L12 16L12 15L13 15L13 12L12 12L12 13L11 13L11 11L10 11L10 12L9 12L9 11L8 11L8 8L5 8L5 9L4 9L4 10L2 10L2 8L0 8L0 9L1 9L1 10L2 10L2 11L0 11L0 12L1 12L1 15L0 15L0 18L3 18L3 19L4 19L4 21L3 21L3 20L2 20L2 19L1 19L1 20L0 20L0 25L4 25L4 23L5 23L5 24L6 24L6 25L8 25L8 28L9 28L9 29L10 29L10 26L12 26L12 27L11 27L11 28L13 28L13 29L11 29L11 30L9 30L9 31L8 31L8 33L10 33L10 32L11 32L11 33L12 33L12 32L11 32L11 31L12 31L12 30L13 30L13 31L14 31L14 30L13 30L13 29L15 29L15 31L16 31L16 30L17 30L17 31L18 31L18 32L16 32L16 33L21 33L21 32L19 32L19 31L20 31L20 29L21 29L21 26L20 26L20 25L19 25L19 22L21 22L21 23L22 23L22 27L24 27L24 30L23 30L23 29L22 29L22 32L24 32L24 33L25 33L25 32L24 32L24 31L25 31L25 29L27 29L27 31L28 31L28 33L29 33L29 30L31 30L31 29L33 29L33 28L31 28L31 27L32 27L32 26L33 26L33 25L32 25L32 24L31 24L31 23L32 23L32 20L31 20L31 19L30 19L30 20L29 20L29 19L28 19L28 18L27 18L27 17L25 17L25 19L26 19L26 18L27 18L27 21L28 21L28 22L27 22L27 23L28 23L28 22L29 22L29 23L30 23L30 24L31 24L31 25L30 25L30 26L31 26L31 27L30 27L30 28L29 28L29 24L24 24L24 23L23 23L23 22L24 22L24 21L25 21L25 22L26 22L26 21L25 21L25 20L24 20L24 21L23 21L23 22L22 22L22 21L21 21L21 19L22 19L22 18L23 18L23 19L24 19L24 17L23 17L23 16L24 16L24 15L25 15L25 14L26 14L26 15L28 15L28 17L29 17L29 18L30 18L30 17L29 17L29 15L30 15L30 16L31 16L31 18L32 18L32 19L33 19L33 17L32 17L32 16L33 16L33 15L32 15L32 14L33 14L33 12L31 12L31 11L30 11L30 12L29 12L29 9L30 9L30 8L28 8L28 10L27 10L27 12L26 12L26 11L25 11L25 12L22 12L22 13L21 13L21 14L20 14L20 12L21 12L21 11L22 11L22 9L21 9L21 8L20 8L20 7L21 7L21 6L22 6L22 8L23 8L23 10L24 10L24 9L25 9L25 10L26 10L26 9L25 9L25 8L24 8L24 7L25 7L25 5L24 5L24 4L23 4L23 2L22 2L22 0L20 0L20 1L21 1L21 4L23 4L23 5L20 5L20 4L19 4L19 2L18 2L18 3L16 3L16 7L15 7L15 3L13 3L13 4L11 4L11 3L12 3L12 2L13 2L13 1L14 1L14 2L15 2L15 1L14 1L14 0L12 0L12 2L11 2L11 0ZM16 0L16 2L17 2L17 1L18 1L18 0ZM24 1L24 2L25 2L25 1ZM13 4L13 5L14 5L14 4ZM17 4L17 7L16 7L16 10L17 10L17 12L16 12L16 14L19 14L19 15L20 15L20 14L19 14L19 13L18 13L18 12L19 12L19 11L20 11L20 10L19 10L19 11L18 11L18 9L20 9L20 8L18 8L18 6L19 6L19 7L20 7L20 5L19 5L19 4ZM23 5L23 7L24 7L24 5ZM8 6L8 7L9 7L9 6ZM10 6L10 8L11 8L11 6ZM13 6L13 8L14 8L14 6ZM17 8L17 9L18 9L18 8ZM6 9L6 10L5 10L5 11L6 11L6 12L7 12L7 13L6 13L6 14L4 14L4 15L3 15L3 14L2 14L2 15L3 15L3 16L4 16L4 17L3 17L3 18L4 18L4 19L5 19L5 20L8 20L8 19L6 19L6 18L7 18L7 17L9 17L9 16L10 16L10 15L12 15L12 14L11 14L11 13L10 13L10 15L9 15L9 14L8 14L8 15L6 15L6 14L7 14L7 13L9 13L9 12L8 12L8 11L6 11L6 10L7 10L7 9ZM31 9L31 10L32 10L32 9ZM3 11L3 12L2 12L2 13L4 13L4 11ZM28 12L28 13L27 13L27 14L28 14L28 15L29 15L29 12ZM30 12L30 15L31 15L31 16L32 16L32 15L31 15L31 12ZM24 13L24 14L23 14L23 15L22 15L22 14L21 14L21 17L20 17L20 16L19 16L19 17L16 17L16 18L18 18L18 19L15 19L15 21L16 21L16 20L18 20L18 21L17 21L17 22L16 22L16 23L15 23L15 22L14 22L14 21L13 21L13 24L12 24L12 25L13 25L13 26L15 26L15 25L16 25L16 26L19 26L19 29L17 29L17 28L18 28L18 27L15 27L15 28L16 28L16 29L17 29L17 30L18 30L18 31L19 31L19 29L20 29L20 26L19 26L19 25L18 25L18 23L17 23L17 22L18 22L18 21L20 21L20 20L19 20L19 17L20 17L20 19L21 19L21 18L22 18L22 16L23 16L23 15L24 15L24 14L25 14L25 13ZM4 15L4 16L5 16L5 15ZM17 15L17 16L18 16L18 15ZM6 16L6 17L4 17L4 18L6 18L6 17L7 17L7 16ZM13 17L13 18L15 18L15 17ZM13 19L13 20L14 20L14 19ZM1 20L1 21L2 21L2 20ZM30 20L30 21L29 21L29 22L30 22L30 21L31 21L31 20ZM6 21L6 22L7 22L7 23L6 23L6 24L7 24L7 23L8 23L8 24L9 24L9 23L8 23L8 22L7 22L7 21ZM1 22L1 24L2 24L2 22ZM3 22L3 23L4 23L4 22ZM14 23L14 25L15 25L15 23ZM23 24L23 26L24 26L24 24ZM9 25L9 26L10 26L10 25ZM25 25L25 28L28 28L28 25ZM31 25L31 26L32 26L32 25ZM26 26L26 27L27 27L27 26ZM13 27L13 28L14 28L14 27ZM30 28L30 29L31 29L31 28ZM32 30L32 31L33 31L33 30ZM9 31L9 32L10 32L10 31ZM30 31L30 32L31 32L31 33L32 33L32 32L31 32L31 31ZM13 32L13 33L14 33L14 32ZM0 0L0 7L7 7L7 0ZM1 1L1 6L6 6L6 1ZM2 2L2 5L5 5L5 2ZM26 0L26 7L33 7L33 0ZM27 1L27 6L32 6L32 1ZM28 2L28 5L31 5L31 2ZM0 26L0 33L7 33L7 26ZM1 27L1 32L6 32L6 27ZM2 28L2 31L5 31L5 28Z" fill="#000000"/></g></g></svg>
