<?xml version="1.0" encoding="UTF-8"?>
<svg xmlns="http://www.w3.org/2000/svg" version="1.1" width="600" height="600" viewBox="0 0 600 600"><rect x="0" y="0" width="600" height="600" fill="#ffffff"/><g transform="scale(15.385)"><g transform="translate(1,1)"><path fill-rule="evenodd" d="M8 0L8 1L9 1L9 2L10 2L10 3L11 3L11 1L13 1L13 0L11 0L11 1L9 1L9 0ZM15 0L15 1L16 1L16 2L15 2L15 3L16 3L16 4L14 4L14 5L15 5L15 6L14 6L14 7L13 7L13 5L12 5L12 4L13 4L13 2L12 2L12 4L11 4L11 5L10 5L10 4L9 4L9 5L10 5L10 8L9 8L9 6L8 6L8 8L9 8L9 9L8 9L8 11L7 11L7 10L6 10L6 9L7 9L7 8L6 8L6 9L5 9L5 8L3 8L3 9L5 9L5 12L3 12L3 10L2 10L2 11L1 11L1 9L2 9L2 8L0 8L0 15L3 15L3 14L1 14L1 12L3 12L3 13L4 13L4 14L5 14L5 15L7 15L7 16L6 16L6 17L10 17L10 18L11 18L11 19L10 19L10 20L9 20L9 18L8 18L8 20L9 20L9 21L8 21L8 22L5 22L5 21L7 21L7 20L5 20L5 19L3 19L3 18L4 18L4 17L5 17L5 16L3 16L3 17L2 17L2 16L1 16L1 17L2 17L2 18L1 18L1 19L0 19L0 20L1 20L1 21L0 21L0 22L1 22L1 24L0 24L0 29L1 29L1 27L2 27L2 28L3 28L3 29L5 29L5 27L4 27L4 25L5 25L5 24L6 24L6 25L7 25L7 26L6 26L6 27L7 27L7 26L11 26L11 23L10 23L10 22L11 22L11 19L12 19L12 21L14 21L14 24L13 24L13 25L12 25L12 26L13 26L13 25L15 25L15 24L16 24L16 25L17 25L17 26L14 26L14 27L12 27L12 28L9 28L9 27L8 27L8 28L6 28L6 29L8 29L8 30L9 30L9 29L10 29L10 30L12 30L12 31L10 31L10 32L11 32L11 33L12 33L12 34L11 34L11 35L8 35L8 37L10 37L10 36L11 36L11 37L14 37L14 31L18 31L18 32L17 32L17 33L16 33L16 32L15 32L15 35L17 35L17 36L16 36L16 37L17 37L17 36L18 36L18 37L20 37L20 36L21 36L21 35L22 35L22 34L21 34L21 31L22 31L22 33L23 33L23 36L22 36L22 37L24 37L24 35L26 35L26 37L27 37L27 34L29 34L29 35L30 35L30 34L31 34L31 35L33 35L33 36L32 36L32 37L34 37L34 36L36 36L36 37L37 37L37 30L36 30L36 28L37 28L37 26L36 26L36 25L37 25L37 22L36 22L36 21L37 21L37 18L36 18L36 20L35 20L35 22L36 22L36 23L33 23L33 22L34 22L34 19L35 19L35 18L34 18L34 17L37 17L37 14L36 14L36 11L37 11L37 10L34 10L34 9L32 9L32 10L31 10L31 11L33 11L33 10L34 10L34 12L33 12L33 13L32 13L32 12L30 12L30 11L29 11L29 6L28 6L28 7L27 7L27 5L26 5L26 7L25 7L25 4L26 4L26 3L27 3L27 4L28 4L28 3L29 3L29 2L24 2L24 3L25 3L25 4L24 4L24 5L22 5L22 2L23 2L23 1L22 1L22 0L21 0L21 1L19 1L19 0ZM24 0L24 1L25 1L25 0ZM28 0L28 1L29 1L29 0ZM17 1L17 3L18 3L18 2L19 2L19 4L17 4L17 5L18 5L18 6L17 6L17 8L15 8L15 7L16 7L16 6L15 6L15 7L14 7L14 13L15 13L15 14L14 14L14 15L12 15L12 16L11 16L11 15L10 15L10 12L11 12L11 10L12 10L12 11L13 11L13 10L12 10L12 9L13 9L13 7L12 7L12 5L11 5L11 7L12 7L12 9L9 9L9 10L10 10L10 11L9 11L9 14L8 14L8 12L7 12L7 11L6 11L6 12L5 12L5 13L6 13L6 14L7 14L7 15L10 15L10 16L11 16L11 17L14 17L14 16L15 16L15 18L12 18L12 19L13 19L13 20L14 20L14 19L15 19L15 20L18 20L18 18L19 18L19 17L20 17L20 16L21 16L21 19L20 19L20 22L19 22L19 21L15 21L15 23L16 23L16 24L17 24L17 25L18 25L18 24L17 24L17 23L19 23L19 26L17 26L17 29L18 29L18 30L19 30L19 29L20 29L20 30L21 30L21 29L22 29L22 30L24 30L24 29L25 29L25 28L27 28L27 26L25 26L25 25L27 25L27 24L29 24L29 25L30 25L30 26L31 26L31 28L32 28L32 25L33 25L33 28L34 28L34 27L35 27L35 28L36 28L36 27L35 27L35 25L36 25L36 24L33 24L33 23L32 23L32 22L31 22L31 21L30 21L30 22L31 22L31 23L27 23L27 24L26 24L26 23L25 23L25 22L27 22L27 21L28 21L28 22L29 22L29 21L28 21L28 20L27 20L27 18L26 18L26 17L25 17L25 16L29 16L29 17L28 17L28 18L29 18L29 19L30 19L30 18L31 18L31 20L33 20L33 16L32 16L32 15L31 15L31 16L32 16L32 18L31 18L31 17L30 17L30 15L25 15L25 16L24 16L24 14L25 14L25 13L27 13L27 12L26 12L26 11L27 11L27 9L28 9L28 8L25 8L25 7L24 7L24 6L23 6L23 8L22 8L22 5L19 5L19 4L20 4L20 2L19 2L19 1ZM18 6L18 7L19 7L19 6ZM20 6L20 7L21 7L21 6ZM17 8L17 9L16 9L16 10L15 10L15 11L16 11L16 12L15 12L15 13L16 13L16 15L15 15L15 16L16 16L16 18L15 18L15 19L16 19L16 18L18 18L18 17L19 17L19 15L22 15L22 16L23 16L23 15L22 15L22 14L18 14L18 17L17 17L17 16L16 16L16 15L17 15L17 12L18 12L18 13L21 13L21 12L20 12L20 11L21 11L21 10L20 10L20 8ZM24 8L24 9L22 9L22 10L23 10L23 11L22 11L22 12L23 12L23 14L24 14L24 13L25 13L25 12L24 12L24 11L25 11L25 10L26 10L26 9L25 9L25 8ZM30 8L30 9L31 9L31 8ZM36 8L36 9L37 9L37 8ZM17 9L17 11L18 11L18 10L19 10L19 11L20 11L20 10L19 10L19 9ZM24 9L24 10L25 10L25 9ZM6 12L6 13L7 13L7 12ZM28 12L28 13L30 13L30 14L32 14L32 13L30 13L30 12ZM34 12L34 13L35 13L35 12ZM11 13L11 14L13 14L13 13ZM33 14L33 15L35 15L35 16L36 16L36 14ZM24 17L24 18L22 18L22 20L23 20L23 19L24 19L24 20L26 20L26 19L25 19L25 17ZM29 17L29 18L30 18L30 17ZM6 18L6 19L7 19L7 18ZM4 20L4 21L2 21L2 22L3 22L3 24L1 24L1 25L2 25L2 27L3 27L3 24L4 24L4 23L5 23L5 22L4 22L4 21L5 21L5 20ZM22 21L22 22L20 22L20 23L24 23L24 24L22 24L22 27L23 27L23 29L24 29L24 27L25 27L25 26L24 26L24 25L25 25L25 23L24 23L24 22L25 22L25 21ZM8 22L8 23L9 23L9 22ZM12 22L12 23L13 23L13 22ZM6 23L6 24L7 24L7 25L10 25L10 24L7 24L7 23ZM30 24L30 25L31 25L31 24ZM20 25L20 26L19 26L19 28L18 28L18 29L19 29L19 28L21 28L21 25ZM23 26L23 27L24 27L24 26ZM15 27L15 28L13 28L13 29L12 29L12 30L15 30L15 29L16 29L16 27ZM28 27L28 28L30 28L30 27ZM29 29L29 32L32 32L32 29ZM34 29L34 30L33 30L33 31L34 31L34 33L32 33L32 34L33 34L33 35L36 35L36 34L35 34L35 33L36 33L36 30L35 30L35 29ZM27 30L27 31L26 31L26 32L25 32L25 31L24 31L24 32L23 32L23 33L25 33L25 34L26 34L26 32L27 32L27 31L28 31L28 30ZM30 30L30 31L31 31L31 30ZM34 30L34 31L35 31L35 30ZM12 31L12 33L13 33L13 31ZM8 32L8 34L10 34L10 33L9 33L9 32ZM17 33L17 35L19 35L19 36L20 36L20 35L21 35L21 34L19 34L19 33ZM29 33L29 34L30 34L30 33ZM12 34L12 35L13 35L13 34ZM28 36L28 37L29 37L29 36ZM0 0L0 7L7 7L7 0ZM1 1L1 6L6 6L6 1ZM2 2L2 5L5 5L5 2ZM30 0L30 7L37 7L37 0ZM31 1L31 6L36 6L36 1ZM32 2L32 5L35 5L35 2ZM0 30L0 37L7 37L7 30ZM1 31L1 36L6 36L6 31ZM2 32L2 35L5 35L5 32Z" fill="#000000"/></g></g></svg>
