<?xml version="1.0" encoding="UTF-8"?>
<svg xmlns="http://www.w3.org/2000/svg" version="1.1" width="600" height="600" viewBox="0 0 600 600"><rect x="0" y="0" width="600" height="600" fill="#ffffff"/><g transform="scale(17.143)"><g transform="translate(1,1)"><path fill-rule="evenodd" d="M8 0L8 1L10 1L10 0ZM16 0L16 1L17 1L17 0ZM19 0L19 1L20 1L20 0ZM21 0L21 2L18 2L18 3L17 3L17 4L16 4L16 3L14 3L14 1L13 1L13 2L11 2L11 4L10 4L10 3L9 3L9 2L8 2L8 5L9 5L9 6L8 6L8 7L9 7L9 8L8 8L8 9L7 9L7 8L6 8L6 9L5 9L5 10L4 10L4 8L0 8L0 13L1 13L1 14L2 14L2 15L0 15L0 16L1 16L1 17L0 17L0 20L1 20L1 19L2 19L2 21L3 21L3 20L4 20L4 19L7 19L7 18L6 18L6 17L7 17L7 16L6 16L6 15L9 15L9 14L6 14L6 15L4 15L4 14L3 14L3 13L8 13L8 12L9 12L9 13L10 13L10 14L12 14L12 16L11 16L11 15L10 15L10 16L11 16L11 17L10 17L10 18L11 18L11 19L12 19L12 20L11 20L11 21L10 21L10 22L9 22L9 21L8 21L8 20L10 20L10 19L8 19L8 20L5 20L5 22L6 22L6 23L5 23L5 24L4 24L4 25L8 25L8 26L10 26L10 25L11 25L11 27L10 27L10 29L8 29L8 33L10 33L10 32L12 32L12 31L11 31L11 30L10 30L10 29L11 29L11 28L12 28L12 29L13 29L13 28L12 28L12 26L13 26L13 27L14 27L14 29L15 29L15 30L13 30L13 33L15 33L15 31L16 31L16 30L17 30L17 33L18 33L18 30L19 30L19 29L20 29L20 28L19 28L19 29L18 29L18 30L17 30L17 28L16 28L16 27L14 27L14 26L16 26L16 25L18 25L18 26L19 26L19 27L21 27L21 29L22 29L22 30L21 30L21 31L19 31L19 33L23 33L23 29L25 29L25 30L24 30L24 32L25 32L25 33L26 33L26 32L27 32L27 33L28 33L28 32L30 32L30 33L31 33L31 32L30 32L30 29L31 29L31 31L32 31L32 32L33 32L33 31L32 31L32 29L33 29L33 27L32 27L32 29L31 29L31 26L30 26L30 24L29 24L29 23L28 23L28 24L26 24L26 23L27 23L27 22L28 22L28 21L26 21L26 20L29 20L29 21L30 21L30 22L31 22L31 24L32 24L32 25L33 25L33 24L32 24L32 23L33 23L33 21L31 21L31 20L30 20L30 18L31 18L31 19L32 19L32 20L33 20L33 19L32 19L32 18L33 18L33 16L31 16L31 14L32 14L32 13L30 13L30 14L28 14L28 15L27 15L27 14L26 14L26 13L25 13L25 10L26 10L26 11L27 11L27 13L29 13L29 12L28 12L28 11L31 11L31 12L32 12L32 11L33 11L33 8L32 8L32 9L31 9L31 8L28 8L28 9L26 9L26 8L25 8L25 6L24 6L24 8L23 8L23 6L22 6L22 4L21 4L21 5L20 5L20 4L19 4L19 3L21 3L21 2L22 2L22 1L23 1L23 2L24 2L24 3L25 3L25 2L24 2L24 0ZM12 3L12 5L10 5L10 6L9 6L9 7L10 7L10 8L9 8L9 9L8 9L8 10L9 10L9 12L10 12L10 13L11 13L11 11L16 11L16 12L19 12L19 13L20 13L20 12L21 12L21 14L20 14L20 15L21 15L21 14L22 14L22 13L23 13L23 15L24 15L24 16L25 16L25 18L23 18L23 16L22 16L22 18L21 18L21 20L22 20L22 21L24 21L24 22L25 22L25 23L26 23L26 22L25 22L25 20L26 20L26 15L25 15L25 14L24 14L24 11L23 11L23 10L22 10L22 9L21 9L21 8L22 8L22 6L21 6L21 8L20 8L20 6L19 6L19 5L18 5L18 4L17 4L17 5L15 5L15 7L16 7L16 6L17 6L17 7L18 7L18 9L17 9L17 8L15 8L15 9L14 9L14 4L13 4L13 3ZM24 4L24 5L25 5L25 4ZM12 5L12 7L11 7L11 6L10 6L10 7L11 7L11 8L12 8L12 7L13 7L13 5ZM18 6L18 7L19 7L19 6ZM19 8L19 10L21 10L21 9L20 9L20 8ZM24 8L24 10L25 10L25 8ZM2 9L2 10L1 10L1 11L2 11L2 10L3 10L3 9ZM6 9L6 10L5 10L5 11L6 11L6 12L7 12L7 11L6 11L6 10L7 10L7 9ZM9 9L9 10L10 10L10 9ZM28 9L28 10L27 10L27 11L28 11L28 10L31 10L31 11L32 11L32 10L31 10L31 9ZM19 11L19 12L20 12L20 11ZM1 12L1 13L2 13L2 12ZM12 12L12 14L14 14L14 15L13 15L13 16L12 16L12 17L11 17L11 18L12 18L12 17L13 17L13 16L14 16L14 18L13 18L13 22L14 22L14 24L15 24L15 25L16 25L16 23L17 23L17 24L18 24L18 22L19 22L19 23L20 23L20 24L19 24L19 25L20 25L20 26L21 26L21 27L23 27L23 28L24 28L24 27L23 27L23 26L21 26L21 25L23 25L23 24L22 24L22 22L21 22L21 21L20 21L20 22L19 22L19 20L20 20L20 16L19 16L19 14L17 14L17 13L16 13L16 14L14 14L14 13L13 13L13 12ZM16 14L16 15L17 15L17 14ZM14 15L14 16L15 16L15 15ZM28 15L28 16L30 16L30 15ZM4 16L4 17L2 17L2 19L4 19L4 17L6 17L6 16ZM16 16L16 17L15 17L15 18L14 18L14 20L15 20L15 19L16 19L16 20L17 20L17 21L18 21L18 20L19 20L19 17L18 17L18 19L16 19L16 18L17 18L17 16ZM8 17L8 18L9 18L9 17ZM27 17L27 18L28 18L28 17ZM31 17L31 18L32 18L32 17ZM22 18L22 20L25 20L25 19L23 19L23 18ZM0 21L0 22L1 22L1 21ZM6 21L6 22L7 22L7 21ZM11 21L11 22L12 22L12 21ZM14 21L14 22L15 22L15 21ZM2 22L2 23L1 23L1 24L0 24L0 25L1 25L1 24L2 24L2 23L4 23L4 22ZM8 22L8 23L9 23L9 24L8 24L8 25L10 25L10 24L11 24L11 25L12 25L12 24L13 24L13 23L9 23L9 22ZM6 23L6 24L7 24L7 23ZM13 25L13 26L14 26L14 25ZM25 25L25 28L28 28L28 25ZM26 26L26 27L27 27L27 26ZM29 26L29 29L28 29L28 31L27 31L27 32L28 32L28 31L29 31L29 29L30 29L30 26ZM26 29L26 30L27 30L27 29ZM9 30L9 32L10 32L10 30ZM21 31L21 32L22 32L22 31ZM25 31L25 32L26 32L26 31ZM0 0L0 7L7 7L7 0ZM1 1L1 6L6 6L6 1ZM2 2L2 5L5 5L5 2ZM26 0L26 7L33 7L33 0ZM27 1L27 6L32 6L32 1ZM28 2L28 5L31 5L31 2ZM0 26L0 33L7 33L7 26ZM1 27L1 32L6 32L6 27ZM2 28L2 31L5 31L5 28Z" fill="#000000"/></g></g></svg>
