<?xml version="1.0" encoding="UTF-8"?>
<svg xmlns="http://www.w3.org/2000/svg" version="1.1" width="600" height="600" viewBox="0 0 600 600"><rect x="0" y="0" width="600" height="600" fill="#ffffff"/><g transform="scale(15.385)"><g transform="translate(1,1)"><path fill-rule="evenodd" d="M10 0L10 2L11 2L11 0ZM12 0L12 1L13 1L13 2L12 2L12 4L13 4L13 3L14 3L14 4L15 4L15 5L18 5L18 4L19 4L19 5L20 5L20 7L19 7L19 6L18 6L18 7L19 7L19 8L17 8L17 6L16 6L16 9L12 9L12 7L13 7L13 5L11 5L11 6L10 6L10 4L11 4L11 3L8 3L8 4L9 4L9 5L8 5L8 7L9 7L9 8L6 8L6 9L7 9L7 10L3 10L3 9L5 9L5 8L0 8L0 10L1 10L1 9L2 9L2 10L3 10L3 11L2 11L2 12L0 12L0 13L1 13L1 15L2 15L2 13L3 13L3 14L4 14L4 13L3 13L3 12L6 12L6 13L5 13L5 16L4 16L4 17L5 17L5 16L6 16L6 17L8 17L8 18L10 18L10 21L11 21L11 18L10 18L10 14L8 14L8 15L7 15L7 14L6 14L6 13L8 13L8 12L9 12L9 13L10 13L10 12L11 12L11 9L12 9L12 10L13 10L13 11L12 11L12 13L13 13L13 12L14 12L14 13L15 13L15 14L17 14L17 13L19 13L19 14L18 14L18 16L17 16L17 15L16 15L16 17L12 17L12 15L13 15L13 14L11 14L11 17L12 17L12 18L13 18L13 19L12 19L12 21L13 21L13 20L14 20L14 21L15 21L15 22L17 22L17 23L16 23L16 24L17 24L17 26L16 26L16 25L12 25L12 23L13 23L13 22L11 22L11 25L12 25L12 26L13 26L13 27L12 27L12 29L13 29L13 28L14 28L14 29L19 29L19 30L18 30L18 32L16 32L16 31L17 31L17 30L15 30L15 31L14 31L14 32L15 32L15 33L12 33L12 31L13 31L13 30L11 30L11 28L10 28L10 27L11 27L11 26L10 26L10 25L9 25L9 24L10 24L10 22L9 22L9 24L8 24L8 20L9 20L9 19L8 19L8 20L6 20L6 21L4 21L4 18L2 18L2 17L3 17L3 16L1 16L1 17L0 17L0 20L1 20L1 21L0 21L0 22L1 22L1 23L0 23L0 24L1 24L1 25L0 25L0 29L1 29L1 25L3 25L3 24L4 24L4 26L3 26L3 27L2 27L2 29L4 29L4 27L7 27L7 28L5 28L5 29L8 29L8 31L11 31L11 33L10 33L10 32L8 32L8 37L9 37L9 33L10 33L10 36L11 36L11 33L12 33L12 34L13 34L13 35L12 35L12 37L13 37L13 36L14 36L14 37L15 37L15 36L17 36L17 37L21 37L21 36L22 36L22 35L21 35L21 36L19 36L19 35L18 35L18 34L15 34L15 33L19 33L19 34L20 34L20 33L21 33L21 34L22 34L22 33L23 33L23 34L24 34L24 35L23 35L23 36L24 36L24 37L27 37L27 36L29 36L29 37L30 37L30 35L27 35L27 33L30 33L30 34L31 34L31 35L32 35L32 34L35 34L35 35L36 35L36 36L33 36L33 37L37 37L37 30L35 30L35 28L34 28L34 27L36 27L36 28L37 28L37 26L36 26L36 25L37 25L37 22L36 22L36 21L37 21L37 18L36 18L36 17L37 17L37 14L36 14L36 13L35 13L35 12L34 12L34 11L35 11L35 9L36 9L36 8L35 8L35 9L34 9L34 8L33 8L33 9L34 9L34 11L33 11L33 12L32 12L32 13L31 13L31 12L27 12L27 11L30 11L30 10L27 10L27 9L26 9L26 8L24 8L24 9L22 9L22 10L20 10L20 9L21 9L21 8L22 8L22 7L23 7L23 5L24 5L24 7L25 7L25 5L24 5L24 4L26 4L26 7L27 7L27 6L28 6L28 8L29 8L29 9L30 9L30 8L29 8L29 5L27 5L27 4L29 4L29 3L28 3L28 2L29 2L29 1L27 1L27 0L25 0L25 1L24 1L24 0L23 0L23 1L22 1L22 0L18 0L18 1L22 1L22 2L18 2L18 3L17 3L17 4L16 4L16 2L17 2L17 1L16 1L16 0ZM8 1L8 2L9 2L9 1ZM23 1L23 2L22 2L22 3L19 3L19 4L20 4L20 5L21 5L21 4L24 4L24 3L23 3L23 2L24 2L24 1ZM14 2L14 3L15 3L15 2ZM25 2L25 3L26 3L26 2ZM9 6L9 7L10 7L10 6ZM11 6L11 7L12 7L12 6ZM14 6L14 8L15 8L15 6ZM21 6L21 7L22 7L22 6ZM10 8L10 9L9 9L9 10L10 10L10 9L11 9L11 8ZM19 8L19 9L16 9L16 10L19 10L19 11L20 11L20 12L19 12L19 13L20 13L20 14L19 14L19 15L21 15L21 14L22 14L22 15L24 15L24 14L26 14L26 13L27 13L27 14L28 14L28 15L29 15L29 16L30 16L30 15L29 15L29 14L28 14L28 13L27 13L27 12L26 12L26 10L25 10L25 9L24 9L24 10L22 10L22 12L21 12L21 11L20 11L20 10L19 10L19 9L20 9L20 8ZM31 8L31 9L32 9L32 8ZM7 10L7 11L6 11L6 12L8 12L8 10ZM24 10L24 11L25 11L25 10ZM31 10L31 11L32 11L32 10ZM36 10L36 11L37 11L37 10ZM14 11L14 12L15 12L15 11ZM16 11L16 13L17 13L17 12L18 12L18 11ZM20 12L20 13L21 13L21 12ZM24 12L24 13L22 13L22 14L24 14L24 13L26 13L26 12ZM30 13L30 14L31 14L31 16L35 16L35 17L36 17L36 14L35 14L35 15L34 15L34 13L32 13L32 14L31 14L31 13ZM32 14L32 15L33 15L33 14ZM6 15L6 16L7 16L7 15ZM14 15L14 16L15 16L15 15ZM25 15L25 16L26 16L26 17L24 17L24 16L19 16L19 17L16 17L16 18L19 18L19 19L20 19L20 20L19 20L19 21L17 21L17 20L18 20L18 19L16 19L16 21L17 21L17 22L18 22L18 23L17 23L17 24L18 24L18 23L19 23L19 25L20 25L20 26L17 26L17 27L16 27L16 28L19 28L19 29L22 29L22 30L23 30L23 33L24 33L24 34L25 34L25 35L24 35L24 36L26 36L26 33L27 33L27 32L28 32L28 29L27 29L27 28L28 28L28 27L29 27L29 28L30 28L30 27L29 27L29 26L28 26L28 25L29 25L29 24L28 24L28 25L27 25L27 24L26 24L26 22L28 22L28 21L29 21L29 20L28 20L28 19L29 19L29 18L31 18L31 17L29 17L29 18L28 18L28 17L27 17L27 15ZM19 17L19 18L21 18L21 20L22 20L22 21L19 21L19 22L22 22L22 21L23 21L23 22L24 22L24 21L27 21L27 20L24 20L24 21L23 21L23 20L22 20L22 18L24 18L24 19L26 19L26 18L27 18L27 19L28 19L28 18L27 18L27 17L26 17L26 18L24 18L24 17ZM32 17L32 18L34 18L34 19L33 19L33 20L36 20L36 19L35 19L35 18L34 18L34 17ZM1 18L1 19L2 19L2 18ZM5 18L5 19L7 19L7 18ZM14 19L14 20L15 20L15 19ZM2 20L2 21L1 21L1 22L2 22L2 21L3 21L3 20ZM31 20L31 21L30 21L30 22L29 22L29 23L30 23L30 24L33 24L33 25L32 25L32 26L33 26L33 27L31 27L31 28L33 28L33 27L34 27L34 26L35 26L35 25L34 25L34 24L36 24L36 23L35 23L35 22L34 22L34 21L32 21L32 20ZM6 21L6 22L4 22L4 24L5 24L5 26L7 26L7 27L8 27L8 28L9 28L9 26L8 26L8 24L7 24L7 23L6 23L6 22L7 22L7 21ZM31 21L31 22L30 22L30 23L31 23L31 22L32 22L32 21ZM14 23L14 24L15 24L15 23ZM21 23L21 24L20 24L20 25L21 25L21 26L20 26L20 27L21 27L21 28L22 28L22 29L23 29L23 30L24 30L24 29L26 29L26 30L27 30L27 29L26 29L26 28L27 28L27 27L28 27L28 26L27 26L27 25L26 25L26 24L25 24L25 23ZM6 24L6 25L7 25L7 24ZM21 24L21 25L22 25L22 26L23 26L23 27L22 27L22 28L23 28L23 29L24 29L24 27L25 27L25 28L26 28L26 27L27 27L27 26L23 26L23 25L25 25L25 24L23 24L23 25L22 25L22 24ZM30 25L30 26L31 26L31 25ZM33 25L33 26L34 26L34 25ZM14 27L14 28L15 28L15 27ZM29 29L29 32L32 32L32 29ZM33 29L33 32L35 32L35 33L36 33L36 31L35 31L35 30L34 30L34 29ZM19 30L19 33L20 33L20 32L21 32L21 33L22 33L22 32L21 32L21 30ZM30 30L30 31L31 31L31 30ZM24 31L24 33L26 33L26 32L27 32L27 31L26 31L26 32L25 32L25 31ZM14 35L14 36L15 36L15 35ZM17 35L17 36L18 36L18 35ZM31 36L31 37L32 37L32 36ZM0 0L0 7L7 7L7 0ZM1 1L1 6L6 6L6 1ZM2 2L2 5L5 5L5 2ZM30 0L30 7L37 7L37 0ZM31 1L31 6L36 6L36 1ZM32 2L32 5L35 5L35 2ZM0 30L0 37L7 37L7 30ZM1 31L1 36L6 36L6 31ZM2 32L2 35L5 35L5 32Z" fill="#000000"/></g></g></svg>
