<?xml version="1.0" encoding="UTF-8"?>
<svg xmlns="http://www.w3.org/2000/svg" version="1.1" width="600" height="600" viewBox="0 0 600 600"><rect x="0" y="0" width="600" height="600" fill="#ffffff"/><g transform="scale(17.143)"><g transform="translate(1,1)"><path fill-rule="evenodd" d="M9 0L9 1L8 1L8 2L9 2L9 3L8 3L8 4L10 4L10 7L11 7L11 4L12 4L12 5L15 5L15 6L14 6L14 7L15 7L15 6L16 6L16 7L17 7L17 6L18 6L18 8L15 8L15 9L14 9L14 8L13 8L13 6L12 6L12 9L14 9L14 10L11 10L11 11L10 11L10 9L11 9L11 8L6 8L6 9L5 9L5 8L0 8L0 15L1 15L1 14L2 14L2 15L3 15L3 14L4 14L4 17L5 17L5 18L6 18L6 19L7 19L7 20L5 20L5 19L4 19L4 18L2 18L2 17L3 17L3 16L0 16L0 18L1 18L1 19L0 19L0 20L1 20L1 19L4 19L4 22L5 22L5 23L2 23L2 24L5 24L5 25L7 25L7 24L8 24L8 27L9 27L9 28L8 28L8 33L9 33L9 32L10 32L10 33L11 33L11 32L10 32L10 31L11 31L11 29L12 29L12 30L13 30L13 31L12 31L12 33L13 33L13 32L14 32L14 33L16 33L16 32L17 32L17 33L18 33L18 32L19 32L19 30L20 30L20 31L21 31L21 32L22 32L22 33L23 33L23 32L24 32L24 33L25 33L25 32L24 32L24 31L27 31L27 32L28 32L28 33L29 33L29 31L30 31L30 32L31 32L31 33L32 33L32 32L31 32L31 31L32 31L32 30L31 30L31 29L30 29L30 28L31 28L31 27L32 27L32 28L33 28L33 27L32 27L32 26L33 26L33 24L32 24L32 26L31 26L31 25L30 25L30 24L31 24L31 23L32 23L32 22L33 22L33 21L32 21L32 20L31 20L31 19L32 19L32 18L33 18L33 17L32 17L32 16L31 16L31 15L32 15L32 14L33 14L33 13L31 13L31 15L30 15L30 13L29 13L29 10L28 10L28 8L27 8L27 9L26 9L26 8L24 8L24 7L25 7L25 5L24 5L24 4L23 4L23 5L22 5L22 7L21 7L21 6L20 6L20 8L23 8L23 9L18 9L18 8L19 8L19 5L20 5L20 4L21 4L21 3L23 3L23 2L20 2L20 4L19 4L19 3L16 3L16 2L17 2L17 1L18 1L18 2L19 2L19 1L20 1L20 0L19 0L19 1L18 1L18 0L16 0L16 1L15 1L15 2L14 2L14 1L11 1L11 2L10 2L10 0ZM21 0L21 1L24 1L24 2L25 2L25 1L24 1L24 0ZM12 2L12 4L13 4L13 3L14 3L14 4L15 4L15 5L19 5L19 4L15 4L15 3L14 3L14 2ZM10 3L10 4L11 4L11 3ZM8 5L8 7L9 7L9 5ZM23 5L23 7L24 7L24 5ZM29 8L29 9L30 9L30 8ZM31 8L31 10L33 10L33 9L32 9L32 8ZM1 9L1 10L5 10L5 11L4 11L4 12L5 12L5 13L4 13L4 14L5 14L5 15L6 15L6 16L5 16L5 17L6 17L6 18L7 18L7 17L6 17L6 16L7 16L7 15L6 15L6 14L7 14L7 13L6 13L6 12L7 12L7 11L6 11L6 10L7 10L7 9L6 9L6 10L5 10L5 9ZM8 9L8 11L9 11L9 9ZM15 9L15 10L16 10L16 12L19 12L19 13L15 13L15 11L12 11L12 13L11 13L11 12L10 12L10 13L8 13L8 14L9 14L9 16L8 16L8 18L9 18L9 20L7 20L7 21L5 21L5 22L7 22L7 23L6 23L6 24L7 24L7 23L8 23L8 24L9 24L9 27L10 27L10 26L14 26L14 25L15 25L15 26L17 26L17 28L19 28L19 29L18 29L18 30L17 30L17 29L15 29L15 28L14 28L14 27L12 27L12 29L14 29L14 30L16 30L16 31L17 31L17 32L18 32L18 30L19 30L19 29L23 29L23 31L24 31L24 27L23 27L23 28L21 28L21 27L20 27L20 26L18 26L18 25L21 25L21 26L22 26L22 25L23 25L23 26L24 26L24 25L23 25L23 23L24 23L24 24L27 24L27 22L25 22L25 21L27 21L27 20L28 20L28 19L26 19L26 18L25 18L25 17L28 17L28 18L29 18L29 17L30 17L30 19L29 19L29 20L30 20L30 21L28 21L28 24L30 24L30 23L29 23L29 22L30 22L30 21L31 21L31 20L30 20L30 19L31 19L31 16L30 16L30 15L29 15L29 13L28 13L28 16L26 16L26 14L25 14L25 13L27 13L27 12L28 12L28 11L27 11L27 10L25 10L25 9L24 9L24 10L23 10L23 11L22 11L22 10L21 10L21 11L20 11L20 10L19 10L19 11L17 11L17 10L18 10L18 9ZM2 11L2 12L1 12L1 13L2 13L2 12L3 12L3 11ZM5 11L5 12L6 12L6 11ZM19 11L19 12L20 12L20 11ZM21 11L21 12L22 12L22 11ZM25 11L25 12L24 12L24 13L19 13L19 14L18 14L18 16L17 16L17 14L15 14L15 13L14 13L14 12L13 12L13 13L12 13L12 14L13 14L13 13L14 13L14 14L15 14L15 15L14 15L14 16L13 16L13 15L12 15L12 17L14 17L14 18L11 18L11 17L9 17L9 18L11 18L11 19L10 19L10 20L9 20L9 21L10 21L10 20L11 20L11 21L12 21L12 22L13 22L13 23L12 23L12 25L14 25L14 24L13 24L13 23L14 23L14 22L13 22L13 21L16 21L16 22L15 22L15 24L16 24L16 25L18 25L18 24L22 24L22 23L23 23L23 22L24 22L24 21L25 21L25 20L24 20L24 21L23 21L23 18L24 18L24 17L22 17L22 19L21 19L21 18L20 18L20 17L21 17L21 16L24 16L24 15L25 15L25 14L24 14L24 13L25 13L25 12L26 12L26 11ZM30 11L30 12L31 12L31 11ZM10 13L10 16L11 16L11 13ZM19 14L19 17L18 17L18 18L17 18L17 17L15 17L15 16L16 16L16 15L15 15L15 16L14 16L14 17L15 17L15 18L17 18L17 20L16 20L16 21L17 21L17 22L16 22L16 24L18 24L18 23L21 23L21 21L22 21L22 20L21 20L21 19L20 19L20 18L19 18L19 17L20 17L20 14ZM22 14L22 15L24 15L24 14ZM28 16L28 17L29 17L29 16ZM18 18L18 19L19 19L19 18ZM12 19L12 21L13 21L13 20L15 20L15 19ZM17 20L17 21L19 21L19 22L20 22L20 21L21 21L21 20L20 20L20 21L19 21L19 20ZM0 21L0 25L1 25L1 22L2 22L2 21ZM7 21L7 22L8 22L8 21ZM9 22L9 24L10 24L10 23L11 23L11 22ZM25 25L25 28L28 28L28 25ZM29 25L29 28L30 28L30 27L31 27L31 26L30 26L30 25ZM26 26L26 27L27 27L27 26ZM10 28L10 29L9 29L9 30L10 30L10 29L11 29L11 28ZM25 29L25 30L28 30L28 31L29 31L29 30L28 30L28 29ZM21 30L21 31L22 31L22 30ZM30 30L30 31L31 31L31 30ZM14 31L14 32L15 32L15 31ZM0 0L0 7L7 7L7 0ZM1 1L1 6L6 6L6 1ZM2 2L2 5L5 5L5 2ZM26 0L26 7L33 7L33 0ZM27 1L27 6L32 6L32 1ZM28 2L28 5L31 5L31 2ZM0 26L0 33L7 33L7 26ZM1 27L1 32L6 32L6 27ZM2 28L2 31L5 31L5 28Z" fill="#000000"/></g></g></svg>
