<?xml version="1.0" encoding="UTF-8"?>
<svg xmlns="http://www.w3.org/2000/svg" version="1.1" width="600" height="600" viewBox="0 0 600 600"><rect x="0" y="0" width="600" height="600" fill="#ffffff"/><g transform="scale(17.143)"><g transform="translate(1,1)"><path fill-rule="evenodd" d="M10 0L10 2L11 2L11 0ZM12 0L12 1L13 1L13 0ZM14 0L14 1L15 1L15 2L14 2L14 3L13 3L13 2L12 2L12 4L14 4L14 3L15 3L15 4L19 4L19 5L20 5L20 4L21 4L21 5L24 5L24 4L21 4L21 3L23 3L23 1L24 1L24 2L25 2L25 0L22 0L22 1L21 1L21 0L18 0L18 1L17 1L17 2L16 2L16 1L15 1L15 0ZM8 1L8 2L9 2L9 1ZM18 1L18 2L17 2L17 3L18 3L18 2L19 2L19 4L20 4L20 3L21 3L21 2L20 2L20 1ZM8 3L8 4L9 4L9 5L8 5L8 7L9 7L9 8L6 8L6 9L5 9L5 8L0 8L0 9L2 9L2 10L3 10L3 12L2 12L2 11L0 11L0 16L1 16L1 17L0 17L0 20L1 20L1 19L2 19L2 21L0 21L0 25L1 25L1 22L2 22L2 25L4 25L4 23L3 23L3 22L4 22L4 21L3 21L3 20L5 20L5 19L7 19L7 20L6 20L6 21L5 21L5 25L7 25L7 24L8 24L8 27L9 27L9 28L8 28L8 33L9 33L9 32L10 32L10 33L14 33L14 32L11 32L11 30L13 30L13 31L15 31L15 33L19 33L19 32L20 32L20 31L19 31L19 30L22 30L22 31L21 31L21 32L22 32L22 33L26 33L26 31L27 31L27 30L29 30L29 32L31 32L31 33L32 33L32 32L31 32L31 31L32 31L32 30L31 30L31 29L30 29L30 30L29 30L29 28L32 28L32 29L33 29L33 28L32 28L32 26L33 26L33 24L32 24L32 26L31 26L31 27L30 27L30 25L29 25L29 24L31 24L31 23L32 23L32 22L33 22L33 21L32 21L32 20L31 20L31 19L32 19L32 18L33 18L33 17L32 17L32 16L31 16L31 15L32 15L32 14L33 14L33 13L31 13L31 15L30 15L30 13L29 13L29 12L28 12L28 11L29 11L29 10L28 10L28 11L27 11L27 12L28 12L28 13L29 13L29 14L28 14L28 16L27 16L27 13L26 13L26 14L25 14L25 13L19 13L19 12L22 12L22 11L23 11L23 10L25 10L25 11L24 11L24 12L25 12L25 11L26 11L26 10L27 10L27 9L28 9L28 8L27 8L27 9L26 9L26 8L25 8L25 9L24 9L24 7L25 7L25 6L24 6L24 7L23 7L23 6L22 6L22 7L21 7L21 6L20 6L20 9L18 9L18 8L19 8L19 6L18 6L18 8L17 8L17 5L11 5L11 6L10 6L10 4L11 4L11 3ZM9 6L9 7L10 7L10 6ZM11 6L11 7L12 7L12 8L15 8L15 7L16 7L16 6L15 6L15 7L14 7L14 6L13 6L13 7L12 7L12 6ZM22 7L22 8L21 8L21 9L20 9L20 10L19 10L19 11L18 11L18 9L17 9L17 8L16 8L16 9L13 9L13 10L12 10L12 9L11 9L11 8L10 8L10 9L8 9L8 10L7 10L7 9L6 9L6 10L4 10L4 13L3 13L3 14L1 14L1 15L2 15L2 17L3 17L3 18L2 18L2 19L4 19L4 17L3 17L3 14L5 14L5 13L6 13L6 14L7 14L7 15L4 15L4 16L7 16L7 17L5 17L5 18L7 18L7 17L9 17L9 19L10 19L10 20L14 20L14 21L13 21L13 23L12 23L12 22L11 22L11 23L8 23L8 24L11 24L11 25L9 25L9 26L11 26L11 27L10 27L10 29L13 29L13 30L14 30L14 29L15 29L15 30L16 30L16 31L17 31L17 32L19 32L19 31L18 31L18 30L19 30L19 29L23 29L23 30L24 30L24 31L23 31L23 32L25 32L25 31L26 31L26 30L27 30L27 29L26 29L26 30L25 30L25 29L24 29L24 28L20 28L20 26L19 26L19 25L24 25L24 24L26 24L26 23L27 23L27 24L28 24L28 23L30 23L30 22L31 22L31 20L29 20L29 21L27 21L27 18L28 18L28 19L29 19L29 17L30 17L30 19L31 19L31 16L30 16L30 15L29 15L29 17L27 17L27 16L26 16L26 17L25 17L25 18L23 18L23 19L25 19L25 18L26 18L26 21L27 21L27 22L26 22L26 23L24 23L24 22L25 22L25 20L21 20L21 21L20 21L20 20L18 20L18 19L20 19L20 18L21 18L21 17L23 17L23 16L21 16L21 15L20 15L20 14L19 14L19 13L15 13L15 11L14 11L14 10L16 10L16 9L17 9L17 12L19 12L19 11L22 11L22 10L21 10L21 9L23 9L23 7ZM29 8L29 9L30 9L30 8ZM31 8L31 10L33 10L33 9L32 9L32 8ZM10 9L10 11L11 11L11 12L9 12L9 10L8 10L8 12L6 12L6 11L7 11L7 10L6 10L6 11L5 11L5 12L6 12L6 13L7 13L7 14L8 14L8 15L7 15L7 16L10 16L10 15L9 15L9 13L11 13L11 14L12 14L12 15L11 15L11 16L13 16L13 17L10 17L10 19L11 19L11 18L13 18L13 19L14 19L14 18L15 18L15 21L14 21L14 22L15 22L15 23L16 23L16 22L15 22L15 21L18 21L18 22L20 22L20 23L21 23L21 24L22 24L22 22L24 22L24 21L22 21L22 22L20 22L20 21L18 21L18 20L17 20L17 19L18 19L18 18L20 18L20 17L21 17L21 16L20 16L20 17L18 17L18 16L19 16L19 14L15 14L15 13L14 13L14 12L13 12L13 13L11 13L11 12L12 12L12 11L11 11L11 9ZM30 11L30 12L31 12L31 11ZM8 12L8 13L9 13L9 12ZM13 14L13 16L14 16L14 17L13 17L13 18L14 18L14 17L15 17L15 18L16 18L16 19L17 19L17 18L18 18L18 17L17 17L17 16L18 16L18 15L16 15L16 17L15 17L15 16L14 16L14 14ZM23 14L23 15L24 15L24 16L25 16L25 14ZM16 17L16 18L17 18L17 17ZM26 17L26 18L27 18L27 17ZM8 20L8 21L6 21L6 22L8 22L8 21L9 21L9 20ZM2 21L2 22L3 22L3 21ZM29 21L29 22L30 22L30 21ZM27 22L27 23L28 23L28 22ZM6 23L6 24L7 24L7 23ZM11 23L11 24L12 24L12 23ZM13 24L13 25L11 25L11 26L12 26L12 28L13 28L13 29L14 29L14 28L13 28L13 27L14 27L14 26L15 26L15 29L16 29L16 30L17 30L17 29L19 29L19 28L17 28L17 27L16 27L16 26L15 26L15 25L17 25L17 26L18 26L18 27L19 27L19 26L18 26L18 25L19 25L19 24L15 24L15 25L14 25L14 24ZM13 25L13 26L14 26L14 25ZM25 25L25 28L28 28L28 25ZM21 26L21 27L23 27L23 26ZM26 26L26 27L27 27L27 26ZM16 28L16 29L17 29L17 28ZM30 30L30 31L31 31L31 30ZM27 32L27 33L28 33L28 32ZM0 0L0 7L7 7L7 0ZM1 1L1 6L6 6L6 1ZM2 2L2 5L5 5L5 2ZM26 0L26 7L33 7L33 0ZM27 1L27 6L32 6L32 1ZM28 2L28 5L31 5L31 2ZM0 26L0 33L7 33L7 26ZM1 27L1 32L6 32L6 27ZM2 28L2 31L5 31L5 28Z" fill="#000000"/></g></g></svg>
