<?xml version="1.0" encoding="UTF-8"?>
<svg xmlns="http://www.w3.org/2000/svg" version="1.1" width="600" height="600" viewBox="0 0 600 600"><rect x="0" y="0" width="600" height="600" fill="#ffffff"/><g transform="scale(15.385)"><g transform="translate(1,1)"><path fill-rule="evenodd" d="M9 0L9 1L8 1L8 2L9 2L9 3L8 3L8 4L10 4L10 7L11 7L11 4L12 4L12 5L13 5L13 6L12 6L12 9L13 9L13 8L14 8L14 9L15 9L15 10L17 10L17 9L19 9L19 10L18 10L18 12L17 12L17 11L16 11L16 13L12 13L12 11L13 11L13 10L10 10L10 11L11 11L11 12L10 12L10 13L7 13L7 12L6 12L6 13L7 13L7 14L5 14L5 13L4 13L4 15L2 15L2 16L3 16L3 17L0 17L0 18L1 18L1 19L0 19L0 20L3 20L3 18L4 18L4 21L3 21L3 22L1 22L1 21L0 21L0 22L1 22L1 23L0 23L0 29L1 29L1 26L5 26L5 28L6 28L6 29L7 29L7 28L8 28L8 31L9 31L9 32L8 32L8 37L9 37L9 36L11 36L11 37L12 37L12 35L13 35L13 34L11 34L11 35L9 35L9 33L10 33L10 31L9 31L9 29L10 29L10 30L11 30L11 29L12 29L12 30L13 30L13 31L12 31L12 33L13 33L13 32L14 32L14 33L17 33L17 34L15 34L15 35L14 35L14 36L15 36L15 37L19 37L19 36L16 36L16 35L17 35L17 34L20 34L20 36L22 36L22 37L23 37L23 36L22 36L22 35L21 35L21 34L25 34L25 35L24 35L24 37L27 37L27 36L31 36L31 37L37 37L37 33L36 33L36 31L37 31L37 30L35 30L35 28L34 28L34 27L36 27L36 28L37 28L37 26L36 26L36 25L37 25L37 22L36 22L36 21L37 21L37 18L36 18L36 17L37 17L37 14L36 14L36 13L35 13L35 12L34 12L34 11L35 11L35 9L36 9L36 8L35 8L35 9L34 9L34 8L33 8L33 9L34 9L34 11L32 11L32 12L31 12L31 10L30 10L30 8L28 8L28 7L29 7L29 5L27 5L27 4L26 4L26 3L25 3L25 2L23 2L23 3L22 3L22 2L20 2L20 3L22 3L22 4L19 4L19 3L17 3L17 2L16 2L16 4L12 4L12 2L13 2L13 1L11 1L11 2L10 2L10 0ZM15 0L15 1L18 1L18 0ZM19 0L19 1L20 1L20 0ZM21 0L21 1L22 1L22 0ZM23 0L23 1L24 1L24 0ZM26 0L26 2L28 2L28 4L29 4L29 0L28 0L28 1L27 1L27 0ZM14 2L14 3L15 3L15 2ZM10 3L10 4L11 4L11 3ZM23 3L23 4L22 4L22 5L19 5L19 4L16 4L16 5L19 5L19 7L20 7L20 6L21 6L21 7L22 7L22 8L19 8L19 9L20 9L20 10L19 10L19 13L16 13L16 14L19 14L19 16L21 16L21 17L20 17L20 18L19 18L19 17L17 17L17 16L18 16L18 15L16 15L16 17L17 17L17 18L15 18L15 17L14 17L14 16L15 16L15 15L14 15L14 16L13 16L13 17L12 17L12 15L13 15L13 14L12 14L12 13L10 13L10 14L7 14L7 15L4 15L4 18L7 18L7 17L8 17L8 16L9 16L9 15L10 15L10 20L9 20L9 18L8 18L8 20L9 20L9 21L10 21L10 20L11 20L11 18L13 18L13 19L12 19L12 21L11 21L11 22L10 22L10 23L11 23L11 26L10 26L10 27L9 27L9 25L6 25L6 26L8 26L8 27L9 27L9 28L10 28L10 29L11 29L11 28L10 28L10 27L11 27L11 26L13 26L13 27L12 27L12 29L16 29L16 30L18 30L18 31L16 31L16 32L18 32L18 31L20 31L20 32L19 32L19 33L20 33L20 34L21 34L21 33L23 33L23 32L24 32L24 33L25 33L25 34L26 34L26 33L27 33L27 35L29 35L29 33L27 33L27 32L28 32L28 30L27 30L27 29L28 29L28 27L29 27L29 26L31 26L31 28L33 28L33 27L34 27L34 26L35 26L35 25L34 25L34 24L36 24L36 23L34 23L34 24L33 24L33 25L32 25L32 24L31 24L31 23L32 23L32 22L33 22L33 21L34 21L34 22L35 22L35 21L34 21L34 20L36 20L36 19L35 19L35 17L36 17L36 14L35 14L35 15L34 15L34 13L30 13L30 10L29 10L29 9L25 9L25 8L26 8L26 5L25 5L25 4L24 4L24 3ZM23 4L23 5L22 5L22 7L23 7L23 5L24 5L24 4ZM8 5L8 7L9 7L9 5ZM13 6L13 7L14 7L14 8L15 8L15 7L16 7L16 9L17 9L17 8L18 8L18 6L17 6L17 7L16 7L16 6L15 6L15 7L14 7L14 6ZM24 6L24 8L25 8L25 6ZM27 6L27 7L28 7L28 6ZM0 8L0 9L2 9L2 10L3 10L3 11L1 11L1 10L0 10L0 11L1 11L1 12L3 12L3 11L4 11L4 12L5 12L5 11L7 11L7 10L6 10L6 9L11 9L11 8L6 8L6 9L5 9L5 8ZM22 8L22 9L21 9L21 10L22 10L22 9L23 9L23 10L24 10L24 12L23 12L23 13L21 13L21 12L22 12L22 11L21 11L21 12L20 12L20 13L19 13L19 14L20 14L20 15L21 15L21 16L22 16L22 14L25 14L25 15L26 15L26 16L24 16L24 17L21 17L21 18L20 18L20 19L21 19L21 20L19 20L19 19L18 19L18 18L17 18L17 19L16 19L16 21L12 21L12 22L13 22L13 23L12 23L12 25L13 25L13 24L14 24L14 25L15 25L15 26L17 26L17 25L19 25L19 26L18 26L18 28L17 28L17 27L16 27L16 28L17 28L17 29L19 29L19 30L20 30L20 31L21 31L21 32L20 32L20 33L21 33L21 32L22 32L22 31L23 31L23 30L25 30L25 31L24 31L24 32L25 32L25 33L26 33L26 32L25 32L25 31L27 31L27 30L25 30L25 29L27 29L27 28L25 28L25 29L21 29L21 28L23 28L23 26L24 26L24 27L25 27L25 26L27 26L27 27L28 27L28 26L29 26L29 25L31 25L31 24L30 24L30 22L29 22L29 20L27 20L27 19L29 19L29 18L30 18L30 21L33 21L33 20L34 20L34 19L33 19L33 20L31 20L31 19L32 19L32 18L30 18L30 17L33 17L33 18L34 18L34 17L35 17L35 16L34 16L34 15L33 15L33 14L32 14L32 16L31 16L31 14L30 14L30 13L29 13L29 12L27 12L27 13L26 13L26 12L25 12L25 11L26 11L26 10L25 10L25 9L23 9L23 8ZM31 8L31 9L32 9L32 8ZM4 9L4 10L5 10L5 9ZM8 10L8 12L9 12L9 10ZM27 10L27 11L28 11L28 10ZM36 10L36 11L37 11L37 10ZM14 11L14 12L15 12L15 11ZM24 12L24 13L25 13L25 14L26 14L26 13L25 13L25 12ZM0 13L0 16L1 16L1 13ZM2 13L2 14L3 14L3 13ZM20 13L20 14L21 14L21 13ZM27 13L27 14L29 14L29 16L28 16L28 15L27 15L27 16L26 16L26 17L24 17L24 18L21 18L21 19L22 19L22 20L21 20L21 21L20 21L20 22L17 22L17 21L16 21L16 22L17 22L17 23L16 23L16 25L17 25L17 24L19 24L19 25L22 25L22 26L23 26L23 25L24 25L24 26L25 26L25 25L24 25L24 23L25 23L25 24L26 24L26 25L27 25L27 26L28 26L28 25L27 25L27 24L26 24L26 22L28 22L28 23L29 23L29 22L28 22L28 21L25 21L25 20L26 20L26 17L27 17L27 18L29 18L29 17L30 17L30 14L29 14L29 13ZM10 14L10 15L11 15L11 14ZM6 16L6 17L7 17L7 16ZM33 16L33 17L34 17L34 16ZM5 19L5 21L4 21L4 22L3 22L3 24L8 24L8 23L9 23L9 22L8 22L8 23L6 23L6 22L7 22L7 21L6 21L6 20L7 20L7 19ZM14 19L14 20L15 20L15 19ZM17 19L17 20L18 20L18 19ZM23 19L23 20L25 20L25 19ZM5 21L5 22L4 22L4 23L5 23L5 22L6 22L6 21ZM22 21L22 22L20 22L20 24L22 24L22 25L23 25L23 23L22 23L22 22L25 22L25 21ZM1 23L1 25L2 25L2 23ZM14 23L14 24L15 24L15 23ZM19 26L19 29L20 29L20 30L21 30L21 29L20 29L20 28L21 28L21 27L20 27L20 26ZM6 27L6 28L7 28L7 27ZM14 27L14 28L15 28L15 27ZM2 28L2 29L4 29L4 28ZM29 29L29 32L32 32L32 29ZM33 29L33 30L34 30L34 29ZM30 30L30 31L31 31L31 30ZM14 31L14 32L15 32L15 31ZM34 31L34 32L33 32L33 33L34 33L34 36L36 36L36 35L35 35L35 34L36 34L36 33L34 33L34 32L35 32L35 31ZM30 34L30 35L31 35L31 36L32 36L32 35L33 35L33 34ZM25 35L25 36L26 36L26 35ZM0 0L0 7L7 7L7 0ZM1 1L1 6L6 6L6 1ZM2 2L2 5L5 5L5 2ZM30 0L30 7L37 7L37 0ZM31 1L31 6L36 6L36 1ZM32 2L32 5L35 5L35 2ZM0 30L0 37L7 37L7 30ZM1 31L1 36L6 36L6 31ZM2 32L2 35L5 35L5 32Z" fill="#000000"/></g></g></svg>
