<?xml version="1.0" encoding="UTF-8"?>
<svg xmlns="http://www.w3.org/2000/svg" version="1.1" width="600" height="600" viewBox="0 0 600 600"><rect x="0" y="0" width="600" height="600" fill="#ffffff"/><g transform="scale(17.143)"><g transform="translate(1,1)"><path fill-rule="evenodd" d="M10 0L10 1L8 1L8 3L9 3L9 4L8 4L8 8L6 8L6 9L7 9L7 10L6 10L6 11L7 11L7 12L6 12L6 13L7 13L7 14L6 14L6 15L7 15L7 14L9 14L9 16L10 16L10 18L11 18L11 19L10 19L10 20L11 20L11 19L12 19L12 20L13 20L13 24L12 24L12 25L11 25L11 22L12 22L12 21L10 21L10 22L9 22L9 20L8 20L8 22L9 22L9 23L7 23L7 22L5 22L5 23L4 23L4 21L7 21L7 20L6 20L6 19L7 19L7 18L8 18L8 19L9 19L9 18L8 18L8 16L4 16L4 17L3 17L3 16L2 16L2 17L1 17L1 18L0 18L0 19L2 19L2 20L0 20L0 21L1 21L1 22L0 22L0 23L1 23L1 24L0 24L0 25L1 25L1 24L2 24L2 25L5 25L5 24L6 24L6 25L8 25L8 27L9 27L9 26L12 26L12 28L11 28L11 27L10 27L10 28L9 28L9 29L8 29L8 30L9 30L9 29L12 29L12 28L13 28L13 29L14 29L14 30L13 30L13 32L12 32L12 31L11 31L11 30L10 30L10 31L8 31L8 33L10 33L10 32L11 32L11 33L13 33L13 32L14 32L14 33L15 33L15 32L16 32L16 31L17 31L17 32L18 32L18 33L19 33L19 30L18 30L18 31L17 31L17 30L16 30L16 31L15 31L15 32L14 32L14 30L15 30L15 29L18 29L18 27L17 27L17 26L18 26L18 24L17 24L17 25L16 25L16 23L15 23L15 24L14 24L14 21L15 21L15 20L16 20L16 22L17 22L17 20L18 20L18 23L19 23L19 24L20 24L20 22L19 22L19 21L21 21L21 22L22 22L22 23L21 23L21 25L23 25L23 26L24 26L24 27L21 27L21 26L20 26L20 25L19 25L19 26L20 26L20 27L19 27L19 28L20 28L20 27L21 27L21 29L20 29L20 32L21 32L21 33L22 33L22 31L23 31L23 29L22 29L22 28L24 28L24 29L25 29L25 30L24 30L24 32L23 32L23 33L25 33L25 31L26 31L26 30L27 30L27 29L28 29L28 31L27 31L27 33L28 33L28 31L29 31L29 33L30 33L30 24L28 24L28 23L27 23L27 22L28 22L28 21L26 21L26 22L25 22L25 19L23 19L23 21L22 21L22 18L25 18L25 17L27 17L27 18L28 18L28 17L29 17L29 20L30 20L30 18L31 18L31 19L33 19L33 18L31 18L31 17L29 17L29 16L30 16L30 15L29 15L29 13L27 13L27 10L28 10L28 12L29 12L29 10L31 10L31 12L32 12L32 13L30 13L30 14L31 14L31 16L32 16L32 17L33 17L33 16L32 16L32 14L33 14L33 9L32 9L32 8L30 8L30 9L29 9L29 8L26 8L26 10L25 10L25 6L24 6L24 10L25 10L25 11L24 11L24 14L22 14L22 15L21 15L21 14L20 14L20 12L21 12L21 13L23 13L23 12L22 12L22 10L23 10L23 8L22 8L22 7L23 7L23 5L24 5L24 4L25 4L25 3L24 3L24 0L23 0L23 1L22 1L22 2L23 2L23 5L22 5L22 4L21 4L21 3L20 3L20 5L19 5L19 3L18 3L18 2L19 2L19 1L20 1L20 0L18 0L18 1L17 1L17 0L15 0L15 2L14 2L14 4L13 4L13 3L12 3L12 7L11 7L11 4L10 4L10 3L9 3L9 2L11 2L11 0ZM13 0L13 1L14 1L14 0ZM16 3L16 4L17 4L17 5L16 5L16 6L15 6L15 5L14 5L14 6L13 6L13 7L12 7L12 8L14 8L14 9L13 9L13 10L14 10L14 9L15 9L15 11L14 11L14 13L13 13L13 12L12 12L12 16L11 16L11 15L10 15L10 16L11 16L11 18L12 18L12 16L13 16L13 20L15 20L15 19L16 19L16 20L17 20L17 19L18 19L18 18L19 18L19 20L21 20L21 19L20 19L20 17L21 17L21 18L22 18L22 17L25 17L25 16L24 16L24 15L23 15L23 16L22 16L22 17L21 17L21 15L20 15L20 14L19 14L19 11L17 11L17 9L18 9L18 8L19 8L19 10L21 10L21 9L20 9L20 8L21 8L21 7L22 7L22 5L21 5L21 7L20 7L20 6L19 6L19 7L18 7L18 6L17 6L17 5L18 5L18 3ZM9 5L9 8L8 8L8 10L9 10L9 11L8 11L8 12L7 12L7 13L8 13L8 12L9 12L9 14L11 14L11 13L10 13L10 12L9 12L9 11L11 11L11 8L10 8L10 5ZM14 6L14 7L15 7L15 9L16 9L16 8L18 8L18 7L17 7L17 6L16 6L16 7L15 7L15 6ZM0 8L0 10L1 10L1 11L0 11L0 12L1 12L1 13L0 13L0 16L1 16L1 13L3 13L3 12L4 12L4 11L5 11L5 10L4 10L4 11L3 11L3 9L4 9L4 8L3 8L3 9L2 9L2 8ZM1 9L1 10L2 10L2 9ZM9 9L9 10L10 10L10 9ZM28 9L28 10L29 10L29 9ZM31 9L31 10L32 10L32 9ZM1 11L1 12L2 12L2 11ZM25 11L25 13L26 13L26 11ZM16 12L16 13L17 13L17 16L16 16L16 15L15 15L15 14L13 14L13 16L14 16L14 17L18 17L18 12ZM4 13L4 14L2 14L2 15L5 15L5 13ZM25 14L25 15L26 15L26 14ZM27 14L27 15L28 15L28 16L29 16L29 15L28 15L28 14ZM14 15L14 16L15 16L15 15ZM19 15L19 17L20 17L20 15ZM4 17L4 18L3 18L3 19L4 19L4 20L5 20L5 19L6 19L6 18L7 18L7 17ZM14 18L14 19L15 19L15 18ZM2 20L2 22L3 22L3 20ZM31 20L31 21L32 21L32 23L31 23L31 22L30 22L30 21L29 21L29 23L31 23L31 24L33 24L33 21L32 21L32 20ZM23 21L23 23L22 23L22 24L23 24L23 23L25 23L25 22L24 22L24 21ZM2 23L2 24L4 24L4 23ZM6 23L6 24L7 24L7 23ZM13 25L13 26L14 26L14 25ZM15 25L15 27L14 27L14 28L15 28L15 27L16 27L16 28L17 28L17 27L16 27L16 25ZM25 25L25 28L28 28L28 25ZM32 25L32 26L31 26L31 31L33 31L33 27L32 27L32 26L33 26L33 25ZM26 26L26 27L27 27L27 26ZM21 30L21 31L22 31L22 30ZM31 32L31 33L32 33L32 32ZM0 0L0 7L7 7L7 0ZM1 1L1 6L6 6L6 1ZM2 2L2 5L5 5L5 2ZM26 0L26 7L33 7L33 0ZM27 1L27 6L32 6L32 1ZM28 2L28 5L31 5L31 2ZM0 26L0 33L7 33L7 26ZM1 27L1 32L6 32L6 27ZM2 28L2 31L5 31L5 28Z" fill="#000000"/></g></g></svg>
