<?xml version="1.0" encoding="UTF-8"?>
<svg xmlns="http://www.w3.org/2000/svg" version="1.1" width="600" height="600" viewBox="0 0 600 600"><rect x="0" y="0" width="600" height="600" fill="#ffffff"/><g transform="scale(15.385)"><g transform="translate(1,1)"><path fill-rule="evenodd" d="M8 0L8 1L9 1L9 2L8 2L8 5L9 5L9 4L11 4L11 5L10 5L10 10L11 10L11 11L8 11L8 15L7 15L7 14L6 14L6 15L5 15L5 14L3 14L3 15L5 15L5 16L3 16L3 17L2 17L2 14L1 14L1 15L0 15L0 17L1 17L1 18L0 18L0 19L1 19L1 20L2 20L2 21L4 21L4 20L2 20L2 19L3 19L3 18L4 18L4 19L7 19L7 18L6 18L6 17L7 17L7 16L9 16L9 18L11 18L11 17L10 17L10 13L11 13L11 16L12 16L12 17L13 17L13 16L12 16L12 14L13 14L13 15L14 15L14 18L13 18L13 21L15 21L15 22L14 22L14 23L11 23L11 21L10 21L10 20L9 20L9 19L8 19L8 20L9 20L9 21L10 21L10 22L9 22L9 23L8 23L8 24L6 24L6 23L7 23L7 22L5 22L5 23L4 23L4 24L5 24L5 25L7 25L7 26L4 26L4 27L3 27L3 23L2 23L2 24L0 24L0 25L2 25L2 26L1 26L1 27L0 27L0 28L1 28L1 27L2 27L2 28L4 28L4 29L8 29L8 30L9 30L9 33L8 33L8 37L9 37L9 34L10 34L10 31L12 31L12 32L11 32L11 33L12 33L12 34L11 34L11 35L14 35L14 34L15 34L15 33L14 33L14 32L13 32L13 30L14 30L14 29L12 29L12 28L14 28L14 27L15 27L15 31L17 31L17 33L18 33L18 31L19 31L19 29L18 29L18 31L17 31L17 28L16 28L16 27L15 27L15 26L14 26L14 25L13 25L13 26L12 26L12 24L16 24L16 22L17 22L17 21L18 21L18 19L19 19L19 17L18 17L18 18L17 18L17 14L19 14L19 15L18 15L18 16L20 16L20 21L19 21L19 22L18 22L18 23L19 23L19 22L20 22L20 25L19 25L19 24L17 24L17 25L19 25L19 26L18 26L18 27L19 27L19 28L21 28L21 29L22 29L22 28L23 28L23 30L25 30L25 31L27 31L27 32L28 32L28 33L30 33L30 34L29 34L29 37L30 37L30 36L31 36L31 37L32 37L32 35L33 35L33 37L37 37L37 36L35 36L35 35L34 35L34 34L37 34L37 33L33 33L33 32L34 32L34 31L33 31L33 30L34 30L34 29L36 29L36 30L35 30L35 32L36 32L36 31L37 31L37 27L36 27L36 26L37 26L37 24L35 24L35 23L34 23L34 22L36 22L36 19L37 19L37 17L36 17L36 16L37 16L37 15L36 15L36 16L34 16L34 17L33 17L33 18L31 18L31 17L32 17L32 16L31 16L31 15L34 15L34 14L35 14L35 11L36 11L36 12L37 12L37 11L36 11L36 10L35 10L35 8L32 8L32 9L34 9L34 10L30 10L30 12L29 12L29 10L28 10L28 11L24 11L24 10L27 10L27 9L30 9L30 8L29 8L29 6L28 6L28 7L27 7L27 5L28 5L28 4L29 4L29 1L28 1L28 3L27 3L27 2L26 2L26 1L27 1L27 0L18 0L18 1L16 1L16 0L12 0L12 1L11 1L11 0L10 0L10 1L9 1L9 0ZM14 1L14 2L11 2L11 4L12 4L12 3L13 3L13 5L12 5L12 6L11 6L11 8L12 8L12 6L13 6L13 8L14 8L14 9L15 9L15 7L16 7L16 6L15 6L15 5L16 5L16 4L17 4L17 7L18 7L18 4L17 4L17 3L19 3L19 4L21 4L21 8L23 8L23 9L24 9L24 6L25 6L25 9L27 9L27 8L26 8L26 6L25 6L25 5L27 5L27 4L25 4L25 5L24 5L24 3L25 3L25 2L22 2L22 1L21 1L21 3L20 3L20 1L19 1L19 2L17 2L17 3L16 3L16 1ZM14 3L14 5L13 5L13 6L14 6L14 7L15 7L15 6L14 6L14 5L15 5L15 4L16 4L16 3ZM22 4L22 5L23 5L23 4ZM8 6L8 7L9 7L9 6ZM19 6L19 8L18 8L18 9L17 9L17 8L16 8L16 10L14 10L14 11L11 11L11 13L12 13L12 12L13 12L13 14L14 14L14 15L15 15L15 16L16 16L16 15L15 15L15 14L16 14L16 13L17 13L17 12L19 12L19 13L20 13L20 16L21 16L21 14L22 14L22 13L23 13L23 15L22 15L22 16L26 16L26 15L28 15L28 14L27 14L27 12L26 12L26 15L24 15L24 11L23 11L23 10L22 10L22 11L21 11L21 9L20 9L20 10L19 10L19 8L20 8L20 6ZM22 6L22 7L23 7L23 6ZM0 8L0 9L3 9L3 10L2 10L2 11L1 11L1 12L0 12L0 13L1 13L1 12L2 12L2 13L3 13L3 11L5 11L5 12L6 12L6 13L7 13L7 12L6 12L6 11L7 11L7 10L8 10L8 9L9 9L9 8L8 8L8 9L7 9L7 8L6 8L6 9L5 9L5 10L4 10L4 8ZM36 8L36 9L37 9L37 8ZM6 9L6 10L7 10L7 9ZM11 9L11 10L12 10L12 9ZM16 10L16 12L14 12L14 14L15 14L15 13L16 13L16 12L17 12L17 10ZM32 11L32 12L31 12L31 13L32 13L32 12L34 12L34 11ZM29 13L29 14L30 14L30 15L29 15L29 17L28 17L28 16L27 16L27 17L28 17L28 19L29 19L29 20L30 20L30 23L32 23L32 24L33 24L33 26L34 26L34 28L33 28L33 27L32 27L32 26L30 26L30 25L29 25L29 23L28 23L28 21L27 21L27 18L26 18L26 19L25 19L25 17L24 17L24 18L22 18L22 17L21 17L21 20L23 20L23 21L24 21L24 20L23 20L23 19L25 19L25 22L24 22L24 23L26 23L26 24L28 24L28 25L29 25L29 26L30 26L30 27L29 27L29 28L30 28L30 27L31 27L31 28L33 28L33 29L34 29L34 28L36 28L36 27L35 27L35 26L36 26L36 25L34 25L34 24L33 24L33 23L32 23L32 22L34 22L34 21L35 21L35 17L34 17L34 20L33 20L33 19L32 19L32 20L33 20L33 21L32 21L32 22L31 22L31 19L29 19L29 18L30 18L30 17L31 17L31 16L30 16L30 15L31 15L31 14L30 14L30 13ZM36 13L36 14L37 14L37 13ZM6 15L6 16L7 16L7 15ZM15 17L15 18L16 18L16 17ZM1 18L1 19L2 19L2 18ZM11 19L11 20L12 20L12 19ZM15 19L15 21L16 21L16 20L17 20L17 19ZM5 20L5 21L7 21L7 20ZM0 21L0 23L1 23L1 21ZM20 21L20 22L21 22L21 21ZM26 21L26 22L27 22L27 21ZM9 23L9 24L8 24L8 26L7 26L7 27L4 27L4 28L8 28L8 29L9 29L9 30L10 30L10 29L11 29L11 30L12 30L12 29L11 29L11 28L12 28L12 26L11 26L11 25L10 25L10 24L11 24L11 23ZM21 23L21 26L20 26L20 27L24 27L24 24L23 24L23 23ZM9 25L9 26L10 26L10 27L11 27L11 26L10 26L10 25ZM22 25L22 26L23 26L23 25ZM25 25L25 28L24 28L24 29L25 29L25 28L26 28L26 27L27 27L27 29L28 29L28 26L26 26L26 25ZM13 26L13 27L14 27L14 26ZM8 27L8 28L9 28L9 27ZM29 29L29 32L32 32L32 29ZM20 30L20 31L21 31L21 30ZM27 30L27 31L28 31L28 30ZM30 30L30 31L31 31L31 30ZM19 32L19 34L18 34L18 35L19 35L19 36L17 36L17 37L19 37L19 36L21 36L21 34L22 34L22 35L24 35L24 36L25 36L25 37L26 37L26 36L27 36L27 35L28 35L28 34L27 34L27 33L26 33L26 34L27 34L27 35L25 35L25 32L24 32L24 33L23 33L23 34L22 34L22 32L21 32L21 33L20 33L20 32ZM16 34L16 35L17 35L17 34ZM19 34L19 35L20 35L20 34ZM10 36L10 37L11 37L11 36ZM12 36L12 37L13 37L13 36ZM14 36L14 37L15 37L15 36ZM22 36L22 37L23 37L23 36ZM0 0L0 7L7 7L7 0ZM1 1L1 6L6 6L6 1ZM2 2L2 5L5 5L5 2ZM30 0L30 7L37 7L37 0ZM31 1L31 6L36 6L36 1ZM32 2L32 5L35 5L35 2ZM0 30L0 37L7 37L7 30ZM1 31L1 36L6 36L6 31ZM2 32L2 35L5 35L5 32Z" fill="#000000"/></g></g></svg>
