<?xml version="1.0" encoding="UTF-8"?>
<svg xmlns="http://www.w3.org/2000/svg" version="1.1" width="600" height="600" viewBox="0 0 600 600"><rect x="0" y="0" width="600" height="600" fill="#ffffff"/><g transform="scale(17.143)"><g transform="translate(1,1)"><path fill-rule="evenodd" d="M11 0L11 1L8 1L8 2L9 2L9 3L8 3L8 4L9 4L9 5L8 5L8 7L9 7L9 8L6 8L6 9L9 9L9 10L10 10L10 11L8 11L8 10L5 10L5 8L0 8L0 11L1 11L1 12L3 12L3 11L4 11L4 15L3 15L3 16L2 16L2 14L3 14L3 13L1 13L1 16L0 16L0 18L1 18L1 16L2 16L2 17L4 17L4 18L2 18L2 20L0 20L0 25L1 25L1 21L2 21L2 24L3 24L3 25L4 25L4 23L3 23L3 21L2 21L2 20L4 20L4 22L5 22L5 24L6 24L6 25L7 25L7 24L6 24L6 23L8 23L8 22L5 22L5 20L4 20L4 18L6 18L6 19L7 19L7 18L6 18L6 17L7 17L7 16L6 16L6 15L9 15L9 14L10 14L10 16L9 16L9 17L8 17L8 20L6 20L6 21L9 21L9 20L10 20L10 21L11 21L11 22L12 22L12 24L13 24L13 25L11 25L11 23L10 23L10 25L9 25L9 24L8 24L8 27L9 27L9 26L10 26L10 25L11 25L11 26L12 26L12 27L10 27L10 28L8 28L8 33L12 33L12 32L11 32L11 31L9 31L9 29L11 29L11 30L13 30L13 29L18 29L18 30L20 30L20 31L19 31L19 32L15 32L15 33L19 33L19 32L20 32L20 33L21 33L21 32L24 32L24 33L25 33L25 32L24 32L24 31L27 31L27 32L28 32L28 33L29 33L29 31L30 31L30 32L31 32L31 33L32 33L32 32L31 32L31 31L32 31L32 30L31 30L31 29L33 29L33 27L32 27L32 26L33 26L33 24L32 24L32 26L31 26L31 25L30 25L30 24L31 24L31 23L32 23L32 22L33 22L33 21L32 21L32 20L31 20L31 19L32 19L32 18L33 18L33 17L32 17L32 16L31 16L31 15L32 15L32 14L33 14L33 13L31 13L31 15L30 15L30 13L29 13L29 10L28 10L28 8L27 8L27 9L26 9L26 8L24 8L24 7L25 7L25 5L24 5L24 4L23 4L23 5L22 5L22 7L21 7L21 5L20 5L20 4L21 4L21 3L23 3L23 2L21 2L21 1L24 1L24 2L25 2L25 1L24 1L24 0L21 0L21 1L20 1L20 0L19 0L19 1L17 1L17 2L18 2L18 3L16 3L16 1L15 1L15 0L14 0L14 1L13 1L13 0ZM11 1L11 2L12 2L12 3L9 3L9 4L13 4L13 8L12 8L12 5L10 5L10 6L9 6L9 7L10 7L10 8L9 8L9 9L13 9L13 10L11 10L11 12L10 12L10 14L11 14L11 15L12 15L12 16L11 16L11 17L9 17L9 19L10 19L10 20L11 20L11 21L13 21L13 22L14 22L14 21L15 21L15 22L16 22L16 21L17 21L17 23L16 23L16 25L15 25L15 23L13 23L13 24L14 24L14 25L13 25L13 26L16 26L16 27L13 27L13 28L11 28L11 29L13 29L13 28L16 28L16 27L17 27L17 28L18 28L18 29L20 29L20 30L21 30L21 31L24 31L24 27L23 27L23 26L24 26L24 25L23 25L23 24L21 24L21 22L22 22L22 21L24 21L24 22L23 22L23 23L24 23L24 24L27 24L27 22L25 22L25 21L27 21L27 20L28 20L28 19L26 19L26 18L25 18L25 17L28 17L28 18L29 18L29 17L30 17L30 19L29 19L29 20L30 20L30 21L28 21L28 24L30 24L30 23L29 23L29 22L30 22L30 21L31 21L31 20L30 20L30 19L31 19L31 16L30 16L30 15L29 15L29 13L28 13L28 16L26 16L26 14L25 14L25 13L27 13L27 12L28 12L28 11L27 11L27 10L25 10L25 9L24 9L24 10L22 10L22 11L23 11L23 12L21 12L21 11L20 11L20 10L21 10L21 9L23 9L23 8L21 8L21 9L20 9L20 5L19 5L19 8L18 8L18 6L17 6L17 8L16 8L16 9L13 9L13 8L14 8L14 6L15 6L15 7L16 7L16 6L15 6L15 5L18 5L18 4L20 4L20 3L21 3L21 2L20 2L20 1L19 1L19 3L18 3L18 4L13 4L13 3L14 3L14 2L12 2L12 1ZM23 5L23 7L24 7L24 5ZM10 6L10 7L11 7L11 6ZM17 8L17 9L16 9L16 10L15 10L15 11L14 11L14 10L13 10L13 11L14 11L14 12L11 12L11 14L12 14L12 15L15 15L15 16L13 16L13 17L11 17L11 18L12 18L12 19L11 19L11 20L13 20L13 21L14 21L14 20L13 20L13 19L14 19L14 18L13 18L13 17L16 17L16 18L15 18L15 19L16 19L16 18L17 18L17 19L18 19L18 20L17 20L17 21L18 21L18 23L19 23L19 22L20 22L20 21L21 21L21 20L22 20L22 19L23 19L23 18L24 18L24 17L23 17L23 16L24 16L24 15L25 15L25 14L24 14L24 13L25 13L25 12L26 12L26 11L25 11L25 12L24 12L24 13L22 13L22 15L20 15L20 17L19 17L19 14L21 14L21 13L18 13L18 12L15 12L15 11L17 11L17 9L18 9L18 11L19 11L19 12L20 12L20 11L19 11L19 10L20 10L20 9L18 9L18 8ZM29 8L29 9L30 9L30 8ZM31 8L31 10L33 10L33 9L32 9L32 8ZM4 10L4 11L5 11L5 10ZM6 11L6 12L5 12L5 14L8 14L8 13L6 13L6 12L8 12L8 11ZM30 11L30 12L31 12L31 11ZM13 13L13 14L18 14L18 13ZM23 14L23 15L24 15L24 14ZM17 15L17 16L16 16L16 17L17 17L17 18L18 18L18 19L21 19L21 17L22 17L22 16L21 16L21 17L20 17L20 18L19 18L19 17L17 17L17 16L18 16L18 15ZM4 16L4 17L5 17L5 16ZM28 16L28 17L29 17L29 16ZM15 20L15 21L16 21L16 20ZM18 20L18 21L20 21L20 20ZM24 20L24 21L25 21L25 20ZM17 24L17 25L16 25L16 26L17 26L17 25L19 25L19 26L18 26L18 27L19 27L19 28L20 28L20 29L21 29L21 30L22 30L22 29L23 29L23 28L22 28L22 27L21 27L21 26L23 26L23 25L21 25L21 24ZM20 25L20 26L19 26L19 27L20 27L20 26L21 26L21 25ZM25 25L25 28L28 28L28 25ZM29 25L29 28L30 28L30 29L31 29L31 28L32 28L32 27L31 27L31 26L30 26L30 25ZM26 26L26 27L27 27L27 26ZM30 27L30 28L31 28L31 27ZM21 28L21 29L22 29L22 28ZM25 29L25 30L28 30L28 31L29 31L29 30L28 30L28 29ZM14 30L14 31L17 31L17 30ZM30 30L30 31L31 31L31 30ZM13 32L13 33L14 33L14 32ZM0 0L0 7L7 7L7 0ZM1 1L1 6L6 6L6 1ZM2 2L2 5L5 5L5 2ZM26 0L26 7L33 7L33 0ZM27 1L27 6L32 6L32 1ZM28 2L28 5L31 5L31 2ZM0 26L0 33L7 33L7 26ZM1 27L1 32L6 32L6 27ZM2 28L2 31L5 31L5 28Z" fill="#000000"/></g></g></svg>
