<?xml version="1.0" encoding="UTF-8"?>
<svg xmlns="http://www.w3.org/2000/svg" version="1.1" width="600" height="600" viewBox="0 0 600 600"><rect x="0" y="0" width="600" height="600" fill="#ffffff"/><g transform="scale(17.143)"><g transform="translate(1,1)"><path fill-rule="evenodd" d="M11 0L11 1L8 1L8 2L9 2L9 3L8 3L8 4L9 4L9 5L8 5L8 7L9 7L9 8L6 8L6 9L5 9L5 8L0 8L0 10L1 10L1 15L0 15L0 17L1 17L1 18L2 18L2 20L1 20L1 19L0 19L0 25L1 25L1 22L2 22L2 23L3 23L3 22L2 22L2 21L3 21L3 19L5 19L5 18L3 18L3 17L1 17L1 15L2 15L2 16L5 16L5 15L4 15L4 14L6 14L6 15L8 15L8 16L6 16L6 17L7 17L7 18L6 18L6 19L8 19L8 16L9 16L9 18L10 18L10 19L11 19L11 20L9 20L9 21L10 21L10 22L12 22L12 24L13 24L13 25L11 25L11 26L12 26L12 27L9 27L9 25L8 25L8 27L9 27L9 28L8 28L8 33L9 33L9 32L11 32L11 33L12 33L12 32L11 32L11 30L13 30L13 29L16 29L16 30L14 30L14 31L15 31L15 33L19 33L19 32L17 32L17 31L16 31L16 30L17 30L17 29L19 29L19 30L20 30L20 33L21 33L21 32L22 32L22 31L21 31L21 30L23 30L23 29L19 29L19 28L20 28L20 27L21 27L21 28L22 28L22 27L24 27L24 31L23 31L23 32L24 32L24 33L25 33L25 32L24 32L24 31L27 31L27 32L28 32L28 33L29 33L29 31L30 31L30 32L31 32L31 33L32 33L32 32L31 32L31 31L32 31L32 30L31 30L31 29L33 29L33 27L32 27L32 26L33 26L33 24L32 24L32 26L31 26L31 25L30 25L30 24L31 24L31 23L32 23L32 22L33 22L33 21L32 21L32 20L31 20L31 19L32 19L32 18L33 18L33 17L32 17L32 16L31 16L31 15L32 15L32 14L33 14L33 13L31 13L31 15L30 15L30 13L29 13L29 10L28 10L28 8L27 8L27 9L26 9L26 8L24 8L24 7L25 7L25 5L24 5L24 4L23 4L23 5L22 5L22 7L21 7L21 6L20 6L20 7L19 7L19 6L18 6L18 7L19 7L19 8L20 8L20 7L21 7L21 8L23 8L23 9L22 9L22 10L21 10L21 9L18 9L18 8L17 8L17 6L16 6L16 5L17 5L17 4L19 4L19 5L21 5L21 4L19 4L19 3L20 3L20 2L21 2L21 3L23 3L23 2L21 2L21 1L24 1L24 2L25 2L25 1L24 1L24 0L18 0L18 1L20 1L20 2L19 2L19 3L17 3L17 2L16 2L16 1L15 1L15 0L14 0L14 3L13 3L13 4L9 4L9 3L12 3L12 2L13 2L13 0ZM11 1L11 2L12 2L12 1ZM15 2L15 3L16 3L16 4L13 4L13 5L14 5L14 6L13 6L13 8L12 8L12 5L10 5L10 6L9 6L9 7L10 7L10 6L11 6L11 8L9 8L9 9L13 9L13 10L10 10L10 11L11 11L11 12L10 12L10 14L11 14L11 15L10 15L10 16L11 16L11 17L10 17L10 18L11 18L11 19L12 19L12 18L11 18L11 17L13 17L13 18L14 18L14 19L13 19L13 20L11 20L11 21L13 21L13 24L14 24L14 25L13 25L13 26L16 26L16 27L13 27L13 28L9 28L9 29L10 29L10 30L11 30L11 29L13 29L13 28L16 28L16 29L17 29L17 28L19 28L19 27L20 27L20 26L21 26L21 27L22 27L22 26L24 26L24 25L22 25L22 24L21 24L21 25L20 25L20 23L21 23L21 22L22 22L22 21L24 21L24 22L23 22L23 23L24 23L24 24L27 24L27 22L25 22L25 21L27 21L27 20L28 20L28 19L26 19L26 18L25 18L25 17L28 17L28 18L29 18L29 17L30 17L30 19L29 19L29 20L30 20L30 21L28 21L28 24L30 24L30 23L29 23L29 22L30 22L30 21L31 21L31 20L30 20L30 19L31 19L31 16L30 16L30 15L29 15L29 13L28 13L28 16L26 16L26 14L25 14L25 13L27 13L27 12L28 12L28 11L27 11L27 10L25 10L25 9L24 9L24 10L22 10L22 12L21 12L21 13L20 13L20 10L18 10L18 9L15 9L15 8L16 8L16 6L15 6L15 5L16 5L16 4L17 4L17 3L16 3L16 2ZM23 5L23 7L24 7L24 5ZM14 6L14 8L13 8L13 9L14 9L14 11L15 11L15 12L11 12L11 14L12 14L12 15L11 15L11 16L12 16L12 15L16 15L16 16L15 16L15 17L14 17L14 16L13 16L13 17L14 17L14 18L15 18L15 19L14 19L14 20L13 20L13 21L14 21L14 22L15 22L15 25L17 25L17 26L18 26L18 27L19 27L19 26L20 26L20 25L19 25L19 24L17 24L17 23L16 23L16 22L15 22L15 21L19 21L19 22L18 22L18 23L19 23L19 22L20 22L20 21L21 21L21 20L22 20L22 19L23 19L23 18L24 18L24 17L23 17L23 16L24 16L24 15L25 15L25 14L24 14L24 13L25 13L25 12L26 12L26 11L25 11L25 12L24 12L24 13L22 13L22 15L18 15L18 16L17 16L17 15L16 15L16 14L13 14L13 13L18 13L18 14L20 14L20 13L18 13L18 12L19 12L19 11L18 11L18 12L17 12L17 11L16 11L16 10L15 10L15 9L14 9L14 8L15 8L15 6ZM29 8L29 9L30 9L30 8ZM31 8L31 10L33 10L33 9L32 9L32 8ZM1 9L1 10L2 10L2 9ZM6 9L6 10L8 10L8 13L9 13L9 10L8 10L8 9ZM4 10L4 12L3 12L3 11L2 11L2 12L3 12L3 13L5 13L5 12L7 12L7 11L5 11L5 10ZM30 11L30 12L31 12L31 11ZM6 13L6 14L7 14L7 13ZM23 14L23 15L24 15L24 14ZM19 16L19 17L18 17L18 18L17 18L17 17L15 17L15 18L17 18L17 20L18 20L18 18L19 18L19 21L20 21L20 20L21 20L21 18L19 18L19 17L22 17L22 16ZM28 16L28 17L29 17L29 16ZM4 20L4 21L5 21L5 20ZM6 20L6 21L7 21L7 22L6 22L6 23L5 23L5 22L4 22L4 23L5 23L5 24L2 24L2 25L5 25L5 24L6 24L6 25L7 25L7 24L9 24L9 23L8 23L8 21L7 21L7 20ZM14 20L14 21L15 21L15 20ZM24 20L24 21L25 21L25 20ZM6 23L6 24L7 24L7 23ZM18 25L18 26L19 26L19 25ZM21 25L21 26L22 26L22 25ZM25 25L25 28L28 28L28 25ZM29 25L29 28L30 28L30 29L31 29L31 28L32 28L32 27L31 27L31 26L30 26L30 25ZM26 26L26 27L27 27L27 26ZM16 27L16 28L17 28L17 27ZM30 27L30 28L31 28L31 27ZM25 29L25 30L28 30L28 31L29 31L29 30L28 30L28 29ZM30 30L30 31L31 31L31 30ZM13 32L13 33L14 33L14 32ZM0 0L0 7L7 7L7 0ZM1 1L1 6L6 6L6 1ZM2 2L2 5L5 5L5 2ZM26 0L26 7L33 7L33 0ZM27 1L27 6L32 6L32 1ZM28 2L28 5L31 5L31 2ZM0 26L0 33L7 33L7 26ZM1 27L1 32L6 32L6 27ZM2 28L2 31L5 31L5 28Z" fill="#000000"/></g></g></svg>
