<?xml version="1.0" encoding="UTF-8"?>
<svg xmlns="http://www.w3.org/2000/svg" version="1.1" width="600" height="600" viewBox="0 0 600 600"><rect x="0" y="0" width="600" height="600" fill="#ffffff"/><g transform="scale(17.143)"><g transform="translate(1,1)"><path fill-rule="evenodd" d="M8 0L8 1L9 1L9 2L8 2L8 5L9 5L9 4L11 4L11 5L10 5L10 10L9 10L9 12L8 12L8 13L9 13L9 14L5 14L5 11L8 11L8 9L9 9L9 8L8 8L8 9L7 9L7 8L6 8L6 9L5 9L5 10L4 10L4 11L3 11L3 9L4 9L4 8L0 8L0 12L2 12L2 11L3 11L3 12L4 12L4 14L5 14L5 15L2 15L2 14L3 14L3 13L1 13L1 15L0 15L0 16L3 16L3 17L2 17L2 21L3 21L3 19L4 19L4 20L5 20L5 18L4 18L4 17L5 17L5 16L6 16L6 17L9 17L9 19L8 19L8 20L6 20L6 21L7 21L7 22L5 22L5 21L4 21L4 22L5 22L5 23L4 23L4 24L5 24L5 25L8 25L8 26L10 26L10 27L9 27L9 29L8 29L8 33L9 33L9 32L10 32L10 31L12 31L12 32L11 32L11 33L12 33L12 32L13 32L13 33L14 33L14 32L13 32L13 29L14 29L14 30L15 30L15 32L16 32L16 33L20 33L20 31L19 31L19 30L17 30L17 28L16 28L16 27L17 27L17 26L18 26L18 27L19 27L19 28L18 28L18 29L19 29L19 28L20 28L20 27L21 27L21 31L22 31L22 32L21 32L21 33L22 33L22 32L23 32L23 30L22 30L22 27L21 27L21 23L23 23L23 24L22 24L22 26L23 26L23 27L24 27L24 28L23 28L23 29L25 29L25 30L24 30L24 32L25 32L25 33L26 33L26 32L27 32L27 33L28 33L28 32L30 32L30 33L31 33L31 32L30 32L30 29L31 29L31 31L32 31L32 32L33 32L33 31L32 31L32 29L33 29L33 27L31 27L31 26L30 26L30 24L29 24L29 23L28 23L28 24L26 24L26 23L27 23L27 22L28 22L28 21L26 21L26 20L29 20L29 21L30 21L30 22L31 22L31 24L32 24L32 25L33 25L33 24L32 24L32 23L33 23L33 21L31 21L31 20L30 20L30 18L31 18L31 19L32 19L32 20L33 20L33 19L32 19L32 18L33 18L33 16L31 16L31 14L32 14L32 13L30 13L30 14L28 14L28 15L27 15L27 14L26 14L26 13L25 13L25 10L26 10L26 11L27 11L27 13L29 13L29 12L28 12L28 11L31 11L31 12L32 12L32 11L33 11L33 8L32 8L32 9L31 9L31 8L28 8L28 9L26 9L26 8L25 8L25 6L24 6L24 8L23 8L23 6L22 6L22 4L21 4L21 3L20 3L20 4L19 4L19 2L18 2L18 1L21 1L21 2L22 2L22 1L23 1L23 2L24 2L24 3L25 3L25 2L24 2L24 0L18 0L18 1L17 1L17 2L15 2L15 5L17 5L17 6L16 6L16 7L15 7L15 6L14 6L14 1L15 1L15 0L14 0L14 1L13 1L13 0L12 0L12 1L11 1L11 0L10 0L10 1L9 1L9 0ZM11 2L11 4L12 4L12 3L13 3L13 2ZM17 2L17 3L16 3L16 4L17 4L17 3L18 3L18 2ZM24 4L24 5L25 5L25 4ZM12 5L12 6L11 6L11 8L12 8L12 6L13 6L13 10L14 10L14 12L15 12L15 11L16 11L16 10L18 10L18 9L17 9L17 8L15 8L15 9L14 9L14 6L13 6L13 5ZM18 5L18 6L17 6L17 7L18 7L18 6L19 6L19 8L20 8L20 9L21 9L21 8L22 8L22 6L21 6L21 5L20 5L20 6L19 6L19 5ZM8 6L8 7L9 7L9 6ZM20 6L20 7L21 7L21 6ZM24 8L24 10L25 10L25 8ZM1 9L1 11L2 11L2 9ZM6 9L6 10L7 10L7 9ZM11 9L11 10L12 10L12 9ZM28 9L28 10L27 10L27 11L28 11L28 10L31 10L31 11L32 11L32 10L31 10L31 9ZM19 10L19 11L17 11L17 12L16 12L16 13L17 13L17 12L18 12L18 14L17 14L17 16L16 16L16 14L14 14L14 13L13 13L13 14L12 14L12 16L11 16L11 17L10 17L10 18L11 18L11 19L12 19L12 20L10 20L10 19L9 19L9 22L7 22L7 23L5 23L5 24L7 24L7 23L8 23L8 24L9 24L9 23L10 23L10 24L11 24L11 23L14 23L14 25L13 25L13 24L12 24L12 26L11 26L11 27L10 27L10 29L9 29L9 30L10 30L10 29L11 29L11 30L12 30L12 29L13 29L13 28L15 28L15 27L16 27L16 26L17 26L17 25L16 25L16 26L15 26L15 24L16 24L16 19L15 19L15 18L13 18L13 17L12 17L12 16L14 16L14 15L15 15L15 17L16 17L16 18L17 18L17 19L18 19L18 21L17 21L17 24L19 24L19 25L20 25L20 23L21 23L21 22L22 22L22 21L20 21L20 19L21 19L21 20L22 20L22 19L25 19L25 20L23 20L23 21L24 21L24 22L25 22L25 23L26 23L26 22L25 22L25 20L26 20L26 15L25 15L25 14L24 14L24 11L23 11L23 10L21 10L21 11L20 11L20 10ZM11 11L11 13L10 13L10 15L8 15L8 16L10 16L10 15L11 15L11 13L12 13L12 12L13 12L13 11ZM6 12L6 13L7 13L7 12ZM20 12L20 13L19 13L19 14L18 14L18 15L19 15L19 16L20 16L20 14L21 14L21 12ZM22 13L22 15L21 15L21 17L22 17L22 15L23 15L23 18L25 18L25 16L24 16L24 15L23 15L23 13ZM6 15L6 16L7 16L7 15ZM28 15L28 16L30 16L30 15ZM0 17L0 19L1 19L1 17ZM18 17L18 19L19 19L19 17ZM27 17L27 18L28 18L28 17ZM31 17L31 18L32 18L32 17ZM6 18L6 19L7 19L7 18ZM14 20L14 21L15 21L15 20ZM0 21L0 22L1 22L1 21ZM10 21L10 23L11 23L11 21ZM19 21L19 22L18 22L18 23L19 23L19 22L20 22L20 21ZM2 22L2 23L1 23L1 24L0 24L0 25L1 25L1 24L2 24L2 23L3 23L3 22ZM25 25L25 28L28 28L28 25ZM12 26L12 28L11 28L11 29L12 29L12 28L13 28L13 27L14 27L14 26ZM26 26L26 27L27 27L27 26ZM29 26L29 29L28 29L28 31L27 31L27 32L28 32L28 31L29 31L29 29L30 29L30 26ZM31 28L31 29L32 29L32 28ZM26 29L26 30L27 30L27 29ZM16 30L16 32L17 32L17 30ZM25 31L25 32L26 32L26 31ZM0 0L0 7L7 7L7 0ZM1 1L1 6L6 6L6 1ZM2 2L2 5L5 5L5 2ZM26 0L26 7L33 7L33 0ZM27 1L27 6L32 6L32 1ZM28 2L28 5L31 5L31 2ZM0 26L0 33L7 33L7 26ZM1 27L1 32L6 32L6 27ZM2 28L2 31L5 31L5 28Z" fill="#000000"/></g></g></svg>
