<?xml version="1.0" encoding="UTF-8"?>
<svg xmlns="http://www.w3.org/2000/svg" version="1.1" width="600" height="600" viewBox="0 0 600 600"><rect x="0" y="0" width="600" height="600" fill="#ffffff"/><g transform="scale(17.143)"><g transform="translate(1,1)"><path fill-rule="evenodd" d="M8 0L8 1L9 1L9 2L8 2L8 5L9 5L9 4L11 4L11 5L10 5L10 10L9 10L9 8L8 8L8 9L7 9L7 8L6 8L6 9L7 9L7 10L6 10L6 11L5 11L5 9L4 9L4 8L0 8L0 11L2 11L2 15L3 15L3 16L4 16L4 18L2 18L2 16L1 16L1 17L0 17L0 20L1 20L1 18L2 18L2 19L4 19L4 20L3 20L3 21L2 21L2 23L1 23L1 24L0 24L0 25L1 25L1 24L2 24L2 25L3 25L3 24L2 24L2 23L3 23L3 22L4 22L4 24L5 24L5 25L8 25L8 26L9 26L9 27L11 27L11 26L12 26L12 28L11 28L11 29L12 29L12 30L11 30L11 31L12 31L12 32L10 32L10 31L9 31L9 29L8 29L8 33L9 33L9 32L10 32L10 33L12 33L12 32L13 32L13 33L14 33L14 32L13 32L13 31L14 31L14 28L13 28L13 26L12 26L12 24L13 24L13 25L14 25L14 26L16 26L16 25L17 25L17 27L18 27L18 29L19 29L19 27L20 27L20 30L21 30L21 31L22 31L22 32L19 32L19 31L16 31L16 30L17 30L17 28L16 28L16 27L15 27L15 32L16 32L16 33L24 33L24 32L25 32L25 33L26 33L26 32L27 32L27 33L28 33L28 31L27 31L27 30L24 30L24 29L29 29L29 28L30 28L30 29L31 29L31 31L32 31L32 32L33 32L33 31L32 31L32 29L33 29L33 27L30 27L30 26L31 26L31 25L30 25L30 26L29 26L29 24L30 24L30 21L31 21L31 24L32 24L32 25L33 25L33 24L32 24L32 23L33 23L33 21L31 21L31 20L30 20L30 21L29 21L29 24L27 24L27 23L28 23L28 22L27 22L27 21L26 21L26 20L28 20L28 18L29 18L29 19L30 19L30 18L31 18L31 19L32 19L32 20L33 20L33 19L32 19L32 18L33 18L33 16L31 16L31 14L32 14L32 13L30 13L30 14L29 14L29 15L30 15L30 16L28 16L28 13L29 13L29 11L31 11L31 12L32 12L32 11L33 11L33 8L32 8L32 9L31 9L31 8L28 8L28 9L31 9L31 10L29 10L29 11L28 11L28 13L27 13L27 15L26 15L26 12L27 12L27 11L26 11L26 10L27 10L27 9L26 9L26 8L25 8L25 6L24 6L24 9L22 9L22 8L21 8L21 9L20 9L20 8L19 8L19 6L20 6L20 7L21 7L21 6L20 6L20 5L21 5L21 2L22 2L22 5L23 5L23 2L24 2L24 5L25 5L25 1L24 1L24 0L23 0L23 1L20 1L20 0L19 0L19 1L17 1L17 2L19 2L19 1L20 1L20 4L19 4L19 3L16 3L16 2L15 2L15 0L12 0L12 1L11 1L11 0L10 0L10 1L9 1L9 0ZM13 1L13 2L11 2L11 4L12 4L12 3L13 3L13 2L14 2L14 1ZM14 3L14 6L13 6L13 5L12 5L12 6L11 6L11 8L12 8L12 6L13 6L13 10L14 10L14 9L15 9L15 11L14 11L14 13L13 13L13 14L12 14L12 16L11 16L11 15L10 15L10 14L11 14L11 13L12 13L12 12L13 12L13 11L11 11L11 13L9 13L9 14L8 14L8 12L7 12L7 11L6 11L6 12L7 12L7 13L4 13L4 14L3 14L3 15L4 15L4 16L7 16L7 15L8 15L8 16L9 16L9 15L10 15L10 17L8 17L8 18L7 18L7 17L5 17L5 18L7 18L7 19L6 19L6 20L4 20L4 22L9 22L9 23L5 23L5 24L9 24L9 25L10 25L10 22L9 22L9 21L8 21L8 20L11 20L11 23L13 23L13 22L15 22L15 23L14 23L14 24L15 24L15 23L16 23L16 24L18 24L18 23L20 23L20 22L19 22L19 20L20 20L20 21L21 21L21 22L22 22L22 21L21 21L21 20L23 20L23 21L24 21L24 22L26 22L26 23L27 23L27 22L26 22L26 21L24 21L24 20L23 20L23 19L24 19L24 18L25 18L25 19L27 19L27 18L25 18L25 16L26 16L26 15L24 15L24 11L23 11L23 10L22 10L22 11L21 11L21 10L19 10L19 8L18 8L18 9L17 9L17 8L14 8L14 6L15 6L15 7L16 7L16 5L17 5L17 7L18 7L18 5L17 5L17 4L16 4L16 5L15 5L15 3ZM8 6L8 7L9 7L9 6ZM22 6L22 7L23 7L23 6ZM1 9L1 10L2 10L2 11L3 11L3 12L5 12L5 11L4 11L4 9ZM11 9L11 10L12 10L12 9ZM24 9L24 10L26 10L26 9ZM8 10L8 11L9 11L9 10ZM31 10L31 11L32 11L32 10ZM18 11L18 12L15 12L15 14L13 14L13 15L15 15L15 16L12 16L12 17L13 17L13 18L14 18L14 19L15 19L15 20L14 20L14 21L15 21L15 20L16 20L16 22L17 22L17 23L18 23L18 20L19 20L19 17L18 17L18 18L17 18L17 16L16 16L16 15L15 15L15 14L16 14L16 13L17 13L17 15L18 15L18 16L19 16L19 15L20 15L20 16L21 16L21 17L22 17L22 16L24 16L24 15L22 15L22 13L21 13L21 15L20 15L20 13L19 13L19 15L18 15L18 12L21 12L21 11ZM25 11L25 12L26 12L26 11ZM5 14L5 15L7 15L7 14ZM15 16L15 17L16 17L16 16ZM10 17L10 18L9 18L9 19L10 19L10 18L11 18L11 17ZM23 17L23 18L24 18L24 17ZM31 17L31 18L32 18L32 17ZM16 18L16 20L17 20L17 18ZM20 18L20 19L21 19L21 18ZM11 19L11 20L12 20L12 19ZM6 20L6 21L7 21L7 20ZM0 21L0 22L1 22L1 21ZM21 23L21 24L19 24L19 25L20 25L20 26L21 26L21 27L22 27L22 30L23 30L23 26L24 26L24 24L25 24L25 23L24 23L24 24L23 24L23 23ZM22 24L22 26L23 26L23 24ZM25 25L25 28L28 28L28 25ZM18 26L18 27L19 27L19 26ZM26 26L26 27L27 27L27 26ZM12 28L12 29L13 29L13 28ZM31 28L31 29L32 29L32 28ZM29 30L29 32L30 32L30 33L31 33L31 32L30 32L30 30ZM0 0L0 7L7 7L7 0ZM1 1L1 6L6 6L6 1ZM2 2L2 5L5 5L5 2ZM26 0L26 7L33 7L33 0ZM27 1L27 6L32 6L32 1ZM28 2L28 5L31 5L31 2ZM0 26L0 33L7 33L7 26ZM1 27L1 32L6 32L6 27ZM2 28L2 31L5 31L5 28Z" fill="#000000"/></g></g></svg>
