<?xml version="1.0" encoding="UTF-8"?>
<svg xmlns="http://www.w3.org/2000/svg" version="1.1" width="600" height="600" viewBox="0 0 600 600"><rect x="0" y="0" width="600" height="600" fill="#ffffff"/><g transform="scale(15.385)"><g transform="translate(1,1)"><path fill-rule="evenodd" d="M8 0L8 1L9 1L9 2L8 2L8 5L9 5L9 4L11 4L11 5L10 5L10 9L9 9L9 8L8 8L8 9L7 9L7 8L6 8L6 9L5 9L5 11L4 11L4 12L3 12L3 11L2 11L2 12L1 12L1 13L0 13L0 15L1 15L1 13L2 13L2 15L3 15L3 16L2 16L2 17L1 17L1 16L0 16L0 18L2 18L2 20L1 20L1 19L0 19L0 20L1 20L1 22L0 22L0 24L1 24L1 25L2 25L2 24L1 24L1 22L4 22L4 23L5 23L5 24L4 24L4 25L3 25L3 27L2 27L2 26L1 26L1 27L0 27L0 28L1 28L1 27L2 27L2 29L3 29L3 28L4 28L4 29L5 29L5 28L6 28L6 29L7 29L7 28L9 28L9 29L8 29L8 30L9 30L9 29L10 29L10 30L11 30L11 31L12 31L12 32L10 32L10 31L9 31L9 33L8 33L8 37L9 37L9 33L12 33L12 34L10 34L10 35L14 35L14 34L15 34L15 33L14 33L14 32L13 32L13 30L14 30L14 29L12 29L12 28L14 28L14 27L15 27L15 28L16 28L16 29L15 29L15 31L17 31L17 33L18 33L18 31L19 31L19 34L18 34L18 35L19 35L19 34L20 34L20 37L21 37L21 34L22 34L22 36L24 36L24 37L27 37L27 36L26 36L26 35L28 35L28 34L27 34L27 33L26 33L26 35L24 35L24 34L25 34L25 31L23 31L23 30L26 30L26 32L28 32L28 33L30 33L30 34L29 34L29 37L30 37L30 36L31 36L31 37L32 37L32 35L33 35L33 37L37 37L37 36L35 36L35 35L34 35L34 34L37 34L37 33L33 33L33 32L34 32L34 31L33 31L33 30L34 30L34 29L36 29L36 30L35 30L35 32L36 32L36 31L37 31L37 27L36 27L36 26L37 26L37 24L35 24L35 23L34 23L34 22L36 22L36 19L37 19L37 17L36 17L36 16L37 16L37 15L36 15L36 16L34 16L34 17L33 17L33 18L31 18L31 17L32 17L32 16L31 16L31 15L34 15L34 14L35 14L35 11L36 11L36 12L37 12L37 11L36 11L36 10L35 10L35 8L32 8L32 9L34 9L34 10L30 10L30 12L29 12L29 10L28 10L28 11L24 11L24 9L23 9L23 8L25 8L25 6L26 6L26 8L27 8L27 9L25 9L25 10L27 10L27 9L30 9L30 8L29 8L29 6L28 6L28 7L27 7L27 5L28 5L28 4L29 4L29 2L28 2L28 4L27 4L27 2L26 2L26 1L27 1L27 0L18 0L18 1L16 1L16 0L12 0L12 1L11 1L11 0L10 0L10 1L9 1L9 0ZM14 1L14 2L11 2L11 4L12 4L12 3L13 3L13 5L12 5L12 6L11 6L11 8L12 8L12 6L13 6L13 8L14 8L14 9L15 9L15 7L16 7L16 6L15 6L15 5L16 5L16 4L17 4L17 7L18 7L18 4L17 4L17 3L19 3L19 4L23 4L23 7L24 7L24 6L25 6L25 5L27 5L27 4L25 4L25 1L24 1L24 2L23 2L23 1L21 1L21 3L20 3L20 1L19 1L19 2L17 2L17 3L16 3L16 1ZM14 3L14 5L13 5L13 6L14 6L14 7L15 7L15 6L14 6L14 5L15 5L15 4L16 4L16 3ZM23 3L23 4L24 4L24 3ZM20 5L20 6L19 6L19 8L18 8L18 9L17 9L17 8L16 8L16 10L14 10L14 11L11 11L11 13L12 13L12 12L13 12L13 14L12 14L12 16L10 16L10 17L9 17L9 16L8 16L8 13L6 13L6 14L7 14L7 15L6 15L6 16L7 16L7 17L6 17L6 18L7 18L7 17L8 17L8 18L9 18L9 19L6 19L6 20L7 20L7 21L6 21L6 22L5 22L5 23L6 23L6 24L5 24L5 27L4 27L4 28L5 28L5 27L6 27L6 28L7 28L7 27L6 27L6 26L8 26L8 27L9 27L9 28L10 28L10 29L11 29L11 30L12 30L12 29L11 29L11 28L12 28L12 26L13 26L13 27L14 27L14 26L15 26L15 27L16 27L16 28L17 28L17 31L18 31L18 29L19 29L19 31L20 31L20 33L21 33L21 32L23 32L23 33L24 33L24 32L23 32L23 31L22 31L22 30L23 30L23 28L22 28L22 29L21 29L21 28L20 28L20 27L18 27L18 26L19 26L19 25L20 25L20 26L21 26L21 27L25 27L25 28L24 28L24 29L25 29L25 28L26 28L26 27L27 27L27 29L28 29L28 26L26 26L26 25L25 25L25 26L24 26L24 24L25 24L25 23L27 23L27 24L28 24L28 25L29 25L29 26L30 26L30 27L29 27L29 28L30 28L30 27L31 27L31 28L33 28L33 29L34 29L34 28L36 28L36 27L35 27L35 26L36 26L36 25L34 25L34 24L33 24L33 23L32 23L32 22L34 22L34 21L35 21L35 17L34 17L34 20L33 20L33 19L32 19L32 20L33 20L33 21L32 21L32 22L31 22L31 19L29 19L29 18L30 18L30 17L31 17L31 16L30 16L30 15L31 15L31 14L30 14L30 13L29 13L29 14L30 14L30 15L29 15L29 17L28 17L28 16L27 16L27 15L28 15L28 14L27 14L27 15L26 15L26 13L25 13L25 15L24 15L24 11L22 11L22 10L21 10L21 9L20 9L20 10L19 10L19 8L20 8L20 6L21 6L21 8L22 8L22 5ZM8 6L8 7L9 7L9 6ZM0 8L0 9L1 9L1 10L2 10L2 9L3 9L3 10L4 10L4 8ZM36 8L36 9L37 9L37 8ZM6 9L6 10L7 10L7 9ZM11 9L11 10L12 10L12 9ZM8 10L8 11L6 11L6 12L9 12L9 14L10 14L10 12L9 12L9 11L10 11L10 10ZM16 10L16 12L14 12L14 14L13 14L13 15L14 15L14 18L13 18L13 21L15 21L15 22L14 22L14 23L10 23L10 22L9 22L9 21L10 21L10 20L12 20L12 19L11 19L11 18L10 18L10 20L9 20L9 21L7 21L7 22L6 22L6 23L7 23L7 24L6 24L6 25L7 25L7 24L8 24L8 23L10 23L10 24L11 24L11 25L8 25L8 26L9 26L9 27L10 27L10 26L12 26L12 24L16 24L16 22L17 22L17 21L18 21L18 19L19 19L19 17L18 17L18 18L17 18L17 14L19 14L19 15L18 15L18 16L20 16L20 18L21 18L21 17L22 17L22 19L23 19L23 20L19 20L19 22L18 22L18 23L19 23L19 22L20 22L20 21L21 21L21 22L22 22L22 24L24 24L24 23L25 23L25 22L24 22L24 21L23 21L23 20L25 20L25 19L26 19L26 20L27 20L27 21L26 21L26 22L27 22L27 21L28 21L28 23L29 23L29 25L30 25L30 26L32 26L32 27L33 27L33 28L34 28L34 26L33 26L33 24L32 24L32 23L30 23L30 20L29 20L29 19L28 19L28 17L27 17L27 16L22 16L22 15L20 15L20 14L21 14L21 12L20 12L20 13L19 13L19 12L17 12L17 10ZM32 11L32 12L31 12L31 13L32 13L32 12L34 12L34 11ZM4 12L4 13L3 13L3 14L5 14L5 12ZM16 12L16 13L15 13L15 14L14 14L14 15L15 15L15 16L16 16L16 15L15 15L15 14L16 14L16 13L17 13L17 12ZM22 13L22 14L23 14L23 13ZM36 13L36 14L37 14L37 13ZM12 16L12 17L13 17L13 16ZM2 17L2 18L3 18L3 20L4 20L4 21L5 21L5 20L4 20L4 18L5 18L5 17ZM15 17L15 18L16 18L16 17ZM24 17L24 18L23 18L23 19L25 19L25 17ZM26 18L26 19L27 19L27 18ZM15 19L15 21L16 21L16 20L17 20L17 19ZM17 24L17 25L19 25L19 24ZM13 25L13 26L14 26L14 25ZM22 25L22 26L23 26L23 25ZM29 29L29 32L32 32L32 29ZM27 30L27 31L28 31L28 30ZM30 30L30 31L31 31L31 30ZM16 34L16 35L17 35L17 34ZM12 36L12 37L13 37L13 36ZM14 36L14 37L15 37L15 36ZM17 36L17 37L19 37L19 36ZM0 0L0 7L7 7L7 0ZM1 1L1 6L6 6L6 1ZM2 2L2 5L5 5L5 2ZM30 0L30 7L37 7L37 0ZM31 1L31 6L36 6L36 1ZM32 2L32 5L35 5L35 2ZM0 30L0 37L7 37L7 30ZM1 31L1 36L6 36L6 31ZM2 32L2 35L5 35L5 32Z" fill="#000000"/></g></g></svg>
