<?xml version="1.0" encoding="UTF-8"?>
<svg xmlns="http://www.w3.org/2000/svg" version="1.1" width="600" height="600" viewBox="0 0 600 600"><rect x="0" y="0" width="600" height="600" fill="#ffffff"/><g transform="scale(17.143)"><g transform="translate(1,1)"><path fill-rule="evenodd" d="M9 0L9 1L8 1L8 2L9 2L9 3L8 3L8 4L10 4L10 7L11 7L11 4L12 4L12 5L13 5L13 6L12 6L12 9L13 9L13 8L14 8L14 9L19 9L19 10L18 10L18 12L17 12L17 11L16 11L16 10L15 10L15 11L14 11L14 12L15 12L15 13L12 13L12 11L13 11L13 10L11 10L11 11L10 11L10 9L11 9L11 8L6 8L6 9L5 9L5 8L0 8L0 9L5 9L5 11L4 11L4 10L2 10L2 11L3 11L3 13L4 13L4 14L5 14L5 11L8 11L8 12L9 12L9 14L8 14L8 13L7 13L7 12L6 12L6 13L7 13L7 14L6 14L6 15L7 15L7 16L5 16L5 15L3 15L3 14L2 14L2 15L3 15L3 16L2 16L2 17L3 17L3 16L5 16L5 17L4 17L4 18L3 18L3 20L5 20L5 22L6 22L6 23L8 23L8 24L9 24L9 25L8 25L8 27L9 27L9 28L8 28L8 33L11 33L11 29L12 29L12 30L13 30L13 31L12 31L12 33L13 33L13 32L14 32L14 33L16 33L16 32L17 32L17 33L18 33L18 32L22 32L22 33L26 33L26 31L27 31L27 30L29 30L29 32L31 32L31 33L32 33L32 32L31 32L31 31L30 31L30 30L33 30L33 28L31 28L31 27L32 27L32 26L33 26L33 24L32 24L32 26L31 26L31 27L30 27L30 25L29 25L29 24L31 24L31 23L32 23L32 22L33 22L33 21L32 21L32 20L31 20L31 19L32 19L32 18L33 18L33 17L32 17L32 16L31 16L31 15L32 15L32 14L33 14L33 13L31 13L31 15L30 15L30 13L29 13L29 12L28 12L28 11L29 11L29 10L28 10L28 11L27 11L27 12L28 12L28 13L29 13L29 14L28 14L28 16L27 16L27 13L26 13L26 14L25 14L25 13L21 13L21 12L23 12L23 10L25 10L25 11L24 11L24 12L25 12L25 11L26 11L26 10L27 10L27 9L28 9L28 8L27 8L27 9L26 9L26 8L25 8L25 9L24 9L24 7L25 7L25 6L24 6L24 7L23 7L23 6L22 6L22 7L21 7L21 6L20 6L20 7L19 7L19 6L18 6L18 8L14 8L14 7L15 7L15 6L16 6L16 7L17 7L17 5L14 5L14 4L12 4L12 2L14 2L14 3L15 3L15 4L19 4L19 5L22 5L22 4L23 4L23 5L24 5L24 4L23 4L23 1L24 1L24 2L25 2L25 0L22 0L22 1L21 1L21 3L22 3L22 4L19 4L19 3L20 3L20 2L19 2L19 1L20 1L20 0L19 0L19 1L18 1L18 0L17 0L17 1L18 1L18 2L19 2L19 3L16 3L16 1L15 1L15 0L14 0L14 1L11 1L11 2L10 2L10 0ZM14 1L14 2L15 2L15 1ZM10 3L10 4L11 4L11 3ZM8 5L8 7L9 7L9 5ZM13 6L13 7L14 7L14 6ZM20 7L20 8L19 8L19 9L20 9L20 10L19 10L19 12L18 12L18 13L15 13L15 14L16 14L16 16L15 16L15 15L14 15L14 16L13 16L13 17L12 17L12 15L13 15L13 14L12 14L12 13L11 13L11 12L10 12L10 13L11 13L11 15L10 15L10 16L9 16L9 15L8 15L8 17L5 17L5 18L4 18L4 19L6 19L6 20L7 20L7 21L6 21L6 22L7 22L7 21L9 21L9 22L8 22L8 23L11 23L11 26L13 26L13 27L12 27L12 29L15 29L15 30L16 30L16 31L17 31L17 32L18 32L18 31L23 31L23 32L25 32L25 31L26 31L26 30L27 30L27 29L26 29L26 30L25 30L25 29L24 29L24 28L23 28L23 27L22 27L22 26L23 26L23 25L24 25L24 24L26 24L26 23L27 23L27 24L28 24L28 23L30 23L30 22L31 22L31 20L29 20L29 21L27 21L27 18L28 18L28 19L29 19L29 17L30 17L30 19L31 19L31 16L30 16L30 15L29 15L29 17L27 17L27 16L26 16L26 17L25 17L25 18L22 18L22 17L23 17L23 16L21 16L21 17L20 17L20 15L24 15L24 16L25 16L25 14L21 14L21 13L20 13L20 14L18 14L18 13L19 13L19 12L21 12L21 11L22 11L22 10L21 10L21 9L23 9L23 7L22 7L22 8L21 8L21 7ZM20 8L20 9L21 9L21 8ZM29 8L29 9L30 9L30 8ZM31 8L31 10L33 10L33 9L32 9L32 8ZM6 9L6 10L7 10L7 9ZM8 9L8 10L9 10L9 9ZM0 10L0 11L1 11L1 10ZM30 11L30 12L31 12L31 11ZM0 12L0 15L1 15L1 12ZM18 15L18 16L16 16L16 17L19 17L19 18L20 18L20 17L19 17L19 15ZM0 16L0 19L1 19L1 20L0 20L0 25L1 25L1 21L2 21L2 22L3 22L3 25L4 25L4 24L5 24L5 23L4 23L4 22L3 22L3 21L2 21L2 18L1 18L1 16ZM10 16L10 17L11 17L11 16ZM14 16L14 17L15 17L15 16ZM8 17L8 18L6 18L6 19L7 19L7 20L9 20L9 21L10 21L10 22L11 22L11 21L12 21L12 22L13 22L13 23L12 23L12 25L13 25L13 24L14 24L14 25L19 25L19 26L20 26L20 25L21 25L21 26L22 26L22 25L23 25L23 23L22 23L22 22L24 22L24 23L26 23L26 22L27 22L27 23L28 23L28 22L27 22L27 21L26 21L26 18L27 18L27 17L26 17L26 18L25 18L25 19L23 19L23 20L25 20L25 22L24 22L24 21L22 21L22 22L21 22L21 21L18 21L18 20L17 20L17 19L18 19L18 18L17 18L17 19L16 19L16 18L15 18L15 19L14 19L14 20L15 20L15 21L12 21L12 19L13 19L13 18L9 18L9 17ZM8 18L8 19L9 19L9 20L10 20L10 21L11 21L11 19L9 19L9 18ZM21 18L21 19L20 19L20 20L22 20L22 18ZM16 20L16 21L15 21L15 22L16 22L16 21L17 21L17 22L18 22L18 21L17 21L17 20ZM29 21L29 22L30 22L30 21ZM19 22L19 23L14 23L14 24L19 24L19 25L20 25L20 24L21 24L21 25L22 25L22 24L21 24L21 23L20 23L20 22ZM19 23L19 24L20 24L20 23ZM6 24L6 25L7 25L7 24ZM25 25L25 28L28 28L28 25ZM9 26L9 27L10 27L10 28L9 28L9 29L10 29L10 28L11 28L11 27L10 27L10 26ZM15 26L15 27L14 27L14 28L15 28L15 29L19 29L19 30L20 30L20 29L21 29L21 30L22 30L22 29L23 29L23 28L22 28L22 27L21 27L21 28L20 28L20 27L19 27L19 28L15 28L15 27L18 27L18 26ZM26 26L26 27L27 27L27 26ZM19 28L19 29L20 29L20 28ZM21 28L21 29L22 29L22 28ZM29 28L29 30L30 30L30 29L31 29L31 28ZM17 30L17 31L18 31L18 30ZM23 30L23 31L24 31L24 30ZM9 31L9 32L10 32L10 31ZM14 31L14 32L15 32L15 31ZM27 32L27 33L28 33L28 32ZM0 0L0 7L7 7L7 0ZM1 1L1 6L6 6L6 1ZM2 2L2 5L5 5L5 2ZM26 0L26 7L33 7L33 0ZM27 1L27 6L32 6L32 1ZM28 2L28 5L31 5L31 2ZM0 26L0 33L7 33L7 26ZM1 27L1 32L6 32L6 27ZM2 28L2 31L5 31L5 28Z" fill="#000000"/></g></g></svg>
