<?xml version="1.0" encoding="UTF-8"?>
<svg xmlns="http://www.w3.org/2000/svg" version="1.1" width="600" height="600" viewBox="0 0 600 600"><rect x="0" y="0" width="600" height="600" fill="#ffffff"/><g transform="scale(17.143)"><g transform="translate(1,1)"><path fill-rule="evenodd" d="M8 0L8 1L9 1L9 2L8 2L8 5L9 5L9 4L11 4L11 5L10 5L10 10L9 10L9 8L8 8L8 10L9 10L9 11L7 11L7 10L4 10L4 8L0 8L0 10L1 10L1 11L2 11L2 10L1 10L1 9L3 9L3 12L4 12L4 13L2 13L2 12L1 12L1 13L0 13L0 14L1 14L1 15L2 15L2 14L5 14L5 16L4 16L4 15L3 15L3 16L4 16L4 17L5 17L5 16L6 16L6 17L7 17L7 18L5 18L5 19L1 19L1 18L3 18L3 17L2 17L2 16L0 16L0 17L1 17L1 18L0 18L0 19L1 19L1 20L0 20L0 22L2 22L2 23L1 23L1 24L0 24L0 25L1 25L1 24L2 24L2 25L4 25L4 24L5 24L5 25L8 25L8 26L9 26L9 27L10 27L10 28L9 28L9 29L8 29L8 33L10 33L10 31L12 31L12 32L11 32L11 33L12 33L12 32L13 32L13 33L14 33L14 32L13 32L13 29L14 29L14 30L15 30L15 31L16 31L16 29L15 29L15 27L14 27L14 28L13 28L13 26L12 26L12 24L13 24L13 25L14 25L14 24L15 24L15 26L17 26L17 25L18 25L18 26L19 26L19 27L18 27L18 29L19 29L19 28L20 28L20 32L19 32L19 30L17 30L17 33L18 33L18 32L19 32L19 33L24 33L24 32L25 32L25 33L26 33L26 32L27 32L27 33L28 33L28 31L27 31L27 30L24 30L24 29L29 29L29 28L30 28L30 29L31 29L31 31L32 31L32 32L33 32L33 31L32 31L32 29L33 29L33 27L30 27L30 26L31 26L31 25L30 25L30 26L29 26L29 24L30 24L30 21L31 21L31 24L32 24L32 25L33 25L33 24L32 24L32 23L33 23L33 21L31 21L31 20L30 20L30 21L29 21L29 24L27 24L27 23L28 23L28 22L27 22L27 21L26 21L26 20L28 20L28 18L29 18L29 19L30 19L30 18L31 18L31 19L32 19L32 20L33 20L33 19L32 19L32 18L33 18L33 16L31 16L31 14L32 14L32 13L30 13L30 14L29 14L29 15L30 15L30 16L28 16L28 13L29 13L29 11L31 11L31 12L32 12L32 11L33 11L33 8L32 8L32 9L31 9L31 8L28 8L28 9L31 9L31 10L29 10L29 11L28 11L28 13L27 13L27 15L26 15L26 12L27 12L27 11L26 11L26 10L27 10L27 9L26 9L26 8L25 8L25 6L24 6L24 9L22 9L22 8L21 8L21 3L20 3L20 2L18 2L18 1L21 1L21 2L22 2L22 5L23 5L23 2L24 2L24 5L25 5L25 1L24 1L24 0L23 0L23 1L21 1L21 0L18 0L18 1L16 1L16 3L14 3L14 2L13 2L13 0L12 0L12 1L11 1L11 0L10 0L10 1L9 1L9 0ZM14 0L14 1L15 1L15 0ZM11 2L11 4L12 4L12 3L13 3L13 2ZM17 2L17 3L16 3L16 4L17 4L17 5L14 5L14 4L13 4L13 5L12 5L12 6L11 6L11 8L12 8L12 6L13 6L13 11L11 11L11 13L10 13L10 15L9 15L9 14L8 14L8 16L7 16L7 15L6 15L6 16L7 16L7 17L8 17L8 18L7 18L7 19L6 19L6 20L5 20L5 21L4 21L4 20L2 20L2 22L3 22L3 21L4 21L4 23L5 23L5 21L6 21L6 22L7 22L7 23L6 23L6 24L7 24L7 23L9 23L9 24L10 24L10 25L9 25L9 26L10 26L10 27L11 27L11 28L10 28L10 29L9 29L9 30L10 30L10 29L11 29L11 30L12 30L12 29L13 29L13 28L12 28L12 26L11 26L11 24L10 24L10 23L13 23L13 22L14 22L14 21L15 21L15 23L16 23L16 22L19 22L19 23L17 23L17 24L16 24L16 25L17 25L17 24L19 24L19 23L20 23L20 24L21 24L21 27L20 27L20 28L21 28L21 27L22 27L22 30L23 30L23 26L24 26L24 24L25 24L25 23L24 23L24 24L23 24L23 23L20 23L20 22L22 22L22 21L20 21L20 22L19 22L19 20L23 20L23 21L24 21L24 22L26 22L26 23L27 23L27 22L26 22L26 21L24 21L24 20L23 20L23 19L24 19L24 18L25 18L25 19L27 19L27 18L25 18L25 16L26 16L26 15L24 15L24 11L23 11L23 10L22 10L22 11L21 11L21 9L20 9L20 6L19 6L19 5L18 5L18 4L17 4L17 3L18 3L18 2ZM8 6L8 7L9 7L9 6ZM14 6L14 8L15 8L15 6ZM16 6L16 7L17 7L17 8L16 8L16 10L17 10L17 9L18 9L18 11L19 11L19 10L20 10L20 9L19 9L19 6L18 6L18 7L17 7L17 6ZM22 6L22 7L23 7L23 6ZM6 8L6 9L7 9L7 8ZM11 9L11 10L12 10L12 9ZM14 9L14 10L15 10L15 9ZM24 9L24 10L26 10L26 9ZM31 10L31 11L32 11L32 10ZM4 11L4 12L5 12L5 13L6 13L6 14L7 14L7 13L8 13L8 12L7 12L7 11L6 11L6 12L5 12L5 11ZM13 11L13 12L12 12L12 13L11 13L11 16L10 16L10 17L9 17L9 18L8 18L8 20L10 20L10 21L8 21L8 22L10 22L10 21L11 21L11 20L12 20L12 19L10 19L10 18L11 18L11 16L12 16L12 17L13 17L13 19L15 19L15 20L17 20L17 21L18 21L18 20L19 20L19 18L18 18L18 19L16 19L16 18L17 18L17 16L16 16L16 17L15 17L15 16L12 16L12 14L13 14L13 15L15 15L15 14L16 14L16 13L17 13L17 15L18 15L18 17L19 17L19 16L20 16L20 18L21 18L21 17L22 17L22 16L24 16L24 15L22 15L22 13L21 13L21 11L20 11L20 13L19 13L19 12L16 12L16 11L15 11L15 14L13 14L13 13L14 13L14 11ZM25 11L25 12L26 12L26 11ZM6 12L6 13L7 13L7 12ZM1 13L1 14L2 14L2 13ZM20 15L20 16L21 16L21 15ZM23 17L23 18L24 18L24 17ZM31 17L31 18L32 18L32 17ZM6 20L6 21L7 21L7 20ZM22 24L22 26L23 26L23 24ZM25 25L25 28L28 28L28 25ZM26 26L26 27L27 27L27 26ZM11 28L11 29L12 29L12 28ZM31 28L31 29L32 29L32 28ZM29 30L29 32L30 32L30 33L31 33L31 32L30 32L30 30ZM21 31L21 32L22 32L22 31ZM0 0L0 7L7 7L7 0ZM1 1L1 6L6 6L6 1ZM2 2L2 5L5 5L5 2ZM26 0L26 7L33 7L33 0ZM27 1L27 6L32 6L32 1ZM28 2L28 5L31 5L31 2ZM0 26L0 33L7 33L7 26ZM1 27L1 32L6 32L6 27ZM2 28L2 31L5 31L5 28Z" fill="#000000"/></g></g></svg>
