<?xml version="1.0" encoding="UTF-8"?>
<svg xmlns="http://www.w3.org/2000/svg" version="1.1" width="600" height="600" viewBox="0 0 600 600"><rect x="0" y="0" width="600" height="600" fill="#ffffff"/><g transform="scale(17.143)"><g transform="translate(1,1)"><path fill-rule="evenodd" d="M8 0L8 4L10 4L10 3L11 3L11 4L12 4L12 2L11 2L11 0ZM12 0L12 1L13 1L13 2L14 2L14 0ZM15 0L15 1L16 1L16 3L13 3L13 5L11 5L11 6L10 6L10 7L9 7L9 5L8 5L8 7L9 7L9 8L10 8L10 7L11 7L11 6L12 6L12 8L11 8L11 9L7 9L7 8L4 8L4 9L3 9L3 10L4 10L4 11L2 11L2 8L0 8L0 9L1 9L1 11L0 11L0 13L1 13L1 12L3 12L3 15L2 15L2 14L1 14L1 17L2 17L2 19L1 19L1 18L0 18L0 19L1 19L1 20L0 20L0 22L2 22L2 24L0 24L0 25L3 25L3 23L4 23L4 24L5 24L5 23L4 23L4 20L2 20L2 19L3 19L3 17L2 17L2 16L3 16L3 15L8 15L8 18L9 18L9 20L8 20L8 19L7 19L7 18L6 18L6 17L7 17L7 16L5 16L5 17L4 17L4 19L5 19L5 21L7 21L7 22L6 22L6 23L8 23L8 24L6 24L6 25L8 25L8 26L9 26L9 27L8 27L8 29L9 29L9 30L10 30L10 31L8 31L8 33L9 33L9 32L10 32L10 33L12 33L12 32L13 32L13 33L15 33L15 31L17 31L17 32L16 32L16 33L19 33L19 32L18 32L18 31L19 31L19 29L20 29L20 31L21 31L21 33L22 33L22 30L23 30L23 31L24 31L24 33L29 33L29 32L30 32L30 31L32 31L32 30L33 30L33 28L32 28L32 24L31 24L31 25L30 25L30 23L29 23L29 22L27 22L27 24L25 24L25 22L24 22L24 21L27 21L27 20L25 20L25 18L24 18L24 17L23 17L23 16L22 16L22 15L21 15L21 14L23 14L23 15L24 15L24 16L25 16L25 17L29 17L29 18L30 18L30 19L29 19L29 20L28 20L28 21L30 21L30 22L31 22L31 23L32 23L32 22L31 22L31 21L30 21L30 19L32 19L32 18L30 18L30 17L29 17L29 16L30 16L30 15L32 15L32 14L30 14L30 13L29 13L29 12L30 12L30 11L31 11L31 10L29 10L29 12L28 12L28 13L29 13L29 14L26 14L26 16L25 16L25 15L24 15L24 13L27 13L27 12L26 12L26 11L25 11L25 10L24 10L24 9L25 9L25 5L24 5L24 4L25 4L25 1L24 1L24 0L22 0L22 1L21 1L21 0L20 0L20 1L16 1L16 0ZM22 1L22 3L19 3L19 2L18 2L18 3L16 3L16 5L14 5L14 6L13 6L13 8L12 8L12 9L11 9L11 10L8 10L8 12L7 12L7 11L6 11L6 10L7 10L7 9L6 9L6 10L5 10L5 11L4 11L4 14L5 14L5 11L6 11L6 12L7 12L7 13L6 13L6 14L7 14L7 13L10 13L10 14L8 14L8 15L10 15L10 16L12 16L12 17L11 17L11 18L10 18L10 17L9 17L9 18L10 18L10 20L9 20L9 21L10 21L10 22L11 22L11 23L9 23L9 22L8 22L8 23L9 23L9 26L10 26L10 27L9 27L9 29L11 29L11 31L10 31L10 32L12 32L12 31L13 31L13 32L14 32L14 31L15 31L15 30L13 30L13 29L12 29L12 28L13 28L13 27L12 27L12 28L11 28L11 26L12 26L12 25L13 25L13 26L14 26L14 25L13 25L13 24L15 24L15 25L17 25L17 24L16 24L16 23L14 23L14 22L13 22L13 21L17 21L17 22L19 22L19 23L18 23L18 24L19 24L19 23L21 23L21 21L17 21L17 18L18 18L18 17L19 17L19 19L18 19L18 20L19 20L19 19L20 19L20 20L21 20L21 18L22 18L22 19L23 19L23 18L22 18L22 17L19 17L19 15L20 15L20 16L21 16L21 15L20 15L20 14L21 14L21 13L16 13L16 12L17 12L17 11L18 11L18 12L19 12L19 11L20 11L20 12L21 12L21 11L22 11L22 9L23 9L23 8L24 8L24 5L23 5L23 4L22 4L22 3L23 3L23 2L24 2L24 1ZM9 2L9 3L10 3L10 2ZM18 3L18 5L16 5L16 7L15 7L15 6L14 6L14 9L12 9L12 10L11 10L11 11L10 11L10 13L11 13L11 12L12 12L12 13L13 13L13 14L14 14L14 13L15 13L15 15L16 15L16 13L15 13L15 12L16 12L16 11L17 11L17 9L18 9L18 10L19 10L19 9L20 9L20 11L21 11L21 9L22 9L22 7L23 7L23 5L22 5L22 4L21 4L21 5L19 5L19 3ZM18 5L18 6L17 6L17 7L18 7L18 9L19 9L19 8L20 8L20 9L21 9L21 8L20 8L20 6L19 6L19 5ZM18 6L18 7L19 7L19 6ZM21 6L21 7L22 7L22 6ZM15 8L15 9L14 9L14 10L13 10L13 11L12 11L12 12L13 12L13 13L14 13L14 12L15 12L15 11L14 11L14 10L15 10L15 9L17 9L17 8ZM27 8L27 9L28 9L28 8ZM29 8L29 9L33 9L33 8ZM27 10L27 11L28 11L28 10ZM22 12L22 13L24 13L24 12ZM31 12L31 13L33 13L33 12ZM18 14L18 15L17 15L17 16L16 16L16 17L12 17L12 18L11 18L11 20L10 20L10 21L11 21L11 20L12 20L12 21L13 21L13 20L12 20L12 19L13 19L13 18L14 18L14 20L16 20L16 17L18 17L18 15L19 15L19 14ZM29 14L29 15L30 15L30 14ZM12 15L12 16L13 16L13 15ZM32 16L32 17L33 17L33 16ZM5 18L5 19L6 19L6 20L7 20L7 21L8 21L8 20L7 20L7 19L6 19L6 18ZM26 18L26 19L28 19L28 18ZM22 20L22 21L24 21L24 20ZM32 20L32 21L33 21L33 20ZM22 22L22 24L24 24L24 23L23 23L23 22ZM12 23L12 24L11 24L11 25L10 25L10 26L11 26L11 25L12 25L12 24L13 24L13 23ZM20 24L20 25L18 25L18 29L16 29L16 28L17 28L17 27L16 27L16 28L15 28L15 27L14 27L14 29L16 29L16 30L18 30L18 29L19 29L19 27L20 27L20 29L21 29L21 30L22 30L22 29L23 29L23 30L24 30L24 31L25 31L25 32L27 32L27 31L25 31L25 30L24 30L24 28L23 28L23 27L24 27L24 25L21 25L21 24ZM20 25L20 26L21 26L21 29L22 29L22 27L23 27L23 26L21 26L21 25ZM25 25L25 28L28 28L28 25ZM29 25L29 26L30 26L30 25ZM26 26L26 27L27 27L27 26ZM30 27L30 29L31 29L31 27ZM29 30L29 31L28 31L28 32L29 32L29 31L30 31L30 30ZM32 32L32 33L33 33L33 32ZM0 0L0 7L7 7L7 0ZM1 1L1 6L6 6L6 1ZM2 2L2 5L5 5L5 2ZM26 0L26 7L33 7L33 0ZM27 1L27 6L32 6L32 1ZM28 2L28 5L31 5L31 2ZM0 26L0 33L7 33L7 26ZM1 27L1 32L6 32L6 27ZM2 28L2 31L5 31L5 28Z" fill="#000000"/></g></g></svg>
