<?xml version="1.0" encoding="UTF-8"?>
<svg xmlns="http://www.w3.org/2000/svg" version="1.1" width="600" height="600" viewBox="0 0 600 600"><rect x="0" y="0" width="600" height="600" fill="#ffffff"/><g transform="scale(15.385)"><g transform="translate(1,1)"><path fill-rule="evenodd" d="M10 0L10 2L11 2L11 0ZM12 0L12 1L13 1L13 2L12 2L12 4L13 4L13 3L14 3L14 4L15 4L15 5L18 5L18 4L19 4L19 5L20 5L20 4L19 4L19 3L22 3L22 4L21 4L21 6L20 6L20 7L21 7L21 8L20 8L20 9L19 9L19 8L17 8L17 6L16 6L16 9L12 9L12 7L13 7L13 5L11 5L11 6L10 6L10 4L11 4L11 3L8 3L8 4L9 4L9 5L8 5L8 7L9 7L9 8L6 8L6 9L7 9L7 10L5 10L5 11L7 11L7 12L5 12L5 13L7 13L7 14L6 14L6 15L5 15L5 14L2 14L2 13L4 13L4 12L3 12L3 11L2 11L2 9L3 9L3 10L4 10L4 9L5 9L5 8L0 8L0 14L1 14L1 15L0 15L0 18L2 18L2 19L3 19L3 21L0 21L0 23L1 23L1 22L2 22L2 23L3 23L3 24L2 24L2 26L3 26L3 25L4 25L4 27L2 27L2 28L4 28L4 27L5 27L5 29L8 29L8 31L9 31L9 32L8 32L8 37L10 37L10 36L11 36L11 35L9 35L9 33L10 33L10 34L11 34L11 33L12 33L12 34L13 34L13 35L12 35L12 37L13 37L13 36L14 36L14 37L15 37L15 36L17 36L17 37L19 37L19 36L17 36L17 35L18 35L18 34L15 34L15 33L19 33L19 34L20 34L20 33L21 33L21 35L20 35L20 36L22 36L22 37L23 37L23 34L24 34L24 33L26 33L26 34L25 34L25 35L24 35L24 37L27 37L27 36L31 36L31 37L37 37L37 30L35 30L35 28L34 28L34 27L36 27L36 28L37 28L37 26L36 26L36 25L37 25L37 22L36 22L36 21L37 21L37 18L36 18L36 17L37 17L37 14L36 14L36 13L35 13L35 12L34 12L34 11L35 11L35 9L36 9L36 8L35 8L35 9L34 9L34 8L33 8L33 9L34 9L34 11L32 11L32 12L31 12L31 10L30 10L30 8L28 8L28 7L29 7L29 6L28 6L28 5L27 5L27 4L29 4L29 1L27 1L27 0L18 0L18 1L21 1L21 2L18 2L18 3L17 3L17 4L16 4L16 2L17 2L17 1L16 1L16 0ZM8 1L8 2L9 2L9 1ZM23 1L23 2L22 2L22 3L24 3L24 4L25 4L25 5L23 5L23 4L22 4L22 5L23 5L23 7L22 7L22 6L21 6L21 7L22 7L22 8L21 8L21 9L20 9L20 10L19 10L19 9L16 9L16 10L19 10L19 13L17 13L17 12L18 12L18 11L16 11L16 13L17 13L17 14L15 14L15 13L14 13L14 12L15 12L15 11L14 11L14 12L13 12L13 13L12 13L12 11L13 11L13 10L12 10L12 9L11 9L11 8L10 8L10 9L9 9L9 10L7 10L7 11L9 11L9 12L8 12L8 13L9 13L9 12L10 12L10 13L11 13L11 14L10 14L10 16L11 16L11 14L13 14L13 15L12 15L12 17L11 17L11 21L10 21L10 20L9 20L9 21L6 21L6 20L8 20L8 18L9 18L9 19L10 19L10 18L9 18L9 15L8 15L8 14L7 14L7 15L6 15L6 16L5 16L5 18L4 18L4 16L2 16L2 15L1 15L1 17L2 17L2 18L3 18L3 19L4 19L4 20L5 20L5 21L6 21L6 22L7 22L7 23L5 23L5 24L4 24L4 25L5 25L5 27L6 27L6 28L8 28L8 27L9 27L9 29L10 29L10 31L11 31L11 30L13 30L13 31L12 31L12 33L15 33L15 32L18 32L18 30L19 30L19 31L20 31L20 32L19 32L19 33L20 33L20 32L21 32L21 33L24 33L24 32L26 32L26 33L27 33L27 34L26 34L26 35L25 35L25 36L26 36L26 35L29 35L29 33L27 33L27 32L28 32L28 30L26 30L26 29L28 29L28 27L29 27L29 26L31 26L31 28L33 28L33 27L34 27L34 26L35 26L35 25L34 25L34 24L36 24L36 23L34 23L34 24L33 24L33 25L32 25L32 24L31 24L31 23L32 23L32 22L33 22L33 21L34 21L34 22L35 22L35 21L34 21L34 20L36 20L36 19L35 19L35 17L36 17L36 14L35 14L35 15L34 15L34 13L30 13L30 10L29 10L29 9L27 9L27 7L28 7L28 6L27 6L27 7L26 7L26 4L25 4L25 3L26 3L26 2L25 2L25 1ZM14 2L14 3L15 3L15 2ZM24 2L24 3L25 3L25 2ZM27 2L27 3L28 3L28 2ZM9 6L9 7L10 7L10 6ZM11 6L11 7L12 7L12 6ZM14 6L14 8L15 8L15 6ZM18 6L18 7L19 7L19 6ZM24 6L24 7L23 7L23 8L24 8L24 9L21 9L21 10L20 10L20 13L19 13L19 14L18 14L18 16L17 16L17 15L16 15L16 17L12 17L12 18L13 18L13 19L12 19L12 21L13 21L13 20L14 20L14 21L15 21L15 22L17 22L17 23L16 23L16 24L17 24L17 26L16 26L16 25L12 25L12 23L13 23L13 22L10 22L10 21L9 21L9 22L8 22L8 23L11 23L11 25L12 25L12 26L13 26L13 27L12 27L12 29L13 29L13 28L14 28L14 29L19 29L19 30L22 30L22 31L21 31L21 32L22 32L22 31L23 31L23 32L24 32L24 31L26 31L26 32L27 32L27 31L26 31L26 30L25 30L25 29L26 29L26 28L25 28L25 27L28 27L28 26L29 26L29 25L31 25L31 24L30 24L30 22L29 22L29 20L27 20L27 19L29 19L29 18L30 18L30 21L33 21L33 20L34 20L34 19L33 19L33 20L31 20L31 19L32 19L32 18L30 18L30 17L33 17L33 18L34 18L34 17L35 17L35 16L34 16L34 15L33 15L33 14L32 14L32 16L31 16L31 14L30 14L30 13L29 13L29 12L28 12L28 11L29 11L29 10L27 10L27 9L26 9L26 8L25 8L25 6ZM31 8L31 9L32 9L32 8ZM10 9L10 11L11 11L11 9ZM24 9L24 10L23 10L23 12L24 12L24 13L25 13L25 12L26 12L26 13L27 13L27 14L23 14L23 13L22 13L22 12L21 12L21 13L20 13L20 14L19 14L19 17L16 17L16 18L19 18L19 19L21 19L21 18L19 18L19 17L22 17L22 18L23 18L23 19L24 19L24 20L21 20L21 21L20 21L20 20L19 20L19 21L17 21L17 20L18 20L18 19L16 19L16 21L17 21L17 22L18 22L18 23L17 23L17 24L18 24L18 23L19 23L19 25L20 25L20 26L17 26L17 27L16 27L16 28L19 28L19 29L22 29L22 30L23 30L23 31L24 31L24 30L23 30L23 29L25 29L25 28L24 28L24 26L26 26L26 25L27 25L27 26L28 26L28 25L27 25L27 23L26 23L26 22L28 22L28 23L29 23L29 22L28 22L28 21L25 21L25 20L26 20L26 17L27 17L27 18L29 18L29 17L30 17L30 14L29 14L29 13L27 13L27 12L26 12L26 10L25 10L25 9ZM21 10L21 11L22 11L22 10ZM24 10L24 12L25 12L25 10ZM36 10L36 11L37 11L37 10ZM1 11L1 12L2 12L2 11ZM21 13L21 14L22 14L22 13ZM27 14L27 15L26 15L26 16L25 16L25 17L23 17L23 16L24 16L24 15L20 15L20 16L22 16L22 17L23 17L23 18L25 18L25 17L26 17L26 16L27 16L27 15L28 15L28 16L29 16L29 14ZM14 15L14 16L15 16L15 15ZM6 16L6 17L8 17L8 16ZM33 16L33 17L34 17L34 16ZM6 18L6 19L5 19L5 20L6 20L6 19L7 19L7 18ZM0 19L0 20L1 20L1 19ZM14 19L14 20L15 20L15 19ZM19 21L19 22L20 22L20 23L21 23L21 24L20 24L20 25L21 25L21 26L20 26L20 27L19 27L19 28L20 28L20 27L21 27L21 28L22 28L22 29L23 29L23 28L22 28L22 27L23 27L23 26L24 26L24 25L26 25L26 24L25 24L25 23L24 23L24 25L21 25L21 24L23 24L23 22L25 22L25 21L21 21L21 22L20 22L20 21ZM21 22L21 23L22 23L22 22ZM14 23L14 24L15 24L15 23ZM0 24L0 29L1 29L1 24ZM6 24L6 25L7 25L7 26L6 26L6 27L7 27L7 26L8 26L8 25L10 25L10 24ZM9 26L9 27L10 27L10 29L11 29L11 26ZM21 26L21 27L22 27L22 26ZM14 27L14 28L15 28L15 27ZM29 29L29 32L32 32L32 29ZM33 29L33 30L34 30L34 29ZM15 30L15 31L14 31L14 32L15 32L15 31L17 31L17 30ZM30 30L30 31L31 31L31 30ZM34 31L34 32L33 32L33 33L34 33L34 36L36 36L36 35L35 35L35 33L36 33L36 31ZM34 32L34 33L35 33L35 32ZM30 34L30 35L31 35L31 36L32 36L32 35L33 35L33 34ZM14 35L14 36L15 36L15 35ZM0 0L0 7L7 7L7 0ZM1 1L1 6L6 6L6 1ZM2 2L2 5L5 5L5 2ZM30 0L30 7L37 7L37 0ZM31 1L31 6L36 6L36 1ZM32 2L32 5L35 5L35 2ZM0 30L0 37L7 37L7 30ZM1 31L1 36L6 36L6 31ZM2 32L2 35L5 35L5 32Z" fill="#000000"/></g></g></svg>
