<?xml version="1.0" encoding="UTF-8"?>
<svg xmlns="http://www.w3.org/2000/svg" version="1.1" width="600" height="600" viewBox="0 0 600 600"><rect x="0" y="0" width="600" height="600" fill="#ffffff"/><g transform="scale(17.143)"><g transform="translate(1,1)"><path fill-rule="evenodd" d="M11 0L11 1L8 1L8 2L9 2L9 3L8 3L8 4L9 4L9 5L8 5L8 7L9 7L9 8L6 8L6 9L7 9L7 10L6 10L6 11L7 11L7 12L4 12L4 11L5 11L5 10L4 10L4 9L5 9L5 8L0 8L0 12L2 12L2 10L1 10L1 9L3 9L3 10L4 10L4 11L3 11L3 13L4 13L4 14L2 14L2 13L0 13L0 14L1 14L1 15L0 15L0 17L1 17L1 18L0 18L0 25L1 25L1 22L2 22L2 23L3 23L3 22L4 22L4 24L3 24L3 25L4 25L4 24L6 24L6 25L8 25L8 27L9 27L9 26L12 26L12 27L10 27L10 28L8 28L8 33L12 33L12 32L10 32L10 31L11 31L11 30L13 30L13 29L16 29L16 30L14 30L14 31L16 31L16 32L15 32L15 33L19 33L19 32L20 32L20 33L21 33L21 32L22 32L22 31L21 31L21 30L22 30L22 29L23 29L23 27L24 27L24 31L23 31L23 32L24 32L24 33L25 33L25 32L24 32L24 31L27 31L27 32L28 32L28 33L29 33L29 31L30 31L30 32L31 32L31 33L32 33L32 32L31 32L31 31L32 31L32 30L31 30L31 29L33 29L33 27L32 27L32 26L33 26L33 24L32 24L32 26L31 26L31 25L30 25L30 24L31 24L31 23L32 23L32 22L33 22L33 21L32 21L32 20L31 20L31 19L32 19L32 18L33 18L33 17L32 17L32 16L31 16L31 15L32 15L32 14L33 14L33 13L31 13L31 15L30 15L30 13L29 13L29 10L28 10L28 8L27 8L27 9L26 9L26 8L24 8L24 7L25 7L25 5L24 5L24 4L23 4L23 5L22 5L22 7L21 7L21 5L20 5L20 4L21 4L21 3L23 3L23 2L21 2L21 3L19 3L19 2L18 2L18 3L16 3L16 2L17 2L17 0L16 0L16 1L15 1L15 2L14 2L14 1L13 1L13 0ZM19 0L19 1L20 1L20 0ZM21 0L21 1L24 1L24 2L25 2L25 1L24 1L24 0ZM11 1L11 2L12 2L12 3L9 3L9 4L13 4L13 5L14 5L14 4L15 4L15 5L17 5L17 8L18 8L18 9L15 9L15 7L16 7L16 6L15 6L15 7L14 7L14 6L13 6L13 8L12 8L12 5L10 5L10 6L9 6L9 7L10 7L10 6L11 6L11 8L9 8L9 9L8 9L8 10L7 10L7 11L8 11L8 12L9 12L9 11L10 11L10 14L11 14L11 15L12 15L12 16L11 16L11 17L10 17L10 16L9 16L9 17L8 17L8 18L7 18L7 17L5 17L5 18L4 18L4 17L3 17L3 16L2 16L2 15L1 15L1 16L2 16L2 21L4 21L4 22L5 22L5 20L7 20L7 21L6 21L6 22L7 22L7 23L6 23L6 24L7 24L7 23L8 23L8 25L9 25L9 24L10 24L10 20L11 20L11 21L13 21L13 24L12 24L12 22L11 22L11 25L13 25L13 26L16 26L16 27L13 27L13 28L11 28L11 29L10 29L10 30L11 30L11 29L13 29L13 28L16 28L16 29L17 29L17 30L18 30L18 29L20 29L20 30L19 30L19 31L20 31L20 30L21 30L21 29L22 29L22 28L21 28L21 27L23 27L23 26L24 26L24 25L23 25L23 24L21 24L21 25L20 25L20 24L19 24L19 23L20 23L20 22L19 22L19 21L21 21L21 22L22 22L22 21L24 21L24 22L23 22L23 23L24 23L24 24L27 24L27 22L25 22L25 21L27 21L27 20L28 20L28 19L26 19L26 18L25 18L25 17L28 17L28 18L29 18L29 17L30 17L30 19L29 19L29 20L30 20L30 21L28 21L28 24L30 24L30 23L29 23L29 22L30 22L30 21L31 21L31 20L30 20L30 19L31 19L31 16L30 16L30 15L29 15L29 13L28 13L28 16L26 16L26 14L25 14L25 13L27 13L27 12L28 12L28 11L27 11L27 10L25 10L25 9L24 9L24 10L22 10L22 11L23 11L23 12L21 12L21 9L23 9L23 8L21 8L21 7L20 7L20 5L19 5L19 4L16 4L16 3L14 3L14 2L12 2L12 1ZM13 3L13 4L14 4L14 3ZM23 5L23 7L24 7L24 5ZM18 6L18 8L20 8L20 9L18 9L18 10L17 10L17 11L18 11L18 12L16 12L16 10L15 10L15 9L14 9L14 8L13 8L13 9L9 9L9 10L8 10L8 11L9 11L9 10L13 10L13 9L14 9L14 12L11 12L11 14L12 14L12 15L13 15L13 13L15 13L15 12L16 12L16 13L19 13L19 14L17 14L17 15L18 15L18 16L17 16L17 17L16 17L16 16L15 16L15 15L16 15L16 14L14 14L14 16L13 16L13 17L11 17L11 18L12 18L12 19L11 19L11 20L13 20L13 21L16 21L16 22L14 22L14 24L13 24L13 25L14 25L14 24L15 24L15 25L18 25L18 26L17 26L17 27L18 27L18 28L17 28L17 29L18 29L18 28L20 28L20 29L21 29L21 28L20 28L20 27L21 27L21 26L23 26L23 25L21 25L21 26L20 26L20 25L18 25L18 24L15 24L15 23L17 23L17 21L19 21L19 20L20 20L20 19L19 19L19 18L20 18L20 17L21 17L21 20L22 20L22 19L23 19L23 18L24 18L24 17L23 17L23 16L24 16L24 15L25 15L25 14L24 14L24 13L25 13L25 12L26 12L26 11L25 11L25 12L24 12L24 13L22 13L22 15L21 15L21 16L19 16L19 14L20 14L20 13L21 13L21 12L20 12L20 11L19 11L19 10L20 10L20 9L21 9L21 8L20 8L20 7L19 7L19 6ZM29 8L29 9L30 9L30 8ZM31 8L31 10L33 10L33 9L32 9L32 8ZM30 11L30 12L31 12L31 11ZM19 12L19 13L20 13L20 12ZM5 13L5 14L4 14L4 15L6 15L6 16L8 16L8 14L9 14L9 13L8 13L8 14L7 14L7 13ZM6 14L6 15L7 15L7 14ZM23 14L23 15L24 15L24 14ZM14 16L14 17L13 17L13 20L14 20L14 17L15 17L15 18L16 18L16 19L15 19L15 20L16 20L16 21L17 21L17 20L19 20L19 19L17 19L17 18L19 18L19 17L17 17L17 18L16 18L16 17L15 17L15 16ZM21 16L21 17L22 17L22 16ZM28 16L28 17L29 17L29 16ZM3 18L3 20L5 20L5 19L7 19L7 20L8 20L8 21L7 21L7 22L8 22L8 23L9 23L9 22L8 22L8 21L9 21L9 20L8 20L8 19L9 19L9 18L8 18L8 19L7 19L7 18L5 18L5 19L4 19L4 18ZM24 20L24 21L25 21L25 20ZM25 25L25 28L28 28L28 25ZM29 25L29 28L30 28L30 29L31 29L31 28L32 28L32 27L31 27L31 26L30 26L30 25ZM18 26L18 27L20 27L20 26ZM26 26L26 27L27 27L27 26ZM30 27L30 28L31 28L31 27ZM25 29L25 30L28 30L28 31L29 31L29 30L28 30L28 29ZM30 30L30 31L31 31L31 30ZM17 31L17 32L18 32L18 31ZM13 32L13 33L14 33L14 32ZM0 0L0 7L7 7L7 0ZM1 1L1 6L6 6L6 1ZM2 2L2 5L5 5L5 2ZM26 0L26 7L33 7L33 0ZM27 1L27 6L32 6L32 1ZM28 2L28 5L31 5L31 2ZM0 26L0 33L7 33L7 26ZM1 27L1 32L6 32L6 27ZM2 28L2 31L5 31L5 28Z" fill="#000000"/></g></g></svg>
