<?xml version="1.0" encoding="UTF-8"?>
<svg xmlns="http://www.w3.org/2000/svg" version="1.1" width="600" height="600" viewBox="0 0 600 600"><rect x="0" y="0" width="600" height="600" fill="#ffffff"/><g transform="scale(17.143)"><g transform="translate(1,1)"><path fill-rule="evenodd" d="M9 0L9 1L8 1L8 3L9 3L9 4L8 4L8 8L6 8L6 9L7 9L7 10L4 10L4 8L3 8L3 10L1 10L1 9L2 9L2 8L0 8L0 10L1 10L1 11L0 11L0 12L1 12L1 11L3 11L3 12L2 12L2 14L1 14L1 13L0 13L0 14L1 14L1 15L0 15L0 16L1 16L1 17L2 17L2 21L3 21L3 22L0 22L0 23L1 23L1 24L0 24L0 25L1 25L1 24L2 24L2 25L3 25L3 24L2 24L2 23L4 23L4 25L5 25L5 24L6 24L6 25L7 25L7 24L6 24L6 23L7 23L7 22L8 22L8 27L9 27L9 25L10 25L10 24L11 24L11 26L10 26L10 27L11 27L11 28L12 28L12 30L11 30L11 29L10 29L10 28L9 28L9 29L8 29L8 30L10 30L10 31L8 31L8 33L9 33L9 32L10 32L10 33L11 33L11 32L10 32L10 31L12 31L12 33L13 33L13 31L14 31L14 32L18 32L18 33L19 33L19 32L20 32L20 33L23 33L23 32L24 32L24 33L25 33L25 32L26 32L26 30L27 30L27 31L28 31L28 32L27 32L27 33L28 33L28 32L29 32L29 33L30 33L30 30L29 30L29 29L30 29L30 28L29 28L29 24L30 24L30 23L31 23L31 24L33 24L33 21L32 21L32 20L31 20L31 21L30 21L30 20L29 20L29 19L30 19L30 18L31 18L31 19L33 19L33 18L31 18L31 17L29 17L29 16L30 16L30 15L29 15L29 16L28 16L28 14L29 14L29 13L28 13L28 11L27 11L27 12L25 12L25 11L24 11L24 14L23 14L23 11L22 11L22 10L23 10L23 9L24 9L24 10L27 10L27 9L29 9L29 10L31 10L31 12L32 12L32 13L30 13L30 14L31 14L31 16L32 16L32 17L33 17L33 16L32 16L32 14L33 14L33 9L32 9L32 8L30 8L30 9L29 9L29 8L26 8L26 9L24 9L24 8L25 8L25 6L24 6L24 8L23 8L23 5L24 5L24 2L25 2L25 1L24 1L24 0L19 0L19 1L17 1L17 0L15 0L15 2L17 2L17 3L18 3L18 7L17 7L17 6L16 6L16 5L17 5L17 4L16 4L16 3L15 3L15 6L14 6L14 7L15 7L15 6L16 6L16 11L15 11L15 9L14 9L14 8L13 8L13 6L12 6L12 5L11 5L11 6L10 6L10 5L9 5L9 4L12 4L12 3L13 3L13 0L12 0L12 1L11 1L11 2L9 2L9 1L10 1L10 0ZM19 1L19 2L18 2L18 3L19 3L19 5L20 5L20 6L19 6L19 8L21 8L21 7L22 7L22 6L21 6L21 5L22 5L22 2L23 2L23 1L21 1L21 2L20 2L20 1ZM20 3L20 5L21 5L21 3ZM13 4L13 5L14 5L14 4ZM9 6L9 7L10 7L10 8L8 8L8 10L7 10L7 11L6 11L6 12L8 12L8 10L10 10L10 8L11 8L11 9L12 9L12 10L11 10L11 11L9 11L9 14L8 14L8 13L6 13L6 14L4 14L4 15L3 15L3 14L2 14L2 15L1 15L1 16L2 16L2 15L3 15L3 16L5 16L5 18L4 18L4 19L3 19L3 21L5 21L5 20L9 20L9 21L8 21L8 22L9 22L9 23L10 23L10 18L11 18L11 19L12 19L12 20L14 20L14 21L15 21L15 23L17 23L17 24L18 24L18 23L19 23L19 25L20 25L20 26L17 26L17 25L16 25L16 24L14 24L14 25L13 25L13 24L12 24L12 28L13 28L13 29L14 29L14 30L15 30L15 31L20 31L20 32L21 32L21 31L22 31L22 32L23 32L23 30L22 30L22 29L24 29L24 30L26 30L26 29L24 29L24 24L25 24L25 23L26 23L26 24L27 24L27 22L28 22L28 23L30 23L30 21L29 21L29 20L28 20L28 18L29 18L29 17L26 17L26 16L25 16L25 17L24 17L24 18L23 18L23 19L22 19L22 18L21 18L21 17L19 17L19 19L18 19L18 17L17 17L17 16L15 16L15 17L14 17L14 16L12 16L12 14L10 14L10 13L12 13L12 12L13 12L13 8L12 8L12 6L11 6L11 7L10 7L10 6ZM20 6L20 7L21 7L21 6ZM17 8L17 9L18 9L18 8ZM22 8L22 9L23 9L23 8ZM19 9L19 10L18 10L18 11L16 11L16 12L15 12L15 11L14 11L14 13L13 13L13 15L18 15L18 14L17 14L17 13L16 13L16 12L18 12L18 11L19 11L19 10L20 10L20 11L21 11L21 9ZM31 9L31 10L32 10L32 9ZM3 10L3 11L4 11L4 13L5 13L5 11L4 11L4 10ZM19 12L19 13L20 13L20 12ZM21 13L21 14L19 14L19 15L21 15L21 14L22 14L22 15L23 15L23 16L22 16L22 17L23 17L23 16L24 16L24 15L27 15L27 14L28 14L28 13L27 13L27 14L24 14L24 15L23 15L23 14L22 14L22 13ZM6 14L6 15L7 15L7 16L6 16L6 17L7 17L7 18L5 18L5 19L4 19L4 20L5 20L5 19L7 19L7 18L10 18L10 16L11 16L11 17L12 17L12 16L11 16L11 15L9 15L9 16L8 16L8 15L7 15L7 14ZM7 16L7 17L8 17L8 16ZM16 17L16 19L15 19L15 18L14 18L14 20L16 20L16 19L17 19L17 20L18 20L18 21L17 21L17 22L19 22L19 23L20 23L20 22L19 22L19 21L22 21L22 22L21 22L21 26L22 26L22 24L24 24L24 23L23 23L23 21L24 21L24 22L27 22L27 21L24 21L24 20L26 20L26 19L27 19L27 18L26 18L26 17L25 17L25 18L24 18L24 19L23 19L23 20L22 20L22 19L21 19L21 20L18 20L18 19L17 19L17 17ZM25 18L25 19L26 19L26 18ZM0 19L0 21L1 21L1 19ZM6 21L6 22L7 22L7 21ZM31 21L31 23L32 23L32 21ZM25 25L25 28L28 28L28 25ZM30 25L30 27L32 27L32 28L31 28L31 31L33 31L33 27L32 27L32 26L33 26L33 25L32 25L32 26L31 26L31 25ZM13 26L13 28L14 28L14 29L15 29L15 28L16 28L16 29L18 29L18 27L17 27L17 26L16 26L16 27L15 27L15 28L14 28L14 26ZM26 26L26 27L27 27L27 26ZM16 27L16 28L17 28L17 27ZM19 27L19 29L20 29L20 31L21 31L21 29L22 29L22 27ZM20 28L20 29L21 29L21 28ZM31 32L31 33L32 33L32 32ZM0 0L0 7L7 7L7 0ZM1 1L1 6L6 6L6 1ZM2 2L2 5L5 5L5 2ZM26 0L26 7L33 7L33 0ZM27 1L27 6L32 6L32 1ZM28 2L28 5L31 5L31 2ZM0 26L0 33L7 33L7 26ZM1 27L1 32L6 32L6 27ZM2 28L2 31L5 31L5 28Z" fill="#000000"/></g></g></svg>
