<?xml version="1.0" encoding="UTF-8"?>
<svg xmlns="http://www.w3.org/2000/svg" version="1.1" width="600" height="600" viewBox="0 0 600 600"><rect x="0" y="0" width="600" height="600" fill="#ffffff"/><g transform="scale(17.143)"><g transform="translate(1,1)"><path fill-rule="evenodd" d="M9 0L9 1L11 1L11 2L9 2L9 3L8 3L8 5L9 5L9 6L8 6L8 7L9 7L9 9L10 9L10 10L8 10L8 8L5 8L5 9L2 9L2 8L0 8L0 10L1 10L1 9L2 9L2 10L5 10L5 9L7 9L7 10L6 10L6 11L5 11L5 12L6 12L6 13L7 13L7 12L8 12L8 14L9 14L9 15L8 15L8 16L6 16L6 15L7 15L7 14L6 14L6 15L5 15L5 14L3 14L3 15L5 15L5 16L4 16L4 17L3 17L3 16L2 16L2 15L0 15L0 19L1 19L1 18L2 18L2 19L4 19L4 20L6 20L6 21L5 21L5 25L7 25L7 24L8 24L8 28L9 28L9 27L11 27L11 29L10 29L10 30L9 30L9 31L8 31L8 33L10 33L10 32L11 32L11 31L12 31L12 33L13 33L13 32L14 32L14 33L19 33L19 32L20 32L20 33L21 33L21 32L20 32L20 29L21 29L21 28L20 28L20 27L24 27L24 30L22 30L22 32L24 32L24 33L25 33L25 32L24 32L24 31L25 31L25 29L27 29L27 31L28 31L28 33L29 33L29 30L31 30L31 29L30 29L30 28L31 28L31 27L32 27L32 26L33 26L33 25L32 25L32 24L31 24L31 23L32 23L32 20L31 20L31 19L30 19L30 20L29 20L29 19L28 19L28 18L27 18L27 17L25 17L25 19L26 19L26 18L27 18L27 21L28 21L28 22L27 22L27 23L28 23L28 22L29 22L29 23L30 23L30 24L31 24L31 25L30 25L30 26L31 26L31 27L30 27L30 28L29 28L29 24L24 24L24 23L23 23L23 22L24 22L24 21L25 21L25 22L26 22L26 21L25 21L25 20L24 20L24 21L23 21L23 19L24 19L24 17L21 17L21 16L20 16L20 17L18 17L18 16L19 16L19 14L20 14L20 15L22 15L22 14L24 14L24 15L23 15L23 16L24 16L24 15L25 15L25 14L26 14L26 15L28 15L28 17L29 17L29 18L30 18L30 17L29 17L29 15L30 15L30 16L31 16L31 18L32 18L32 19L33 19L33 17L32 17L32 16L33 16L33 15L32 15L32 14L33 14L33 12L31 12L31 11L30 11L30 12L29 12L29 9L30 9L30 8L28 8L28 10L27 10L27 12L26 12L26 11L25 11L25 12L23 12L23 11L22 11L22 9L21 9L21 8L20 8L20 7L21 7L21 6L22 6L22 8L23 8L23 10L24 10L24 9L25 9L25 10L26 10L26 9L25 9L25 8L24 8L24 7L25 7L25 5L24 5L24 4L23 4L23 2L22 2L22 0L21 0L21 2L20 2L20 3L21 3L21 4L23 4L23 5L20 5L20 4L19 4L19 3L17 3L17 2L19 2L19 0L16 0L16 2L14 2L14 0L13 0L13 1L12 1L12 0ZM24 1L24 2L25 2L25 1ZM12 2L12 4L11 4L11 7L10 7L10 6L9 6L9 7L10 7L10 8L11 8L11 10L10 10L10 11L9 11L9 12L10 12L10 11L11 11L11 10L13 10L13 11L12 11L12 12L11 12L11 14L10 14L10 13L9 13L9 14L10 14L10 15L11 15L11 17L6 17L6 16L5 16L5 18L4 18L4 19L6 19L6 20L11 20L11 19L12 19L12 21L11 21L11 23L9 23L9 26L10 26L10 24L12 24L12 23L13 23L13 25L11 25L11 26L13 26L13 27L12 27L12 29L11 29L11 30L12 30L12 31L14 31L14 32L15 32L15 28L14 28L14 27L15 27L15 26L14 26L14 24L16 24L16 23L14 23L14 21L13 21L13 20L16 20L16 19L17 19L17 20L18 20L18 19L19 19L19 18L18 18L18 17L16 17L16 15L17 15L17 16L18 16L18 15L17 15L17 14L18 14L18 13L19 13L19 11L20 11L20 12L21 12L21 14L22 14L22 11L20 11L20 10L19 10L19 9L20 9L20 8L19 8L19 9L17 9L17 8L18 8L18 6L19 6L19 7L20 7L20 5L19 5L19 4L17 4L17 3L15 3L15 5L14 5L14 4L13 4L13 3L14 3L14 2ZM9 3L9 5L10 5L10 3ZM12 4L12 5L13 5L13 6L12 6L12 9L13 9L13 10L14 10L14 8L15 8L15 11L16 11L16 12L15 12L15 15L14 15L14 14L13 14L13 13L12 13L12 14L13 14L13 15L12 15L12 17L14 17L14 18L12 18L12 19L16 19L16 17L14 17L14 16L15 16L15 15L16 15L16 14L17 14L17 11L18 11L18 10L17 10L17 11L16 11L16 8L15 8L15 6L14 6L14 5L13 5L13 4ZM16 5L16 7L17 7L17 5ZM23 5L23 7L24 7L24 5ZM13 6L13 8L14 8L14 6ZM31 9L31 10L32 10L32 9ZM0 11L0 12L3 12L3 13L4 13L4 12L3 12L3 11ZM6 11L6 12L7 12L7 11ZM28 12L28 13L27 13L27 14L28 14L28 15L29 15L29 12ZM30 12L30 15L31 15L31 16L32 16L32 15L31 15L31 12ZM1 13L1 14L2 14L2 13ZM24 13L24 14L25 14L25 13ZM13 15L13 16L14 16L14 15ZM1 16L1 17L2 17L2 18L3 18L3 17L2 17L2 16ZM20 17L20 18L21 18L21 19L20 19L20 20L19 20L19 21L17 21L17 22L19 22L19 23L17 23L17 26L18 26L18 27L17 27L17 28L18 28L18 29L16 29L16 31L17 31L17 32L19 32L19 31L18 31L18 29L20 29L20 28L19 28L19 27L20 27L20 26L19 26L19 25L18 25L18 24L20 24L20 22L23 22L23 21L22 21L22 19L23 19L23 18L21 18L21 17ZM6 18L6 19L7 19L7 18ZM8 18L8 19L9 19L9 18ZM1 20L1 21L0 21L0 25L3 25L3 24L4 24L4 23L2 23L2 24L1 24L1 21L2 21L2 20ZM30 20L30 21L29 21L29 22L30 22L30 21L31 21L31 20ZM3 21L3 22L4 22L4 21ZM6 21L6 22L7 22L7 23L6 23L6 24L7 24L7 23L8 23L8 22L10 22L10 21L8 21L8 22L7 22L7 21ZM12 21L12 22L13 22L13 21ZM19 21L19 22L20 22L20 21ZM21 23L21 25L22 25L22 24L23 24L23 26L24 26L24 24L23 24L23 23ZM25 25L25 28L28 28L28 25ZM31 25L31 26L32 26L32 25ZM26 26L26 27L27 27L27 26ZM22 28L22 29L23 29L23 28ZM12 29L12 30L14 30L14 29ZM32 30L32 31L33 31L33 30ZM9 31L9 32L10 32L10 31ZM30 31L30 32L31 32L31 33L32 33L32 32L31 32L31 31ZM0 0L0 7L7 7L7 0ZM1 1L1 6L6 6L6 1ZM2 2L2 5L5 5L5 2ZM26 0L26 7L33 7L33 0ZM27 1L27 6L32 6L32 1ZM28 2L28 5L31 5L31 2ZM0 26L0 33L7 33L7 26ZM1 27L1 32L6 32L6 27ZM2 28L2 31L5 31L5 28Z" fill="#000000"/></g></g></svg>
