<?xml version="1.0" encoding="UTF-8"?>
<svg xmlns="http://www.w3.org/2000/svg" version="1.1" width="600" height="600" viewBox="0 0 600 600"><rect x="0" y="0" width="600" height="600" fill="#ffffff"/><g transform="scale(17.143)"><g transform="translate(1,1)"><path fill-rule="evenodd" d="M8 0L8 1L10 1L10 0ZM14 0L14 1L15 1L15 0ZM17 0L17 1L16 1L16 2L11 2L11 4L10 4L10 3L9 3L9 2L8 2L8 5L9 5L9 6L8 6L8 7L9 7L9 8L8 8L8 9L9 9L9 10L5 10L5 9L4 9L4 8L0 8L0 10L2 10L2 11L1 11L1 12L0 12L0 14L1 14L1 15L0 15L0 16L1 16L1 20L5 20L5 21L4 21L4 22L3 22L3 23L1 23L1 24L0 24L0 25L1 25L1 24L4 24L4 25L8 25L8 26L9 26L9 27L11 27L11 28L12 28L12 29L13 29L13 28L12 28L12 26L13 26L13 27L14 27L14 29L15 29L15 30L13 30L13 33L15 33L15 31L16 31L16 33L23 33L23 31L22 31L22 32L21 32L21 31L20 31L20 32L18 32L18 31L19 31L19 30L17 30L17 28L16 28L16 27L21 27L21 29L22 29L22 28L23 28L23 29L25 29L25 30L24 30L24 32L25 32L25 33L26 33L26 32L27 32L27 33L28 33L28 32L30 32L30 33L31 33L31 32L30 32L30 29L31 29L31 31L32 31L32 32L33 32L33 31L32 31L32 29L33 29L33 27L32 27L32 29L31 29L31 26L30 26L30 24L29 24L29 23L28 23L28 24L26 24L26 23L27 23L27 22L28 22L28 21L26 21L26 20L29 20L29 21L30 21L30 22L31 22L31 24L32 24L32 25L33 25L33 24L32 24L32 23L33 23L33 21L31 21L31 20L30 20L30 18L31 18L31 19L32 19L32 20L33 20L33 19L32 19L32 18L33 18L33 16L31 16L31 14L32 14L32 13L30 13L30 14L28 14L28 15L27 15L27 14L26 14L26 13L25 13L25 10L26 10L26 11L27 11L27 13L29 13L29 12L28 12L28 11L31 11L31 12L32 12L32 11L33 11L33 8L32 8L32 9L31 9L31 8L28 8L28 9L26 9L26 8L25 8L25 6L24 6L24 8L23 8L23 6L22 6L22 4L21 4L21 2L22 2L22 1L23 1L23 2L24 2L24 3L25 3L25 2L24 2L24 0L21 0L21 1L20 1L20 0L19 0L19 1L20 1L20 4L19 4L19 6L18 6L18 3L17 3L17 2L18 2L18 0ZM12 3L12 5L10 5L10 6L9 6L9 7L10 7L10 8L9 8L9 9L10 9L10 10L9 10L9 11L8 11L8 12L7 12L7 11L5 11L5 10L3 10L3 12L2 12L2 13L1 13L1 14L2 14L2 15L1 15L1 16L2 16L2 17L3 17L3 19L4 19L4 17L5 17L5 18L7 18L7 19L6 19L6 20L7 20L7 21L5 21L5 23L4 23L4 24L8 24L8 25L9 25L9 24L10 24L10 26L11 26L11 25L12 25L12 24L13 24L13 23L11 23L11 24L10 24L10 22L12 22L12 21L11 21L11 20L12 20L12 19L11 19L11 18L12 18L12 17L13 17L13 16L14 16L14 19L13 19L13 22L14 22L14 21L15 21L15 23L14 23L14 24L15 24L15 23L16 23L16 24L18 24L18 23L19 23L19 25L20 25L20 23L21 23L21 25L23 25L23 24L22 24L22 22L21 22L21 21L20 21L20 22L19 22L19 20L18 20L18 23L17 23L17 22L16 22L16 19L15 19L15 17L16 17L16 16L14 16L14 15L17 15L17 19L18 19L18 18L19 18L19 19L21 19L21 20L22 20L22 21L24 21L24 22L25 22L25 23L26 23L26 22L25 22L25 20L26 20L26 15L25 15L25 14L24 14L24 11L23 11L23 10L22 10L22 9L20 9L20 10L18 10L18 9L17 9L17 12L18 12L18 14L17 14L17 13L16 13L16 14L15 14L15 12L16 12L16 8L15 8L15 7L16 7L16 5L15 5L15 3L14 3L14 6L13 6L13 7L12 7L12 5L13 5L13 3ZM16 3L16 4L17 4L17 3ZM24 4L24 5L25 5L25 4ZM20 5L20 6L19 6L19 7L18 7L18 6L17 6L17 7L18 7L18 8L19 8L19 7L20 7L20 8L22 8L22 6L21 6L21 5ZM10 6L10 7L11 7L11 8L12 8L12 7L11 7L11 6ZM14 6L14 7L15 7L15 6ZM20 6L20 7L21 7L21 6ZM6 8L6 9L7 9L7 8ZM24 8L24 10L25 10L25 8ZM14 9L14 11L11 11L11 13L10 13L10 12L8 12L8 13L10 13L10 14L8 14L8 15L7 15L7 14L6 14L6 15L7 15L7 16L6 16L6 17L7 17L7 18L9 18L9 19L8 19L8 21L7 21L7 22L6 22L6 23L8 23L8 24L9 24L9 23L8 23L8 21L9 21L9 20L10 20L10 18L9 18L9 17L10 17L10 16L11 16L11 17L12 17L12 16L13 16L13 15L14 15L14 12L15 12L15 9ZM28 9L28 10L27 10L27 11L28 11L28 10L31 10L31 11L32 11L32 10L31 10L31 9ZM4 11L4 12L3 12L3 13L2 13L2 14L3 14L3 15L2 15L2 16L3 16L3 17L4 17L4 16L5 16L5 15L4 15L4 12L5 12L5 11ZM19 11L19 12L20 12L20 13L19 13L19 14L18 14L18 15L19 15L19 16L18 16L18 17L19 17L19 16L21 16L21 18L22 18L22 20L25 20L25 19L23 19L23 18L25 18L25 16L24 16L24 15L23 15L23 13L21 13L21 12L20 12L20 11ZM6 12L6 13L7 13L7 12ZM12 12L12 14L10 14L10 15L9 15L9 16L8 16L8 17L9 17L9 16L10 16L10 15L11 15L11 16L12 16L12 14L13 14L13 12ZM21 14L21 15L22 15L22 14ZM28 15L28 16L30 16L30 15ZM22 16L22 18L23 18L23 16ZM27 17L27 18L28 18L28 17ZM31 17L31 18L32 18L32 17ZM14 19L14 20L15 20L15 19ZM0 21L0 22L1 22L1 21ZM13 25L13 26L14 26L14 25ZM16 25L16 26L15 26L15 27L16 27L16 26L17 26L17 25ZM25 25L25 28L28 28L28 25ZM21 26L21 27L23 27L23 28L24 28L24 27L23 27L23 26ZM26 26L26 27L27 27L27 26ZM29 26L29 29L28 29L28 31L27 31L27 32L28 32L28 31L29 31L29 29L30 29L30 26ZM9 28L9 29L8 29L8 33L11 33L11 32L12 32L12 31L11 31L11 29L10 29L10 28ZM18 28L18 29L20 29L20 28ZM26 29L26 30L27 30L27 29ZM16 30L16 31L17 31L17 30ZM25 31L25 32L26 32L26 31ZM0 0L0 7L7 7L7 0ZM1 1L1 6L6 6L6 1ZM2 2L2 5L5 5L5 2ZM26 0L26 7L33 7L33 0ZM27 1L27 6L32 6L32 1ZM28 2L28 5L31 5L31 2ZM0 26L0 33L7 33L7 26ZM1 27L1 32L6 32L6 27ZM2 28L2 31L5 31L5 28Z" fill="#000000"/></g></g></svg>
