<?xml version="1.0" encoding="UTF-8"?>
<svg xmlns="http://www.w3.org/2000/svg" version="1.1" width="600" height="600" viewBox="0 0 600 600"><rect x="0" y="0" width="600" height="600" fill="#ffffff"/><g transform="scale(17.143)"><g transform="translate(1,1)"><path fill-rule="evenodd" d="M9 0L9 1L11 1L11 2L9 2L9 3L8 3L8 5L9 5L9 6L8 6L8 7L9 7L9 9L8 9L8 8L5 8L5 10L4 10L4 9L2 9L2 8L0 8L0 11L2 11L2 10L3 10L3 13L0 13L0 15L1 15L1 16L0 16L0 17L1 17L1 19L0 19L0 25L3 25L3 24L5 24L5 25L8 25L8 28L9 28L9 24L11 24L11 25L10 25L10 26L11 26L11 27L10 27L10 28L11 28L11 29L10 29L10 30L9 30L9 31L8 31L8 33L9 33L9 31L10 31L10 33L11 33L11 31L12 31L12 33L13 33L13 32L14 32L14 33L15 33L15 32L14 32L14 31L12 31L12 30L14 30L14 29L12 29L12 27L13 27L13 26L11 26L11 25L13 25L13 23L14 23L14 28L15 28L15 31L17 31L17 29L19 29L19 32L16 32L16 33L19 33L19 32L20 32L20 33L21 33L21 31L22 31L22 32L24 32L24 33L25 33L25 32L24 32L24 31L25 31L25 29L27 29L27 31L28 31L28 33L29 33L29 30L31 30L31 29L30 29L30 28L31 28L31 27L32 27L32 26L33 26L33 25L32 25L32 24L31 24L31 23L32 23L32 20L31 20L31 19L30 19L30 20L29 20L29 19L28 19L28 18L27 18L27 17L25 17L25 19L26 19L26 18L27 18L27 21L28 21L28 22L27 22L27 23L28 23L28 22L29 22L29 23L30 23L30 24L31 24L31 25L30 25L30 26L31 26L31 27L30 27L30 28L29 28L29 24L24 24L24 23L23 23L23 22L24 22L24 21L25 21L25 22L26 22L26 21L25 21L25 20L24 20L24 21L23 21L23 19L24 19L24 17L21 17L21 15L20 15L20 16L19 16L19 17L18 17L18 16L17 16L17 15L19 15L19 14L20 14L20 12L21 12L21 11L22 11L22 16L24 16L24 15L25 15L25 14L26 14L26 15L28 15L28 17L29 17L29 18L30 18L30 17L29 17L29 15L30 15L30 16L31 16L31 18L32 18L32 19L33 19L33 17L32 17L32 16L33 16L33 15L32 15L32 14L33 14L33 12L31 12L31 11L30 11L30 12L29 12L29 9L30 9L30 8L28 8L28 10L27 10L27 12L26 12L26 11L25 11L25 12L23 12L23 10L24 10L24 9L25 9L25 10L26 10L26 9L25 9L25 8L24 8L24 7L25 7L25 5L24 5L24 4L23 4L23 2L22 2L22 0L21 0L21 2L19 2L19 0L16 0L16 1L17 1L17 2L15 2L15 1L14 1L14 0L13 0L13 1L12 1L12 0ZM24 1L24 2L25 2L25 1ZM12 2L12 4L11 4L11 7L10 7L10 6L9 6L9 7L10 7L10 8L11 8L11 10L10 10L10 9L9 9L9 10L10 10L10 11L8 11L8 10L7 10L7 9L6 9L6 10L5 10L5 12L7 12L7 13L3 13L3 15L4 15L4 14L8 14L8 12L10 12L10 11L11 11L11 10L13 10L13 11L12 11L12 12L11 12L11 14L10 14L10 13L9 13L9 14L10 14L10 15L11 15L11 18L10 18L10 16L7 16L7 15L5 15L5 16L7 16L7 17L6 17L6 18L7 18L7 17L8 17L8 19L1 19L1 24L2 24L2 23L3 23L3 22L4 22L4 21L6 21L6 22L5 22L5 24L9 24L9 23L6 23L6 22L8 22L8 21L9 21L9 19L12 19L12 21L10 21L10 23L11 23L11 24L12 24L12 23L13 23L13 22L14 22L14 23L15 23L15 24L16 24L16 23L15 23L15 22L14 22L14 21L13 21L13 20L16 20L16 19L17 19L17 20L18 20L18 21L17 21L17 26L16 26L16 29L17 29L17 28L18 28L18 27L21 27L21 29L20 29L20 28L19 28L19 29L20 29L20 31L21 31L21 30L22 30L22 31L23 31L23 30L24 30L24 27L21 27L21 26L18 26L18 25L19 25L19 24L21 24L21 25L22 25L22 24L23 24L23 26L24 26L24 24L23 24L23 23L20 23L20 22L18 22L18 21L20 21L20 20L21 20L21 22L23 22L23 21L22 21L22 19L23 19L23 18L21 18L21 17L20 17L20 20L19 20L19 18L18 18L18 17L16 17L16 19L15 19L15 18L14 18L14 17L15 17L15 15L14 15L14 14L15 14L15 9L16 9L16 8L18 8L18 9L17 9L17 10L16 10L16 15L17 15L17 14L19 14L19 13L18 13L18 11L17 11L17 10L18 10L18 9L20 9L20 8L21 8L21 10L19 10L19 12L20 12L20 11L21 11L21 10L23 10L23 8L22 8L22 6L21 6L21 7L20 7L20 5L19 5L19 4L20 4L20 3L19 3L19 4L18 4L18 5L17 5L17 7L16 7L16 3L15 3L15 7L14 7L14 4L13 4L13 3L14 3L14 2ZM17 2L17 3L18 3L18 2ZM9 3L9 5L10 5L10 3ZM12 4L12 5L13 5L13 4ZM21 4L21 5L23 5L23 7L24 7L24 5L23 5L23 4ZM18 5L18 8L20 8L20 7L19 7L19 5ZM12 6L12 9L13 9L13 10L14 10L14 8L13 8L13 6ZM31 9L31 10L32 10L32 9ZM6 10L6 11L7 11L7 12L8 12L8 11L7 11L7 10ZM28 12L28 13L27 13L27 14L28 14L28 15L29 15L29 12ZM30 12L30 15L31 15L31 16L32 16L32 15L31 15L31 12ZM12 13L12 14L13 14L13 13ZM24 13L24 14L23 14L23 15L24 15L24 14L25 14L25 13ZM12 15L12 17L14 17L14 16L13 16L13 15ZM3 16L3 17L2 17L2 18L4 18L4 16ZM12 18L12 19L13 19L13 18ZM17 18L17 19L18 19L18 18ZM2 20L2 22L3 22L3 21L4 21L4 20ZM6 20L6 21L8 21L8 20ZM30 20L30 21L29 21L29 22L30 22L30 21L31 21L31 20ZM12 21L12 22L13 22L13 21ZM18 23L18 24L19 24L19 23ZM25 25L25 28L28 28L28 25ZM31 25L31 26L32 26L32 25ZM17 26L17 27L18 27L18 26ZM26 26L26 27L27 27L27 26ZM22 28L22 29L23 29L23 28ZM11 29L11 30L10 30L10 31L11 31L11 30L12 30L12 29ZM32 30L32 31L33 31L33 30ZM30 31L30 32L31 32L31 33L32 33L32 32L31 32L31 31ZM0 0L0 7L7 7L7 0ZM1 1L1 6L6 6L6 1ZM2 2L2 5L5 5L5 2ZM26 0L26 7L33 7L33 0ZM27 1L27 6L32 6L32 1ZM28 2L28 5L31 5L31 2ZM0 26L0 33L7 33L7 26ZM1 27L1 32L6 32L6 27ZM2 28L2 31L5 31L5 28Z" fill="#000000"/></g></g></svg>
