<?xml version="1.0" encoding="UTF-8"?>
<svg xmlns="http://www.w3.org/2000/svg" version="1.1" width="600" height="600" viewBox="0 0 600 600"><rect x="0" y="0" width="600" height="600" fill="#ffffff"/><g transform="scale(15.385)"><g transform="translate(1,1)"><path fill-rule="evenodd" d="M9 0L9 1L8 1L8 2L9 2L9 3L8 3L8 4L10 4L10 7L11 7L11 4L12 4L12 5L13 5L13 6L12 6L12 9L13 9L13 8L14 8L14 9L15 9L15 10L18 10L18 9L19 9L19 10L22 10L22 11L21 11L21 12L20 12L20 13L19 13L19 12L17 12L17 11L16 11L16 13L12 13L12 11L13 11L13 10L9 10L9 9L11 9L11 8L6 8L6 9L5 9L5 8L0 8L0 14L1 14L1 15L0 15L0 16L1 16L1 18L0 18L0 19L1 19L1 18L2 18L2 17L4 17L4 18L5 18L5 19L8 19L8 17L7 17L7 16L8 16L8 15L7 15L7 14L5 14L5 15L4 15L4 14L3 14L3 13L4 13L4 10L5 10L5 11L7 11L7 10L6 10L6 9L8 9L8 10L9 10L9 11L8 11L8 12L5 12L5 13L8 13L8 12L11 12L11 13L10 13L10 14L11 14L11 13L12 13L12 14L13 14L13 15L12 15L12 17L13 17L13 16L14 16L14 17L15 17L15 18L17 18L17 17L19 17L19 18L18 18L18 20L17 20L17 19L16 19L16 20L17 20L17 21L19 21L19 22L17 22L17 23L18 23L18 24L16 24L16 21L12 21L12 19L13 19L13 18L11 18L11 15L10 15L10 16L9 16L9 18L10 18L10 19L9 19L9 21L8 21L8 22L10 22L10 19L11 19L11 21L12 21L12 22L13 22L13 23L12 23L12 25L13 25L13 24L14 24L14 25L15 25L15 24L16 24L16 25L19 25L19 26L20 26L20 25L21 25L21 27L18 27L18 26L17 26L17 27L18 27L18 28L16 28L16 26L15 26L15 27L14 27L14 28L15 28L15 29L12 29L12 27L13 27L13 26L11 26L11 29L10 29L10 26L8 26L8 23L7 23L7 22L6 22L6 23L5 23L5 20L3 20L3 21L1 21L1 20L0 20L0 21L1 21L1 22L0 22L0 23L1 23L1 25L0 25L0 29L1 29L1 25L2 25L2 28L5 28L5 29L7 29L7 28L8 28L8 27L9 27L9 29L8 29L8 31L9 31L9 29L10 29L10 31L11 31L11 29L12 29L12 30L13 30L13 31L12 31L12 33L13 33L13 32L14 32L14 33L15 33L15 32L17 32L17 33L19 33L19 34L18 34L18 36L17 36L17 35L16 35L16 34L15 34L15 35L14 35L14 36L15 36L15 37L19 37L19 36L20 36L20 35L19 35L19 34L20 34L20 33L21 33L21 34L22 34L22 33L23 33L23 34L24 34L24 36L23 36L23 35L21 35L21 36L22 36L22 37L24 37L24 36L25 36L25 37L26 37L26 36L29 36L29 37L30 37L30 35L26 35L26 34L27 34L27 33L30 33L30 34L31 34L31 35L32 35L32 34L35 34L35 35L36 35L36 36L33 36L33 37L37 37L37 30L35 30L35 28L34 28L34 27L36 27L36 28L37 28L37 26L36 26L36 25L37 25L37 22L36 22L36 21L37 21L37 18L36 18L36 17L37 17L37 14L36 14L36 13L35 13L35 12L34 12L34 11L35 11L35 9L36 9L36 8L35 8L35 9L34 9L34 8L33 8L33 9L34 9L34 11L33 11L33 12L32 12L32 13L31 13L31 12L27 12L27 13L26 13L26 12L25 12L25 11L23 11L23 10L24 10L24 9L26 9L26 11L30 11L30 10L27 10L27 6L28 6L28 8L29 8L29 9L30 9L30 8L29 8L29 5L27 5L27 4L29 4L29 3L28 3L28 2L29 2L29 1L27 1L27 0L26 0L26 1L27 1L27 4L26 4L26 3L25 3L25 4L22 4L22 5L20 5L20 4L21 4L21 3L22 3L22 2L23 2L23 1L24 1L24 0L23 0L23 1L22 1L22 0L21 0L21 1L22 1L22 2L21 2L21 3L20 3L20 2L18 2L18 1L20 1L20 0L18 0L18 1L17 1L17 0L15 0L15 1L17 1L17 2L16 2L16 4L12 4L12 2L13 2L13 1L11 1L11 2L10 2L10 0ZM14 2L14 3L15 3L15 2ZM17 2L17 3L18 3L18 4L16 4L16 5L17 5L17 7L16 7L16 6L15 6L15 7L14 7L14 6L13 6L13 7L14 7L14 8L15 8L15 7L16 7L16 9L17 9L17 8L18 8L18 6L19 6L19 7L20 7L20 8L19 8L19 9L24 9L24 8L26 8L26 6L25 6L25 7L24 7L24 5L22 5L22 6L21 6L21 7L20 7L20 5L18 5L18 4L20 4L20 3L18 3L18 2ZM10 3L10 4L11 4L11 3ZM8 5L8 7L9 7L9 5ZM22 6L22 7L21 7L21 8L22 8L22 7L23 7L23 6ZM31 8L31 9L32 9L32 8ZM1 9L1 10L4 10L4 9ZM31 10L31 11L32 11L32 10ZM36 10L36 11L37 11L37 10ZM14 11L14 12L15 12L15 11ZM2 12L2 13L1 13L1 14L2 14L2 13L3 13L3 12ZM21 12L21 13L20 13L20 14L19 14L19 13L16 13L16 14L19 14L19 15L20 15L20 14L22 14L22 15L24 15L24 14L22 14L22 13L25 13L25 12ZM27 13L27 14L28 14L28 15L29 15L29 16L30 16L30 15L29 15L29 14L28 14L28 13ZM30 13L30 14L31 14L31 16L35 16L35 17L36 17L36 14L35 14L35 15L34 15L34 13L32 13L32 14L31 14L31 13ZM25 14L25 16L26 16L26 17L24 17L24 16L21 16L21 17L20 17L20 16L19 16L19 17L20 17L20 18L19 18L19 21L25 21L25 22L21 22L21 23L20 23L20 22L19 22L19 23L20 23L20 24L19 24L19 25L20 25L20 24L21 24L21 25L22 25L22 26L23 26L23 27L24 27L24 28L21 28L21 29L20 29L20 28L19 28L19 29L20 29L20 30L17 30L17 29L15 29L15 30L17 30L17 32L19 32L19 33L20 33L20 32L21 32L21 33L22 33L22 32L24 32L24 33L25 33L25 34L26 34L26 33L27 33L27 32L28 32L28 29L24 29L24 28L26 28L26 27L27 27L27 28L28 28L28 27L29 27L29 28L30 28L30 27L29 27L29 26L28 26L28 25L29 25L29 24L28 24L28 25L27 25L27 24L26 24L26 23L27 23L27 22L28 22L28 21L29 21L29 20L28 20L28 19L29 19L29 18L31 18L31 17L29 17L29 18L28 18L28 17L27 17L27 16L26 16L26 14ZM32 14L32 15L33 15L33 14ZM3 15L3 16L4 16L4 15ZM6 15L6 16L5 16L5 18L7 18L7 17L6 17L6 16L7 16L7 15ZM14 15L14 16L15 16L15 15ZM16 15L16 17L17 17L17 16L18 16L18 15ZM21 17L21 18L20 18L20 19L21 19L21 20L23 20L23 19L22 19L22 18L24 18L24 19L28 19L28 18L27 18L27 17L26 17L26 18L24 18L24 17ZM32 17L32 18L34 18L34 19L33 19L33 20L36 20L36 19L35 19L35 18L34 18L34 17ZM14 19L14 20L15 20L15 19ZM6 20L6 21L7 21L7 20ZM25 20L25 21L27 21L27 20ZM31 20L31 21L30 21L30 22L29 22L29 23L30 23L30 24L33 24L33 25L32 25L32 26L33 26L33 27L31 27L31 28L33 28L33 27L34 27L34 26L35 26L35 25L34 25L34 24L36 24L36 23L35 23L35 22L34 22L34 21L32 21L32 20ZM31 21L31 22L30 22L30 23L31 23L31 22L32 22L32 21ZM2 22L2 23L3 23L3 24L2 24L2 25L3 25L3 24L4 24L4 25L5 25L5 24L4 24L4 23L3 23L3 22ZM25 22L25 23L26 23L26 22ZM6 23L6 24L7 24L7 23ZM9 23L9 24L11 24L11 23ZM14 23L14 24L15 24L15 23ZM21 23L21 24L22 24L22 25L23 25L23 26L24 26L24 27L26 27L26 26L27 26L27 27L28 27L28 26L27 26L27 25L26 25L26 24L24 24L24 25L23 25L23 24L22 24L22 23ZM6 25L6 26L7 26L7 25ZM24 25L24 26L26 26L26 25ZM30 25L30 26L31 26L31 25ZM33 25L33 26L34 26L34 25ZM4 26L4 27L5 27L5 26ZM6 27L6 28L7 28L7 27ZM21 29L21 30L22 30L22 31L21 31L21 32L22 32L22 31L23 31L23 30L24 30L24 32L25 32L25 33L26 33L26 32L27 32L27 31L26 31L26 32L25 32L25 30L24 30L24 29ZM29 29L29 32L32 32L32 29ZM33 29L33 32L35 32L35 33L36 33L36 32L35 32L35 30L34 30L34 29ZM30 30L30 31L31 31L31 30ZM14 31L14 32L15 32L15 31ZM8 32L8 37L10 37L10 36L9 36L9 35L10 35L10 34L11 34L11 37L12 37L12 35L13 35L13 34L11 34L11 33L10 33L10 32ZM9 33L9 34L10 34L10 33ZM15 35L15 36L16 36L16 35ZM25 35L25 36L26 36L26 35ZM31 36L31 37L32 37L32 36ZM0 0L0 7L7 7L7 0ZM1 1L1 6L6 6L6 1ZM2 2L2 5L5 5L5 2ZM30 0L30 7L37 7L37 0ZM31 1L31 6L36 6L36 1ZM32 2L32 5L35 5L35 2ZM0 30L0 37L7 37L7 30ZM1 31L1 36L6 36L6 31ZM2 32L2 35L5 35L5 32Z" fill="#000000"/></g></g></svg>
