<?xml version="1.0" encoding="UTF-8"?>
<svg xmlns="http://www.w3.org/2000/svg" version="1.1" width="600" height="600" viewBox="0 0 600 600"><rect x="0" y="0" width="600" height="600" fill="#ffffff"/><g transform="scale(17.143)"><g transform="translate(1,1)"><path fill-rule="evenodd" d="M8 0L8 4L9 4L9 5L8 5L8 7L9 7L9 6L10 6L10 9L11 9L11 8L12 8L12 9L13 9L13 10L15 10L15 11L14 11L14 12L16 12L16 13L12 13L12 12L13 12L13 11L12 11L12 12L11 12L11 13L9 13L9 12L10 12L10 11L11 11L11 10L9 10L9 12L8 12L8 10L5 10L5 11L4 11L4 10L3 10L3 9L2 9L2 8L0 8L0 11L1 11L1 9L2 9L2 11L3 11L3 12L2 12L2 13L0 13L0 14L1 14L1 15L2 15L2 16L1 16L1 17L0 17L0 19L1 19L1 20L0 20L0 22L2 22L2 19L1 19L1 17L2 17L2 18L3 18L3 19L5 19L5 21L4 21L4 20L3 20L3 21L4 21L4 23L5 23L5 24L3 24L3 23L2 23L2 24L0 24L0 25L5 25L5 24L6 24L6 25L8 25L8 26L9 26L9 23L11 23L11 24L10 24L10 28L9 28L9 27L8 27L8 29L9 29L9 31L8 31L8 33L10 33L10 32L12 32L12 33L14 33L14 31L15 31L15 33L20 33L20 32L19 32L19 31L18 31L18 30L17 30L17 29L19 29L19 28L18 28L18 27L17 27L17 26L16 26L16 25L19 25L19 23L18 23L18 22L16 22L16 21L22 21L22 22L21 22L21 25L20 25L20 26L21 26L21 29L20 29L20 30L21 30L21 33L22 33L22 31L24 31L24 33L29 33L29 32L30 32L30 31L32 31L32 30L33 30L33 27L32 27L32 24L31 24L31 25L30 25L30 23L29 23L29 22L27 22L27 24L25 24L25 22L24 22L24 21L27 21L27 20L25 20L25 18L24 18L24 17L22 17L22 15L21 15L21 13L22 13L22 14L23 14L23 15L24 15L24 16L25 16L25 17L29 17L29 18L30 18L30 19L29 19L29 20L28 20L28 21L30 21L30 22L31 22L31 23L32 23L32 22L31 22L31 21L30 21L30 19L32 19L32 18L30 18L30 17L29 17L29 16L30 16L30 15L32 15L32 14L30 14L30 13L29 13L29 12L30 12L30 11L31 11L31 10L29 10L29 12L28 12L28 13L29 13L29 14L26 14L26 16L25 16L25 15L24 15L24 13L27 13L27 12L26 12L26 11L25 11L25 10L24 10L24 9L25 9L25 5L24 5L24 4L25 4L25 1L24 1L24 0L22 0L22 1L21 1L21 3L20 3L20 5L19 5L19 3L18 3L18 2L20 2L20 1L19 1L19 0L18 0L18 1L16 1L16 0L15 0L15 1L16 1L16 2L14 2L14 3L13 3L13 1L14 1L14 0L13 0L13 1L11 1L11 2L12 2L12 5L13 5L13 6L12 6L12 7L11 7L11 3L10 3L10 2L9 2L9 0ZM22 1L22 3L21 3L21 4L22 4L22 5L23 5L23 7L22 7L22 6L21 6L21 5L20 5L20 6L19 6L19 5L18 5L18 3L16 3L16 5L15 5L15 8L14 8L14 6L13 6L13 7L12 7L12 8L13 8L13 9L16 9L16 10L17 10L17 11L16 11L16 12L17 12L17 11L18 11L18 12L19 12L19 11L20 11L20 9L21 9L21 11L23 11L23 10L22 10L22 9L23 9L23 8L24 8L24 5L23 5L23 4L22 4L22 3L23 3L23 2L24 2L24 1ZM16 5L16 7L17 7L17 8L16 8L16 9L20 9L20 8L21 8L21 9L22 9L22 7L21 7L21 6L20 6L20 7L19 7L19 6L18 6L18 7L17 7L17 5ZM18 7L18 8L19 8L19 7ZM4 8L4 9L7 9L7 8ZM27 8L27 9L28 9L28 8ZM29 8L29 9L33 9L33 8ZM18 10L18 11L19 11L19 10ZM27 10L27 11L28 11L28 10ZM5 11L5 12L3 12L3 14L2 14L2 15L4 15L4 14L5 14L5 13L6 13L6 14L7 14L7 13L6 13L6 12L7 12L7 11ZM20 12L20 13L16 13L16 15L15 15L15 14L14 14L14 15L12 15L12 16L11 16L11 17L10 17L10 16L9 16L9 17L10 17L10 18L11 18L11 19L9 19L9 20L8 20L8 21L6 21L6 22L8 22L8 21L9 21L9 22L10 22L10 21L11 21L11 22L12 22L12 21L14 21L14 22L13 22L13 23L12 23L12 24L11 24L11 28L10 28L10 29L11 29L11 30L12 30L12 29L13 29L13 30L14 30L14 29L13 29L13 28L15 28L15 29L17 29L17 27L16 27L16 28L15 28L15 25L16 25L16 23L15 23L15 21L16 21L16 20L17 20L17 19L18 19L18 18L19 18L19 20L20 20L20 19L22 19L22 20L23 20L23 21L24 21L24 20L23 20L23 18L21 18L21 17L16 17L16 16L17 16L17 15L18 15L18 14L19 14L19 15L20 15L20 16L21 16L21 15L20 15L20 13L21 13L21 12ZM22 12L22 13L24 13L24 12ZM31 12L31 13L33 13L33 12ZM11 13L11 14L10 14L10 15L11 15L11 14L12 14L12 13ZM8 14L8 15L9 15L9 14ZM29 14L29 15L30 15L30 14ZM6 15L6 16L4 16L4 17L5 17L5 18L7 18L7 19L6 19L6 20L7 20L7 19L8 19L8 16L7 16L7 15ZM14 15L14 17L13 17L13 16L12 16L12 17L13 17L13 19L12 19L12 20L11 20L11 21L12 21L12 20L13 20L13 19L14 19L14 21L15 21L15 19L17 19L17 18L16 18L16 17L15 17L15 15ZM6 16L6 17L7 17L7 16ZM32 16L32 17L33 17L33 16ZM14 17L14 18L15 18L15 17ZM26 18L26 19L28 19L28 18ZM9 20L9 21L10 21L10 20ZM32 20L32 21L33 21L33 20ZM22 22L22 23L23 23L23 24L22 24L22 25L23 25L23 26L22 26L22 29L23 29L23 30L24 30L24 31L25 31L25 32L27 32L27 31L25 31L25 30L24 30L24 28L23 28L23 27L24 27L24 25L23 25L23 24L24 24L24 23L23 23L23 22ZM6 23L6 24L8 24L8 23ZM14 23L14 25L15 25L15 23ZM12 24L12 25L13 25L13 24ZM25 25L25 28L28 28L28 25ZM29 25L29 26L30 26L30 25ZM26 26L26 27L27 27L27 26ZM12 27L12 28L11 28L11 29L12 29L12 28L13 28L13 27ZM30 27L30 29L31 29L31 28L32 28L32 27ZM16 30L16 31L17 31L17 30ZM29 30L29 31L28 31L28 32L29 32L29 31L30 31L30 30ZM9 31L9 32L10 32L10 31ZM12 31L12 32L13 32L13 31ZM32 32L32 33L33 33L33 32ZM0 0L0 7L7 7L7 0ZM1 1L1 6L6 6L6 1ZM2 2L2 5L5 5L5 2ZM26 0L26 7L33 7L33 0ZM27 1L27 6L32 6L32 1ZM28 2L28 5L31 5L31 2ZM0 26L0 33L7 33L7 26ZM1 27L1 32L6 32L6 27ZM2 28L2 31L5 31L5 28Z" fill="#000000"/></g></g></svg>
