<?xml version="1.0" encoding="UTF-8"?>
<svg xmlns="http://www.w3.org/2000/svg" version="1.1" width="600" height="600" viewBox="0 0 600 600"><rect x="0" y="0" width="600" height="600" fill="#ffffff"/><g transform="scale(15.385)"><g transform="translate(1,1)"><path fill-rule="evenodd" d="M8 0L8 1L10 1L10 0ZM15 0L15 1L14 1L14 2L11 2L11 4L10 4L10 3L9 3L9 2L8 2L8 5L9 5L9 6L8 6L8 7L9 7L9 8L8 8L8 9L9 9L9 10L10 10L10 9L9 9L9 8L10 8L10 7L11 7L11 8L12 8L12 7L13 7L13 9L15 9L15 10L14 10L14 11L9 11L9 12L8 12L8 10L6 10L6 11L5 11L5 12L4 12L4 10L5 10L5 9L4 9L4 8L0 8L0 10L1 10L1 11L0 11L0 13L1 13L1 14L2 14L2 13L3 13L3 14L4 14L4 16L5 16L5 14L4 14L4 13L5 13L5 12L6 12L6 13L11 13L11 14L12 14L12 16L11 16L11 15L10 15L10 14L6 14L6 15L10 15L10 16L11 16L11 17L9 17L9 18L10 18L10 19L8 19L8 17L7 17L7 16L6 16L6 17L7 17L7 18L5 18L5 17L1 17L1 18L0 18L0 25L3 25L3 27L2 27L2 26L1 26L1 27L0 27L0 28L1 28L1 27L2 27L2 28L3 28L3 29L8 29L8 30L9 30L9 31L10 31L10 30L11 30L11 28L12 28L12 29L13 29L13 28L12 28L12 26L13 26L13 27L14 27L14 30L13 30L13 33L16 33L16 32L15 32L15 31L17 31L17 34L16 34L16 36L15 36L15 34L14 34L14 35L11 35L11 36L9 36L9 33L11 33L11 32L12 32L12 31L11 31L11 32L9 32L9 33L8 33L8 37L12 37L12 36L15 36L15 37L19 37L19 36L20 36L20 37L21 37L21 36L20 36L20 35L19 35L19 34L20 34L20 33L21 33L21 35L22 35L22 36L24 36L24 34L25 34L25 31L26 31L26 30L27 30L27 29L28 29L28 31L27 31L27 32L28 32L28 33L29 33L29 34L30 34L30 35L29 35L29 36L30 36L30 35L31 35L31 37L37 37L37 36L35 36L35 35L34 35L34 36L33 36L33 34L34 34L34 32L33 32L33 31L36 31L36 32L35 32L35 33L36 33L36 34L37 34L37 27L36 27L36 26L37 26L37 24L35 24L35 22L36 22L36 19L37 19L37 17L36 17L36 16L37 16L37 15L36 15L36 16L34 16L34 14L35 14L35 11L36 11L36 12L37 12L37 11L36 11L36 10L35 10L35 8L32 8L32 9L34 9L34 10L32 10L32 11L31 11L31 12L30 12L30 14L31 14L31 15L30 15L30 16L29 16L29 15L28 15L28 16L25 16L25 15L27 15L27 14L28 14L28 13L29 13L29 11L30 11L30 8L29 8L29 10L28 10L28 11L27 11L27 9L26 9L26 11L25 11L25 13L26 13L26 14L25 14L25 15L24 15L24 16L23 16L23 14L21 14L21 12L20 12L20 11L21 11L21 10L22 10L22 11L24 11L24 10L25 10L25 8L24 8L24 7L25 7L25 6L26 6L26 7L27 7L27 8L28 8L28 7L29 7L29 5L28 5L28 4L29 4L29 3L28 3L28 2L29 2L29 0L28 0L28 2L27 2L27 3L28 3L28 4L27 4L27 5L26 5L26 2L25 2L25 6L24 6L24 7L23 7L23 4L22 4L22 5L21 5L21 6L20 6L20 4L19 4L19 3L21 3L21 1L22 1L22 0L21 0L21 1L20 1L20 0L19 0L19 1L18 1L18 0ZM23 0L23 3L24 3L24 0ZM26 0L26 1L27 1L27 0ZM16 1L16 3L12 3L12 5L10 5L10 6L9 6L9 7L10 7L10 6L11 6L11 7L12 7L12 5L13 5L13 7L14 7L14 5L15 5L15 9L16 9L16 8L17 8L17 7L18 7L18 9L17 9L17 10L16 10L16 12L12 12L12 14L13 14L13 15L14 15L14 16L12 16L12 17L11 17L11 18L12 18L12 17L14 17L14 18L13 18L13 20L14 20L14 21L15 21L15 19L17 19L17 18L18 18L18 21L19 21L19 19L20 19L20 18L23 18L23 19L24 19L24 20L22 20L22 19L21 19L21 20L20 20L20 21L21 21L21 20L22 20L22 22L19 22L19 25L20 25L20 23L21 23L21 26L20 26L20 27L22 27L22 28L24 28L24 29L25 29L25 28L26 28L26 27L24 27L24 24L25 24L25 22L27 22L27 24L29 24L29 23L30 23L30 22L31 22L31 26L30 26L30 27L31 27L31 28L33 28L33 29L34 29L34 30L36 30L36 29L34 29L34 28L36 28L36 27L35 27L35 26L36 26L36 25L34 25L34 22L35 22L35 18L34 18L34 17L33 17L33 16L32 16L32 15L31 15L31 16L30 16L30 17L31 17L31 16L32 16L32 19L30 19L30 18L29 18L29 19L28 19L28 20L27 20L27 19L24 19L24 18L25 18L25 17L24 17L24 18L23 18L23 16L22 16L22 17L21 17L21 16L18 16L18 15L19 15L19 14L18 14L18 15L17 15L17 13L16 13L16 12L19 12L19 13L20 13L20 12L19 12L19 11L20 11L20 10L21 10L21 8L23 8L23 9L24 9L24 8L23 8L23 7L22 7L22 6L21 6L21 7L20 7L20 6L19 6L19 5L18 5L18 6L17 6L17 4L16 4L16 3L18 3L18 2L17 2L17 1ZM19 1L19 2L20 2L20 1ZM13 4L13 5L14 5L14 4ZM27 5L27 7L28 7L28 5ZM16 6L16 7L17 7L17 6ZM18 6L18 7L19 7L19 10L20 10L20 7L19 7L19 6ZM6 8L6 9L7 9L7 8ZM36 8L36 9L37 9L37 8ZM1 9L1 10L4 10L4 9ZM17 10L17 11L18 11L18 10ZM6 11L6 12L7 12L7 11ZM33 11L33 12L34 12L34 11ZM1 12L1 13L2 13L2 12ZM22 12L22 13L23 13L23 12ZM13 13L13 14L14 14L14 15L15 15L15 16L16 16L16 15L15 15L15 14L14 14L14 13ZM31 13L31 14L32 14L32 13ZM36 13L36 14L37 14L37 13ZM20 14L20 15L21 15L21 14ZM1 15L1 16L3 16L3 15ZM28 16L28 17L29 17L29 16ZM18 17L18 18L19 18L19 17ZM3 18L3 19L2 19L2 20L3 20L3 21L2 21L2 22L1 22L1 23L3 23L3 25L4 25L4 24L5 24L5 26L7 26L7 25L8 25L8 26L9 26L9 28L8 28L8 27L6 27L6 28L8 28L8 29L9 29L9 30L10 30L10 27L11 27L11 25L12 25L12 24L13 24L13 26L14 26L14 27L15 27L15 28L16 28L16 29L15 29L15 30L16 30L16 29L17 29L17 30L18 30L18 33L19 33L19 31L20 31L20 30L22 30L22 31L21 31L21 32L22 32L22 35L23 35L23 33L24 33L24 32L22 32L22 31L25 31L25 30L22 30L22 29L21 29L21 28L18 28L18 27L19 27L19 26L17 26L17 28L16 28L16 27L15 27L15 26L16 26L16 25L17 25L17 24L18 24L18 23L17 23L17 24L16 24L16 22L17 22L17 20L16 20L16 22L14 22L14 23L11 23L11 25L10 25L10 24L7 24L7 23L8 23L8 22L7 22L7 21L9 21L9 22L10 22L10 21L11 21L11 22L12 22L12 21L11 21L11 20L12 20L12 19L11 19L11 20L7 20L7 19L5 19L5 18ZM3 19L3 20L4 20L4 21L3 21L3 23L5 23L5 24L6 24L6 25L7 25L7 24L6 24L6 23L7 23L7 22L4 22L4 21L5 21L5 19ZM29 19L29 20L30 20L30 19ZM32 19L32 21L33 21L33 22L34 22L34 20L33 20L33 19ZM6 20L6 21L7 21L7 20ZM24 20L24 21L23 21L23 24L24 24L24 22L25 22L25 20ZM26 20L26 21L27 21L27 20ZM28 21L28 22L29 22L29 21ZM32 23L32 26L31 26L31 27L32 27L32 26L33 26L33 28L34 28L34 25L33 25L33 23ZM14 24L14 26L15 26L15 25L16 25L16 24ZM22 25L22 26L23 26L23 25ZM25 25L25 26L26 26L26 25ZM27 26L27 28L28 28L28 26ZM3 27L3 28L4 28L4 27ZM18 29L18 30L19 30L19 29ZM29 29L29 32L32 32L32 29ZM30 30L30 31L31 31L31 30ZM26 33L26 35L25 35L25 37L26 37L26 35L28 35L28 34L27 34L27 33ZM31 34L31 35L32 35L32 34ZM17 35L17 36L18 36L18 35ZM0 0L0 7L7 7L7 0ZM1 1L1 6L6 6L6 1ZM2 2L2 5L5 5L5 2ZM30 0L30 7L37 7L37 0ZM31 1L31 6L36 6L36 1ZM32 2L32 5L35 5L35 2ZM0 30L0 37L7 37L7 30ZM1 31L1 36L6 36L6 31ZM2 32L2 35L5 35L5 32Z" fill="#000000"/></g></g></svg>
