<?xml version="1.0" encoding="UTF-8"?>
<svg xmlns="http://www.w3.org/2000/svg" version="1.1" width="600" height="600" viewBox="0 0 600 600"><rect x="0" y="0" width="600" height="600" fill="#ffffff"/><g transform="scale(15.385)"><g transform="translate(1,1)"><path fill-rule="evenodd" d="M9 0L9 1L8 1L8 2L9 2L9 3L8 3L8 4L10 4L10 7L11 7L11 4L12 4L12 5L13 5L13 6L12 6L12 9L13 9L13 8L14 8L14 9L15 9L15 10L18 10L18 9L19 9L19 10L20 10L20 9L21 9L21 12L23 12L23 10L25 10L25 9L26 9L26 11L30 11L30 10L27 10L27 6L28 6L28 8L29 8L29 9L30 9L30 8L29 8L29 5L27 5L27 4L29 4L29 3L28 3L28 2L29 2L29 1L27 1L27 0L26 0L26 1L27 1L27 2L26 2L26 3L25 3L25 1L24 1L24 0L23 0L23 1L22 1L22 0L21 0L21 1L20 1L20 0L18 0L18 1L17 1L17 0L15 0L15 1L17 1L17 2L16 2L16 4L12 4L12 2L13 2L13 1L11 1L11 2L10 2L10 0ZM18 1L18 2L17 2L17 3L18 3L18 4L16 4L16 5L17 5L17 7L16 7L16 6L15 6L15 7L14 7L14 6L13 6L13 7L14 7L14 8L15 8L15 7L16 7L16 9L17 9L17 8L18 8L18 6L19 6L19 8L21 8L21 9L22 9L22 10L23 10L23 9L25 9L25 8L26 8L26 6L25 6L25 5L23 5L23 4L25 4L25 3L23 3L23 4L22 4L22 3L21 3L21 2L20 2L20 1ZM23 1L23 2L24 2L24 1ZM14 2L14 3L15 3L15 2ZM18 2L18 3L20 3L20 2ZM10 3L10 4L11 4L11 3ZM26 3L26 4L27 4L27 3ZM18 4L18 5L20 5L20 7L21 7L21 8L22 8L22 9L23 9L23 8L25 8L25 6L24 6L24 7L23 7L23 6L22 6L22 7L21 7L21 5L22 5L22 4ZM8 5L8 7L9 7L9 5ZM22 7L22 8L23 8L23 7ZM0 8L0 11L4 11L4 10L3 10L3 9L5 9L5 10L6 10L6 11L5 11L5 12L3 12L3 13L1 13L1 12L0 12L0 13L1 13L1 14L0 14L0 17L1 17L1 20L0 20L0 24L1 24L1 23L2 23L2 19L4 19L4 21L3 21L3 26L6 26L6 27L7 27L7 28L6 28L6 29L8 29L8 31L9 31L9 32L8 32L8 37L9 37L9 36L10 36L10 34L11 34L11 37L12 37L12 35L13 35L13 34L11 34L11 33L10 33L10 31L9 31L9 29L10 29L10 30L11 30L11 29L12 29L12 30L13 30L13 31L12 31L12 33L13 33L13 32L14 32L14 33L15 33L15 32L17 32L17 33L19 33L19 34L18 34L18 36L17 36L17 35L16 35L16 34L15 34L15 35L14 35L14 36L15 36L15 37L19 37L19 34L20 34L20 36L22 36L22 37L23 37L23 35L22 35L22 34L24 34L24 35L26 35L26 36L24 36L24 37L27 37L27 36L29 36L29 37L30 37L30 35L26 35L26 34L25 34L25 33L30 33L30 34L31 34L31 35L32 35L32 34L35 34L35 35L36 35L36 36L33 36L33 37L37 37L37 30L35 30L35 28L34 28L34 27L36 27L36 28L37 28L37 26L36 26L36 25L37 25L37 22L36 22L36 21L37 21L37 18L36 18L36 17L37 17L37 14L36 14L36 13L35 13L35 12L34 12L34 11L35 11L35 9L36 9L36 8L35 8L35 9L34 9L34 8L33 8L33 9L34 9L34 11L33 11L33 12L32 12L32 13L31 13L31 12L27 12L27 13L26 13L26 12L25 12L25 13L19 13L19 12L20 12L20 11L19 11L19 12L17 12L17 11L16 11L16 13L12 13L12 11L13 11L13 10L11 10L11 12L10 12L10 13L9 13L9 11L8 11L8 10L9 10L9 9L11 9L11 8L6 8L6 9L5 9L5 8ZM31 8L31 9L32 9L32 8ZM6 9L6 10L7 10L7 9ZM31 10L31 11L32 11L32 10ZM36 10L36 11L37 11L37 10ZM6 11L6 12L7 12L7 13L6 13L6 14L5 14L5 13L3 13L3 15L5 15L5 16L7 16L7 15L6 15L6 14L8 14L8 15L9 15L9 13L8 13L8 11ZM14 11L14 12L15 12L15 11ZM11 13L11 17L10 17L10 16L8 16L8 18L13 18L13 19L12 19L12 21L11 21L11 20L10 20L10 21L9 21L9 19L8 19L8 20L7 20L7 19L6 19L6 20L7 20L7 21L6 21L6 22L8 22L8 23L9 23L9 22L10 22L10 23L11 23L11 26L13 26L13 27L12 27L12 29L15 29L15 30L17 30L17 32L21 32L21 33L20 33L20 34L21 34L21 33L25 33L25 32L26 32L26 30L27 30L27 32L28 32L28 29L24 29L24 28L23 28L23 27L25 27L25 28L28 28L28 27L29 27L29 28L30 28L30 27L29 27L29 26L28 26L28 25L29 25L29 24L28 24L28 25L27 25L27 24L26 24L26 21L27 21L27 22L28 22L28 21L29 21L29 20L28 20L28 19L29 19L29 18L31 18L31 17L29 17L29 18L28 18L28 17L27 17L27 16L26 16L26 14L25 14L25 16L24 16L24 14L19 14L19 13L16 13L16 14L19 14L19 16L21 16L21 17L20 17L20 18L19 18L19 17L17 17L17 16L18 16L18 15L16 15L16 17L17 17L17 18L15 18L15 17L14 17L14 16L15 16L15 15L14 15L14 16L13 16L13 17L12 17L12 15L13 15L13 14L12 14L12 13ZM27 13L27 14L28 14L28 15L29 15L29 16L30 16L30 15L29 15L29 14L28 14L28 13ZM30 13L30 14L31 14L31 16L35 16L35 17L36 17L36 14L35 14L35 15L34 15L34 13L32 13L32 14L31 14L31 13ZM1 14L1 15L2 15L2 14ZM32 14L32 15L33 15L33 14ZM21 15L21 16L22 16L22 17L21 17L21 18L20 18L20 20L22 20L22 21L19 21L19 18L18 18L18 20L17 20L17 19L16 19L16 20L17 20L17 21L19 21L19 22L17 22L17 23L18 23L18 24L16 24L16 21L12 21L12 22L13 22L13 23L12 23L12 25L13 25L13 24L14 24L14 25L19 25L19 26L20 26L20 25L21 25L21 28L19 28L19 27L18 27L18 26L15 26L15 27L14 27L14 28L15 28L15 29L17 29L17 30L20 30L20 29L21 29L21 32L23 32L23 31L22 31L22 30L24 30L24 29L21 29L21 28L22 28L22 27L23 27L23 26L27 26L27 27L28 27L28 26L27 26L27 25L26 25L26 24L25 24L25 23L23 23L23 22L25 22L25 21L26 21L26 20L25 20L25 19L24 19L24 20L25 20L25 21L23 21L23 19L21 19L21 18L22 18L22 17L23 17L23 18L25 18L25 17L26 17L26 19L28 19L28 18L27 18L27 17L26 17L26 16L25 16L25 17L23 17L23 16L22 16L22 15ZM1 16L1 17L3 17L3 16ZM4 17L4 18L7 18L7 17ZM32 17L32 18L34 18L34 19L33 19L33 20L36 20L36 19L35 19L35 18L34 18L34 17ZM14 19L14 20L15 20L15 19ZM31 20L31 21L30 21L30 22L29 22L29 23L30 23L30 24L33 24L33 25L32 25L32 26L33 26L33 27L31 27L31 28L33 28L33 27L34 27L34 26L35 26L35 25L34 25L34 24L36 24L36 23L35 23L35 22L34 22L34 21L32 21L32 20ZM8 21L8 22L9 22L9 21ZM10 21L10 22L11 22L11 21ZM22 21L22 22L21 22L21 23L20 23L20 22L19 22L19 23L20 23L20 24L19 24L19 25L20 25L20 24L21 24L21 25L25 25L25 24L23 24L23 23L22 23L22 22L23 22L23 21ZM31 21L31 22L30 22L30 23L31 23L31 22L32 22L32 21ZM4 22L4 25L6 25L6 26L8 26L8 25L9 25L9 24L7 24L7 23L5 23L5 22ZM14 23L14 24L15 24L15 23ZM21 23L21 24L22 24L22 23ZM6 24L6 25L7 25L7 24ZM0 25L0 29L1 29L1 26L2 26L2 25ZM30 25L30 26L31 26L31 25ZM33 25L33 26L34 26L34 25ZM9 26L9 27L8 27L8 29L9 29L9 28L10 28L10 26ZM2 27L2 29L5 29L5 27L4 27L4 28L3 28L3 27ZM16 27L16 28L18 28L18 27ZM29 29L29 32L32 32L32 29ZM33 29L33 32L35 32L35 33L36 33L36 32L35 32L35 30L34 30L34 29ZM30 30L30 31L31 31L31 30ZM14 31L14 32L15 32L15 31ZM9 33L9 34L10 34L10 33ZM15 35L15 36L16 36L16 35ZM31 36L31 37L32 37L32 36ZM0 0L0 7L7 7L7 0ZM1 1L1 6L6 6L6 1ZM2 2L2 5L5 5L5 2ZM30 0L30 7L37 7L37 0ZM31 1L31 6L36 6L36 1ZM32 2L32 5L35 5L35 2ZM0 30L0 37L7 37L7 30ZM1 31L1 36L6 36L6 31ZM2 32L2 35L5 35L5 32Z" fill="#000000"/></g></g></svg>
