<?xml version="1.0" encoding="UTF-8"?>
<svg xmlns="http://www.w3.org/2000/svg" version="1.1" width="600" height="600" viewBox="0 0 600 600"><rect x="0" y="0" width="600" height="600" fill="#ffffff"/><g transform="scale(15.385)"><g transform="translate(1,1)"><path fill-rule="evenodd" d="M9 0L9 1L8 1L8 2L9 2L9 3L8 3L8 4L10 4L10 7L11 7L11 4L12 4L12 5L13 5L13 6L12 6L12 9L13 9L13 8L14 8L14 9L15 9L15 10L17 10L17 9L19 9L19 10L18 10L18 12L17 12L17 11L16 11L16 13L12 13L12 11L13 11L13 10L11 10L11 12L10 12L10 11L9 11L9 9L11 9L11 8L6 8L6 9L5 9L5 8L0 8L0 9L1 9L1 12L0 12L0 14L1 14L1 15L0 15L0 17L1 17L1 15L3 15L3 16L2 16L2 17L3 17L3 18L0 18L0 19L1 19L1 20L0 20L0 21L1 21L1 22L0 22L0 29L1 29L1 26L4 26L4 25L3 25L3 22L4 22L4 24L6 24L6 25L5 25L5 27L4 27L4 28L5 28L5 29L7 29L7 28L8 28L8 31L9 31L9 32L8 32L8 37L9 37L9 32L11 32L11 29L12 29L12 30L13 30L13 31L12 31L12 33L13 33L13 32L14 32L14 33L17 33L17 34L15 34L15 35L14 35L14 36L15 36L15 37L21 37L21 36L23 36L23 35L22 35L22 33L23 33L23 34L25 34L25 33L26 33L26 34L27 34L27 33L29 33L29 35L27 35L27 36L25 36L25 35L24 35L24 37L27 37L27 36L31 36L31 37L37 37L37 33L36 33L36 31L37 31L37 30L35 30L35 28L34 28L34 27L36 27L36 28L37 28L37 26L36 26L36 25L37 25L37 22L36 22L36 21L37 21L37 18L36 18L36 17L37 17L37 14L36 14L36 13L35 13L35 12L34 12L34 11L35 11L35 9L36 9L36 8L35 8L35 9L34 9L34 8L33 8L33 9L34 9L34 11L32 11L32 12L31 12L31 10L30 10L30 8L28 8L28 7L29 7L29 5L27 5L27 4L26 4L26 3L25 3L25 4L19 4L19 3L17 3L17 2L16 2L16 4L12 4L12 2L13 2L13 1L11 1L11 2L10 2L10 0ZM15 0L15 1L18 1L18 0ZM19 0L19 1L20 1L20 0ZM21 0L21 2L20 2L20 3L22 3L22 1L25 1L25 0ZM26 0L26 2L28 2L28 4L29 4L29 0L28 0L28 1L27 1L27 0ZM14 2L14 3L15 3L15 2ZM10 3L10 4L11 4L11 3ZM16 4L16 5L19 5L19 7L20 7L20 6L21 6L21 7L22 7L22 6L23 6L23 7L24 7L24 5L22 5L22 6L21 6L21 5L19 5L19 4ZM8 5L8 7L9 7L9 5ZM25 5L25 8L19 8L19 9L20 9L20 10L19 10L19 11L21 11L21 10L22 10L22 11L23 11L23 12L21 12L21 13L20 13L20 12L19 12L19 13L16 13L16 14L19 14L19 16L21 16L21 17L20 17L20 18L19 18L19 17L17 17L17 16L18 16L18 15L16 15L16 17L17 17L17 18L15 18L15 17L14 17L14 16L15 16L15 15L14 15L14 16L13 16L13 17L12 17L12 15L13 15L13 14L12 14L12 13L11 13L11 16L10 16L10 15L9 15L9 14L10 14L10 12L9 12L9 13L6 13L6 12L7 12L7 11L8 11L8 9L6 9L6 10L7 10L7 11L5 11L5 9L2 9L2 10L4 10L4 11L3 11L3 12L1 12L1 13L3 13L3 12L4 12L4 11L5 11L5 13L6 13L6 14L8 14L8 15L6 15L6 16L4 16L4 17L5 17L5 18L3 18L3 19L2 19L2 20L1 20L1 21L2 21L2 22L1 22L1 23L2 23L2 22L3 22L3 21L4 21L4 19L5 19L5 20L9 20L9 21L11 21L11 25L10 25L10 24L9 24L9 26L13 26L13 27L12 27L12 29L16 29L16 31L14 31L14 32L18 32L18 31L20 31L20 32L19 32L19 33L20 33L20 34L17 34L17 35L16 35L16 36L21 36L21 33L22 33L22 32L21 32L21 30L22 30L22 31L23 31L23 33L25 33L25 32L26 32L26 33L27 33L27 32L28 32L28 30L26 30L26 29L28 29L28 27L29 27L29 26L31 26L31 28L33 28L33 27L34 27L34 26L35 26L35 25L34 25L34 24L36 24L36 23L34 23L34 24L33 24L33 25L32 25L32 24L31 24L31 23L32 23L32 22L33 22L33 21L34 21L34 22L35 22L35 21L34 21L34 20L36 20L36 19L35 19L35 17L36 17L36 14L35 14L35 15L34 15L34 13L30 13L30 10L29 10L29 9L25 9L25 8L26 8L26 5ZM13 6L13 7L14 7L14 8L15 8L15 7L16 7L16 9L17 9L17 8L18 8L18 6L17 6L17 7L16 7L16 6L15 6L15 7L14 7L14 6ZM27 6L27 7L28 7L28 6ZM31 8L31 9L32 9L32 8ZM22 9L22 10L24 10L24 12L23 12L23 13L21 13L21 14L20 14L20 13L19 13L19 14L20 14L20 15L21 15L21 16L22 16L22 17L21 17L21 20L20 20L20 21L19 21L19 19L18 19L18 18L17 18L17 19L16 19L16 21L12 21L12 19L13 19L13 18L11 18L11 17L10 17L10 18L9 18L9 20L11 20L11 21L12 21L12 22L13 22L13 23L12 23L12 25L13 25L13 24L14 24L14 25L15 25L15 26L17 26L17 25L19 25L19 26L18 26L18 28L17 28L17 27L16 27L16 28L17 28L17 29L19 29L19 30L20 30L20 29L21 29L21 28L22 28L22 26L24 26L24 28L25 28L25 29L22 29L22 30L24 30L24 31L25 31L25 29L26 29L26 28L27 28L27 27L28 27L28 26L29 26L29 25L31 25L31 24L30 24L30 22L29 22L29 20L25 20L25 18L27 18L27 19L29 19L29 18L30 18L30 21L33 21L33 20L34 20L34 19L33 19L33 20L31 20L31 19L32 19L32 18L30 18L30 17L33 17L33 18L34 18L34 17L35 17L35 16L34 16L34 15L33 15L33 14L32 14L32 16L31 16L31 14L30 14L30 13L29 13L29 12L25 12L25 11L28 11L28 10L25 10L25 9ZM36 10L36 11L37 11L37 10ZM14 11L14 12L15 12L15 11ZM24 12L24 13L25 13L25 16L24 16L24 14L21 14L21 15L22 15L22 16L24 16L24 17L25 17L25 16L26 16L26 17L27 17L27 18L29 18L29 17L30 17L30 14L29 14L29 13L25 13L25 12ZM26 14L26 16L27 16L27 15L28 15L28 16L29 16L29 14ZM8 15L8 16L6 16L6 17L7 17L7 18L5 18L5 19L8 19L8 16L9 16L9 15ZM33 16L33 17L34 17L34 16ZM22 17L22 18L23 18L23 19L22 19L22 20L21 20L21 21L20 21L20 22L17 22L17 21L16 21L16 22L17 22L17 23L16 23L16 25L17 25L17 24L19 24L19 25L23 25L23 24L24 24L24 25L25 25L25 28L26 28L26 27L27 27L27 26L28 26L28 25L27 25L27 23L26 23L26 22L28 22L28 23L29 23L29 22L28 22L28 21L24 21L24 20L23 20L23 19L24 19L24 18L23 18L23 17ZM14 19L14 20L15 20L15 19ZM17 19L17 20L18 20L18 19ZM2 20L2 21L3 21L3 20ZM6 21L6 22L7 22L7 21ZM21 21L21 22L20 22L20 23L21 23L21 24L22 24L22 23L23 23L23 22L24 22L24 24L25 24L25 25L26 25L26 26L27 26L27 25L26 25L26 24L25 24L25 22L24 22L24 21ZM9 22L9 23L10 23L10 22ZM6 23L6 24L7 24L7 23ZM14 23L14 24L15 24L15 23ZM6 25L6 26L8 26L8 25ZM19 26L19 28L21 28L21 27L20 27L20 26ZM6 27L6 28L7 28L7 27ZM9 27L9 31L10 31L10 29L11 29L11 28L10 28L10 27ZM14 27L14 28L15 28L15 27ZM29 29L29 32L32 32L32 29ZM33 29L33 30L34 30L34 29ZM17 30L17 31L18 31L18 30ZM30 30L30 31L31 31L31 30ZM26 31L26 32L27 32L27 31ZM34 31L34 32L33 32L33 33L34 33L34 36L36 36L36 35L35 35L35 34L36 34L36 33L34 33L34 32L35 32L35 31ZM20 32L20 33L21 33L21 32ZM11 34L11 37L12 37L12 35L13 35L13 34ZM30 34L30 35L31 35L31 36L32 36L32 35L33 35L33 34ZM0 0L0 7L7 7L7 0ZM1 1L1 6L6 6L6 1ZM2 2L2 5L5 5L5 2ZM30 0L30 7L37 7L37 0ZM31 1L31 6L36 6L36 1ZM32 2L32 5L35 5L35 2ZM0 30L0 37L7 37L7 30ZM1 31L1 36L6 36L6 31ZM2 32L2 35L5 35L5 32Z" fill="#000000"/></g></g></svg>
