<?xml version="1.0" encoding="UTF-8"?>
<svg xmlns="http://www.w3.org/2000/svg" version="1.1" width="600" height="600" viewBox="0 0 600 600"><rect x="0" y="0" width="600" height="600" fill="#ffffff"/><g transform="scale(15.385)"><g transform="translate(1,1)"><path fill-rule="evenodd" d="M8 0L8 1L9 1L9 2L8 2L8 5L9 5L9 4L11 4L11 5L10 5L10 9L9 9L9 8L8 8L8 9L9 9L9 12L10 12L10 10L11 10L11 11L14 11L14 10L16 10L16 12L14 12L14 14L13 14L13 12L12 12L12 13L11 13L11 15L9 15L9 14L10 14L10 13L8 13L8 12L6 12L6 13L8 13L8 15L9 15L9 16L10 16L10 18L9 18L9 17L8 17L8 16L5 16L5 15L4 15L4 16L3 16L3 17L4 17L4 19L5 19L5 21L3 21L3 20L0 20L0 21L1 21L1 22L0 22L0 24L1 24L1 27L0 27L0 28L1 28L1 27L2 27L2 29L3 29L3 28L4 28L4 29L5 29L5 28L6 28L6 29L7 29L7 28L6 28L6 27L8 27L8 28L9 28L9 29L8 29L8 30L9 30L9 31L10 31L10 32L9 32L9 33L8 33L8 37L9 37L9 36L11 36L11 35L14 35L14 34L15 34L15 33L14 33L14 32L13 32L13 30L14 30L14 29L12 29L12 28L14 28L14 27L15 27L15 28L16 28L16 29L15 29L15 31L17 31L17 33L18 33L18 31L19 31L19 29L18 29L18 31L17 31L17 28L16 28L16 27L17 27L17 26L16 26L16 27L15 27L15 26L14 26L14 25L13 25L13 26L12 26L12 24L16 24L16 22L17 22L17 21L18 21L18 19L19 19L19 22L18 22L18 23L19 23L19 24L17 24L17 25L19 25L19 26L18 26L18 27L19 27L19 28L21 28L21 29L22 29L22 31L23 31L23 32L19 32L19 34L18 34L18 35L19 35L19 36L17 36L17 37L19 37L19 36L20 36L20 37L21 37L21 34L23 34L23 36L25 36L25 37L26 37L26 35L28 35L28 34L27 34L27 33L26 33L26 35L25 35L25 34L24 34L24 33L23 33L23 32L25 32L25 31L23 31L23 30L26 30L26 28L27 28L27 26L28 26L28 29L27 29L27 30L28 30L28 31L27 31L27 32L28 32L28 33L30 33L30 34L29 34L29 37L30 37L30 36L31 36L31 37L32 37L32 35L33 35L33 37L37 37L37 36L35 36L35 35L34 35L34 34L37 34L37 33L33 33L33 32L34 32L34 31L33 31L33 30L34 30L34 29L36 29L36 30L35 30L35 32L36 32L36 31L37 31L37 27L36 27L36 26L37 26L37 24L35 24L35 23L34 23L34 22L36 22L36 19L37 19L37 17L36 17L36 16L37 16L37 15L36 15L36 16L34 16L34 17L33 17L33 18L31 18L31 17L32 17L32 16L31 16L31 15L34 15L34 14L35 14L35 11L36 11L36 12L37 12L37 11L36 11L36 10L35 10L35 8L32 8L32 9L34 9L34 10L30 10L30 12L29 12L29 10L28 10L28 11L25 11L25 10L27 10L27 9L30 9L30 8L29 8L29 6L28 6L28 7L27 7L27 5L28 5L28 4L29 4L29 2L28 2L28 4L27 4L27 2L26 2L26 1L27 1L27 0L25 0L25 2L24 2L24 0L23 0L23 2L24 2L24 3L25 3L25 4L27 4L27 5L25 5L25 6L24 6L24 7L23 7L23 5L21 5L21 4L19 4L19 3L17 3L17 2L19 2L19 1L20 1L20 3L21 3L21 1L22 1L22 0L18 0L18 1L16 1L16 0L12 0L12 1L11 1L11 0L10 0L10 1L9 1L9 0ZM14 1L14 2L11 2L11 4L12 4L12 3L13 3L13 5L12 5L12 6L11 6L11 8L12 8L12 6L13 6L13 8L14 8L14 9L15 9L15 7L16 7L16 6L15 6L15 5L16 5L16 4L17 4L17 7L18 7L18 4L17 4L17 3L16 3L16 1ZM14 3L14 5L13 5L13 6L14 6L14 7L15 7L15 6L14 6L14 5L15 5L15 4L16 4L16 3ZM22 3L22 4L23 4L23 3ZM20 5L20 6L19 6L19 7L20 7L20 9L21 9L21 8L22 8L22 6L21 6L21 5ZM8 6L8 7L9 7L9 6ZM20 6L20 7L21 7L21 6ZM25 6L25 9L27 9L27 8L26 8L26 6ZM0 8L0 10L1 10L1 11L2 11L2 12L0 12L0 14L1 14L1 15L0 15L0 18L1 18L1 17L2 17L2 14L5 14L5 11L4 11L4 8ZM6 8L6 9L5 9L5 10L6 10L6 11L7 11L7 10L6 10L6 9L7 9L7 8ZM16 8L16 10L17 10L17 12L16 12L16 13L15 13L15 14L14 14L14 15L13 15L13 14L12 14L12 16L11 16L11 18L10 18L10 20L9 20L9 21L10 21L10 20L11 20L11 23L14 23L14 22L15 22L15 21L16 21L16 20L17 20L17 19L15 19L15 21L13 21L13 18L14 18L14 15L15 15L15 16L16 16L16 15L15 15L15 14L16 14L16 13L17 13L17 12L19 12L19 13L20 13L20 14L21 14L21 15L20 15L20 16L18 16L18 15L19 15L19 14L17 14L17 18L18 18L18 17L19 17L19 19L21 19L21 20L20 20L20 21L21 21L21 20L22 20L22 22L19 22L19 23L20 23L20 24L19 24L19 25L20 25L20 24L21 24L21 26L20 26L20 27L21 27L21 26L22 26L22 25L23 25L23 27L22 27L22 28L24 28L24 29L25 29L25 28L26 28L26 26L27 26L27 24L28 24L28 25L29 25L29 26L30 26L30 27L29 27L29 28L30 28L30 27L31 27L31 28L33 28L33 29L34 29L34 28L36 28L36 27L35 27L35 26L36 26L36 25L34 25L34 24L33 24L33 23L32 23L32 22L34 22L34 21L35 21L35 17L34 17L34 20L33 20L33 19L32 19L32 20L33 20L33 21L32 21L32 22L31 22L31 19L29 19L29 18L30 18L30 17L31 17L31 16L30 16L30 15L31 15L31 14L30 14L30 13L29 13L29 14L30 14L30 15L29 15L29 17L28 17L28 16L27 16L27 15L28 15L28 14L27 14L27 12L26 12L26 13L25 13L25 12L24 12L24 11L23 11L23 12L22 12L22 10L21 10L21 12L19 12L19 11L20 11L20 10L19 10L19 8L18 8L18 9L17 9L17 8ZM23 8L23 9L24 9L24 8ZM36 8L36 9L37 9L37 8ZM2 9L2 10L3 10L3 9ZM11 9L11 10L12 10L12 9ZM3 11L3 12L2 12L2 13L4 13L4 11ZM32 11L32 12L31 12L31 13L32 13L32 12L34 12L34 11ZM22 13L22 14L23 14L23 13ZM36 13L36 14L37 14L37 13ZM6 14L6 15L7 15L7 14ZM24 14L24 16L23 16L23 15L21 15L21 16L20 16L20 18L21 18L21 17L22 17L22 19L23 19L23 18L24 18L24 20L25 20L25 19L26 19L26 16L25 16L25 15L26 15L26 14ZM4 16L4 17L5 17L5 18L8 18L8 19L9 19L9 18L8 18L8 17L5 17L5 16ZM12 16L12 17L13 17L13 16ZM24 16L24 17L25 17L25 16ZM15 17L15 18L16 18L16 17ZM27 17L27 21L25 21L25 22L26 22L26 23L25 23L25 25L26 25L26 24L27 24L27 21L28 21L28 23L29 23L29 25L30 25L30 26L32 26L32 27L33 27L33 28L34 28L34 26L33 26L33 24L32 24L32 23L30 23L30 20L29 20L29 19L28 19L28 17ZM6 19L6 20L7 20L7 19ZM11 19L11 20L12 20L12 19ZM2 21L2 22L3 22L3 21ZM6 21L6 22L7 22L7 23L4 23L4 26L3 26L3 23L1 23L1 24L2 24L2 26L3 26L3 27L5 27L5 24L7 24L7 23L8 23L8 25L6 25L6 26L8 26L8 27L9 27L9 28L12 28L12 26L10 26L10 25L11 25L11 24L10 24L10 23L8 23L8 22L7 22L7 21ZM23 21L23 22L22 22L22 24L23 24L23 25L24 25L24 24L23 24L23 23L24 23L24 21ZM8 25L8 26L9 26L9 25ZM13 26L13 27L14 27L14 26ZM24 26L24 27L25 27L25 26ZM9 29L9 30L12 30L12 29ZM29 29L29 32L32 32L32 29ZM30 30L30 31L31 31L31 30ZM11 31L11 32L10 32L10 33L9 33L9 35L11 35L11 34L12 34L12 33L11 33L11 32L12 32L12 31ZM20 33L20 34L19 34L19 35L20 35L20 34L21 34L21 33ZM16 34L16 35L17 35L17 34ZM12 36L12 37L13 37L13 36ZM14 36L14 37L15 37L15 36ZM0 0L0 7L7 7L7 0ZM1 1L1 6L6 6L6 1ZM2 2L2 5L5 5L5 2ZM30 0L30 7L37 7L37 0ZM31 1L31 6L36 6L36 1ZM32 2L32 5L35 5L35 2ZM0 30L0 37L7 37L7 30ZM1 31L1 36L6 36L6 31ZM2 32L2 35L5 35L5 32Z" fill="#000000"/></g></g></svg>
