<?xml version="1.0" encoding="UTF-8"?>
<svg xmlns="http://www.w3.org/2000/svg" version="1.1" width="600" height="600" viewBox="0 0 600 600"><rect x="0" y="0" width="600" height="600" fill="#ffffff"/><g transform="scale(17.143)"><g transform="translate(1,1)"><path fill-rule="evenodd" d="M8 0L8 1L10 1L10 0ZM13 0L13 1L14 1L14 2L11 2L11 4L10 4L10 3L9 3L9 2L8 2L8 5L9 5L9 6L8 6L8 7L9 7L9 8L8 8L8 9L7 9L7 8L6 8L6 9L4 9L4 8L0 8L0 9L2 9L2 10L6 10L6 11L7 11L7 12L5 12L5 11L4 11L4 12L3 12L3 11L2 11L2 12L1 12L1 11L0 11L0 14L1 14L1 15L0 15L0 17L2 17L2 19L3 19L3 20L1 20L1 18L0 18L0 20L1 20L1 21L0 21L0 22L1 22L1 21L2 21L2 22L3 22L3 24L2 24L2 23L1 23L1 24L0 24L0 25L1 25L1 24L2 24L2 25L3 25L3 24L4 24L4 25L5 25L5 23L7 23L7 24L6 24L6 25L8 25L8 26L9 26L9 27L11 27L11 28L10 28L10 30L11 30L11 28L12 28L12 29L13 29L13 28L12 28L12 26L13 26L13 27L15 27L15 26L16 26L16 29L15 29L15 28L14 28L14 29L15 29L15 30L13 30L13 33L15 33L15 32L16 32L16 33L23 33L23 30L21 30L21 31L20 31L20 32L19 32L19 29L17 29L17 27L18 27L18 28L19 28L19 27L20 27L20 28L21 28L21 29L22 29L22 28L23 28L23 29L25 29L25 30L24 30L24 32L25 32L25 33L26 33L26 32L27 32L27 33L28 33L28 32L30 32L30 33L31 33L31 32L30 32L30 29L31 29L31 31L32 31L32 32L33 32L33 31L32 31L32 29L33 29L33 27L32 27L32 29L31 29L31 26L30 26L30 24L29 24L29 23L28 23L28 24L26 24L26 23L27 23L27 22L28 22L28 21L26 21L26 20L29 20L29 21L30 21L30 22L31 22L31 24L32 24L32 25L33 25L33 24L32 24L32 23L33 23L33 21L31 21L31 20L30 20L30 18L31 18L31 19L32 19L32 20L33 20L33 19L32 19L32 18L33 18L33 16L31 16L31 14L32 14L32 13L30 13L30 14L28 14L28 15L27 15L27 14L26 14L26 13L25 13L25 10L26 10L26 11L27 11L27 13L29 13L29 12L28 12L28 11L31 11L31 12L32 12L32 11L33 11L33 8L32 8L32 9L31 9L31 8L28 8L28 9L26 9L26 8L25 8L25 6L24 6L24 8L23 8L23 6L22 6L22 4L21 4L21 3L20 3L20 2L22 2L22 1L23 1L23 2L24 2L24 3L25 3L25 2L24 2L24 0L18 0L18 1L20 1L20 2L18 2L18 3L17 3L17 1L16 1L16 2L15 2L15 0ZM14 2L14 3L15 3L15 2ZM12 3L12 5L10 5L10 6L9 6L9 7L10 7L10 8L9 8L9 9L10 9L10 10L9 10L9 11L8 11L8 12L7 12L7 13L6 13L6 14L7 14L7 15L5 15L5 14L4 14L4 15L3 15L3 13L1 13L1 14L2 14L2 15L3 15L3 16L2 16L2 17L3 17L3 18L5 18L5 17L4 17L4 16L7 16L7 15L8 15L8 17L9 17L9 19L8 19L8 18L7 18L7 17L6 17L6 18L7 18L7 19L6 19L6 20L5 20L5 21L4 21L4 22L7 22L7 23L9 23L9 21L11 21L11 22L10 22L10 24L11 24L11 25L12 25L12 24L13 24L13 23L14 23L14 25L13 25L13 26L15 26L15 24L16 24L16 25L17 25L17 24L18 24L18 23L16 23L16 22L19 22L19 23L20 23L20 24L19 24L19 25L20 25L20 26L21 26L21 27L23 27L23 28L24 28L24 27L23 27L23 26L21 26L21 25L23 25L23 24L22 24L22 22L21 22L21 21L20 21L20 22L19 22L19 20L18 20L18 21L17 21L17 19L18 19L18 18L19 18L19 19L20 19L20 16L19 16L19 17L18 17L18 14L19 14L19 12L18 12L18 11L20 11L20 12L21 12L21 14L20 14L20 15L21 15L21 14L22 14L22 13L23 13L23 15L24 15L24 16L25 16L25 18L23 18L23 16L22 16L22 18L21 18L21 20L22 20L22 21L24 21L24 22L25 22L25 23L26 23L26 22L25 22L25 20L26 20L26 15L25 15L25 14L24 14L24 11L23 11L23 10L22 10L22 9L21 9L21 8L22 8L22 6L21 6L21 5L20 5L20 6L19 6L19 7L18 7L18 5L19 5L19 3L18 3L18 5L14 5L14 4L13 4L13 3ZM16 3L16 4L17 4L17 3ZM24 4L24 5L25 5L25 4ZM12 5L12 7L11 7L11 6L10 6L10 7L11 7L11 8L12 8L12 7L13 7L13 6L14 6L14 7L15 7L15 6L14 6L14 5ZM16 6L16 8L17 8L17 9L18 9L18 10L20 10L20 11L21 11L21 9L20 9L20 8L21 8L21 6L20 6L20 7L19 7L19 8L18 8L18 7L17 7L17 6ZM14 8L14 9L15 9L15 8ZM24 8L24 10L25 10L25 8ZM6 9L6 10L7 10L7 9ZM28 9L28 10L27 10L27 11L28 11L28 10L31 10L31 11L32 11L32 10L31 10L31 9ZM13 10L13 11L11 11L11 13L10 13L10 12L8 12L8 13L7 13L7 14L8 14L8 15L11 15L11 14L12 14L12 16L11 16L11 17L12 17L12 18L11 18L11 19L12 19L12 20L11 20L11 21L12 21L12 22L11 22L11 23L13 23L13 22L14 22L14 23L15 23L15 21L16 21L16 20L15 20L15 19L16 19L16 18L17 18L17 16L16 16L16 15L17 15L17 14L18 14L18 12L17 12L17 11L15 11L15 10ZM22 11L22 12L23 12L23 11ZM4 12L4 13L5 13L5 12ZM12 12L12 14L13 14L13 12ZM14 12L14 15L13 15L13 16L12 16L12 17L13 17L13 16L14 16L14 15L16 15L16 14L15 14L15 12ZM16 12L16 13L17 13L17 12ZM8 13L8 14L9 14L9 13ZM28 15L28 16L30 16L30 15ZM9 16L9 17L10 17L10 16ZM15 16L15 17L16 17L16 16ZM27 17L27 18L28 18L28 17ZM31 17L31 18L32 18L32 17ZM14 18L14 19L13 19L13 21L15 21L15 20L14 20L14 19L15 19L15 18ZM22 18L22 20L25 20L25 19L23 19L23 18ZM7 19L7 20L6 20L6 21L9 21L9 20L8 20L8 19ZM8 24L8 25L9 25L9 26L10 26L10 25L9 25L9 24ZM25 25L25 28L28 28L28 25ZM26 26L26 27L27 27L27 26ZM29 26L29 29L28 29L28 31L27 31L27 32L28 32L28 31L29 31L29 29L30 29L30 26ZM8 29L8 33L9 33L9 32L10 32L10 33L11 33L11 32L12 32L12 31L9 31L9 29ZM26 29L26 30L27 30L27 29ZM17 30L17 31L16 31L16 32L17 32L17 31L18 31L18 30ZM21 31L21 32L22 32L22 31ZM25 31L25 32L26 32L26 31ZM0 0L0 7L7 7L7 0ZM1 1L1 6L6 6L6 1ZM2 2L2 5L5 5L5 2ZM26 0L26 7L33 7L33 0ZM27 1L27 6L32 6L32 1ZM28 2L28 5L31 5L31 2ZM0 26L0 33L7 33L7 26ZM1 27L1 32L6 32L6 27ZM2 28L2 31L5 31L5 28Z" fill="#000000"/></g></g></svg>
