<?xml version="1.0" encoding="UTF-8"?>
<svg xmlns="http://www.w3.org/2000/svg" version="1.1" width="600" height="600" viewBox="0 0 600 600"><rect x="0" y="0" width="600" height="600" fill="#ffffff"/><g transform="scale(15.385)"><g transform="translate(1,1)"><path fill-rule="evenodd" d="M9 0L9 1L8 1L8 2L9 2L9 3L8 3L8 4L10 4L10 7L11 7L11 4L12 4L12 5L13 5L13 6L12 6L12 9L13 9L13 8L14 8L14 9L15 9L15 10L17 10L17 9L19 9L19 10L18 10L18 12L17 12L17 11L16 11L16 13L12 13L12 11L13 11L13 10L11 10L11 11L10 11L10 9L11 9L11 8L6 8L6 9L5 9L5 8L0 8L0 9L3 9L3 10L2 10L2 11L3 11L3 12L2 12L2 14L3 14L3 12L4 12L4 10L5 10L5 11L7 11L7 12L6 12L6 13L7 13L7 14L6 14L6 15L8 15L8 17L7 17L7 16L6 16L6 17L5 17L5 14L4 14L4 15L2 15L2 17L5 17L5 18L6 18L6 19L8 19L8 22L6 22L6 21L7 21L7 20L6 20L6 21L5 21L5 20L4 20L4 19L3 19L3 18L0 18L0 20L1 20L1 19L2 19L2 20L4 20L4 21L0 21L0 22L1 22L1 23L0 23L0 29L1 29L1 25L2 25L2 24L1 24L1 23L2 23L2 22L3 22L3 23L4 23L4 24L3 24L3 26L2 26L2 27L3 27L3 26L5 26L5 25L7 25L7 26L6 26L6 27L5 27L5 29L7 29L7 28L6 28L6 27L7 27L7 26L9 26L9 24L10 24L10 20L11 20L11 21L12 21L12 22L13 22L13 23L12 23L12 25L13 25L13 24L14 24L14 25L15 25L15 26L17 26L17 25L19 25L19 26L18 26L18 28L17 28L17 27L16 27L16 28L17 28L17 29L19 29L19 30L20 30L20 31L21 31L21 32L22 32L22 33L19 33L19 31L18 31L18 30L17 30L17 31L18 31L18 32L16 32L16 29L12 29L12 27L13 27L13 26L11 26L11 25L10 25L10 26L11 26L11 28L10 28L10 27L9 27L9 28L10 28L10 29L8 29L8 31L10 31L10 32L8 32L8 37L9 37L9 34L10 34L10 35L11 35L11 37L12 37L12 35L13 35L13 34L11 34L11 33L10 33L10 32L11 32L11 31L10 31L10 30L11 30L11 29L12 29L12 30L13 30L13 31L12 31L12 33L13 33L13 32L14 32L14 33L17 33L17 34L15 34L15 35L14 35L14 36L15 36L15 37L19 37L19 36L15 36L15 35L17 35L17 34L20 34L20 35L21 35L21 36L22 36L22 37L23 37L23 36L24 36L24 35L25 35L25 33L26 33L26 35L27 35L27 36L31 36L31 37L37 37L37 33L36 33L36 31L37 31L37 30L35 30L35 28L34 28L34 27L36 27L36 28L37 28L37 26L36 26L36 25L37 25L37 22L36 22L36 21L37 21L37 18L36 18L36 17L37 17L37 14L36 14L36 13L35 13L35 12L34 12L34 11L35 11L35 9L36 9L36 8L35 8L35 9L34 9L34 8L33 8L33 9L34 9L34 11L32 11L32 12L31 12L31 10L30 10L30 8L27 8L27 6L28 6L28 7L29 7L29 6L28 6L28 5L27 5L27 4L26 4L26 3L25 3L25 0L21 0L21 1L22 1L22 2L20 2L20 3L22 3L22 4L19 4L19 3L17 3L17 2L16 2L16 4L12 4L12 2L13 2L13 1L11 1L11 2L10 2L10 0ZM15 0L15 1L18 1L18 0ZM19 0L19 1L20 1L20 0ZM26 0L26 2L28 2L28 4L29 4L29 0L28 0L28 1L27 1L27 0ZM23 1L23 2L22 2L22 3L24 3L24 4L25 4L25 3L24 3L24 1ZM14 2L14 3L15 3L15 2ZM10 3L10 4L11 4L11 3ZM16 4L16 5L19 5L19 7L20 7L20 6L21 6L21 7L22 7L22 6L23 6L23 8L19 8L19 9L20 9L20 10L19 10L19 11L20 11L20 12L19 12L19 13L16 13L16 14L19 14L19 17L17 17L17 16L18 16L18 15L16 15L16 17L17 17L17 18L15 18L15 17L14 17L14 16L15 16L15 15L14 15L14 16L13 16L13 17L12 17L12 15L13 15L13 14L12 14L12 13L11 13L11 12L8 12L8 15L9 15L9 16L10 16L10 17L11 17L11 18L10 18L10 19L9 19L9 20L10 20L10 19L11 19L11 18L13 18L13 19L12 19L12 21L16 21L16 22L17 22L17 23L16 23L16 25L17 25L17 24L19 24L19 25L20 25L20 26L19 26L19 29L20 29L20 30L21 30L21 31L22 31L22 32L24 32L24 33L25 33L25 32L26 32L26 33L27 33L27 35L29 35L29 33L27 33L27 32L28 32L28 30L26 30L26 29L28 29L28 27L29 27L29 26L31 26L31 28L33 28L33 27L34 27L34 26L35 26L35 25L34 25L34 24L36 24L36 23L34 23L34 24L33 24L33 25L32 25L32 24L31 24L31 23L32 23L32 22L33 22L33 21L34 21L34 22L35 22L35 21L34 21L34 20L36 20L36 19L35 19L35 17L36 17L36 14L35 14L35 15L34 15L34 13L30 13L30 10L29 10L29 9L27 9L27 8L26 8L26 5L25 5L25 7L24 7L24 5L23 5L23 4L22 4L22 5L19 5L19 4ZM8 5L8 7L9 7L9 5ZM13 6L13 7L14 7L14 8L15 8L15 7L16 7L16 9L17 9L17 8L18 8L18 6L17 6L17 7L16 7L16 6L15 6L15 7L14 7L14 6ZM25 8L25 9L21 9L21 10L20 10L20 11L21 11L21 12L22 12L22 11L23 11L23 10L25 10L25 9L26 9L26 10L27 10L27 11L26 11L26 12L25 12L25 11L24 11L24 12L25 12L25 13L19 13L19 14L20 14L20 17L19 17L19 18L20 18L20 17L21 17L21 19L20 19L20 20L24 20L24 21L19 21L19 19L18 19L18 18L17 18L17 19L16 19L16 21L17 21L17 22L20 22L20 23L19 23L19 24L20 24L20 25L21 25L21 27L20 27L20 29L21 29L21 30L22 30L22 31L23 31L23 30L24 30L24 29L26 29L26 28L27 28L27 27L28 27L28 26L29 26L29 25L31 25L31 24L30 24L30 22L29 22L29 20L27 20L27 19L29 19L29 18L30 18L30 21L33 21L33 20L34 20L34 19L33 19L33 20L31 20L31 19L32 19L32 18L30 18L30 17L33 17L33 18L34 18L34 17L35 17L35 16L34 16L34 15L33 15L33 14L32 14L32 16L31 16L31 14L30 14L30 13L29 13L29 12L28 12L28 11L29 11L29 10L27 10L27 9L26 9L26 8ZM31 8L31 9L32 9L32 8ZM6 9L6 10L8 10L8 9ZM0 10L0 11L1 11L1 10ZM21 10L21 11L22 11L22 10ZM36 10L36 11L37 11L37 10ZM14 11L14 12L15 12L15 11ZM0 12L0 13L1 13L1 12ZM9 13L9 14L10 14L10 16L11 16L11 14L10 14L10 13ZM25 13L25 16L24 16L24 14L23 14L23 15L22 15L22 16L21 16L21 17L22 17L22 19L24 19L24 20L26 20L26 21L24 21L24 22L23 22L23 25L22 25L22 24L21 24L21 23L20 23L20 24L21 24L21 25L22 25L22 26L23 26L23 29L22 29L22 28L21 28L21 29L22 29L22 30L23 30L23 29L24 29L24 27L25 27L25 28L26 28L26 26L28 26L28 25L25 25L25 24L26 24L26 21L27 21L27 22L28 22L28 23L29 23L29 22L28 22L28 21L27 21L27 20L26 20L26 19L27 19L27 18L29 18L29 17L30 17L30 14L29 14L29 13ZM26 14L26 16L25 16L25 17L23 17L23 16L22 16L22 17L23 17L23 18L24 18L24 19L25 19L25 17L27 17L27 15L28 15L28 16L29 16L29 14ZM0 15L0 17L1 17L1 15ZM33 16L33 17L34 17L34 16ZM6 17L6 18L7 18L7 17ZM8 17L8 18L9 18L9 17ZM14 19L14 20L15 20L15 19ZM17 19L17 20L18 20L18 19ZM5 22L5 23L6 23L6 24L8 24L8 23L6 23L6 22ZM24 22L24 23L25 23L25 22ZM14 23L14 24L15 24L15 23ZM23 25L23 26L25 26L25 25ZM14 27L14 28L15 28L15 27ZM2 28L2 29L4 29L4 28ZM29 29L29 32L32 32L32 29ZM33 29L33 30L34 30L34 29ZM30 30L30 31L31 31L31 30ZM14 31L14 32L15 32L15 31ZM24 31L24 32L25 32L25 31ZM34 31L34 32L33 32L33 33L34 33L34 36L36 36L36 35L35 35L35 34L36 34L36 33L34 33L34 32L35 32L35 31ZM22 33L22 34L21 34L21 35L22 35L22 36L23 36L23 35L24 35L24 34L23 34L23 33ZM22 34L22 35L23 35L23 34ZM30 34L30 35L31 35L31 36L32 36L32 35L33 35L33 34ZM25 36L25 37L26 37L26 36ZM0 0L0 7L7 7L7 0ZM1 1L1 6L6 6L6 1ZM2 2L2 5L5 5L5 2ZM30 0L30 7L37 7L37 0ZM31 1L31 6L36 6L36 1ZM32 2L32 5L35 5L35 2ZM0 30L0 37L7 37L7 30ZM1 31L1 36L6 36L6 31ZM2 32L2 35L5 35L5 32Z" fill="#000000"/></g></g></svg>
