<?xml version="1.0" encoding="UTF-8"?>
<svg xmlns="http://www.w3.org/2000/svg" version="1.1" width="600" height="600" viewBox="0 0 600 600"><rect x="0" y="0" width="600" height="600" fill="#ffffff"/><g transform="scale(17.143)"><g transform="translate(1,1)"><path fill-rule="evenodd" d="M11 0L11 1L8 1L8 2L9 2L9 3L8 3L8 4L9 4L9 5L8 5L8 7L9 7L9 8L6 8L6 9L7 9L7 10L4 10L4 9L5 9L5 8L0 8L0 9L1 9L1 11L3 11L3 12L0 12L0 14L1 14L1 13L7 13L7 12L8 12L8 13L9 13L9 14L8 14L8 15L9 15L9 14L10 14L10 15L11 15L11 16L10 16L10 17L9 17L9 16L6 16L6 17L5 17L5 15L3 15L3 16L4 16L4 18L3 18L3 17L1 17L1 16L2 16L2 15L1 15L1 16L0 16L0 17L1 17L1 20L0 20L0 25L1 25L1 20L2 20L2 23L3 23L3 22L5 22L5 23L4 23L4 24L3 24L3 25L4 25L4 24L5 24L5 23L7 23L7 24L6 24L6 25L8 25L8 27L9 27L9 28L8 28L8 33L9 33L9 32L10 32L10 31L11 31L11 30L13 30L13 29L16 29L16 30L14 30L14 31L15 31L15 33L16 33L16 32L17 32L17 33L18 33L18 32L17 32L17 31L16 31L16 30L17 30L17 29L18 29L18 31L19 31L19 30L20 30L20 32L22 32L22 33L23 33L23 32L24 32L24 33L25 33L25 32L24 32L24 31L27 31L27 32L28 32L28 33L29 33L29 31L30 31L30 32L31 32L31 33L32 33L32 32L31 32L31 31L32 31L32 30L31 30L31 29L33 29L33 27L32 27L32 26L33 26L33 24L32 24L32 26L31 26L31 25L30 25L30 24L31 24L31 23L32 23L32 22L33 22L33 21L32 21L32 20L31 20L31 19L32 19L32 18L33 18L33 17L32 17L32 16L31 16L31 15L32 15L32 14L33 14L33 13L31 13L31 15L30 15L30 13L29 13L29 10L28 10L28 8L27 8L27 9L26 9L26 8L24 8L24 7L25 7L25 5L24 5L24 4L23 4L23 5L22 5L22 7L21 7L21 6L20 6L20 7L21 7L21 8L17 8L17 6L16 6L16 5L18 5L18 7L19 7L19 5L21 5L21 4L19 4L19 1L20 1L20 3L23 3L23 2L21 2L21 1L24 1L24 2L25 2L25 1L24 1L24 0L21 0L21 1L20 1L20 0L19 0L19 1L18 1L18 0L17 0L17 1L18 1L18 3L17 3L17 2L16 2L16 1L15 1L15 0ZM11 1L11 2L12 2L12 3L9 3L9 4L13 4L13 5L14 5L14 6L13 6L13 8L12 8L12 5L9 5L9 7L10 7L10 8L9 8L9 9L13 9L13 10L8 10L8 12L9 12L9 11L10 11L10 14L11 14L11 15L12 15L12 16L11 16L11 17L10 17L10 18L8 18L8 19L6 19L6 20L7 20L7 21L5 21L5 20L4 20L4 21L5 21L5 22L7 22L7 23L9 23L9 24L8 24L8 25L9 25L9 27L10 27L10 25L9 25L9 24L11 24L11 25L13 25L13 26L16 26L16 25L17 25L17 27L16 27L16 29L17 29L17 28L18 28L18 29L20 29L20 30L21 30L21 31L22 31L22 32L23 32L23 31L24 31L24 27L23 27L23 26L24 26L24 25L23 25L23 24L20 24L20 23L21 23L21 22L22 22L22 21L24 21L24 22L23 22L23 23L24 23L24 24L27 24L27 22L25 22L25 21L27 21L27 20L28 20L28 19L26 19L26 18L25 18L25 17L28 17L28 18L29 18L29 17L30 17L30 19L29 19L29 20L30 20L30 21L28 21L28 24L30 24L30 23L29 23L29 22L30 22L30 21L31 21L31 20L30 20L30 19L31 19L31 16L30 16L30 15L29 15L29 13L28 13L28 16L26 16L26 14L25 14L25 13L27 13L27 12L28 12L28 11L27 11L27 10L25 10L25 9L24 9L24 10L22 10L22 11L23 11L23 12L21 12L21 9L23 9L23 8L21 8L21 9L20 9L20 10L19 10L19 9L18 9L18 10L17 10L17 9L13 9L13 8L14 8L14 6L15 6L15 7L16 7L16 6L15 6L15 5L16 5L16 4L17 4L17 3L16 3L16 4L15 4L15 1L13 1L13 2L12 2L12 1ZM13 3L13 4L14 4L14 5L15 5L15 4L14 4L14 3ZM18 4L18 5L19 5L19 4ZM23 5L23 7L24 7L24 5ZM10 6L10 7L11 7L11 6ZM29 8L29 9L30 9L30 8ZM31 8L31 10L33 10L33 9L32 9L32 8ZM2 9L2 10L3 10L3 9ZM14 10L14 12L11 12L11 14L12 14L12 15L13 15L13 13L18 13L18 14L20 14L20 16L22 16L22 17L19 17L19 15L18 15L18 16L17 16L17 17L16 17L16 15L17 15L17 14L14 14L14 15L15 15L15 16L13 16L13 17L11 17L11 18L12 18L12 19L8 19L8 21L9 21L9 23L10 23L10 21L11 21L11 22L12 22L12 24L13 24L13 25L14 25L14 24L15 24L15 25L16 25L16 24L17 24L17 25L18 25L18 27L19 27L19 28L20 28L20 29L21 29L21 30L22 30L22 31L23 31L23 29L21 29L21 28L22 28L22 26L23 26L23 25L22 25L22 26L21 26L21 25L18 25L18 24L19 24L19 23L18 23L18 22L17 22L17 21L19 21L19 22L21 22L21 21L19 21L19 20L22 20L22 19L23 19L23 18L24 18L24 17L23 17L23 16L24 16L24 15L25 15L25 14L24 14L24 13L25 13L25 12L26 12L26 11L25 11L25 12L24 12L24 13L22 13L22 15L21 15L21 13L18 13L18 12L17 12L17 11L16 11L16 10ZM18 10L18 11L19 11L19 12L20 12L20 11L19 11L19 10ZM6 11L6 12L7 12L7 11ZM15 11L15 12L16 12L16 11ZM30 11L30 12L31 12L31 11ZM6 14L6 15L7 15L7 14ZM23 14L23 15L24 15L24 14ZM28 16L28 17L29 17L29 16ZM6 17L6 18L7 18L7 17ZM13 17L13 18L14 18L14 19L13 19L13 20L11 20L11 21L13 21L13 24L14 24L14 23L15 23L15 24L16 24L16 23L17 23L17 24L18 24L18 23L17 23L17 22L16 22L16 21L17 21L17 20L18 20L18 18L19 18L19 19L21 19L21 18L19 18L19 17L18 17L18 18L16 18L16 17ZM4 18L4 19L5 19L5 18ZM15 18L15 19L16 19L16 18ZM13 20L13 21L16 21L16 20ZM24 20L24 21L25 21L25 20ZM15 22L15 23L16 23L16 22ZM25 25L25 28L28 28L28 25ZM29 25L29 28L30 28L30 29L31 29L31 28L32 28L32 27L31 27L31 26L30 26L30 25ZM11 26L11 27L12 27L12 26ZM19 26L19 27L20 27L20 26ZM26 26L26 27L27 27L27 26ZM13 27L13 28L10 28L10 30L9 30L9 31L10 31L10 30L11 30L11 29L13 29L13 28L15 28L15 27ZM30 27L30 28L31 28L31 27ZM25 29L25 30L28 30L28 31L29 31L29 30L28 30L28 29ZM30 30L30 31L31 31L31 30ZM11 32L11 33L12 33L12 32ZM13 32L13 33L14 33L14 32ZM0 0L0 7L7 7L7 0ZM1 1L1 6L6 6L6 1ZM2 2L2 5L5 5L5 2ZM26 0L26 7L33 7L33 0ZM27 1L27 6L32 6L32 1ZM28 2L28 5L31 5L31 2ZM0 26L0 33L7 33L7 26ZM1 27L1 32L6 32L6 27ZM2 28L2 31L5 31L5 28Z" fill="#000000"/></g></g></svg>
