<?xml version="1.0" encoding="UTF-8"?>
<svg xmlns="http://www.w3.org/2000/svg" version="1.1" width="600" height="600" viewBox="0 0 600 600"><rect x="0" y="0" width="600" height="600" fill="#ffffff"/><g transform="scale(17.143)"><g transform="translate(1,1)"><path fill-rule="evenodd" d="M8 0L8 4L9 4L9 5L8 5L8 7L9 7L9 6L10 6L10 9L11 9L11 8L12 8L12 9L13 9L13 11L12 11L12 12L11 12L11 13L10 13L10 14L9 14L9 13L7 13L7 12L8 12L8 11L9 11L9 12L10 12L10 11L11 11L11 10L6 10L6 9L7 9L7 8L4 8L4 9L3 9L3 10L2 10L2 8L0 8L0 10L2 10L2 11L0 11L0 14L1 14L1 15L2 15L2 16L0 16L0 17L3 17L3 18L5 18L5 19L2 19L2 18L0 18L0 20L1 20L1 21L0 21L0 22L1 22L1 21L2 21L2 22L3 22L3 20L5 20L5 21L4 21L4 24L3 24L3 23L2 23L2 24L0 24L0 25L2 25L2 24L3 24L3 25L4 25L4 24L6 24L6 25L7 25L7 24L6 24L6 23L8 23L8 26L9 26L9 27L8 27L8 29L9 29L9 27L10 27L10 26L11 26L11 24L12 24L12 25L13 25L13 27L12 27L12 28L11 28L11 29L10 29L10 30L11 30L11 31L8 31L8 33L9 33L9 32L10 32L10 33L11 33L11 32L12 32L12 33L14 33L14 31L15 31L15 32L16 32L16 30L17 30L17 29L18 29L18 31L17 31L17 33L18 33L18 31L19 31L19 33L23 33L23 31L24 31L24 33L29 33L29 32L30 32L30 31L32 31L32 30L33 30L33 27L32 27L32 24L31 24L31 25L30 25L30 23L29 23L29 22L27 22L27 24L25 24L25 22L24 22L24 21L27 21L27 20L25 20L25 18L24 18L24 17L22 17L22 15L20 15L20 16L19 16L19 17L18 17L18 15L19 15L19 13L20 13L20 14L21 14L21 13L22 13L22 14L23 14L23 15L24 15L24 16L25 16L25 17L29 17L29 18L30 18L30 19L29 19L29 20L28 20L28 21L30 21L30 22L31 22L31 23L32 23L32 22L31 22L31 21L30 21L30 19L32 19L32 18L30 18L30 17L29 17L29 16L30 16L30 15L32 15L32 14L30 14L30 13L29 13L29 12L30 12L30 11L31 11L31 10L29 10L29 12L28 12L28 13L29 13L29 14L26 14L26 16L25 16L25 15L24 15L24 13L27 13L27 12L26 12L26 11L25 11L25 10L24 10L24 9L25 9L25 5L24 5L24 4L25 4L25 1L24 1L24 0L22 0L22 1L21 1L21 2L20 2L20 1L19 1L19 0L18 0L18 1L19 1L19 2L17 2L17 3L19 3L19 2L20 2L20 3L22 3L22 4L21 4L21 5L18 5L18 4L17 4L17 5L18 5L18 7L17 7L17 6L16 6L16 7L15 7L15 6L14 6L14 8L16 8L16 9L13 9L13 8L12 8L12 7L13 7L13 6L12 6L12 7L11 7L11 3L10 3L10 2L9 2L9 0ZM13 0L13 1L11 1L11 2L12 2L12 5L14 5L14 3L15 3L15 5L16 5L16 3L15 3L15 1L16 1L16 0L15 0L15 1L14 1L14 0ZM22 1L22 3L23 3L23 2L24 2L24 1ZM13 2L13 3L14 3L14 2ZM22 4L22 5L23 5L23 7L22 7L22 6L21 6L21 7L22 7L22 9L16 9L16 11L18 11L18 10L19 10L19 11L20 11L20 13L21 13L21 11L20 11L20 10L22 10L22 13L24 13L24 12L23 12L23 10L22 10L22 9L23 9L23 8L24 8L24 5L23 5L23 4ZM19 6L19 7L18 7L18 8L19 8L19 7L20 7L20 6ZM27 8L27 9L28 9L28 8ZM29 8L29 9L33 9L33 8ZM4 9L4 10L5 10L5 9ZM27 10L27 11L28 11L28 10ZM3 11L3 12L1 12L1 14L3 14L3 16L7 16L7 17L5 17L5 18L9 18L9 19L11 19L11 20L12 20L12 21L10 21L10 22L9 22L9 23L11 23L11 22L12 22L12 21L13 21L13 23L12 23L12 24L13 24L13 25L14 25L14 27L13 27L13 28L12 28L12 29L11 29L11 30L12 30L12 29L13 29L13 30L14 30L14 29L13 29L13 28L14 28L14 27L15 27L15 29L17 29L17 28L16 28L16 27L17 27L17 26L19 26L19 27L18 27L18 29L19 29L19 31L20 31L20 32L21 32L21 31L20 31L20 29L21 29L21 28L20 28L20 29L19 29L19 27L21 27L21 26L20 26L20 25L21 25L21 23L20 23L20 22L22 22L22 23L23 23L23 24L22 24L22 25L23 25L23 26L22 26L22 29L23 29L23 30L24 30L24 31L25 31L25 32L27 32L27 31L25 31L25 30L24 30L24 28L23 28L23 27L24 27L24 25L23 25L23 24L24 24L24 23L23 23L23 22L22 22L22 21L19 21L19 20L18 20L18 21L16 21L16 20L15 20L15 19L14 19L14 18L13 18L13 17L17 17L17 19L22 19L22 20L23 20L23 21L24 21L24 20L23 20L23 18L20 18L20 17L21 17L21 16L20 16L20 17L19 17L19 18L18 18L18 17L17 17L17 16L16 16L16 15L15 15L15 16L14 16L14 14L15 14L15 13L14 13L14 12L15 12L15 11L13 11L13 12L12 12L12 13L11 13L11 14L12 14L12 13L14 13L14 14L13 14L13 15L12 15L12 16L11 16L11 15L10 15L10 16L9 16L9 14L7 14L7 13L6 13L6 12L7 12L7 11L6 11L6 12L5 12L5 11ZM3 12L3 14L4 14L4 15L7 15L7 14L6 14L6 13L5 13L5 14L4 14L4 12ZM18 12L18 13L16 13L16 14L18 14L18 13L19 13L19 12ZM31 12L31 13L33 13L33 12ZM29 14L29 15L30 15L30 14ZM10 16L10 18L11 18L11 16ZM12 16L12 17L13 17L13 16ZM32 16L32 17L33 17L33 16ZM26 18L26 19L28 19L28 18ZM5 19L5 20L7 20L7 21L5 21L5 22L7 22L7 21L8 21L8 20L7 20L7 19ZM12 19L12 20L13 20L13 19ZM14 20L14 21L15 21L15 23L14 23L14 25L15 25L15 27L16 27L16 25L20 25L20 23L19 23L19 24L18 24L18 23L16 23L16 21L15 21L15 20ZM32 20L32 21L33 21L33 20ZM18 21L18 22L19 22L19 21ZM9 24L9 26L10 26L10 24ZM15 24L15 25L16 25L16 24ZM25 25L25 28L28 28L28 25ZM29 25L29 26L30 26L30 25ZM26 26L26 27L27 27L27 26ZM30 27L30 29L31 29L31 28L32 28L32 27ZM29 30L29 31L28 31L28 32L29 32L29 31L30 31L30 30ZM12 31L12 32L13 32L13 31ZM32 32L32 33L33 33L33 32ZM0 0L0 7L7 7L7 0ZM1 1L1 6L6 6L6 1ZM2 2L2 5L5 5L5 2ZM26 0L26 7L33 7L33 0ZM27 1L27 6L32 6L32 1ZM28 2L28 5L31 5L31 2ZM0 26L0 33L7 33L7 26ZM1 27L1 32L6 32L6 27ZM2 28L2 31L5 31L5 28Z" fill="#000000"/></g></g></svg>
