<?xml version="1.0" encoding="UTF-8"?>
<svg xmlns="http://www.w3.org/2000/svg" version="1.1" width="600" height="600" viewBox="0 0 600 600"><rect x="0" y="0" width="600" height="600" fill="#ffffff"/><g transform="scale(17.143)"><g transform="translate(1,1)"><path fill-rule="evenodd" d="M9 0L9 1L8 1L8 2L9 2L9 3L8 3L8 4L10 4L10 7L11 7L11 4L12 4L12 5L15 5L15 6L14 6L14 7L15 7L15 9L14 9L14 8L13 8L13 6L12 6L12 9L14 9L14 10L11 10L11 11L10 11L10 9L11 9L11 8L6 8L6 9L5 9L5 8L0 8L0 10L1 10L1 9L4 9L4 11L5 11L5 10L6 10L6 11L8 11L8 12L9 12L9 13L7 13L7 12L5 12L5 13L4 13L4 12L3 12L3 15L4 15L4 14L5 14L5 15L8 15L8 16L10 16L10 17L11 17L11 15L9 15L9 13L10 13L10 14L11 14L11 13L12 13L12 14L13 14L13 13L14 13L14 15L15 15L15 16L13 16L13 15L12 15L12 17L15 17L15 16L16 16L16 17L17 17L17 18L18 18L18 19L19 19L19 18L20 18L20 21L18 21L18 20L17 20L17 19L16 19L16 18L14 18L14 20L13 20L13 21L12 21L12 19L13 19L13 18L11 18L11 19L10 19L10 18L8 18L8 17L7 17L7 16L4 16L4 17L3 17L3 16L2 16L2 13L1 13L1 11L0 11L0 14L1 14L1 15L0 15L0 18L1 18L1 16L2 16L2 17L3 17L3 18L4 18L4 17L7 17L7 18L5 18L5 19L4 19L4 20L5 20L5 21L3 21L3 19L2 19L2 20L1 20L1 19L0 19L0 20L1 20L1 21L0 21L0 25L1 25L1 21L3 21L3 22L2 22L2 23L3 23L3 22L4 22L4 23L5 23L5 22L6 22L6 23L7 23L7 24L5 24L5 25L8 25L8 27L10 27L10 24L9 24L9 23L10 23L10 22L11 22L11 21L12 21L12 22L13 22L13 23L12 23L12 25L13 25L13 26L11 26L11 28L10 28L10 29L9 29L9 28L8 28L8 33L9 33L9 32L10 32L10 33L11 33L11 31L9 31L9 30L10 30L10 29L12 29L12 30L13 30L13 31L12 31L12 33L13 33L13 32L14 32L14 33L16 33L16 31L17 31L17 30L14 30L14 29L12 29L12 27L13 27L13 26L15 26L15 27L16 27L16 28L15 28L15 29L19 29L19 30L20 30L20 31L21 31L21 32L22 32L22 33L23 33L23 32L24 32L24 33L25 33L25 32L24 32L24 31L27 31L27 32L28 32L28 33L29 33L29 31L30 31L30 32L31 32L31 33L32 33L32 32L31 32L31 31L32 31L32 30L31 30L31 29L30 29L30 28L31 28L31 27L32 27L32 28L33 28L33 27L32 27L32 26L33 26L33 24L32 24L32 26L31 26L31 25L30 25L30 24L31 24L31 23L32 23L32 22L33 22L33 21L32 21L32 20L31 20L31 19L32 19L32 18L33 18L33 17L32 17L32 16L31 16L31 15L32 15L32 14L33 14L33 13L31 13L31 15L30 15L30 13L29 13L29 10L28 10L28 8L27 8L27 9L26 9L26 8L24 8L24 7L25 7L25 5L24 5L24 4L23 4L23 5L22 5L22 7L21 7L21 6L20 6L20 7L19 7L19 5L21 5L21 4L19 4L19 2L18 2L18 1L20 1L20 2L21 2L21 3L23 3L23 2L21 2L21 1L24 1L24 2L25 2L25 1L24 1L24 0L18 0L18 1L17 1L17 2L16 2L16 1L15 1L15 0L14 0L14 1L15 1L15 2L16 2L16 3L15 3L15 4L14 4L14 3L13 3L13 4L12 4L12 2L13 2L13 1L11 1L11 2L10 2L10 0ZM17 2L17 3L16 3L16 4L15 4L15 5L16 5L16 6L15 6L15 7L16 7L16 6L17 6L17 8L16 8L16 9L15 9L15 10L16 10L16 9L17 9L17 11L15 11L15 12L14 12L14 11L12 11L12 13L13 13L13 12L14 12L14 13L15 13L15 14L16 14L16 16L19 16L19 17L18 17L18 18L19 18L19 17L20 17L20 18L21 18L21 19L22 19L22 17L24 17L24 18L23 18L23 21L24 21L24 22L23 22L23 23L22 23L22 24L21 24L21 25L20 25L20 22L21 22L21 21L22 21L22 20L21 20L21 21L20 21L20 22L18 22L18 21L17 21L17 20L16 20L16 19L15 19L15 20L16 20L16 21L13 21L13 22L16 22L16 21L17 21L17 23L16 23L16 24L15 24L15 23L13 23L13 24L14 24L14 25L15 25L15 26L16 26L16 27L17 27L17 28L19 28L19 29L20 29L20 30L21 30L21 31L22 31L22 32L23 32L23 31L24 31L24 27L23 27L23 29L22 29L22 28L21 28L21 27L20 27L20 26L22 26L22 25L23 25L23 26L24 26L24 25L23 25L23 23L24 23L24 24L27 24L27 22L25 22L25 21L27 21L27 20L28 20L28 19L26 19L26 18L25 18L25 17L28 17L28 18L29 18L29 17L30 17L30 19L29 19L29 20L30 20L30 21L28 21L28 24L30 24L30 23L29 23L29 22L30 22L30 21L31 21L31 20L30 20L30 19L31 19L31 16L30 16L30 15L29 15L29 13L28 13L28 16L26 16L26 14L25 14L25 13L27 13L27 12L28 12L28 11L27 11L27 10L25 10L25 9L24 9L24 10L23 10L23 12L21 12L21 13L20 13L20 11L22 11L22 10L21 10L21 9L23 9L23 8L21 8L21 9L20 9L20 8L19 8L19 7L18 7L18 5L19 5L19 4L18 4L18 5L16 5L16 4L17 4L17 3L18 3L18 2ZM10 3L10 4L11 4L11 3ZM8 5L8 7L9 7L9 5ZM23 5L23 7L24 7L24 5ZM17 8L17 9L18 9L18 10L20 10L20 9L18 9L18 8ZM29 8L29 9L30 9L30 8ZM31 8L31 10L33 10L33 9L32 9L32 8ZM6 9L6 10L7 10L7 9ZM2 10L2 11L3 11L3 10ZM25 11L25 12L24 12L24 13L22 13L22 14L21 14L21 16L20 16L20 17L21 17L21 16L24 16L24 15L25 15L25 14L24 14L24 13L25 13L25 12L26 12L26 11ZM30 11L30 12L31 12L31 11ZM10 12L10 13L11 13L11 12ZM15 12L15 13L16 13L16 14L17 14L17 13L18 13L18 15L19 15L19 14L20 14L20 13L18 13L18 12L17 12L17 13L16 13L16 12ZM6 13L6 14L7 14L7 13ZM22 14L22 15L24 15L24 14ZM28 16L28 17L29 17L29 16ZM7 18L7 19L5 19L5 20L7 20L7 21L6 21L6 22L7 22L7 23L9 23L9 22L7 22L7 21L8 21L8 20L9 20L9 21L11 21L11 20L10 20L10 19L8 19L8 18ZM7 19L7 20L8 20L8 19ZM24 20L24 21L25 21L25 20ZM2 24L2 25L4 25L4 24ZM16 24L16 25L19 25L19 26L20 26L20 25L19 25L19 24ZM25 25L25 28L28 28L28 25ZM29 25L29 28L30 28L30 27L31 27L31 26L30 26L30 25ZM17 26L17 27L18 27L18 26ZM26 26L26 27L27 27L27 26ZM19 27L19 28L20 28L20 29L21 29L21 30L22 30L22 31L23 31L23 30L22 30L22 29L21 29L21 28L20 28L20 27ZM25 29L25 30L28 30L28 31L29 31L29 30L28 30L28 29ZM30 30L30 31L31 31L31 30ZM14 31L14 32L15 32L15 31ZM18 31L18 32L17 32L17 33L18 33L18 32L19 32L19 31ZM0 0L0 7L7 7L7 0ZM1 1L1 6L6 6L6 1ZM2 2L2 5L5 5L5 2ZM26 0L26 7L33 7L33 0ZM27 1L27 6L32 6L32 1ZM28 2L28 5L31 5L31 2ZM0 26L0 33L7 33L7 26ZM1 27L1 32L6 32L6 27ZM2 28L2 31L5 31L5 28Z" fill="#000000"/></g></g></svg>
