<?xml version="1.0" encoding="UTF-8"?>
<svg xmlns="http://www.w3.org/2000/svg" version="1.1" width="600" height="600" viewBox="0 0 600 600"><rect x="0" y="0" width="600" height="600" fill="#ffffff"/><g transform="scale(17.143)"><g transform="translate(1,1)"><path fill-rule="evenodd" d="M8 0L8 1L11 1L11 3L10 3L10 2L9 2L9 3L10 3L10 5L9 5L9 6L8 6L8 8L9 8L9 9L10 9L10 10L8 10L8 9L7 9L7 8L6 8L6 9L7 9L7 10L6 10L6 11L7 11L7 12L5 12L5 13L9 13L9 14L8 14L8 15L7 15L7 14L5 14L5 15L4 15L4 11L5 11L5 10L4 10L4 11L3 11L3 10L2 10L2 8L0 8L0 9L1 9L1 10L2 10L2 13L1 13L1 12L0 12L0 13L1 13L1 14L0 14L0 15L1 15L1 14L2 14L2 15L3 15L3 16L4 16L4 19L7 19L7 20L4 20L4 21L3 21L3 19L2 19L2 18L1 18L1 17L2 17L2 16L0 16L0 18L1 18L1 20L2 20L2 21L0 21L0 25L8 25L8 26L10 26L10 27L11 27L11 28L12 28L12 27L13 27L13 26L14 26L14 27L16 27L16 29L15 29L15 28L14 28L14 29L11 29L11 31L10 31L10 30L9 30L9 28L8 28L8 30L9 30L9 31L8 31L8 33L9 33L9 31L10 31L10 32L11 32L11 31L12 31L12 33L16 33L16 32L17 32L17 33L21 33L21 32L20 32L20 30L21 30L21 27L22 27L22 26L23 26L23 27L24 27L24 28L22 28L22 33L23 33L23 32L24 32L24 33L26 33L26 32L27 32L27 31L28 31L28 32L29 32L29 30L28 30L28 29L29 29L29 24L31 24L31 25L30 25L30 26L32 26L32 24L31 24L31 23L33 23L33 22L32 22L32 21L30 21L30 20L33 20L33 15L32 15L32 16L31 16L31 15L30 15L30 12L31 12L31 13L33 13L33 12L31 12L31 11L30 11L30 10L29 10L29 9L28 9L28 10L26 10L26 9L27 9L27 8L26 8L26 9L25 9L25 8L24 8L24 7L25 7L25 5L23 5L23 6L22 6L22 5L20 5L20 4L23 4L23 3L22 3L22 0L21 0L21 1L19 1L19 0L17 0L17 1L16 1L16 2L15 2L15 3L14 3L14 2L13 2L13 1L15 1L15 0L13 0L13 1L12 1L12 0ZM24 1L24 2L25 2L25 1ZM12 2L12 4L13 4L13 5L12 5L12 6L11 6L11 5L10 5L10 6L9 6L9 7L10 7L10 9L11 9L11 10L10 10L10 11L8 11L8 12L11 12L11 16L10 16L10 17L8 17L8 18L7 18L7 17L6 17L6 18L7 18L7 19L8 19L8 18L9 18L9 19L10 19L10 17L11 17L11 16L12 16L12 15L13 15L13 16L17 16L17 17L18 17L18 18L19 18L19 17L18 17L18 15L15 15L15 13L14 13L14 8L13 8L13 9L12 9L12 6L13 6L13 7L14 7L14 6L15 6L15 7L16 7L16 8L18 8L18 6L17 6L17 5L16 5L16 3L15 3L15 4L13 4L13 2ZM17 2L17 3L19 3L19 4L18 4L18 5L19 5L19 7L20 7L20 5L19 5L19 4L20 4L20 3L21 3L21 2ZM10 6L10 7L11 7L11 6ZM16 6L16 7L17 7L17 6ZM21 6L21 8L20 8L20 10L19 10L19 9L16 9L16 11L17 11L17 10L19 10L19 11L18 11L18 12L17 12L17 14L20 14L20 15L19 15L19 16L20 16L20 18L21 18L21 19L20 19L20 22L19 22L19 24L20 24L20 25L18 25L18 24L17 24L17 23L18 23L18 21L19 21L19 20L18 20L18 19L17 19L17 18L16 18L16 19L15 19L15 18L14 18L14 17L12 17L12 18L11 18L11 19L12 19L12 21L9 21L9 22L7 22L7 21L8 21L8 20L7 20L7 21L5 21L5 22L3 22L3 21L2 21L2 22L1 22L1 24L4 24L4 23L5 23L5 24L9 24L9 25L10 25L10 26L13 26L13 25L14 25L14 26L15 26L15 25L14 25L14 24L15 24L15 22L14 22L14 20L13 20L13 19L15 19L15 20L16 20L16 19L17 19L17 20L18 20L18 21L16 21L16 27L17 27L17 29L18 29L18 30L19 30L19 29L20 29L20 28L19 28L19 27L18 27L18 26L20 26L20 25L22 25L22 23L20 23L20 22L23 22L23 21L24 21L24 23L23 23L23 26L24 26L24 24L28 24L28 23L30 23L30 21L29 21L29 20L30 20L30 19L32 19L32 18L31 18L31 16L30 16L30 15L29 15L29 16L30 16L30 17L29 17L29 18L28 18L28 15L24 15L24 14L29 14L29 11L28 11L28 13L24 13L24 14L22 14L22 10L23 10L23 9L22 9L22 6ZM23 6L23 7L24 7L24 6ZM3 8L3 9L5 9L5 8ZM32 8L32 9L31 9L31 10L32 10L32 11L33 11L33 10L32 10L32 9L33 9L33 8ZM24 9L24 12L25 12L25 11L26 11L26 12L27 12L27 11L26 11L26 10L25 10L25 9ZM12 10L12 11L13 11L13 10ZM19 11L19 12L18 12L18 13L20 13L20 14L21 14L21 15L20 15L20 16L21 16L21 15L22 15L22 14L21 14L21 13L20 13L20 11ZM12 13L12 14L13 14L13 15L14 15L14 14L13 14L13 13ZM9 14L9 15L8 15L8 16L9 16L9 15L10 15L10 14ZM6 15L6 16L7 16L7 15ZM23 15L23 17L24 17L24 15ZM26 16L26 17L25 17L25 20L24 20L24 21L25 21L25 22L26 22L26 23L28 23L28 22L29 22L29 21L28 21L28 20L29 20L29 19L28 19L28 18L27 18L27 16ZM21 17L21 18L22 18L22 17ZM12 18L12 19L13 19L13 18ZM23 18L23 19L22 19L22 20L23 20L23 19L24 19L24 18ZM26 18L26 19L27 19L27 18ZM26 20L26 22L28 22L28 21L27 21L27 20ZM12 21L12 22L11 22L11 25L13 25L13 23L12 23L12 22L13 22L13 21ZM2 22L2 23L3 23L3 22ZM5 22L5 23L7 23L7 22ZM9 23L9 24L10 24L10 23ZM25 25L25 28L28 28L28 25ZM26 26L26 27L27 27L27 26ZM30 27L30 28L31 28L31 27ZM18 28L18 29L19 29L19 28ZM32 28L32 29L33 29L33 28ZM14 29L14 30L12 30L12 31L13 31L13 32L14 32L14 31L15 31L15 32L16 32L16 31L15 31L15 29ZM25 29L25 31L24 31L24 32L25 32L25 31L27 31L27 29ZM30 29L30 30L31 30L31 29ZM32 30L32 31L30 31L30 32L33 32L33 30ZM17 31L17 32L18 32L18 31ZM0 0L0 7L7 7L7 0ZM1 1L1 6L6 6L6 1ZM2 2L2 5L5 5L5 2ZM26 0L26 7L33 7L33 0ZM27 1L27 6L32 6L32 1ZM28 2L28 5L31 5L31 2ZM0 26L0 33L7 33L7 26ZM1 27L1 32L6 32L6 27ZM2 28L2 31L5 31L5 28Z" fill="#000000"/></g></g></svg>
