<?xml version="1.0" encoding="UTF-8"?>
<svg xmlns="http://www.w3.org/2000/svg" version="1.1" width="600" height="600" viewBox="0 0 600 600"><rect x="0" y="0" width="600" height="600" fill="#ffffff"/><g transform="scale(17.143)"><g transform="translate(1,1)"><path fill-rule="evenodd" d="M11 0L11 1L8 1L8 2L9 2L9 3L8 3L8 4L9 4L9 5L8 5L8 7L9 7L9 8L6 8L6 9L8 9L8 10L6 10L6 11L7 11L7 12L6 12L6 13L4 13L4 9L5 9L5 8L0 8L0 10L1 10L1 11L2 11L2 12L3 12L3 13L2 13L2 14L1 14L1 13L0 13L0 16L1 16L1 15L2 15L2 16L4 16L4 20L3 20L3 19L2 19L2 20L1 20L1 18L2 18L2 17L1 17L1 18L0 18L0 20L1 20L1 21L0 21L0 25L1 25L1 22L2 22L2 23L3 23L3 24L4 24L4 25L5 25L5 24L4 24L4 23L5 23L5 22L4 22L4 20L5 20L5 18L6 18L6 19L7 19L7 20L6 20L6 21L7 21L7 20L8 20L8 21L9 21L9 22L6 22L6 23L7 23L7 24L6 24L6 25L8 25L8 27L10 27L10 26L9 26L9 25L8 25L8 24L9 24L9 22L10 22L10 25L11 25L11 26L12 26L12 27L11 27L11 28L13 28L13 29L11 29L11 30L10 30L10 29L9 29L9 28L8 28L8 33L10 33L10 32L9 32L9 30L10 30L10 31L11 31L11 30L13 30L13 29L18 29L18 31L19 31L19 30L20 30L20 31L21 31L21 32L16 32L16 30L14 30L14 31L15 31L15 32L16 32L16 33L21 33L21 32L22 32L22 31L23 31L23 32L24 32L24 33L25 33L25 32L24 32L24 31L27 31L27 32L28 32L28 33L29 33L29 31L30 31L30 32L31 32L31 33L32 33L32 32L31 32L31 31L32 31L32 30L31 30L31 29L33 29L33 27L32 27L32 26L33 26L33 24L32 24L32 26L31 26L31 25L30 25L30 24L31 24L31 23L32 23L32 22L33 22L33 21L32 21L32 20L31 20L31 19L32 19L32 18L33 18L33 17L32 17L32 16L31 16L31 15L32 15L32 14L33 14L33 13L31 13L31 15L30 15L30 13L29 13L29 10L28 10L28 8L27 8L27 9L26 9L26 8L24 8L24 7L25 7L25 5L24 5L24 4L23 4L23 5L22 5L22 7L21 7L21 5L20 5L20 4L21 4L21 3L23 3L23 2L21 2L21 1L24 1L24 2L25 2L25 1L24 1L24 0L21 0L21 1L20 1L20 0L19 0L19 1L18 1L18 0L16 0L16 1L13 1L13 0ZM11 1L11 2L12 2L12 3L9 3L9 4L13 4L13 5L14 5L14 4L15 4L15 5L16 5L16 6L15 6L15 7L14 7L14 6L13 6L13 8L12 8L12 5L10 5L10 6L9 6L9 7L10 7L10 8L9 8L9 10L10 10L10 13L9 13L9 15L8 15L8 14L7 14L7 13L6 13L6 14L5 14L5 15L4 15L4 14L3 14L3 15L4 15L4 16L5 16L5 17L6 17L6 18L7 18L7 19L8 19L8 20L9 20L9 18L8 18L8 17L9 17L9 15L10 15L10 17L13 17L13 18L14 18L14 17L15 17L15 18L16 18L16 19L17 19L17 20L18 20L18 18L19 18L19 19L20 19L20 18L19 18L19 17L22 17L22 16L20 16L20 14L19 14L19 13L21 13L21 15L22 15L22 13L24 13L24 14L23 14L23 15L24 15L24 16L23 16L23 17L24 17L24 18L23 18L23 19L22 19L22 20L21 20L21 21L20 21L20 20L19 20L19 21L15 21L15 19L13 19L13 20L11 20L11 21L13 21L13 24L12 24L12 22L11 22L11 25L13 25L13 26L16 26L16 27L13 27L13 28L18 28L18 29L22 29L22 30L21 30L21 31L22 31L22 30L23 30L23 31L24 31L24 27L23 27L23 29L22 29L22 28L19 28L19 27L21 27L21 26L19 26L19 27L17 27L17 26L18 26L18 25L22 25L22 26L24 26L24 25L22 25L22 24L21 24L21 23L20 23L20 22L22 22L22 21L24 21L24 22L23 22L23 23L24 23L24 24L27 24L27 22L25 22L25 21L27 21L27 20L28 20L28 19L26 19L26 18L25 18L25 17L28 17L28 18L29 18L29 17L30 17L30 19L29 19L29 20L30 20L30 21L28 21L28 24L30 24L30 23L29 23L29 22L30 22L30 21L31 21L31 20L30 20L30 19L31 19L31 16L30 16L30 15L29 15L29 13L28 13L28 16L26 16L26 14L25 14L25 13L27 13L27 12L28 12L28 11L27 11L27 10L25 10L25 9L24 9L24 10L22 10L22 9L23 9L23 8L21 8L21 7L20 7L20 5L19 5L19 4L20 4L20 3L21 3L21 2L20 2L20 1L19 1L19 4L18 4L18 5L17 5L17 4L16 4L16 3L18 3L18 1L17 1L17 2L16 2L16 3L15 3L15 2L12 2L12 1ZM13 3L13 4L14 4L14 3ZM18 5L18 7L19 7L19 5ZM23 5L23 7L24 7L24 5ZM10 6L10 7L11 7L11 6ZM16 6L16 7L17 7L17 6ZM13 8L13 9L10 9L10 10L15 10L15 11L14 11L14 12L11 12L11 14L10 14L10 15L11 15L11 16L12 16L12 15L13 15L13 13L14 13L14 15L16 15L16 16L15 16L15 17L17 17L17 18L18 18L18 17L19 17L19 16L17 16L17 15L18 15L18 14L17 14L17 13L19 13L19 12L22 12L22 10L21 10L21 11L19 11L19 10L20 10L20 9L21 9L21 8L20 8L20 9L18 9L18 8L17 8L17 9L16 9L16 8L15 8L15 9L14 9L14 8ZM29 8L29 9L30 9L30 8ZM31 8L31 10L33 10L33 9L32 9L32 8ZM2 9L2 10L3 10L3 9ZM15 9L15 10L16 10L16 11L15 11L15 12L14 12L14 13L15 13L15 14L16 14L16 15L17 15L17 14L16 14L16 13L17 13L17 12L18 12L18 11L17 11L17 10L18 10L18 9L17 9L17 10L16 10L16 9ZM8 11L8 12L9 12L9 11ZM16 11L16 12L15 12L15 13L16 13L16 12L17 12L17 11ZM25 11L25 12L24 12L24 13L25 13L25 12L26 12L26 11ZM30 11L30 12L31 12L31 11ZM6 14L6 15L7 15L7 16L6 16L6 17L7 17L7 16L8 16L8 15L7 15L7 14ZM11 14L11 15L12 15L12 14ZM24 14L24 15L25 15L25 14ZM13 16L13 17L14 17L14 16ZM28 16L28 17L29 17L29 16ZM10 18L10 19L12 19L12 18ZM2 20L2 21L3 21L3 20ZM13 20L13 21L14 21L14 24L13 24L13 25L14 25L14 24L15 24L15 25L18 25L18 24L19 24L19 23L18 23L18 22L15 22L15 21L14 21L14 20ZM24 20L24 21L25 21L25 20ZM19 21L19 22L20 22L20 21ZM3 22L3 23L4 23L4 22ZM16 23L16 24L18 24L18 23ZM25 25L25 28L28 28L28 25ZM29 25L29 28L30 28L30 29L31 29L31 28L32 28L32 27L31 27L31 26L30 26L30 25ZM26 26L26 27L27 27L27 26ZM30 27L30 28L31 28L31 27ZM25 29L25 30L28 30L28 31L29 31L29 30L28 30L28 29ZM30 30L30 31L31 31L31 30ZM11 32L11 33L12 33L12 32ZM13 32L13 33L14 33L14 32ZM0 0L0 7L7 7L7 0ZM1 1L1 6L6 6L6 1ZM2 2L2 5L5 5L5 2ZM26 0L26 7L33 7L33 0ZM27 1L27 6L32 6L32 1ZM28 2L28 5L31 5L31 2ZM0 26L0 33L7 33L7 26ZM1 27L1 32L6 32L6 27ZM2 28L2 31L5 31L5 28Z" fill="#000000"/></g></g></svg>
