<?xml version="1.0" encoding="UTF-8"?>
<svg xmlns="http://www.w3.org/2000/svg" version="1.1" width="600" height="600" viewBox="0 0 600 600"><rect x="0" y="0" width="600" height="600" fill="#ffffff"/><g transform="scale(17.143)"><g transform="translate(1,1)"><path fill-rule="evenodd" d="M9 0L9 1L8 1L8 2L9 2L9 3L8 3L8 4L10 4L10 7L11 7L11 4L12 4L12 5L13 5L13 4L15 4L15 3L16 3L16 4L19 4L19 5L15 5L15 6L14 6L14 8L13 8L13 6L12 6L12 9L13 9L13 10L11 10L11 11L10 11L10 9L11 9L11 8L6 8L6 9L5 9L5 8L0 8L0 9L1 9L1 10L3 10L3 11L4 11L4 12L5 12L5 13L3 13L3 14L4 14L4 15L2 15L2 14L1 14L1 17L0 17L0 18L1 18L1 20L2 20L2 21L0 21L0 25L1 25L1 22L2 22L2 24L3 24L3 25L4 25L4 24L3 24L3 20L2 20L2 19L5 19L5 20L4 20L4 23L5 23L5 22L6 22L6 23L8 23L8 24L5 24L5 25L8 25L8 27L11 27L11 29L12 29L12 30L13 30L13 31L12 31L12 33L13 33L13 32L14 32L14 33L19 33L19 32L20 32L20 31L19 31L19 30L21 30L21 32L22 32L22 33L23 33L23 32L24 32L24 33L25 33L25 32L24 32L24 31L27 31L27 32L28 32L28 33L29 33L29 31L30 31L30 32L31 32L31 33L32 33L32 32L31 32L31 31L32 31L32 30L31 30L31 29L30 29L30 28L31 28L31 27L32 27L32 28L33 28L33 27L32 27L32 26L33 26L33 24L32 24L32 26L31 26L31 25L30 25L30 24L31 24L31 23L32 23L32 22L33 22L33 21L32 21L32 20L31 20L31 19L32 19L32 18L33 18L33 17L32 17L32 16L31 16L31 15L32 15L32 14L33 14L33 13L31 13L31 15L30 15L30 13L29 13L29 10L28 10L28 8L27 8L27 9L26 9L26 8L24 8L24 7L25 7L25 5L24 5L24 4L23 4L23 5L22 5L22 7L21 7L21 4L19 4L19 1L20 1L20 3L23 3L23 2L21 2L21 1L24 1L24 2L25 2L25 1L24 1L24 0L21 0L21 1L20 1L20 0L19 0L19 1L18 1L18 3L16 3L16 2L17 2L17 1L15 1L15 0L13 0L13 1L11 1L11 2L10 2L10 0ZM13 1L13 2L12 2L12 4L13 4L13 3L15 3L15 1ZM10 3L10 4L11 4L11 3ZM8 5L8 7L9 7L9 5ZM19 5L19 9L16 9L16 8L18 8L18 6L17 6L17 7L16 7L16 6L15 6L15 7L16 7L16 8L14 8L14 9L15 9L15 10L13 10L13 11L12 11L12 13L11 13L11 12L10 12L10 13L8 13L8 12L7 12L7 11L8 11L8 9L6 9L6 10L5 10L5 9L4 9L4 11L6 11L6 12L7 12L7 13L5 13L5 15L4 15L4 17L5 17L5 16L8 16L8 17L6 17L6 18L5 18L5 19L6 19L6 20L8 20L8 21L6 21L6 22L9 22L9 23L11 23L11 24L10 24L10 25L9 25L9 26L13 26L13 27L12 27L12 29L14 29L14 30L16 30L16 31L14 31L14 32L16 32L16 31L17 31L17 32L19 32L19 31L18 31L18 29L23 29L23 31L22 31L22 32L23 32L23 31L24 31L24 27L23 27L23 28L21 28L21 26L22 26L22 25L23 25L23 26L24 26L24 25L23 25L23 23L24 23L24 24L27 24L27 22L25 22L25 21L27 21L27 20L28 20L28 19L26 19L26 18L25 18L25 17L28 17L28 18L29 18L29 17L30 17L30 19L29 19L29 20L30 20L30 21L28 21L28 24L30 24L30 23L29 23L29 22L30 22L30 21L31 21L31 20L30 20L30 19L31 19L31 16L30 16L30 15L29 15L29 13L28 13L28 16L26 16L26 14L25 14L25 13L27 13L27 12L28 12L28 11L27 11L27 10L25 10L25 9L24 9L24 10L23 10L23 11L22 11L22 10L21 10L21 11L20 11L20 10L19 10L19 9L23 9L23 8L21 8L21 7L20 7L20 5ZM23 5L23 7L24 7L24 5ZM29 8L29 9L30 9L30 8ZM31 8L31 10L33 10L33 9L32 9L32 8ZM6 10L6 11L7 11L7 10ZM15 10L15 11L14 11L14 12L13 12L13 13L12 13L12 14L13 14L13 15L12 15L12 17L19 17L19 18L14 18L14 20L13 20L13 21L12 21L12 19L13 19L13 18L11 18L11 17L10 17L10 15L11 15L11 13L10 13L10 15L9 15L9 14L8 14L8 13L7 13L7 14L6 14L6 15L8 15L8 16L9 16L9 17L8 17L8 18L6 18L6 19L8 19L8 18L10 18L10 19L9 19L9 22L10 22L10 20L11 20L11 21L12 21L12 22L13 22L13 21L16 21L16 22L14 22L14 24L13 24L13 23L12 23L12 25L14 25L14 26L15 26L15 27L14 27L14 28L15 28L15 29L16 29L16 30L17 30L17 29L18 29L18 28L20 28L20 27L19 27L19 26L20 26L20 25L21 25L21 24L22 24L22 23L23 23L23 22L24 22L24 21L25 21L25 20L24 20L24 21L23 21L23 18L24 18L24 17L22 17L22 19L21 19L21 18L20 18L20 17L21 17L21 16L24 16L24 15L25 15L25 14L24 14L24 13L25 13L25 12L26 12L26 11L25 11L25 12L24 12L24 13L21 13L21 12L22 12L22 11L21 11L21 12L15 12L15 11L16 11L16 10ZM1 11L1 12L0 12L0 13L2 13L2 11ZM30 11L30 12L31 12L31 11ZM14 12L14 13L13 13L13 14L14 14L14 15L13 15L13 16L14 16L14 15L15 15L15 16L16 16L16 15L17 15L17 16L21 16L21 15L20 15L20 14L21 14L21 13L20 13L20 14L19 14L19 13L15 13L15 12ZM14 13L14 14L15 14L15 15L16 15L16 14L15 14L15 13ZM17 14L17 15L18 15L18 14ZM23 14L23 15L24 15L24 14ZM2 16L2 17L1 17L1 18L3 18L3 16ZM28 16L28 17L29 17L29 16ZM19 18L19 20L18 20L18 19L16 19L16 21L17 21L17 23L16 23L16 24L19 24L19 25L15 25L15 24L14 24L14 25L15 25L15 26L16 26L16 27L15 27L15 28L16 28L16 29L17 29L17 28L18 28L18 27L17 27L17 26L19 26L19 25L20 25L20 24L19 24L19 23L21 23L21 21L22 21L22 20L21 20L21 19L20 19L20 18ZM17 20L17 21L18 21L18 22L20 22L20 21L21 21L21 20L20 20L20 21L18 21L18 20ZM25 25L25 28L28 28L28 25ZM29 25L29 28L30 28L30 27L31 27L31 26L30 26L30 25ZM26 26L26 27L27 27L27 26ZM8 28L8 33L9 33L9 32L10 32L10 31L9 31L9 28ZM25 29L25 30L28 30L28 31L29 31L29 30L28 30L28 29ZM30 30L30 31L31 31L31 30ZM0 0L0 7L7 7L7 0ZM1 1L1 6L6 6L6 1ZM2 2L2 5L5 5L5 2ZM26 0L26 7L33 7L33 0ZM27 1L27 6L32 6L32 1ZM28 2L28 5L31 5L31 2ZM0 26L0 33L7 33L7 26ZM1 27L1 32L6 32L6 27ZM2 28L2 31L5 31L5 28Z" fill="#000000"/></g></g></svg>
