<?xml version="1.0" encoding="UTF-8"?>
<svg xmlns="http://www.w3.org/2000/svg" version="1.1" width="600" height="600" viewBox="0 0 600 600"><rect x="0" y="0" width="600" height="600" fill="#ffffff"/><g transform="scale(17.143)"><g transform="translate(1,1)"><path fill-rule="evenodd" d="M9 0L9 1L8 1L8 2L9 2L9 3L8 3L8 4L10 4L10 7L11 7L11 4L12 4L12 5L13 5L13 4L15 4L15 3L16 3L16 4L19 4L19 5L18 5L18 7L19 7L19 5L20 5L20 4L21 4L21 3L23 3L23 2L21 2L21 3L20 3L20 2L19 2L19 1L20 1L20 0L19 0L19 1L18 1L18 3L16 3L16 2L17 2L17 1L15 1L15 0L14 0L14 1L11 1L11 2L10 2L10 0ZM21 0L21 1L24 1L24 2L25 2L25 1L24 1L24 0ZM12 2L12 4L13 4L13 3L14 3L14 2ZM10 3L10 4L11 4L11 3ZM19 3L19 4L20 4L20 3ZM23 4L23 5L22 5L22 7L21 7L21 6L20 6L20 8L23 8L23 9L19 9L19 8L13 8L13 6L12 6L12 9L19 9L19 10L15 10L15 11L14 11L14 10L11 10L11 11L10 11L10 9L11 9L11 8L6 8L6 9L7 9L7 10L5 10L5 8L0 8L0 12L3 12L3 13L1 13L1 18L0 18L0 19L1 19L1 18L2 18L2 20L3 20L3 19L4 19L4 20L5 20L5 19L4 19L4 18L5 18L5 17L7 17L7 18L6 18L6 19L7 19L7 20L6 20L6 21L0 21L0 25L1 25L1 22L3 22L3 23L2 23L2 25L3 25L3 23L4 23L4 22L5 22L5 23L7 23L7 24L4 24L4 25L7 25L7 24L8 24L8 27L9 27L9 25L11 25L11 24L10 24L10 21L12 21L12 22L15 22L15 24L13 24L13 23L12 23L12 25L19 25L19 26L20 26L20 25L21 25L21 24L22 24L22 23L23 23L23 25L22 25L22 26L21 26L21 27L18 27L18 28L17 28L17 27L16 27L16 26L11 26L11 27L10 27L10 28L8 28L8 33L9 33L9 31L10 31L10 32L11 32L11 29L12 29L12 30L13 30L13 31L12 31L12 33L13 33L13 32L14 32L14 33L16 33L16 32L17 32L17 33L18 33L18 32L19 32L19 31L18 31L18 30L14 30L14 29L12 29L12 27L16 27L16 28L15 28L15 29L19 29L19 30L23 30L23 29L19 29L19 28L23 28L23 27L24 27L24 31L23 31L23 32L24 32L24 33L25 33L25 32L24 32L24 31L27 31L27 32L28 32L28 33L29 33L29 31L30 31L30 32L31 32L31 33L32 33L32 32L31 32L31 31L32 31L32 30L31 30L31 29L30 29L30 28L31 28L31 27L32 27L32 28L33 28L33 27L32 27L32 26L33 26L33 24L32 24L32 26L31 26L31 25L30 25L30 24L31 24L31 23L32 23L32 22L33 22L33 21L32 21L32 20L31 20L31 19L32 19L32 18L33 18L33 17L32 17L32 16L31 16L31 15L32 15L32 14L33 14L33 13L31 13L31 15L30 15L30 13L29 13L29 10L28 10L28 8L27 8L27 9L26 9L26 8L24 8L24 7L25 7L25 5L24 5L24 4ZM8 5L8 7L9 7L9 5ZM14 5L14 7L15 7L15 6L16 6L16 7L17 7L17 5ZM23 5L23 7L24 7L24 5ZM29 8L29 9L30 9L30 8ZM31 8L31 10L33 10L33 9L32 9L32 8ZM1 9L1 10L2 10L2 9ZM8 9L8 10L9 10L9 9ZM24 9L24 10L19 10L19 11L16 11L16 13L13 13L13 12L14 12L14 11L12 11L12 13L11 13L11 12L10 12L10 13L9 13L9 14L8 14L8 12L7 12L7 11L6 11L6 12L5 12L5 11L4 11L4 10L3 10L3 11L4 11L4 12L5 12L5 13L6 13L6 14L4 14L4 15L5 15L5 16L7 16L7 17L9 17L9 18L10 18L10 16L11 16L11 18L14 18L14 17L15 17L15 18L17 18L17 20L16 20L16 21L15 21L15 19L12 19L12 21L13 21L13 20L14 20L14 21L15 21L15 22L16 22L16 23L17 23L17 24L18 24L18 23L17 23L17 22L19 22L19 24L21 24L21 21L22 21L22 20L21 20L21 21L20 21L20 18L19 18L19 17L21 17L21 19L22 19L22 17L24 17L24 18L23 18L23 21L24 21L24 22L23 22L23 23L24 23L24 24L27 24L27 22L25 22L25 21L27 21L27 20L28 20L28 19L26 19L26 18L25 18L25 17L28 17L28 18L29 18L29 17L30 17L30 19L29 19L29 20L30 20L30 21L28 21L28 24L30 24L30 23L29 23L29 22L30 22L30 21L31 21L31 20L30 20L30 19L31 19L31 16L30 16L30 15L29 15L29 13L28 13L28 16L26 16L26 14L25 14L25 13L27 13L27 12L28 12L28 11L27 11L27 10L25 10L25 9ZM19 11L19 12L17 12L17 13L16 13L16 14L15 14L15 15L16 15L16 14L17 14L17 15L18 15L18 16L15 16L15 17L19 17L19 16L20 16L20 15L19 15L19 14L20 14L20 13L21 13L21 16L22 16L22 15L23 15L23 16L24 16L24 15L25 15L25 14L24 14L24 13L25 13L25 12L26 12L26 11L25 11L25 12L24 12L24 13L21 13L21 12L22 12L22 11L21 11L21 12L20 12L20 11ZM30 11L30 12L31 12L31 11ZM6 12L6 13L7 13L7 12ZM19 12L19 13L17 13L17 14L19 14L19 13L20 13L20 12ZM10 13L10 14L9 14L9 16L10 16L10 14L11 14L11 13ZM12 13L12 14L13 14L13 15L12 15L12 17L14 17L14 16L13 16L13 15L14 15L14 14L13 14L13 13ZM2 14L2 15L3 15L3 14ZM6 14L6 15L7 15L7 14ZM23 14L23 15L24 15L24 14ZM2 16L2 17L3 17L3 16ZM28 16L28 17L29 17L29 16ZM18 18L18 20L17 20L17 21L16 21L16 22L17 22L17 21L19 21L19 22L20 22L20 21L19 21L19 18ZM8 19L8 21L6 21L6 22L8 22L8 23L9 23L9 20L11 20L11 19ZM24 20L24 21L25 21L25 20ZM23 25L23 26L24 26L24 25ZM25 25L25 28L28 28L28 25ZM29 25L29 28L30 28L30 27L31 27L31 26L30 26L30 25ZM26 26L26 27L27 27L27 26ZM10 28L10 29L11 29L11 28ZM25 29L25 30L28 30L28 31L29 31L29 30L28 30L28 29ZM30 30L30 31L31 31L31 30ZM14 31L14 32L15 32L15 31ZM17 31L17 32L18 32L18 31ZM20 31L20 33L21 33L21 32L22 32L22 31ZM0 0L0 7L7 7L7 0ZM1 1L1 6L6 6L6 1ZM2 2L2 5L5 5L5 2ZM26 0L26 7L33 7L33 0ZM27 1L27 6L32 6L32 1ZM28 2L28 5L31 5L31 2ZM0 26L0 33L7 33L7 26ZM1 27L1 32L6 32L6 27ZM2 28L2 31L5 31L5 28Z" fill="#000000"/></g></g></svg>
