<?xml version="1.0" encoding="UTF-8"?>
<svg xmlns="http://www.w3.org/2000/svg" version="1.1" width="600" height="600" viewBox="0 0 600 600"><rect x="0" y="0" width="600" height="600" fill="#ffffff"/><g transform="scale(17.143)"><g transform="translate(1,1)"><path fill-rule="evenodd" d="M10 0L10 2L11 2L11 0ZM12 0L12 1L13 1L13 0ZM16 0L16 1L14 1L14 2L16 2L16 1L17 1L17 0ZM18 0L18 2L19 2L19 3L20 3L20 4L18 4L18 3L15 3L15 4L14 4L14 3L13 3L13 2L12 2L12 4L14 4L14 5L15 5L15 6L14 6L14 8L13 8L13 9L12 9L12 7L13 7L13 5L11 5L11 6L10 6L10 4L11 4L11 3L8 3L8 4L9 4L9 5L8 5L8 7L9 7L9 8L6 8L6 9L5 9L5 8L0 8L0 9L1 9L1 10L2 10L2 11L0 11L0 13L1 13L1 14L0 14L0 16L1 16L1 17L0 17L0 25L1 25L1 22L2 22L2 21L3 21L3 20L2 20L2 21L1 21L1 18L2 18L2 19L3 19L3 17L4 17L4 15L5 15L5 16L6 16L6 17L7 17L7 18L5 18L5 19L4 19L4 21L5 21L5 22L6 22L6 23L7 23L7 24L3 24L3 25L7 25L7 24L8 24L8 27L10 27L10 29L11 29L11 27L10 27L10 26L11 26L11 25L12 25L12 26L13 26L13 27L12 27L12 29L13 29L13 28L14 28L14 29L19 29L19 30L20 30L20 31L21 31L21 32L16 32L16 30L15 30L15 31L14 31L14 32L16 32L16 33L21 33L21 32L24 32L24 33L25 33L25 32L24 32L24 31L27 31L27 32L28 32L28 33L29 33L29 31L30 31L30 32L31 32L31 33L32 33L32 32L31 32L31 31L32 31L32 30L31 30L31 29L30 29L30 28L32 28L32 26L33 26L33 24L32 24L32 26L31 26L31 25L30 25L30 24L31 24L31 23L32 23L32 22L33 22L33 21L32 21L32 20L31 20L31 19L32 19L32 18L33 18L33 17L32 17L32 16L31 16L31 15L32 15L32 14L33 14L33 13L31 13L31 15L30 15L30 13L29 13L29 10L28 10L28 8L27 8L27 9L26 9L26 8L24 8L24 7L25 7L25 5L24 5L24 4L23 4L23 5L22 5L22 7L21 7L21 5L20 5L20 4L21 4L21 3L23 3L23 2L19 2L19 1L24 1L24 2L25 2L25 1L24 1L24 0ZM8 1L8 2L9 2L9 1ZM15 4L15 5L18 5L18 4ZM19 5L19 9L15 9L15 8L16 8L16 6L15 6L15 8L14 8L14 9L13 9L13 10L12 10L12 9L11 9L11 8L10 8L10 9L9 9L9 11L8 11L8 12L7 12L7 11L6 11L6 12L7 12L7 13L5 13L5 9L4 9L4 11L2 11L2 12L1 12L1 13L2 13L2 14L3 14L3 15L1 15L1 16L3 16L3 15L4 15L4 14L5 14L5 15L6 15L6 16L7 16L7 15L9 15L9 16L8 16L8 17L9 17L9 18L10 18L10 19L9 19L9 20L11 20L11 21L9 21L9 22L13 22L13 23L12 23L12 25L14 25L14 26L16 26L16 27L14 27L14 28L18 28L18 27L19 27L19 28L21 28L21 29L20 29L20 30L21 30L21 29L23 29L23 30L22 30L22 31L24 31L24 27L23 27L23 26L24 26L24 25L23 25L23 24L21 24L21 22L22 22L22 21L24 21L24 22L23 22L23 23L24 23L24 24L27 24L27 22L25 22L25 21L27 21L27 20L28 20L28 19L26 19L26 18L25 18L25 17L28 17L28 18L29 18L29 17L30 17L30 19L29 19L29 20L30 20L30 21L28 21L28 24L30 24L30 23L29 23L29 22L30 22L30 21L31 21L31 20L30 20L30 19L31 19L31 16L30 16L30 15L29 15L29 13L28 13L28 16L26 16L26 14L25 14L25 13L27 13L27 12L28 12L28 11L27 11L27 10L25 10L25 9L24 9L24 10L22 10L22 11L23 11L23 12L21 12L21 9L23 9L23 8L21 8L21 9L20 9L20 5ZM23 5L23 7L24 7L24 5ZM9 6L9 7L10 7L10 6ZM11 6L11 7L12 7L12 6ZM17 6L17 8L18 8L18 6ZM29 8L29 9L30 9L30 8ZM31 8L31 10L33 10L33 9L32 9L32 8ZM2 9L2 10L3 10L3 9ZM6 9L6 10L8 10L8 9ZM10 9L10 11L11 11L11 9ZM14 9L14 12L13 12L13 11L12 11L12 13L16 13L16 14L14 14L14 16L13 16L13 17L12 17L12 15L13 15L13 14L10 14L10 18L11 18L11 17L12 17L12 18L13 18L13 17L15 17L15 16L16 16L16 17L18 17L18 19L19 19L19 20L17 20L17 19L16 19L16 18L15 18L15 19L14 19L14 20L13 20L13 19L12 19L12 21L14 21L14 22L15 22L15 23L14 23L14 24L15 24L15 25L16 25L16 26L17 26L17 27L18 27L18 26L20 26L20 25L21 25L21 28L23 28L23 27L22 27L22 26L23 26L23 25L21 25L21 24L20 24L20 23L19 23L19 24L20 24L20 25L18 25L18 24L17 24L17 23L16 23L16 22L15 22L15 21L19 21L19 22L20 22L20 21L21 21L21 20L22 20L22 19L23 19L23 18L24 18L24 17L23 17L23 16L24 16L24 15L25 15L25 14L24 14L24 13L25 13L25 12L26 12L26 11L25 11L25 12L24 12L24 13L22 13L22 15L20 15L20 17L18 17L18 16L16 16L16 14L18 14L18 15L19 15L19 14L20 14L20 13L21 13L21 12L17 12L17 11L16 11L16 10L15 10L15 9ZM19 9L19 10L18 10L18 11L19 11L19 10L20 10L20 9ZM15 11L15 12L16 12L16 13L17 13L17 12L16 12L16 11ZM30 11L30 12L31 12L31 11ZM2 12L2 13L3 13L3 14L4 14L4 13L3 13L3 12ZM8 12L8 13L7 13L7 14L6 14L6 15L7 15L7 14L9 14L9 13L11 13L11 12ZM18 13L18 14L19 14L19 13ZM23 14L23 15L24 15L24 14ZM21 16L21 17L20 17L20 18L19 18L19 19L20 19L20 18L21 18L21 17L22 17L22 16ZM28 16L28 17L29 17L29 16ZM5 19L5 21L6 21L6 22L8 22L8 21L6 21L6 20L8 20L8 19ZM15 19L15 20L14 20L14 21L15 21L15 20L16 20L16 19ZM19 20L19 21L20 21L20 20ZM24 20L24 21L25 21L25 20ZM3 22L3 23L4 23L4 22ZM9 23L9 25L11 25L11 24L10 24L10 23ZM16 24L16 25L17 25L17 26L18 26L18 25L17 25L17 24ZM25 25L25 28L28 28L28 25ZM29 25L29 28L30 28L30 27L31 27L31 26L30 26L30 25ZM26 26L26 27L27 27L27 26ZM8 28L8 33L10 33L10 31L11 31L11 33L12 33L12 31L13 31L13 30L10 30L10 31L9 31L9 28ZM25 29L25 30L28 30L28 31L29 31L29 30L28 30L28 29ZM17 30L17 31L18 31L18 30ZM30 30L30 31L31 31L31 30ZM0 0L0 7L7 7L7 0ZM1 1L1 6L6 6L6 1ZM2 2L2 5L5 5L5 2ZM26 0L26 7L33 7L33 0ZM27 1L27 6L32 6L32 1ZM28 2L28 5L31 5L31 2ZM0 26L0 33L7 33L7 26ZM1 27L1 32L6 32L6 27ZM2 28L2 31L5 31L5 28Z" fill="#000000"/></g></g></svg>
