<?xml version="1.0" encoding="UTF-8"?>
<svg xmlns="http://www.w3.org/2000/svg" version="1.1" width="600" height="600" viewBox="0 0 600 600"><rect x="0" y="0" width="600" height="600" fill="#ffffff"/><g transform="scale(17.143)"><g transform="translate(1,1)"><path fill-rule="evenodd" d="M9 0L9 1L8 1L8 2L9 2L9 3L8 3L8 4L10 4L10 7L11 7L11 4L12 4L12 5L13 5L13 6L12 6L12 9L13 9L13 10L11 10L11 11L10 11L10 9L11 9L11 8L6 8L6 9L5 9L5 8L0 8L0 9L2 9L2 10L0 10L0 11L1 11L1 13L2 13L2 12L3 12L3 11L4 11L4 9L5 9L5 10L6 10L6 11L5 11L5 12L6 12L6 13L7 13L7 14L6 14L6 15L8 15L8 16L11 16L11 15L10 15L10 14L11 14L11 13L12 13L12 14L13 14L13 15L12 15L12 17L19 17L19 18L20 18L20 19L21 19L21 20L20 20L20 21L18 21L18 20L19 20L19 19L18 19L18 18L17 18L17 19L16 19L16 18L15 18L15 19L14 19L14 18L10 18L10 17L8 17L8 19L10 19L10 20L11 20L11 21L12 21L12 22L13 22L13 23L12 23L12 25L19 25L19 26L18 26L18 28L17 28L17 27L16 27L16 26L14 26L14 28L15 28L15 29L16 29L16 30L14 30L14 29L12 29L12 27L13 27L13 26L9 26L9 24L11 24L11 22L10 22L10 23L9 23L9 24L8 24L8 23L7 23L7 22L4 22L4 20L3 20L3 19L0 19L0 20L3 20L3 22L2 22L2 21L0 21L0 25L1 25L1 22L2 22L2 24L5 24L5 25L7 25L7 24L8 24L8 27L9 27L9 28L8 28L8 33L10 33L10 31L9 31L9 30L11 30L11 29L12 29L12 30L13 30L13 31L12 31L12 33L13 33L13 32L14 32L14 33L15 33L15 32L16 32L16 33L19 33L19 31L18 31L18 32L16 32L16 30L17 30L17 29L19 29L19 30L20 30L20 32L22 32L22 33L23 33L23 32L24 32L24 33L25 33L25 32L24 32L24 31L27 31L27 32L28 32L28 33L29 33L29 31L30 31L30 32L31 32L31 33L32 33L32 32L31 32L31 31L32 31L32 30L31 30L31 29L30 29L30 28L31 28L31 27L32 27L32 28L33 28L33 27L32 27L32 26L33 26L33 24L32 24L32 26L31 26L31 25L30 25L30 24L31 24L31 23L32 23L32 22L33 22L33 21L32 21L32 20L31 20L31 19L32 19L32 18L33 18L33 17L32 17L32 16L31 16L31 15L32 15L32 14L33 14L33 13L31 13L31 15L30 15L30 13L29 13L29 10L28 10L28 8L27 8L27 9L26 9L26 8L24 8L24 7L25 7L25 5L24 5L24 4L23 4L23 5L22 5L22 7L21 7L21 6L20 6L20 7L21 7L21 8L20 8L20 9L19 9L19 8L17 8L17 5L18 5L18 7L19 7L19 5L20 5L20 4L21 4L21 3L23 3L23 2L21 2L21 3L20 3L20 4L19 4L19 3L16 3L16 1L17 1L17 0L16 0L16 1L15 1L15 3L13 3L13 4L12 4L12 2L14 2L14 1L11 1L11 2L10 2L10 0ZM18 0L18 2L19 2L19 1L24 1L24 2L25 2L25 1L24 1L24 0ZM10 3L10 4L11 4L11 3ZM13 4L13 5L17 5L17 4ZM18 4L18 5L19 5L19 4ZM8 5L8 7L9 7L9 5ZM23 5L23 7L24 7L24 5ZM13 6L13 8L14 8L14 9L15 9L15 10L13 10L13 11L12 11L12 13L13 13L13 14L14 14L14 15L13 15L13 16L14 16L14 15L15 15L15 16L16 16L16 15L17 15L17 16L18 16L18 15L19 15L19 17L20 17L20 18L21 18L21 19L22 19L22 17L24 17L24 18L23 18L23 21L24 21L24 22L23 22L23 23L22 23L22 24L21 24L21 21L22 21L22 20L21 20L21 21L20 21L20 22L19 22L19 23L18 23L18 21L17 21L17 20L18 20L18 19L17 19L17 20L16 20L16 21L15 21L15 20L14 20L14 19L12 19L12 21L13 21L13 22L14 22L14 21L15 21L15 22L16 22L16 23L13 23L13 24L16 24L16 23L17 23L17 24L19 24L19 25L20 25L20 26L19 26L19 27L20 27L20 28L19 28L19 29L20 29L20 30L21 30L21 31L22 31L22 32L23 32L23 31L24 31L24 27L23 27L23 29L22 29L22 28L21 28L21 26L22 26L22 25L23 25L23 26L24 26L24 25L23 25L23 23L24 23L24 24L27 24L27 22L25 22L25 21L27 21L27 20L28 20L28 19L26 19L26 18L25 18L25 17L28 17L28 18L29 18L29 17L30 17L30 19L29 19L29 20L30 20L30 21L28 21L28 24L30 24L30 23L29 23L29 22L30 22L30 21L31 21L31 20L30 20L30 19L31 19L31 16L30 16L30 15L29 15L29 13L28 13L28 16L26 16L26 14L25 14L25 13L27 13L27 12L28 12L28 11L27 11L27 10L25 10L25 9L24 9L24 10L23 10L23 12L21 12L21 11L22 11L22 10L21 10L21 9L23 9L23 8L21 8L21 9L20 9L20 10L19 10L19 9L15 9L15 7L16 7L16 6L15 6L15 7L14 7L14 6ZM29 8L29 9L30 9L30 8ZM31 8L31 10L33 10L33 9L32 9L32 8ZM6 9L6 10L8 10L8 11L6 11L6 12L7 12L7 13L8 13L8 14L10 14L10 13L11 13L11 12L10 12L10 13L8 13L8 11L9 11L9 10L8 10L8 9ZM15 10L15 12L13 12L13 13L15 13L15 12L16 12L16 13L19 13L19 14L20 14L20 13L21 13L21 14L22 14L22 15L21 15L21 16L20 16L20 17L21 17L21 16L22 16L22 15L23 15L23 16L24 16L24 15L25 15L25 14L24 14L24 13L25 13L25 12L26 12L26 11L25 11L25 12L24 12L24 13L21 13L21 12L16 12L16 10ZM18 10L18 11L19 11L19 10ZM20 10L20 11L21 11L21 10ZM30 11L30 12L31 12L31 11ZM3 13L3 14L2 14L2 15L1 15L1 14L0 14L0 17L1 17L1 16L2 16L2 15L5 15L5 14L4 14L4 13ZM15 14L15 15L16 15L16 14ZM23 14L23 15L24 15L24 14ZM3 16L3 17L4 17L4 19L5 19L5 21L7 21L7 20L6 20L6 19L7 19L7 18L6 18L6 17L7 17L7 16L5 16L5 17L4 17L4 16ZM28 16L28 17L29 17L29 16ZM5 18L5 19L6 19L6 18ZM13 20L13 21L14 21L14 20ZM24 20L24 21L25 21L25 20ZM8 21L8 22L9 22L9 21ZM16 21L16 22L17 22L17 21ZM6 23L6 24L7 24L7 23ZM19 23L19 24L20 24L20 25L21 25L21 24L20 24L20 23ZM25 25L25 28L28 28L28 25ZM29 25L29 28L30 28L30 27L31 27L31 26L30 26L30 25ZM26 26L26 27L27 27L27 26ZM10 27L10 28L9 28L9 29L10 29L10 28L11 28L11 27ZM15 27L15 28L16 28L16 29L17 29L17 28L16 28L16 27ZM20 28L20 29L21 29L21 30L22 30L22 31L23 31L23 30L22 30L22 29L21 29L21 28ZM25 29L25 30L28 30L28 31L29 31L29 30L28 30L28 29ZM30 30L30 31L31 31L31 30ZM14 31L14 32L15 32L15 31ZM0 0L0 7L7 7L7 0ZM1 1L1 6L6 6L6 1ZM2 2L2 5L5 5L5 2ZM26 0L26 7L33 7L33 0ZM27 1L27 6L32 6L32 1ZM28 2L28 5L31 5L31 2ZM0 26L0 33L7 33L7 26ZM1 27L1 32L6 32L6 27ZM2 28L2 31L5 31L5 28Z" fill="#000000"/></g></g></svg>
