<?xml version="1.0" encoding="UTF-8"?>
<svg xmlns="http://www.w3.org/2000/svg" version="1.1" width="600" height="600" viewBox="0 0 600 600"><rect x="0" y="0" width="600" height="600" fill="#ffffff"/><g transform="scale(17.143)"><g transform="translate(1,1)"><path fill-rule="evenodd" d="M9 0L9 1L8 1L8 3L9 3L9 4L8 4L8 8L6 8L6 9L4 9L4 8L3 8L3 9L2 9L2 8L0 8L0 17L1 17L1 18L0 18L0 20L2 20L2 21L1 21L1 22L0 22L0 23L1 23L1 24L0 24L0 25L1 25L1 24L2 24L2 25L3 25L3 24L4 24L4 22L5 22L5 23L8 23L8 24L5 24L5 25L8 25L8 27L9 27L9 29L8 29L8 30L9 30L9 31L8 31L8 33L11 33L11 31L12 31L12 33L13 33L13 30L14 30L14 32L16 32L16 33L17 33L17 32L18 32L18 30L19 30L19 29L20 29L20 32L21 32L21 33L22 33L22 31L21 31L21 29L22 29L22 30L23 30L23 32L24 32L24 33L25 33L25 32L26 32L26 30L27 30L27 31L28 31L28 32L27 32L27 33L28 33L28 32L29 32L29 33L30 33L30 30L29 30L29 29L30 29L30 28L29 28L29 24L30 24L30 23L31 23L31 24L33 24L33 21L32 21L32 20L31 20L31 21L30 21L30 20L29 20L29 19L30 19L30 18L31 18L31 19L33 19L33 18L31 18L31 17L29 17L29 16L30 16L30 15L29 15L29 16L28 16L28 14L29 14L29 13L28 13L28 11L27 11L27 12L25 12L25 11L24 11L24 14L23 14L23 11L22 11L22 10L23 10L23 9L24 9L24 10L27 10L27 9L29 9L29 10L31 10L31 12L32 12L32 13L30 13L30 14L31 14L31 16L32 16L32 17L33 17L33 16L32 16L32 14L33 14L33 9L32 9L32 8L30 8L30 9L29 9L29 8L26 8L26 9L24 9L24 8L25 8L25 6L24 6L24 8L23 8L23 5L24 5L24 2L25 2L25 1L24 1L24 0L19 0L19 1L20 1L20 2L18 2L18 1L16 1L16 0L14 0L14 1L13 1L13 0L12 0L12 1L11 1L11 2L9 2L9 1L10 1L10 0ZM14 1L14 2L13 2L13 3L12 3L12 4L9 4L9 5L10 5L10 6L9 6L9 7L10 7L10 8L8 8L8 10L10 10L10 8L11 8L11 9L12 9L12 10L11 10L11 11L8 11L8 12L7 12L7 11L6 11L6 10L7 10L7 9L6 9L6 10L4 10L4 9L3 9L3 11L2 11L2 9L1 9L1 11L2 11L2 12L1 12L1 15L2 15L2 14L3 14L3 13L4 13L4 15L5 15L5 17L4 17L4 18L2 18L2 19L3 19L3 20L4 20L4 18L7 18L7 19L6 19L6 20L5 20L5 21L6 21L6 22L7 22L7 21L8 21L8 23L9 23L9 22L10 22L10 21L11 21L11 19L12 19L12 20L14 20L14 21L15 21L15 23L14 23L14 25L13 25L13 24L12 24L12 28L11 28L11 27L10 27L10 24L8 24L8 25L9 25L9 27L10 27L10 28L11 28L11 29L10 29L10 30L12 30L12 28L13 28L13 29L15 29L15 31L16 31L16 32L17 32L17 31L16 31L16 30L18 30L18 29L16 29L16 27L18 27L18 26L19 26L19 27L22 27L22 29L24 29L24 30L26 30L26 29L24 29L24 24L25 24L25 23L26 23L26 24L27 24L27 22L28 22L28 23L30 23L30 21L29 21L29 20L28 20L28 18L29 18L29 17L26 17L26 16L25 16L25 17L24 17L24 18L23 18L23 19L22 19L22 18L20 18L20 17L21 17L21 14L22 14L22 15L23 15L23 16L22 16L22 17L23 17L23 16L24 16L24 15L27 15L27 14L28 14L28 13L27 13L27 14L24 14L24 15L23 15L23 14L22 14L22 13L21 13L21 14L18 14L18 16L19 16L19 15L20 15L20 17L19 17L19 19L18 19L18 17L16 17L16 16L17 16L17 15L16 15L16 13L17 13L17 12L19 12L19 13L20 13L20 11L19 11L19 10L20 10L20 9L21 9L21 7L22 7L22 6L21 6L21 7L20 7L20 6L19 6L19 5L20 5L20 4L19 4L19 5L18 5L18 3L17 3L17 4L16 4L16 6L15 6L15 7L14 7L14 6L13 6L13 4L14 4L14 5L15 5L15 1ZM21 1L21 5L22 5L22 2L23 2L23 1ZM11 5L11 6L10 6L10 7L11 7L11 6L12 6L12 8L13 8L13 12L12 12L12 13L9 13L9 12L8 12L8 14L6 14L6 13L7 13L7 12L6 12L6 11L4 11L4 13L5 13L5 14L6 14L6 15L8 15L8 14L9 14L9 16L10 16L10 14L12 14L12 16L11 16L11 17L8 17L8 16L6 16L6 17L8 17L8 19L7 19L7 20L6 20L6 21L7 21L7 20L8 20L8 19L9 19L9 18L10 18L10 19L11 19L11 17L12 17L12 16L14 16L14 17L13 17L13 19L14 19L14 20L15 20L15 18L14 18L14 17L15 17L15 16L14 16L14 15L15 15L15 11L14 11L14 9L15 9L15 8L13 8L13 6L12 6L12 5ZM17 5L17 6L16 6L16 10L19 10L19 8L20 8L20 7L19 7L19 6L18 6L18 5ZM17 6L17 7L18 7L18 8L17 8L17 9L18 9L18 8L19 8L19 7L18 7L18 6ZM22 8L22 9L23 9L23 8ZM31 9L31 10L32 10L32 9ZM2 12L2 13L3 13L3 12ZM13 13L13 14L14 14L14 13ZM1 16L1 17L2 17L2 16ZM25 17L25 18L24 18L24 19L23 19L23 20L22 20L22 19L21 19L21 20L20 20L20 21L22 21L22 22L21 22L21 23L20 23L20 22L19 22L19 20L18 20L18 19L16 19L16 20L18 20L18 21L17 21L17 23L15 23L15 24L16 24L16 25L17 25L17 26L18 26L18 24L21 24L21 26L22 26L22 24L24 24L24 23L23 23L23 21L24 21L24 22L27 22L27 21L24 21L24 20L26 20L26 19L27 19L27 18L26 18L26 17ZM25 18L25 19L26 19L26 18ZM9 20L9 21L10 21L10 20ZM31 21L31 23L32 23L32 21ZM18 22L18 23L17 23L17 24L18 24L18 23L19 23L19 22ZM19 25L19 26L20 26L20 25ZM25 25L25 28L28 28L28 25ZM30 25L30 27L32 27L32 28L31 28L31 31L33 31L33 27L32 27L32 26L33 26L33 25L32 25L32 26L31 26L31 25ZM26 26L26 27L27 27L27 26ZM13 27L13 28L15 28L15 27ZM20 28L20 29L21 29L21 28ZM9 31L9 32L10 32L10 31ZM31 32L31 33L32 33L32 32ZM0 0L0 7L7 7L7 0ZM1 1L1 6L6 6L6 1ZM2 2L2 5L5 5L5 2ZM26 0L26 7L33 7L33 0ZM27 1L27 6L32 6L32 1ZM28 2L28 5L31 5L31 2ZM0 26L0 33L7 33L7 26ZM1 27L1 32L6 32L6 27ZM2 28L2 31L5 31L5 28Z" fill="#000000"/></g></g></svg>
