<?xml version="1.0" encoding="UTF-8"?>
<svg xmlns="http://www.w3.org/2000/svg" version="1.1" width="600" height="600" viewBox="0 0 600 600"><rect x="0" y="0" width="600" height="600" fill="#ffffff"/><g transform="scale(15.385)"><g transform="translate(1,1)"><path fill-rule="evenodd" d="M10 0L10 2L11 2L11 0ZM12 0L12 1L13 1L13 2L12 2L12 4L13 4L13 3L14 3L14 4L15 4L15 5L18 5L18 4L19 4L19 5L20 5L20 4L19 4L19 3L24 3L24 4L21 4L21 5L24 5L24 4L26 4L26 7L27 7L27 9L26 9L26 8L25 8L25 6L24 6L24 8L25 8L25 9L23 9L23 6L22 6L22 7L21 7L21 6L20 6L20 7L21 7L21 8L20 8L20 9L19 9L19 8L17 8L17 6L16 6L16 9L12 9L12 7L13 7L13 5L11 5L11 6L10 6L10 4L11 4L11 3L8 3L8 4L9 4L9 5L8 5L8 7L9 7L9 8L6 8L6 9L7 9L7 10L6 10L6 11L4 11L4 13L5 13L5 14L6 14L6 15L7 15L7 14L9 14L9 15L8 15L8 17L7 17L7 16L6 16L6 17L7 17L7 18L5 18L5 17L4 17L4 16L5 16L5 15L4 15L4 14L3 14L3 11L2 11L2 10L0 10L0 12L1 12L1 13L0 13L0 15L1 15L1 17L0 17L0 19L2 19L2 20L1 20L1 21L5 21L5 22L4 22L4 23L2 23L2 24L1 24L1 25L0 25L0 29L1 29L1 26L3 26L3 27L4 27L4 28L5 28L5 29L8 29L8 31L11 31L11 32L8 32L8 37L11 37L11 35L10 35L10 34L9 34L9 33L12 33L12 34L13 34L13 35L12 35L12 37L13 37L13 36L14 36L14 37L15 37L15 36L17 36L17 37L19 37L19 34L21 34L21 35L20 35L20 36L22 36L22 37L23 37L23 36L24 36L24 37L27 37L27 36L31 36L31 37L37 37L37 30L35 30L35 28L34 28L34 27L36 27L36 28L37 28L37 26L36 26L36 25L37 25L37 22L36 22L36 21L37 21L37 18L36 18L36 17L37 17L37 14L36 14L36 13L35 13L35 12L34 12L34 11L35 11L35 9L36 9L36 8L35 8L35 9L34 9L34 8L33 8L33 9L34 9L34 11L32 11L32 12L31 12L31 10L30 10L30 8L28 8L28 7L29 7L29 6L28 6L28 5L27 5L27 4L29 4L29 2L28 2L28 1L27 1L27 0L25 0L25 2L22 2L22 0L18 0L18 1L21 1L21 2L18 2L18 3L17 3L17 4L16 4L16 2L17 2L17 1L16 1L16 0ZM23 0L23 1L24 1L24 0ZM8 1L8 2L9 2L9 1ZM14 2L14 3L15 3L15 2ZM25 2L25 3L26 3L26 2ZM27 2L27 3L28 3L28 2ZM9 6L9 7L10 7L10 6ZM11 6L11 7L12 7L12 6ZM14 6L14 8L15 8L15 6ZM18 6L18 7L19 7L19 6ZM27 6L27 7L28 7L28 6ZM0 8L0 9L4 9L4 10L5 10L5 8ZM10 8L10 9L11 9L11 14L13 14L13 15L12 15L12 17L11 17L11 19L10 19L10 21L9 21L9 18L8 18L8 19L6 19L6 20L5 20L5 21L6 21L6 22L5 22L5 24L4 24L4 25L3 25L3 24L2 24L2 25L3 25L3 26L4 26L4 27L5 27L5 28L7 28L7 27L8 27L8 29L9 29L9 30L13 30L13 31L12 31L12 33L15 33L15 34L17 34L17 36L18 36L18 34L19 34L19 33L25 33L25 34L26 34L26 35L25 35L25 36L26 36L26 35L29 35L29 33L27 33L27 32L28 32L28 30L27 30L27 29L28 29L28 27L29 27L29 26L31 26L31 28L33 28L33 27L34 27L34 26L35 26L35 25L34 25L34 24L36 24L36 23L34 23L34 24L33 24L33 25L32 25L32 24L31 24L31 23L32 23L32 22L33 22L33 21L34 21L34 22L35 22L35 21L34 21L34 20L36 20L36 19L35 19L35 17L36 17L36 14L35 14L35 15L34 15L34 13L30 13L30 10L29 10L29 9L27 9L27 10L29 10L29 11L28 11L28 12L29 12L29 13L25 13L25 12L26 12L26 10L25 10L25 11L24 11L24 10L23 10L23 9L22 9L22 8L21 8L21 9L20 9L20 10L19 10L19 9L16 9L16 10L19 10L19 13L17 13L17 12L18 12L18 11L16 11L16 13L17 13L17 14L15 14L15 13L14 13L14 12L15 12L15 11L14 11L14 12L13 12L13 13L12 13L12 11L13 11L13 10L12 10L12 9L11 9L11 8ZM31 8L31 9L32 9L32 8ZM8 9L8 12L9 12L9 14L10 14L10 10L9 10L9 9ZM21 9L21 10L20 10L20 11L21 11L21 12L20 12L20 13L19 13L19 14L18 14L18 16L17 16L17 15L16 15L16 17L12 17L12 18L13 18L13 19L12 19L12 21L13 21L13 20L14 20L14 21L15 21L15 22L17 22L17 23L16 23L16 24L17 24L17 26L16 26L16 25L12 25L12 23L13 23L13 22L11 22L11 21L10 21L10 23L9 23L9 24L8 24L8 23L7 23L7 22L9 22L9 21L8 21L8 20L6 20L6 21L7 21L7 22L6 22L6 23L7 23L7 24L5 24L5 25L4 25L4 26L6 26L6 27L7 27L7 26L8 26L8 27L9 27L9 28L10 28L10 27L11 27L11 25L12 25L12 26L13 26L13 27L12 27L12 29L13 29L13 28L14 28L14 29L19 29L19 30L18 30L18 32L15 32L15 31L17 31L17 30L15 30L15 31L14 31L14 32L15 32L15 33L17 33L17 34L18 34L18 33L19 33L19 32L23 32L23 30L24 30L24 31L25 31L25 29L27 29L27 28L25 28L25 29L21 29L21 28L24 28L24 27L22 27L22 26L24 26L24 25L28 25L28 26L26 26L26 27L28 27L28 26L29 26L29 25L31 25L31 24L30 24L30 22L29 22L29 20L27 20L27 19L29 19L29 18L30 18L30 21L33 21L33 20L34 20L34 19L33 19L33 20L31 20L31 19L32 19L32 18L30 18L30 17L33 17L33 18L34 18L34 17L35 17L35 16L34 16L34 15L33 15L33 14L32 14L32 16L31 16L31 14L30 14L30 13L29 13L29 14L27 14L27 15L26 15L26 14L25 14L25 13L23 13L23 10L22 10L22 9ZM36 10L36 11L37 11L37 10ZM6 11L6 12L7 12L7 11ZM21 12L21 13L20 13L20 14L19 14L19 17L16 17L16 18L19 18L19 19L20 19L20 20L19 20L19 21L17 21L17 20L18 20L18 19L16 19L16 21L17 21L17 22L18 22L18 23L17 23L17 24L18 24L18 23L20 23L20 24L19 24L19 25L24 25L24 24L26 24L26 23L25 23L25 22L26 22L26 21L27 21L27 22L28 22L28 23L29 23L29 22L28 22L28 21L27 21L27 20L26 20L26 18L29 18L29 17L30 17L30 14L29 14L29 16L28 16L28 15L27 15L27 17L24 17L24 16L26 16L26 15L25 15L25 14L23 14L23 13L22 13L22 12ZM1 13L1 14L2 14L2 13ZM6 13L6 14L7 14L7 13ZM21 13L21 15L20 15L20 17L19 17L19 18L20 18L20 17L21 17L21 20L22 20L22 18L24 18L24 17L21 17L21 16L23 16L23 15L22 15L22 13ZM2 15L2 16L3 16L3 15ZM9 15L9 16L10 16L10 15ZM14 15L14 16L15 16L15 15ZM33 16L33 17L34 17L34 16ZM2 18L2 19L3 19L3 20L4 20L4 18ZM14 19L14 20L15 20L15 19ZM25 20L25 21L19 21L19 22L20 22L20 23L21 23L21 24L22 24L22 23L21 23L21 22L25 22L25 21L26 21L26 20ZM10 23L10 25L9 25L9 26L10 26L10 25L11 25L11 23ZM14 23L14 24L15 24L15 23ZM7 24L7 25L6 25L6 26L7 26L7 25L8 25L8 24ZM17 26L17 27L16 27L16 28L21 28L21 27L20 27L20 26ZM14 27L14 28L15 28L15 27ZM20 29L20 30L19 30L19 31L21 31L21 29ZM29 29L29 32L32 32L32 29ZM33 29L33 30L34 30L34 29ZM26 30L26 31L27 31L27 30ZM30 30L30 31L31 31L31 30ZM34 31L34 32L33 32L33 33L34 33L34 36L36 36L36 35L35 35L35 33L36 33L36 31ZM25 32L25 33L26 33L26 34L27 34L27 33L26 33L26 32ZM34 32L34 33L35 33L35 32ZM22 34L22 35L24 35L24 34ZM30 34L30 35L31 35L31 36L32 36L32 35L33 35L33 34ZM9 35L9 36L10 36L10 35ZM14 35L14 36L15 36L15 35ZM0 0L0 7L7 7L7 0ZM1 1L1 6L6 6L6 1ZM2 2L2 5L5 5L5 2ZM30 0L30 7L37 7L37 0ZM31 1L31 6L36 6L36 1ZM32 2L32 5L35 5L35 2ZM0 30L0 37L7 37L7 30ZM1 31L1 36L6 36L6 31ZM2 32L2 35L5 35L5 32Z" fill="#000000"/></g></g></svg>
