<?xml version="1.0" encoding="UTF-8"?>
<svg xmlns="http://www.w3.org/2000/svg" version="1.1" width="600" height="600" viewBox="0 0 600 600"><rect x="0" y="0" width="600" height="600" fill="#ffffff"/><g transform="scale(17.143)"><g transform="translate(1,1)"><path fill-rule="evenodd" d="M9 0L9 1L11 1L11 2L9 2L9 3L8 3L8 5L9 5L9 6L8 6L8 7L9 7L9 9L8 9L8 8L5 8L5 9L4 9L4 10L2 10L2 11L1 11L1 13L0 13L0 14L1 14L1 13L2 13L2 14L3 14L3 12L2 12L2 11L4 11L4 14L5 14L5 12L6 12L6 13L7 13L7 12L9 12L9 13L10 13L10 14L9 14L9 15L10 15L10 16L11 16L11 15L10 15L10 14L11 14L11 12L12 12L12 11L14 11L14 10L11 10L11 8L10 8L10 7L11 7L11 4L12 4L12 5L13 5L13 4L14 4L14 8L13 8L13 6L12 6L12 9L14 9L14 8L15 8L15 11L16 11L16 12L14 12L14 15L16 15L16 16L13 16L13 15L12 15L12 17L15 17L15 18L14 18L14 19L15 19L15 24L14 24L14 26L15 26L15 27L14 27L14 28L15 28L15 31L16 31L16 32L14 32L14 31L12 31L12 30L14 30L14 29L12 29L12 27L13 27L13 26L11 26L11 25L13 25L13 23L12 23L12 24L11 24L11 25L10 25L10 26L9 26L9 24L10 24L10 23L11 23L11 22L10 22L10 21L12 21L12 22L13 22L13 21L14 21L14 20L13 20L13 21L12 21L12 19L13 19L13 18L12 18L12 19L11 19L11 17L8 17L8 16L6 16L6 15L8 15L8 14L6 14L6 15L3 15L3 17L2 17L2 15L1 15L1 17L0 17L0 19L1 19L1 20L0 20L0 25L3 25L3 23L4 23L4 24L6 24L6 25L7 25L7 24L6 24L6 23L7 23L7 22L10 22L10 23L9 23L9 24L8 24L8 28L9 28L9 29L10 29L10 30L9 30L9 31L8 31L8 33L9 33L9 31L10 31L10 32L11 32L11 31L12 31L12 33L13 33L13 32L14 32L14 33L16 33L16 32L17 32L17 33L18 33L18 32L20 32L20 33L21 33L21 32L20 32L20 29L21 29L21 27L24 27L24 30L23 30L23 32L24 32L24 33L25 33L25 32L24 32L24 31L25 31L25 29L27 29L27 31L28 31L28 33L29 33L29 30L31 30L31 29L30 29L30 28L31 28L31 27L32 27L32 26L33 26L33 25L32 25L32 24L31 24L31 23L32 23L32 20L31 20L31 19L30 19L30 20L29 20L29 19L28 19L28 18L27 18L27 17L25 17L25 19L26 19L26 18L27 18L27 21L28 21L28 22L27 22L27 23L28 23L28 22L29 22L29 23L30 23L30 24L31 24L31 25L30 25L30 26L31 26L31 27L30 27L30 28L29 28L29 24L24 24L24 23L23 23L23 22L24 22L24 21L25 21L25 22L26 22L26 21L25 21L25 20L24 20L24 21L23 21L23 19L24 19L24 17L21 17L21 15L22 15L22 14L24 14L24 15L23 15L23 16L24 16L24 15L25 15L25 14L26 14L26 15L28 15L28 17L29 17L29 18L30 18L30 17L29 17L29 15L30 15L30 16L31 16L31 18L32 18L32 19L33 19L33 17L32 17L32 16L33 16L33 15L32 15L32 14L33 14L33 12L31 12L31 11L30 11L30 12L29 12L29 9L30 9L30 8L28 8L28 10L27 10L27 12L26 12L26 11L25 11L25 12L23 12L23 11L22 11L22 10L21 10L21 6L22 6L22 8L23 8L23 10L24 10L24 9L25 9L25 10L26 10L26 9L25 9L25 8L24 8L24 7L25 7L25 5L24 5L24 4L23 4L23 2L22 2L22 0L21 0L21 1L20 1L20 3L21 3L21 4L23 4L23 5L20 5L20 4L19 4L19 2L18 2L18 1L19 1L19 0L16 0L16 1L17 1L17 2L18 2L18 3L17 3L17 5L18 5L18 8L17 8L17 6L16 6L16 7L15 7L15 2L14 2L14 3L13 3L13 4L12 4L12 2L13 2L13 1L14 1L14 0L13 0L13 1L12 1L12 0ZM24 1L24 2L25 2L25 1ZM9 3L9 5L10 5L10 3ZM18 4L18 5L19 5L19 7L20 7L20 5L19 5L19 4ZM23 5L23 7L24 7L24 5ZM9 6L9 7L10 7L10 6ZM0 8L0 10L1 10L1 9L2 9L2 8ZM16 8L16 10L17 10L17 12L16 12L16 14L18 14L18 15L17 15L17 16L16 16L16 17L17 17L17 18L16 18L16 22L17 22L17 23L16 23L16 24L17 24L17 26L18 26L18 27L17 27L17 28L16 28L16 29L17 29L17 30L16 30L16 31L17 31L17 32L18 32L18 31L19 31L19 30L18 30L18 29L20 29L20 28L18 28L18 27L20 27L20 26L21 26L21 25L22 25L22 24L23 24L23 26L24 26L24 24L23 24L23 23L21 23L21 22L23 22L23 21L22 21L22 19L23 19L23 18L21 18L21 17L20 17L20 16L18 16L18 15L20 15L20 14L21 14L21 13L22 13L22 11L20 11L20 10L19 10L19 9L20 9L20 8L19 8L19 9L17 9L17 8ZM6 9L6 10L8 10L8 9ZM9 9L9 10L10 10L10 11L9 11L9 12L10 12L10 11L11 11L11 10L10 10L10 9ZM31 9L31 10L32 10L32 9ZM18 10L18 13L19 13L19 14L20 14L20 13L19 13L19 10ZM6 11L6 12L7 12L7 11ZM28 12L28 13L27 13L27 14L28 14L28 15L29 15L29 12ZM30 12L30 15L31 15L31 16L32 16L32 15L31 15L31 12ZM12 13L12 14L13 14L13 13ZM24 13L24 14L25 14L25 13ZM17 16L17 17L18 17L18 18L19 18L19 19L18 19L18 20L17 20L17 22L18 22L18 25L19 25L19 26L20 26L20 24L21 24L21 23L19 23L19 22L21 22L21 20L19 20L19 19L20 19L20 17L18 17L18 16ZM3 17L3 18L4 18L4 19L2 19L2 20L1 20L1 21L5 21L5 20L7 20L7 19L6 19L6 18L8 18L8 20L9 20L9 21L10 21L10 20L11 20L11 19L10 19L10 20L9 20L9 18L8 18L8 17L6 17L6 18L5 18L5 17ZM30 20L30 21L29 21L29 22L30 22L30 21L31 21L31 20ZM6 21L6 22L7 22L7 21ZM18 21L18 22L19 22L19 21ZM1 22L1 24L2 24L2 22ZM4 22L4 23L5 23L5 22ZM25 25L25 28L28 28L28 25ZM31 25L31 26L32 26L32 25ZM26 26L26 27L27 27L27 26ZM10 28L10 29L11 29L11 30L10 30L10 31L11 31L11 30L12 30L12 29L11 29L11 28ZM17 28L17 29L18 29L18 28ZM22 28L22 29L23 29L23 28ZM21 30L21 31L22 31L22 30ZM32 30L32 31L33 31L33 30ZM30 31L30 32L31 32L31 33L32 33L32 32L31 32L31 31ZM0 0L0 7L7 7L7 0ZM1 1L1 6L6 6L6 1ZM2 2L2 5L5 5L5 2ZM26 0L26 7L33 7L33 0ZM27 1L27 6L32 6L32 1ZM28 2L28 5L31 5L31 2ZM0 26L0 33L7 33L7 26ZM1 27L1 32L6 32L6 27ZM2 28L2 31L5 31L5 28Z" fill="#000000"/></g></g></svg>
