<?xml version="1.0" encoding="UTF-8"?>
<svg xmlns="http://www.w3.org/2000/svg" version="1.1" width="600" height="600" viewBox="0 0 600 600"><rect x="0" y="0" width="600" height="600" fill="#ffffff"/><g transform="scale(17.143)"><g transform="translate(1,1)"><path fill-rule="evenodd" d="M9 0L9 1L8 1L8 2L9 2L9 3L8 3L8 4L10 4L10 7L11 7L11 4L12 4L12 5L13 5L13 4L14 4L14 5L15 5L15 6L14 6L14 7L15 7L15 9L14 9L14 8L13 8L13 6L12 6L12 9L13 9L13 10L11 10L11 11L10 11L10 9L11 9L11 8L6 8L6 9L7 9L7 10L5 10L5 8L0 8L0 9L1 9L1 10L2 10L2 9L3 9L3 11L2 11L2 12L1 12L1 15L2 15L2 16L0 16L0 18L2 18L2 17L3 17L3 20L2 20L2 19L0 19L0 25L1 25L1 22L2 22L2 24L3 24L3 23L7 23L7 24L4 24L4 25L7 25L7 24L8 24L8 27L11 27L11 28L10 28L10 30L11 30L11 29L12 29L12 30L13 30L13 31L12 31L12 33L13 33L13 32L14 32L14 33L19 33L19 32L20 32L20 33L21 33L21 32L22 32L22 31L21 31L21 30L22 30L22 29L23 29L23 27L24 27L24 31L23 31L23 32L24 32L24 33L25 33L25 32L24 32L24 31L27 31L27 32L28 32L28 33L29 33L29 31L30 31L30 32L31 32L31 33L32 33L32 32L31 32L31 31L32 31L32 30L31 30L31 29L30 29L30 28L31 28L31 27L32 27L32 28L33 28L33 27L32 27L32 26L33 26L33 24L32 24L32 26L31 26L31 25L30 25L30 24L31 24L31 23L32 23L32 22L33 22L33 21L32 21L32 20L31 20L31 19L32 19L32 18L33 18L33 17L32 17L32 16L31 16L31 15L32 15L32 14L33 14L33 13L31 13L31 15L30 15L30 13L29 13L29 10L28 10L28 8L27 8L27 9L26 9L26 8L24 8L24 7L25 7L25 5L24 5L24 4L23 4L23 5L22 5L22 7L21 7L21 6L20 6L20 7L21 7L21 8L19 8L19 9L18 9L18 8L16 8L16 7L17 7L17 5L18 5L18 7L19 7L19 5L20 5L20 4L21 4L21 3L23 3L23 2L21 2L21 3L20 3L20 4L19 4L19 2L18 2L18 3L17 3L17 2L16 2L16 1L15 1L15 0L14 0L14 1L15 1L15 2L14 2L14 3L13 3L13 4L12 4L12 2L13 2L13 1L11 1L11 2L10 2L10 0ZM18 0L18 1L24 1L24 2L25 2L25 1L24 1L24 0ZM10 3L10 4L11 4L11 3ZM14 3L14 4L15 4L15 5L17 5L17 4L15 4L15 3ZM18 4L18 5L19 5L19 4ZM8 5L8 7L9 7L9 5ZM23 5L23 7L24 7L24 5ZM15 6L15 7L16 7L16 6ZM21 8L21 9L20 9L20 10L19 10L19 11L20 11L20 12L19 12L19 13L13 13L13 12L18 12L18 11L15 11L15 10L18 10L18 9L15 9L15 10L13 10L13 11L12 11L12 13L11 13L11 12L10 12L10 13L11 13L11 14L8 14L8 12L9 12L9 9L8 9L8 10L7 10L7 11L6 11L6 12L5 12L5 11L4 11L4 12L3 12L3 15L4 15L4 16L3 16L3 17L4 17L4 20L3 20L3 21L4 21L4 20L5 20L5 22L7 22L7 23L8 23L8 22L7 22L7 21L6 21L6 20L8 20L8 21L11 21L11 25L10 25L10 24L9 24L9 25L10 25L10 26L13 26L13 27L12 27L12 29L14 29L14 30L17 30L17 32L19 32L19 31L20 31L20 30L21 30L21 29L22 29L22 28L21 28L21 27L20 27L20 26L22 26L22 25L23 25L23 26L24 26L24 25L23 25L23 23L24 23L24 24L27 24L27 22L25 22L25 21L27 21L27 20L28 20L28 19L26 19L26 18L25 18L25 17L28 17L28 18L29 18L29 17L30 17L30 19L29 19L29 20L30 20L30 21L28 21L28 24L30 24L30 23L29 23L29 22L30 22L30 21L31 21L31 20L30 20L30 19L31 19L31 16L30 16L30 15L29 15L29 13L28 13L28 16L26 16L26 14L25 14L25 13L27 13L27 12L28 12L28 11L27 11L27 10L25 10L25 9L24 9L24 10L22 10L22 9L23 9L23 8ZM29 8L29 9L30 9L30 8ZM31 8L31 10L33 10L33 9L32 9L32 8ZM20 10L20 11L21 11L21 12L22 12L22 10ZM25 11L25 12L24 12L24 13L22 13L22 14L21 14L21 13L19 13L19 14L18 14L18 15L19 15L19 14L20 14L20 16L22 16L22 14L24 14L24 15L23 15L23 16L24 16L24 15L25 15L25 14L24 14L24 13L25 13L25 12L26 12L26 11ZM30 11L30 12L31 12L31 11ZM6 12L6 13L7 13L7 12ZM4 13L4 15L5 15L5 13ZM12 13L12 14L13 14L13 15L12 15L12 17L17 17L17 18L14 18L14 20L13 20L13 21L12 21L12 19L13 19L13 18L11 18L11 21L12 21L12 22L13 22L13 23L12 23L12 25L19 25L19 26L18 26L18 28L16 28L16 26L14 26L14 27L15 27L15 28L16 28L16 29L18 29L18 30L20 30L20 29L21 29L21 28L20 28L20 27L19 27L19 26L20 26L20 25L21 25L21 24L22 24L22 23L23 23L23 22L24 22L24 21L25 21L25 20L24 20L24 21L23 21L23 18L24 18L24 17L22 17L22 19L21 19L21 17L19 17L19 16L17 16L17 14L13 14L13 13ZM6 14L6 15L7 15L7 14ZM8 15L8 16L5 16L5 19L7 19L7 18L10 18L10 16L11 16L11 15ZM13 15L13 16L16 16L16 15ZM8 16L8 17L9 17L9 16ZM28 16L28 17L29 17L29 16ZM6 17L6 18L7 18L7 17ZM18 17L18 18L17 18L17 19L16 19L16 20L15 20L15 21L13 21L13 22L16 22L16 23L13 23L13 24L18 24L18 23L17 23L17 22L18 22L18 21L22 21L22 20L21 20L21 19L20 19L20 18L19 18L19 17ZM18 18L18 20L16 20L16 21L18 21L18 20L19 20L19 18ZM8 19L8 20L10 20L10 19ZM1 20L1 21L2 21L2 20ZM19 22L19 24L21 24L21 22ZM25 25L25 28L28 28L28 25ZM29 25L29 28L30 28L30 27L31 27L31 26L30 26L30 25ZM26 26L26 27L27 27L27 26ZM8 28L8 33L9 33L9 28ZM18 28L18 29L20 29L20 28ZM25 29L25 30L28 30L28 31L29 31L29 30L28 30L28 29ZM30 30L30 31L31 31L31 30ZM10 31L10 32L11 32L11 31ZM14 31L14 32L15 32L15 31ZM0 0L0 7L7 7L7 0ZM1 1L1 6L6 6L6 1ZM2 2L2 5L5 5L5 2ZM26 0L26 7L33 7L33 0ZM27 1L27 6L32 6L32 1ZM28 2L28 5L31 5L31 2ZM0 26L0 33L7 33L7 26ZM1 27L1 32L6 32L6 27ZM2 28L2 31L5 31L5 28Z" fill="#000000"/></g></g></svg>
