<?xml version="1.0" encoding="UTF-8"?>
<svg xmlns="http://www.w3.org/2000/svg" version="1.1" width="600" height="600" viewBox="0 0 600 600"><rect x="0" y="0" width="600" height="600" fill="#ffffff"/><g transform="scale(15.385)"><g transform="translate(1,1)"><path fill-rule="evenodd" d="M10 0L10 2L11 2L11 0ZM12 0L12 1L13 1L13 2L12 2L12 4L13 4L13 3L14 3L14 4L15 4L15 5L18 5L18 4L19 4L19 5L20 5L20 7L19 7L19 6L18 6L18 7L19 7L19 8L17 8L17 6L16 6L16 9L12 9L12 7L13 7L13 5L11 5L11 6L10 6L10 4L11 4L11 3L8 3L8 4L9 4L9 5L8 5L8 7L9 7L9 8L6 8L6 9L5 9L5 8L0 8L0 11L1 11L1 13L0 13L0 15L1 15L1 16L0 16L0 17L1 17L1 18L0 18L0 19L2 19L2 18L3 18L3 20L2 20L2 22L3 22L3 23L2 23L2 24L3 24L3 23L4 23L4 22L5 22L5 24L4 24L4 25L3 25L3 26L2 26L2 25L1 25L1 24L0 24L0 29L1 29L1 26L2 26L2 29L3 29L3 26L5 26L5 25L7 25L7 26L6 26L6 27L5 27L5 28L6 28L6 29L8 29L8 31L9 31L9 32L8 32L8 37L11 37L11 35L10 35L10 36L9 36L9 34L11 34L11 33L12 33L12 34L13 34L13 35L12 35L12 37L13 37L13 36L14 36L14 37L15 37L15 36L17 36L17 37L19 37L19 35L18 35L18 34L15 34L15 33L19 33L19 34L20 34L20 35L21 35L21 36L20 36L20 37L21 37L21 36L23 36L23 35L22 35L22 34L24 34L24 35L25 35L25 33L26 33L26 34L27 34L27 33L30 33L30 34L31 34L31 35L32 35L32 34L35 34L35 35L36 35L36 36L33 36L33 37L37 37L37 30L35 30L35 28L34 28L34 27L36 27L36 28L37 28L37 26L36 26L36 25L37 25L37 22L36 22L36 21L37 21L37 18L36 18L36 17L37 17L37 14L36 14L36 13L35 13L35 12L34 12L34 11L35 11L35 9L36 9L36 8L35 8L35 9L34 9L34 8L33 8L33 9L34 9L34 11L33 11L33 12L32 12L32 13L31 13L31 12L27 12L27 11L30 11L30 10L27 10L27 9L26 9L26 8L24 8L24 9L21 9L21 8L22 8L22 7L23 7L23 5L25 5L25 4L26 4L26 7L27 7L27 6L28 6L28 8L29 8L29 9L30 9L30 8L29 8L29 5L27 5L27 4L29 4L29 3L28 3L28 2L29 2L29 1L27 1L27 0L18 0L18 1L22 1L22 2L18 2L18 3L17 3L17 4L16 4L16 2L17 2L17 1L16 1L16 0ZM8 1L8 2L9 2L9 1ZM23 1L23 3L19 3L19 4L20 4L20 5L21 5L21 7L20 7L20 8L19 8L19 9L16 9L16 10L19 10L19 13L17 13L17 12L18 12L18 11L16 11L16 13L17 13L17 14L15 14L15 13L14 13L14 12L15 12L15 11L14 11L14 12L13 12L13 13L12 13L12 11L13 11L13 10L12 10L12 9L11 9L11 8L10 8L10 9L9 9L9 10L10 10L10 9L11 9L11 11L8 11L8 13L6 13L6 12L7 12L7 11L5 11L5 13L6 13L6 14L5 14L5 15L6 15L6 16L5 16L5 17L4 17L4 13L3 13L3 9L2 9L2 13L3 13L3 15L2 15L2 14L1 14L1 15L2 15L2 16L1 16L1 17L4 17L4 19L5 19L5 20L3 20L3 21L5 21L5 22L7 22L7 23L6 23L6 24L7 24L7 25L9 25L9 24L7 24L7 23L8 23L8 20L7 20L7 19L6 19L6 18L7 18L7 17L8 17L8 19L9 19L9 20L10 20L10 21L9 21L9 22L10 22L10 30L9 30L9 31L10 31L10 32L9 32L9 33L10 33L10 32L11 32L11 31L10 31L10 30L13 30L13 31L12 31L12 33L15 33L15 32L14 32L14 31L15 31L15 30L17 30L17 31L16 31L16 32L18 32L18 30L19 30L19 31L20 31L20 32L19 32L19 33L21 33L21 34L22 34L22 33L25 33L25 32L26 32L26 33L27 33L27 32L28 32L28 29L27 29L27 28L28 28L28 27L29 27L29 28L30 28L30 27L29 27L29 26L28 26L28 25L29 25L29 24L28 24L28 25L27 25L27 24L26 24L26 23L27 23L27 22L28 22L28 21L29 21L29 20L28 20L28 19L29 19L29 18L31 18L31 17L29 17L29 18L28 18L28 17L27 17L27 16L26 16L26 15L27 15L27 14L28 14L28 15L29 15L29 16L30 16L30 15L29 15L29 14L28 14L28 13L27 13L27 12L26 12L26 10L25 10L25 9L24 9L24 10L23 10L23 11L22 11L22 10L21 10L21 9L20 9L20 8L21 8L21 7L22 7L22 5L21 5L21 4L23 4L23 3L24 3L24 4L25 4L25 3L26 3L26 2L25 2L25 1ZM14 2L14 3L15 3L15 2ZM24 2L24 3L25 3L25 2ZM9 6L9 7L10 7L10 6ZM11 6L11 7L12 7L12 6ZM14 6L14 8L15 8L15 6ZM24 6L24 7L25 7L25 6ZM31 8L31 9L32 9L32 8ZM4 9L4 10L5 10L5 9ZM6 9L6 10L7 10L7 9ZM19 9L19 10L20 10L20 9ZM24 10L24 11L23 11L23 12L24 12L24 11L25 11L25 10ZM31 10L31 11L32 11L32 10ZM36 10L36 11L37 11L37 10ZM21 11L21 12L20 12L20 13L19 13L19 14L18 14L18 16L17 16L17 15L16 15L16 17L12 17L12 15L13 15L13 14L11 14L11 13L10 13L10 12L9 12L9 13L8 13L8 14L6 14L6 15L7 15L7 16L6 16L6 17L7 17L7 16L8 16L8 15L10 15L10 14L11 14L11 17L12 17L12 18L13 18L13 19L12 19L12 21L13 21L13 20L14 20L14 21L15 21L15 22L17 22L17 23L16 23L16 24L17 24L17 26L16 26L16 25L12 25L12 23L13 23L13 22L11 22L11 25L12 25L12 26L13 26L13 27L12 27L12 29L13 29L13 28L14 28L14 29L19 29L19 30L20 30L20 29L21 29L21 28L23 28L23 27L22 27L22 25L23 25L23 26L25 26L25 27L24 27L24 28L25 28L25 29L22 29L22 30L21 30L21 32L25 32L25 29L26 29L26 30L27 30L27 29L26 29L26 28L27 28L27 27L28 27L28 26L27 26L27 25L26 25L26 24L25 24L25 25L23 25L23 24L24 24L24 23L26 23L26 22L27 22L27 21L26 21L26 20L27 20L27 19L28 19L28 18L27 18L27 17L26 17L26 16L24 16L24 15L26 15L26 14L27 14L27 13L26 13L26 12L25 12L25 13L21 13L21 12L22 12L22 11ZM9 13L9 14L10 14L10 13ZM20 13L20 14L19 14L19 15L22 15L22 14L21 14L21 13ZM25 13L25 14L26 14L26 13ZM30 13L30 14L31 14L31 16L35 16L35 17L36 17L36 14L35 14L35 15L34 15L34 13L32 13L32 14L31 14L31 13ZM23 14L23 15L24 15L24 14ZM32 14L32 15L33 15L33 14ZM14 15L14 16L15 16L15 15ZM9 16L9 18L10 18L10 16ZM19 16L19 17L16 17L16 18L19 18L19 21L17 21L17 20L18 20L18 19L16 19L16 21L17 21L17 22L18 22L18 23L17 23L17 24L18 24L18 23L19 23L19 25L22 25L22 24L23 24L23 23L24 23L24 22L23 22L23 21L25 21L25 22L26 22L26 21L25 21L25 20L26 20L26 19L27 19L27 18L25 18L25 17L24 17L24 16L23 16L23 17L22 17L22 16L21 16L21 17L20 17L20 16ZM19 17L19 18L20 18L20 19L21 19L21 20L22 20L22 21L19 21L19 22L20 22L20 24L22 24L22 23L23 23L23 22L22 22L22 21L23 21L23 20L24 20L24 19L23 19L23 18L24 18L24 17L23 17L23 18L22 18L22 17L21 17L21 18L20 18L20 17ZM32 17L32 18L34 18L34 19L33 19L33 20L36 20L36 19L35 19L35 18L34 18L34 17ZM21 18L21 19L22 19L22 20L23 20L23 19L22 19L22 18ZM14 19L14 20L15 20L15 19ZM6 20L6 21L7 21L7 20ZM31 20L31 21L30 21L30 22L29 22L29 23L30 23L30 24L33 24L33 25L32 25L32 26L33 26L33 27L31 27L31 28L33 28L33 27L34 27L34 26L35 26L35 25L34 25L34 24L36 24L36 23L35 23L35 22L34 22L34 21L32 21L32 20ZM0 21L0 23L1 23L1 21ZM31 21L31 22L30 22L30 23L31 23L31 22L32 22L32 21ZM14 23L14 24L15 24L15 23ZM25 25L25 26L26 26L26 27L25 27L25 28L26 28L26 27L27 27L27 26L26 26L26 25ZM30 25L30 26L31 26L31 25ZM33 25L33 26L34 26L34 25ZM17 26L17 27L16 27L16 28L19 28L19 29L20 29L20 27L21 27L21 26ZM6 27L6 28L9 28L9 27ZM14 27L14 28L15 28L15 27ZM29 29L29 32L32 32L32 29ZM33 29L33 32L35 32L35 33L36 33L36 31L35 31L35 30L34 30L34 29ZM22 30L22 31L24 31L24 30ZM30 30L30 31L31 31L31 30ZM26 31L26 32L27 32L27 31ZM14 35L14 36L15 36L15 35ZM17 35L17 36L18 36L18 35ZM26 35L26 36L24 36L24 37L27 37L27 36L29 36L29 37L30 37L30 35ZM31 36L31 37L32 37L32 36ZM0 0L0 7L7 7L7 0ZM1 1L1 6L6 6L6 1ZM2 2L2 5L5 5L5 2ZM30 0L30 7L37 7L37 0ZM31 1L31 6L36 6L36 1ZM32 2L32 5L35 5L35 2ZM0 30L0 37L7 37L7 30ZM1 31L1 36L6 36L6 31ZM2 32L2 35L5 35L5 32Z" fill="#000000"/></g></g></svg>
