<?xml version="1.0" encoding="UTF-8"?>
<svg xmlns="http://www.w3.org/2000/svg" version="1.1" width="600" height="600" viewBox="0 0 600 600"><rect x="0" y="0" width="600" height="600" fill="#ffffff"/><g transform="scale(17.143)"><g transform="translate(1,1)"><path fill-rule="evenodd" d="M9 0L9 1L8 1L8 2L9 2L9 3L8 3L8 4L10 4L10 7L11 7L11 4L12 4L12 5L13 5L13 6L12 6L12 9L14 9L14 10L15 10L15 11L14 11L14 12L13 12L13 13L12 13L12 11L13 11L13 10L11 10L11 11L10 11L10 9L11 9L11 8L6 8L6 9L5 9L5 8L0 8L0 10L1 10L1 11L0 11L0 12L3 12L3 13L4 13L4 15L5 15L5 13L4 13L4 12L5 12L5 11L4 11L4 12L3 12L3 10L6 10L6 11L7 11L7 10L8 10L8 11L9 11L9 12L6 12L6 13L10 13L10 14L9 14L9 15L10 15L10 16L11 16L11 13L12 13L12 14L13 14L13 13L18 13L18 14L20 14L20 15L19 15L19 16L15 16L15 15L16 15L16 14L14 14L14 16L13 16L13 15L12 15L12 17L13 17L13 18L11 18L11 21L12 21L12 22L13 22L13 21L16 21L16 22L14 22L14 24L13 24L13 23L12 23L12 25L17 25L17 26L18 26L18 27L19 27L19 28L20 28L20 27L19 27L19 26L20 26L20 25L21 25L21 24L22 24L22 23L23 23L23 25L22 25L22 26L21 26L21 28L22 28L22 29L18 29L18 28L16 28L16 26L15 26L15 27L14 27L14 26L11 26L11 25L10 25L10 24L11 24L11 23L9 23L9 22L8 22L8 21L10 21L10 18L9 18L9 17L8 17L8 15L7 15L7 14L6 14L6 15L7 15L7 16L6 16L6 17L5 17L5 16L3 16L3 15L2 15L2 13L1 13L1 14L0 14L0 15L1 15L1 18L0 18L0 19L1 19L1 20L0 20L0 25L1 25L1 20L3 20L3 21L2 21L2 24L3 24L3 25L4 25L4 24L5 24L5 23L7 23L7 24L6 24L6 25L7 25L7 24L8 24L8 23L9 23L9 25L8 25L8 27L10 27L10 28L8 28L8 33L10 33L10 31L11 31L11 29L12 29L12 30L13 30L13 31L12 31L12 33L13 33L13 32L14 32L14 33L21 33L21 32L24 32L24 33L25 33L25 32L24 32L24 31L27 31L27 32L28 32L28 33L29 33L29 31L30 31L30 32L31 32L31 33L32 33L32 32L31 32L31 31L32 31L32 30L31 30L31 29L30 29L30 28L31 28L31 27L32 27L32 28L33 28L33 27L32 27L32 26L33 26L33 24L32 24L32 26L31 26L31 25L30 25L30 24L31 24L31 23L32 23L32 22L33 22L33 21L32 21L32 20L31 20L31 19L32 19L32 18L33 18L33 17L32 17L32 16L31 16L31 15L32 15L32 14L33 14L33 13L31 13L31 15L30 15L30 13L29 13L29 10L28 10L28 8L27 8L27 9L26 9L26 8L24 8L24 7L25 7L25 5L24 5L24 4L23 4L23 5L22 5L22 7L21 7L21 5L20 5L20 4L21 4L21 3L23 3L23 2L19 2L19 1L20 1L20 0L19 0L19 1L17 1L17 2L16 2L16 1L15 1L15 0L14 0L14 1L11 1L11 2L10 2L10 0ZM21 0L21 1L24 1L24 2L25 2L25 1L24 1L24 0ZM14 1L14 2L12 2L12 4L13 4L13 5L14 5L14 4L15 4L15 5L16 5L16 6L15 6L15 7L16 7L16 6L17 6L17 8L16 8L16 9L15 9L15 8L14 8L14 6L13 6L13 8L14 8L14 9L15 9L15 10L16 10L16 9L17 9L17 8L19 8L19 9L18 9L18 10L17 10L17 11L16 11L16 12L18 12L18 13L19 13L19 12L21 12L21 13L20 13L20 14L21 14L21 15L20 15L20 16L19 16L19 17L15 17L15 16L14 16L14 17L15 17L15 18L13 18L13 19L12 19L12 21L13 21L13 20L15 20L15 18L18 18L18 19L17 19L17 20L16 20L16 21L17 21L17 22L16 22L16 23L17 23L17 24L18 24L18 22L19 22L19 23L20 23L20 22L21 22L21 21L22 21L22 20L21 20L21 19L22 19L22 17L24 17L24 18L23 18L23 21L24 21L24 22L23 22L23 23L24 23L24 24L27 24L27 22L25 22L25 21L27 21L27 20L28 20L28 19L26 19L26 18L25 18L25 17L28 17L28 18L29 18L29 17L30 17L30 19L29 19L29 20L30 20L30 21L28 21L28 24L30 24L30 23L29 23L29 22L30 22L30 21L31 21L31 20L30 20L30 19L31 19L31 16L30 16L30 15L29 15L29 13L28 13L28 16L26 16L26 14L25 14L25 13L27 13L27 12L28 12L28 11L27 11L27 10L25 10L25 9L24 9L24 10L21 10L21 9L23 9L23 8L21 8L21 9L20 9L20 5L19 5L19 4L20 4L20 3L19 3L19 4L15 4L15 1ZM17 2L17 3L18 3L18 2ZM10 3L10 4L11 4L11 3ZM13 3L13 4L14 4L14 3ZM8 5L8 7L9 7L9 5ZM18 5L18 7L19 7L19 5ZM23 5L23 7L24 7L24 5ZM29 8L29 9L30 9L30 8ZM31 8L31 10L33 10L33 9L32 9L32 8ZM2 9L2 10L3 10L3 9ZM6 9L6 10L7 10L7 9ZM8 9L8 10L9 10L9 9ZM19 9L19 10L18 10L18 11L19 11L19 10L20 10L20 9ZM21 11L21 12L23 12L23 11ZM25 11L25 12L24 12L24 13L21 13L21 14L22 14L22 15L21 15L21 16L20 16L20 17L19 17L19 18L20 18L20 19L21 19L21 18L20 18L20 17L21 17L21 16L24 16L24 15L25 15L25 14L24 14L24 13L25 13L25 12L26 12L26 11ZM30 11L30 12L31 12L31 11ZM10 12L10 13L11 13L11 12ZM23 14L23 15L24 15L24 14ZM2 16L2 17L3 17L3 16ZM28 16L28 17L29 17L29 16ZM4 17L4 18L5 18L5 17ZM6 17L6 18L7 18L7 17ZM1 18L1 19L2 19L2 18ZM8 18L8 19L9 19L9 18ZM3 19L3 20L7 20L7 19ZM18 19L18 20L17 20L17 21L19 21L19 22L20 22L20 21L21 21L21 20L20 20L20 21L19 21L19 19ZM24 20L24 21L25 21L25 20ZM4 21L4 22L5 22L5 21ZM6 21L6 22L7 22L7 23L8 23L8 22L7 22L7 21ZM19 24L19 25L18 25L18 26L19 26L19 25L20 25L20 24ZM23 25L23 26L24 26L24 25ZM25 25L25 28L28 28L28 25ZM29 25L29 28L30 28L30 27L31 27L31 26L30 26L30 25ZM10 26L10 27L11 27L11 26ZM26 26L26 27L27 27L27 26ZM12 27L12 29L14 29L14 30L17 30L17 31L16 31L16 32L18 32L18 31L19 31L19 32L21 32L21 31L20 31L20 30L18 30L18 29L16 29L16 28L14 28L14 27ZM23 27L23 29L22 29L22 30L23 30L23 31L24 31L24 27ZM25 29L25 30L28 30L28 31L29 31L29 30L28 30L28 29ZM30 30L30 31L31 31L31 30ZM14 31L14 32L15 32L15 31ZM0 0L0 7L7 7L7 0ZM1 1L1 6L6 6L6 1ZM2 2L2 5L5 5L5 2ZM26 0L26 7L33 7L33 0ZM27 1L27 6L32 6L32 1ZM28 2L28 5L31 5L31 2ZM0 26L0 33L7 33L7 26ZM1 27L1 32L6 32L6 27ZM2 28L2 31L5 31L5 28Z" fill="#000000"/></g></g></svg>
