<?xml version="1.0" encoding="UTF-8"?>
<svg xmlns="http://www.w3.org/2000/svg" version="1.1" width="600" height="600" viewBox="0 0 600 600"><rect x="0" y="0" width="600" height="600" fill="#ffffff"/><g transform="scale(15.385)"><g transform="translate(1,1)"><path fill-rule="evenodd" d="M9 0L9 1L8 1L8 2L9 2L9 3L8 3L8 4L10 4L10 7L11 7L11 4L12 4L12 5L13 5L13 6L12 6L12 9L13 9L13 8L14 8L14 9L15 9L15 10L17 10L17 9L19 9L19 10L18 10L18 12L17 12L17 11L16 11L16 13L12 13L12 11L13 11L13 10L11 10L11 13L12 13L12 14L13 14L13 15L12 15L12 17L13 17L13 16L14 16L14 17L15 17L15 18L17 18L17 19L16 19L16 21L12 21L12 19L13 19L13 18L11 18L11 19L9 19L9 18L10 18L10 17L11 17L11 16L10 16L10 15L9 15L9 14L8 14L8 11L9 11L9 10L8 10L8 9L11 9L11 8L6 8L6 9L7 9L7 10L4 10L4 9L5 9L5 8L0 8L0 10L1 10L1 9L2 9L2 11L0 11L0 14L1 14L1 13L2 13L2 11L3 11L3 10L4 10L4 11L7 11L7 12L5 12L5 13L7 13L7 14L4 14L4 15L0 15L0 17L1 17L1 18L2 18L2 19L3 19L3 20L1 20L1 19L0 19L0 22L2 22L2 21L5 21L5 20L6 20L6 21L7 21L7 22L4 22L4 23L3 23L3 24L2 24L2 29L3 29L3 24L4 24L4 29L5 29L5 28L6 28L6 29L7 29L7 28L9 28L9 27L8 27L8 26L10 26L10 27L11 27L11 28L10 28L10 30L9 30L9 29L8 29L8 31L11 31L11 29L12 29L12 30L13 30L13 31L12 31L12 33L13 33L13 32L14 32L14 33L17 33L17 34L15 34L15 35L14 35L14 36L15 36L15 37L19 37L19 36L20 36L20 37L21 37L21 36L24 36L24 37L27 37L27 36L31 36L31 37L37 37L37 33L36 33L36 31L37 31L37 30L35 30L35 28L34 28L34 27L36 27L36 28L37 28L37 26L36 26L36 25L37 25L37 22L36 22L36 21L37 21L37 18L36 18L36 17L37 17L37 14L36 14L36 13L35 13L35 12L34 12L34 11L35 11L35 9L36 9L36 8L35 8L35 9L34 9L34 8L33 8L33 9L34 9L34 11L32 11L32 12L31 12L31 10L30 10L30 8L27 8L27 6L28 6L28 7L29 7L29 6L28 6L28 5L27 5L27 4L26 4L26 3L25 3L25 4L22 4L22 5L21 5L21 4L19 4L19 3L17 3L17 2L16 2L16 4L12 4L12 2L13 2L13 1L11 1L11 2L10 2L10 0ZM15 0L15 1L18 1L18 0ZM19 0L19 1L20 1L20 0ZM21 0L21 1L25 1L25 0ZM26 0L26 2L28 2L28 4L29 4L29 0L28 0L28 1L27 1L27 0ZM14 2L14 3L15 3L15 2ZM20 2L20 3L24 3L24 2ZM10 3L10 4L11 4L11 3ZM16 4L16 5L19 5L19 7L20 7L20 6L21 6L21 7L22 7L22 8L19 8L19 9L20 9L20 10L19 10L19 13L16 13L16 14L19 14L19 17L17 17L17 16L18 16L18 15L16 15L16 17L17 17L17 18L18 18L18 19L17 19L17 20L18 20L18 19L21 19L21 17L22 17L22 18L23 18L23 19L22 19L22 20L19 20L19 21L22 21L22 22L17 22L17 21L16 21L16 22L17 22L17 23L16 23L16 25L17 25L17 26L15 26L15 25L14 25L14 24L15 24L15 23L14 23L14 24L13 24L13 25L12 25L12 23L13 23L13 22L12 22L12 21L11 21L11 23L10 23L10 22L9 22L9 21L8 21L8 20L9 20L9 19L6 19L6 20L7 20L7 21L8 21L8 22L7 22L7 23L5 23L5 25L6 25L6 26L5 26L5 27L6 27L6 28L7 28L7 27L6 27L6 26L7 26L7 25L6 25L6 24L7 24L7 23L8 23L8 25L9 25L9 24L11 24L11 25L10 25L10 26L13 26L13 27L12 27L12 29L16 29L16 31L14 31L14 32L16 32L16 31L17 31L17 32L18 32L18 31L20 31L20 32L19 32L19 33L22 33L22 34L23 34L23 35L24 35L24 34L26 34L26 35L25 35L25 36L26 36L26 35L29 35L29 33L27 33L27 32L28 32L28 30L27 30L27 29L28 29L28 27L29 27L29 26L31 26L31 28L33 28L33 27L34 27L34 26L35 26L35 25L34 25L34 24L36 24L36 23L34 23L34 24L33 24L33 25L32 25L32 24L31 24L31 23L32 23L32 22L33 22L33 21L34 21L34 22L35 22L35 21L34 21L34 20L36 20L36 19L35 19L35 17L36 17L36 14L35 14L35 15L34 15L34 13L30 13L30 10L29 10L29 9L27 9L27 8L26 8L26 5L25 5L25 7L24 7L24 5L22 5L22 6L21 6L21 5L19 5L19 4ZM8 5L8 7L9 7L9 5ZM13 6L13 7L14 7L14 8L15 8L15 7L16 7L16 9L17 9L17 8L18 8L18 6L17 6L17 7L16 7L16 6L15 6L15 7L14 7L14 6ZM22 6L22 7L23 7L23 6ZM25 8L25 9L21 9L21 10L20 10L20 11L21 11L21 12L23 12L23 10L24 10L24 11L25 11L25 9L26 9L26 11L29 11L29 10L27 10L27 9L26 9L26 8ZM31 8L31 9L32 9L32 8ZM21 10L21 11L22 11L22 10ZM36 10L36 11L37 11L37 10ZM14 11L14 12L15 12L15 11ZM24 12L24 13L19 13L19 14L20 14L20 15L21 15L21 16L20 16L20 17L19 17L19 18L20 18L20 17L21 17L21 16L22 16L22 17L23 17L23 18L25 18L25 17L26 17L26 18L27 18L27 19L26 19L26 20L25 20L25 19L23 19L23 20L22 20L22 21L23 21L23 22L24 22L24 23L19 23L19 24L17 24L17 25L19 25L19 26L18 26L18 28L17 28L17 27L16 27L16 28L17 28L17 29L19 29L19 30L20 30L20 29L21 29L21 30L22 30L22 31L21 31L21 32L22 32L22 33L23 33L23 34L24 34L24 33L26 33L26 34L27 34L27 33L26 33L26 32L27 32L27 30L26 30L26 32L24 32L24 33L23 33L23 32L22 32L22 31L23 31L23 30L24 30L24 31L25 31L25 30L24 30L24 29L27 29L27 28L24 28L24 29L21 29L21 28L22 28L22 27L23 27L23 26L25 26L25 25L28 25L28 26L26 26L26 27L28 27L28 26L29 26L29 25L31 25L31 24L30 24L30 22L29 22L29 20L27 20L27 19L29 19L29 18L30 18L30 21L33 21L33 20L34 20L34 19L33 19L33 20L31 20L31 19L32 19L32 18L30 18L30 17L33 17L33 18L34 18L34 17L35 17L35 16L34 16L34 15L33 15L33 14L32 14L32 16L31 16L31 14L30 14L30 13L29 13L29 12ZM24 13L24 14L23 14L23 15L22 15L22 14L21 14L21 15L22 15L22 16L23 16L23 17L25 17L25 16L26 16L26 17L27 17L27 18L29 18L29 17L30 17L30 14L29 14L29 13ZM7 14L7 15L4 15L4 16L1 16L1 17L2 17L2 18L4 18L4 20L5 20L5 18L7 18L7 17L5 17L5 16L7 16L7 15L8 15L8 14ZM24 14L24 15L23 15L23 16L24 16L24 15L26 15L26 16L27 16L27 15L28 15L28 16L29 16L29 14L27 14L27 15L26 15L26 14ZM14 15L14 16L15 16L15 15ZM8 16L8 17L9 17L9 16ZM33 16L33 17L34 17L34 16ZM4 17L4 18L5 18L5 17ZM14 19L14 20L15 20L15 19ZM23 20L23 21L24 21L24 22L25 22L25 23L24 23L24 24L23 24L23 25L22 25L22 24L19 24L19 25L22 25L22 26L23 26L23 25L25 25L25 24L26 24L26 23L27 23L27 22L28 22L28 23L29 23L29 22L28 22L28 21L24 21L24 20ZM8 22L8 23L9 23L9 22ZM0 23L0 29L1 29L1 23ZM19 26L19 29L20 29L20 28L21 28L21 27L20 27L20 26ZM14 27L14 28L15 28L15 27ZM29 29L29 32L32 32L32 29ZM33 29L33 30L34 30L34 29ZM17 30L17 31L18 31L18 30ZM30 30L30 31L31 31L31 30ZM34 31L34 32L33 32L33 33L34 33L34 36L36 36L36 35L35 35L35 34L36 34L36 33L34 33L34 32L35 32L35 31ZM8 32L8 37L12 37L12 35L13 35L13 34L10 34L10 35L9 35L9 32ZM10 32L10 33L11 33L11 32ZM17 34L17 35L16 35L16 36L19 36L19 35L20 35L20 36L21 36L21 35L20 35L20 34ZM30 34L30 35L31 35L31 36L32 36L32 35L33 35L33 34ZM10 35L10 36L11 36L11 35ZM0 0L0 7L7 7L7 0ZM1 1L1 6L6 6L6 1ZM2 2L2 5L5 5L5 2ZM30 0L30 7L37 7L37 0ZM31 1L31 6L36 6L36 1ZM32 2L32 5L35 5L35 2ZM0 30L0 37L7 37L7 30ZM1 31L1 36L6 36L6 31ZM2 32L2 35L5 35L5 32Z" fill="#000000"/></g></g></svg>
