<?xml version="1.0" encoding="UTF-8"?>
<svg xmlns="http://www.w3.org/2000/svg" version="1.1" width="600" height="600" viewBox="0 0 600 600"><rect x="0" y="0" width="600" height="600" fill="#ffffff"/><g transform="scale(17.143)"><g transform="translate(1,1)"><path fill-rule="evenodd" d="M9 0L9 1L8 1L8 3L9 3L9 4L8 4L8 8L6 8L6 9L5 9L5 10L4 10L4 8L3 8L3 9L2 9L2 8L0 8L0 10L1 10L1 12L2 12L2 13L1 13L1 14L0 14L0 16L1 16L1 19L0 19L0 20L1 20L1 21L2 21L2 22L0 22L0 23L1 23L1 24L0 24L0 25L1 25L1 24L3 24L3 23L4 23L4 25L7 25L7 24L8 24L8 27L9 27L9 29L8 29L8 30L10 30L10 29L11 29L11 28L12 28L12 30L11 30L11 31L8 31L8 33L9 33L9 32L11 32L11 31L12 31L12 33L13 33L13 31L14 31L14 32L15 32L15 33L16 33L16 32L18 32L18 33L19 33L19 32L20 32L20 33L23 33L23 32L24 32L24 33L25 33L25 32L26 32L26 30L27 30L27 31L28 31L28 32L27 32L27 33L28 33L28 32L29 32L29 33L30 33L30 30L29 30L29 29L30 29L30 28L29 28L29 24L30 24L30 23L31 23L31 24L33 24L33 21L32 21L32 20L31 20L31 21L30 21L30 20L29 20L29 19L30 19L30 18L31 18L31 19L33 19L33 18L31 18L31 17L29 17L29 16L30 16L30 15L29 15L29 16L28 16L28 14L29 14L29 13L28 13L28 11L27 11L27 12L25 12L25 11L24 11L24 14L23 14L23 11L22 11L22 10L23 10L23 9L24 9L24 10L27 10L27 9L29 9L29 10L31 10L31 12L32 12L32 13L30 13L30 14L31 14L31 16L32 16L32 17L33 17L33 16L32 16L32 14L33 14L33 9L32 9L32 8L30 8L30 9L29 9L29 8L26 8L26 9L24 9L24 8L25 8L25 6L24 6L24 8L23 8L23 5L24 5L24 2L25 2L25 1L24 1L24 0L21 0L21 1L23 1L23 2L22 2L22 5L21 5L21 3L20 3L20 2L19 2L19 3L18 3L18 2L17 2L17 3L14 3L14 4L13 4L13 5L15 5L15 6L14 6L14 7L15 7L15 6L16 6L16 7L17 7L17 8L20 8L20 9L21 9L21 10L18 10L18 9L17 9L17 10L16 10L16 11L15 11L15 10L14 10L14 9L15 9L15 8L13 8L13 6L12 6L12 5L11 5L11 6L10 6L10 5L9 5L9 4L12 4L12 3L13 3L13 1L14 1L14 0L12 0L12 1L11 1L11 2L9 2L9 1L10 1L10 0ZM15 0L15 2L16 2L16 1L17 1L17 0ZM18 0L18 1L20 1L20 0ZM17 3L17 4L16 4L16 6L17 6L17 7L18 7L18 6L19 6L19 7L20 7L20 6L19 6L19 5L20 5L20 4L19 4L19 5L18 5L18 3ZM17 5L17 6L18 6L18 5ZM9 6L9 7L10 7L10 8L8 8L8 9L9 9L9 10L10 10L10 8L11 8L11 9L12 9L12 10L11 10L11 11L9 11L9 12L8 12L8 10L7 10L7 9L6 9L6 10L7 10L7 11L6 11L6 12L7 12L7 13L5 13L5 11L3 11L3 10L2 10L2 9L1 9L1 10L2 10L2 11L3 11L3 12L4 12L4 14L3 14L3 13L2 13L2 14L1 14L1 16L2 16L2 17L4 17L4 19L5 19L5 20L3 20L3 18L2 18L2 19L1 19L1 20L2 20L2 21L5 21L5 20L7 20L7 19L9 19L9 18L11 18L11 19L10 19L10 20L9 20L9 22L11 22L11 21L10 21L10 20L11 20L11 19L12 19L12 20L14 20L14 21L15 21L15 24L14 24L14 25L13 25L13 24L12 24L12 28L13 28L13 29L14 29L14 31L17 31L17 30L18 30L18 29L14 29L14 28L13 28L13 27L14 27L14 26L15 26L15 27L16 27L16 28L17 28L17 27L18 27L18 26L19 26L19 28L20 28L20 29L19 29L19 31L18 31L18 32L19 32L19 31L20 31L20 32L21 32L21 31L22 31L22 32L23 32L23 30L22 30L22 29L24 29L24 30L26 30L26 29L24 29L24 24L25 24L25 23L26 23L26 24L27 24L27 22L28 22L28 23L30 23L30 21L29 21L29 20L28 20L28 18L29 18L29 17L26 17L26 16L25 16L25 17L24 17L24 18L23 18L23 19L24 19L24 18L25 18L25 19L26 19L26 20L24 20L24 21L23 21L23 23L24 23L24 24L22 24L22 26L21 26L21 24L19 24L19 23L18 23L18 22L17 22L17 21L18 21L18 20L17 20L17 19L18 19L18 17L16 17L16 16L17 16L17 15L18 15L18 14L19 14L19 15L21 15L21 14L22 14L22 15L23 15L23 16L22 16L22 17L23 17L23 16L24 16L24 15L27 15L27 14L28 14L28 13L27 13L27 14L24 14L24 15L23 15L23 14L22 14L22 13L21 13L21 14L19 14L19 13L20 13L20 11L19 11L19 12L18 12L18 10L17 10L17 11L16 11L16 13L15 13L15 15L14 15L14 16L12 16L12 14L11 14L11 16L10 16L10 17L9 17L9 15L10 15L10 14L9 14L9 13L12 13L12 12L13 12L13 11L14 11L14 12L15 12L15 11L14 11L14 10L13 10L13 8L12 8L12 6L11 6L11 7L10 7L10 6ZM21 6L21 7L22 7L22 6ZM22 8L22 9L23 9L23 8ZM31 9L31 10L32 10L32 9ZM17 12L17 13L16 13L16 14L18 14L18 12ZM7 13L7 14L6 14L6 15L5 15L5 14L4 14L4 15L3 15L3 16L6 16L6 17L8 17L8 16L6 16L6 15L8 15L8 13ZM13 13L13 14L14 14L14 13ZM11 16L11 17L12 17L12 16ZM14 16L14 17L13 17L13 18L14 18L14 19L15 19L15 20L16 20L16 19L17 19L17 18L16 18L16 19L15 19L15 18L14 18L14 17L15 17L15 16ZM20 16L20 17L19 17L19 19L20 19L20 17L21 17L21 16ZM25 17L25 18L26 18L26 19L27 19L27 18L26 18L26 17ZM5 18L5 19L7 19L7 18ZM19 20L19 22L20 22L20 23L21 23L21 22L22 22L22 21L20 21L20 20ZM6 21L6 22L7 22L7 23L5 23L5 24L7 24L7 23L8 23L8 24L9 24L9 23L8 23L8 21ZM24 21L24 22L27 22L27 21ZM31 21L31 23L32 23L32 21ZM2 22L2 23L3 23L3 22ZM13 22L13 23L14 23L14 22ZM16 23L16 24L17 24L17 25L16 25L16 27L17 27L17 26L18 26L18 24L17 24L17 23ZM10 24L10 25L9 25L9 27L11 27L11 26L10 26L10 25L11 25L11 24ZM19 25L19 26L20 26L20 28L21 28L21 29L20 29L20 31L21 31L21 29L22 29L22 27L21 27L21 26L20 26L20 25ZM25 25L25 28L28 28L28 25ZM30 25L30 27L32 27L32 28L31 28L31 31L33 31L33 27L32 27L32 26L33 26L33 25L32 25L32 26L31 26L31 25ZM26 26L26 27L27 27L27 26ZM31 32L31 33L32 33L32 32ZM0 0L0 7L7 7L7 0ZM1 1L1 6L6 6L6 1ZM2 2L2 5L5 5L5 2ZM26 0L26 7L33 7L33 0ZM27 1L27 6L32 6L32 1ZM28 2L28 5L31 5L31 2ZM0 26L0 33L7 33L7 26ZM1 27L1 32L6 32L6 27ZM2 28L2 31L5 31L5 28Z" fill="#000000"/></g></g></svg>
