<?xml version="1.0" encoding="UTF-8"?>
<svg xmlns="http://www.w3.org/2000/svg" version="1.1" width="600" height="600" viewBox="0 0 600 600"><rect x="0" y="0" width="600" height="600" fill="#ffffff"/><g transform="scale(17.143)"><g transform="translate(1,1)"><path fill-rule="evenodd" d="M10 0L10 2L11 2L11 0ZM12 0L12 1L13 1L13 0ZM14 0L14 2L15 2L15 3L13 3L13 2L12 2L12 4L18 4L18 5L17 5L17 6L16 6L16 5L15 5L15 6L14 6L14 5L11 5L11 6L10 6L10 4L11 4L11 3L8 3L8 4L9 4L9 5L8 5L8 7L9 7L9 8L6 8L6 9L8 9L8 10L6 10L6 11L5 11L5 10L4 10L4 9L5 9L5 8L0 8L0 10L1 10L1 11L0 11L0 12L1 12L1 11L2 11L2 9L3 9L3 12L2 12L2 14L3 14L3 13L7 13L7 14L6 14L6 15L7 15L7 16L5 16L5 19L8 19L8 18L11 18L11 17L12 17L12 18L15 18L15 19L16 19L16 18L15 18L15 17L19 17L19 18L17 18L17 19L19 19L19 20L15 20L15 21L14 21L14 20L13 20L13 19L12 19L12 21L14 21L14 24L15 24L15 25L16 25L16 26L14 26L14 25L12 25L12 23L13 23L13 22L11 22L11 23L10 23L10 21L9 21L9 20L10 20L10 19L9 19L9 20L5 20L5 22L4 22L4 18L3 18L3 17L4 17L4 15L3 15L3 16L2 16L2 15L1 15L1 17L0 17L0 19L1 19L1 20L2 20L2 19L1 19L1 18L3 18L3 22L2 22L2 23L3 23L3 25L4 25L4 23L5 23L5 22L6 22L6 23L7 23L7 24L5 24L5 25L7 25L7 24L8 24L8 27L10 27L10 25L12 25L12 26L13 26L13 27L12 27L12 29L13 29L13 28L14 28L14 29L16 29L16 30L15 30L15 31L14 31L14 32L15 32L15 33L19 33L19 32L20 32L20 33L21 33L21 32L24 32L24 33L25 33L25 32L24 32L24 31L27 31L27 32L28 32L28 33L29 33L29 31L30 31L30 32L31 32L31 33L32 33L32 32L31 32L31 31L32 31L32 30L31 30L31 29L30 29L30 28L32 28L32 26L33 26L33 24L32 24L32 26L31 26L31 25L30 25L30 24L31 24L31 23L32 23L32 22L33 22L33 21L32 21L32 20L31 20L31 19L32 19L32 18L33 18L33 17L32 17L32 16L31 16L31 15L32 15L32 14L33 14L33 13L31 13L31 15L30 15L30 13L29 13L29 10L28 10L28 8L27 8L27 9L26 9L26 8L24 8L24 7L25 7L25 5L24 5L24 4L23 4L23 5L22 5L22 7L21 7L21 6L20 6L20 7L19 7L19 5L20 5L20 4L21 4L21 3L23 3L23 2L18 2L18 1L24 1L24 2L25 2L25 1L24 1L24 0L18 0L18 1L15 1L15 0ZM8 1L8 2L9 2L9 1ZM17 2L17 3L18 3L18 4L20 4L20 3L18 3L18 2ZM23 5L23 7L24 7L24 5ZM9 6L9 7L10 7L10 6ZM11 6L11 7L12 7L12 9L11 9L11 8L10 8L10 9L9 9L9 10L8 10L8 11L9 11L9 12L8 12L8 13L9 13L9 12L11 12L11 13L10 13L10 14L8 14L8 15L11 15L11 14L13 14L13 15L12 15L12 17L13 17L13 16L14 16L14 17L15 17L15 16L14 16L14 15L15 15L15 14L16 14L16 13L17 13L17 15L16 15L16 16L19 16L19 17L20 17L20 18L19 18L19 19L21 19L21 17L22 17L22 16L21 16L21 15L22 15L22 13L24 13L24 14L23 14L23 15L24 15L24 16L23 16L23 17L24 17L24 18L23 18L23 19L22 19L22 20L21 20L21 21L20 21L20 20L19 20L19 21L15 21L15 22L18 22L18 23L17 23L17 24L16 24L16 25L17 25L17 26L16 26L16 27L17 27L17 28L16 28L16 29L17 29L17 30L16 30L16 31L15 31L15 32L16 32L16 31L17 31L17 32L19 32L19 31L20 31L20 32L21 32L21 31L20 31L20 30L21 30L21 29L22 29L22 30L23 30L23 31L24 31L24 27L23 27L23 29L22 29L22 28L21 28L21 29L20 29L20 27L22 27L22 26L21 26L21 25L23 25L23 26L24 26L24 25L23 25L23 24L21 24L21 23L20 23L20 22L22 22L22 21L24 21L24 22L23 22L23 23L24 23L24 24L27 24L27 22L25 22L25 21L27 21L27 20L28 20L28 19L26 19L26 18L25 18L25 17L28 17L28 18L29 18L29 17L30 17L30 19L29 19L29 20L30 20L30 21L28 21L28 24L30 24L30 23L29 23L29 22L30 22L30 21L31 21L31 20L30 20L30 19L31 19L31 16L30 16L30 15L29 15L29 13L28 13L28 16L26 16L26 14L25 14L25 13L27 13L27 12L28 12L28 11L27 11L27 10L25 10L25 9L24 9L24 10L19 10L19 9L23 9L23 8L19 8L19 9L17 9L17 8L18 8L18 6L17 6L17 8L16 8L16 9L13 9L13 8L14 8L14 6L13 6L13 7L12 7L12 6ZM15 6L15 7L16 7L16 6ZM29 8L29 9L30 9L30 8ZM31 8L31 10L33 10L33 9L32 9L32 8ZM10 9L10 11L11 11L11 9ZM12 9L12 10L13 10L13 9ZM16 9L16 10L15 10L15 11L14 11L14 12L13 12L13 11L12 11L12 13L16 13L16 11L17 11L17 9ZM4 11L4 12L5 12L5 11ZM6 11L6 12L7 12L7 11ZM19 11L19 12L20 12L20 13L18 13L18 12L17 12L17 13L18 13L18 14L20 14L20 15L21 15L21 14L20 14L20 13L21 13L21 12L22 12L22 11L21 11L21 12L20 12L20 11ZM25 11L25 12L24 12L24 13L25 13L25 12L26 12L26 11ZM30 11L30 12L31 12L31 11ZM24 14L24 15L25 15L25 14ZM9 16L9 17L10 17L10 16ZM20 16L20 17L21 17L21 16ZM28 16L28 17L29 17L29 16ZM6 17L6 18L7 18L7 17ZM24 20L24 21L25 21L25 20ZM0 21L0 25L1 25L1 21ZM6 21L6 22L7 22L7 23L8 23L8 24L9 24L9 25L10 25L10 23L9 23L9 22L8 22L8 21ZM19 21L19 22L20 22L20 21ZM3 22L3 23L4 23L4 22ZM19 23L19 24L17 24L17 25L19 25L19 26L20 26L20 25L21 25L21 24L20 24L20 23ZM19 24L19 25L20 25L20 24ZM25 25L25 28L28 28L28 25ZM29 25L29 28L30 28L30 27L31 27L31 26L30 26L30 25ZM17 26L17 27L18 27L18 26ZM26 26L26 27L27 27L27 26ZM14 27L14 28L15 28L15 27ZM8 28L8 33L10 33L10 32L11 32L11 33L12 33L12 31L13 31L13 30L10 30L10 28ZM17 28L17 29L19 29L19 30L20 30L20 29L19 29L19 28ZM25 29L25 30L28 30L28 31L29 31L29 30L28 30L28 29ZM9 30L9 32L10 32L10 30ZM30 30L30 31L31 31L31 30ZM0 0L0 7L7 7L7 0ZM1 1L1 6L6 6L6 1ZM2 2L2 5L5 5L5 2ZM26 0L26 7L33 7L33 0ZM27 1L27 6L32 6L32 1ZM28 2L28 5L31 5L31 2ZM0 26L0 33L7 33L7 26ZM1 27L1 32L6 32L6 27ZM2 28L2 31L5 31L5 28Z" fill="#000000"/></g></g></svg>
