<?xml version="1.0" encoding="UTF-8"?>
<svg xmlns="http://www.w3.org/2000/svg" version="1.1" width="600" height="600" viewBox="0 0 600 600"><rect x="0" y="0" width="600" height="600" fill="#ffffff"/><g transform="scale(17.143)"><g transform="translate(1,1)"><path fill-rule="evenodd" d="M9 0L9 1L8 1L8 2L9 2L9 3L8 3L8 4L10 4L10 7L11 7L11 4L12 4L12 5L13 5L13 4L16 4L16 5L14 5L14 8L13 8L13 6L12 6L12 9L15 9L15 8L16 8L16 9L17 9L17 10L18 10L18 12L16 12L16 10L14 10L14 11L15 11L15 12L13 12L13 13L12 13L12 11L13 11L13 10L11 10L11 11L10 11L10 9L11 9L11 8L6 8L6 9L7 9L7 10L4 10L4 9L5 9L5 8L0 8L0 9L1 9L1 10L0 10L0 12L1 12L1 13L0 13L0 14L1 14L1 15L0 15L0 16L1 16L1 17L0 17L0 18L4 18L4 17L5 17L5 16L6 16L6 17L8 17L8 16L6 16L6 15L7 15L7 14L3 14L3 17L2 17L2 13L5 13L5 12L6 12L6 13L8 13L8 15L10 15L10 16L11 16L11 15L10 15L10 14L11 14L11 13L12 13L12 14L13 14L13 13L18 13L18 14L15 14L15 15L14 15L14 16L13 16L13 15L12 15L12 17L17 17L17 18L14 18L14 19L15 19L15 20L16 20L16 21L19 21L19 22L20 22L20 25L18 25L18 24L16 24L16 23L17 23L17 22L15 22L15 21L14 21L14 20L13 20L13 21L12 21L12 19L13 19L13 18L11 18L11 20L10 20L10 21L7 21L7 20L8 20L8 19L10 19L10 17L9 17L9 18L8 18L8 19L7 19L7 18L5 18L5 21L7 21L7 22L6 22L6 23L7 23L7 24L6 24L6 25L7 25L7 24L8 24L8 22L10 22L10 24L9 24L9 25L8 25L8 27L9 27L9 28L8 28L8 33L9 33L9 32L10 32L10 33L11 33L11 31L9 31L9 29L12 29L12 30L13 30L13 31L12 31L12 33L13 33L13 32L14 32L14 33L16 33L16 32L14 32L14 31L16 31L16 30L17 30L17 31L19 31L19 32L20 32L20 33L21 33L21 32L24 32L24 33L25 33L25 32L24 32L24 31L27 31L27 32L28 32L28 33L29 33L29 31L30 31L30 32L31 32L31 33L32 33L32 32L31 32L31 31L32 31L32 30L31 30L31 29L30 29L30 28L31 28L31 27L32 27L32 28L33 28L33 27L32 27L32 26L33 26L33 24L32 24L32 26L31 26L31 25L30 25L30 24L31 24L31 23L32 23L32 22L33 22L33 21L32 21L32 20L31 20L31 19L32 19L32 18L33 18L33 17L32 17L32 16L31 16L31 15L32 15L32 14L33 14L33 13L31 13L31 15L30 15L30 13L29 13L29 10L28 10L28 8L27 8L27 9L26 9L26 8L24 8L24 7L25 7L25 5L24 5L24 4L23 4L23 5L22 5L22 7L21 7L21 4L18 4L18 3L19 3L19 2L18 2L18 3L17 3L17 1L15 1L15 0L14 0L14 1L15 1L15 2L14 2L14 3L13 3L13 4L12 4L12 2L13 2L13 1L11 1L11 2L10 2L10 0ZM18 0L18 1L20 1L20 2L21 2L21 3L23 3L23 2L21 2L21 1L24 1L24 2L25 2L25 1L24 1L24 0ZM10 3L10 4L11 4L11 3ZM16 3L16 4L17 4L17 5L16 5L16 6L15 6L15 7L16 7L16 8L19 8L19 9L18 9L18 10L19 10L19 12L18 12L18 13L24 13L24 14L23 14L23 15L24 15L24 16L21 16L21 15L22 15L22 14L21 14L21 15L20 15L20 14L18 14L18 15L15 15L15 16L18 16L18 15L19 15L19 16L21 16L21 17L20 17L20 18L19 18L19 17L18 17L18 18L17 18L17 19L16 19L16 20L18 20L18 18L19 18L19 19L20 19L20 20L19 20L19 21L20 21L20 22L21 22L21 21L22 21L22 20L21 20L21 19L22 19L22 17L24 17L24 18L23 18L23 21L24 21L24 22L23 22L23 23L22 23L22 24L21 24L21 25L20 25L20 26L18 26L18 25L16 25L16 24L14 24L14 23L15 23L15 22L12 22L12 21L11 21L11 24L10 24L10 26L13 26L13 27L12 27L12 29L14 29L14 30L16 30L16 29L17 29L17 30L18 30L18 29L20 29L20 30L19 30L19 31L20 31L20 32L21 32L21 31L24 31L24 27L23 27L23 28L21 28L21 26L22 26L22 25L23 25L23 26L24 26L24 25L23 25L23 23L24 23L24 24L27 24L27 22L25 22L25 21L27 21L27 20L28 20L28 19L26 19L26 18L25 18L25 17L28 17L28 18L29 18L29 17L30 17L30 19L29 19L29 20L30 20L30 21L28 21L28 24L30 24L30 23L29 23L29 22L30 22L30 21L31 21L31 20L30 20L30 19L31 19L31 16L30 16L30 15L29 15L29 13L28 13L28 16L26 16L26 14L25 14L25 13L27 13L27 12L28 12L28 11L27 11L27 10L25 10L25 9L24 9L24 10L22 10L22 9L23 9L23 8L21 8L21 9L20 9L20 8L19 8L19 7L20 7L20 5L19 5L19 7L18 7L18 4L17 4L17 3ZM8 5L8 7L9 7L9 5ZM23 5L23 7L24 7L24 5ZM16 6L16 7L17 7L17 6ZM29 8L29 9L30 9L30 8ZM31 8L31 10L33 10L33 9L32 9L32 8ZM2 9L2 10L1 10L1 12L3 12L3 11L4 11L4 12L5 12L5 11L4 11L4 10L3 10L3 9ZM8 9L8 10L7 10L7 11L6 11L6 12L7 12L7 11L8 11L8 12L9 12L9 9ZM19 9L19 10L20 10L20 11L21 11L21 12L22 12L22 10L20 10L20 9ZM25 11L25 12L24 12L24 13L25 13L25 12L26 12L26 11ZM30 11L30 12L31 12L31 11ZM10 12L10 13L11 13L11 12ZM24 14L24 15L25 15L25 14ZM28 16L28 17L29 17L29 16ZM20 18L20 19L21 19L21 18ZM0 19L0 20L1 20L1 21L0 21L0 25L1 25L1 21L2 21L2 20L3 20L3 22L2 22L2 23L3 23L3 22L4 22L4 23L5 23L5 22L4 22L4 20L3 20L3 19L2 19L2 20L1 20L1 19ZM6 19L6 20L7 20L7 19ZM20 20L20 21L21 21L21 20ZM24 20L24 21L25 21L25 20ZM12 23L12 25L13 25L13 26L15 26L15 27L16 27L16 26L15 26L15 25L14 25L14 24L13 24L13 23ZM3 24L3 25L5 25L5 24ZM25 25L25 28L28 28L28 25ZM29 25L29 28L30 28L30 27L31 27L31 26L30 26L30 25ZM26 26L26 27L27 27L27 26ZM10 27L10 28L11 28L11 27ZM18 27L18 28L17 28L17 29L18 29L18 28L20 28L20 29L21 29L21 30L20 30L20 31L21 31L21 30L23 30L23 29L21 29L21 28L20 28L20 27ZM15 28L15 29L16 29L16 28ZM25 29L25 30L28 30L28 31L29 31L29 30L28 30L28 29ZM30 30L30 31L31 31L31 30ZM17 32L17 33L18 33L18 32ZM0 0L0 7L7 7L7 0ZM1 1L1 6L6 6L6 1ZM2 2L2 5L5 5L5 2ZM26 0L26 7L33 7L33 0ZM27 1L27 6L32 6L32 1ZM28 2L28 5L31 5L31 2ZM0 26L0 33L7 33L7 26ZM1 27L1 32L6 32L6 27ZM2 28L2 31L5 31L5 28Z" fill="#000000"/></g></g></svg>
