<?xml version="1.0" encoding="UTF-8"?>
<svg xmlns="http://www.w3.org/2000/svg" version="1.1" width="600" height="600" viewBox="0 0 600 600"><rect x="0" y="0" width="600" height="600" fill="#ffffff"/><g transform="scale(17.143)"><g transform="translate(1,1)"><path fill-rule="evenodd" d="M10 0L10 2L11 2L11 0ZM12 0L12 1L13 1L13 0ZM14 0L14 1L15 1L15 2L14 2L14 3L13 3L13 2L12 2L12 4L13 4L13 5L11 5L11 6L10 6L10 4L11 4L11 3L8 3L8 4L9 4L9 5L8 5L8 7L9 7L9 8L6 8L6 9L7 9L7 10L6 10L6 11L8 11L8 9L10 9L10 11L11 11L11 9L12 9L12 10L13 10L13 11L12 11L12 13L18 13L18 15L19 15L19 14L20 14L20 15L21 15L21 16L20 16L20 17L18 17L18 16L16 16L16 14L15 14L15 15L14 15L14 16L13 16L13 17L12 17L12 15L13 15L13 14L8 14L8 15L9 15L9 16L6 16L6 15L7 15L7 14L6 14L6 15L5 15L5 11L4 11L4 10L3 10L3 9L5 9L5 8L0 8L0 10L1 10L1 11L0 11L0 13L2 13L2 12L1 12L1 11L2 11L2 10L3 10L3 11L4 11L4 12L3 12L3 13L4 13L4 15L1 15L1 14L0 14L0 16L2 16L2 17L0 17L0 19L1 19L1 21L0 21L0 25L1 25L1 21L2 21L2 18L4 18L4 17L5 17L5 16L6 16L6 17L7 17L7 18L6 18L6 19L7 19L7 18L8 18L8 17L9 17L9 19L8 19L8 20L6 20L6 21L9 21L9 25L8 25L8 24L5 24L5 23L4 23L4 22L5 22L5 20L4 20L4 21L3 21L3 22L2 22L2 24L3 24L3 25L4 25L4 24L5 24L5 25L8 25L8 27L9 27L9 28L8 28L8 33L9 33L9 31L10 31L10 30L11 30L11 33L13 33L13 32L12 32L12 31L15 31L15 33L19 33L19 32L17 32L17 30L15 30L15 29L14 29L14 28L13 28L13 27L15 27L15 28L16 28L16 29L18 29L18 30L20 30L20 31L21 31L21 32L22 32L22 33L25 33L25 32L26 32L26 31L27 31L27 30L29 30L29 31L30 31L30 32L31 32L31 33L32 33L32 32L31 32L31 31L32 31L32 30L31 30L31 29L30 29L30 28L33 28L33 27L32 27L32 26L33 26L33 24L32 24L32 26L30 26L30 25L29 25L29 24L31 24L31 23L32 23L32 22L33 22L33 21L32 21L32 20L31 20L31 19L32 19L32 18L33 18L33 17L32 17L32 16L31 16L31 15L32 15L32 14L33 14L33 13L31 13L31 15L30 15L30 13L29 13L29 12L28 12L28 10L27 10L27 9L28 9L28 8L27 8L27 9L26 9L26 8L25 8L25 9L26 9L26 10L25 10L25 12L24 12L24 13L23 13L23 14L22 14L22 15L21 15L21 14L20 14L20 13L21 13L21 12L23 12L23 11L21 11L21 10L24 10L24 9L23 9L23 8L24 8L24 7L25 7L25 5L24 5L24 4L25 4L25 3L24 3L24 4L23 4L23 3L22 3L22 2L23 2L23 1L24 1L24 0L23 0L23 1L22 1L22 2L21 2L21 3L20 3L20 2L19 2L19 1L20 1L20 0L19 0L19 1L18 1L18 0L17 0L17 1L15 1L15 0ZM8 1L8 2L9 2L9 1ZM17 1L17 3L16 3L16 4L15 4L15 3L14 3L14 4L15 4L15 5L13 5L13 7L12 7L12 6L11 6L11 7L12 7L12 9L13 9L13 10L14 10L14 11L13 11L13 12L14 12L14 11L15 11L15 12L18 12L18 13L19 13L19 12L21 12L21 11L20 11L20 10L21 10L21 9L22 9L22 8L23 8L23 7L24 7L24 5L23 5L23 7L22 7L22 6L21 6L21 4L22 4L22 3L21 3L21 4L20 4L20 3L19 3L19 2L18 2L18 1ZM17 3L17 4L16 4L16 5L15 5L15 6L14 6L14 7L15 7L15 8L13 8L13 9L19 9L19 10L15 10L15 11L18 11L18 12L19 12L19 10L20 10L20 9L21 9L21 8L22 8L22 7L21 7L21 6L20 6L20 7L21 7L21 8L19 8L19 5L20 5L20 4L18 4L18 3ZM17 4L17 5L16 5L16 6L15 6L15 7L16 7L16 8L18 8L18 6L17 6L17 5L18 5L18 4ZM9 6L9 7L10 7L10 6ZM16 6L16 7L17 7L17 6ZM10 8L10 9L11 9L11 8ZM29 8L29 9L30 9L30 8ZM31 8L31 10L33 10L33 9L32 9L32 8ZM1 9L1 10L2 10L2 9ZM30 11L30 12L31 12L31 11ZM6 12L6 13L7 13L7 12ZM8 12L8 13L11 13L11 12ZM26 12L26 13L27 13L27 14L25 14L25 13L24 13L24 14L23 14L23 15L24 15L24 16L26 16L26 17L25 17L25 19L24 19L24 18L21 18L21 17L23 17L23 16L21 16L21 17L20 17L20 18L19 18L19 19L17 19L17 18L18 18L18 17L15 17L15 16L14 16L14 17L13 17L13 18L12 18L12 17L11 17L11 18L10 18L10 19L11 19L11 21L10 21L10 20L9 20L9 21L10 21L10 22L13 22L13 23L12 23L12 25L10 25L10 26L9 26L9 27L10 27L10 29L9 29L9 30L10 30L10 29L11 29L11 30L14 30L14 29L12 29L12 27L13 27L13 26L16 26L16 28L18 28L18 29L20 29L20 30L22 30L22 29L24 29L24 28L23 28L23 27L22 27L22 28L21 28L21 27L20 27L20 26L21 26L21 25L22 25L22 24L21 24L21 25L20 25L20 22L21 22L21 23L22 23L22 21L24 21L24 22L23 22L23 23L25 23L25 24L26 24L26 23L25 23L25 22L26 22L26 21L27 21L27 23L30 23L30 22L31 22L31 20L29 20L29 17L30 17L30 19L31 19L31 16L30 16L30 15L28 15L28 14L29 14L29 13L28 13L28 12ZM4 15L4 16L5 16L5 15ZM10 15L10 16L11 16L11 15ZM26 15L26 16L28 16L28 17L29 17L29 16L28 16L28 15ZM14 17L14 19L16 19L16 20L15 20L15 21L14 21L14 20L13 20L13 19L12 19L12 21L14 21L14 22L15 22L15 23L16 23L16 24L13 24L13 25L12 25L12 26L13 26L13 25L17 25L17 26L18 26L18 28L19 28L19 26L20 26L20 25L19 25L19 24L17 24L17 23L16 23L16 22L15 22L15 21L18 21L18 22L20 22L20 21L21 21L21 20L22 20L22 19L21 19L21 20L20 20L20 21L18 21L18 20L17 20L17 19L16 19L16 18L15 18L15 17ZM26 17L26 18L27 18L27 19L28 19L28 18L27 18L27 17ZM25 19L25 20L26 20L26 19ZM27 20L27 21L29 21L29 22L30 22L30 21L29 21L29 20ZM6 22L6 23L7 23L7 22ZM3 23L3 24L4 24L4 23ZM23 24L23 25L24 25L24 24ZM18 25L18 26L19 26L19 25ZM25 25L25 28L28 28L28 25ZM26 26L26 27L27 27L27 26ZM20 28L20 29L21 29L21 28ZM26 29L26 30L27 30L27 29ZM29 29L29 30L30 30L30 31L31 31L31 30L30 30L30 29ZM23 31L23 32L25 32L25 31ZM28 32L28 33L29 33L29 32ZM0 0L0 7L7 7L7 0ZM1 1L1 6L6 6L6 1ZM2 2L2 5L5 5L5 2ZM26 0L26 7L33 7L33 0ZM27 1L27 6L32 6L32 1ZM28 2L28 5L31 5L31 2ZM0 26L0 33L7 33L7 26ZM1 27L1 32L6 32L6 27ZM2 28L2 31L5 31L5 28Z" fill="#000000"/></g></g></svg>
