<?xml version="1.0" encoding="UTF-8"?>
<svg xmlns="http://www.w3.org/2000/svg" version="1.1" width="600" height="600" viewBox="0 0 600 600"><rect x="0" y="0" width="600" height="600" fill="#ffffff"/><g transform="scale(17.143)"><g transform="translate(1,1)"><path fill-rule="evenodd" d="M9 0L9 1L11 1L11 2L9 2L9 3L8 3L8 5L9 5L9 6L8 6L8 7L9 7L9 9L10 9L10 10L8 10L8 8L5 8L5 10L4 10L4 9L2 9L2 8L0 8L0 9L2 9L2 10L0 10L0 11L4 11L4 13L1 13L1 14L0 14L0 15L1 15L1 16L0 16L0 19L1 19L1 20L0 20L0 25L2 25L2 24L1 24L1 22L2 22L2 23L3 23L3 20L4 20L4 19L5 19L5 18L4 18L4 19L3 19L3 20L2 20L2 18L1 18L1 16L2 16L2 17L3 17L3 15L5 15L5 16L4 16L4 17L5 17L5 16L6 16L6 17L7 17L7 18L6 18L6 19L7 19L7 20L6 20L6 21L7 21L7 22L4 22L4 24L3 24L3 25L8 25L8 28L9 28L9 29L10 29L10 27L11 27L11 29L12 29L12 30L11 30L11 31L10 31L10 30L9 30L9 31L8 31L8 33L9 33L9 31L10 31L10 33L11 33L11 31L12 31L12 33L13 33L13 32L14 32L14 33L19 33L19 32L17 32L17 31L20 31L20 32L21 32L21 30L20 30L20 29L21 29L21 28L20 28L20 29L19 29L19 28L17 28L17 27L16 27L16 25L15 25L15 26L14 26L14 27L15 27L15 31L16 31L16 32L14 32L14 31L12 31L12 30L14 30L14 29L12 29L12 27L13 27L13 26L10 26L10 25L9 25L9 24L11 24L11 25L13 25L13 23L12 23L12 24L11 24L11 23L8 23L8 24L6 24L6 23L7 23L7 22L8 22L8 17L7 17L7 16L9 16L9 17L11 17L11 12L12 12L12 11L14 11L14 16L13 16L13 15L12 15L12 17L14 17L14 19L16 19L16 20L15 20L15 23L14 23L14 24L15 24L15 23L17 23L17 21L18 21L18 22L20 22L20 23L18 23L18 25L19 25L19 26L18 26L18 27L19 27L19 26L20 26L20 23L23 23L23 24L22 24L22 25L21 25L21 27L24 27L24 29L23 29L23 28L22 28L22 29L23 29L23 30L22 30L22 31L23 31L23 32L22 32L22 33L23 33L23 32L24 32L24 33L25 33L25 32L24 32L24 31L25 31L25 29L27 29L27 31L28 31L28 33L29 33L29 30L31 30L31 29L30 29L30 28L31 28L31 27L32 27L32 26L33 26L33 25L32 25L32 24L31 24L31 23L32 23L32 20L31 20L31 19L30 19L30 20L29 20L29 19L28 19L28 18L27 18L27 17L25 17L25 19L26 19L26 18L27 18L27 21L28 21L28 22L27 22L27 23L28 23L28 22L29 22L29 23L30 23L30 24L31 24L31 25L30 25L30 26L31 26L31 27L30 27L30 28L29 28L29 24L24 24L24 23L23 23L23 22L24 22L24 21L25 21L25 22L26 22L26 21L25 21L25 20L24 20L24 21L23 21L23 19L24 19L24 17L21 17L21 16L20 16L20 15L21 15L21 11L22 11L22 16L24 16L24 15L25 15L25 14L26 14L26 15L28 15L28 17L29 17L29 18L30 18L30 17L29 17L29 15L30 15L30 16L31 16L31 18L32 18L32 19L33 19L33 17L32 17L32 16L33 16L33 15L32 15L32 14L33 14L33 12L31 12L31 11L30 11L30 12L29 12L29 9L30 9L30 8L28 8L28 10L27 10L27 12L26 12L26 11L25 11L25 12L23 12L23 10L24 10L24 9L25 9L25 10L26 10L26 9L25 9L25 8L24 8L24 7L25 7L25 5L24 5L24 4L23 4L23 2L22 2L22 0L20 0L20 1L21 1L21 2L20 2L20 4L19 4L19 2L18 2L18 3L17 3L17 4L19 4L19 5L18 5L18 8L17 8L17 5L16 5L16 8L15 8L15 6L14 6L14 5L15 5L15 4L16 4L16 2L15 2L15 3L13 3L13 4L12 4L12 2L13 2L13 1L14 1L14 0L13 0L13 1L12 1L12 0ZM16 0L16 1L18 1L18 0ZM24 1L24 2L25 2L25 1ZM9 3L9 5L10 5L10 3ZM11 4L11 7L10 7L10 6L9 6L9 7L10 7L10 8L11 8L11 10L10 10L10 11L9 11L9 12L10 12L10 11L11 11L11 10L14 10L14 11L15 11L15 13L16 13L16 15L15 15L15 16L14 16L14 17L15 17L15 16L18 16L18 17L16 17L16 19L17 19L17 20L18 20L18 21L20 21L20 20L21 20L21 22L23 22L23 21L22 21L22 19L23 19L23 18L21 18L21 17L20 17L20 16L18 16L18 15L17 15L17 14L19 14L19 15L20 15L20 14L19 14L19 13L18 13L18 10L19 10L19 12L20 12L20 10L19 10L19 9L20 9L20 8L19 8L19 9L17 9L17 8L16 8L16 10L17 10L17 11L15 11L15 10L14 10L14 9L12 9L12 6L13 6L13 8L14 8L14 6L13 6L13 5L14 5L14 4L13 4L13 5L12 5L12 4ZM21 4L21 5L23 5L23 7L24 7L24 5L23 5L23 4ZM19 5L19 7L20 7L20 5ZM21 6L21 10L23 10L23 8L22 8L22 6ZM6 9L6 10L5 10L5 11L6 11L6 12L5 12L5 13L4 13L4 14L5 14L5 13L6 13L6 14L7 14L7 13L6 13L6 12L7 12L7 11L8 11L8 10L7 10L7 9ZM31 9L31 10L32 10L32 9ZM6 10L6 11L7 11L7 10ZM28 12L28 13L27 13L27 14L28 14L28 15L29 15L29 12ZM30 12L30 15L31 15L31 16L32 16L32 15L31 15L31 12ZM12 13L12 14L13 14L13 13ZM24 13L24 14L23 14L23 15L24 15L24 14L25 14L25 13ZM1 14L1 15L2 15L2 14ZM6 15L6 16L7 16L7 15ZM9 15L9 16L10 16L10 15ZM18 17L18 19L21 19L21 18L20 18L20 17ZM9 18L9 20L10 20L10 21L9 21L9 22L10 22L10 21L12 21L12 22L14 22L14 20L13 20L13 21L12 21L12 19L13 19L13 18L12 18L12 19L10 19L10 18ZM1 20L1 21L2 21L2 20ZM30 20L30 21L29 21L29 22L30 22L30 21L31 21L31 20ZM23 24L23 26L24 26L24 24ZM25 25L25 28L28 28L28 25ZM31 25L31 26L32 26L32 25ZM26 26L26 27L27 27L27 26ZM16 29L16 31L17 31L17 30L19 30L19 29ZM32 30L32 31L33 31L33 30ZM30 31L30 32L31 32L31 33L32 33L32 32L31 32L31 31ZM0 0L0 7L7 7L7 0ZM1 1L1 6L6 6L6 1ZM2 2L2 5L5 5L5 2ZM26 0L26 7L33 7L33 0ZM27 1L27 6L32 6L32 1ZM28 2L28 5L31 5L31 2ZM0 26L0 33L7 33L7 26ZM1 27L1 32L6 32L6 27ZM2 28L2 31L5 31L5 28Z" fill="#000000"/></g></g></svg>
