<?xml version="1.0" encoding="UTF-8"?>
<svg xmlns="http://www.w3.org/2000/svg" version="1.1" width="600" height="600" viewBox="0 0 600 600"><rect x="0" y="0" width="600" height="600" fill="#ffffff"/><g transform="scale(17.143)"><g transform="translate(1,1)"><path fill-rule="evenodd" d="M8 0L8 1L10 1L10 0ZM16 0L16 3L14 3L14 1L13 1L13 2L11 2L11 4L10 4L10 3L9 3L9 2L8 2L8 5L9 5L9 6L8 6L8 7L9 7L9 8L8 8L8 9L7 9L7 8L6 8L6 9L4 9L4 8L0 8L0 10L1 10L1 11L0 11L0 13L1 13L1 11L2 11L2 10L1 10L1 9L3 9L3 12L5 12L5 15L4 15L4 16L3 16L3 15L2 15L2 14L0 14L0 15L1 15L1 16L3 16L3 19L2 19L2 21L1 21L1 19L0 19L0 22L2 22L2 23L1 23L1 24L0 24L0 25L1 25L1 24L2 24L2 23L3 23L3 24L5 24L5 25L8 25L8 26L9 26L9 27L10 27L10 28L9 28L9 29L8 29L8 33L11 33L11 32L12 32L12 31L11 31L11 29L10 29L10 28L12 28L12 29L13 29L13 28L12 28L12 26L13 26L13 25L14 25L14 24L15 24L15 26L14 26L14 27L15 27L15 28L14 28L14 29L15 29L15 30L13 30L13 33L15 33L15 31L17 31L17 33L18 33L18 32L19 32L19 33L23 33L23 32L21 32L21 31L20 31L20 32L19 32L19 29L17 29L17 27L15 27L15 26L16 26L16 25L17 25L17 26L19 26L19 27L18 27L18 28L21 28L21 29L22 29L22 28L23 28L23 29L25 29L25 30L24 30L24 32L25 32L25 33L26 33L26 32L27 32L27 33L28 33L28 32L30 32L30 33L31 33L31 32L30 32L30 29L31 29L31 31L32 31L32 32L33 32L33 31L32 31L32 29L33 29L33 27L32 27L32 29L31 29L31 26L30 26L30 24L29 24L29 23L28 23L28 24L26 24L26 23L27 23L27 22L28 22L28 21L26 21L26 20L29 20L29 21L30 21L30 22L31 22L31 24L32 24L32 25L33 25L33 24L32 24L32 23L33 23L33 21L31 21L31 20L30 20L30 18L31 18L31 19L32 19L32 20L33 20L33 19L32 19L32 18L33 18L33 16L31 16L31 14L32 14L32 13L30 13L30 14L28 14L28 15L27 15L27 14L26 14L26 13L25 13L25 10L26 10L26 11L27 11L27 13L29 13L29 12L28 12L28 11L31 11L31 12L32 12L32 11L33 11L33 8L32 8L32 9L31 9L31 8L28 8L28 9L26 9L26 8L25 8L25 6L24 6L24 8L23 8L23 6L22 6L22 4L21 4L21 3L20 3L20 4L19 4L19 5L18 5L18 3L17 3L17 0ZM19 0L19 1L20 1L20 2L22 2L22 1L23 1L23 2L24 2L24 3L25 3L25 2L24 2L24 0L21 0L21 1L20 1L20 0ZM12 3L12 5L10 5L10 6L9 6L9 7L10 7L10 8L9 8L9 9L10 9L10 10L9 10L9 11L8 11L8 12L7 12L7 11L5 11L5 12L7 12L7 13L6 13L6 14L8 14L8 15L9 15L9 14L8 14L8 12L10 12L10 13L11 13L11 11L14 11L14 13L13 13L13 12L12 12L12 14L11 14L11 15L10 15L10 16L8 16L8 19L6 19L6 20L5 20L5 22L4 22L4 23L6 23L6 24L7 24L7 23L6 23L6 22L8 22L8 25L9 25L9 26L11 26L11 25L12 25L12 24L13 24L13 23L14 23L14 21L15 21L15 23L16 23L16 24L18 24L18 23L17 23L17 22L19 22L19 25L20 25L20 23L21 23L21 25L23 25L23 24L22 24L22 22L21 22L21 21L20 21L20 22L19 22L19 20L18 20L18 21L17 21L17 22L16 22L16 20L17 20L17 19L20 19L20 18L21 18L21 20L22 20L22 21L24 21L24 22L25 22L25 23L26 23L26 22L25 22L25 20L26 20L26 15L25 15L25 14L24 14L24 11L23 11L23 10L22 10L22 9L21 9L21 8L22 8L22 6L21 6L21 8L20 8L20 9L21 9L21 10L19 10L19 7L20 7L20 6L19 6L19 7L18 7L18 6L17 6L17 4L16 4L16 5L15 5L15 7L16 7L16 8L15 8L15 9L14 9L14 4L13 4L13 3ZM24 4L24 5L25 5L25 4ZM12 5L12 7L11 7L11 6L10 6L10 7L11 7L11 8L12 8L12 7L13 7L13 5ZM16 6L16 7L17 7L17 9L18 9L18 7L17 7L17 6ZM24 8L24 10L25 10L25 8ZM6 9L6 10L7 10L7 9ZM28 9L28 10L27 10L27 11L28 11L28 10L31 10L31 11L32 11L32 10L31 10L31 9ZM17 10L17 11L18 11L18 10ZM19 11L19 12L17 12L17 13L16 13L16 12L15 12L15 14L12 14L12 16L10 16L10 18L9 18L9 19L12 19L12 20L9 20L9 22L10 22L10 23L13 23L13 19L14 19L14 18L15 18L15 20L16 20L16 17L15 17L15 16L17 16L17 13L18 13L18 14L19 14L19 15L21 15L21 18L22 18L22 20L25 20L25 19L23 19L23 18L25 18L25 16L24 16L24 15L23 15L23 13L21 13L21 14L20 14L20 13L19 13L19 12L21 12L21 11ZM22 11L22 12L23 12L23 11ZM15 14L15 15L13 15L13 16L12 16L12 17L11 17L11 18L12 18L12 17L13 17L13 16L15 16L15 15L16 15L16 14ZM21 14L21 15L22 15L22 14ZM5 15L5 16L4 16L4 19L3 19L3 21L4 21L4 19L5 19L5 18L7 18L7 17L6 17L6 16L7 16L7 15ZM28 15L28 16L30 16L30 15ZM18 16L18 17L20 17L20 16ZM22 16L22 18L23 18L23 16ZM27 17L27 18L28 18L28 17ZM31 17L31 18L32 18L32 17ZM6 20L6 21L8 21L8 20ZM11 21L11 22L12 22L12 21ZM10 24L10 25L11 25L11 24ZM25 25L25 28L28 28L28 25ZM21 26L21 27L23 27L23 28L24 28L24 27L23 27L23 26ZM26 26L26 27L27 27L27 26ZM29 26L29 29L28 29L28 31L27 31L27 32L28 32L28 31L29 31L29 29L30 29L30 26ZM15 28L15 29L16 29L16 28ZM26 29L26 30L27 30L27 29ZM9 30L9 32L10 32L10 30ZM17 30L17 31L18 31L18 30ZM25 31L25 32L26 32L26 31ZM0 0L0 7L7 7L7 0ZM1 1L1 6L6 6L6 1ZM2 2L2 5L5 5L5 2ZM26 0L26 7L33 7L33 0ZM27 1L27 6L32 6L32 1ZM28 2L28 5L31 5L31 2ZM0 26L0 33L7 33L7 26ZM1 27L1 32L6 32L6 27ZM2 28L2 31L5 31L5 28Z" fill="#000000"/></g></g></svg>
