<?xml version="1.0" encoding="UTF-8"?>
<svg xmlns="http://www.w3.org/2000/svg" version="1.1" width="600" height="600" viewBox="0 0 600 600"><rect x="0" y="0" width="600" height="600" fill="#ffffff"/><g transform="scale(17.143)"><g transform="translate(1,1)"><path fill-rule="evenodd" d="M11 0L11 1L8 1L8 2L9 2L9 3L8 3L8 4L9 4L9 5L8 5L8 7L9 7L9 8L6 8L6 9L8 9L8 10L6 10L6 11L8 11L8 13L9 13L9 14L2 14L2 12L3 12L3 13L4 13L4 12L5 12L5 11L3 11L3 9L5 9L5 8L0 8L0 12L1 12L1 14L0 14L0 15L1 15L1 16L2 16L2 15L4 15L4 16L5 16L5 17L2 17L2 18L5 18L5 20L4 20L4 19L3 19L3 21L8 21L8 22L5 22L5 24L6 24L6 25L7 25L7 24L6 24L6 23L8 23L8 24L11 24L11 23L8 23L8 22L9 22L9 21L10 21L10 22L12 22L12 24L13 24L13 25L11 25L11 26L12 26L12 27L11 27L11 28L13 28L13 29L11 29L11 30L10 30L10 31L9 31L9 29L10 29L10 27L9 27L9 25L8 25L8 27L9 27L9 28L8 28L8 33L10 33L10 32L11 32L11 33L12 33L12 32L11 32L11 30L13 30L13 29L15 29L15 28L16 28L16 29L18 29L18 30L20 30L20 29L21 29L21 32L19 32L19 31L18 31L18 32L17 32L17 31L16 31L16 30L14 30L14 31L16 31L16 32L15 32L15 33L21 33L21 32L24 32L24 33L25 33L25 32L24 32L24 31L27 31L27 32L28 32L28 33L29 33L29 31L30 31L30 32L31 32L31 33L32 33L32 32L31 32L31 31L32 31L32 30L31 30L31 29L33 29L33 27L32 27L32 26L33 26L33 24L32 24L32 26L31 26L31 25L30 25L30 24L31 24L31 23L32 23L32 22L33 22L33 21L32 21L32 20L31 20L31 19L32 19L32 18L33 18L33 17L32 17L32 16L31 16L31 15L32 15L32 14L33 14L33 13L31 13L31 15L30 15L30 13L29 13L29 10L28 10L28 8L27 8L27 9L26 9L26 8L24 8L24 7L25 7L25 5L24 5L24 4L23 4L23 5L22 5L22 7L21 7L21 6L20 6L20 7L21 7L21 8L20 8L20 9L19 9L19 8L17 8L17 9L16 9L16 8L13 8L13 6L14 6L14 7L15 7L15 6L16 6L16 7L17 7L17 6L16 6L16 5L15 5L15 4L18 4L18 7L19 7L19 5L20 5L20 4L21 4L21 3L23 3L23 2L21 2L21 3L20 3L20 4L18 4L18 3L19 3L19 2L18 2L18 3L15 3L15 4L14 4L14 3L13 3L13 4L9 4L9 3L12 3L12 2L13 2L13 1L15 1L15 2L16 2L16 1L15 1L15 0ZM19 0L19 1L20 1L20 0ZM21 0L21 1L24 1L24 2L25 2L25 1L24 1L24 0ZM11 1L11 2L12 2L12 1ZM13 4L13 5L14 5L14 4ZM9 5L9 7L10 7L10 8L9 8L9 9L13 9L13 10L9 10L9 11L11 11L11 12L10 12L10 14L9 14L9 15L5 15L5 16L7 16L7 17L6 17L6 18L9 18L9 17L10 17L10 19L6 19L6 20L11 20L11 21L13 21L13 20L14 20L14 21L15 21L15 22L13 22L13 24L14 24L14 25L13 25L13 26L16 26L16 25L17 25L17 27L16 27L16 28L18 28L18 29L20 29L20 26L21 26L21 25L23 25L23 26L24 26L24 25L23 25L23 24L21 24L21 25L20 25L20 24L19 24L19 23L21 23L21 22L22 22L22 21L24 21L24 22L23 22L23 23L24 23L24 24L27 24L27 22L25 22L25 21L27 21L27 20L28 20L28 19L26 19L26 18L25 18L25 17L28 17L28 18L29 18L29 17L30 17L30 19L29 19L29 20L30 20L30 21L28 21L28 24L30 24L30 23L29 23L29 22L30 22L30 21L31 21L31 20L30 20L30 19L31 19L31 16L30 16L30 15L29 15L29 13L28 13L28 16L26 16L26 14L25 14L25 13L27 13L27 12L28 12L28 11L27 11L27 10L25 10L25 9L24 9L24 10L22 10L22 11L23 11L23 12L21 12L21 9L23 9L23 8L21 8L21 9L20 9L20 10L19 10L19 9L18 9L18 10L17 10L17 11L16 11L16 12L18 12L18 13L15 13L15 10L16 10L16 9L13 9L13 8L12 8L12 5ZM23 5L23 7L24 7L24 5ZM10 6L10 7L11 7L11 6ZM29 8L29 9L30 9L30 8ZM31 8L31 10L33 10L33 9L32 9L32 8ZM1 9L1 10L2 10L2 9ZM13 10L13 11L14 11L14 10ZM18 10L18 11L19 11L19 12L20 12L20 13L18 13L18 14L20 14L20 13L21 13L21 12L20 12L20 11L19 11L19 10ZM1 11L1 12L2 12L2 11ZM25 11L25 12L24 12L24 13L22 13L22 15L21 15L21 16L20 16L20 17L18 17L18 16L17 16L17 15L16 15L16 14L15 14L15 13L14 13L14 12L11 12L11 14L12 14L12 15L10 15L10 17L11 17L11 18L12 18L12 19L11 19L11 20L13 20L13 17L14 17L14 20L16 20L16 21L19 21L19 22L20 22L20 21L21 21L21 20L22 20L22 19L23 19L23 18L24 18L24 17L23 17L23 16L24 16L24 15L25 15L25 14L24 14L24 13L25 13L25 12L26 12L26 11ZM30 11L30 12L31 12L31 11ZM6 12L6 13L7 13L7 12ZM13 13L13 15L12 15L12 16L11 16L11 17L13 17L13 16L14 16L14 17L15 17L15 18L18 18L18 17L15 17L15 16L16 16L16 15L15 15L15 14L14 14L14 13ZM23 14L23 15L24 15L24 14ZM14 15L14 16L15 16L15 15ZM8 16L8 17L9 17L9 16ZM21 16L21 17L20 17L20 18L19 18L19 19L16 19L16 20L19 20L19 21L20 21L20 18L21 18L21 17L22 17L22 16ZM28 16L28 17L29 17L29 16ZM0 17L0 19L1 19L1 17ZM24 20L24 21L25 21L25 20ZM0 21L0 25L1 25L1 22L2 22L2 21ZM15 22L15 23L14 23L14 24L15 24L15 25L16 25L16 24L17 24L17 25L18 25L18 26L20 26L20 25L18 25L18 24L17 24L17 23L18 23L18 22L17 22L17 23L16 23L16 22ZM2 23L2 24L3 24L3 25L4 25L4 24L3 24L3 23ZM25 25L25 28L28 28L28 25ZM29 25L29 28L30 28L30 29L31 29L31 28L32 28L32 27L31 27L31 26L30 26L30 25ZM26 26L26 27L27 27L27 26ZM13 27L13 28L15 28L15 27ZM18 27L18 28L19 28L19 27ZM23 27L23 29L22 29L22 28L21 28L21 29L22 29L22 30L23 30L23 31L24 31L24 27ZM30 27L30 28L31 28L31 27ZM25 29L25 30L28 30L28 31L29 31L29 30L28 30L28 29ZM30 30L30 31L31 31L31 30ZM13 32L13 33L14 33L14 32ZM0 0L0 7L7 7L7 0ZM1 1L1 6L6 6L6 1ZM2 2L2 5L5 5L5 2ZM26 0L26 7L33 7L33 0ZM27 1L27 6L32 6L32 1ZM28 2L28 5L31 5L31 2ZM0 26L0 33L7 33L7 26ZM1 27L1 32L6 32L6 27ZM2 28L2 31L5 31L5 28Z" fill="#000000"/></g></g></svg>
