<?xml version="1.0" encoding="UTF-8"?>
<svg xmlns="http://www.w3.org/2000/svg" version="1.1" width="600" height="600" viewBox="0 0 600 600"><rect x="0" y="0" width="600" height="600" fill="#ffffff"/><g transform="scale(17.143)"><g transform="translate(1,1)"><path fill-rule="evenodd" d="M11 0L11 1L8 1L8 2L9 2L9 3L8 3L8 4L9 4L9 5L8 5L8 7L9 7L9 8L6 8L6 9L5 9L5 8L0 8L0 10L2 10L2 14L1 14L1 15L0 15L0 19L1 19L1 16L3 16L3 17L4 17L4 18L2 18L2 22L3 22L3 23L2 23L2 24L3 24L3 25L7 25L7 24L6 24L6 23L7 23L7 22L8 22L8 23L10 23L10 24L9 24L9 25L8 25L8 27L9 27L9 28L8 28L8 33L9 33L9 28L10 28L10 27L11 27L11 28L13 28L13 29L11 29L11 30L13 30L13 29L16 29L16 30L14 30L14 31L15 31L15 33L21 33L21 32L24 32L24 33L25 33L25 32L24 32L24 31L27 31L27 32L28 32L28 33L29 33L29 31L30 31L30 32L31 32L31 33L32 33L32 32L31 32L31 31L32 31L32 30L31 30L31 29L33 29L33 27L32 27L32 26L33 26L33 24L32 24L32 26L31 26L31 25L30 25L30 24L31 24L31 23L32 23L32 22L33 22L33 21L32 21L32 20L31 20L31 19L32 19L32 18L33 18L33 17L32 17L32 16L31 16L31 15L32 15L32 14L33 14L33 13L31 13L31 15L30 15L30 13L29 13L29 10L28 10L28 8L27 8L27 9L26 9L26 8L24 8L24 7L25 7L25 5L24 5L24 4L23 4L23 5L22 5L22 7L21 7L21 5L20 5L20 4L21 4L21 3L23 3L23 2L21 2L21 3L19 3L19 2L18 2L18 1L24 1L24 2L25 2L25 1L24 1L24 0L18 0L18 1L17 1L17 2L16 2L16 1L15 1L15 0L14 0L14 1L13 1L13 0ZM11 1L11 2L12 2L12 3L9 3L9 4L13 4L13 8L12 8L12 5L10 5L10 6L9 6L9 7L10 7L10 6L11 6L11 8L9 8L9 9L13 9L13 10L10 10L10 13L9 13L9 12L8 12L8 14L7 14L7 13L5 13L5 12L4 12L4 10L5 10L5 9L2 9L2 10L3 10L3 12L4 12L4 13L3 13L3 14L2 14L2 15L3 15L3 16L4 16L4 17L5 17L5 18L7 18L7 19L6 19L6 20L5 20L5 19L4 19L4 20L5 20L5 21L6 21L6 22L5 22L5 23L6 23L6 22L7 22L7 21L8 21L8 22L10 22L10 23L11 23L11 25L13 25L13 26L16 26L16 27L13 27L13 28L16 28L16 29L17 29L17 32L18 32L18 31L19 31L19 32L21 32L21 31L24 31L24 27L23 27L23 26L24 26L24 25L23 25L23 24L21 24L21 23L20 23L20 22L22 22L22 21L24 21L24 22L23 22L23 23L24 23L24 24L27 24L27 22L25 22L25 21L27 21L27 20L28 20L28 19L26 19L26 18L25 18L25 17L28 17L28 18L29 18L29 17L30 17L30 19L29 19L29 20L30 20L30 21L28 21L28 24L30 24L30 23L29 23L29 22L30 22L30 21L31 21L31 20L30 20L30 19L31 19L31 16L30 16L30 15L29 15L29 13L28 13L28 16L26 16L26 14L25 14L25 13L27 13L27 12L28 12L28 11L27 11L27 10L25 10L25 9L24 9L24 10L22 10L22 9L23 9L23 8L20 8L20 5L19 5L19 7L18 7L18 4L19 4L19 3L18 3L18 2L17 2L17 3L18 3L18 4L15 4L15 2L12 2L12 1ZM13 3L13 4L14 4L14 5L15 5L15 6L14 6L14 8L13 8L13 9L19 9L19 10L20 10L20 12L22 12L22 10L21 10L21 9L19 9L19 8L17 8L17 6L16 6L16 5L15 5L15 4L14 4L14 3ZM23 5L23 7L24 7L24 5ZM15 6L15 7L16 7L16 6ZM29 8L29 9L30 9L30 8ZM31 8L31 10L33 10L33 9L32 9L32 8ZM6 9L6 10L7 10L7 9ZM13 10L13 11L14 11L14 10ZM15 10L15 12L11 12L11 14L12 14L12 15L10 15L10 14L8 14L8 15L7 15L7 14L5 14L5 17L7 17L7 18L8 18L8 20L9 20L9 19L11 19L11 20L10 20L10 22L12 22L12 24L13 24L13 25L14 25L14 24L13 24L13 23L15 23L15 25L16 25L16 26L17 26L17 27L16 27L16 28L17 28L17 29L19 29L19 30L20 30L20 31L21 31L21 30L22 30L22 29L23 29L23 28L22 28L22 26L23 26L23 25L18 25L18 24L17 24L17 23L16 23L16 22L13 22L13 21L18 21L18 23L19 23L19 22L20 22L20 21L21 21L21 20L22 20L22 19L23 19L23 18L24 18L24 17L23 17L23 16L24 16L24 15L25 15L25 14L24 14L24 13L25 13L25 12L26 12L26 11L25 11L25 12L24 12L24 13L22 13L22 15L21 15L21 13L19 13L19 12L16 12L16 11L17 11L17 10ZM6 11L6 12L7 12L7 11ZM30 11L30 12L31 12L31 11ZM0 12L0 13L1 13L1 12ZM13 13L13 14L14 14L14 15L12 15L12 16L10 16L10 18L11 18L11 19L12 19L12 18L11 18L11 17L13 17L13 20L11 20L11 21L13 21L13 20L18 20L18 21L20 21L20 20L21 20L21 17L22 17L22 16L21 16L21 17L20 17L20 16L19 16L19 17L17 17L17 16L18 16L18 15L20 15L20 14L19 14L19 13ZM3 14L3 15L4 15L4 14ZM15 14L15 15L14 15L14 16L13 16L13 17L16 17L16 18L14 18L14 19L16 19L16 18L17 18L17 17L16 17L16 16L17 16L17 15L16 15L16 14ZM23 14L23 15L24 15L24 14ZM6 15L6 16L7 16L7 15ZM15 15L15 16L16 16L16 15ZM28 16L28 17L29 17L29 16ZM19 17L19 18L20 18L20 17ZM18 19L18 20L19 20L19 19ZM6 20L6 21L7 21L7 20ZM24 20L24 21L25 21L25 20ZM0 21L0 25L1 25L1 21ZM3 21L3 22L4 22L4 21ZM16 24L16 25L17 25L17 26L18 26L18 25L17 25L17 24ZM9 25L9 27L10 27L10 25ZM25 25L25 28L28 28L28 25ZM29 25L29 28L30 28L30 29L31 29L31 28L32 28L32 27L31 27L31 26L30 26L30 25ZM11 26L11 27L12 27L12 26ZM19 26L19 27L17 27L17 28L19 28L19 29L20 29L20 30L21 30L21 29L22 29L22 28L21 28L21 29L20 29L20 28L19 28L19 27L20 27L20 26ZM26 26L26 27L27 27L27 26ZM30 27L30 28L31 28L31 27ZM25 29L25 30L28 30L28 31L29 31L29 30L28 30L28 29ZM30 30L30 31L31 31L31 30ZM10 31L10 33L12 33L12 32L11 32L11 31ZM13 32L13 33L14 33L14 32ZM0 0L0 7L7 7L7 0ZM1 1L1 6L6 6L6 1ZM2 2L2 5L5 5L5 2ZM26 0L26 7L33 7L33 0ZM27 1L27 6L32 6L32 1ZM28 2L28 5L31 5L31 2ZM0 26L0 33L7 33L7 26ZM1 27L1 32L6 32L6 27ZM2 28L2 31L5 31L5 28Z" fill="#000000"/></g></g></svg>
