<?xml version="1.0" encoding="UTF-8"?>
<svg xmlns="http://www.w3.org/2000/svg" version="1.1" width="600" height="600" viewBox="0 0 600 600"><rect x="0" y="0" width="600" height="600" fill="#ffffff"/><g transform="scale(15.385)"><g transform="translate(1,1)"><path fill-rule="evenodd" d="M8 0L8 1L9 1L9 2L8 2L8 5L9 5L9 4L11 4L11 5L10 5L10 10L9 10L9 8L8 8L8 9L7 9L7 8L6 8L6 9L7 9L7 10L5 10L5 9L4 9L4 8L0 8L0 10L1 10L1 12L0 12L0 14L1 14L1 13L2 13L2 15L1 15L1 16L0 16L0 17L3 17L3 18L1 18L1 19L4 19L4 22L2 22L2 21L3 21L3 20L2 20L2 21L1 21L1 20L0 20L0 21L1 21L1 22L0 22L0 25L1 25L1 24L3 24L3 25L4 25L4 26L1 26L1 27L0 27L0 28L1 28L1 27L5 27L5 29L7 29L7 28L8 28L8 30L9 30L9 29L10 29L10 28L9 28L9 27L10 27L10 26L12 26L12 28L11 28L11 29L12 29L12 30L11 30L11 31L9 31L9 33L8 33L8 37L11 37L11 36L10 36L10 34L11 34L11 35L14 35L14 34L15 34L15 33L14 33L14 32L13 32L13 30L14 30L14 29L12 29L12 28L14 28L14 27L15 27L15 26L14 26L14 25L13 25L13 26L12 26L12 24L16 24L16 22L17 22L17 21L18 21L18 19L19 19L19 22L18 22L18 23L19 23L19 24L17 24L17 25L19 25L19 26L18 26L18 27L19 27L19 28L21 28L21 31L22 31L22 26L21 26L21 22L20 22L20 21L22 21L22 22L23 22L23 24L22 24L22 25L23 25L23 24L24 24L24 21L23 21L23 20L25 20L25 19L26 19L26 20L27 20L27 21L25 21L25 22L26 22L26 23L25 23L25 25L26 25L26 26L28 26L28 29L27 29L27 30L26 30L26 28L27 28L27 27L26 27L26 28L25 28L25 27L23 27L23 30L26 30L26 31L27 31L27 32L26 32L26 33L27 33L27 32L28 32L28 33L30 33L30 34L29 34L29 37L30 37L30 36L31 36L31 37L32 37L32 35L33 35L33 37L37 37L37 36L35 36L35 35L34 35L34 34L37 34L37 33L33 33L33 32L34 32L34 31L33 31L33 30L34 30L34 29L36 29L36 30L35 30L35 32L36 32L36 31L37 31L37 27L36 27L36 26L37 26L37 24L35 24L35 23L34 23L34 22L36 22L36 19L37 19L37 17L36 17L36 16L37 16L37 15L36 15L36 16L34 16L34 17L33 17L33 18L31 18L31 17L32 17L32 16L31 16L31 15L34 15L34 14L35 14L35 11L36 11L36 12L37 12L37 11L36 11L36 10L35 10L35 8L32 8L32 9L34 9L34 10L30 10L30 12L29 12L29 10L28 10L28 11L25 11L25 10L27 10L27 9L30 9L30 8L29 8L29 6L28 6L28 7L27 7L27 5L28 5L28 4L29 4L29 1L28 1L28 3L27 3L27 2L26 2L26 1L27 1L27 0L25 0L25 1L24 1L24 0L23 0L23 2L22 2L22 0L18 0L18 1L16 1L16 0L12 0L12 1L11 1L11 0L10 0L10 1L9 1L9 0ZM14 1L14 2L11 2L11 4L12 4L12 3L13 3L13 5L12 5L12 6L11 6L11 8L12 8L12 6L13 6L13 8L14 8L14 9L15 9L15 7L16 7L16 6L15 6L15 5L16 5L16 4L17 4L17 7L18 7L18 4L17 4L17 3L19 3L19 4L21 4L21 5L20 5L20 6L19 6L19 7L20 7L20 6L21 6L21 8L22 8L22 6L21 6L21 5L23 5L23 7L24 7L24 8L25 8L25 9L27 9L27 8L26 8L26 6L25 6L25 5L27 5L27 4L25 4L25 5L24 5L24 3L25 3L25 2L23 2L23 4L22 4L22 2L21 2L21 3L20 3L20 1L19 1L19 2L17 2L17 3L16 3L16 1ZM14 3L14 5L13 5L13 6L14 6L14 7L15 7L15 6L14 6L14 5L15 5L15 4L16 4L16 3ZM8 6L8 7L9 7L9 6ZM24 6L24 7L25 7L25 6ZM16 8L16 10L14 10L14 11L10 11L10 12L11 12L11 13L12 13L12 12L13 12L13 14L12 14L12 16L8 16L8 15L10 15L10 14L9 14L9 12L8 12L8 11L9 11L9 10L8 10L8 11L5 11L5 10L4 10L4 9L1 9L1 10L2 10L2 11L3 11L3 12L2 12L2 13L4 13L4 14L3 14L3 15L2 15L2 16L4 16L4 17L5 17L5 20L7 20L7 21L6 21L6 22L7 22L7 21L8 21L8 22L9 22L9 21L8 21L8 19L9 19L9 17L11 17L11 19L10 19L10 20L11 20L11 21L10 21L10 22L11 22L11 23L14 23L14 22L15 22L15 21L16 21L16 20L17 20L17 19L15 19L15 21L13 21L13 18L14 18L14 15L15 15L15 16L16 16L16 15L15 15L15 14L16 14L16 13L17 13L17 12L19 12L19 13L20 13L20 14L21 14L21 15L19 15L19 14L17 14L17 18L18 18L18 17L19 17L19 19L20 19L20 20L22 20L22 19L20 19L20 18L23 18L23 19L24 19L24 18L23 18L23 16L24 16L24 17L25 17L25 16L26 16L26 14L27 14L27 15L28 15L28 14L27 14L27 12L26 12L26 13L25 13L25 12L23 12L23 10L21 10L21 9L20 9L20 10L19 10L19 8L18 8L18 9L17 9L17 8ZM36 8L36 9L37 9L37 8ZM11 9L11 10L12 10L12 9ZM3 10L3 11L4 11L4 10ZM16 10L16 12L14 12L14 14L13 14L13 15L14 15L14 14L15 14L15 13L16 13L16 12L17 12L17 10ZM20 10L20 11L21 11L21 10ZM32 11L32 12L31 12L31 13L32 13L32 12L34 12L34 11ZM4 12L4 13L7 13L7 14L4 14L4 15L5 15L5 17L7 17L7 16L6 16L6 15L8 15L8 12ZM22 13L22 15L21 15L21 17L22 17L22 15L23 15L23 13ZM29 13L29 14L30 14L30 15L29 15L29 17L28 17L28 16L27 16L27 17L28 17L28 19L29 19L29 20L30 20L30 23L32 23L32 24L33 24L33 26L34 26L34 28L33 28L33 27L32 27L32 26L30 26L30 25L29 25L29 23L28 23L28 21L27 21L27 24L28 24L28 25L29 25L29 26L30 26L30 27L29 27L29 28L30 28L30 27L31 27L31 28L33 28L33 29L34 29L34 28L36 28L36 27L35 27L35 26L36 26L36 25L34 25L34 24L33 24L33 23L32 23L32 22L34 22L34 21L35 21L35 17L34 17L34 20L33 20L33 19L32 19L32 20L33 20L33 21L32 21L32 22L31 22L31 19L29 19L29 18L30 18L30 17L31 17L31 16L30 16L30 15L31 15L31 14L30 14L30 13ZM36 13L36 14L37 14L37 13ZM18 15L18 16L19 16L19 17L20 17L20 16L19 16L19 15ZM12 16L12 17L13 17L13 16ZM15 17L15 18L16 18L16 17ZM6 18L6 19L7 19L7 18ZM26 18L26 19L27 19L27 18ZM11 19L11 20L12 20L12 19ZM4 22L4 23L3 23L3 24L4 24L4 25L5 25L5 26L7 26L7 27L6 27L6 28L7 28L7 27L8 27L8 26L7 26L7 25L8 25L8 24L7 24L7 23L5 23L5 22ZM19 22L19 23L20 23L20 22ZM4 23L4 24L5 24L5 25L7 25L7 24L5 24L5 23ZM10 24L10 25L9 25L9 26L10 26L10 25L11 25L11 24ZM19 24L19 25L20 25L20 24ZM13 26L13 27L14 27L14 26ZM20 26L20 27L21 27L21 26ZM16 27L16 29L15 29L15 31L16 31L16 30L17 30L17 27ZM2 28L2 29L4 29L4 28ZM24 28L24 29L25 29L25 28ZM18 29L18 31L17 31L17 33L18 33L18 31L19 31L19 29ZM29 29L29 32L32 32L32 29ZM27 30L27 31L28 31L28 30ZM30 30L30 31L31 31L31 30ZM11 31L11 32L12 32L12 31ZM23 31L23 32L21 32L21 33L20 33L20 32L19 32L19 34L18 34L18 36L17 36L17 37L21 37L21 36L20 36L20 35L19 35L19 34L21 34L21 35L22 35L22 36L23 36L23 37L24 37L24 36L23 36L23 35L25 35L25 37L26 37L26 36L27 36L27 35L28 35L28 34L25 34L25 32L24 32L24 31ZM23 32L23 33L24 33L24 32ZM9 33L9 34L10 34L10 33ZM11 33L11 34L12 34L12 33ZM16 34L16 35L17 35L17 34ZM22 34L22 35L23 35L23 34ZM12 36L12 37L13 37L13 36ZM14 36L14 37L15 37L15 36ZM0 0L0 7L7 7L7 0ZM1 1L1 6L6 6L6 1ZM2 2L2 5L5 5L5 2ZM30 0L30 7L37 7L37 0ZM31 1L31 6L36 6L36 1ZM32 2L32 5L35 5L35 2ZM0 30L0 37L7 37L7 30ZM1 31L1 36L6 36L6 31ZM2 32L2 35L5 35L5 32Z" fill="#000000"/></g></g></svg>
