<?xml version="1.0" encoding="UTF-8"?>
<svg xmlns="http://www.w3.org/2000/svg" version="1.1" width="600" height="600" viewBox="0 0 600 600"><rect x="0" y="0" width="600" height="600" fill="#ffffff"/><g transform="scale(17.143)"><g transform="translate(1,1)"><path fill-rule="evenodd" d="M10 0L10 1L8 1L8 3L9 3L9 4L8 4L8 8L6 8L6 9L4 9L4 8L3 8L3 9L4 9L4 10L3 10L3 11L2 11L2 10L1 10L1 11L0 11L0 15L1 15L1 14L2 14L2 15L3 15L3 14L4 14L4 13L5 13L5 15L4 15L4 16L6 16L6 17L2 17L2 16L1 16L1 17L2 17L2 18L0 18L0 19L1 19L1 20L0 20L0 21L1 21L1 20L2 20L2 21L5 21L5 20L6 20L6 21L7 21L7 22L6 22L6 23L7 23L7 22L8 22L8 23L11 23L11 22L12 22L12 21L11 21L11 20L9 20L9 19L10 19L10 17L9 17L9 16L10 16L10 15L11 15L11 16L12 16L12 18L11 18L11 19L12 19L12 20L13 20L13 24L12 24L12 25L11 25L11 24L9 24L9 25L8 25L8 24L4 24L4 22L0 22L0 23L1 23L1 24L0 24L0 25L1 25L1 24L2 24L2 23L3 23L3 24L4 24L4 25L8 25L8 27L9 27L9 29L8 29L8 30L9 30L9 31L8 31L8 33L9 33L9 32L10 32L10 33L13 33L13 32L14 32L14 33L15 33L15 32L14 32L14 30L15 30L15 28L16 28L16 29L18 29L18 30L16 30L16 32L18 32L18 33L19 33L19 32L20 32L20 33L25 33L25 31L26 31L26 30L27 30L27 29L28 29L28 31L27 31L27 33L28 33L28 31L29 31L29 33L30 33L30 24L28 24L28 23L27 23L27 22L28 22L28 21L26 21L26 22L25 22L25 19L23 19L23 21L22 21L22 18L25 18L25 17L27 17L27 18L28 18L28 17L29 17L29 20L30 20L30 18L31 18L31 19L33 19L33 18L31 18L31 17L29 17L29 16L30 16L30 15L29 15L29 13L27 13L27 10L28 10L28 12L29 12L29 10L31 10L31 12L32 12L32 13L30 13L30 14L31 14L31 16L32 16L32 17L33 17L33 16L32 16L32 14L33 14L33 9L32 9L32 8L30 8L30 9L29 9L29 8L26 8L26 10L25 10L25 6L24 6L24 10L25 10L25 11L24 11L24 14L22 14L22 13L23 13L23 12L22 12L22 11L23 11L23 8L22 8L22 7L23 7L23 5L24 5L24 4L25 4L25 3L24 3L24 0L23 0L23 1L22 1L22 2L23 2L23 5L22 5L22 4L21 4L21 3L20 3L20 2L19 2L19 1L21 1L21 0L19 0L19 1L18 1L18 2L16 2L16 1L17 1L17 0L15 0L15 1L13 1L13 2L14 2L14 4L13 4L13 3L12 3L12 7L11 7L11 4L10 4L10 3L9 3L9 2L11 2L11 0ZM15 2L15 3L16 3L16 2ZM18 2L18 3L17 3L17 4L16 4L16 5L20 5L20 6L19 6L19 10L21 10L21 11L22 11L22 10L21 10L21 9L20 9L20 6L21 6L21 7L22 7L22 5L20 5L20 4L19 4L19 2ZM9 5L9 8L8 8L8 9L10 9L10 10L8 10L8 11L6 11L6 12L5 12L5 13L6 13L6 14L7 14L7 15L6 15L6 16L7 16L7 15L8 15L8 16L9 16L9 13L10 13L10 14L11 14L11 13L10 13L10 12L9 12L9 11L11 11L11 8L10 8L10 5ZM13 5L13 7L12 7L12 8L15 8L15 9L14 9L14 10L13 10L13 11L14 11L14 13L13 13L13 12L12 12L12 16L13 16L13 17L14 17L14 18L15 18L15 19L13 19L13 20L14 20L14 21L15 21L15 23L14 23L14 25L13 25L13 26L14 26L14 28L15 28L15 27L16 27L16 28L17 28L17 26L16 26L16 25L17 25L17 24L19 24L19 23L16 23L16 22L17 22L17 21L18 21L18 20L17 20L17 19L19 19L19 20L21 20L21 19L20 19L20 17L21 17L21 18L22 18L22 17L25 17L25 16L24 16L24 15L23 15L23 16L22 16L22 17L21 17L21 12L18 12L18 11L16 11L16 10L17 10L17 9L18 9L18 8L17 8L17 7L18 7L18 6L17 6L17 7L16 7L16 6L15 6L15 5ZM14 6L14 7L15 7L15 8L16 8L16 7L15 7L15 6ZM0 8L0 9L2 9L2 8ZM6 9L6 10L7 10L7 9ZM28 9L28 10L29 10L29 9ZM31 9L31 10L32 10L32 9ZM14 10L14 11L15 11L15 13L16 13L16 14L18 14L18 15L17 15L17 16L16 16L16 15L15 15L15 16L14 16L14 14L13 14L13 16L14 16L14 17L18 17L18 18L19 18L19 17L20 17L20 16L18 16L18 15L19 15L19 14L20 14L20 13L19 13L19 14L18 14L18 12L17 12L17 13L16 13L16 11L15 11L15 10ZM1 11L1 13L2 13L2 11ZM3 11L3 13L4 13L4 11ZM25 11L25 13L26 13L26 11ZM6 12L6 13L7 13L7 14L8 14L8 12ZM25 14L25 15L26 15L26 14ZM27 14L27 15L28 15L28 16L29 16L29 15L28 15L28 14ZM6 17L6 18L7 18L7 17ZM2 18L2 19L3 19L3 18ZM4 18L4 19L5 19L5 18ZM8 18L8 19L9 19L9 18ZM16 18L16 19L17 19L17 18ZM6 19L6 20L7 20L7 21L8 21L8 20L7 20L7 19ZM31 20L31 21L32 21L32 23L31 23L31 22L30 22L30 21L29 21L29 23L31 23L31 24L33 24L33 21L32 21L32 20ZM19 21L19 22L20 22L20 23L22 23L22 24L23 24L23 23L25 23L25 22L24 22L24 21L23 21L23 23L22 23L22 22L21 22L21 21ZM15 23L15 25L16 25L16 23ZM20 24L20 26L19 26L19 27L20 27L20 26L21 26L21 27L24 27L24 26L23 26L23 25L21 25L21 24ZM25 25L25 28L28 28L28 25ZM32 25L32 26L31 26L31 31L33 31L33 27L32 27L32 26L33 26L33 25ZM10 26L10 32L11 32L11 31L12 31L12 32L13 32L13 30L14 30L14 29L13 29L13 28L12 28L12 26ZM26 26L26 27L27 27L27 26ZM11 28L11 29L12 29L12 28ZM20 28L20 29L19 29L19 31L20 31L20 32L21 32L21 31L22 31L22 32L24 32L24 30L25 30L25 29L24 29L24 28L23 28L23 29L22 29L22 30L20 30L20 29L21 29L21 28ZM31 32L31 33L32 33L32 32ZM0 0L0 7L7 7L7 0ZM1 1L1 6L6 6L6 1ZM2 2L2 5L5 5L5 2ZM26 0L26 7L33 7L33 0ZM27 1L27 6L32 6L32 1ZM28 2L28 5L31 5L31 2ZM0 26L0 33L7 33L7 26ZM1 27L1 32L6 32L6 27ZM2 28L2 31L5 31L5 28Z" fill="#000000"/></g></g></svg>
