<?xml version="1.0" encoding="UTF-8"?>
<svg xmlns="http://www.w3.org/2000/svg" version="1.1" width="600" height="600" viewBox="0 0 600 600"><rect x="0" y="0" width="600" height="600" fill="#ffffff"/><g transform="scale(15.385)"><g transform="translate(1,1)"><path fill-rule="evenodd" d="M9 0L9 1L8 1L8 3L9 3L9 4L8 4L8 8L6 8L6 9L5 9L5 10L4 10L4 8L3 8L3 10L2 10L2 8L0 8L0 9L1 9L1 11L0 11L0 12L1 12L1 11L3 11L3 12L2 12L2 16L3 16L3 17L0 17L0 18L3 18L3 21L2 21L2 22L3 22L3 23L4 23L4 22L5 22L5 23L7 23L7 22L6 22L6 21L8 21L8 19L9 19L9 18L10 18L10 19L11 19L11 20L10 20L10 21L9 21L9 23L8 23L8 24L5 24L5 26L4 26L4 25L3 25L3 24L2 24L2 23L1 23L1 19L0 19L0 23L1 23L1 24L0 24L0 25L1 25L1 26L0 26L0 27L1 27L1 28L0 28L0 29L3 29L3 28L4 28L4 27L7 27L7 28L6 28L6 29L8 29L8 31L9 31L9 33L8 33L8 34L9 34L9 35L8 35L8 37L9 37L9 35L10 35L10 37L11 37L11 35L10 35L10 34L9 34L9 33L11 33L11 34L12 34L12 33L11 33L11 32L10 32L10 31L9 31L9 29L10 29L10 30L11 30L11 31L12 31L12 32L13 32L13 30L14 30L14 32L18 32L18 33L17 33L17 34L16 34L16 35L14 35L14 36L15 36L15 37L19 37L19 36L20 36L20 37L22 37L22 35L23 35L23 36L24 36L24 37L26 37L26 35L27 35L27 37L30 37L30 36L31 36L31 37L33 37L33 35L34 35L34 34L35 34L35 35L37 35L37 34L35 34L35 33L37 33L37 32L36 32L36 31L37 31L37 29L36 29L36 30L35 30L35 28L36 28L36 27L37 27L37 24L35 24L35 25L34 25L34 24L33 24L33 23L34 23L34 22L35 22L35 23L37 23L37 20L36 20L36 19L37 19L37 16L36 16L36 15L37 15L37 13L36 13L36 14L35 14L35 16L34 16L34 20L36 20L36 22L35 22L35 21L34 21L34 22L31 22L31 20L32 20L32 21L33 21L33 19L32 19L32 18L33 18L33 17L32 17L32 18L31 18L31 16L32 16L32 15L34 15L34 14L32 14L32 13L31 13L31 12L34 12L34 11L35 11L35 10L36 10L36 12L37 12L37 9L36 9L36 8L34 8L34 10L32 10L32 9L33 9L33 8L30 8L30 9L29 9L29 8L27 8L27 9L26 9L26 8L24 8L24 7L25 7L25 6L26 6L26 7L27 7L27 6L28 6L28 7L29 7L29 5L28 5L28 4L29 4L29 2L28 2L28 1L29 1L29 0L27 0L27 1L26 1L26 0L23 0L23 1L22 1L22 0L21 0L21 2L19 2L19 1L20 1L20 0L18 0L18 1L17 1L17 0L16 0L16 1L14 1L14 0L12 0L12 1L11 1L11 2L9 2L9 1L10 1L10 0ZM16 1L16 2L14 2L14 3L16 3L16 4L15 4L15 8L14 8L14 6L13 6L13 3L12 3L12 4L9 4L9 5L10 5L10 6L9 6L9 7L10 7L10 8L8 8L8 9L10 9L10 8L11 8L11 9L12 9L12 10L8 10L8 11L6 11L6 10L7 10L7 9L6 9L6 10L5 10L5 11L6 11L6 12L5 12L5 13L3 13L3 14L4 14L4 15L5 15L5 14L7 14L7 13L6 13L6 12L8 12L8 13L10 13L10 14L8 14L8 16L7 16L7 15L6 15L6 16L7 16L7 17L6 17L6 18L7 18L7 19L5 19L5 16L4 16L4 20L7 20L7 19L8 19L8 18L7 18L7 17L11 17L11 19L12 19L12 20L13 20L13 21L14 21L14 22L15 22L15 21L16 21L16 20L15 20L15 19L17 19L17 18L18 18L18 17L16 17L16 18L15 18L15 17L13 17L13 16L12 16L12 14L11 14L11 13L12 13L12 12L13 12L13 15L15 15L15 16L16 16L16 15L15 15L15 13L16 13L16 14L17 14L17 13L16 13L16 12L19 12L19 13L20 13L20 14L19 14L19 15L18 15L18 16L20 16L20 15L21 15L21 12L19 12L19 11L16 11L16 10L17 10L17 9L18 9L18 8L17 8L17 7L18 7L18 5L20 5L20 4L21 4L21 5L23 5L23 7L24 7L24 5L23 5L23 4L22 4L22 3L23 3L23 2L21 2L21 3L20 3L20 4L19 4L19 3L16 3L16 2L17 2L17 1ZM25 2L25 4L26 4L26 6L27 6L27 4L26 4L26 2ZM27 2L27 3L28 3L28 2ZM16 4L16 5L18 5L18 4ZM11 5L11 6L10 6L10 7L11 7L11 6L12 6L12 8L13 8L13 6L12 6L12 5ZM16 6L16 7L17 7L17 6ZM19 6L19 8L21 8L21 7L22 7L22 6L21 6L21 7L20 7L20 6ZM15 8L15 9L14 9L14 10L16 10L16 8ZM19 9L19 10L20 10L20 11L22 11L22 12L23 12L23 13L22 13L22 14L25 14L25 15L28 15L28 14L29 14L29 15L30 15L30 16L31 16L31 15L32 15L32 14L31 14L31 15L30 15L30 13L29 13L29 12L30 12L30 11L32 11L32 10L30 10L30 11L28 11L28 10L29 10L29 9L27 9L27 10L26 10L26 9L25 9L25 10L24 10L24 9L23 9L23 11L22 11L22 10L21 10L21 9ZM3 10L3 11L4 11L4 10ZM25 10L25 11L24 11L24 12L25 12L25 13L26 13L26 10ZM10 11L10 13L11 13L11 11ZM14 11L14 12L16 12L16 11ZM0 13L0 16L1 16L1 13ZM9 15L9 16L11 16L11 17L12 17L12 16L11 16L11 15ZM22 16L22 17L24 17L24 16ZM25 16L25 17L27 17L27 18L22 18L22 25L23 25L23 26L22 26L22 28L23 28L23 29L22 29L22 30L23 30L23 32L22 32L22 34L21 34L21 33L20 33L20 32L19 32L19 31L21 31L21 30L20 30L20 29L21 29L21 28L20 28L20 26L21 26L21 24L19 24L19 22L20 22L20 23L21 23L21 21L20 21L20 20L19 20L19 19L21 19L21 17L19 17L19 19L18 19L18 20L17 20L17 21L18 21L18 20L19 20L19 22L18 22L18 23L17 23L17 22L16 22L16 23L14 23L14 24L12 24L12 28L11 28L11 25L9 25L9 27L8 27L8 28L10 28L10 29L11 29L11 30L12 30L12 28L14 28L14 29L15 29L15 31L18 31L18 32L19 32L19 34L18 34L18 35L17 35L17 36L19 36L19 34L20 34L20 36L21 36L21 35L22 35L22 34L23 34L23 35L24 35L24 36L25 36L25 35L24 35L24 34L25 34L25 32L26 32L26 30L28 30L28 26L29 26L29 27L30 27L30 28L31 28L31 27L30 27L30 25L28 25L28 24L27 24L27 23L28 23L28 21L27 21L27 20L29 20L29 23L30 23L30 20L31 20L31 19L28 19L28 16ZM35 16L35 17L36 17L36 16ZM29 17L29 18L30 18L30 17ZM13 18L13 20L14 20L14 21L15 21L15 20L14 20L14 18ZM23 19L23 21L24 21L24 20L25 20L25 21L26 21L26 22L24 22L24 23L23 23L23 24L25 24L25 25L26 25L26 26L25 26L25 27L24 27L24 26L23 26L23 28L24 28L24 29L23 29L23 30L24 30L24 32L23 32L23 33L24 33L24 32L25 32L25 30L26 30L26 29L27 29L27 28L26 28L26 27L27 27L27 24L26 24L26 23L27 23L27 21L26 21L26 20L25 20L25 19ZM3 21L3 22L4 22L4 21ZM10 21L10 22L11 22L11 21ZM16 23L16 24L14 24L14 25L13 25L13 27L15 27L15 28L16 28L16 29L18 29L18 31L19 31L19 29L20 29L20 28L19 28L19 27L18 27L18 26L17 26L17 25L19 25L19 26L20 26L20 25L19 25L19 24L17 24L17 23ZM1 24L1 25L2 25L2 26L1 26L1 27L2 27L2 26L3 26L3 27L4 27L4 26L3 26L3 25L2 25L2 24ZM32 24L32 26L33 26L33 24ZM6 25L6 26L8 26L8 25ZM35 25L35 26L34 26L34 28L33 28L33 27L32 27L32 28L33 28L33 30L34 30L34 28L35 28L35 27L36 27L36 25ZM15 26L15 27L17 27L17 26ZM25 28L25 29L26 29L26 28ZM29 29L29 32L32 32L32 29ZM30 30L30 31L31 31L31 30ZM27 31L27 33L26 33L26 34L28 34L28 35L32 35L32 33L30 33L30 34L29 34L29 33L28 33L28 31ZM33 31L33 33L35 33L35 32L34 32L34 31ZM14 33L14 34L15 34L15 33ZM12 36L12 37L13 37L13 36ZM35 36L35 37L37 37L37 36ZM0 0L0 7L7 7L7 0ZM1 1L1 6L6 6L6 1ZM2 2L2 5L5 5L5 2ZM30 0L30 7L37 7L37 0ZM31 1L31 6L36 6L36 1ZM32 2L32 5L35 5L35 2ZM0 30L0 37L7 37L7 30ZM1 31L1 36L6 36L6 31ZM2 32L2 35L5 35L5 32Z" fill="#000000"/></g></g></svg>
