<?xml version="1.0" encoding="UTF-8"?>
<svg xmlns="http://www.w3.org/2000/svg" version="1.1" width="600" height="600" viewBox="0 0 600 600"><rect x="0" y="0" width="600" height="600" fill="#ffffff"/><g transform="scale(17.143)"><g transform="translate(1,1)"><path fill-rule="evenodd" d="M10 0L10 2L11 2L11 0ZM12 0L12 1L13 1L13 2L12 2L12 4L13 4L13 5L11 5L11 6L10 6L10 4L11 4L11 3L8 3L8 4L9 4L9 5L8 5L8 7L9 7L9 8L6 8L6 9L7 9L7 10L6 10L6 11L5 11L5 10L4 10L4 9L5 9L5 8L0 8L0 9L3 9L3 10L0 10L0 11L1 11L1 12L0 12L0 13L1 13L1 12L2 12L2 11L3 11L3 12L4 12L4 14L6 14L6 15L7 15L7 14L8 14L8 13L9 13L9 14L10 14L10 15L9 15L9 16L8 16L8 17L9 17L9 16L10 16L10 17L12 17L12 18L13 18L13 19L12 19L12 21L14 21L14 22L10 22L10 21L11 21L11 19L9 19L9 18L6 18L6 17L7 17L7 16L5 16L5 18L4 18L4 19L3 19L3 18L1 18L1 21L0 21L0 25L1 25L1 21L2 21L2 20L3 20L3 21L4 21L4 19L5 19L5 23L4 23L4 22L3 22L3 23L2 23L2 24L3 24L3 25L5 25L5 24L6 24L6 25L7 25L7 24L8 24L8 27L9 27L9 28L8 28L8 33L9 33L9 29L11 29L11 28L10 28L10 27L11 27L11 25L12 25L12 26L13 26L13 27L12 27L12 29L13 29L13 28L14 28L14 29L16 29L16 30L15 30L15 31L14 31L14 32L15 32L15 33L19 33L19 32L20 32L20 31L19 31L19 30L21 30L21 32L22 32L22 33L23 33L23 32L24 32L24 33L25 33L25 32L24 32L24 31L27 31L27 32L28 32L28 33L29 33L29 31L30 31L30 32L31 32L31 33L32 33L32 32L31 32L31 31L32 31L32 30L31 30L31 29L30 29L30 28L32 28L32 26L33 26L33 24L32 24L32 26L31 26L31 25L30 25L30 24L31 24L31 23L32 23L32 22L33 22L33 21L32 21L32 20L31 20L31 19L32 19L32 18L33 18L33 17L32 17L32 16L31 16L31 15L32 15L32 14L33 14L33 13L31 13L31 15L30 15L30 13L29 13L29 10L28 10L28 8L27 8L27 9L26 9L26 8L24 8L24 7L25 7L25 5L24 5L24 4L23 4L23 5L22 5L22 7L21 7L21 5L20 5L20 4L21 4L21 3L23 3L23 2L19 2L19 1L20 1L20 0L19 0L19 1L18 1L18 0L16 0L16 1L15 1L15 2L14 2L14 1L13 1L13 0ZM21 0L21 1L24 1L24 2L25 2L25 1L24 1L24 0ZM8 1L8 2L9 2L9 1ZM16 1L16 2L15 2L15 3L14 3L14 2L13 2L13 3L14 3L14 4L15 4L15 5L13 5L13 7L12 7L12 6L11 6L11 7L12 7L12 9L11 9L11 8L10 8L10 9L9 9L9 10L8 10L8 11L6 11L6 12L7 12L7 13L6 13L6 14L7 14L7 13L8 13L8 11L9 11L9 12L11 12L11 13L10 13L10 14L14 14L14 15L12 15L12 17L13 17L13 18L14 18L14 17L15 17L15 18L16 18L16 17L17 17L17 18L19 18L19 19L17 19L17 20L19 20L19 21L18 21L18 22L17 22L17 21L15 21L15 20L14 20L14 19L13 19L13 20L14 20L14 21L15 21L15 22L14 22L14 23L12 23L12 25L14 25L14 26L16 26L16 27L14 27L14 28L16 28L16 29L17 29L17 30L16 30L16 32L19 32L19 31L17 31L17 30L19 30L19 29L23 29L23 31L22 31L22 32L23 32L23 31L24 31L24 27L23 27L23 26L24 26L24 25L23 25L23 24L20 24L20 23L21 23L21 22L22 22L22 21L24 21L24 22L23 22L23 23L24 23L24 24L27 24L27 22L25 22L25 21L27 21L27 20L28 20L28 19L26 19L26 18L25 18L25 17L28 17L28 18L29 18L29 17L30 17L30 19L29 19L29 20L30 20L30 21L28 21L28 24L30 24L30 23L29 23L29 22L30 22L30 21L31 21L31 20L30 20L30 19L31 19L31 16L30 16L30 15L29 15L29 13L28 13L28 16L26 16L26 14L25 14L25 13L27 13L27 12L28 12L28 11L27 11L27 10L25 10L25 9L24 9L24 10L22 10L22 9L23 9L23 8L21 8L21 7L20 7L20 5L19 5L19 7L18 7L18 4L20 4L20 3L18 3L18 1ZM15 3L15 4L16 4L16 5L15 5L15 6L14 6L14 8L13 8L13 9L12 9L12 10L13 10L13 11L12 11L12 13L15 13L15 12L16 12L16 13L18 13L18 14L15 14L15 15L19 15L19 14L20 14L20 13L21 13L21 12L22 12L22 10L21 10L21 12L20 12L20 11L19 11L19 10L20 10L20 9L21 9L21 8L20 8L20 7L19 7L19 8L20 8L20 9L18 9L18 8L17 8L17 4L18 4L18 3L17 3L17 4L16 4L16 3ZM23 5L23 7L24 7L24 5ZM9 6L9 7L10 7L10 6ZM15 6L15 7L16 7L16 6ZM14 8L14 9L13 9L13 10L14 10L14 9L15 9L15 10L16 10L16 12L18 12L18 13L20 13L20 12L18 12L18 11L17 11L17 10L18 10L18 9L15 9L15 8ZM29 8L29 9L30 9L30 8ZM31 8L31 10L33 10L33 9L32 9L32 8ZM10 9L10 11L11 11L11 9ZM13 11L13 12L14 12L14 11ZM25 11L25 12L24 12L24 13L22 13L22 15L21 15L21 16L20 16L20 17L19 17L19 16L17 16L17 17L19 17L19 18L20 18L20 17L21 17L21 20L22 20L22 19L23 19L23 18L24 18L24 17L23 17L23 16L24 16L24 15L25 15L25 14L24 14L24 13L25 13L25 12L26 12L26 11ZM30 11L30 12L31 12L31 11ZM2 13L2 14L0 14L0 15L1 15L1 16L0 16L0 17L4 17L4 16L3 16L3 15L2 15L2 14L3 14L3 13ZM23 14L23 15L24 15L24 14ZM13 16L13 17L14 17L14 16ZM15 16L15 17L16 17L16 16ZM21 16L21 17L22 17L22 16ZM28 16L28 17L29 17L29 16ZM5 18L5 19L6 19L6 20L7 20L7 21L6 21L6 22L7 22L7 23L6 23L6 24L7 24L7 23L8 23L8 24L10 24L10 22L9 22L9 23L8 23L8 21L10 21L10 20L8 20L8 19L6 19L6 18ZM19 19L19 20L20 20L20 19ZM24 20L24 21L25 21L25 20ZM19 21L19 22L18 22L18 23L19 23L19 22L21 22L21 21ZM15 22L15 23L14 23L14 24L15 24L15 25L19 25L19 26L17 26L17 27L19 27L19 28L17 28L17 29L19 29L19 28L22 28L22 27L19 27L19 26L23 26L23 25L19 25L19 24L17 24L17 22ZM15 23L15 24L16 24L16 23ZM9 25L9 26L10 26L10 25ZM25 25L25 28L28 28L28 25ZM29 25L29 28L30 28L30 27L31 27L31 26L30 26L30 25ZM26 26L26 27L27 27L27 26ZM25 29L25 30L28 30L28 31L29 31L29 30L28 30L28 29ZM10 30L10 31L11 31L11 32L10 32L10 33L12 33L12 31L13 31L13 30ZM30 30L30 31L31 31L31 30ZM0 0L0 7L7 7L7 0ZM1 1L1 6L6 6L6 1ZM2 2L2 5L5 5L5 2ZM26 0L26 7L33 7L33 0ZM27 1L27 6L32 6L32 1ZM28 2L28 5L31 5L31 2ZM0 26L0 33L7 33L7 26ZM1 27L1 32L6 32L6 27ZM2 28L2 31L5 31L5 28Z" fill="#000000"/></g></g></svg>
