<?xml version="1.0" encoding="UTF-8"?>
<svg xmlns="http://www.w3.org/2000/svg" version="1.1" width="600" height="600" viewBox="0 0 600 600"><rect x="0" y="0" width="600" height="600" fill="#ffffff"/><g transform="scale(17.143)"><g transform="translate(1,1)"><path fill-rule="evenodd" d="M11 0L11 1L9 1L9 2L11 2L11 1L13 1L13 2L12 2L12 4L14 4L14 5L15 5L15 3L13 3L13 2L14 2L14 1L15 1L15 0ZM17 0L17 1L16 1L16 3L17 3L17 4L18 4L18 5L16 5L16 8L15 8L15 6L14 6L14 8L13 8L13 9L12 9L12 7L13 7L13 5L11 5L11 6L10 6L10 8L9 8L9 10L5 10L5 9L8 9L8 8L5 8L5 9L4 9L4 10L3 10L3 9L2 9L2 8L0 8L0 9L2 9L2 10L0 10L0 13L1 13L1 16L0 16L0 20L1 20L1 21L0 21L0 25L2 25L2 24L3 24L3 25L5 25L5 24L6 24L6 25L8 25L8 28L9 28L9 31L8 31L8 33L9 33L9 31L10 31L10 32L11 32L11 33L12 33L12 31L14 31L14 32L15 32L15 33L16 33L16 32L17 32L17 33L18 33L18 32L17 32L17 31L19 31L19 32L20 32L20 31L21 31L21 30L20 30L20 29L21 29L21 27L19 27L19 28L17 28L17 23L16 23L16 22L17 22L17 21L19 21L19 22L18 22L18 25L19 25L19 26L21 26L21 23L22 23L22 24L24 24L24 26L23 26L23 27L24 27L24 30L23 30L23 29L22 29L22 30L23 30L23 31L22 31L22 33L23 33L23 32L24 32L24 33L25 33L25 32L24 32L24 31L25 31L25 29L27 29L27 31L28 31L28 33L29 33L29 30L31 30L31 29L30 29L30 28L33 28L33 27L32 27L32 26L33 26L33 25L32 25L32 24L31 24L31 23L32 23L32 20L31 20L31 19L30 19L30 20L29 20L29 19L28 19L28 18L27 18L27 17L25 17L25 19L26 19L26 18L27 18L27 21L28 21L28 22L27 22L27 23L28 23L28 22L29 22L29 23L30 23L30 24L31 24L31 25L30 25L30 26L31 26L31 27L30 27L30 28L29 28L29 24L24 24L24 23L23 23L23 22L24 22L24 21L25 21L25 22L26 22L26 21L25 21L25 20L24 20L24 21L23 21L23 22L22 22L22 21L21 21L21 20L16 20L16 19L20 19L20 17L21 17L21 15L19 15L19 16L17 16L17 15L16 15L16 12L15 12L15 11L17 11L17 10L18 10L18 12L19 12L19 13L18 13L18 14L22 14L22 15L23 15L23 16L22 16L22 18L21 18L21 19L22 19L22 18L23 18L23 19L24 19L24 17L23 17L23 16L24 16L24 15L25 15L25 14L26 14L26 15L28 15L28 17L29 17L29 18L30 18L30 17L29 17L29 15L30 15L30 16L31 16L31 18L32 18L32 19L33 19L33 17L32 17L32 16L33 16L33 15L32 15L32 14L33 14L33 12L31 12L31 11L30 11L30 12L29 12L29 9L30 9L30 8L28 8L28 10L27 10L27 12L26 12L26 11L25 11L25 12L23 12L23 11L22 11L22 10L21 10L21 8L20 8L20 9L19 9L19 8L17 8L17 6L18 6L18 7L19 7L19 5L20 5L20 4L18 4L18 3L17 3L17 2L19 2L19 3L20 3L20 2L19 2L19 1L18 1L18 0ZM20 0L20 1L21 1L21 4L23 4L23 5L21 5L21 6L20 6L20 7L21 7L21 6L22 6L22 8L23 8L23 10L24 10L24 9L25 9L25 10L26 10L26 9L25 9L25 8L24 8L24 7L25 7L25 5L24 5L24 4L23 4L23 2L22 2L22 0ZM24 1L24 2L25 2L25 1ZM8 3L8 5L10 5L10 4L9 4L9 3ZM23 5L23 7L24 7L24 5ZM8 6L8 7L9 7L9 6ZM11 6L11 7L12 7L12 6ZM10 8L10 10L9 10L9 11L10 11L10 14L13 14L13 15L12 15L12 17L11 17L11 18L12 18L12 19L11 19L11 22L9 22L9 21L10 21L10 20L9 20L9 18L10 18L10 17L8 17L8 16L9 16L9 15L8 15L8 14L9 14L9 12L8 12L8 11L6 11L6 12L7 12L7 13L5 13L5 14L4 14L4 11L5 11L5 10L4 10L4 11L3 11L3 14L2 14L2 16L1 16L1 17L2 17L2 16L3 16L3 18L4 18L4 19L5 19L5 20L2 20L2 21L1 21L1 24L2 24L2 22L3 22L3 24L5 24L5 23L6 23L6 24L8 24L8 25L10 25L10 26L9 26L9 28L10 28L10 31L12 31L12 30L15 30L15 29L16 29L16 30L19 30L19 29L20 29L20 28L19 28L19 29L16 29L16 27L15 27L15 29L14 29L14 28L13 28L13 29L12 29L12 27L13 27L13 26L12 26L12 25L13 25L13 24L14 24L14 23L12 23L12 24L10 24L10 23L11 23L11 22L15 22L15 20L14 20L14 19L13 19L13 18L12 18L12 17L13 17L13 16L14 16L14 17L15 17L15 14L13 14L13 13L14 13L14 11L15 11L15 10L14 10L14 9L13 9L13 10L12 10L12 9L11 9L11 8ZM16 8L16 10L17 10L17 8ZM18 9L18 10L19 10L19 12L20 12L20 11L21 11L21 13L22 13L22 11L21 11L21 10L19 10L19 9ZM31 9L31 10L32 10L32 9ZM10 10L10 11L11 11L11 10ZM13 10L13 11L12 11L12 12L11 12L11 13L13 13L13 11L14 11L14 10ZM1 11L1 12L2 12L2 11ZM28 12L28 13L27 13L27 14L28 14L28 15L29 15L29 12ZM30 12L30 15L31 15L31 16L32 16L32 15L31 15L31 12ZM24 13L24 14L23 14L23 15L24 15L24 14L25 14L25 13ZM3 14L3 15L4 15L4 16L5 16L5 15L4 15L4 14ZM6 14L6 15L7 15L7 16L6 16L6 17L7 17L7 18L6 18L6 19L7 19L7 20L5 20L5 21L4 21L4 22L6 22L6 23L9 23L9 22L8 22L8 21L9 21L9 20L8 20L8 17L7 17L7 16L8 16L8 15L7 15L7 14ZM10 15L10 16L11 16L11 15ZM19 16L19 17L16 17L16 18L19 18L19 17L20 17L20 16ZM4 17L4 18L5 18L5 17ZM12 19L12 21L14 21L14 20L13 20L13 19ZM30 20L30 21L29 21L29 22L30 22L30 21L31 21L31 20ZM6 21L6 22L7 22L7 21ZM19 22L19 24L20 24L20 23L21 23L21 22ZM15 23L15 24L16 24L16 23ZM14 25L14 26L15 26L15 25ZM25 25L25 28L28 28L28 25ZM31 25L31 26L32 26L32 25ZM10 26L10 27L11 27L11 26ZM26 26L26 27L27 27L27 26ZM32 30L32 31L33 31L33 30ZM15 31L15 32L16 32L16 31ZM30 31L30 32L31 32L31 33L32 33L32 32L31 32L31 31ZM0 0L0 7L7 7L7 0ZM1 1L1 6L6 6L6 1ZM2 2L2 5L5 5L5 2ZM26 0L26 7L33 7L33 0ZM27 1L27 6L32 6L32 1ZM28 2L28 5L31 5L31 2ZM0 26L0 33L7 33L7 26ZM1 27L1 32L6 32L6 27ZM2 28L2 31L5 31L5 28Z" fill="#000000"/></g></g></svg>
