<?xml version="1.0" encoding="UTF-8"?>
<svg xmlns="http://www.w3.org/2000/svg" version="1.1" width="600" height="600" viewBox="0 0 600 600"><rect x="0" y="0" width="600" height="600" fill="#ffffff"/><g transform="scale(17.143)"><g transform="translate(1,1)"><path fill-rule="evenodd" d="M9 0L9 1L11 1L11 2L9 2L9 3L8 3L8 5L9 5L9 6L8 6L8 7L9 7L9 9L8 9L8 8L5 8L5 9L7 9L7 10L4 10L4 9L3 9L3 10L2 10L2 8L0 8L0 9L1 9L1 11L0 11L0 12L2 12L2 13L0 13L0 14L1 14L1 15L2 15L2 13L3 13L3 14L5 14L5 15L7 15L7 14L5 14L5 13L8 13L8 14L9 14L9 15L8 15L8 16L6 16L6 17L5 17L5 16L1 16L1 19L0 19L0 25L3 25L3 24L1 24L1 22L2 22L2 21L1 21L1 19L3 19L3 20L4 20L4 19L5 19L5 18L6 18L6 19L7 19L7 20L6 20L6 21L5 21L5 22L4 22L4 24L5 24L5 25L8 25L8 28L9 28L9 27L10 27L10 28L11 28L11 29L12 29L12 30L11 30L11 31L12 31L12 33L13 33L13 32L14 32L14 33L19 33L19 31L20 31L20 32L21 32L21 30L20 30L20 29L21 29L21 27L24 27L24 30L23 30L23 29L22 29L22 30L23 30L23 32L22 32L22 33L23 33L23 32L24 32L24 33L25 33L25 32L24 32L24 31L25 31L25 29L27 29L27 31L28 31L28 33L29 33L29 30L31 30L31 29L30 29L30 28L31 28L31 27L32 27L32 26L33 26L33 25L32 25L32 24L31 24L31 23L32 23L32 20L31 20L31 19L30 19L30 20L29 20L29 19L28 19L28 18L27 18L27 17L25 17L25 19L26 19L26 18L27 18L27 21L28 21L28 22L27 22L27 23L28 23L28 22L29 22L29 23L30 23L30 24L31 24L31 25L30 25L30 26L31 26L31 27L30 27L30 28L29 28L29 24L24 24L24 23L23 23L23 22L24 22L24 21L25 21L25 22L26 22L26 21L25 21L25 20L24 20L24 21L23 21L23 19L24 19L24 17L19 17L19 16L21 16L21 15L23 15L23 16L24 16L24 15L25 15L25 14L26 14L26 15L28 15L28 17L29 17L29 18L30 18L30 17L29 17L29 15L30 15L30 16L31 16L31 18L32 18L32 19L33 19L33 17L32 17L32 16L33 16L33 15L32 15L32 14L33 14L33 12L31 12L31 11L30 11L30 12L29 12L29 9L30 9L30 8L28 8L28 10L27 10L27 12L26 12L26 11L25 11L25 12L23 12L23 11L22 11L22 10L21 10L21 8L20 8L20 9L19 9L19 5L20 5L20 7L21 7L21 6L22 6L22 8L23 8L23 10L24 10L24 9L25 9L25 10L26 10L26 9L25 9L25 8L24 8L24 7L25 7L25 5L24 5L24 4L23 4L23 2L22 2L22 0L21 0L21 1L20 1L20 2L19 2L19 0L17 0L17 2L18 2L18 3L17 3L17 5L18 5L18 8L17 8L17 6L16 6L16 8L15 8L15 5L14 5L14 8L13 8L13 6L12 6L12 9L14 9L14 10L15 10L15 11L14 11L14 16L13 16L13 15L12 15L12 17L15 17L15 18L14 18L14 20L13 20L13 21L12 21L12 19L13 19L13 18L12 18L12 19L10 19L10 17L11 17L11 16L10 16L10 14L11 14L11 12L12 12L12 11L13 11L13 10L11 10L11 8L10 8L10 7L11 7L11 4L12 4L12 5L13 5L13 4L14 4L14 3L13 3L13 4L12 4L12 2L14 2L14 1L15 1L15 0L13 0L13 1L12 1L12 0ZM24 1L24 2L25 2L25 1ZM15 2L15 4L16 4L16 2ZM9 3L9 5L10 5L10 3ZM19 3L19 4L18 4L18 5L19 5L19 4L20 4L20 5L23 5L23 7L24 7L24 5L23 5L23 4L21 4L21 3ZM9 6L9 7L10 7L10 6ZM16 8L16 11L15 11L15 12L16 12L16 17L17 17L17 18L19 18L19 17L17 17L17 16L18 16L18 14L19 14L19 15L21 15L21 14L22 14L22 11L21 11L21 10L19 10L19 9L18 9L18 10L17 10L17 8ZM9 9L9 10L7 10L7 11L6 11L6 12L7 12L7 11L9 11L9 12L10 12L10 11L11 11L11 10L10 10L10 9ZM31 9L31 10L32 10L32 9ZM9 10L9 11L10 11L10 10ZM18 10L18 13L19 13L19 14L20 14L20 12L21 12L21 11L20 11L20 12L19 12L19 10ZM2 11L2 12L3 12L3 13L4 13L4 12L3 12L3 11ZM28 12L28 13L27 13L27 14L28 14L28 15L29 15L29 12ZM30 12L30 15L31 15L31 16L32 16L32 15L31 15L31 12ZM12 13L12 14L13 14L13 13ZM24 13L24 14L23 14L23 15L24 15L24 14L25 14L25 13ZM8 16L8 17L9 17L9 16ZM6 17L6 18L7 18L7 17ZM3 18L3 19L4 19L4 18ZM8 18L8 20L10 20L10 19L9 19L9 18ZM21 18L21 22L19 22L19 21L20 21L20 20L19 20L19 21L17 21L17 23L15 23L15 21L16 21L16 20L18 20L18 19L15 19L15 20L14 20L14 21L13 21L13 22L12 22L12 21L11 21L11 22L10 22L10 21L6 21L6 22L5 22L5 24L8 24L8 25L9 25L9 26L14 26L14 27L12 27L12 29L14 29L14 30L12 30L12 31L14 31L14 32L15 32L15 28L16 28L16 27L17 27L17 28L18 28L18 29L16 29L16 30L18 30L18 31L16 31L16 32L18 32L18 31L19 31L19 30L18 30L18 29L20 29L20 26L21 26L21 25L22 25L22 24L23 24L23 26L24 26L24 24L23 24L23 23L21 23L21 22L23 22L23 21L22 21L22 19L23 19L23 18ZM30 20L30 21L29 21L29 22L30 22L30 21L31 21L31 20ZM6 22L6 23L8 23L8 24L9 24L9 25L13 25L13 23L14 23L14 22L13 22L13 23L12 23L12 24L9 24L9 23L10 23L10 22ZM19 23L19 25L18 25L18 27L19 27L19 26L20 26L20 24L21 24L21 23ZM14 24L14 26L15 26L15 27L14 27L14 28L15 28L15 27L16 27L16 26L17 26L17 24ZM25 25L25 28L28 28L28 25ZM31 25L31 26L32 26L32 25ZM26 26L26 27L27 27L27 26ZM9 29L9 31L8 31L8 33L10 33L10 29ZM32 30L32 31L33 31L33 30ZM30 31L30 32L31 32L31 33L32 33L32 32L31 32L31 31ZM0 0L0 7L7 7L7 0ZM1 1L1 6L6 6L6 1ZM2 2L2 5L5 5L5 2ZM26 0L26 7L33 7L33 0ZM27 1L27 6L32 6L32 1ZM28 2L28 5L31 5L31 2ZM0 26L0 33L7 33L7 26ZM1 27L1 32L6 32L6 27ZM2 28L2 31L5 31L5 28Z" fill="#000000"/></g></g></svg>
