<?xml version="1.0" encoding="UTF-8"?>
<svg xmlns="http://www.w3.org/2000/svg" version="1.1" width="600" height="600" viewBox="0 0 600 600"><rect x="0" y="0" width="600" height="600" fill="#ffffff"/><g transform="scale(17.143)"><g transform="translate(1,1)"><path fill-rule="evenodd" d="M8 0L8 4L10 4L10 3L11 3L11 4L12 4L12 2L11 2L11 0ZM12 0L12 1L14 1L14 2L15 2L15 1L17 1L17 0ZM20 0L20 1L19 1L19 2L21 2L21 3L19 3L19 4L20 4L20 5L19 5L19 6L18 6L18 5L17 5L17 3L18 3L18 2L16 2L16 3L15 3L15 5L14 5L14 3L13 3L13 5L11 5L11 6L10 6L10 7L9 7L9 5L8 5L8 7L9 7L9 8L10 8L10 7L11 7L11 6L12 6L12 8L11 8L11 9L9 9L9 10L11 10L11 11L10 11L10 13L8 13L8 12L9 12L9 11L8 11L8 12L6 12L6 13L5 13L5 11L7 11L7 10L5 10L5 9L7 9L7 8L4 8L4 9L2 9L2 8L0 8L0 9L2 9L2 10L0 10L0 12L1 12L1 13L3 13L3 14L2 14L2 15L0 15L0 17L3 17L3 18L2 18L2 19L3 19L3 20L2 20L2 21L0 21L0 22L2 22L2 23L3 23L3 24L0 24L0 25L3 25L3 24L4 24L4 23L5 23L5 21L7 21L7 22L6 22L6 23L7 23L7 24L5 24L5 25L8 25L8 26L9 26L9 25L10 25L10 27L11 27L11 28L12 28L12 29L13 29L13 30L14 30L14 31L16 31L16 32L17 32L17 33L18 33L18 31L16 31L16 30L17 30L17 29L18 29L18 30L19 30L19 29L20 29L20 30L21 30L21 31L20 31L20 32L19 32L19 33L29 33L29 32L30 32L30 31L32 31L32 30L33 30L33 27L32 27L32 24L31 24L31 29L30 29L30 28L29 28L29 26L30 26L30 25L29 25L29 24L28 24L28 23L30 23L30 21L29 21L29 18L30 18L30 19L32 19L32 18L30 18L30 17L29 17L29 16L30 16L30 15L32 15L32 14L30 14L30 13L29 13L29 12L30 12L30 11L31 11L31 10L28 10L28 8L27 8L27 10L26 10L26 9L25 9L25 10L24 10L24 9L23 9L23 5L24 5L24 8L25 8L25 5L24 5L24 3L25 3L25 2L23 2L23 1L24 1L24 0L23 0L23 1L22 1L22 0ZM9 2L9 3L10 3L10 2ZM21 3L21 5L20 5L20 6L19 6L19 7L18 7L18 6L17 6L17 5L15 5L15 7L14 7L14 6L13 6L13 8L12 8L12 9L11 9L11 10L12 10L12 9L16 9L16 10L18 10L18 9L19 9L19 11L18 11L18 12L21 12L21 11L22 11L22 14L21 14L21 13L17 13L17 11L16 11L16 12L15 12L15 13L14 13L14 11L15 11L15 10L13 10L13 11L12 11L12 12L11 12L11 13L10 13L10 16L9 16L9 14L7 14L7 13L6 13L6 14L5 14L5 13L4 13L4 14L3 14L3 15L2 15L2 16L3 16L3 17L4 17L4 18L3 18L3 19L4 19L4 18L5 18L5 20L7 20L7 19L6 19L6 18L7 18L7 17L6 17L6 16L9 16L9 17L8 17L8 18L9 18L9 17L10 17L10 18L12 18L12 17L17 17L17 18L16 18L16 19L17 19L17 18L18 18L18 17L19 17L19 19L18 19L18 21L16 21L16 20L15 20L15 21L14 21L14 19L15 19L15 18L13 18L13 19L12 19L12 20L11 20L11 21L10 21L10 19L9 19L9 21L10 21L10 22L8 22L8 23L11 23L11 24L10 24L10 25L11 25L11 26L12 26L12 25L14 25L14 26L15 26L15 25L16 25L16 27L15 27L15 29L14 29L14 27L12 27L12 28L13 28L13 29L14 29L14 30L15 30L15 29L17 29L17 28L16 28L16 27L17 27L17 26L18 26L18 29L19 29L19 27L20 27L20 29L21 29L21 26L22 26L22 27L23 27L23 28L22 28L22 29L24 29L24 26L22 26L22 25L21 25L21 23L22 23L22 24L23 24L23 25L24 25L24 24L26 24L26 23L23 23L23 22L20 22L20 21L21 21L21 20L20 20L20 19L21 19L21 18L22 18L22 17L23 17L23 16L24 16L24 15L23 15L23 13L24 13L24 14L25 14L25 17L26 17L26 18L24 18L24 19L26 19L26 20L27 20L27 21L26 21L26 22L27 22L27 23L28 23L28 22L29 22L29 21L28 21L28 19L27 19L27 17L26 17L26 15L30 15L30 14L29 14L29 13L28 13L28 14L27 14L27 13L26 13L26 12L25 12L25 13L24 13L24 12L23 12L23 11L22 11L22 9L21 9L21 7L22 7L22 4L23 4L23 3ZM16 6L16 7L15 7L15 8L16 8L16 9L18 9L18 7L17 7L17 6ZM20 6L20 7L21 7L21 6ZM16 7L16 8L17 8L17 7ZM29 8L29 9L33 9L33 8ZM20 9L20 11L21 11L21 9ZM4 10L4 11L3 11L3 12L4 12L4 11L5 11L5 10ZM1 11L1 12L2 12L2 11ZM12 12L12 13L13 13L13 15L12 15L12 16L11 16L11 17L12 17L12 16L13 16L13 15L14 15L14 13L13 13L13 12ZM31 12L31 13L33 13L33 12ZM15 13L15 15L16 15L16 16L17 16L17 17L18 17L18 16L19 16L19 17L20 17L20 18L21 18L21 17L22 17L22 15L21 15L21 14L20 14L20 15L21 15L21 17L20 17L20 16L19 16L19 15L16 15L16 14L17 14L17 13ZM4 14L4 17L5 17L5 18L6 18L6 17L5 17L5 14ZM6 14L6 15L7 15L7 14ZM32 16L32 17L33 17L33 16ZM28 17L28 18L29 18L29 17ZM0 18L0 19L1 19L1 18ZM22 19L22 21L24 21L24 22L25 22L25 20L23 20L23 19ZM3 20L3 21L4 21L4 20ZM12 20L12 21L13 21L13 22L14 22L14 21L13 21L13 20ZM19 20L19 21L18 21L18 22L16 22L16 21L15 21L15 24L14 24L14 25L15 25L15 24L16 24L16 25L19 25L19 23L18 23L18 22L19 22L19 21L20 21L20 20ZM32 20L32 21L33 21L33 20ZM27 21L27 22L28 22L28 21ZM3 22L3 23L4 23L4 22ZM31 22L31 23L32 23L32 22ZM12 23L12 24L11 24L11 25L12 25L12 24L13 24L13 23ZM16 23L16 24L17 24L17 23ZM8 24L8 25L9 25L9 24ZM20 25L20 26L21 26L21 25ZM25 25L25 28L28 28L28 25ZM26 26L26 27L27 27L27 26ZM8 27L8 29L10 29L10 28L9 28L9 27ZM25 29L25 30L22 30L22 32L23 32L23 31L25 31L25 30L26 30L26 29ZM27 29L27 31L26 31L26 32L28 32L28 29ZM29 29L29 31L30 31L30 29ZM10 30L10 32L9 32L9 31L8 31L8 33L10 33L10 32L11 32L11 33L15 33L15 32L13 32L13 31L12 31L12 32L11 32L11 30ZM32 32L32 33L33 33L33 32ZM0 0L0 7L7 7L7 0ZM1 1L1 6L6 6L6 1ZM2 2L2 5L5 5L5 2ZM26 0L26 7L33 7L33 0ZM27 1L27 6L32 6L32 1ZM28 2L28 5L31 5L31 2ZM0 26L0 33L7 33L7 26ZM1 27L1 32L6 32L6 27ZM2 28L2 31L5 31L5 28Z" fill="#000000"/></g></g></svg>
