<?xml version="1.0" encoding="UTF-8"?>
<svg xmlns="http://www.w3.org/2000/svg" version="1.1" width="600" height="600" viewBox="0 0 600 600"><rect x="0" y="0" width="600" height="600" fill="#ffffff"/><g transform="scale(17.143)"><g transform="translate(1,1)"><path fill-rule="evenodd" d="M9 0L9 1L8 1L8 2L9 2L9 3L8 3L8 4L10 4L10 7L11 7L11 4L12 4L12 5L13 5L13 6L12 6L12 9L14 9L14 12L13 12L13 13L12 13L12 11L13 11L13 10L11 10L11 11L10 11L10 9L11 9L11 8L6 8L6 9L8 9L8 10L6 10L6 11L5 11L5 10L4 10L4 9L5 9L5 8L0 8L0 10L2 10L2 12L1 12L1 13L3 13L3 14L0 14L0 17L2 17L2 19L3 19L3 17L4 17L4 18L6 18L6 19L8 19L8 20L9 20L9 22L11 22L11 21L12 21L12 22L13 22L13 23L12 23L12 25L14 25L14 26L11 26L11 23L9 23L9 24L10 24L10 25L8 25L8 27L9 27L9 28L8 28L8 33L9 33L9 32L10 32L10 29L9 29L9 28L10 28L10 27L11 27L11 29L12 29L12 30L13 30L13 31L12 31L12 33L13 33L13 32L14 32L14 33L21 33L21 32L24 32L24 33L25 33L25 32L24 32L24 31L27 31L27 32L28 32L28 33L29 33L29 31L30 31L30 32L31 32L31 33L32 33L32 32L31 32L31 31L32 31L32 30L31 30L31 29L30 29L30 28L31 28L31 27L32 27L32 28L33 28L33 27L32 27L32 26L33 26L33 24L32 24L32 26L31 26L31 25L30 25L30 24L31 24L31 23L32 23L32 22L33 22L33 21L32 21L32 20L31 20L31 19L32 19L32 18L33 18L33 17L32 17L32 16L31 16L31 15L32 15L32 14L33 14L33 13L31 13L31 15L30 15L30 13L29 13L29 10L28 10L28 8L27 8L27 9L26 9L26 8L24 8L24 7L25 7L25 5L24 5L24 4L23 4L23 5L22 5L22 7L21 7L21 6L20 6L20 7L19 7L19 6L18 6L18 7L19 7L19 8L20 8L20 9L18 9L18 8L17 8L17 6L16 6L16 5L15 5L15 6L14 6L14 5L13 5L13 4L15 4L15 3L16 3L16 4L19 4L19 5L20 5L20 4L21 4L21 3L23 3L23 2L19 2L19 3L16 3L16 2L18 2L18 1L15 1L15 0L13 0L13 1L11 1L11 2L10 2L10 0ZM19 0L19 1L20 1L20 0ZM21 0L21 1L24 1L24 2L25 2L25 1L24 1L24 0ZM13 1L13 2L12 2L12 4L13 4L13 3L15 3L15 1ZM10 3L10 4L11 4L11 3ZM19 3L19 4L20 4L20 3ZM8 5L8 7L9 7L9 5ZM23 5L23 7L24 7L24 5ZM13 6L13 8L14 8L14 9L15 9L15 10L16 10L16 12L18 12L18 11L19 11L19 13L18 13L18 14L17 14L17 13L13 13L13 14L12 14L12 13L11 13L11 12L10 12L10 13L9 13L9 10L8 10L8 14L9 14L9 15L10 15L10 13L11 13L11 16L10 16L10 18L16 18L16 20L18 20L18 21L15 21L15 19L12 19L12 21L13 21L13 22L14 22L14 23L13 23L13 24L14 24L14 25L15 25L15 26L16 26L16 27L17 27L17 28L19 28L19 29L15 29L15 27L12 27L12 29L14 29L14 30L19 30L19 31L14 31L14 32L21 32L21 31L22 31L22 30L21 30L21 31L20 31L20 30L19 30L19 29L23 29L23 31L24 31L24 27L23 27L23 28L21 28L21 26L22 26L22 25L23 25L23 26L24 26L24 25L23 25L23 23L24 23L24 24L27 24L27 22L25 22L25 21L27 21L27 20L28 20L28 19L26 19L26 18L25 18L25 17L28 17L28 18L29 18L29 17L30 17L30 19L29 19L29 20L30 20L30 21L28 21L28 24L30 24L30 23L29 23L29 22L30 22L30 21L31 21L31 20L30 20L30 19L31 19L31 16L30 16L30 15L29 15L29 13L28 13L28 16L26 16L26 14L25 14L25 13L27 13L27 12L28 12L28 11L27 11L27 10L25 10L25 9L24 9L24 10L22 10L22 11L23 11L23 12L20 12L20 11L21 11L21 9L23 9L23 8L21 8L21 7L20 7L20 8L21 8L21 9L20 9L20 10L18 10L18 9L15 9L15 8L16 8L16 6L15 6L15 7L14 7L14 6ZM29 8L29 9L30 9L30 8ZM31 8L31 10L33 10L33 9L32 9L32 8ZM17 10L17 11L18 11L18 10ZM6 11L6 12L3 12L3 13L6 13L6 14L7 14L7 13L6 13L6 12L7 12L7 11ZM25 11L25 12L24 12L24 13L19 13L19 14L18 14L18 16L17 16L17 15L16 15L16 14L15 14L15 15L14 15L14 16L13 16L13 15L12 15L12 17L18 17L18 18L17 18L17 19L18 19L18 20L20 20L20 21L18 21L18 22L20 22L20 23L18 23L18 24L15 24L15 25L18 25L18 27L19 27L19 28L20 28L20 27L19 27L19 26L20 26L20 25L21 25L21 24L22 24L22 23L23 23L23 22L24 22L24 21L25 21L25 20L24 20L24 21L23 21L23 18L24 18L24 17L22 17L22 19L21 19L21 20L20 20L20 19L18 19L18 18L20 18L20 17L21 17L21 16L24 16L24 15L25 15L25 14L24 14L24 13L25 13L25 12L26 12L26 11ZM30 11L30 12L31 12L31 11ZM3 14L3 15L2 15L2 16L3 16L3 15L5 15L5 17L6 17L6 18L7 18L7 17L8 17L8 18L9 18L9 16L8 16L8 15L5 15L5 14ZM19 14L19 15L20 15L20 14ZM21 14L21 15L22 15L22 14ZM23 14L23 15L24 15L24 14ZM6 16L6 17L7 17L7 16ZM18 16L18 17L20 17L20 16ZM28 16L28 17L29 17L29 16ZM10 19L10 21L11 21L11 19ZM0 20L0 25L1 25L1 22L2 22L2 23L3 23L3 25L7 25L7 24L4 24L4 23L8 23L8 21L7 21L7 20L6 20L6 21L7 21L7 22L4 22L4 21L5 21L5 20L4 20L4 21L3 21L3 22L2 22L2 20ZM13 20L13 21L14 21L14 22L15 22L15 23L16 23L16 22L15 22L15 21L14 21L14 20ZM21 20L21 21L20 21L20 22L21 22L21 21L22 21L22 20ZM20 23L20 24L18 24L18 25L20 25L20 24L21 24L21 23ZM25 25L25 28L28 28L28 25ZM29 25L29 28L30 28L30 27L31 27L31 26L30 26L30 25ZM9 26L9 27L10 27L10 26ZM26 26L26 27L27 27L27 26ZM25 29L25 30L28 30L28 31L29 31L29 30L28 30L28 29ZM30 30L30 31L31 31L31 30ZM0 0L0 7L7 7L7 0ZM1 1L1 6L6 6L6 1ZM2 2L2 5L5 5L5 2ZM26 0L26 7L33 7L33 0ZM27 1L27 6L32 6L32 1ZM28 2L28 5L31 5L31 2ZM0 26L0 33L7 33L7 26ZM1 27L1 32L6 32L6 27ZM2 28L2 31L5 31L5 28Z" fill="#000000"/></g></g></svg>
