<?xml version="1.0" encoding="UTF-8"?>
<svg xmlns="http://www.w3.org/2000/svg" version="1.1" width="600" height="600" viewBox="0 0 600 600"><rect x="0" y="0" width="600" height="600" fill="#ffffff"/><g transform="scale(17.143)"><g transform="translate(1,1)"><path fill-rule="evenodd" d="M10 0L10 2L11 2L11 0ZM12 0L12 1L13 1L13 2L12 2L12 4L15 4L15 3L16 3L16 4L19 4L19 5L18 5L18 7L19 7L19 5L20 5L20 7L21 7L21 8L20 8L20 9L19 9L19 8L17 8L17 9L16 9L16 8L15 8L15 6L16 6L16 7L17 7L17 5L15 5L15 6L14 6L14 5L11 5L11 6L10 6L10 4L11 4L11 3L8 3L8 4L9 4L9 5L8 5L8 7L9 7L9 8L6 8L6 9L5 9L5 8L0 8L0 9L1 9L1 12L0 12L0 14L1 14L1 15L2 15L2 12L4 12L4 13L7 13L7 12L8 12L8 11L9 11L9 10L8 10L8 9L10 9L10 11L11 11L11 9L12 9L12 10L13 10L13 9L16 9L16 10L14 10L14 11L16 11L16 12L15 12L15 13L14 13L14 12L13 12L13 11L12 11L12 13L14 13L14 16L13 16L13 17L12 17L12 15L13 15L13 14L11 14L11 17L10 17L10 18L11 18L11 17L12 17L12 18L13 18L13 17L16 17L16 18L14 18L14 20L13 20L13 19L12 19L12 21L18 21L18 22L17 22L17 23L18 23L18 24L16 24L16 22L15 22L15 23L14 23L14 24L13 24L13 25L12 25L12 23L13 23L13 22L11 22L11 21L10 21L10 22L9 22L9 21L8 21L8 22L9 22L9 23L8 23L8 24L6 24L6 23L7 23L7 22L6 22L6 21L7 21L7 20L6 20L6 21L4 21L4 22L3 22L3 19L5 19L5 18L4 18L4 17L7 17L7 16L5 16L5 15L8 15L8 17L9 17L9 15L8 15L8 14L5 14L5 15L4 15L4 14L3 14L3 16L1 16L1 17L0 17L0 18L2 18L2 19L1 19L1 20L0 20L0 25L1 25L1 22L2 22L2 23L3 23L3 25L8 25L8 27L9 27L9 28L8 28L8 33L9 33L9 31L10 31L10 33L13 33L13 32L12 32L12 31L13 31L13 30L9 30L9 29L10 29L10 26L11 26L11 25L12 25L12 26L13 26L13 25L14 25L14 26L15 26L15 27L14 27L14 28L13 28L13 27L12 27L12 29L14 29L14 31L15 31L15 32L16 32L16 33L19 33L19 32L20 32L20 31L18 31L18 30L17 30L17 29L19 29L19 30L20 30L20 29L21 29L21 28L22 28L22 27L24 27L24 31L23 31L23 29L22 29L22 30L21 30L21 32L22 32L22 33L23 33L23 32L24 32L24 33L25 33L25 32L24 32L24 31L27 31L27 32L28 32L28 33L29 33L29 31L30 31L30 32L31 32L31 33L32 33L32 32L31 32L31 31L32 31L32 30L31 30L31 29L30 29L30 28L33 28L33 27L32 27L32 26L33 26L33 24L32 24L32 26L31 26L31 25L30 25L30 24L31 24L31 23L32 23L32 22L33 22L33 21L32 21L32 20L31 20L31 19L32 19L32 18L33 18L33 17L32 17L32 16L31 16L31 15L32 15L32 14L33 14L33 13L31 13L31 15L30 15L30 13L29 13L29 10L28 10L28 8L27 8L27 9L26 9L26 8L24 8L24 7L25 7L25 5L24 5L24 4L23 4L23 5L22 5L22 7L21 7L21 5L20 5L20 4L21 4L21 3L23 3L23 2L21 2L21 3L20 3L20 2L19 2L19 1L20 1L20 0L19 0L19 1L15 1L15 0L14 0L14 1L13 1L13 0ZM21 0L21 1L24 1L24 2L25 2L25 1L24 1L24 0ZM8 1L8 2L9 2L9 1ZM13 2L13 3L15 3L15 2ZM16 2L16 3L19 3L19 4L20 4L20 3L19 3L19 2ZM23 5L23 7L24 7L24 5ZM9 6L9 7L10 7L10 6ZM11 6L11 7L12 7L12 9L13 9L13 8L14 8L14 6L13 6L13 7L12 7L12 6ZM10 8L10 9L11 9L11 8ZM21 8L21 9L20 9L20 10L19 10L19 9L17 9L17 10L16 10L16 11L17 11L17 12L18 12L18 13L15 13L15 14L16 14L16 15L17 15L17 16L16 16L16 17L17 17L17 18L16 18L16 20L18 20L18 21L21 21L21 22L19 22L19 25L15 25L15 24L14 24L14 25L15 25L15 26L16 26L16 27L15 27L15 28L14 28L14 29L15 29L15 30L16 30L16 32L18 32L18 31L17 31L17 30L16 30L16 29L17 29L17 28L19 28L19 29L20 29L20 27L21 27L21 25L22 25L22 24L21 24L21 23L22 23L22 21L24 21L24 22L23 22L23 23L24 23L24 24L27 24L27 22L25 22L25 21L27 21L27 20L28 20L28 19L26 19L26 18L25 18L25 17L28 17L28 18L29 18L29 17L30 17L30 19L29 19L29 20L30 20L30 21L28 21L28 24L30 24L30 23L29 23L29 22L30 22L30 21L31 21L31 20L30 20L30 19L31 19L31 16L30 16L30 15L29 15L29 13L28 13L28 16L26 16L26 14L25 14L25 13L27 13L27 12L28 12L28 11L27 11L27 10L25 10L25 9L24 9L24 10L22 10L22 11L23 11L23 12L21 12L21 11L20 11L20 10L21 10L21 9L23 9L23 8ZM29 8L29 9L30 9L30 8ZM31 8L31 10L33 10L33 9L32 9L32 8ZM2 9L2 10L3 10L3 9ZM6 9L6 10L5 10L5 11L6 11L6 12L7 12L7 11L8 11L8 10L7 10L7 9ZM6 10L6 11L7 11L7 10ZM17 10L17 11L18 11L18 10ZM19 11L19 12L20 12L20 11ZM25 11L25 12L24 12L24 13L18 13L18 14L21 14L21 15L19 15L19 16L17 16L17 17L19 17L19 18L17 18L17 19L18 19L18 20L19 20L19 18L20 18L20 19L21 19L21 20L23 20L23 18L24 18L24 17L21 17L21 16L22 16L22 14L24 14L24 15L23 15L23 16L24 16L24 15L25 15L25 14L24 14L24 13L25 13L25 12L26 12L26 11ZM30 11L30 12L31 12L31 11ZM9 12L9 14L10 14L10 13L11 13L11 12ZM3 16L3 17L4 17L4 16ZM19 16L19 17L20 17L20 18L21 18L21 19L22 19L22 18L21 18L21 17L20 17L20 16ZM28 16L28 17L29 17L29 16ZM6 18L6 19L8 19L8 18ZM9 19L9 20L11 20L11 19ZM24 20L24 21L25 21L25 20ZM4 22L4 24L5 24L5 22ZM10 23L10 24L8 24L8 25L9 25L9 26L10 26L10 25L11 25L11 23ZM20 24L20 25L19 25L19 26L17 26L17 27L16 27L16 28L15 28L15 29L16 29L16 28L17 28L17 27L19 27L19 26L20 26L20 25L21 25L21 24ZM23 25L23 26L24 26L24 25ZM25 25L25 28L28 28L28 25ZM29 25L29 28L30 28L30 27L31 27L31 26L30 26L30 25ZM26 26L26 27L27 27L27 26ZM25 29L25 30L28 30L28 31L29 31L29 30L28 30L28 29ZM30 30L30 31L31 31L31 30ZM0 0L0 7L7 7L7 0ZM1 1L1 6L6 6L6 1ZM2 2L2 5L5 5L5 2ZM26 0L26 7L33 7L33 0ZM27 1L27 6L32 6L32 1ZM28 2L28 5L31 5L31 2ZM0 26L0 33L7 33L7 26ZM1 27L1 32L6 32L6 27ZM2 28L2 31L5 31L5 28Z" fill="#000000"/></g></g></svg>
