<?xml version="1.0" encoding="UTF-8"?>
<svg xmlns="http://www.w3.org/2000/svg" version="1.1" width="600" height="600" viewBox="0 0 600 600"><rect x="0" y="0" width="600" height="600" fill="#ffffff"/><g transform="scale(17.143)"><g transform="translate(1,1)"><path fill-rule="evenodd" d="M11 0L11 1L9 1L9 2L11 2L11 1L14 1L14 0ZM16 0L16 1L17 1L17 0ZM20 0L20 1L21 1L21 4L23 4L23 5L21 5L21 6L20 6L20 9L18 9L18 8L19 8L19 6L18 6L18 8L15 8L15 2L14 2L14 3L13 3L13 2L12 2L12 4L14 4L14 5L11 5L11 6L10 6L10 8L9 8L9 9L8 9L8 8L5 8L5 9L8 9L8 10L6 10L6 11L7 11L7 12L4 12L4 11L5 11L5 10L4 10L4 11L3 11L3 10L2 10L2 11L3 11L3 12L1 12L1 13L0 13L0 14L3 14L3 15L2 15L2 16L0 16L0 17L1 17L1 18L0 18L0 19L1 19L1 20L0 20L0 25L4 25L4 24L3 24L3 22L4 22L4 23L5 23L5 25L7 25L7 24L6 24L6 23L8 23L8 22L9 22L9 20L8 20L8 21L7 21L7 20L6 20L6 19L8 19L8 18L9 18L9 19L10 19L10 18L9 18L9 17L8 17L8 18L6 18L6 17L7 17L7 16L6 16L6 15L7 15L7 14L8 14L8 16L10 16L10 17L12 17L12 18L11 18L11 19L12 19L12 21L13 21L13 22L11 22L11 20L10 20L10 23L9 23L9 24L8 24L8 28L10 28L10 29L9 29L9 31L8 31L8 33L9 33L9 31L10 31L10 30L11 30L11 26L9 26L9 25L11 25L11 24L12 24L12 23L13 23L13 22L14 22L14 20L15 20L15 23L18 23L18 24L19 24L19 25L18 25L18 26L21 26L21 27L20 27L20 28L19 28L19 27L18 27L18 28L17 28L17 29L16 29L16 28L15 28L15 29L14 29L14 28L13 28L13 27L16 27L16 26L17 26L17 24L14 24L14 26L13 26L13 25L12 25L12 26L13 26L13 27L12 27L12 29L14 29L14 31L18 31L18 30L19 30L19 32L16 32L16 33L19 33L19 32L20 32L20 33L21 33L21 32L20 32L20 29L21 29L21 31L22 31L22 32L24 32L24 33L25 33L25 32L24 32L24 31L25 31L25 29L27 29L27 31L28 31L28 33L29 33L29 30L31 30L31 29L30 29L30 28L32 28L32 26L33 26L33 25L32 25L32 24L31 24L31 23L32 23L32 20L31 20L31 19L30 19L30 20L29 20L29 19L28 19L28 18L27 18L27 17L25 17L25 19L26 19L26 18L27 18L27 21L28 21L28 22L27 22L27 23L28 23L28 22L29 22L29 23L30 23L30 24L31 24L31 25L30 25L30 26L31 26L31 27L30 27L30 28L29 28L29 24L24 24L24 23L23 23L23 22L24 22L24 21L25 21L25 22L26 22L26 21L25 21L25 20L24 20L24 21L23 21L23 22L22 22L22 21L21 21L21 19L22 19L22 18L23 18L23 19L24 19L24 17L22 17L22 18L21 18L21 19L20 19L20 17L21 17L21 15L22 15L22 16L24 16L24 15L25 15L25 14L26 14L26 15L28 15L28 17L29 17L29 18L30 18L30 17L29 17L29 15L30 15L30 16L31 16L31 18L32 18L32 19L33 19L33 17L32 17L32 16L33 16L33 15L32 15L32 14L33 14L33 12L31 12L31 11L30 11L30 12L29 12L29 9L30 9L30 8L28 8L28 10L27 10L27 12L26 12L26 11L25 11L25 12L23 12L23 11L22 11L22 10L21 10L21 6L22 6L22 8L23 8L23 10L24 10L24 9L25 9L25 10L26 10L26 9L25 9L25 8L24 8L24 7L25 7L25 5L24 5L24 4L23 4L23 2L22 2L22 0ZM18 1L18 2L19 2L19 1ZM24 1L24 2L25 2L25 1ZM8 3L8 5L10 5L10 4L9 4L9 3ZM16 3L16 5L17 5L17 4L18 4L18 5L20 5L20 4L18 4L18 3ZM23 5L23 7L24 7L24 5ZM8 6L8 7L9 7L9 6ZM11 6L11 7L12 7L12 9L11 9L11 8L10 8L10 10L9 10L9 11L8 11L8 12L9 12L9 11L10 11L10 14L9 14L9 13L8 13L8 14L9 14L9 15L10 15L10 16L11 16L11 14L14 14L14 15L12 15L12 17L13 17L13 18L12 18L12 19L13 19L13 20L14 20L14 19L15 19L15 18L14 18L14 17L15 17L15 14L14 14L14 12L16 12L16 14L18 14L18 13L19 13L19 11L20 11L20 14L19 14L19 17L16 17L16 19L17 19L17 20L19 20L19 21L17 21L17 22L19 22L19 23L20 23L20 24L21 24L21 26L22 26L22 25L23 25L23 26L24 26L24 24L22 24L22 22L19 22L19 21L20 21L20 20L19 20L19 17L20 17L20 15L21 15L21 14L22 14L22 15L24 15L24 14L25 14L25 13L24 13L24 14L22 14L22 11L20 11L20 10L19 10L19 11L18 11L18 9L17 9L17 10L16 10L16 11L15 11L15 10L14 10L14 9L13 9L13 8L14 8L14 6L13 6L13 7L12 7L12 6ZM16 6L16 7L17 7L17 6ZM0 8L0 11L1 11L1 9L2 9L2 8ZM12 9L12 10L13 10L13 11L12 11L12 12L11 12L11 13L13 13L13 11L14 11L14 10L13 10L13 9ZM31 9L31 10L32 10L32 9ZM10 10L10 11L11 11L11 10ZM3 12L3 14L5 14L5 13L4 13L4 12ZM28 12L28 13L27 13L27 14L28 14L28 15L29 15L29 12ZM30 12L30 15L31 15L31 16L32 16L32 15L31 15L31 12ZM6 13L6 14L7 14L7 13ZM4 15L4 16L2 16L2 17L3 17L3 18L5 18L5 17L6 17L6 16L5 16L5 15ZM16 15L16 16L18 16L18 15ZM4 16L4 17L5 17L5 16ZM13 16L13 17L14 17L14 16ZM1 18L1 19L2 19L2 18ZM17 18L17 19L18 19L18 18ZM3 19L3 21L4 21L4 19ZM5 20L5 23L6 23L6 22L7 22L7 21L6 21L6 20ZM30 20L30 21L29 21L29 22L30 22L30 21L31 21L31 20ZM1 21L1 24L2 24L2 21ZM10 23L10 24L11 24L11 23ZM25 25L25 28L28 28L28 25ZM31 25L31 26L32 26L32 25ZM26 26L26 27L27 27L27 26ZM21 27L21 29L23 29L23 30L22 30L22 31L23 31L23 30L24 30L24 27L23 27L23 28L22 28L22 27ZM18 28L18 29L17 29L17 30L18 30L18 29L19 29L19 28ZM12 30L12 31L11 31L11 32L10 32L10 33L13 33L13 32L12 32L12 31L13 31L13 30ZM32 30L32 31L33 31L33 30ZM30 31L30 32L31 32L31 33L32 33L32 32L31 32L31 31ZM0 0L0 7L7 7L7 0ZM1 1L1 6L6 6L6 1ZM2 2L2 5L5 5L5 2ZM26 0L26 7L33 7L33 0ZM27 1L27 6L32 6L32 1ZM28 2L28 5L31 5L31 2ZM0 26L0 33L7 33L7 26ZM1 27L1 32L6 32L6 27ZM2 28L2 31L5 31L5 28Z" fill="#000000"/></g></g></svg>
