<?xml version="1.0" encoding="UTF-8"?>
<svg xmlns="http://www.w3.org/2000/svg" version="1.1" width="600" height="600" viewBox="0 0 600 600"><rect x="0" y="0" width="600" height="600" fill="#ffffff"/><g transform="scale(17.143)"><g transform="translate(1,1)"><path fill-rule="evenodd" d="M9 0L9 1L8 1L8 2L9 2L9 3L8 3L8 4L10 4L10 7L11 7L11 4L12 4L12 5L13 5L13 4L14 4L14 8L13 8L13 6L12 6L12 9L14 9L14 10L15 10L15 11L14 11L14 12L13 12L13 13L12 13L12 11L13 11L13 10L11 10L11 11L10 11L10 9L11 9L11 8L6 8L6 9L5 9L5 8L0 8L0 10L1 10L1 13L4 13L4 12L3 12L3 11L7 11L7 10L8 10L8 9L9 9L9 11L8 11L8 13L7 13L7 12L5 12L5 13L7 13L7 14L6 14L6 15L3 15L3 16L2 16L2 15L1 15L1 14L0 14L0 18L1 18L1 21L0 21L0 25L1 25L1 22L2 22L2 21L3 21L3 22L4 22L4 21L5 21L5 23L3 23L3 25L5 25L5 23L7 23L7 22L6 22L6 21L7 21L7 20L6 20L6 19L8 19L8 21L9 21L9 22L8 22L8 24L6 24L6 25L8 25L8 27L10 27L10 28L8 28L8 33L10 33L10 32L11 32L11 30L10 30L10 28L11 28L11 29L12 29L12 30L13 30L13 31L12 31L12 33L13 33L13 32L14 32L14 33L19 33L19 31L18 31L18 32L14 32L14 31L16 31L16 30L14 30L14 29L12 29L12 27L13 27L13 26L11 26L11 23L9 23L9 22L11 22L11 21L12 21L12 22L13 22L13 23L12 23L12 25L19 25L19 26L20 26L20 27L21 27L21 28L23 28L23 27L24 27L24 31L23 31L23 29L18 29L18 28L15 28L15 27L17 27L17 26L15 26L15 27L14 27L14 28L15 28L15 29L18 29L18 30L21 30L21 31L20 31L20 32L22 32L22 33L23 33L23 32L24 32L24 33L25 33L25 32L24 32L24 31L27 31L27 32L28 32L28 33L29 33L29 31L30 31L30 32L31 32L31 33L32 33L32 32L31 32L31 31L32 31L32 30L31 30L31 29L30 29L30 28L31 28L31 27L32 27L32 28L33 28L33 27L32 27L32 26L33 26L33 24L32 24L32 26L31 26L31 25L30 25L30 24L31 24L31 23L32 23L32 22L33 22L33 21L32 21L32 20L31 20L31 19L32 19L32 18L33 18L33 17L32 17L32 16L31 16L31 15L32 15L32 14L33 14L33 13L31 13L31 15L30 15L30 13L29 13L29 10L28 10L28 8L27 8L27 9L26 9L26 8L24 8L24 7L25 7L25 5L24 5L24 4L23 4L23 5L22 5L22 7L21 7L21 6L20 6L20 7L19 7L19 5L20 5L20 4L21 4L21 3L23 3L23 2L21 2L21 1L24 1L24 2L25 2L25 1L24 1L24 0L21 0L21 1L20 1L20 0L19 0L19 1L15 1L15 0L14 0L14 3L13 3L13 4L12 4L12 2L13 2L13 1L11 1L11 2L10 2L10 0ZM19 1L19 2L16 2L16 3L18 3L18 4L15 4L15 3L14 3L14 4L15 4L15 5L16 5L16 6L15 6L15 7L16 7L16 6L17 6L17 8L19 8L19 9L15 9L15 8L14 8L14 9L15 9L15 10L18 10L18 11L15 11L15 12L16 12L16 13L13 13L13 14L12 14L12 13L11 13L11 12L10 12L10 13L11 13L11 14L10 14L10 15L9 15L9 13L8 13L8 14L7 14L7 15L6 15L6 16L7 16L7 17L6 17L6 18L5 18L5 19L6 19L6 18L8 18L8 16L7 16L7 15L9 15L9 19L10 19L10 20L9 20L9 21L10 21L10 20L11 20L11 19L10 19L10 18L13 18L13 19L12 19L12 21L13 21L13 22L16 22L16 21L17 21L17 20L19 20L19 21L18 21L18 22L17 22L17 24L19 24L19 25L20 25L20 26L22 26L22 25L23 25L23 26L24 26L24 25L23 25L23 23L24 23L24 24L27 24L27 22L25 22L25 21L27 21L27 20L28 20L28 19L26 19L26 18L25 18L25 17L28 17L28 18L29 18L29 17L30 17L30 19L29 19L29 20L30 20L30 21L28 21L28 24L30 24L30 23L29 23L29 22L30 22L30 21L31 21L31 20L30 20L30 19L31 19L31 16L30 16L30 15L29 15L29 13L28 13L28 16L26 16L26 14L25 14L25 13L27 13L27 12L28 12L28 11L27 11L27 10L25 10L25 9L24 9L24 10L22 10L22 9L23 9L23 8L19 8L19 7L18 7L18 4L19 4L19 3L21 3L21 2L20 2L20 1ZM10 3L10 4L11 4L11 3ZM8 5L8 7L9 7L9 5ZM23 5L23 7L24 7L24 5ZM29 8L29 9L30 9L30 8ZM31 8L31 10L33 10L33 9L32 9L32 8ZM1 9L1 10L3 10L3 9ZM4 9L4 10L5 10L5 9ZM6 9L6 10L7 10L7 9ZM19 9L19 10L20 10L20 11L21 11L21 12L22 12L22 10L21 10L21 9ZM18 11L18 12L17 12L17 13L16 13L16 14L15 14L15 15L14 15L14 14L13 14L13 15L12 15L12 17L16 17L16 18L14 18L14 20L13 20L13 21L16 21L16 20L15 20L15 19L16 19L16 18L17 18L17 19L19 19L19 18L20 18L20 19L21 19L21 20L20 20L20 21L19 21L19 22L18 22L18 23L19 23L19 22L20 22L20 21L21 21L21 24L20 24L20 25L21 25L21 24L22 24L22 23L23 23L23 22L24 22L24 21L25 21L25 20L24 20L24 21L23 21L23 18L24 18L24 17L22 17L22 19L21 19L21 18L20 18L20 17L21 17L21 16L24 16L24 15L25 15L25 14L24 14L24 13L25 13L25 12L26 12L26 11L25 11L25 12L24 12L24 13L19 13L19 11ZM30 11L30 12L31 12L31 11ZM17 13L17 15L15 15L15 16L16 16L16 17L17 17L17 18L18 18L18 17L20 17L20 16L18 16L18 15L21 15L21 14L19 14L19 13ZM23 14L23 15L24 15L24 14ZM13 15L13 16L14 16L14 15ZM1 16L1 18L2 18L2 16ZM17 16L17 17L18 17L18 16ZM28 16L28 17L29 17L29 16ZM3 18L3 20L4 20L4 18ZM5 20L5 21L6 21L6 20ZM21 20L21 21L22 21L22 20ZM13 23L13 24L16 24L16 23ZM8 24L8 25L9 25L9 24ZM25 25L25 28L28 28L28 25ZM29 25L29 28L30 28L30 27L31 27L31 26L30 26L30 25ZM10 26L10 27L11 27L11 26ZM26 26L26 27L27 27L27 26ZM25 29L25 30L28 30L28 31L29 31L29 30L28 30L28 29ZM30 30L30 31L31 31L31 30ZM22 31L22 32L23 32L23 31ZM0 0L0 7L7 7L7 0ZM1 1L1 6L6 6L6 1ZM2 2L2 5L5 5L5 2ZM26 0L26 7L33 7L33 0ZM27 1L27 6L32 6L32 1ZM28 2L28 5L31 5L31 2ZM0 26L0 33L7 33L7 26ZM1 27L1 32L6 32L6 27ZM2 28L2 31L5 31L5 28Z" fill="#000000"/></g></g></svg>
