<?xml version="1.0" encoding="UTF-8"?>
<svg xmlns="http://www.w3.org/2000/svg" version="1.1" width="600" height="600" viewBox="0 0 600 600"><rect x="0" y="0" width="600" height="600" fill="#ffffff"/><g transform="scale(17.143)"><g transform="translate(1,1)"><path fill-rule="evenodd" d="M10 0L10 2L11 2L11 0ZM12 0L12 1L13 1L13 0ZM16 0L16 1L14 1L14 3L13 3L13 2L12 2L12 4L14 4L14 5L11 5L11 6L10 6L10 4L11 4L11 3L8 3L8 4L9 4L9 5L8 5L8 7L9 7L9 8L6 8L6 9L5 9L5 8L0 8L0 10L1 10L1 11L0 11L0 12L2 12L2 10L3 10L3 9L5 9L5 10L4 10L4 11L3 11L3 12L4 12L4 11L5 11L5 13L7 13L7 14L5 14L5 15L4 15L4 14L1 14L1 15L0 15L0 20L1 20L1 21L0 21L0 25L1 25L1 22L2 22L2 24L3 24L3 21L4 21L4 24L5 24L5 25L7 25L7 24L6 24L6 23L7 23L7 22L6 22L6 21L7 21L7 20L8 20L8 21L9 21L9 22L10 22L10 23L9 23L9 24L8 24L8 27L10 27L10 28L8 28L8 33L9 33L9 32L10 32L10 33L12 33L12 31L13 31L13 30L11 30L11 29L10 29L10 28L11 28L11 27L10 27L10 26L11 26L11 25L12 25L12 26L13 26L13 27L12 27L12 29L13 29L13 28L14 28L14 29L16 29L16 30L15 30L15 31L14 31L14 32L15 32L15 33L16 33L16 31L17 31L17 29L18 29L18 30L20 30L20 31L19 31L19 32L20 32L20 31L21 31L21 32L22 32L22 33L23 33L23 32L24 32L24 33L25 33L25 32L24 32L24 31L27 31L27 32L28 32L28 33L29 33L29 31L30 31L30 32L31 32L31 33L32 33L32 32L31 32L31 31L32 31L32 30L31 30L31 29L30 29L30 28L32 28L32 26L33 26L33 24L32 24L32 26L31 26L31 25L30 25L30 24L31 24L31 23L32 23L32 22L33 22L33 21L32 21L32 20L31 20L31 19L32 19L32 18L33 18L33 17L32 17L32 16L31 16L31 15L32 15L32 14L33 14L33 13L31 13L31 15L30 15L30 13L29 13L29 10L28 10L28 8L27 8L27 9L26 9L26 8L24 8L24 7L25 7L25 5L24 5L24 4L23 4L23 5L22 5L22 7L21 7L21 4L19 4L19 2L18 2L18 3L17 3L17 2L16 2L16 1L17 1L17 0ZM19 0L19 1L20 1L20 0ZM21 0L21 1L24 1L24 2L25 2L25 1L24 1L24 0ZM8 1L8 2L9 2L9 1ZM20 2L20 3L23 3L23 2ZM14 3L14 4L15 4L15 5L14 5L14 6L13 6L13 7L12 7L12 6L11 6L11 7L12 7L12 9L11 9L11 8L10 8L10 9L9 9L9 11L8 11L8 12L7 12L7 11L6 11L6 10L7 10L7 9L6 9L6 10L5 10L5 11L6 11L6 12L7 12L7 13L9 13L9 14L7 14L7 15L6 15L6 16L7 16L7 15L8 15L8 17L6 17L6 18L7 18L7 19L5 19L5 17L4 17L4 16L3 16L3 15L1 15L1 16L3 16L3 17L4 17L4 19L3 19L3 20L4 20L4 21L6 21L6 20L7 20L7 19L8 19L8 20L9 20L9 21L10 21L10 22L13 22L13 23L12 23L12 25L14 25L14 26L18 26L18 27L16 27L16 29L17 29L17 28L18 28L18 29L23 29L23 31L22 31L22 32L23 32L23 31L24 31L24 27L23 27L23 26L24 26L24 25L23 25L23 24L21 24L21 25L20 25L20 22L22 22L22 21L24 21L24 22L23 22L23 23L24 23L24 24L27 24L27 22L25 22L25 21L27 21L27 20L28 20L28 19L26 19L26 18L25 18L25 17L28 17L28 18L29 18L29 17L30 17L30 19L29 19L29 20L30 20L30 21L28 21L28 24L30 24L30 23L29 23L29 22L30 22L30 21L31 21L31 20L30 20L30 19L31 19L31 16L30 16L30 15L29 15L29 13L28 13L28 16L26 16L26 14L25 14L25 13L27 13L27 12L28 12L28 11L27 11L27 10L25 10L25 9L24 9L24 10L23 10L23 11L22 11L22 12L21 12L21 11L20 11L20 10L21 10L21 9L23 9L23 8L21 8L21 7L20 7L20 5L19 5L19 4L15 4L15 3ZM15 5L15 6L14 6L14 8L13 8L13 9L12 9L12 10L13 10L13 9L14 9L14 12L13 12L13 11L12 11L12 13L13 13L13 14L9 14L9 15L10 15L10 18L11 18L11 17L12 17L12 18L13 18L13 17L14 17L14 18L15 18L15 20L13 20L13 19L12 19L12 21L19 21L19 22L18 22L18 24L17 24L17 22L14 22L14 24L15 24L15 25L18 25L18 26L20 26L20 25L18 25L18 24L19 24L19 22L20 22L20 21L21 21L21 20L22 20L22 19L23 19L23 18L24 18L24 17L23 17L23 16L24 16L24 15L25 15L25 14L24 14L24 13L25 13L25 12L26 12L26 11L25 11L25 12L24 12L24 13L22 13L22 15L20 15L20 16L22 16L22 17L18 17L18 16L19 16L19 15L18 15L18 14L20 14L20 13L21 13L21 12L19 12L19 13L18 13L18 12L17 12L17 13L16 13L16 12L15 12L15 11L17 11L17 10L15 10L15 9L19 9L19 10L18 10L18 11L19 11L19 10L20 10L20 9L21 9L21 8L20 8L20 7L19 7L19 6L18 6L18 5ZM23 5L23 7L24 7L24 5ZM9 6L9 7L10 7L10 6ZM15 6L15 8L14 8L14 9L15 9L15 8L16 8L16 6ZM17 6L17 8L18 8L18 6ZM19 8L19 9L20 9L20 8ZM29 8L29 9L30 9L30 8ZM31 8L31 10L33 10L33 9L32 9L32 8ZM1 9L1 10L2 10L2 9ZM10 9L10 11L11 11L11 9ZM30 11L30 12L31 12L31 11ZM9 12L9 13L11 13L11 12ZM14 12L14 13L15 13L15 14L13 14L13 15L12 15L12 17L13 17L13 16L14 16L14 17L15 17L15 18L16 18L16 20L18 20L18 19L21 19L21 18L18 18L18 17L17 17L17 16L18 16L18 15L17 15L17 14L18 14L18 13L17 13L17 14L16 14L16 13L15 13L15 12ZM15 14L15 15L16 15L16 16L15 16L15 17L16 17L16 18L17 18L17 19L18 19L18 18L17 18L17 17L16 17L16 16L17 16L17 15L16 15L16 14ZM23 14L23 15L24 15L24 14ZM28 16L28 17L29 17L29 16ZM1 17L1 20L2 20L2 17ZM4 19L4 20L5 20L5 19ZM9 19L9 20L10 20L10 21L11 21L11 20L10 20L10 19ZM19 20L19 21L20 21L20 20ZM24 20L24 21L25 21L25 20ZM5 22L5 23L6 23L6 22ZM10 23L10 25L9 25L9 26L10 26L10 25L11 25L11 23ZM15 23L15 24L16 24L16 23ZM21 25L21 27L20 27L20 28L23 28L23 27L22 27L22 26L23 26L23 25ZM25 25L25 28L28 28L28 25ZM29 25L29 28L30 28L30 27L31 27L31 26L30 26L30 25ZM26 26L26 27L27 27L27 26ZM14 27L14 28L15 28L15 27ZM18 27L18 28L19 28L19 27ZM9 29L9 31L10 31L10 32L11 32L11 30L10 30L10 29ZM25 29L25 30L28 30L28 31L29 31L29 30L28 30L28 29ZM30 30L30 31L31 31L31 30ZM17 32L17 33L18 33L18 32ZM0 0L0 7L7 7L7 0ZM1 1L1 6L6 6L6 1ZM2 2L2 5L5 5L5 2ZM26 0L26 7L33 7L33 0ZM27 1L27 6L32 6L32 1ZM28 2L28 5L31 5L31 2ZM0 26L0 33L7 33L7 26ZM1 27L1 32L6 32L6 27ZM2 28L2 31L5 31L5 28Z" fill="#000000"/></g></g></svg>
