<?xml version="1.0" encoding="UTF-8"?>
<svg xmlns="http://www.w3.org/2000/svg" version="1.1" width="600" height="600" viewBox="0 0 600 600"><rect x="0" y="0" width="600" height="600" fill="#ffffff"/><g transform="scale(17.143)"><g transform="translate(1,1)"><path fill-rule="evenodd" d="M10 0L10 2L11 2L11 0ZM12 0L12 1L13 1L13 0ZM16 0L16 1L15 1L15 2L14 2L14 3L13 3L13 2L12 2L12 4L14 4L14 5L11 5L11 6L10 6L10 4L11 4L11 3L8 3L8 4L9 4L9 5L8 5L8 7L9 7L9 8L6 8L6 9L5 9L5 8L0 8L0 11L1 11L1 10L2 10L2 11L4 11L4 13L3 13L3 12L0 12L0 13L3 13L3 16L1 16L1 14L0 14L0 16L1 16L1 17L2 17L2 18L1 18L1 19L0 19L0 20L1 20L1 19L2 19L2 21L0 21L0 25L1 25L1 22L3 22L3 23L5 23L5 25L7 25L7 24L9 24L9 22L10 22L10 24L11 24L11 25L8 25L8 27L9 27L9 28L8 28L8 33L9 33L9 31L10 31L10 30L9 30L9 29L10 29L10 27L11 27L11 25L12 25L12 26L13 26L13 27L12 27L12 29L13 29L13 28L14 28L14 29L19 29L19 30L20 30L20 29L21 29L21 31L19 31L19 32L17 32L17 30L15 30L15 31L14 31L14 32L15 32L15 33L19 33L19 32L22 32L22 33L23 33L23 32L24 32L24 33L25 33L25 32L24 32L24 31L27 31L27 32L28 32L28 33L29 33L29 31L30 31L30 32L31 32L31 33L32 33L32 32L31 32L31 31L32 31L32 30L31 30L31 29L30 29L30 28L32 28L32 26L33 26L33 24L32 24L32 26L31 26L31 25L30 25L30 24L31 24L31 23L32 23L32 22L33 22L33 21L32 21L32 20L31 20L31 19L32 19L32 18L33 18L33 17L32 17L32 16L31 16L31 15L32 15L32 14L33 14L33 13L31 13L31 15L30 15L30 13L29 13L29 10L28 10L28 8L27 8L27 9L26 9L26 8L24 8L24 7L25 7L25 5L24 5L24 4L23 4L23 5L22 5L22 7L21 7L21 6L20 6L20 7L19 7L19 5L21 5L21 4L19 4L19 3L23 3L23 2L19 2L19 3L17 3L17 4L16 4L16 2L17 2L17 0ZM18 0L18 1L24 1L24 2L25 2L25 1L24 1L24 0ZM8 1L8 2L9 2L9 1ZM14 3L14 4L15 4L15 5L16 5L16 4L15 4L15 3ZM17 4L17 7L16 7L16 6L15 6L15 7L14 7L14 6L13 6L13 7L12 7L12 6L11 6L11 7L12 7L12 9L11 9L11 8L10 8L10 9L8 9L8 10L9 10L9 12L8 12L8 11L6 11L6 10L7 10L7 9L6 9L6 10L5 10L5 9L2 9L2 10L5 10L5 11L6 11L6 12L8 12L8 15L6 15L6 16L8 16L8 17L6 17L6 18L8 18L8 19L6 19L6 20L5 20L5 21L4 21L4 20L3 20L3 21L4 21L4 22L7 22L7 23L6 23L6 24L7 24L7 23L8 23L8 22L9 22L9 20L8 20L8 19L11 19L11 20L10 20L10 22L13 22L13 23L12 23L12 25L14 25L14 26L16 26L16 27L17 27L17 28L21 28L21 29L23 29L23 30L22 30L22 31L24 31L24 27L23 27L23 28L21 28L21 27L20 27L20 26L19 26L19 25L22 25L22 26L24 26L24 25L22 25L22 24L21 24L21 22L22 22L22 21L24 21L24 22L23 22L23 23L24 23L24 24L27 24L27 22L25 22L25 21L27 21L27 20L28 20L28 19L26 19L26 18L25 18L25 17L28 17L28 18L29 18L29 17L30 17L30 19L29 19L29 20L30 20L30 21L28 21L28 24L30 24L30 23L29 23L29 22L30 22L30 21L31 21L31 20L30 20L30 19L31 19L31 16L30 16L30 15L29 15L29 13L28 13L28 16L26 16L26 14L25 14L25 13L27 13L27 12L28 12L28 11L27 11L27 10L25 10L25 9L24 9L24 10L23 10L23 11L22 11L22 12L20 12L20 10L21 10L21 9L23 9L23 8L21 8L21 7L20 7L20 8L19 8L19 9L15 9L15 7L16 7L16 8L18 8L18 5L19 5L19 4ZM23 5L23 7L24 7L24 5ZM9 6L9 7L10 7L10 6ZM13 8L13 9L12 9L12 10L15 10L15 13L14 13L14 12L13 12L13 11L12 11L12 13L14 13L14 14L11 14L11 15L10 15L10 16L9 16L9 17L8 17L8 18L9 18L9 17L12 17L12 18L13 18L13 19L12 19L12 21L14 21L14 23L15 23L15 25L16 25L16 26L17 26L17 25L19 25L19 24L20 24L20 23L19 23L19 24L17 24L17 23L16 23L16 22L15 22L15 21L14 21L14 20L13 20L13 19L15 19L15 20L16 20L16 21L18 21L18 22L20 22L20 21L21 21L21 20L22 20L22 19L23 19L23 18L24 18L24 17L23 17L23 16L24 16L24 15L25 15L25 14L24 14L24 13L25 13L25 12L26 12L26 11L25 11L25 12L24 12L24 13L22 13L22 15L20 15L20 17L18 17L18 16L19 16L19 15L18 15L18 14L17 14L17 15L16 15L16 14L15 14L15 13L19 13L19 14L21 14L21 13L19 13L19 12L17 12L17 10L15 10L15 9L14 9L14 8ZM20 8L20 9L19 9L19 10L20 10L20 9L21 9L21 8ZM29 8L29 9L30 9L30 8ZM31 8L31 10L33 10L33 9L32 9L32 8ZM10 9L10 11L11 11L11 9ZM30 11L30 12L31 12L31 11ZM9 12L9 13L11 13L11 12ZM5 13L5 14L7 14L7 13ZM14 14L14 15L12 15L12 17L13 17L13 18L16 18L16 20L18 20L18 21L19 21L19 20L21 20L21 17L22 17L22 16L21 16L21 17L20 17L20 18L19 18L19 19L18 19L18 17L13 17L13 16L16 16L16 15L15 15L15 14ZM23 14L23 15L24 15L24 14ZM4 15L4 16L3 16L3 17L4 17L4 16L5 16L5 15ZM17 15L17 16L18 16L18 15ZM28 16L28 17L29 17L29 16ZM3 18L3 19L4 19L4 18ZM6 20L6 21L7 21L7 20ZM24 20L24 21L25 21L25 20ZM2 24L2 25L4 25L4 24ZM16 24L16 25L17 25L17 24ZM25 25L25 28L28 28L28 25ZM29 25L29 28L30 28L30 27L31 27L31 26L30 26L30 25ZM18 26L18 27L19 27L19 26ZM26 26L26 27L27 27L27 26ZM14 27L14 28L15 28L15 27ZM25 29L25 30L28 30L28 31L29 31L29 30L28 30L28 29ZM11 30L11 32L10 32L10 33L12 33L12 31L13 31L13 30ZM30 30L30 31L31 31L31 30ZM15 31L15 32L16 32L16 31ZM0 0L0 7L7 7L7 0ZM1 1L1 6L6 6L6 1ZM2 2L2 5L5 5L5 2ZM26 0L26 7L33 7L33 0ZM27 1L27 6L32 6L32 1ZM28 2L28 5L31 5L31 2ZM0 26L0 33L7 33L7 26ZM1 27L1 32L6 32L6 27ZM2 28L2 31L5 31L5 28Z" fill="#000000"/></g></g></svg>
