<?xml version="1.0" encoding="UTF-8"?>
<svg xmlns="http://www.w3.org/2000/svg" version="1.1" width="600" height="600" viewBox="0 0 600 600"><rect x="0" y="0" width="600" height="600" fill="#ffffff"/><g transform="scale(17.143)"><g transform="translate(1,1)"><path fill-rule="evenodd" d="M9 0L9 1L11 1L11 2L9 2L9 3L8 3L8 5L9 5L9 6L8 6L8 7L9 7L9 9L10 9L10 10L8 10L8 11L7 11L7 10L5 10L5 9L8 9L8 8L5 8L5 9L2 9L2 8L0 8L0 9L2 9L2 10L0 10L0 12L1 12L1 11L2 11L2 12L3 12L3 13L2 13L2 14L3 14L3 13L5 13L5 14L4 14L4 15L3 15L3 16L4 16L4 18L3 18L3 17L2 17L2 15L1 15L1 20L0 20L0 25L7 25L7 24L8 24L8 22L9 22L9 23L10 23L10 24L9 24L9 25L8 25L8 28L9 28L9 26L10 26L10 29L9 29L9 31L8 31L8 33L11 33L11 32L10 32L10 29L12 29L12 30L11 30L11 31L12 31L12 33L13 33L13 32L14 32L14 33L19 33L19 31L20 31L20 32L21 32L21 31L22 31L22 33L23 33L23 32L24 32L24 33L25 33L25 32L24 32L24 31L25 31L25 29L27 29L27 31L28 31L28 33L29 33L29 30L31 30L31 29L30 29L30 28L31 28L31 27L32 27L32 26L33 26L33 25L32 25L32 24L31 24L31 23L32 23L32 20L31 20L31 19L30 19L30 20L29 20L29 19L28 19L28 18L27 18L27 17L25 17L25 19L26 19L26 18L27 18L27 21L28 21L28 22L27 22L27 23L28 23L28 22L29 22L29 23L30 23L30 24L31 24L31 25L30 25L30 26L31 26L31 27L30 27L30 28L29 28L29 24L24 24L24 23L23 23L23 22L24 22L24 21L25 21L25 22L26 22L26 21L25 21L25 20L24 20L24 21L23 21L23 19L24 19L24 17L21 17L21 15L22 15L22 16L24 16L24 15L25 15L25 14L26 14L26 15L28 15L28 17L29 17L29 18L30 18L30 17L29 17L29 15L30 15L30 16L31 16L31 18L32 18L32 19L33 19L33 17L32 17L32 16L33 16L33 15L32 15L32 14L33 14L33 12L31 12L31 11L30 11L30 12L29 12L29 9L30 9L30 8L28 8L28 10L27 10L27 12L26 12L26 11L25 11L25 12L23 12L23 11L22 11L22 13L21 13L21 6L22 6L22 8L23 8L23 10L24 10L24 9L25 9L25 10L26 10L26 9L25 9L25 8L24 8L24 7L25 7L25 5L24 5L24 4L23 4L23 2L22 2L22 0L20 0L20 2L19 2L19 1L18 1L18 3L17 3L17 4L19 4L19 5L20 5L20 4L19 4L19 3L20 3L20 2L21 2L21 4L23 4L23 5L21 5L21 6L20 6L20 9L18 9L18 8L13 8L13 6L14 6L14 7L15 7L15 3L16 3L16 2L14 2L14 0L13 0L13 1L12 1L12 0ZM16 0L16 1L17 1L17 0ZM24 1L24 2L25 2L25 1ZM12 2L12 4L11 4L11 7L10 7L10 6L9 6L9 7L10 7L10 8L11 8L11 10L10 10L10 11L9 11L9 12L8 12L8 14L7 14L7 13L6 13L6 12L7 12L7 11L5 11L5 10L3 10L3 11L4 11L4 12L5 12L5 13L6 13L6 14L7 14L7 15L4 15L4 16L5 16L5 18L7 18L7 19L4 19L4 20L3 20L3 19L2 19L2 22L1 22L1 24L7 24L7 23L4 23L4 22L5 22L5 20L7 20L7 19L9 19L9 20L8 20L8 21L6 21L6 22L8 22L8 21L10 21L10 19L12 19L12 21L11 21L11 22L10 22L10 23L11 23L11 24L10 24L10 25L11 25L11 26L13 26L13 27L12 27L12 29L14 29L14 30L12 30L12 31L14 31L14 32L18 32L18 31L17 31L17 30L19 30L19 29L20 29L20 30L22 30L22 31L23 31L23 30L24 30L24 27L21 27L21 26L19 26L19 25L18 25L18 22L19 22L19 23L20 23L20 24L21 24L21 25L22 25L22 24L23 24L23 26L24 26L24 24L23 24L23 23L20 23L20 22L19 22L19 21L20 21L20 20L21 20L21 22L23 22L23 21L22 21L22 19L23 19L23 18L21 18L21 17L20 17L20 16L19 16L19 17L16 17L16 19L15 19L15 17L12 17L12 15L13 15L13 16L14 16L14 15L15 15L15 16L16 16L16 15L17 15L17 16L18 16L18 14L19 14L19 15L21 15L21 14L19 14L19 13L18 13L18 12L20 12L20 10L19 10L19 11L18 11L18 9L17 9L17 10L16 10L16 11L15 11L15 12L14 12L14 9L12 9L12 6L13 6L13 5L14 5L14 4L13 4L13 3L14 3L14 2ZM9 3L9 5L10 5L10 3ZM12 4L12 5L13 5L13 4ZM23 5L23 7L24 7L24 5ZM16 6L16 7L17 7L17 6ZM18 6L18 7L19 7L19 6ZM31 9L31 10L32 10L32 9ZM11 10L11 11L10 11L10 12L9 12L9 14L10 14L10 16L9 16L9 17L10 17L10 18L9 18L9 19L10 19L10 18L11 18L11 17L10 17L10 16L11 16L11 12L12 12L12 11L13 11L13 10ZM16 11L16 12L15 12L15 15L16 15L16 12L17 12L17 11ZM28 12L28 13L27 13L27 14L28 14L28 15L29 15L29 12ZM30 12L30 15L31 15L31 16L32 16L32 15L31 15L31 12ZM12 13L12 14L13 14L13 15L14 15L14 14L13 14L13 13ZM24 13L24 14L22 14L22 15L24 15L24 14L25 14L25 13ZM7 15L7 16L6 16L6 17L7 17L7 18L8 18L8 15ZM19 17L19 19L20 19L20 17ZM12 18L12 19L14 19L14 20L13 20L13 21L12 21L12 22L13 22L13 21L14 21L14 20L15 20L15 19L14 19L14 18ZM17 18L17 19L18 19L18 18ZM16 20L16 21L15 21L15 22L14 22L14 23L16 23L16 24L15 24L15 26L14 26L14 27L15 27L15 31L16 31L16 29L19 29L19 28L20 28L20 29L21 29L21 28L20 28L20 27L18 27L18 26L17 26L17 27L16 27L16 24L17 24L17 23L16 23L16 22L17 22L17 21L19 21L19 20ZM30 20L30 21L29 21L29 22L30 22L30 21L31 21L31 20ZM2 22L2 23L3 23L3 22ZM12 23L12 24L11 24L11 25L13 25L13 23ZM25 25L25 28L28 28L28 25ZM31 25L31 26L32 26L32 25ZM26 26L26 27L27 27L27 26ZM17 27L17 28L18 28L18 27ZM22 28L22 29L23 29L23 28ZM32 30L32 31L33 31L33 30ZM30 31L30 32L31 32L31 33L32 33L32 32L31 32L31 31ZM0 0L0 7L7 7L7 0ZM1 1L1 6L6 6L6 1ZM2 2L2 5L5 5L5 2ZM26 0L26 7L33 7L33 0ZM27 1L27 6L32 6L32 1ZM28 2L28 5L31 5L31 2ZM0 26L0 33L7 33L7 26ZM1 27L1 32L6 32L6 27ZM2 28L2 31L5 31L5 28Z" fill="#000000"/></g></g></svg>
