<?xml version="1.0" encoding="UTF-8"?>
<svg xmlns="http://www.w3.org/2000/svg" version="1.1" width="600" height="600" viewBox="0 0 600 600"><rect x="0" y="0" width="600" height="600" fill="#ffffff"/><g transform="scale(17.143)"><g transform="translate(1,1)"><path fill-rule="evenodd" d="M11 0L11 1L8 1L8 2L9 2L9 3L8 3L8 4L9 4L9 5L8 5L8 7L9 7L9 8L6 8L6 9L5 9L5 8L0 8L0 10L1 10L1 9L3 9L3 10L4 10L4 11L7 11L7 12L6 12L6 13L4 13L4 12L3 12L3 13L2 13L2 11L0 11L0 13L1 13L1 14L2 14L2 15L1 15L1 16L0 16L0 17L1 17L1 18L0 18L0 25L1 25L1 22L2 22L2 23L3 23L3 24L2 24L2 25L7 25L7 24L6 24L6 23L7 23L7 22L9 22L9 24L8 24L8 27L9 27L9 28L8 28L8 33L9 33L9 32L10 32L10 33L12 33L12 32L11 32L11 30L13 30L13 29L15 29L15 28L16 28L16 29L19 29L19 30L14 30L14 31L15 31L15 33L19 33L19 32L20 32L20 33L21 33L21 32L22 32L22 31L19 31L19 30L23 30L23 29L19 29L19 28L23 28L23 27L24 27L24 31L23 31L23 32L24 32L24 33L25 33L25 32L24 32L24 31L27 31L27 32L28 32L28 33L29 33L29 31L30 31L30 32L31 32L31 33L32 33L32 32L31 32L31 31L32 31L32 30L31 30L31 29L33 29L33 27L32 27L32 26L33 26L33 24L32 24L32 26L31 26L31 25L30 25L30 24L31 24L31 23L32 23L32 22L33 22L33 21L32 21L32 20L31 20L31 19L32 19L32 18L33 18L33 17L32 17L32 16L31 16L31 15L32 15L32 14L33 14L33 13L31 13L31 15L30 15L30 13L29 13L29 10L28 10L28 8L27 8L27 9L26 9L26 8L24 8L24 7L25 7L25 5L24 5L24 4L23 4L23 5L22 5L22 7L21 7L21 5L20 5L20 4L21 4L21 3L23 3L23 2L21 2L21 1L24 1L24 2L25 2L25 1L24 1L24 0L21 0L21 1L20 1L20 0L19 0L19 1L17 1L17 0L16 0L16 1L13 1L13 0ZM11 1L11 2L12 2L12 3L9 3L9 4L13 4L13 8L12 8L12 5L9 5L9 7L10 7L10 8L9 8L9 9L6 9L6 10L7 10L7 11L8 11L8 10L9 10L9 11L10 11L10 10L9 10L9 9L13 9L13 10L11 10L11 12L10 12L10 13L8 13L8 12L7 12L7 13L6 13L6 14L7 14L7 13L8 13L8 14L11 14L11 15L9 15L9 17L10 17L10 16L11 16L11 17L13 17L13 18L14 18L14 19L13 19L13 20L10 20L10 18L7 18L7 17L6 17L6 18L7 18L7 19L6 19L6 20L8 20L8 21L9 21L9 22L11 22L11 24L9 24L9 27L12 27L12 26L11 26L11 25L13 25L13 26L17 26L17 27L16 27L16 28L18 28L18 27L21 27L21 26L22 26L22 27L23 27L23 26L24 26L24 25L23 25L23 24L21 24L21 22L22 22L22 21L24 21L24 22L23 22L23 23L24 23L24 24L27 24L27 22L25 22L25 21L27 21L27 20L28 20L28 19L26 19L26 18L25 18L25 17L28 17L28 18L29 18L29 17L30 17L30 19L29 19L29 20L30 20L30 21L28 21L28 24L30 24L30 23L29 23L29 22L30 22L30 21L31 21L31 20L30 20L30 19L31 19L31 16L30 16L30 15L29 15L29 13L28 13L28 16L26 16L26 14L25 14L25 13L27 13L27 12L28 12L28 11L27 11L27 10L25 10L25 9L24 9L24 10L22 10L22 11L23 11L23 12L21 12L21 13L20 13L20 12L19 12L19 11L21 11L21 9L23 9L23 8L21 8L21 7L20 7L20 5L18 5L18 4L20 4L20 3L21 3L21 2L20 2L20 1L19 1L19 2L12 2L12 1ZM13 3L13 4L14 4L14 5L15 5L15 6L14 6L14 8L13 8L13 9L15 9L15 8L16 8L16 9L18 9L18 10L13 10L13 11L19 11L19 10L20 10L20 9L21 9L21 8L20 8L20 7L19 7L19 6L18 6L18 5L15 5L15 4L18 4L18 3L15 3L15 4L14 4L14 3ZM23 5L23 7L24 7L24 5ZM10 6L10 7L11 7L11 6ZM15 6L15 7L16 7L16 8L18 8L18 9L20 9L20 8L18 8L18 6L17 6L17 7L16 7L16 6ZM29 8L29 9L30 9L30 8ZM31 8L31 10L33 10L33 9L32 9L32 8ZM4 9L4 10L5 10L5 9ZM25 11L25 12L24 12L24 13L22 13L22 15L21 15L21 16L22 16L22 17L19 17L19 16L20 16L20 15L19 15L19 14L20 14L20 13L18 13L18 12L17 12L17 13L16 13L16 12L15 12L15 13L14 13L14 12L11 12L11 14L12 14L12 15L11 15L11 16L12 16L12 15L14 15L14 14L15 14L15 16L13 16L13 17L16 17L16 18L15 18L15 20L13 20L13 21L11 21L11 22L12 22L12 24L13 24L13 25L14 25L14 24L13 24L13 23L16 23L16 22L13 22L13 21L18 21L18 22L17 22L17 23L19 23L19 22L20 22L20 21L21 21L21 20L22 20L22 19L23 19L23 18L24 18L24 17L23 17L23 16L24 16L24 15L25 15L25 14L24 14L24 13L25 13L25 12L26 12L26 11ZM30 11L30 12L31 12L31 11ZM3 13L3 15L2 15L2 16L1 16L1 17L2 17L2 18L1 18L1 21L2 21L2 18L3 18L3 19L4 19L4 20L5 20L5 19L4 19L4 18L5 18L5 17L4 17L4 16L5 16L5 15L4 15L4 13ZM13 13L13 14L14 14L14 13ZM15 13L15 14L16 14L16 13ZM17 13L17 14L18 14L18 13ZM23 14L23 15L24 15L24 14ZM6 15L6 16L8 16L8 15ZM16 15L16 17L17 17L17 18L16 18L16 19L17 19L17 20L18 20L18 21L20 21L20 20L21 20L21 18L19 18L19 17L17 17L17 16L18 16L18 15ZM28 16L28 17L29 17L29 16ZM11 18L11 19L12 19L12 18ZM18 18L18 19L19 19L19 20L20 20L20 19L19 19L19 18ZM24 20L24 21L25 21L25 20ZM6 21L6 22L4 22L4 23L6 23L6 22L7 22L7 21ZM15 24L15 25L19 25L19 26L20 26L20 25L21 25L21 24ZM22 25L22 26L23 26L23 25ZM25 25L25 28L28 28L28 25ZM29 25L29 28L30 28L30 29L31 29L31 28L32 28L32 27L31 27L31 26L30 26L30 25ZM26 26L26 27L27 27L27 26ZM13 27L13 28L11 28L11 29L13 29L13 28L15 28L15 27ZM30 27L30 28L31 28L31 27ZM9 29L9 31L10 31L10 29ZM25 29L25 30L28 30L28 31L29 31L29 30L28 30L28 29ZM30 30L30 31L31 31L31 30ZM16 31L16 32L19 32L19 31ZM13 32L13 33L14 33L14 32ZM0 0L0 7L7 7L7 0ZM1 1L1 6L6 6L6 1ZM2 2L2 5L5 5L5 2ZM26 0L26 7L33 7L33 0ZM27 1L27 6L32 6L32 1ZM28 2L28 5L31 5L31 2ZM0 26L0 33L7 33L7 26ZM1 27L1 32L6 32L6 27ZM2 28L2 31L5 31L5 28Z" fill="#000000"/></g></g></svg>
