<?xml version="1.0" encoding="UTF-8"?>
<svg xmlns="http://www.w3.org/2000/svg" version="1.1" width="600" height="600" viewBox="0 0 600 600"><rect x="0" y="0" width="600" height="600" fill="#ffffff"/><g transform="scale(17.143)"><g transform="translate(1,1)"><path fill-rule="evenodd" d="M10 0L10 2L9 2L9 3L8 3L8 5L12 5L12 8L13 8L13 9L11 9L11 10L10 10L10 11L11 11L11 10L13 10L13 9L14 9L14 8L15 8L15 10L14 10L14 11L16 11L16 12L14 12L14 16L13 16L13 17L10 17L10 16L12 16L12 15L13 15L13 12L12 12L12 13L11 13L11 12L8 12L8 13L9 13L9 14L8 14L8 15L7 15L7 14L5 14L5 13L7 13L7 12L6 12L6 11L9 11L9 10L6 10L6 11L4 11L4 9L2 9L2 8L0 8L0 9L1 9L1 10L0 10L0 12L1 12L1 15L2 15L2 16L4 16L4 15L7 15L7 16L6 16L6 17L7 17L7 18L6 18L6 19L7 19L7 20L6 20L6 21L5 21L5 19L3 19L3 18L5 18L5 17L0 17L0 18L1 18L1 20L2 20L2 21L3 21L3 20L4 20L4 22L3 22L3 24L1 24L1 21L0 21L0 25L3 25L3 24L4 24L4 25L5 25L5 24L6 24L6 25L8 25L8 28L9 28L9 29L10 29L10 31L8 31L8 33L12 33L12 32L10 32L10 31L12 31L12 30L13 30L13 31L14 31L14 30L13 30L13 29L15 29L15 33L19 33L19 31L20 31L20 30L21 30L21 29L19 29L19 28L17 28L17 26L18 26L18 27L19 27L19 26L20 26L20 28L21 28L21 27L22 27L22 28L23 28L23 27L24 27L24 30L23 30L23 29L22 29L22 32L24 32L24 33L25 33L25 32L24 32L24 31L25 31L25 29L27 29L27 31L28 31L28 33L29 33L29 30L31 30L31 29L33 29L33 28L31 28L31 27L32 27L32 26L33 26L33 25L32 25L32 24L31 24L31 23L32 23L32 20L31 20L31 19L30 19L30 20L29 20L29 19L28 19L28 18L27 18L27 17L25 17L25 19L26 19L26 18L27 18L27 21L28 21L28 22L27 22L27 23L28 23L28 22L29 22L29 23L30 23L30 24L31 24L31 25L30 25L30 26L31 26L31 27L30 27L30 28L29 28L29 24L24 24L24 23L23 23L23 22L24 22L24 21L25 21L25 22L26 22L26 21L25 21L25 20L24 20L24 21L23 21L23 22L22 22L22 21L21 21L21 23L22 23L22 26L21 26L21 24L20 24L20 23L19 23L19 24L18 24L18 25L17 25L17 26L16 26L16 22L17 22L17 23L18 23L18 22L17 22L17 21L19 21L19 22L20 22L20 21L19 21L19 20L20 20L20 17L21 17L21 16L20 16L20 17L19 17L19 14L20 14L20 15L21 15L21 14L22 14L22 15L23 15L23 16L22 16L22 18L21 18L21 19L22 19L22 18L23 18L23 19L24 19L24 17L23 17L23 16L24 16L24 15L25 15L25 14L26 14L26 15L28 15L28 17L29 17L29 18L30 18L30 17L29 17L29 15L30 15L30 16L31 16L31 18L32 18L32 19L33 19L33 17L32 17L32 16L33 16L33 15L32 15L32 14L33 14L33 12L31 12L31 11L30 11L30 12L29 12L29 9L30 9L30 8L28 8L28 10L27 10L27 12L26 12L26 11L25 11L25 12L22 12L22 13L21 13L21 14L20 14L20 12L21 12L21 11L22 11L22 9L21 9L21 8L20 8L20 7L21 7L21 6L22 6L22 8L23 8L23 10L24 10L24 9L25 9L25 10L26 10L26 9L25 9L25 8L24 8L24 7L25 7L25 5L24 5L24 4L23 4L23 2L22 2L22 0L21 0L21 1L20 1L20 2L19 2L19 3L21 3L21 4L23 4L23 5L20 5L20 4L18 4L18 3L17 3L17 2L16 2L16 3L17 3L17 4L18 4L18 5L17 5L17 6L16 6L16 8L15 8L15 6L14 6L14 8L13 8L13 4L14 4L14 5L15 5L15 3L13 3L13 4L11 4L11 0ZM12 0L12 1L14 1L14 2L15 2L15 1L14 1L14 0ZM16 0L16 1L19 1L19 0ZM24 1L24 2L25 2L25 1ZM19 5L19 7L18 7L18 6L17 6L17 8L16 8L16 10L18 10L18 11L17 11L17 12L16 12L16 15L15 15L15 16L14 16L14 17L13 17L13 18L14 18L14 17L16 17L16 19L15 19L15 20L14 20L14 19L13 19L13 20L10 20L10 19L9 19L9 18L8 18L8 19L9 19L9 20L8 20L8 21L9 21L9 22L7 22L7 21L6 21L6 22L4 22L4 24L5 24L5 23L6 23L6 24L9 24L9 23L10 23L10 24L12 24L12 25L13 25L13 26L15 26L15 25L14 25L14 23L15 23L15 21L16 21L16 20L18 20L18 18L19 18L19 17L16 17L16 15L17 15L17 16L18 16L18 14L19 14L19 13L18 13L18 11L19 11L19 12L20 12L20 11L21 11L21 10L19 10L19 9L20 9L20 8L19 8L19 7L20 7L20 5ZM23 5L23 7L24 7L24 5ZM8 6L8 7L9 7L9 6ZM10 6L10 8L11 8L11 6ZM5 8L5 9L8 9L8 8ZM17 8L17 9L19 9L19 8ZM31 9L31 10L32 10L32 9ZM2 10L2 11L3 11L3 10ZM4 12L4 13L5 13L5 12ZM28 12L28 13L27 13L27 14L28 14L28 15L29 15L29 12ZM30 12L30 15L31 15L31 16L32 16L32 15L31 15L31 12ZM2 13L2 15L3 15L3 13ZM10 13L10 14L9 14L9 15L8 15L8 17L9 17L9 15L12 15L12 14L11 14L11 13ZM17 13L17 14L18 14L18 13ZM24 13L24 14L23 14L23 15L24 15L24 14L25 14L25 13ZM13 20L13 21L10 21L10 23L11 23L11 22L12 22L12 24L13 24L13 21L14 21L14 20ZM30 20L30 21L29 21L29 22L30 22L30 21L31 21L31 20ZM6 22L6 23L7 23L7 22ZM23 24L23 26L22 26L22 27L23 27L23 26L24 26L24 24ZM10 25L10 26L9 26L9 27L12 27L12 26L11 26L11 25ZM18 25L18 26L19 26L19 25ZM25 25L25 28L28 28L28 25ZM31 25L31 26L32 26L32 25ZM26 26L26 27L27 27L27 26ZM13 27L13 28L10 28L10 29L13 29L13 28L14 28L14 27ZM15 27L15 29L16 29L16 32L18 32L18 31L19 31L19 29L16 29L16 27ZM30 28L30 29L31 29L31 28ZM32 30L32 31L33 31L33 30ZM30 31L30 32L31 32L31 33L32 33L32 32L31 32L31 31ZM13 32L13 33L14 33L14 32ZM20 32L20 33L21 33L21 32ZM0 0L0 7L7 7L7 0ZM1 1L1 6L6 6L6 1ZM2 2L2 5L5 5L5 2ZM26 0L26 7L33 7L33 0ZM27 1L27 6L32 6L32 1ZM28 2L28 5L31 5L31 2ZM0 26L0 33L7 33L7 26ZM1 27L1 32L6 32L6 27ZM2 28L2 31L5 31L5 28Z" fill="#000000"/></g></g></svg>
