<?xml version="1.0" encoding="UTF-8"?>
<svg xmlns="http://www.w3.org/2000/svg" version="1.1" width="600" height="600" viewBox="0 0 600 600"><rect x="0" y="0" width="600" height="600" fill="#ffffff"/><g transform="scale(17.143)"><g transform="translate(1,1)"><path fill-rule="evenodd" d="M11 0L11 1L9 1L9 2L11 2L11 1L15 1L15 0ZM17 0L17 1L16 1L16 2L14 2L14 3L13 3L13 2L12 2L12 4L14 4L14 3L15 3L15 4L16 4L16 2L17 2L17 1L18 1L18 2L19 2L19 3L17 3L17 4L19 4L19 5L18 5L18 8L15 8L15 10L13 10L13 9L14 9L14 8L13 8L13 9L12 9L12 7L13 7L13 6L14 6L14 7L15 7L15 6L14 6L14 5L11 5L11 6L10 6L10 8L9 8L9 10L8 10L8 8L5 8L5 9L7 9L7 10L4 10L4 12L3 12L3 18L2 18L2 17L1 17L1 19L2 19L2 21L0 21L0 25L2 25L2 24L1 24L1 22L4 22L4 21L5 21L5 18L6 18L6 19L7 19L7 18L8 18L8 19L9 19L9 17L12 17L12 18L10 18L10 20L6 20L6 21L8 21L8 22L5 22L5 23L3 23L3 24L4 24L4 25L5 25L5 24L6 24L6 25L7 25L7 24L6 24L6 23L8 23L8 28L9 28L9 29L11 29L11 27L10 27L10 28L9 28L9 23L11 23L11 24L12 24L12 23L13 23L13 22L9 22L9 21L10 21L10 20L11 20L11 19L12 19L12 21L14 21L14 22L15 22L15 23L14 23L14 24L13 24L13 25L12 25L12 26L13 26L13 27L12 27L12 29L13 29L13 28L14 28L14 29L15 29L15 30L12 30L12 31L10 31L10 30L9 30L9 31L8 31L8 33L9 33L9 31L10 31L10 33L12 33L12 31L14 31L14 32L15 32L15 33L19 33L19 32L17 32L17 31L16 31L16 30L17 30L17 29L19 29L19 30L18 30L18 31L23 31L23 32L24 32L24 33L25 33L25 32L24 32L24 31L25 31L25 29L27 29L27 31L28 31L28 33L29 33L29 30L31 30L31 29L30 29L30 28L33 28L33 27L32 27L32 26L33 26L33 25L32 25L32 24L31 24L31 23L32 23L32 20L31 20L31 19L30 19L30 20L29 20L29 19L28 19L28 18L27 18L27 17L25 17L25 19L26 19L26 18L27 18L27 21L28 21L28 22L27 22L27 23L28 23L28 22L29 22L29 23L30 23L30 24L31 24L31 25L30 25L30 26L31 26L31 27L30 27L30 28L29 28L29 24L24 24L24 23L23 23L23 22L24 22L24 21L25 21L25 22L26 22L26 21L25 21L25 20L24 20L24 21L23 21L23 22L22 22L22 21L21 21L21 19L22 19L22 18L23 18L23 19L24 19L24 17L23 17L23 16L24 16L24 15L25 15L25 14L26 14L26 15L28 15L28 17L29 17L29 18L30 18L30 17L29 17L29 15L30 15L30 16L31 16L31 18L32 18L32 19L33 19L33 17L32 17L32 16L33 16L33 15L32 15L32 14L33 14L33 12L31 12L31 11L30 11L30 12L29 12L29 9L30 9L30 8L28 8L28 10L27 10L27 12L26 12L26 11L25 11L25 12L22 12L22 13L21 13L21 14L20 14L20 13L18 13L18 14L20 14L20 17L19 17L19 16L16 16L16 15L17 15L17 14L16 14L16 12L17 12L17 9L19 9L19 10L18 10L18 12L19 12L19 10L20 10L20 11L21 11L21 6L22 6L22 8L23 8L23 10L24 10L24 9L25 9L25 10L26 10L26 9L25 9L25 8L24 8L24 7L25 7L25 5L24 5L24 4L23 4L23 2L22 2L22 0L21 0L21 1L20 1L20 2L19 2L19 0ZM24 1L24 2L25 2L25 1ZM20 2L20 3L19 3L19 4L20 4L20 5L19 5L19 7L20 7L20 6L21 6L21 5L23 5L23 7L24 7L24 5L23 5L23 4L21 4L21 2ZM8 3L8 5L10 5L10 4L9 4L9 3ZM16 5L16 7L17 7L17 5ZM8 6L8 7L9 7L9 6ZM11 6L11 7L12 7L12 6ZM0 8L0 9L2 9L2 10L1 10L1 11L0 11L0 15L1 15L1 16L2 16L2 14L1 14L1 12L2 12L2 10L3 10L3 9L2 9L2 8ZM10 8L10 10L9 10L9 11L6 11L6 12L8 12L8 13L4 13L4 14L5 14L5 15L4 15L4 18L3 18L3 20L4 20L4 18L5 18L5 15L6 15L6 16L8 16L8 15L9 15L9 14L10 14L10 15L11 15L11 14L14 14L14 12L16 12L16 11L13 11L13 10L12 10L12 9L11 9L11 8ZM19 8L19 9L20 9L20 8ZM31 9L31 10L32 10L32 9ZM10 10L10 11L9 11L9 13L8 13L8 14L6 14L6 15L8 15L8 14L9 14L9 13L10 13L10 11L11 11L11 10ZM12 11L12 12L11 12L11 13L13 13L13 11ZM28 12L28 13L27 13L27 14L28 14L28 15L29 15L29 12ZM30 12L30 15L31 15L31 16L32 16L32 15L31 15L31 12ZM24 13L24 14L23 14L23 15L22 15L22 14L21 14L21 17L20 17L20 19L19 19L19 17L16 17L16 19L15 19L15 18L14 18L14 17L15 17L15 15L12 15L12 17L13 17L13 18L12 18L12 19L13 19L13 20L16 20L16 22L18 22L18 21L20 21L20 19L21 19L21 18L22 18L22 16L23 16L23 15L24 15L24 14L25 14L25 13ZM13 16L13 17L14 17L14 16ZM6 17L6 18L7 18L7 17ZM17 18L17 19L16 19L16 20L17 20L17 21L18 21L18 20L19 20L19 19L18 19L18 18ZM17 19L17 20L18 20L18 19ZM30 20L30 21L29 21L29 22L30 22L30 21L31 21L31 20ZM8 22L8 23L9 23L9 22ZM19 22L19 23L16 23L16 26L17 26L17 28L16 28L16 27L15 27L15 28L16 28L16 29L17 29L17 28L18 28L18 26L19 26L19 27L20 27L20 28L19 28L19 29L20 29L20 30L21 30L21 29L23 29L23 30L24 30L24 27L23 27L23 26L24 26L24 24L23 24L23 26L22 26L22 27L20 27L20 26L21 26L21 25L22 25L22 23L21 23L21 22ZM18 24L18 25L19 25L19 26L20 26L20 25L19 25L19 24ZM14 25L14 26L15 26L15 25ZM25 25L25 28L28 28L28 25ZM31 25L31 26L32 26L32 25ZM26 26L26 27L27 27L27 26ZM22 27L22 28L23 28L23 27ZM20 28L20 29L21 29L21 28ZM32 30L32 31L33 31L33 30ZM15 31L15 32L16 32L16 31ZM30 31L30 32L31 32L31 33L32 33L32 32L31 32L31 31ZM20 32L20 33L21 33L21 32ZM0 0L0 7L7 7L7 0ZM1 1L1 6L6 6L6 1ZM2 2L2 5L5 5L5 2ZM26 0L26 7L33 7L33 0ZM27 1L27 6L32 6L32 1ZM28 2L28 5L31 5L31 2ZM0 26L0 33L7 33L7 26ZM1 27L1 32L6 32L6 27ZM2 28L2 31L5 31L5 28Z" fill="#000000"/></g></g></svg>
