<?xml version="1.0" encoding="UTF-8"?>
<svg xmlns="http://www.w3.org/2000/svg" version="1.1" width="600" height="600" viewBox="0 0 600 600"><rect x="0" y="0" width="600" height="600" fill="#ffffff"/><g transform="scale(17.143)"><g transform="translate(1,1)"><path fill-rule="evenodd" d="M9 0L9 1L8 1L8 2L9 2L9 3L8 3L8 4L10 4L10 7L11 7L11 4L12 4L12 5L13 5L13 4L16 4L16 5L14 5L14 7L15 7L15 6L16 6L16 8L15 8L15 9L14 9L14 8L13 8L13 6L12 6L12 9L14 9L14 10L11 10L11 11L10 11L10 9L11 9L11 8L6 8L6 9L8 9L8 10L6 10L6 11L7 11L7 12L4 12L4 11L2 11L2 10L4 10L4 9L5 9L5 8L0 8L0 12L3 12L3 13L0 13L0 14L1 14L1 15L0 15L0 17L1 17L1 18L0 18L0 19L1 19L1 20L0 20L0 25L1 25L1 22L3 22L3 24L2 24L2 25L8 25L8 27L9 27L9 24L10 24L10 23L11 23L11 21L12 21L12 22L13 22L13 23L12 23L12 25L14 25L14 26L11 26L11 27L10 27L10 28L8 28L8 33L9 33L9 30L10 30L10 28L11 28L11 29L12 29L12 30L13 30L13 31L12 31L12 33L13 33L13 32L14 32L14 33L21 33L21 32L22 32L22 31L21 31L21 32L17 32L17 29L19 29L19 30L18 30L18 31L19 31L19 30L20 30L20 29L21 29L21 30L22 30L22 29L23 29L23 27L24 27L24 31L23 31L23 32L24 32L24 33L25 33L25 32L24 32L24 31L27 31L27 32L28 32L28 33L29 33L29 31L30 31L30 32L31 32L31 33L32 33L32 32L31 32L31 31L32 31L32 30L31 30L31 29L30 29L30 28L31 28L31 27L32 27L32 28L33 28L33 27L32 27L32 26L33 26L33 24L32 24L32 26L31 26L31 25L30 25L30 24L31 24L31 23L32 23L32 22L33 22L33 21L32 21L32 20L31 20L31 19L32 19L32 18L33 18L33 17L32 17L32 16L31 16L31 15L32 15L32 14L33 14L33 13L31 13L31 15L30 15L30 13L29 13L29 10L28 10L28 8L27 8L27 9L26 9L26 8L24 8L24 7L25 7L25 5L24 5L24 4L23 4L23 5L22 5L22 7L21 7L21 6L20 6L20 7L19 7L19 5L20 5L20 4L21 4L21 3L23 3L23 2L20 2L20 4L19 4L19 3L17 3L17 4L16 4L16 3L15 3L15 2L17 2L17 1L15 1L15 0L14 0L14 1L15 1L15 2L14 2L14 3L13 3L13 4L12 4L12 2L13 2L13 1L11 1L11 2L10 2L10 0ZM19 0L19 1L20 1L20 0ZM21 0L21 1L24 1L24 2L25 2L25 1L24 1L24 0ZM10 3L10 4L11 4L11 3ZM18 4L18 5L16 5L16 6L17 6L17 8L19 8L19 9L18 9L18 10L17 10L17 9L15 9L15 10L17 10L17 12L19 12L19 13L18 13L18 14L17 14L17 13L15 13L15 11L12 11L12 13L11 13L11 12L10 12L10 13L9 13L9 15L8 15L8 14L7 14L7 13L6 13L6 14L5 14L5 15L6 15L6 16L11 16L11 18L14 18L14 19L12 19L12 21L13 21L13 22L14 22L14 23L13 23L13 24L14 24L14 25L15 25L15 26L16 26L16 25L17 25L17 24L18 24L18 23L19 23L19 25L18 25L18 26L17 26L17 27L16 27L16 29L15 29L15 28L14 28L14 27L12 27L12 29L14 29L14 30L16 30L16 29L17 29L17 28L19 28L19 29L20 29L20 26L22 26L22 25L23 25L23 26L24 26L24 25L23 25L23 23L24 23L24 24L27 24L27 22L25 22L25 21L27 21L27 20L28 20L28 19L26 19L26 18L25 18L25 17L28 17L28 18L29 18L29 17L30 17L30 19L29 19L29 20L30 20L30 21L28 21L28 24L30 24L30 23L29 23L29 22L30 22L30 21L31 21L31 20L30 20L30 19L31 19L31 16L30 16L30 15L29 15L29 13L28 13L28 16L26 16L26 14L25 14L25 13L27 13L27 12L28 12L28 11L27 11L27 10L25 10L25 9L24 9L24 10L22 10L22 9L23 9L23 8L21 8L21 7L20 7L20 8L19 8L19 7L18 7L18 5L19 5L19 4ZM8 5L8 7L9 7L9 5ZM23 5L23 7L24 7L24 5ZM20 8L20 9L19 9L19 10L18 10L18 11L19 11L19 10L20 10L20 9L21 9L21 8ZM29 8L29 9L30 9L30 8ZM31 8L31 10L33 10L33 9L32 9L32 8ZM1 9L1 10L2 10L2 9ZM21 10L21 12L20 12L20 13L19 13L19 14L18 14L18 15L19 15L19 16L20 16L20 17L18 17L18 16L17 16L17 14L15 14L15 13L14 13L14 12L13 12L13 13L12 13L12 14L13 14L13 15L12 15L12 17L18 17L18 18L20 18L20 17L21 17L21 16L22 16L22 14L24 14L24 15L23 15L23 16L24 16L24 15L25 15L25 14L24 14L24 13L25 13L25 12L26 12L26 11L25 11L25 12L24 12L24 13L21 13L21 12L23 12L23 11L22 11L22 10ZM30 11L30 12L31 12L31 11ZM3 13L3 14L4 14L4 13ZM10 13L10 14L11 14L11 13ZM13 13L13 14L14 14L14 15L13 15L13 16L14 16L14 15L15 15L15 16L16 16L16 15L15 15L15 14L14 14L14 13ZM20 13L20 14L19 14L19 15L20 15L20 16L21 16L21 13ZM6 14L6 15L7 15L7 14ZM1 16L1 17L2 17L2 19L3 19L3 20L2 20L2 21L3 21L3 22L4 22L4 21L3 21L3 20L4 20L4 18L8 18L8 17L4 17L4 16ZM28 16L28 17L29 17L29 16ZM3 17L3 18L4 18L4 17ZM9 17L9 19L10 19L10 20L11 20L11 19L10 19L10 17ZM22 17L22 19L21 19L21 20L19 20L19 19L18 19L18 20L17 20L17 21L16 21L16 19L17 19L17 18L15 18L15 20L13 20L13 21L16 21L16 22L15 22L15 25L16 25L16 23L17 23L17 21L18 21L18 22L20 22L20 23L21 23L21 24L20 24L20 25L19 25L19 26L18 26L18 27L19 27L19 26L20 26L20 25L21 25L21 24L22 24L22 23L23 23L23 22L24 22L24 21L25 21L25 20L24 20L24 21L23 21L23 18L24 18L24 17ZM5 19L5 20L8 20L8 21L9 21L9 20L8 20L8 19ZM18 20L18 21L19 21L19 20ZM21 20L21 21L20 21L20 22L21 22L21 21L22 21L22 20ZM6 21L6 22L5 22L5 23L4 23L4 24L5 24L5 23L6 23L6 24L9 24L9 23L10 23L10 22L9 22L9 23L6 23L6 22L7 22L7 21ZM25 25L25 28L28 28L28 25ZM29 25L29 28L30 28L30 27L31 27L31 26L30 26L30 25ZM26 26L26 27L27 27L27 26ZM21 28L21 29L22 29L22 28ZM25 29L25 30L28 30L28 31L29 31L29 30L28 30L28 29ZM30 30L30 31L31 31L31 30ZM10 31L10 33L11 33L11 31ZM14 31L14 32L15 32L15 31ZM0 0L0 7L7 7L7 0ZM1 1L1 6L6 6L6 1ZM2 2L2 5L5 5L5 2ZM26 0L26 7L33 7L33 0ZM27 1L27 6L32 6L32 1ZM28 2L28 5L31 5L31 2ZM0 26L0 33L7 33L7 26ZM1 27L1 32L6 32L6 27ZM2 28L2 31L5 31L5 28Z" fill="#000000"/></g></g></svg>
