<?xml version="1.0" encoding="UTF-8"?>
<svg xmlns="http://www.w3.org/2000/svg" version="1.1" width="600" height="600" viewBox="0 0 600 600"><rect x="0" y="0" width="600" height="600" fill="#ffffff"/><g transform="scale(17.143)"><g transform="translate(1,1)"><path fill-rule="evenodd" d="M9 0L9 1L8 1L8 2L9 2L9 3L8 3L8 4L10 4L10 7L11 7L11 4L12 4L12 5L13 5L13 4L15 4L15 3L16 3L16 4L19 4L19 5L17 5L17 6L16 6L16 5L14 5L14 8L13 8L13 6L12 6L12 9L13 9L13 10L11 10L11 11L10 11L10 9L11 9L11 8L6 8L6 9L5 9L5 8L0 8L0 11L1 11L1 12L0 12L0 13L2 13L2 14L3 14L3 13L4 13L4 14L5 14L5 15L8 15L8 16L9 16L9 15L10 15L10 16L11 16L11 15L10 15L10 14L11 14L11 13L12 13L12 14L13 14L13 13L19 13L19 14L18 14L18 15L19 15L19 16L20 16L20 17L18 17L18 16L16 16L16 14L14 14L14 15L15 15L15 16L13 16L13 15L12 15L12 17L18 17L18 19L19 19L19 18L20 18L20 17L21 17L21 16L24 16L24 15L25 15L25 14L26 14L26 16L28 16L28 17L25 17L25 18L26 18L26 19L28 19L28 20L27 20L27 21L25 21L25 20L24 20L24 21L23 21L23 18L24 18L24 17L22 17L22 19L21 19L21 20L20 20L20 21L18 21L18 20L17 20L17 19L16 19L16 18L14 18L14 19L15 19L15 21L14 21L14 20L13 20L13 21L12 21L12 19L13 19L13 18L11 18L11 17L9 17L9 18L11 18L11 21L12 21L12 22L13 22L13 23L12 23L12 25L14 25L14 26L15 26L15 29L18 29L18 30L14 30L14 29L12 29L12 27L13 27L13 26L11 26L11 25L10 25L10 26L9 26L9 25L8 25L8 24L9 24L9 23L11 23L11 22L10 22L10 21L9 21L9 23L8 23L8 20L6 20L6 19L8 19L8 18L5 18L5 16L4 16L4 15L3 15L3 16L1 16L1 14L0 14L0 16L1 16L1 17L0 17L0 19L1 19L1 20L0 20L0 25L1 25L1 22L2 22L2 23L3 23L3 22L4 22L4 23L7 23L7 24L2 24L2 25L8 25L8 27L10 27L10 28L8 28L8 33L11 33L11 32L10 32L10 31L11 31L11 30L10 30L10 28L11 28L11 29L12 29L12 30L13 30L13 31L12 31L12 33L13 33L13 32L14 32L14 33L19 33L19 32L20 32L20 31L19 31L19 30L20 30L20 29L21 29L21 30L22 30L22 29L23 29L23 27L24 27L24 31L21 31L21 32L22 32L22 33L23 33L23 32L24 32L24 33L25 33L25 32L24 32L24 31L27 31L27 32L28 32L28 33L29 33L29 31L30 31L30 32L31 32L31 33L32 33L32 32L31 32L31 31L32 31L32 30L31 30L31 29L30 29L30 28L31 28L31 27L32 27L32 28L33 28L33 27L32 27L32 26L33 26L33 24L32 24L32 26L31 26L31 25L30 25L30 24L31 24L31 23L32 23L32 22L33 22L33 21L32 21L32 20L31 20L31 19L32 19L32 18L33 18L33 17L32 17L32 16L31 16L31 15L32 15L32 14L33 14L33 13L31 13L31 15L30 15L30 13L29 13L29 10L28 10L28 8L27 8L27 9L26 9L26 8L24 8L24 7L25 7L25 5L24 5L24 4L23 4L23 5L22 5L22 7L21 7L21 6L20 6L20 7L19 7L19 5L20 5L20 4L21 4L21 3L23 3L23 2L21 2L21 3L20 3L20 2L19 2L19 1L20 1L20 0L19 0L19 1L17 1L17 2L19 2L19 3L16 3L16 1L15 1L15 0L14 0L14 1L15 1L15 3L13 3L13 4L12 4L12 2L13 2L13 1L11 1L11 2L10 2L10 0ZM21 0L21 1L24 1L24 2L25 2L25 1L24 1L24 0ZM10 3L10 4L11 4L11 3ZM19 3L19 4L20 4L20 3ZM8 5L8 7L9 7L9 5ZM23 5L23 7L24 7L24 5ZM15 6L15 7L16 7L16 6ZM17 6L17 8L18 8L18 9L15 9L15 8L14 8L14 9L15 9L15 10L13 10L13 11L12 11L12 13L13 13L13 12L14 12L14 11L15 11L15 12L16 12L16 11L15 11L15 10L17 10L17 12L19 12L19 13L20 13L20 14L19 14L19 15L20 15L20 14L21 14L21 15L24 15L24 14L25 14L25 13L27 13L27 12L28 12L28 11L27 11L27 10L25 10L25 9L24 9L24 10L22 10L22 9L23 9L23 8L21 8L21 7L20 7L20 8L18 8L18 6ZM29 8L29 9L30 9L30 8ZM31 8L31 10L33 10L33 9L32 9L32 8ZM1 9L1 10L2 10L2 9ZM4 9L4 11L2 11L2 13L3 13L3 12L4 12L4 11L6 11L6 12L5 12L5 13L6 13L6 14L7 14L7 13L8 13L8 14L10 14L10 13L11 13L11 12L10 12L10 13L8 13L8 12L9 12L9 10L7 10L7 9L6 9L6 10L5 10L5 9ZM18 9L18 11L19 11L19 12L20 12L20 13L21 13L21 14L24 14L24 13L25 13L25 12L26 12L26 11L25 11L25 12L24 12L24 13L21 13L21 12L22 12L22 10L21 10L21 9ZM6 10L6 11L7 11L7 12L6 12L6 13L7 13L7 12L8 12L8 11L7 11L7 10ZM19 10L19 11L21 11L21 10ZM30 11L30 12L31 12L31 11ZM28 13L28 16L29 16L29 17L28 17L28 18L29 18L29 17L30 17L30 19L29 19L29 20L30 20L30 21L28 21L28 24L30 24L30 23L29 23L29 22L30 22L30 21L31 21L31 20L30 20L30 19L31 19L31 16L30 16L30 15L29 15L29 13ZM3 16L3 17L4 17L4 16ZM6 16L6 17L7 17L7 16ZM2 18L2 19L3 19L3 18ZM4 18L4 19L5 19L5 18ZM9 19L9 20L10 20L10 19ZM2 20L2 22L3 22L3 20ZM5 20L5 21L4 21L4 22L7 22L7 21L6 21L6 20ZM16 20L16 21L15 21L15 22L14 22L14 21L13 21L13 22L14 22L14 23L13 23L13 24L14 24L14 25L15 25L15 26L16 26L16 28L18 28L18 29L19 29L19 28L21 28L21 29L22 29L22 28L21 28L21 26L22 26L22 25L23 25L23 26L24 26L24 25L23 25L23 23L24 23L24 24L27 24L27 22L25 22L25 21L24 21L24 22L23 22L23 23L22 23L22 24L21 24L21 25L20 25L20 22L21 22L21 21L22 21L22 20L21 20L21 21L20 21L20 22L19 22L19 23L18 23L18 21L17 21L17 20ZM16 21L16 22L15 22L15 24L16 24L16 25L19 25L19 26L17 26L17 27L19 27L19 26L20 26L20 25L19 25L19 24L16 24L16 23L17 23L17 21ZM25 25L25 28L28 28L28 25ZM29 25L29 28L30 28L30 27L31 27L31 26L30 26L30 25ZM10 26L10 27L11 27L11 26ZM26 26L26 27L27 27L27 26ZM25 29L25 30L28 30L28 31L29 31L29 30L28 30L28 29ZM9 30L9 31L10 31L10 30ZM30 30L30 31L31 31L31 30ZM14 31L14 32L16 32L16 31ZM17 31L17 32L18 32L18 31ZM0 0L0 7L7 7L7 0ZM1 1L1 6L6 6L6 1ZM2 2L2 5L5 5L5 2ZM26 0L26 7L33 7L33 0ZM27 1L27 6L32 6L32 1ZM28 2L28 5L31 5L31 2ZM0 26L0 33L7 33L7 26ZM1 27L1 32L6 32L6 27ZM2 28L2 31L5 31L5 28Z" fill="#000000"/></g></g></svg>
