<?xml version="1.0" encoding="UTF-8"?>
<svg xmlns="http://www.w3.org/2000/svg" version="1.1" width="600" height="600" viewBox="0 0 600 600"><rect x="0" y="0" width="600" height="600" fill="#ffffff"/><g transform="scale(17.143)"><g transform="translate(1,1)"><path fill-rule="evenodd" d="M8 0L8 1L10 1L10 0ZM13 0L13 1L14 1L14 2L11 2L11 4L10 4L10 3L9 3L9 2L8 2L8 5L9 5L9 6L8 6L8 7L9 7L9 8L8 8L8 9L9 9L9 10L10 10L10 9L9 9L9 8L10 8L10 7L11 7L11 8L12 8L12 7L13 7L13 5L12 5L12 3L13 3L13 4L14 4L14 8L15 8L15 9L13 9L13 10L14 10L14 11L11 11L11 13L10 13L10 12L9 12L9 11L8 11L8 10L6 10L6 9L7 9L7 8L6 8L6 9L4 9L4 8L0 8L0 10L1 10L1 9L2 9L2 11L0 11L0 13L1 13L1 15L0 15L0 19L1 19L1 16L2 16L2 17L3 17L3 18L6 18L6 19L2 19L2 20L1 20L1 21L0 21L0 22L1 22L1 21L2 21L2 22L3 22L3 23L1 23L1 24L0 24L0 25L1 25L1 24L2 24L2 25L4 25L4 24L5 24L5 25L8 25L8 26L11 26L11 27L10 27L10 32L9 32L9 29L8 29L8 33L10 33L10 32L12 32L12 31L11 31L11 28L12 28L12 29L13 29L13 28L12 28L12 26L13 26L13 25L14 25L14 24L15 24L15 26L14 26L14 29L15 29L15 30L13 30L13 33L15 33L15 32L16 32L16 31L17 31L17 33L18 33L18 32L19 32L19 33L23 33L23 32L19 32L19 29L18 29L18 30L16 30L16 29L15 29L15 26L16 26L16 28L17 28L17 27L18 27L18 24L21 24L21 23L18 23L18 22L17 22L17 23L18 23L18 24L17 24L17 25L16 25L16 23L15 23L15 21L14 21L14 23L13 23L13 18L15 18L15 19L14 19L14 20L16 20L16 19L17 19L17 21L18 21L18 19L19 19L19 18L16 18L16 17L15 17L15 15L14 15L14 16L13 16L13 14L12 14L12 12L13 12L13 13L14 13L14 14L16 14L16 13L17 13L17 14L18 14L18 15L20 15L20 18L22 18L22 20L21 20L21 19L20 19L20 20L19 20L19 22L20 22L20 21L21 21L21 22L22 22L22 24L23 24L23 25L21 25L21 26L23 26L23 27L20 27L20 25L19 25L19 27L20 27L20 28L21 28L21 29L22 29L22 28L23 28L23 29L25 29L25 30L24 30L24 32L25 32L25 33L26 33L26 32L27 32L27 33L28 33L28 32L30 32L30 33L31 33L31 32L30 32L30 29L31 29L31 31L32 31L32 32L33 32L33 31L32 31L32 29L33 29L33 27L32 27L32 29L31 29L31 26L30 26L30 24L29 24L29 23L28 23L28 24L26 24L26 23L27 23L27 22L28 22L28 21L26 21L26 20L29 20L29 21L30 21L30 22L31 22L31 24L32 24L32 25L33 25L33 24L32 24L32 23L33 23L33 21L31 21L31 20L30 20L30 18L31 18L31 19L32 19L32 20L33 20L33 19L32 19L32 18L33 18L33 16L31 16L31 14L32 14L32 13L30 13L30 14L28 14L28 15L27 15L27 14L26 14L26 13L25 13L25 10L26 10L26 11L27 11L27 13L29 13L29 12L28 12L28 11L31 11L31 12L32 12L32 11L33 11L33 8L32 8L32 9L31 9L31 8L28 8L28 9L26 9L26 8L25 8L25 6L24 6L24 8L23 8L23 6L22 6L22 4L21 4L21 2L22 2L22 1L23 1L23 2L24 2L24 3L25 3L25 2L24 2L24 0L18 0L18 1L17 1L17 2L18 2L18 3L14 3L14 2L15 2L15 0ZM18 1L18 2L19 2L19 4L20 4L20 2L21 2L21 1ZM16 4L16 5L15 5L15 8L16 8L16 9L15 9L15 11L14 11L14 12L15 12L15 11L16 11L16 12L18 12L18 14L19 14L19 13L20 13L20 12L18 12L18 11L21 11L21 13L23 13L23 15L22 15L22 14L21 14L21 15L22 15L22 18L23 18L23 19L25 19L25 20L22 20L22 21L24 21L24 22L25 22L25 23L26 23L26 22L25 22L25 20L26 20L26 15L25 15L25 14L24 14L24 11L23 11L23 10L22 10L22 9L20 9L20 10L19 10L19 8L22 8L22 6L21 6L21 5L20 5L20 6L19 6L19 5L18 5L18 6L17 6L17 7L16 7L16 5L17 5L17 4ZM24 4L24 5L25 5L25 4ZM10 5L10 6L9 6L9 7L10 7L10 6L11 6L11 7L12 7L12 5ZM18 6L18 7L17 7L17 10L16 10L16 11L18 11L18 7L19 7L19 6ZM20 6L20 7L21 7L21 6ZM24 8L24 10L25 10L25 8ZM3 9L3 10L4 10L4 11L2 11L2 12L1 12L1 13L4 13L4 14L3 14L3 15L2 15L2 16L3 16L3 17L4 17L4 16L5 16L5 15L6 15L6 16L8 16L8 17L6 17L6 18L7 18L7 19L6 19L6 20L4 20L4 21L5 21L5 22L4 22L4 23L5 23L5 24L8 24L8 25L9 25L9 24L8 24L8 23L6 23L6 22L7 22L7 21L6 21L6 20L9 20L9 19L8 19L8 18L9 18L9 16L8 16L8 15L10 15L10 16L12 16L12 17L10 17L10 19L11 19L11 20L10 20L10 23L11 23L11 24L10 24L10 25L12 25L12 24L13 24L13 23L11 23L11 22L12 22L12 21L11 21L11 20L12 20L12 19L11 19L11 18L12 18L12 17L13 17L13 16L12 16L12 14L10 14L10 13L9 13L9 14L8 14L8 13L6 13L6 12L8 12L8 11L6 11L6 12L4 12L4 11L5 11L5 10L4 10L4 9ZM28 9L28 10L27 10L27 11L28 11L28 10L31 10L31 11L32 11L32 10L31 10L31 9ZM6 14L6 15L7 15L7 14ZM23 15L23 18L25 18L25 16L24 16L24 15ZM28 15L28 16L30 16L30 15ZM18 16L18 17L19 17L19 16ZM27 17L27 18L28 18L28 17ZM31 17L31 18L32 18L32 17ZM25 25L25 28L28 28L28 25ZM26 26L26 27L27 27L27 26ZM29 26L29 29L28 29L28 31L27 31L27 32L28 32L28 31L29 31L29 29L30 29L30 26ZM23 27L23 28L24 28L24 27ZM26 29L26 30L27 30L27 29ZM20 30L20 31L22 31L22 30ZM25 31L25 32L26 32L26 31ZM0 0L0 7L7 7L7 0ZM1 1L1 6L6 6L6 1ZM2 2L2 5L5 5L5 2ZM26 0L26 7L33 7L33 0ZM27 1L27 6L32 6L32 1ZM28 2L28 5L31 5L31 2ZM0 26L0 33L7 33L7 26ZM1 27L1 32L6 32L6 27ZM2 28L2 31L5 31L5 28Z" fill="#000000"/></g></g></svg>
