<?xml version="1.0" encoding="UTF-8"?>
<svg xmlns="http://www.w3.org/2000/svg" version="1.1" width="600" height="600" viewBox="0 0 600 600"><rect x="0" y="0" width="600" height="600" fill="#ffffff"/><g transform="scale(17.143)"><g transform="translate(1,1)"><path fill-rule="evenodd" d="M10 0L10 2L11 2L11 0ZM12 0L12 1L13 1L13 2L12 2L12 4L14 4L14 5L11 5L11 6L10 6L10 4L11 4L11 3L8 3L8 4L9 4L9 5L8 5L8 7L9 7L9 8L6 8L6 9L10 9L10 11L11 11L11 9L12 9L12 10L15 10L15 11L16 11L16 10L15 10L15 9L14 9L14 8L13 8L13 9L12 9L12 7L13 7L13 6L14 6L14 7L15 7L15 8L16 8L16 9L19 9L19 10L17 10L17 11L19 11L19 12L13 12L13 11L12 11L12 13L19 13L19 14L20 14L20 13L21 13L21 12L23 12L23 11L21 11L21 10L24 10L24 9L23 9L23 8L24 8L24 7L25 7L25 5L24 5L24 4L25 4L25 3L24 3L24 4L23 4L23 3L22 3L22 2L23 2L23 1L24 1L24 0L23 0L23 1L22 1L22 2L18 2L18 3L17 3L17 1L15 1L15 0L14 0L14 1L13 1L13 0ZM19 0L19 1L20 1L20 0ZM8 1L8 2L9 2L9 1ZM13 2L13 3L14 3L14 4L15 4L15 5L16 5L16 6L15 6L15 7L16 7L16 8L18 8L18 6L19 6L19 9L22 9L22 8L23 8L23 7L24 7L24 5L23 5L23 7L22 7L22 6L21 6L21 4L22 4L22 3L21 3L21 4L20 4L20 3L19 3L19 4L17 4L17 3L16 3L16 4L15 4L15 2ZM16 4L16 5L17 5L17 4ZM19 4L19 5L20 5L20 4ZM9 6L9 7L10 7L10 6ZM11 6L11 7L12 7L12 6ZM16 6L16 7L17 7L17 6ZM20 6L20 8L22 8L22 7L21 7L21 6ZM0 8L0 12L1 12L1 9L2 9L2 12L3 12L3 13L1 13L1 14L3 14L3 13L4 13L4 14L6 14L6 15L7 15L7 16L6 16L6 17L5 17L5 18L3 18L3 19L2 19L2 17L1 17L1 15L0 15L0 17L1 17L1 21L0 21L0 25L1 25L1 21L2 21L2 23L3 23L3 24L2 24L2 25L3 25L3 24L5 24L5 25L7 25L7 24L8 24L8 27L9 27L9 28L8 28L8 33L9 33L9 28L10 28L10 27L11 27L11 25L12 25L12 26L13 26L13 25L14 25L14 26L15 26L15 27L14 27L14 28L13 28L13 27L12 27L12 29L16 29L16 30L15 30L15 31L14 31L14 30L10 30L10 32L11 32L11 33L13 33L13 32L12 32L12 31L14 31L14 32L15 32L15 33L19 33L19 32L20 32L20 33L21 33L21 32L23 32L23 33L25 33L25 32L26 32L26 31L27 31L27 30L29 30L29 31L30 31L30 32L31 32L31 33L32 33L32 32L31 32L31 31L32 31L32 30L31 30L31 29L30 29L30 28L33 28L33 27L32 27L32 26L33 26L33 24L32 24L32 26L30 26L30 25L29 25L29 24L31 24L31 23L32 23L32 22L33 22L33 21L32 21L32 20L31 20L31 19L32 19L32 18L33 18L33 17L32 17L32 16L31 16L31 15L32 15L32 14L33 14L33 13L31 13L31 15L30 15L30 13L29 13L29 12L28 12L28 10L27 10L27 9L28 9L28 8L27 8L27 9L26 9L26 8L25 8L25 9L26 9L26 10L25 10L25 12L24 12L24 13L23 13L23 14L22 14L22 15L20 15L20 17L19 17L19 15L18 15L18 14L17 14L17 15L18 15L18 16L17 16L17 17L16 17L16 16L13 16L13 17L12 17L12 15L13 15L13 14L6 14L6 13L8 13L8 12L9 12L9 13L11 13L11 12L9 12L9 11L8 11L8 12L6 12L6 11L7 11L7 10L5 10L5 8ZM10 8L10 9L11 9L11 8ZM29 8L29 9L30 9L30 8ZM31 8L31 10L33 10L33 9L32 9L32 8ZM3 9L3 10L4 10L4 11L3 11L3 12L5 12L5 10L4 10L4 9ZM19 10L19 11L20 11L20 12L19 12L19 13L20 13L20 12L21 12L21 11L20 11L20 10ZM30 11L30 12L31 12L31 11ZM26 12L26 13L27 13L27 14L25 14L25 13L24 13L24 14L23 14L23 15L24 15L24 16L26 16L26 17L25 17L25 19L24 19L24 18L21 18L21 17L23 17L23 16L21 16L21 17L20 17L20 18L19 18L19 17L18 17L18 18L16 18L16 17L13 17L13 18L12 18L12 17L11 17L11 18L10 18L10 17L9 17L9 15L8 15L8 17L6 17L6 18L8 18L8 17L9 17L9 19L4 19L4 20L5 20L5 22L8 22L8 23L10 23L10 22L8 22L8 21L11 21L11 22L13 22L13 23L12 23L12 25L13 25L13 24L14 24L14 25L15 25L15 26L16 26L16 25L17 25L17 26L18 26L18 25L19 25L19 24L21 24L21 25L20 25L20 26L19 26L19 27L21 27L21 25L22 25L22 24L21 24L21 23L22 23L22 21L24 21L24 22L23 22L23 23L25 23L25 24L26 24L26 23L25 23L25 22L26 22L26 21L27 21L27 23L30 23L30 22L31 22L31 20L29 20L29 17L30 17L30 19L31 19L31 16L30 16L30 15L28 15L28 14L29 14L29 13L28 13L28 12ZM14 14L14 15L16 15L16 14ZM10 15L10 16L11 16L11 15ZM26 15L26 16L28 16L28 17L29 17L29 16L28 16L28 15ZM3 16L3 17L4 17L4 16ZM26 17L26 18L27 18L27 19L28 19L28 18L27 18L27 17ZM13 18L13 19L12 19L12 21L13 21L13 22L15 22L15 23L14 23L14 24L15 24L15 25L16 25L16 24L17 24L17 25L18 25L18 24L17 24L17 23L16 23L16 22L15 22L15 21L14 21L14 20L13 20L13 19L15 19L15 20L16 20L16 21L18 21L18 23L19 23L19 22L20 22L20 23L21 23L21 22L20 22L20 21L21 21L21 20L22 20L22 19L21 19L21 18L20 18L20 21L18 21L18 20L16 20L16 18ZM18 18L18 19L19 19L19 18ZM9 19L9 20L11 20L11 19ZM25 19L25 20L26 20L26 19ZM2 20L2 21L3 21L3 20ZM6 20L6 21L7 21L7 20ZM27 20L27 21L29 21L29 22L30 22L30 21L29 21L29 20ZM5 23L5 24L7 24L7 23ZM9 24L9 25L10 25L10 24ZM23 24L23 25L24 25L24 24ZM25 25L25 28L28 28L28 25ZM9 26L9 27L10 27L10 26ZM26 26L26 27L27 27L27 26ZM15 27L15 28L16 28L16 29L17 29L17 32L18 32L18 31L20 31L20 32L21 32L21 30L22 30L22 29L24 29L24 28L23 28L23 27L22 27L22 28L21 28L21 29L20 29L20 28L19 28L19 29L17 29L17 28L18 28L18 27ZM19 29L19 30L20 30L20 29ZM26 29L26 30L27 30L27 29ZM29 29L29 30L30 30L30 31L31 31L31 30L30 30L30 29ZM15 31L15 32L16 32L16 31ZM23 31L23 32L25 32L25 31ZM28 32L28 33L29 33L29 32ZM0 0L0 7L7 7L7 0ZM1 1L1 6L6 6L6 1ZM2 2L2 5L5 5L5 2ZM26 0L26 7L33 7L33 0ZM27 1L27 6L32 6L32 1ZM28 2L28 5L31 5L31 2ZM0 26L0 33L7 33L7 26ZM1 27L1 32L6 32L6 27ZM2 28L2 31L5 31L5 28Z" fill="#000000"/></g></g></svg>
