<?xml version="1.0" encoding="UTF-8"?>
<svg xmlns="http://www.w3.org/2000/svg" version="1.1" width="600" height="600" viewBox="0 0 600 600"><rect x="0" y="0" width="600" height="600" fill="#ffffff"/><g transform="scale(17.143)"><g transform="translate(1,1)"><path fill-rule="evenodd" d="M8 0L8 1L9 1L9 2L8 2L8 5L9 5L9 4L11 4L11 5L10 5L10 10L9 10L9 8L8 8L8 9L7 9L7 8L6 8L6 9L7 9L7 10L5 10L5 9L4 9L4 8L0 8L0 14L1 14L1 13L2 13L2 14L3 14L3 12L4 12L4 11L5 11L5 13L4 13L4 14L5 14L5 15L7 15L7 16L6 16L6 17L7 17L7 16L8 16L8 18L6 18L6 19L7 19L7 20L6 20L6 21L8 21L8 22L9 22L9 23L8 23L8 24L6 24L6 23L7 23L7 22L5 22L5 21L4 21L4 20L5 20L5 19L4 19L4 20L3 20L3 19L2 19L2 18L5 18L5 16L3 16L3 15L1 15L1 16L3 16L3 17L2 17L2 18L1 18L1 17L0 17L0 18L1 18L1 21L0 21L0 22L2 22L2 21L3 21L3 23L1 23L1 24L0 24L0 25L1 25L1 24L2 24L2 25L8 25L8 26L9 26L9 28L11 28L11 29L8 29L8 33L9 33L9 30L10 30L10 31L12 31L12 32L11 32L11 33L12 33L12 32L13 32L13 33L14 33L14 32L13 32L13 31L14 31L14 30L15 30L15 31L16 31L16 32L17 32L17 33L18 33L18 32L19 32L19 33L20 33L20 32L21 32L21 33L22 33L22 32L23 32L23 33L24 33L24 32L25 32L25 33L26 33L26 32L27 32L27 33L28 33L28 31L27 31L27 30L24 30L24 29L29 29L29 28L30 28L30 29L31 29L31 31L32 31L32 32L33 32L33 31L32 31L32 29L33 29L33 27L30 27L30 26L31 26L31 25L30 25L30 26L29 26L29 24L30 24L30 21L31 21L31 24L32 24L32 25L33 25L33 24L32 24L32 23L33 23L33 21L31 21L31 20L30 20L30 21L29 21L29 24L27 24L27 23L28 23L28 22L27 22L27 21L26 21L26 20L28 20L28 18L29 18L29 19L30 19L30 18L31 18L31 19L32 19L32 20L33 20L33 19L32 19L32 18L33 18L33 16L31 16L31 14L32 14L32 13L30 13L30 14L29 14L29 15L30 15L30 16L28 16L28 13L29 13L29 11L31 11L31 12L32 12L32 11L33 11L33 8L32 8L32 9L31 9L31 8L28 8L28 9L31 9L31 10L29 10L29 11L28 11L28 13L27 13L27 15L26 15L26 12L27 12L27 11L26 11L26 10L27 10L27 9L26 9L26 8L25 8L25 6L24 6L24 9L22 9L22 8L21 8L21 5L20 5L20 4L19 4L19 6L18 6L18 3L17 3L17 2L16 2L16 4L15 4L15 5L13 5L13 4L14 4L14 3L15 3L15 2L14 2L14 1L15 1L15 0L14 0L14 1L13 1L13 0L12 0L12 1L11 1L11 0L10 0L10 1L9 1L9 0ZM18 0L18 2L19 2L19 1L20 1L20 2L22 2L22 5L23 5L23 2L24 2L24 5L25 5L25 1L24 1L24 0L23 0L23 1L21 1L21 0ZM11 2L11 4L12 4L12 3L13 3L13 2ZM16 4L16 5L15 5L15 7L16 7L16 8L14 8L14 6L13 6L13 5L12 5L12 6L11 6L11 8L12 8L12 6L13 6L13 11L11 11L11 13L9 13L9 10L8 10L8 14L7 14L7 13L5 13L5 14L7 14L7 15L8 15L8 16L9 16L9 18L10 18L10 19L8 19L8 21L10 21L10 23L13 23L13 22L14 22L14 21L15 21L15 23L14 23L14 24L15 24L15 23L16 23L16 24L18 24L18 27L16 27L16 26L17 26L17 25L16 25L16 26L15 26L15 29L16 29L16 31L20 31L20 30L21 30L21 28L20 28L20 27L22 27L22 30L23 30L23 26L24 26L24 24L25 24L25 23L24 23L24 24L23 24L23 23L20 23L20 22L22 22L22 21L20 21L20 22L18 22L18 21L17 21L17 22L16 22L16 20L15 20L15 18L14 18L14 19L13 19L13 17L12 17L12 16L14 16L14 15L15 15L15 17L16 17L16 19L18 19L18 20L19 20L19 19L21 19L21 20L22 20L22 19L24 19L24 18L25 18L25 19L27 19L27 18L25 18L25 16L26 16L26 15L24 15L24 11L23 11L23 10L22 10L22 11L21 11L21 13L22 13L22 15L24 15L24 16L22 16L22 17L21 17L21 15L20 15L20 16L19 16L19 15L18 15L18 14L19 14L19 13L20 13L20 12L18 12L18 10L19 10L19 11L20 11L20 10L21 10L21 9L20 9L20 6L19 6L19 8L18 8L18 9L17 9L17 12L18 12L18 14L17 14L17 13L16 13L16 14L15 14L15 12L16 12L16 8L17 8L17 7L18 7L18 6L17 6L17 7L16 7L16 5L17 5L17 4ZM8 6L8 7L9 7L9 6ZM22 6L22 7L23 7L23 6ZM2 9L2 10L1 10L1 12L2 12L2 11L4 11L4 9ZM11 9L11 10L12 10L12 9ZM14 9L14 11L13 11L13 12L12 12L12 13L11 13L11 14L9 14L9 15L11 15L11 16L12 16L12 14L13 14L13 15L14 15L14 11L15 11L15 9ZM19 9L19 10L20 10L20 9ZM24 9L24 10L26 10L26 9ZM31 10L31 11L32 11L32 10ZM6 11L6 12L7 12L7 11ZM25 11L25 12L26 12L26 11ZM17 17L17 18L18 18L18 19L19 19L19 17ZM23 17L23 18L24 18L24 17ZM31 17L31 18L32 18L32 17ZM21 18L21 19L22 19L22 18ZM10 19L10 21L11 21L11 20L12 20L12 19ZM23 20L23 21L24 21L24 22L26 22L26 23L27 23L27 22L26 22L26 21L24 21L24 20ZM4 22L4 23L3 23L3 24L5 24L5 22ZM19 23L19 27L18 27L18 28L19 28L19 27L20 27L20 26L21 26L21 24L20 24L20 23ZM12 24L12 26L11 26L11 25L9 25L9 26L11 26L11 28L12 28L12 29L11 29L11 30L12 30L12 29L13 29L13 28L14 28L14 27L13 27L13 28L12 28L12 26L14 26L14 25L13 25L13 24ZM22 24L22 26L23 26L23 24ZM25 25L25 28L28 28L28 25ZM26 26L26 27L27 27L27 26ZM31 28L31 29L32 29L32 28ZM18 29L18 30L19 30L19 29ZM29 30L29 32L30 32L30 33L31 33L31 32L30 32L30 30ZM21 31L21 32L22 32L22 31ZM0 0L0 7L7 7L7 0ZM1 1L1 6L6 6L6 1ZM2 2L2 5L5 5L5 2ZM26 0L26 7L33 7L33 0ZM27 1L27 6L32 6L32 1ZM28 2L28 5L31 5L31 2ZM0 26L0 33L7 33L7 26ZM1 27L1 32L6 32L6 27ZM2 28L2 31L5 31L5 28Z" fill="#000000"/></g></g></svg>
