<?xml version="1.0" encoding="UTF-8"?>
<svg xmlns="http://www.w3.org/2000/svg" version="1.1" width="600" height="600" viewBox="0 0 600 600"><rect x="0" y="0" width="600" height="600" fill="#ffffff"/><g transform="scale(17.143)"><g transform="translate(1,1)"><path fill-rule="evenodd" d="M9 0L9 1L8 1L8 2L9 2L9 3L8 3L8 4L10 4L10 7L11 7L11 4L12 4L12 5L13 5L13 6L12 6L12 9L16 9L16 10L11 10L11 11L10 11L10 9L11 9L11 8L6 8L6 9L5 9L5 8L0 8L0 10L2 10L2 11L1 11L1 13L0 13L0 14L1 14L1 16L0 16L0 17L2 17L2 16L4 16L4 15L2 15L2 14L5 14L5 15L7 15L7 16L5 16L5 18L6 18L6 19L7 19L7 18L6 18L6 17L8 17L8 18L9 18L9 19L10 19L10 20L8 20L8 21L7 21L7 20L6 20L6 21L4 21L4 19L3 19L3 23L2 23L2 24L3 24L3 25L5 25L5 24L6 24L6 25L7 25L7 24L6 24L6 23L8 23L8 24L10 24L10 25L8 25L8 27L9 27L9 26L10 26L10 27L11 27L11 28L8 28L8 33L9 33L9 32L10 32L10 33L11 33L11 32L10 32L10 31L11 31L11 30L10 30L10 29L12 29L12 30L13 30L13 31L12 31L12 33L13 33L13 32L14 32L14 33L19 33L19 32L20 32L20 31L18 31L18 32L17 32L17 30L14 30L14 29L12 29L12 27L13 27L13 26L10 26L10 25L11 25L11 24L10 24L10 23L11 23L11 22L9 22L9 21L10 21L10 20L11 20L11 21L12 21L12 22L13 22L13 21L14 21L14 22L15 22L15 23L14 23L14 24L13 24L13 23L12 23L12 25L18 25L18 26L15 26L15 27L14 27L14 28L15 28L15 29L18 29L18 30L22 30L22 29L23 29L23 27L24 27L24 31L21 31L21 32L22 32L22 33L23 33L23 32L24 32L24 33L25 33L25 32L24 32L24 31L27 31L27 32L28 32L28 33L29 33L29 31L30 31L30 32L31 32L31 33L32 33L32 32L31 32L31 31L32 31L32 30L31 30L31 29L30 29L30 28L31 28L31 27L32 27L32 28L33 28L33 27L32 27L32 26L33 26L33 24L32 24L32 26L31 26L31 25L30 25L30 24L31 24L31 23L32 23L32 22L33 22L33 21L32 21L32 20L31 20L31 19L32 19L32 18L33 18L33 17L32 17L32 16L31 16L31 15L32 15L32 14L33 14L33 13L31 13L31 15L30 15L30 13L29 13L29 10L28 10L28 8L27 8L27 9L26 9L26 8L24 8L24 7L25 7L25 5L24 5L24 4L23 4L23 5L22 5L22 7L21 7L21 6L20 6L20 9L19 9L19 8L17 8L17 6L18 6L18 7L19 7L19 5L21 5L21 4L19 4L19 3L20 3L20 2L21 2L21 3L23 3L23 2L21 2L21 1L24 1L24 2L25 2L25 1L24 1L24 0L21 0L21 1L20 1L20 0L19 0L19 1L15 1L15 0L14 0L14 3L13 3L13 4L12 4L12 2L13 2L13 1L11 1L11 2L10 2L10 0ZM19 1L19 2L20 2L20 1ZM15 2L15 3L14 3L14 4L13 4L13 5L14 5L14 6L13 6L13 8L14 8L14 6L15 6L15 7L16 7L16 6L15 6L15 5L19 5L19 4L15 4L15 3L18 3L18 2ZM10 3L10 4L11 4L11 3ZM14 4L14 5L15 5L15 4ZM8 5L8 7L9 7L9 5ZM23 5L23 7L24 7L24 5ZM16 8L16 9L17 9L17 8ZM21 8L21 9L20 9L20 10L19 10L19 9L18 9L18 10L17 10L17 11L16 11L16 12L15 12L15 11L12 11L12 13L11 13L11 12L10 12L10 13L11 13L11 15L10 15L10 14L9 14L9 12L8 12L8 11L9 11L9 10L8 10L8 11L6 11L6 10L7 10L7 9L6 9L6 10L4 10L4 11L6 11L6 12L8 12L8 15L10 15L10 17L9 17L9 18L13 18L13 19L12 19L12 21L13 21L13 20L14 20L14 21L15 21L15 22L17 22L17 24L18 24L18 25L19 25L19 24L21 24L21 25L20 25L20 26L19 26L19 28L18 28L18 27L15 27L15 28L18 28L18 29L22 29L22 28L21 28L21 27L20 27L20 26L22 26L22 25L23 25L23 26L24 26L24 25L23 25L23 23L24 23L24 24L27 24L27 22L25 22L25 21L27 21L27 20L28 20L28 19L26 19L26 18L25 18L25 17L28 17L28 18L29 18L29 17L30 17L30 19L29 19L29 20L30 20L30 21L28 21L28 24L30 24L30 23L29 23L29 22L30 22L30 21L31 21L31 20L30 20L30 19L31 19L31 16L30 16L30 15L29 15L29 13L28 13L28 16L26 16L26 14L25 14L25 13L27 13L27 12L28 12L28 11L27 11L27 10L25 10L25 9L24 9L24 10L23 10L23 12L21 12L21 11L22 11L22 10L21 10L21 9L23 9L23 8ZM29 8L29 9L30 9L30 8ZM31 8L31 10L33 10L33 9L32 9L32 8ZM18 10L18 12L16 12L16 13L19 13L19 14L18 14L18 16L17 16L17 15L16 15L16 14L14 14L14 16L13 16L13 15L12 15L12 17L18 17L18 18L17 18L17 19L18 19L18 20L15 20L15 19L16 19L16 18L15 18L15 19L14 19L14 20L15 20L15 21L17 21L17 22L18 22L18 23L19 23L19 22L20 22L20 21L21 21L21 24L22 24L22 23L23 23L23 22L24 22L24 21L25 21L25 20L24 20L24 21L23 21L23 18L24 18L24 17L22 17L22 19L21 19L21 20L20 20L20 19L19 19L19 18L20 18L20 17L21 17L21 16L22 16L22 15L21 15L21 14L24 14L24 15L23 15L23 16L24 16L24 15L25 15L25 14L24 14L24 13L25 13L25 12L26 12L26 11L25 11L25 12L24 12L24 13L21 13L21 12L20 12L20 13L19 13L19 10ZM2 11L2 13L4 13L4 12L3 12L3 11ZM30 11L30 12L31 12L31 11ZM13 12L13 13L12 13L12 14L13 14L13 13L15 13L15 12ZM6 13L6 14L7 14L7 13ZM20 13L20 14L19 14L19 15L20 15L20 14L21 14L21 13ZM18 16L18 17L20 17L20 16ZM28 16L28 17L29 17L29 16ZM3 17L3 18L4 18L4 17ZM0 19L0 25L1 25L1 22L2 22L2 21L1 21L1 19ZM19 20L19 21L18 21L18 22L19 22L19 21L20 21L20 20ZM21 20L21 21L22 21L22 20ZM6 21L6 22L5 22L5 23L6 23L6 22L7 22L7 21ZM8 22L8 23L9 23L9 22ZM15 23L15 24L16 24L16 23ZM25 25L25 28L28 28L28 25ZM29 25L29 28L30 28L30 27L31 27L31 26L30 26L30 25ZM26 26L26 27L27 27L27 26ZM25 29L25 30L28 30L28 31L29 31L29 30L28 30L28 29ZM9 30L9 31L10 31L10 30ZM30 30L30 31L31 31L31 30ZM14 31L14 32L16 32L16 31ZM0 0L0 7L7 7L7 0ZM1 1L1 6L6 6L6 1ZM2 2L2 5L5 5L5 2ZM26 0L26 7L33 7L33 0ZM27 1L27 6L32 6L32 1ZM28 2L28 5L31 5L31 2ZM0 26L0 33L7 33L7 26ZM1 27L1 32L6 32L6 27ZM2 28L2 31L5 31L5 28Z" fill="#000000"/></g></g></svg>
