<?xml version="1.0" encoding="UTF-8"?>
<svg xmlns="http://www.w3.org/2000/svg" version="1.1" width="600" height="600" viewBox="0 0 600 600"><rect x="0" y="0" width="600" height="600" fill="#ffffff"/><g transform="scale(17.143)"><g transform="translate(1,1)"><path fill-rule="evenodd" d="M9 0L9 1L11 1L11 2L9 2L9 3L8 3L8 5L9 5L9 6L8 6L8 7L9 7L9 9L8 9L8 8L5 8L5 9L4 9L4 10L2 10L2 8L0 8L0 10L1 10L1 11L3 11L3 12L4 12L4 13L5 13L5 12L6 12L6 13L7 13L7 14L6 14L6 15L4 15L4 14L3 14L3 13L1 13L1 16L0 16L0 17L2 17L2 18L0 18L0 19L1 19L1 20L2 20L2 21L0 21L0 25L3 25L3 23L2 23L2 24L1 24L1 22L2 22L2 21L4 21L4 20L3 20L3 19L2 19L2 18L3 18L3 17L5 17L5 18L6 18L6 19L5 19L5 20L6 20L6 21L5 21L5 22L6 22L6 23L5 23L5 24L4 24L4 25L5 25L5 24L6 24L6 25L8 25L8 28L9 28L9 31L8 31L8 33L10 33L10 32L9 32L9 31L10 31L10 30L11 30L11 31L12 31L12 33L13 33L13 32L14 32L14 33L16 33L16 31L18 31L18 32L17 32L17 33L18 33L18 32L19 32L19 31L20 31L20 32L21 32L21 31L22 31L22 33L23 33L23 32L24 32L24 33L25 33L25 32L24 32L24 31L25 31L25 29L27 29L27 31L28 31L28 33L29 33L29 30L31 30L31 29L30 29L30 28L31 28L31 27L32 27L32 26L33 26L33 25L32 25L32 24L31 24L31 23L32 23L32 20L31 20L31 19L30 19L30 20L29 20L29 19L28 19L28 18L27 18L27 17L25 17L25 19L26 19L26 18L27 18L27 21L28 21L28 22L27 22L27 23L28 23L28 22L29 22L29 23L30 23L30 24L31 24L31 25L30 25L30 26L31 26L31 27L30 27L30 28L29 28L29 24L24 24L24 23L23 23L23 22L24 22L24 21L25 21L25 22L26 22L26 21L25 21L25 20L24 20L24 21L23 21L23 19L24 19L24 17L21 17L21 16L20 16L20 15L22 15L22 16L24 16L24 15L25 15L25 14L26 14L26 15L28 15L28 17L29 17L29 18L30 18L30 17L29 17L29 15L30 15L30 16L31 16L31 18L32 18L32 19L33 19L33 17L32 17L32 16L33 16L33 15L32 15L32 14L33 14L33 12L31 12L31 11L30 11L30 12L29 12L29 9L30 9L30 8L28 8L28 10L27 10L27 12L26 12L26 11L25 11L25 12L22 12L22 14L20 14L20 12L21 12L21 11L23 11L23 10L24 10L24 9L25 9L25 10L26 10L26 9L25 9L25 8L24 8L24 7L25 7L25 5L24 5L24 4L23 4L23 2L22 2L22 0L20 0L20 2L21 2L21 3L20 3L20 4L19 4L19 1L18 1L18 0L17 0L17 1L16 1L16 2L15 2L15 3L16 3L16 5L17 5L17 6L16 6L16 7L15 7L15 6L14 6L14 5L13 5L13 4L14 4L14 3L13 3L13 4L12 4L12 2L14 2L14 1L15 1L15 0L13 0L13 1L12 1L12 0ZM17 1L17 3L18 3L18 1ZM24 1L24 2L25 2L25 1ZM9 3L9 5L10 5L10 3ZM11 4L11 7L10 7L10 6L9 6L9 7L10 7L10 8L11 8L11 10L10 10L10 9L9 9L9 10L10 10L10 11L9 11L9 12L8 12L8 11L6 11L6 12L7 12L7 13L9 13L9 16L8 16L8 14L7 14L7 15L6 15L6 16L5 16L5 17L6 17L6 18L8 18L8 17L9 17L9 20L8 20L8 19L6 19L6 20L8 20L8 21L6 21L6 22L7 22L7 23L6 23L6 24L8 24L8 21L9 21L9 20L10 20L10 22L9 22L9 26L10 26L10 27L11 27L11 26L13 26L13 27L12 27L12 29L11 29L11 28L10 28L10 29L11 29L11 30L12 30L12 31L14 31L14 32L15 32L15 28L16 28L16 27L17 27L17 28L18 28L18 29L16 29L16 30L18 30L18 31L19 31L19 30L18 30L18 29L20 29L20 30L21 30L21 29L23 29L23 30L24 30L24 27L21 27L21 29L20 29L20 26L21 26L21 25L22 25L22 24L23 24L23 26L24 26L24 24L23 24L23 23L21 23L21 22L23 22L23 21L22 21L22 19L23 19L23 18L21 18L21 17L20 17L20 16L18 16L18 15L20 15L20 14L19 14L19 13L18 13L18 11L17 11L17 10L19 10L19 12L20 12L20 11L21 11L21 10L23 10L23 8L22 8L22 6L21 6L21 7L20 7L20 5L19 5L19 4L17 4L17 5L18 5L18 6L17 6L17 7L16 7L16 8L18 8L18 6L19 6L19 9L17 9L17 10L16 10L16 15L15 15L15 14L14 14L14 11L15 11L15 8L14 8L14 6L13 6L13 5L12 5L12 4ZM21 4L21 5L23 5L23 7L24 7L24 5L23 5L23 4ZM12 6L12 9L13 9L13 10L11 10L11 11L10 11L10 12L9 12L9 13L10 13L10 16L9 16L9 17L10 17L10 20L11 20L11 21L12 21L12 22L13 22L13 23L12 23L12 24L11 24L11 23L10 23L10 24L11 24L11 25L13 25L13 26L15 26L15 27L16 27L16 26L17 26L17 24L14 24L14 25L13 25L13 23L14 23L14 22L13 22L13 21L14 21L14 20L15 20L15 23L18 23L18 22L17 22L17 21L19 21L19 22L20 22L20 21L19 21L19 20L16 20L16 19L17 19L17 18L16 18L16 17L18 17L18 19L20 19L20 20L21 20L21 19L20 19L20 17L18 17L18 16L17 16L17 15L16 15L16 17L14 17L14 16L15 16L15 15L14 15L14 16L13 16L13 15L12 15L12 17L13 17L13 18L12 18L12 19L11 19L11 12L12 12L12 11L13 11L13 10L14 10L14 8L13 8L13 6ZM20 8L20 9L19 9L19 10L21 10L21 8ZM5 9L5 10L7 10L7 9ZM31 9L31 10L32 10L32 9ZM28 12L28 13L27 13L27 14L28 14L28 15L29 15L29 12ZM30 12L30 15L31 15L31 16L32 16L32 15L31 15L31 12ZM12 13L12 14L13 14L13 13ZM24 13L24 14L22 14L22 15L24 15L24 14L25 14L25 13ZM2 14L2 15L3 15L3 16L2 16L2 17L3 17L3 16L4 16L4 15L3 15L3 14ZM6 16L6 17L7 17L7 16ZM12 19L12 21L13 21L13 20L14 20L14 19ZM30 20L30 21L29 21L29 22L30 22L30 21L31 21L31 20ZM19 23L19 24L18 24L18 25L19 25L19 26L18 26L18 27L19 27L19 26L20 26L20 24L21 24L21 23ZM25 25L25 28L28 28L28 25ZM31 25L31 26L32 26L32 25ZM26 26L26 27L27 27L27 26ZM12 29L12 30L14 30L14 29ZM32 30L32 31L33 31L33 30ZM30 31L30 32L31 32L31 33L32 33L32 32L31 32L31 31ZM0 0L0 7L7 7L7 0ZM1 1L1 6L6 6L6 1ZM2 2L2 5L5 5L5 2ZM26 0L26 7L33 7L33 0ZM27 1L27 6L32 6L32 1ZM28 2L28 5L31 5L31 2ZM0 26L0 33L7 33L7 26ZM1 27L1 32L6 32L6 27ZM2 28L2 31L5 31L5 28Z" fill="#000000"/></g></g></svg>
