<?xml version="1.0" encoding="UTF-8"?>
<svg xmlns="http://www.w3.org/2000/svg" version="1.1" width="600" height="600" viewBox="0 0 600 600"><rect x="0" y="0" width="600" height="600" fill="#ffffff"/><g transform="scale(17.143)"><g transform="translate(1,1)"><path fill-rule="evenodd" d="M10 0L10 2L11 2L11 0ZM12 0L12 1L13 1L13 2L12 2L12 4L19 4L19 5L20 5L20 4L21 4L21 3L23 3L23 2L21 2L21 3L20 3L20 4L19 4L19 2L18 2L18 1L24 1L24 2L25 2L25 1L24 1L24 0L18 0L18 1L17 1L17 2L16 2L16 1L15 1L15 0L14 0L14 1L13 1L13 0ZM8 1L8 2L9 2L9 1ZM13 2L13 3L14 3L14 2ZM15 2L15 3L16 3L16 2ZM17 2L17 3L18 3L18 2ZM8 3L8 4L9 4L9 5L8 5L8 7L9 7L9 8L6 8L6 9L5 9L5 8L0 8L0 11L1 11L1 10L2 10L2 9L4 9L4 12L3 12L3 11L2 11L2 13L1 13L1 14L0 14L0 15L1 15L1 14L3 14L3 15L2 15L2 16L3 16L3 17L1 17L1 16L0 16L0 25L1 25L1 22L3 22L3 21L1 21L1 20L2 20L2 19L3 19L3 18L4 18L4 16L3 16L3 15L4 15L4 14L5 14L5 15L8 15L8 16L10 16L10 17L8 17L8 18L6 18L6 17L7 17L7 16L5 16L5 19L4 19L4 20L5 20L5 21L4 21L4 23L2 23L2 25L7 25L7 24L6 24L6 23L7 23L7 22L9 22L9 21L10 21L10 19L11 19L11 17L12 17L12 18L13 18L13 17L19 17L19 18L14 18L14 19L18 19L18 20L15 20L15 21L14 21L14 20L13 20L13 19L12 19L12 21L14 21L14 22L11 22L11 24L10 24L10 25L9 25L9 23L8 23L8 27L11 27L11 26L10 26L10 25L12 25L12 26L13 26L13 27L12 27L12 29L13 29L13 28L14 28L14 29L15 29L15 28L16 28L16 29L19 29L19 30L20 30L20 31L21 31L21 32L20 32L20 33L21 33L21 32L22 32L22 31L21 31L21 30L23 30L23 29L21 29L21 28L22 28L22 26L23 26L23 27L24 27L24 31L23 31L23 32L24 32L24 33L25 33L25 32L24 32L24 31L27 31L27 32L28 32L28 33L29 33L29 31L30 31L30 32L31 32L31 33L32 33L32 32L31 32L31 31L32 31L32 30L31 30L31 29L30 29L30 28L32 28L32 26L33 26L33 24L32 24L32 26L31 26L31 25L30 25L30 24L31 24L31 23L32 23L32 22L33 22L33 21L32 21L32 20L31 20L31 19L32 19L32 18L33 18L33 17L32 17L32 16L31 16L31 15L32 15L32 14L33 14L33 13L31 13L31 15L30 15L30 13L29 13L29 10L28 10L28 8L27 8L27 9L26 9L26 8L24 8L24 7L25 7L25 5L24 5L24 4L23 4L23 5L22 5L22 7L21 7L21 6L20 6L20 7L19 7L19 6L18 6L18 7L19 7L19 8L20 8L20 9L18 9L18 8L15 8L15 6L16 6L16 7L17 7L17 6L16 6L16 5L15 5L15 6L14 6L14 8L13 8L13 9L12 9L12 7L13 7L13 5L11 5L11 6L10 6L10 4L11 4L11 3ZM23 5L23 7L24 7L24 5ZM9 6L9 7L10 7L10 6ZM11 6L11 7L12 7L12 6ZM10 8L10 9L9 9L9 10L7 10L7 9L6 9L6 10L5 10L5 11L6 11L6 12L5 12L5 14L8 14L8 13L6 13L6 12L11 12L11 13L10 13L10 14L14 14L14 13L15 13L15 14L17 14L17 15L12 15L12 17L13 17L13 16L18 16L18 14L19 14L19 17L22 17L22 16L20 16L20 15L22 15L22 13L24 13L24 14L23 14L23 15L24 15L24 16L23 16L23 17L24 17L24 18L23 18L23 19L22 19L22 20L20 20L20 18L19 18L19 21L15 21L15 22L19 22L19 23L17 23L17 24L19 24L19 25L18 25L18 26L17 26L17 25L15 25L15 24L14 24L14 23L12 23L12 25L14 25L14 26L17 26L17 27L16 27L16 28L18 28L18 26L19 26L19 29L20 29L20 30L21 30L21 29L20 29L20 26L19 26L19 25L21 25L21 26L22 26L22 25L23 25L23 26L24 26L24 25L23 25L23 24L21 24L21 22L22 22L22 21L24 21L24 22L23 22L23 23L24 23L24 24L27 24L27 22L25 22L25 21L27 21L27 20L28 20L28 19L26 19L26 18L25 18L25 17L28 17L28 18L29 18L29 17L30 17L30 19L29 19L29 20L30 20L30 21L28 21L28 24L30 24L30 23L29 23L29 22L30 22L30 21L31 21L31 20L30 20L30 19L31 19L31 16L30 16L30 15L29 15L29 13L28 13L28 16L26 16L26 14L25 14L25 13L27 13L27 12L28 12L28 11L27 11L27 10L25 10L25 9L24 9L24 10L22 10L22 11L23 11L23 12L21 12L21 11L20 11L20 10L21 10L21 9L23 9L23 8L21 8L21 9L20 9L20 10L18 10L18 9L15 9L15 8L14 8L14 9L13 9L13 10L12 10L12 9L11 9L11 8ZM29 8L29 9L30 9L30 8ZM31 8L31 10L33 10L33 9L32 9L32 8ZM10 9L10 11L11 11L11 9ZM14 9L14 10L15 10L15 13L17 13L17 14L18 14L18 13L19 13L19 14L20 14L20 13L21 13L21 12L20 12L20 13L19 13L19 12L17 12L17 10L15 10L15 9ZM6 10L6 11L7 11L7 10ZM12 11L12 13L14 13L14 12L13 12L13 11ZM25 11L25 12L24 12L24 13L25 13L25 12L26 12L26 11ZM30 11L30 12L31 12L31 11ZM24 14L24 15L25 15L25 14ZM10 15L10 16L11 16L11 15ZM28 16L28 17L29 17L29 16ZM1 18L1 19L2 19L2 18ZM8 18L8 19L9 19L9 18ZM6 19L6 20L7 20L7 21L5 21L5 22L7 22L7 21L9 21L9 20L7 20L7 19ZM24 20L24 21L25 21L25 20ZM19 21L19 22L21 22L21 21ZM4 23L4 24L5 24L5 23ZM19 23L19 24L20 24L20 23ZM25 25L25 28L28 28L28 25ZM29 25L29 28L30 28L30 27L31 27L31 26L30 26L30 25ZM26 26L26 27L27 27L27 26ZM14 27L14 28L15 28L15 27ZM8 28L8 33L9 33L9 32L11 32L11 33L12 33L12 31L13 31L13 30L11 30L11 31L10 31L10 30L9 30L9 29L10 29L10 28ZM25 29L25 30L28 30L28 31L29 31L29 30L28 30L28 29ZM15 30L15 31L14 31L14 32L15 32L15 33L16 33L16 32L17 32L17 33L18 33L18 32L19 32L19 31L18 31L18 32L17 32L17 31L16 31L16 30ZM30 30L30 31L31 31L31 30ZM0 0L0 7L7 7L7 0ZM1 1L1 6L6 6L6 1ZM2 2L2 5L5 5L5 2ZM26 0L26 7L33 7L33 0ZM27 1L27 6L32 6L32 1ZM28 2L28 5L31 5L31 2ZM0 26L0 33L7 33L7 26ZM1 27L1 32L6 32L6 27ZM2 28L2 31L5 31L5 28Z" fill="#000000"/></g></g></svg>
