<?xml version="1.0" encoding="UTF-8"?>
<svg xmlns="http://www.w3.org/2000/svg" version="1.1" width="600" height="600" viewBox="0 0 600 600"><rect x="0" y="0" width="600" height="600" fill="#ffffff"/><g transform="scale(17.143)"><g transform="translate(1,1)"><path fill-rule="evenodd" d="M10 0L10 2L11 2L11 0ZM12 0L12 1L13 1L13 0ZM16 0L16 1L14 1L14 3L13 3L13 2L12 2L12 4L14 4L14 5L15 5L15 6L14 6L14 8L13 8L13 9L12 9L12 7L13 7L13 5L11 5L11 6L10 6L10 4L11 4L11 3L8 3L8 4L9 4L9 5L8 5L8 7L9 7L9 8L6 8L6 9L7 9L7 10L5 10L5 11L7 11L7 12L6 12L6 13L3 13L3 10L4 10L4 9L5 9L5 8L0 8L0 10L1 10L1 11L2 11L2 13L3 13L3 16L2 16L2 15L1 15L1 12L0 12L0 16L2 16L2 17L1 17L1 18L0 18L0 20L1 20L1 19L4 19L4 18L5 18L5 20L4 20L4 21L3 21L3 20L2 20L2 21L0 21L0 25L1 25L1 22L2 22L2 25L3 25L3 24L4 24L4 25L5 25L5 24L6 24L6 25L7 25L7 24L6 24L6 23L9 23L9 25L8 25L8 27L9 27L9 26L10 26L10 28L11 28L11 25L12 25L12 26L13 26L13 27L12 27L12 29L13 29L13 28L14 28L14 29L17 29L17 30L18 30L18 31L19 31L19 30L20 30L20 31L21 31L21 32L20 32L20 33L21 33L21 32L22 32L22 30L23 30L23 29L21 29L21 28L23 28L23 27L24 27L24 31L23 31L23 32L24 32L24 33L25 33L25 32L24 32L24 31L27 31L27 32L28 32L28 33L29 33L29 31L30 31L30 32L31 32L31 33L32 33L32 32L31 32L31 31L32 31L32 30L31 30L31 29L30 29L30 28L32 28L32 26L33 26L33 24L32 24L32 26L31 26L31 25L30 25L30 24L31 24L31 23L32 23L32 22L33 22L33 21L32 21L32 20L31 20L31 19L32 19L32 18L33 18L33 17L32 17L32 16L31 16L31 15L32 15L32 14L33 14L33 13L31 13L31 15L30 15L30 13L29 13L29 10L28 10L28 8L27 8L27 9L26 9L26 8L24 8L24 7L25 7L25 5L24 5L24 4L23 4L23 5L22 5L22 7L21 7L21 4L18 4L18 3L20 3L20 2L18 2L18 3L16 3L16 2L17 2L17 0ZM19 0L19 1L20 1L20 0ZM21 0L21 1L24 1L24 2L25 2L25 1L24 1L24 0ZM8 1L8 2L9 2L9 1ZM21 2L21 3L23 3L23 2ZM14 3L14 4L15 4L15 5L16 5L16 6L15 6L15 8L16 8L16 9L13 9L13 10L12 10L12 9L11 9L11 8L10 8L10 9L8 9L8 10L9 10L9 12L8 12L8 13L9 13L9 14L7 14L7 13L6 13L6 14L7 14L7 15L6 15L6 16L5 16L5 14L4 14L4 16L5 16L5 18L7 18L7 19L6 19L6 20L7 20L7 19L8 19L8 20L9 20L9 21L6 21L6 22L9 22L9 23L10 23L10 24L11 24L11 23L10 23L10 22L13 22L13 23L12 23L12 25L14 25L14 26L17 26L17 28L19 28L19 29L18 29L18 30L19 30L19 29L20 29L20 30L21 30L21 29L20 29L20 27L21 27L21 25L23 25L23 26L24 26L24 25L23 25L23 24L21 24L21 22L22 22L22 21L24 21L24 22L23 22L23 23L24 23L24 24L27 24L27 22L25 22L25 21L27 21L27 20L28 20L28 19L26 19L26 18L25 18L25 17L28 17L28 18L29 18L29 17L30 17L30 19L29 19L29 20L30 20L30 21L28 21L28 24L30 24L30 23L29 23L29 22L30 22L30 21L31 21L31 20L30 20L30 19L31 19L31 16L30 16L30 15L29 15L29 13L28 13L28 16L26 16L26 14L25 14L25 13L27 13L27 12L28 12L28 11L27 11L27 10L25 10L25 9L24 9L24 10L18 10L18 9L23 9L23 8L21 8L21 7L20 7L20 5L19 5L19 7L18 7L18 6L17 6L17 5L18 5L18 4L16 4L16 3ZM23 5L23 7L24 7L24 5ZM9 6L9 7L10 7L10 6ZM11 6L11 7L12 7L12 6ZM16 6L16 8L17 8L17 9L16 9L16 10L15 10L15 13L14 13L14 12L13 12L13 11L14 11L14 10L13 10L13 11L12 11L12 13L14 13L14 14L15 14L15 15L14 15L14 16L13 16L13 17L12 17L12 15L13 15L13 14L11 14L11 15L7 15L7 16L6 16L6 17L7 17L7 16L10 16L10 17L8 17L8 18L11 18L11 17L12 17L12 18L13 18L13 19L12 19L12 21L14 21L14 24L15 24L15 25L18 25L18 27L19 27L19 26L20 26L20 25L21 25L21 24L19 24L19 25L18 25L18 24L15 24L15 23L19 23L19 22L20 22L20 21L21 21L21 20L22 20L22 19L23 19L23 18L24 18L24 17L23 17L23 16L24 16L24 15L25 15L25 14L24 14L24 13L25 13L25 12L26 12L26 11L25 11L25 12L24 12L24 13L22 13L22 15L21 15L21 16L20 16L20 15L19 15L19 14L21 14L21 13L19 13L19 11L18 11L18 10L17 10L17 9L18 9L18 8L17 8L17 6ZM29 8L29 9L30 9L30 8ZM31 8L31 10L33 10L33 9L32 9L32 8ZM2 9L2 10L3 10L3 9ZM10 9L10 11L11 11L11 9ZM17 11L17 12L18 12L18 11ZM20 11L20 12L22 12L22 11ZM30 11L30 12L31 12L31 11ZM9 12L9 13L11 13L11 12ZM15 13L15 14L16 14L16 15L15 15L15 16L14 16L14 17L13 17L13 18L14 18L14 19L13 19L13 20L14 20L14 21L15 21L15 22L16 22L16 21L17 21L17 22L18 22L18 21L19 21L19 20L21 20L21 19L20 19L20 18L21 18L21 17L22 17L22 16L21 16L21 17L20 17L20 16L19 16L19 15L17 15L17 14L19 14L19 13ZM23 14L23 15L24 15L24 14ZM15 16L15 17L14 17L14 18L15 18L15 19L14 19L14 20L15 20L15 21L16 21L16 19L17 19L17 18L15 18L15 17L19 17L19 18L20 18L20 17L19 17L19 16ZM28 16L28 17L29 17L29 16ZM2 17L2 18L4 18L4 17ZM9 19L9 20L10 20L10 19ZM17 20L17 21L18 21L18 20ZM24 20L24 21L25 21L25 20ZM3 22L3 23L5 23L5 22ZM25 25L25 28L28 28L28 25ZM29 25L29 28L30 28L30 27L31 27L31 26L30 26L30 25ZM26 26L26 27L27 27L27 26ZM14 27L14 28L16 28L16 27ZM8 28L8 33L12 33L12 31L13 31L13 30L11 30L11 29L10 29L10 30L11 30L11 31L10 31L10 32L9 32L9 28ZM25 29L25 30L28 30L28 31L29 31L29 30L28 30L28 29ZM15 30L15 31L14 31L14 32L15 32L15 33L16 33L16 32L17 32L17 33L18 33L18 32L17 32L17 31L16 31L16 30ZM30 30L30 31L31 31L31 30ZM0 0L0 7L7 7L7 0ZM1 1L1 6L6 6L6 1ZM2 2L2 5L5 5L5 2ZM26 0L26 7L33 7L33 0ZM27 1L27 6L32 6L32 1ZM28 2L28 5L31 5L31 2ZM0 26L0 33L7 33L7 26ZM1 27L1 32L6 32L6 27ZM2 28L2 31L5 31L5 28Z" fill="#000000"/></g></g></svg>
