<?xml version="1.0" encoding="UTF-8"?>
<svg xmlns="http://www.w3.org/2000/svg" version="1.1" width="600" height="600" viewBox="0 0 600 600"><rect x="0" y="0" width="600" height="600" fill="#ffffff"/><g transform="scale(15.385)"><g transform="translate(1,1)"><path fill-rule="evenodd" d="M10 0L10 2L11 2L11 0ZM12 0L12 1L13 1L13 2L12 2L12 4L13 4L13 3L14 3L14 4L15 4L15 5L18 5L18 4L19 4L19 5L20 5L20 4L19 4L19 3L22 3L22 2L23 2L23 1L25 1L25 2L24 2L24 4L21 4L21 6L20 6L20 9L19 9L19 8L17 8L17 6L16 6L16 9L12 9L12 7L13 7L13 5L11 5L11 6L10 6L10 4L11 4L11 3L8 3L8 4L9 4L9 5L8 5L8 7L9 7L9 8L6 8L6 9L5 9L5 8L0 8L0 9L4 9L4 10L0 10L0 11L1 11L1 12L0 12L0 13L1 13L1 16L0 16L0 18L1 18L1 19L2 19L2 21L0 21L0 23L1 23L1 24L0 24L0 29L1 29L1 25L2 25L2 26L4 26L4 28L5 28L5 29L7 29L7 28L8 28L8 27L7 27L7 26L4 26L4 25L5 25L5 24L6 24L6 25L7 25L7 24L8 24L8 26L9 26L9 27L10 27L10 26L11 26L11 25L12 25L12 26L13 26L13 27L12 27L12 29L13 29L13 28L14 28L14 29L19 29L19 30L18 30L18 32L16 32L16 31L17 31L17 30L15 30L15 31L14 31L14 32L15 32L15 33L12 33L12 31L13 31L13 30L11 30L11 29L10 29L10 28L9 28L9 29L8 29L8 31L11 31L11 32L8 32L8 37L9 37L9 36L10 36L10 37L11 37L11 36L10 36L10 34L11 34L11 33L12 33L12 34L13 34L13 35L12 35L12 37L13 37L13 36L14 36L14 37L15 37L15 36L17 36L17 37L19 37L19 35L18 35L18 34L15 34L15 33L19 33L19 34L20 34L20 35L21 35L21 36L22 36L22 37L23 37L23 36L25 36L25 37L26 37L26 36L29 36L29 37L30 37L30 35L27 35L27 33L30 33L30 34L31 34L31 35L32 35L32 34L35 34L35 35L36 35L36 36L33 36L33 37L37 37L37 30L35 30L35 28L34 28L34 27L36 27L36 28L37 28L37 26L36 26L36 25L37 25L37 22L36 22L36 21L37 21L37 18L36 18L36 17L37 17L37 14L36 14L36 13L35 13L35 12L34 12L34 11L35 11L35 9L36 9L36 8L35 8L35 9L34 9L34 8L33 8L33 9L34 9L34 11L33 11L33 12L32 12L32 13L31 13L31 12L27 12L27 11L30 11L30 10L27 10L27 9L26 9L26 8L25 8L25 9L23 9L23 6L22 6L22 5L24 5L24 4L26 4L26 7L27 7L27 6L28 6L28 8L29 8L29 9L30 9L30 8L29 8L29 5L27 5L27 4L29 4L29 3L28 3L28 2L29 2L29 1L27 1L27 0L18 0L18 1L21 1L21 2L18 2L18 3L17 3L17 4L16 4L16 2L17 2L17 1L16 1L16 0ZM8 1L8 2L9 2L9 1ZM14 2L14 3L15 3L15 2ZM25 2L25 3L26 3L26 2ZM9 6L9 7L10 7L10 6ZM11 6L11 7L12 7L12 6ZM14 6L14 8L15 8L15 6ZM18 6L18 7L19 7L19 6ZM21 6L21 7L22 7L22 6ZM24 6L24 7L25 7L25 6ZM10 8L10 9L6 9L6 10L7 10L7 11L6 11L6 12L5 12L5 11L2 11L2 12L1 12L1 13L2 13L2 15L3 15L3 16L2 16L2 17L3 17L3 18L2 18L2 19L3 19L3 22L4 22L4 21L5 21L5 20L7 20L7 21L6 21L6 22L7 22L7 23L6 23L6 24L7 24L7 23L8 23L8 24L9 24L9 26L10 26L10 25L11 25L11 23L10 23L10 22L9 22L9 19L10 19L10 17L11 17L11 20L10 20L10 21L11 21L11 22L13 22L13 23L12 23L12 25L16 25L16 26L17 26L17 27L14 27L14 28L19 28L19 29L20 29L20 30L19 30L19 31L20 31L20 32L19 32L19 33L24 33L24 34L23 34L23 35L25 35L25 36L26 36L26 35L25 35L25 34L26 34L26 33L27 33L27 32L28 32L28 29L27 29L27 28L28 28L28 27L29 27L29 28L30 28L30 27L29 27L29 26L28 26L28 25L29 25L29 24L28 24L28 25L27 25L27 23L25 23L25 22L28 22L28 21L29 21L29 20L28 20L28 19L29 19L29 18L31 18L31 17L29 17L29 18L28 18L28 17L27 17L27 16L26 16L26 15L27 15L27 14L28 14L28 15L29 15L29 16L30 16L30 15L29 15L29 14L28 14L28 13L24 13L24 12L26 12L26 10L23 10L23 9L22 9L22 8L21 8L21 9L20 9L20 10L19 10L19 9L16 9L16 10L19 10L19 11L20 11L20 12L19 12L19 13L17 13L17 12L18 12L18 11L16 11L16 13L17 13L17 14L15 14L15 13L14 13L14 12L15 12L15 11L14 11L14 12L13 12L13 13L12 13L12 11L13 11L13 10L12 10L12 9L11 9L11 8ZM31 8L31 9L32 9L32 8ZM10 9L10 10L8 10L8 13L9 13L9 14L6 14L6 13L7 13L7 12L6 12L6 13L5 13L5 12L4 12L4 13L3 13L3 12L2 12L2 13L3 13L3 15L5 15L5 16L3 16L3 17L4 17L4 18L3 18L3 19L4 19L4 20L5 20L5 19L9 19L9 18L8 18L8 17L7 17L7 16L8 16L8 15L9 15L9 17L10 17L10 16L11 16L11 17L12 17L12 18L13 18L13 19L12 19L12 21L13 21L13 20L14 20L14 21L15 21L15 22L17 22L17 23L16 23L16 24L17 24L17 26L20 26L20 25L21 25L21 28L20 28L20 29L21 29L21 30L20 30L20 31L21 31L21 32L23 32L23 30L25 30L25 29L26 29L26 32L25 32L25 31L24 31L24 33L26 33L26 32L27 32L27 29L26 29L26 28L25 28L25 27L28 27L28 26L27 26L27 25L26 25L26 24L25 24L25 23L23 23L23 22L25 22L25 21L27 21L27 19L28 19L28 18L27 18L27 17L26 17L26 16L25 16L25 14L24 14L24 13L19 13L19 14L18 14L18 16L17 16L17 15L16 15L16 17L12 17L12 15L13 15L13 14L11 14L11 13L10 13L10 12L11 12L11 11L10 11L10 10L11 10L11 9ZM21 9L21 10L20 10L20 11L21 11L21 12L23 12L23 11L21 11L21 10L22 10L22 9ZM31 10L31 11L32 11L32 10ZM36 10L36 11L37 11L37 10ZM4 13L4 14L5 14L5 15L6 15L6 16L5 16L5 17L6 17L6 18L7 18L7 17L6 17L6 16L7 16L7 15L6 15L6 14L5 14L5 13ZM30 13L30 14L31 14L31 16L35 16L35 17L36 17L36 14L35 14L35 15L34 15L34 13L32 13L32 14L31 14L31 13ZM19 14L19 17L16 17L16 18L19 18L19 19L20 19L20 18L19 18L19 17L21 17L21 18L22 18L22 19L23 19L23 20L21 20L21 21L20 21L20 20L19 20L19 21L17 21L17 20L18 20L18 19L16 19L16 21L17 21L17 22L18 22L18 23L17 23L17 24L18 24L18 23L20 23L20 24L19 24L19 25L20 25L20 24L21 24L21 25L24 25L24 26L23 26L23 27L22 27L22 28L21 28L21 29L25 29L25 28L23 28L23 27L25 27L25 26L26 26L26 25L24 25L24 24L23 24L23 23L22 23L22 22L21 22L21 21L25 21L25 20L26 20L26 19L27 19L27 18L25 18L25 17L24 17L24 16L23 16L23 15L24 15L24 14L23 14L23 15L22 15L22 16L20 16L20 15L21 15L21 14ZM32 14L32 15L33 15L33 14ZM14 15L14 16L15 16L15 15ZM22 17L22 18L24 18L24 20L25 20L25 18L24 18L24 17ZM32 17L32 18L34 18L34 19L33 19L33 20L36 20L36 19L35 19L35 18L34 18L34 17ZM14 19L14 20L15 20L15 19ZM31 20L31 21L30 21L30 22L29 22L29 23L30 23L30 24L33 24L33 25L32 25L32 26L33 26L33 27L31 27L31 28L33 28L33 27L34 27L34 26L35 26L35 25L34 25L34 24L36 24L36 23L35 23L35 22L34 22L34 21L32 21L32 20ZM19 21L19 22L20 22L20 23L21 23L21 24L22 24L22 23L21 23L21 22L20 22L20 21ZM31 21L31 22L30 22L30 23L31 23L31 22L32 22L32 21ZM1 22L1 23L2 23L2 22ZM3 23L3 24L2 24L2 25L4 25L4 23ZM9 23L9 24L10 24L10 23ZM14 23L14 24L15 24L15 23ZM30 25L30 26L31 26L31 25ZM33 25L33 26L34 26L34 25ZM2 27L2 28L3 28L3 27ZM6 27L6 28L7 28L7 27ZM29 29L29 32L32 32L32 29ZM33 29L33 32L35 32L35 33L36 33L36 31L35 31L35 30L34 30L34 29ZM21 30L21 31L22 31L22 30ZM30 30L30 31L31 31L31 30ZM9 33L9 34L10 34L10 33ZM14 35L14 36L15 36L15 35ZM17 35L17 36L18 36L18 35ZM31 36L31 37L32 37L32 36ZM0 0L0 7L7 7L7 0ZM1 1L1 6L6 6L6 1ZM2 2L2 5L5 5L5 2ZM30 0L30 7L37 7L37 0ZM31 1L31 6L36 6L36 1ZM32 2L32 5L35 5L35 2ZM0 30L0 37L7 37L7 30ZM1 31L1 36L6 36L6 31ZM2 32L2 35L5 35L5 32Z" fill="#000000"/></g></g></svg>
