<?xml version="1.0" encoding="UTF-8"?>
<svg xmlns="http://www.w3.org/2000/svg" version="1.1" width="600" height="600" viewBox="0 0 600 600"><rect x="0" y="0" width="600" height="600" fill="#ffffff"/><g transform="scale(17.143)"><g transform="translate(1,1)"><path fill-rule="evenodd" d="M9 0L9 1L8 1L8 2L9 2L9 3L8 3L8 4L10 4L10 7L11 7L11 4L12 4L12 5L13 5L13 6L12 6L12 9L14 9L14 10L11 10L11 11L10 11L10 9L11 9L11 8L6 8L6 9L5 9L5 8L0 8L0 12L1 12L1 13L0 13L0 16L1 16L1 17L0 17L0 18L1 18L1 17L2 17L2 18L4 18L4 19L2 19L2 21L0 21L0 25L1 25L1 22L2 22L2 23L3 23L3 24L5 24L5 25L8 25L8 27L9 27L9 25L8 25L8 24L9 24L9 23L10 23L10 24L11 24L11 22L9 22L9 20L10 20L10 21L12 21L12 22L13 22L13 23L12 23L12 25L14 25L14 26L15 26L15 27L14 27L14 28L16 28L16 29L19 29L19 30L22 30L22 29L23 29L23 27L24 27L24 31L23 31L23 32L22 32L22 31L20 31L20 32L22 32L22 33L23 33L23 32L24 32L24 33L25 33L25 32L24 32L24 31L27 31L27 32L28 32L28 33L29 33L29 31L30 31L30 32L31 32L31 33L32 33L32 32L31 32L31 31L32 31L32 30L31 30L31 29L30 29L30 28L31 28L31 27L32 27L32 28L33 28L33 27L32 27L32 26L33 26L33 24L32 24L32 26L31 26L31 25L30 25L30 24L31 24L31 23L32 23L32 22L33 22L33 21L32 21L32 20L31 20L31 19L32 19L32 18L33 18L33 17L32 17L32 16L31 16L31 15L32 15L32 14L33 14L33 13L31 13L31 15L30 15L30 13L29 13L29 10L28 10L28 8L27 8L27 9L26 9L26 8L24 8L24 7L25 7L25 5L24 5L24 4L23 4L23 5L22 5L22 7L21 7L21 5L20 5L20 4L21 4L21 3L23 3L23 2L21 2L21 3L19 3L19 2L18 2L18 1L17 1L17 0L16 0L16 1L15 1L15 4L14 4L14 3L13 3L13 4L12 4L12 2L14 2L14 1L11 1L11 2L10 2L10 0ZM19 0L19 1L20 1L20 0ZM21 0L21 1L24 1L24 2L25 2L25 1L24 1L24 0ZM16 1L16 3L18 3L18 2L17 2L17 1ZM10 3L10 4L11 4L11 3ZM13 4L13 5L14 5L14 6L13 6L13 8L14 8L14 9L15 9L15 10L16 10L16 9L17 9L17 12L16 12L16 13L15 13L15 11L12 11L12 13L11 13L11 12L10 12L10 13L11 13L11 14L9 14L9 12L7 12L7 11L5 11L5 9L3 9L3 10L1 10L1 11L2 11L2 12L3 12L3 11L5 11L5 12L7 12L7 13L6 13L6 14L5 14L5 15L6 15L6 16L5 16L5 17L4 17L4 15L3 15L3 14L4 14L4 13L3 13L3 14L2 14L2 15L1 15L1 16L2 16L2 17L4 17L4 18L7 18L7 17L6 17L6 16L7 16L7 15L8 15L8 14L9 14L9 16L8 16L8 17L9 17L9 19L10 19L10 20L11 20L11 19L10 19L10 18L13 18L13 19L12 19L12 21L13 21L13 22L14 22L14 23L13 23L13 24L14 24L14 25L15 25L15 26L16 26L16 28L19 28L19 29L22 29L22 28L20 28L20 27L21 27L21 26L22 26L22 25L23 25L23 26L24 26L24 25L23 25L23 23L24 23L24 24L27 24L27 22L25 22L25 21L27 21L27 20L28 20L28 19L26 19L26 18L25 18L25 17L28 17L28 18L29 18L29 17L30 17L30 19L29 19L29 20L30 20L30 21L28 21L28 24L30 24L30 23L29 23L29 22L30 22L30 21L31 21L31 20L30 20L30 19L31 19L31 16L30 16L30 15L29 15L29 13L28 13L28 16L26 16L26 14L25 14L25 13L27 13L27 12L28 12L28 11L27 11L27 10L25 10L25 9L24 9L24 10L23 10L23 12L21 12L21 11L22 11L22 10L21 10L21 9L23 9L23 8L21 8L21 7L20 7L20 5L19 5L19 4L18 4L18 5L17 5L17 4L15 4L15 5L14 5L14 4ZM8 5L8 7L9 7L9 5ZM15 5L15 6L14 6L14 8L15 8L15 9L16 9L16 8L17 8L17 9L19 9L19 10L20 10L20 11L19 11L19 12L20 12L20 11L21 11L21 10L20 10L20 9L21 9L21 8L20 8L20 7L19 7L19 5L18 5L18 7L19 7L19 8L17 8L17 6L16 6L16 5ZM23 5L23 7L24 7L24 5ZM15 6L15 7L16 7L16 6ZM19 8L19 9L20 9L20 8ZM29 8L29 9L30 9L30 8ZM31 8L31 10L33 10L33 9L32 9L32 8ZM6 9L6 10L7 10L7 9ZM8 9L8 10L9 10L9 9ZM25 11L25 12L24 12L24 13L18 13L18 12L17 12L17 13L16 13L16 14L15 14L15 13L14 13L14 12L13 12L13 13L12 13L12 14L13 14L13 13L14 13L14 15L15 15L15 17L14 17L14 16L13 16L13 15L12 15L12 17L14 17L14 19L15 19L15 20L13 20L13 21L16 21L16 22L15 22L15 23L14 23L14 24L15 24L15 25L16 25L16 26L18 26L18 27L19 27L19 26L21 26L21 25L19 25L19 23L18 23L18 24L17 24L17 23L16 23L16 22L17 22L17 21L19 21L19 22L20 22L20 24L22 24L22 23L23 23L23 22L24 22L24 21L25 21L25 20L24 20L24 21L23 21L23 18L24 18L24 17L22 17L22 19L21 19L21 17L18 17L18 16L17 16L17 15L19 15L19 14L21 14L21 15L20 15L20 16L24 16L24 15L25 15L25 14L24 14L24 13L25 13L25 12L26 12L26 11ZM30 11L30 12L31 12L31 11ZM17 13L17 14L16 14L16 15L17 15L17 14L18 14L18 13ZM6 14L6 15L7 15L7 14ZM22 14L22 15L24 15L24 14ZM2 15L2 16L3 16L3 15ZM9 16L9 17L11 17L11 16ZM28 16L28 17L29 17L29 16ZM15 17L15 18L16 18L16 19L17 19L17 20L16 20L16 21L17 21L17 20L19 20L19 21L22 21L22 20L20 20L20 18L19 18L19 19L18 19L18 17ZM0 19L0 20L1 20L1 19ZM5 19L5 20L8 20L8 19ZM3 20L3 21L4 21L4 20ZM5 21L5 22L7 22L7 23L5 23L5 24L8 24L8 23L9 23L9 22L8 22L8 21ZM3 22L3 23L4 23L4 22ZM15 23L15 24L16 24L16 25L17 25L17 24L16 24L16 23ZM18 25L18 26L19 26L19 25ZM25 25L25 28L28 28L28 25ZM29 25L29 28L30 28L30 27L31 27L31 26L30 26L30 25ZM10 26L10 28L8 28L8 33L10 33L10 31L11 31L11 30L10 30L10 29L12 29L12 30L13 30L13 31L12 31L12 33L13 33L13 32L14 32L14 33L16 33L16 32L14 32L14 31L18 31L18 32L17 32L17 33L18 33L18 32L19 32L19 31L18 31L18 30L14 30L14 29L12 29L12 27L13 27L13 26ZM26 26L26 27L27 27L27 26ZM25 29L25 30L28 30L28 31L29 31L29 30L28 30L28 29ZM30 30L30 31L31 31L31 30ZM0 0L0 7L7 7L7 0ZM1 1L1 6L6 6L6 1ZM2 2L2 5L5 5L5 2ZM26 0L26 7L33 7L33 0ZM27 1L27 6L32 6L32 1ZM28 2L28 5L31 5L31 2ZM0 26L0 33L7 33L7 26ZM1 27L1 32L6 32L6 27ZM2 28L2 31L5 31L5 28Z" fill="#000000"/></g></g></svg>
