<?xml version="1.0" encoding="us-ascii" standalone="no"?><svg xmlns="http://www.w3.org/2000/svg" xmlns:xlink="http://www.w3.org/1999/xlink" contentStyleType="text/css" height="648px" preserveAspectRatio="none" style="width:933px;height:648px;background:#FFFFFF;" version="1.1" viewBox="0 0 933 648" width="933px" zoomAndPan="magnify"><defs/><g><text fill="#000000" font-family="sans-serif" font-size="14" font-weight="bold" lengthAdjust="spacing" textLength="334" x="301" y="29.5332">Sequence Diagram Penerbitan Sertifikat Trainer</text><rect fill="#FFFFFF" height="182.1094" style="stroke:#B8C7D9;stroke-width:1.0;" width="10" x="218.5" y="153.5703"/><rect fill="#FFFFFF" height="151.7578" style="stroke:#B8C7D9;stroke-width:1.0;" width="10" x="407.5" y="183.9219"/><rect fill="#FFFFFF" height="151.7578" style="stroke:#B8C7D9;stroke-width:1.0;" width="10" x="407.5" y="396.3828"/><rect fill="#FFFFFF" height="30.3516" style="stroke:#B8C7D9;stroke-width:1.0;" width="10" x="616.5" y="214.2734"/><rect fill="#FFFFFF" height="30.3516" style="stroke:#B8C7D9;stroke-width:1.0;" width="10" x="616.5" y="274.9766"/><rect fill="#FFFFFF" height="30.3516" style="stroke:#B8C7D9;stroke-width:1.0;" width="10" x="616.5" y="426.7344"/><rect fill="#FFFFFF" height="182.1094" style="stroke:#B8C7D9;stroke-width:1.0;" width="10" x="723" y="366.0313"/><line style="stroke:#B8C7D9;stroke-width:0.5;stroke-dasharray:5.0,5.0;" x1="52" x2="52" y1="121.2188" y2="566.1406"/><line style="stroke:#B8C7D9;stroke-width:0.5;stroke-dasharray:5.0,5.0;" x1="223" x2="223" y1="121.2188" y2="566.1406"/><line style="stroke:#B8C7D9;stroke-width:0.5;stroke-dasharray:5.0,5.0;" x1="412.5" x2="412.5" y1="121.2188" y2="566.1406"/><line style="stroke:#B8C7D9;stroke-width:0.5;stroke-dasharray:5.0,5.0;" x1="621" x2="621" y1="121.2188" y2="566.1406"/><line style="stroke:#B8C7D9;stroke-width:0.5;stroke-dasharray:5.0,5.0;" x1="728" x2="728" y1="121.2188" y2="566.1406"/><line style="stroke:#B8C7D9;stroke-width:0.5;stroke-dasharray:5.0,5.0;" x1="906" x2="906" y1="121.2188" y2="566.1406"/><text fill="#000000" font-family="sans-serif" font-size="14" lengthAdjust="spacing" textLength="89" x="5" y="118.1426">Admin Trainer</text><ellipse cx="52.5" cy="52.1094" fill="#FFFFFF" rx="8" ry="8" style="stroke:#24364B;stroke-width:0.5;"/><path d="M52.5,60.1094 L52.5,87.1094 M39.5,68.1094 L65.5,68.1094 M52.5,87.1094 L39.5,102.1094 M52.5,87.1094 L65.5,102.1094 " fill="none" style="stroke:#24364B;stroke-width:0.5;"/><text fill="#000000" font-family="sans-serif" font-size="14" lengthAdjust="spacing" textLength="89" x="5" y="579.6738">Admin Trainer</text><ellipse cx="52.5" cy="591.25" fill="#FFFFFF" rx="8" ry="8" style="stroke:#24364B;stroke-width:0.5;"/><path d="M52.5,599.25 L52.5,626.25 M39.5,607.25 L65.5,607.25 M52.5,626.25 L39.5,641.25 M52.5,626.25 L65.5,641.25 " fill="none" style="stroke:#24364B;stroke-width:0.5;"/><text fill="#000000" font-family="sans-serif" font-size="14" lengthAdjust="spacing" textLength="163" x="139" y="118.1426">Dashboard Admin Trainer</text><path d="M203,75.6094 L203,99.6094 M203,87.6094 L220,87.6094 " fill="none" style="stroke:#181818;stroke-width:0.5;"/><ellipse cx="232" cy="87.6094" fill="#E2E2F0" rx="12" ry="12" style="stroke:#181818;stroke-width:0.5;"/><text fill="#000000" font-family="sans-serif" font-size="14" lengthAdjust="spacing" textLength="163" x="139" y="579.6738">Dashboard Admin Trainer</text><path d="M203,586.75 L203,610.75 M203,598.75 L220,598.75 " fill="none" style="stroke:#181818;stroke-width:0.5;"/><ellipse cx="232" cy="598.75" fill="#E2E2F0" rx="12" ry="12" style="stroke:#181818;stroke-width:0.5;"/><rect fill="#1F2D3D" height="31.6094" rx="2.5" ry="2.5" style="stroke:#1F2D3D;stroke-width:0.5;" width="56" x="384.5" y="88.6094"/><text fill="#FFFFFF" font-family="sans-serif" font-size="14" lengthAdjust="spacing" textLength="42" x="391.5" y="110.1426">Sistem</text><rect fill="#1F2D3D" height="31.6094" rx="2.5" ry="2.5" style="stroke:#1F2D3D;stroke-width:0.5;" width="56" x="384.5" y="565.1406"/><text fill="#FFFFFF" font-family="sans-serif" font-size="14" lengthAdjust="spacing" textLength="42" x="391.5" y="586.6738">Sistem</text><text fill="#000000" font-family="sans-serif" font-size="14" lengthAdjust="spacing" textLength="61" x="588" y="118.1426">Database</text><path d="M603.5,67.6094 C603.5,57.6094 621.5,57.6094 621.5,57.6094 C621.5,57.6094 639.5,57.6094 639.5,67.6094 L639.5,93.6094 C639.5,103.6094 621.5,103.6094 621.5,103.6094 C621.5,103.6094 603.5,103.6094 603.5,93.6094 L603.5,67.6094 " fill="#E2E2F0" style="stroke:#181818;stroke-width:1.5;"/><path d="M603.5,67.6094 C603.5,77.6094 621.5,77.6094 621.5,77.6094 C621.5,77.6094 639.5,77.6094 639.5,67.6094 " fill="none" style="stroke:#181818;stroke-width:1.5;"/><text fill="#000000" font-family="sans-serif" font-size="14" lengthAdjust="spacing" textLength="61" x="588" y="579.6738">Database</text><path d="M603.5,592.75 C603.5,582.75 621.5,582.75 621.5,582.75 C621.5,582.75 639.5,582.75 639.5,592.75 L639.5,618.75 C639.5,628.75 621.5,628.75 621.5,628.75 C621.5,628.75 603.5,628.75 603.5,618.75 L603.5,592.75 " fill="#E2E2F0" style="stroke:#181818;stroke-width:1.5;"/><path d="M603.5,592.75 C603.5,602.75 621.5,602.75 621.5,602.75 C621.5,602.75 639.5,602.75 639.5,592.75 " fill="none" style="stroke:#181818;stroke-width:1.5;"/><text fill="#000000" font-family="sans-serif" font-size="14" lengthAdjust="spacing" textLength="120" x="665" y="118.1426">Dashboard Trainer</text><path d="M707.5,75.6094 L707.5,99.6094 M707.5,87.6094 L724.5,87.6094 " fill="none" style="stroke:#181818;stroke-width:0.5;"/><ellipse cx="736.5" cy="87.6094" fill="#E2E2F0" rx="12" ry="12" style="stroke:#181818;stroke-width:0.5;"/><text fill="#000000" font-family="sans-serif" font-size="14" lengthAdjust="spacing" textLength="120" x="665" y="579.6738">Dashboard Trainer</text><path d="M707.5,586.75 L707.5,610.75 M707.5,598.75 L724.5,598.75 " fill="none" style="stroke:#181818;stroke-width:0.5;"/><ellipse cx="736.5" cy="598.75" fill="#E2E2F0" rx="12" ry="12" style="stroke:#181818;stroke-width:0.5;"/><text fill="#000000" font-family="sans-serif" font-size="14" lengthAdjust="spacing" textLength="46" x="880" y="118.1426">Trainer</text><ellipse cx="906" cy="52.1094" fill="#FFFFFF" rx="8" ry="8" style="stroke:#24364B;stroke-width:0.5;"/><path d="M906,60.1094 L906,87.1094 M893,68.1094 L919,68.1094 M906,87.1094 L893,102.1094 M906,87.1094 L919,102.1094 " fill="none" style="stroke:#24364B;stroke-width:0.5;"/><text fill="#000000" font-family="sans-serif" font-size="14" lengthAdjust="spacing" textLength="46" x="880" y="579.6738">Trainer</text><ellipse cx="906" cy="591.25" fill="#FFFFFF" rx="8" ry="8" style="stroke:#24364B;stroke-width:0.5;"/><path d="M906,599.25 L906,626.25 M893,607.25 L919,607.25 M906,626.25 L893,641.25 M906,626.25 L919,641.25 " fill="none" style="stroke:#24364B;stroke-width:0.5;"/><rect fill="#FFFFFF" height="182.1094" style="stroke:#B8C7D9;stroke-width:1.0;" width="10" x="218.5" y="153.5703"/><rect fill="#FFFFFF" height="151.7578" style="stroke:#B8C7D9;stroke-width:1.0;" width="10" x="407.5" y="183.9219"/><rect fill="#FFFFFF" height="151.7578" style="stroke:#B8C7D9;stroke-width:1.0;" width="10" x="407.5" y="396.3828"/><rect fill="#FFFFFF" height="30.3516" style="stroke:#B8C7D9;stroke-width:1.0;" width="10" x="616.5" y="214.2734"/><rect fill="#FFFFFF" height="30.3516" style="stroke:#B8C7D9;stroke-width:1.0;" width="10" x="616.5" y="274.9766"/><rect fill="#FFFFFF" height="30.3516" style="stroke:#B8C7D9;stroke-width:1.0;" width="10" x="616.5" y="426.7344"/><rect fill="#FFFFFF" height="182.1094" style="stroke:#B8C7D9;stroke-width:1.0;" width="10" x="723" y="366.0313"/><polygon fill="#24364B" points="206.5,149.5703,216.5,153.5703,206.5,157.5703,210.5,153.5703" style="stroke:#24364B;stroke-width:1.0;"/><line style="stroke:#24364B;stroke-width:1.0;" x1="52.5" x2="212.5" y1="153.5703" y2="153.5703"/><text fill="#000000" font-family="sans-serif" font-size="13" lengthAdjust="spacing" textLength="147" x="59.5" y="148.7139">Pilih event/course selesai</text><polygon fill="#24364B" points="395.5,179.9219,405.5,183.9219,395.5,187.9219,399.5,183.9219" style="stroke:#24364B;stroke-width:1.0;"/><line style="stroke:#24364B;stroke-width:1.0;" x1="228.5" x2="401.5" y1="183.9219" y2="183.9219"/><text fill="#000000" font-family="sans-serif" font-size="13" lengthAdjust="spacing" textLength="155" x="235.5" y="179.0654">Request generate sertifikat</text><polygon fill="#24364B" points="604.5,210.2734,614.5,214.2734,604.5,218.2734,608.5,214.2734" style="stroke:#24364B;stroke-width:1.0;"/><line style="stroke:#24364B;stroke-width:1.0;" x1="417.5" x2="610.5" y1="214.2734" y2="214.2734"/><text fill="#000000" font-family="sans-serif" font-size="13" lengthAdjust="spacing" textLength="180" x="424.5" y="209.417">Ambil data trainer dan kegiatan</text><polygon fill="#24364B" points="428.5,240.625,418.5,244.625,428.5,248.625,424.5,244.625" style="stroke:#24364B;stroke-width:1.0;"/><line style="stroke:#24364B;stroke-width:1.0;stroke-dasharray:2.0,2.0;" x1="422.5" x2="620.5" y1="244.625" y2="244.625"/><text fill="#000000" font-family="sans-serif" font-size="13" lengthAdjust="spacing" textLength="145" x="434.5" y="239.7686">Data trainer dan kegiatan</text><polygon fill="#24364B" points="604.5,270.9766,614.5,274.9766,604.5,278.9766,608.5,274.9766" style="stroke:#24364B;stroke-width:1.0;"/><line style="stroke:#24364B;stroke-width:1.0;" x1="417.5" x2="610.5" y1="274.9766" y2="274.9766"/><text fill="#000000" font-family="sans-serif" font-size="13" lengthAdjust="spacing" textLength="126" x="424.5" y="270.1201">Simpan data sertifikat</text><polygon fill="#24364B" points="428.5,301.3281,418.5,305.3281,428.5,309.3281,424.5,305.3281" style="stroke:#24364B;stroke-width:1.0;"/><line style="stroke:#24364B;stroke-width:1.0;stroke-dasharray:2.0,2.0;" x1="422.5" x2="620.5" y1="305.3281" y2="305.3281"/><text fill="#000000" font-family="sans-serif" font-size="13" lengthAdjust="spacing" textLength="112" x="434.5" y="300.4717">Sertifikat tersimpan</text><polygon fill="#24364B" points="234.5,331.6797,224.5,335.6797,234.5,339.6797,230.5,335.6797" style="stroke:#24364B;stroke-width:1.0;"/><line style="stroke:#24364B;stroke-width:1.0;stroke-dasharray:2.0,2.0;" x1="228.5" x2="411.5" y1="335.6797" y2="335.6797"/><text fill="#000000" font-family="sans-serif" font-size="13" lengthAdjust="spacing" textLength="155" x="240.5" y="330.8232">Generate sertifikat berhasil</text><polygon fill="#24364B" points="744,362.0313,734,366.0313,744,370.0313,740,366.0313" style="stroke:#24364B;stroke-width:1.0;"/><line style="stroke:#24364B;stroke-width:1.0;" x1="738" x2="905" y1="366.0313" y2="366.0313"/><text fill="#000000" font-family="sans-serif" font-size="13" lengthAdjust="spacing" textLength="136" x="750" y="361.1748">Buka halaman sertifikat</text><polygon fill="#24364B" points="428.5,392.3828,418.5,396.3828,428.5,400.3828,424.5,396.3828" style="stroke:#24364B;stroke-width:1.0;"/><line style="stroke:#24364B;stroke-width:1.0;" x1="422.5" x2="722" y1="396.3828" y2="396.3828"/><text fill="#000000" font-family="sans-serif" font-size="13" lengthAdjust="spacing" textLength="130" x="434.5" y="391.5264">Request data sertifikat</text><polygon fill="#24364B" points="604.5,422.7344,614.5,426.7344,604.5,430.7344,608.5,426.7344" style="stroke:#24364B;stroke-width:1.0;"/><line style="stroke:#24364B;stroke-width:1.0;" x1="417.5" x2="610.5" y1="426.7344" y2="426.7344"/><text fill="#000000" font-family="sans-serif" font-size="13" lengthAdjust="spacing" textLength="115" x="424.5" y="421.8779">Ambil data sertifikat</text><polygon fill="#24364B" points="428.5,453.0859,418.5,457.0859,428.5,461.0859,424.5,457.0859" style="stroke:#24364B;stroke-width:1.0;"/><line style="stroke:#24364B;stroke-width:1.0;stroke-dasharray:2.0,2.0;" x1="422.5" x2="620.5" y1="457.0859" y2="457.0859"/><text fill="#000000" font-family="sans-serif" font-size="13" lengthAdjust="spacing" textLength="80" x="434.5" y="452.2295">Data sertifikat</text><polygon fill="#24364B" points="711,483.4375,721,487.4375,711,491.4375,715,487.4375" style="stroke:#24364B;stroke-width:1.0;"/><line style="stroke:#24364B;stroke-width:1.0;stroke-dasharray:2.0,2.0;" x1="417.5" x2="717" y1="487.4375" y2="487.4375"/><text fill="#000000" font-family="sans-serif" font-size="13" lengthAdjust="spacing" textLength="112" x="424.5" y="482.5811">Tampilkan sertifikat</text><polygon fill="#24364B" points="744,513.7891,734,517.7891,744,521.7891,740,517.7891" style="stroke:#24364B;stroke-width:1.0;"/><line style="stroke:#24364B;stroke-width:1.0;" x1="738" x2="905" y1="517.7891" y2="517.7891"/><text fill="#000000" font-family="sans-serif" font-size="13" lengthAdjust="spacing" textLength="109" x="750" y="512.9326">Download sertifikat</text><polygon fill="#24364B" points="894,544.1406,904,548.1406,894,552.1406,898,548.1406" style="stroke:#24364B;stroke-width:1.0;"/><line style="stroke:#24364B;stroke-width:1.0;stroke-dasharray:2.0,2.0;" x1="728" x2="900" y1="548.1406" y2="548.1406"/><text fill="#000000" font-family="sans-serif" font-size="13" lengthAdjust="spacing" textLength="149" x="735" y="543.2842">Sertifikat berhasil diunduh</text><!--SRC=[ZLFBRjim4BppAnREEIYQ1EdZ4C0AaLnoCEhymCfQImj9f4jICOAY_rvIaYtA4TlwH7DtPdPcHSUk8TZIpuxKZa0obWPRs90YaxD3vMl6yPvhTF1gaFsz4BPcTS3GcEEkBetkLF6e6stWMB6Zg6uhBFIHLGbxR2p5K7iI_IN0_zR6wED0SdLpTtj_b_NNBxod5w-QQLEG6UlPrySlyjkylZZ8mBnpsipm4VzGJ8EpS8lcFOK_rzCK4XtcQ2b5SQwdAJRebx3Z0oftsNNr-Ub6tieFRR7OSikJLYvM-Yq4XZHWjIvQLgTrhm0jz3SY7yt2IgAjSescW4HlQ127IGnMMxQEshvZ-nwEeXYD1xhXr5TbjYWKIupdNcISUQ4in33SzSCq4to73JTS0RsHSfzskZD-04iDMUJ0nM_eAF8W9gZd6IRt93_2rsiTbE6b18GzlvE9PVGfHfJ7oynZrstE3GJtu8P9_Hy5DPNixzI4zqbum7MiAvEeWcBSfUQMMx-6GNHfr0MfwEKxChOdIAbSHFpyCHN8oLHekOafJXy2BGK_RZ5OYFRjsREkHgYmmTOxMZ8JVnuYnYvjC1d9lxVtdq7AYzvqXdEVhzWUkAdd9jEnI7rKZSOYxfwPdn3pxPus0mNxPzVvpFwweZZTFm00]--></g></svg>